M48
; DRILL file {KiCad (5.1.5-0-10_14)} date Saturday, 25 April 2020 at 17:19:34
; FORMAT={-:-/ absolute / inch / decimal}
; #@! TF.CreationDate,2020-04-25T17:19:34+01:00
; #@! TF.GenerationSoftware,Kicad,Pcbnew,(5.1.5-0-10_14)
; #@! TF.FileFunction,Plated,1,2,PTH
FMAT,2
INCH
T1C0.0138
T2C0.0173
T3C0.0315
T4C0.0320
T5C0.0354
T6C0.0394
T7C0.0400
T8C0.0433
T9C0.0472
%
G90
G05
T2
X2.8707Y-2.7555
X2.8707Y-2.8067
X2.8707Y-2.8579
X2.91Y-2.7811
X2.91Y-2.8323
T3
X3.62Y-1.76
X3.62Y-1.9569
X4.6585Y-1.6309
X4.6585Y-1.8278
X5.8193Y-1.6305
X5.8193Y-1.8274
X7.0756Y-1.6305
X7.0756Y-1.8274
X8.2583Y-1.6305
X8.2583Y-1.8274
X3.3539Y-3.963
X3.5508Y-3.963
X3.3539Y-2.824
X3.5508Y-2.824
X3.2Y-2.46
X3.2Y-2.76
T4
X3.4442Y-2.4553
X3.5842Y-2.4553
X3.4Y-1.58
X3.8Y-1.58
T5
X3.1844Y-1.5803
X3.2844Y-1.5803
T6
X2.8709Y-3.2374
X2.8709Y-3.3374
X2.8709Y-3.4374
X3.4022Y-4.3677
X3.5022Y-4.3677
X3.4022Y-4.4671
X3.5022Y-4.4671
X3.4022Y-4.2673
X3.5022Y-4.2673
T7
X7.3778Y-1.6296
X7.3778Y-1.7296
X7.3778Y-1.8296
X7.3778Y-1.9296
X7.3778Y-2.0296
X7.3778Y-2.1296
X7.3778Y-2.2296
X7.3778Y-2.3296
X7.3778Y-2.4296
X7.3778Y-2.5296
X7.3778Y-2.6296
X7.3778Y-2.7296
X7.3778Y-2.8296
X7.3778Y-2.9296
X7.3778Y-3.0296
X7.3778Y-3.1296
X7.3778Y-3.2296
X7.3778Y-3.3296
X7.3778Y-3.4296
X7.3778Y-3.5296
X7.3778Y-3.6296
X7.3778Y-3.7296
X7.3778Y-3.8296
X7.3778Y-3.9296
X7.3778Y-4.0296
X7.3778Y-4.1296
X7.3778Y-4.2296
X7.3778Y-4.3296
X7.3778Y-4.4296
X7.3778Y-4.5296
X7.3778Y-4.6296
X7.3778Y-4.7296
X7.4778Y-1.6296
X7.4778Y-1.7296
X7.4778Y-1.8296
X7.4778Y-1.9296
X7.4778Y-2.0296
X7.4778Y-2.1296
X7.4778Y-2.2296
X7.4778Y-2.3296
X7.4778Y-2.4296
X7.4778Y-2.5296
X7.4778Y-2.6296
X7.4778Y-2.7296
X7.4778Y-2.8296
X7.4778Y-2.9296
X7.4778Y-3.0296
X7.4778Y-3.1296
X7.4778Y-3.2296
X7.4778Y-3.3296
X7.4778Y-3.4296
X7.4778Y-3.5296
X7.4778Y-3.6296
X7.4778Y-3.7296
X7.4778Y-3.8296
X7.4778Y-3.9296
X7.4778Y-4.0296
X7.4778Y-4.1296
X7.4778Y-4.2296
X7.4778Y-4.3296
X7.4778Y-4.4296
X7.4778Y-4.5296
X7.4778Y-4.6296
X7.4778Y-4.7296
X8.5278Y-5.0454
X8.5278Y-5.1454
X8.5278Y-5.2454
X8.5278Y-5.3454
X8.5278Y-5.4454
X8.5278Y-5.5454
X8.5278Y-5.6454
X8.5278Y-5.7454
X8.6278Y-5.0454
X8.6278Y-5.1454
X8.6278Y-5.2454
X8.6278Y-5.3454
X8.6278Y-5.4454
X8.6278Y-5.5454
X8.6278Y-5.6454
X8.6278Y-5.7454
X8.5278Y-1.6296
X8.5278Y-1.7296
X8.5278Y-1.8296
X8.5278Y-1.9296
X8.5278Y-2.0296
X8.5278Y-2.1296
X8.5278Y-2.2296
X8.5278Y-2.3296
X8.5278Y-2.4296
X8.5278Y-2.5296
X8.5278Y-2.6296
X8.5278Y-2.7296
X8.5278Y-2.8296
X8.5278Y-2.9296
X8.5278Y-3.0296
X8.5278Y-3.1296
X8.5278Y-3.2296
X8.5278Y-3.3296
X8.5278Y-3.4296
X8.5278Y-3.5296
X8.5278Y-3.6296
X8.5278Y-3.7296
X8.5278Y-3.8296
X8.5278Y-3.9296
X8.5278Y-4.0296
X8.5278Y-4.1296
X8.5278Y-4.2296
X8.5278Y-4.3296
X8.5278Y-4.4296
X8.5278Y-4.5296
X8.5278Y-4.6296
X8.5278Y-4.7296
X8.6278Y-1.6296
X8.6278Y-1.7296
X8.6278Y-1.8296
X8.6278Y-1.9296
X8.6278Y-2.0296
X8.6278Y-2.1296
X8.6278Y-2.2296
X8.6278Y-2.3296
X8.6278Y-2.4296
X8.6278Y-2.5296
X8.6278Y-2.6296
X8.6278Y-2.7296
X8.6278Y-2.8296
X8.6278Y-2.9296
X8.6278Y-3.0296
X8.6278Y-3.1296
X8.6278Y-3.2296
X8.6278Y-3.3296
X8.6278Y-3.4296
X8.6278Y-3.5296
X8.6278Y-3.6296
X8.6278Y-3.7296
X8.6278Y-3.8296
X8.6278Y-3.9296
X8.6278Y-4.0296
X8.6278Y-4.1296
X8.6278Y-4.2296
X8.6278Y-4.3296
X8.6278Y-4.4296
X8.6278Y-4.5296
X8.6278Y-4.6296
X8.6278Y-4.7296
X5.0778Y-5.0454
X5.0778Y-5.1454
X5.0778Y-5.2454
X5.0778Y-5.3454
X5.0778Y-5.4454
X5.0778Y-5.5454
X5.0778Y-5.6454
X5.0778Y-5.7454
X5.1778Y-5.0454
X5.1778Y-5.1454
X5.1778Y-5.2454
X5.1778Y-5.3454
X5.1778Y-5.4454
X5.1778Y-5.5454
X5.1778Y-5.6454
X5.1778Y-5.7454
X6.2278Y-5.0454
X6.2278Y-5.1454
X6.2278Y-5.2454
X6.2278Y-5.3454
X6.2278Y-5.4454
X6.2278Y-5.5454
X6.2278Y-5.6454
X6.2278Y-5.7454
X6.3278Y-5.0454
X6.3278Y-5.1454
X6.3278Y-5.2454
X6.3278Y-5.3454
X6.3278Y-5.4454
X6.3278Y-5.5454
X6.3278Y-5.6454
X6.3278Y-5.7454
X3.9278Y-5.0454
X3.9278Y-5.1454
X3.9278Y-5.2454
X3.9278Y-5.3454
X3.9278Y-5.4454
X3.9278Y-5.5454
X3.9278Y-5.6454
X3.9278Y-5.7454
X4.0278Y-5.0454
X4.0278Y-5.1454
X4.0278Y-5.2454
X4.0278Y-5.3454
X4.0278Y-5.4454
X4.0278Y-5.5454
X4.0278Y-5.6454
X4.0278Y-5.7454
X6.2278Y-1.6296
X6.2278Y-1.7296
X6.2278Y-1.8296
X6.2278Y-1.9296
X6.2278Y-2.0296
X6.2278Y-2.1296
X6.2278Y-2.2296
X6.2278Y-2.3296
X6.2278Y-2.4296
X6.2278Y-2.5296
X6.2278Y-2.6296
X6.2278Y-2.7296
X6.2278Y-2.8296
X6.2278Y-2.9296
X6.2278Y-3.0296
X6.2278Y-3.1296
X6.2278Y-3.2296
X6.2278Y-3.3296
X6.2278Y-3.4296
X6.2278Y-3.5296
X6.2278Y-3.6296
X6.2278Y-3.7296
X6.2278Y-3.8296
X6.2278Y-3.9296
X6.2278Y-4.0296
X6.2278Y-4.1296
X6.2278Y-4.2296
X6.2278Y-4.3296
X6.2278Y-4.4296
X6.2278Y-4.5296
X6.2278Y-4.6296
X6.2278Y-4.7296
X6.3278Y-1.6296
X6.3278Y-1.7296
X6.3278Y-1.8296
X6.3278Y-1.9296
X6.3278Y-2.0296
X6.3278Y-2.1296
X6.3278Y-2.2296
X6.3278Y-2.3296
X6.3278Y-2.4296
X6.3278Y-2.5296
X6.3278Y-2.6296
X6.3278Y-2.7296
X6.3278Y-2.8296
X6.3278Y-2.9296
X6.3278Y-3.0296
X6.3278Y-3.1296
X6.3278Y-3.2296
X6.3278Y-3.3296
X6.3278Y-3.4296
X6.3278Y-3.5296
X6.3278Y-3.6296
X6.3278Y-3.7296
X6.3278Y-3.8296
X6.3278Y-3.9296
X6.3278Y-4.0296
X6.3278Y-4.1296
X6.3278Y-4.2296
X6.3278Y-4.3296
X6.3278Y-4.4296
X6.3278Y-4.5296
X6.3278Y-4.6296
X6.3278Y-4.7296
X7.3778Y-5.0454
X7.3778Y-5.1454
X7.3778Y-5.2454
X7.3778Y-5.3454
X7.3778Y-5.4454
X7.3778Y-5.5454
X7.3778Y-5.6454
X7.3778Y-5.7454
X7.4778Y-5.0454
X7.4778Y-5.1454
X7.4778Y-5.2454
X7.4778Y-5.3454
X7.4778Y-5.4454
X7.4778Y-5.5454
X7.4778Y-5.6454
X7.4778Y-5.7454
X5.0778Y-1.6296
X5.0778Y-1.7296
X5.0778Y-1.8296
X5.0778Y-1.9296
X5.0778Y-2.0296
X5.0778Y-2.1296
X5.0778Y-2.2296
X5.0778Y-2.3296
X5.0778Y-2.4296
X5.0778Y-2.5296
X5.0778Y-2.6296
X5.0778Y-2.7296
X5.0778Y-2.8296
X5.0778Y-2.9296
X5.0778Y-3.0296
X5.0778Y-3.1296
X5.0778Y-3.2296
X5.0778Y-3.3296
X5.0778Y-3.4296
X5.0778Y-3.5296
X5.0778Y-3.6296
X5.0778Y-3.7296
X5.0778Y-3.8296
X5.0778Y-3.9296
X5.0778Y-4.0296
X5.0778Y-4.1296
X5.0778Y-4.2296
X5.0778Y-4.3296
X5.0778Y-4.4296
X5.0778Y-4.5296
X5.0778Y-4.6296
X5.0778Y-4.7296
X5.1778Y-1.6296
X5.1778Y-1.7296
X5.1778Y-1.8296
X5.1778Y-1.9296
X5.1778Y-2.0296
X5.1778Y-2.1296
X5.1778Y-2.2296
X5.1778Y-2.3296
X5.1778Y-2.4296
X5.1778Y-2.5296
X5.1778Y-2.6296
X5.1778Y-2.7296
X5.1778Y-2.8296
X5.1778Y-2.9296
X5.1778Y-3.0296
X5.1778Y-3.1296
X5.1778Y-3.2296
X5.1778Y-3.3296
X5.1778Y-3.4296
X5.1778Y-3.5296
X5.1778Y-3.6296
X5.1778Y-3.7296
X5.1778Y-3.8296
X5.1778Y-3.9296
X5.1778Y-4.0296
X5.1778Y-4.1296
X5.1778Y-4.2296
X5.1778Y-4.3296
X5.1778Y-4.4296
X5.1778Y-4.5296
X5.1778Y-4.6296
X5.1778Y-4.7296
X3.9278Y-1.6296
X3.9278Y-1.7296
X3.9278Y-1.8296
X3.9278Y-1.9296
X3.9278Y-2.0296
X3.9278Y-2.1296
X3.9278Y-2.2296
X3.9278Y-2.3296
X3.9278Y-2.4296
X3.9278Y-2.5296
X3.9278Y-2.6296
X3.9278Y-2.7296
X3.9278Y-2.8296
X3.9278Y-2.9296
X3.9278Y-3.0296
X3.9278Y-3.1296
X3.9278Y-3.2296
X3.9278Y-3.3296
X3.9278Y-3.4296
X3.9278Y-3.5296
X3.9278Y-3.6296
X3.9278Y-3.7296
X3.9278Y-3.8296
X3.9278Y-3.9296
X3.9278Y-4.0296
X3.9278Y-4.1296
X3.9278Y-4.2296
X3.9278Y-4.3296
X3.9278Y-4.4296
X3.9278Y-4.5296
X3.9278Y-4.6296
X3.9278Y-4.7296
X4.0278Y-1.6296
X4.0278Y-1.7296
X4.0278Y-1.8296
X4.0278Y-1.9296
X4.0278Y-2.0296
X4.0278Y-2.1296
X4.0278Y-2.2296
X4.0278Y-2.3296
X4.0278Y-2.4296
X4.0278Y-2.5296
X4.0278Y-2.6296
X4.0278Y-2.7296
X4.0278Y-2.8296
X4.0278Y-2.9296
X4.0278Y-3.0296
X4.0278Y-3.1296
X4.0278Y-3.2296
X4.0278Y-3.3296
X4.0278Y-3.4296
X4.0278Y-3.5296
X4.0278Y-3.6296
X4.0278Y-3.7296
X4.0278Y-3.8296
X4.0278Y-3.9296
X4.0278Y-4.0296
X4.0278Y-4.1296
X4.0278Y-4.2296
X4.0278Y-4.3296
X4.0278Y-4.4296
X4.0278Y-4.5296
X4.0278Y-4.6296
X4.0278Y-4.7296
T8
X2.9443Y-2.376
X2.9443Y-2.476
T9
X3.3524Y-3.0372
X3.4524Y-3.0372
X3.5524Y-3.0372
T1
G00X2.8596Y-2.6659
M15
G01X2.899Y-2.6659
M16
G05
G00X2.8596Y-2.9474
M15
G01X2.899Y-2.9474
M16
G05
T3
G00X3.1293Y-1.9559
M15
G01X3.1293Y-2.0425
M16
G05
G00X3.1963Y-2.1882
M15
G01X3.2829Y-2.1882
M16
G05
G00X3.3577Y-1.948
M15
G01X3.3577Y-2.0504
M16
G05
T5
G00X3.3817Y-5.5051
M15
G01X3.3344Y-5.5051
M16
G05
G00X3.3817Y-5.6913
M15
G01X3.3344Y-5.6913
M16
G05
G00X3.5707Y-5.5051
M15
G01X3.5234Y-5.5051
M16
G05
G00X3.5707Y-5.6913
M15
G01X3.5234Y-5.6913
M16
G05
T0
M30
