G04 #@! TF.GenerationSoftware,KiCad,Pcbnew,(5.1.5-0-10_14)*
G04 #@! TF.CreationDate,2020-08-13T16:27:58+01:00*
G04 #@! TF.ProjectId,roscbus01,726f7363-6275-4733-9031-2e6b69636164,rev?*
G04 #@! TF.SameCoordinates,Original*
G04 #@! TF.FileFunction,Legend,Bot*
G04 #@! TF.FilePolarity,Positive*
%FSLAX46Y46*%
G04 Gerber Fmt 4.6, Leading zero omitted, Abs format (unit mm)*
G04 Created by KiCad (PCBNEW (5.1.5-0-10_14)) date 2020-08-13 16:27:58*
%MOMM*%
%LPD*%
G04 APERTURE LIST*
%ADD10C,0.150000*%
%ADD11C,0.010000*%
G04 APERTURE END LIST*
D10*
X224988380Y-44189238D02*
X223988380Y-44189238D01*
X224988380Y-44617809D02*
X224464571Y-44617809D01*
X224369333Y-44570190D01*
X224321714Y-44474952D01*
X224321714Y-44332095D01*
X224369333Y-44236857D01*
X224416952Y-44189238D01*
X224321714Y-44951142D02*
X224321714Y-45332095D01*
X223988380Y-45094000D02*
X224845523Y-45094000D01*
X224940761Y-45141619D01*
X224988380Y-45236857D01*
X224988380Y-45332095D01*
X224321714Y-45522571D02*
X224321714Y-45903523D01*
X223988380Y-45665428D02*
X224845523Y-45665428D01*
X224940761Y-45713047D01*
X224988380Y-45808285D01*
X224988380Y-45903523D01*
X224321714Y-46236857D02*
X225321714Y-46236857D01*
X224369333Y-46236857D02*
X224321714Y-46332095D01*
X224321714Y-46522571D01*
X224369333Y-46617809D01*
X224416952Y-46665428D01*
X224512190Y-46713047D01*
X224797904Y-46713047D01*
X224893142Y-46665428D01*
X224940761Y-46617809D01*
X224988380Y-46522571D01*
X224988380Y-46332095D01*
X224940761Y-46236857D01*
X224940761Y-47094000D02*
X224988380Y-47189238D01*
X224988380Y-47379714D01*
X224940761Y-47474952D01*
X224845523Y-47522571D01*
X224797904Y-47522571D01*
X224702666Y-47474952D01*
X224655047Y-47379714D01*
X224655047Y-47236857D01*
X224607428Y-47141619D01*
X224512190Y-47094000D01*
X224464571Y-47094000D01*
X224369333Y-47141619D01*
X224321714Y-47236857D01*
X224321714Y-47379714D01*
X224369333Y-47474952D01*
X224893142Y-47951142D02*
X224940761Y-47998761D01*
X224988380Y-47951142D01*
X224940761Y-47903523D01*
X224893142Y-47951142D01*
X224988380Y-47951142D01*
X224369333Y-47951142D02*
X224416952Y-47998761D01*
X224464571Y-47951142D01*
X224416952Y-47903523D01*
X224369333Y-47951142D01*
X224464571Y-47951142D01*
X223940761Y-49141619D02*
X225226476Y-48284476D01*
X223940761Y-50189238D02*
X225226476Y-49332095D01*
X224988380Y-50522571D02*
X224321714Y-50522571D01*
X224512190Y-50522571D02*
X224416952Y-50570190D01*
X224369333Y-50617809D01*
X224321714Y-50713047D01*
X224321714Y-50808285D01*
X224988380Y-51284476D02*
X224940761Y-51189238D01*
X224893142Y-51141619D01*
X224797904Y-51094000D01*
X224512190Y-51094000D01*
X224416952Y-51141619D01*
X224369333Y-51189238D01*
X224321714Y-51284476D01*
X224321714Y-51427333D01*
X224369333Y-51522571D01*
X224416952Y-51570190D01*
X224512190Y-51617809D01*
X224797904Y-51617809D01*
X224893142Y-51570190D01*
X224940761Y-51522571D01*
X224988380Y-51427333D01*
X224988380Y-51284476D01*
X224940761Y-51998761D02*
X224988380Y-52094000D01*
X224988380Y-52284476D01*
X224940761Y-52379714D01*
X224845523Y-52427333D01*
X224797904Y-52427333D01*
X224702666Y-52379714D01*
X224655047Y-52284476D01*
X224655047Y-52141619D01*
X224607428Y-52046380D01*
X224512190Y-51998761D01*
X224464571Y-51998761D01*
X224369333Y-52046380D01*
X224321714Y-52141619D01*
X224321714Y-52284476D01*
X224369333Y-52379714D01*
X224940761Y-53284476D02*
X224988380Y-53189238D01*
X224988380Y-52998761D01*
X224940761Y-52903523D01*
X224893142Y-52855904D01*
X224797904Y-52808285D01*
X224512190Y-52808285D01*
X224416952Y-52855904D01*
X224369333Y-52903523D01*
X224321714Y-52998761D01*
X224321714Y-53189238D01*
X224369333Y-53284476D01*
X224988380Y-53855904D02*
X224940761Y-53760666D01*
X224893142Y-53713047D01*
X224797904Y-53665428D01*
X224512190Y-53665428D01*
X224416952Y-53713047D01*
X224369333Y-53760666D01*
X224321714Y-53855904D01*
X224321714Y-53998761D01*
X224369333Y-54094000D01*
X224416952Y-54141619D01*
X224512190Y-54189238D01*
X224797904Y-54189238D01*
X224893142Y-54141619D01*
X224940761Y-54094000D01*
X224988380Y-53998761D01*
X224988380Y-53855904D01*
X224607428Y-54617809D02*
X224607428Y-55379714D01*
X224988380Y-55855904D02*
X224321714Y-55855904D01*
X224416952Y-55855904D02*
X224369333Y-55903523D01*
X224321714Y-55998761D01*
X224321714Y-56141619D01*
X224369333Y-56236857D01*
X224464571Y-56284476D01*
X224988380Y-56284476D01*
X224464571Y-56284476D02*
X224369333Y-56332095D01*
X224321714Y-56427333D01*
X224321714Y-56570190D01*
X224369333Y-56665428D01*
X224464571Y-56713047D01*
X224988380Y-56713047D01*
X223988380Y-57617809D02*
X223988380Y-57427333D01*
X224036000Y-57332095D01*
X224083619Y-57284476D01*
X224226476Y-57189238D01*
X224416952Y-57141619D01*
X224797904Y-57141619D01*
X224893142Y-57189238D01*
X224940761Y-57236857D01*
X224988380Y-57332095D01*
X224988380Y-57522571D01*
X224940761Y-57617809D01*
X224893142Y-57665428D01*
X224797904Y-57713047D01*
X224559809Y-57713047D01*
X224464571Y-57665428D01*
X224416952Y-57617809D01*
X224369333Y-57522571D01*
X224369333Y-57332095D01*
X224416952Y-57236857D01*
X224464571Y-57189238D01*
X224559809Y-57141619D01*
X224416952Y-58284476D02*
X224369333Y-58189238D01*
X224321714Y-58141619D01*
X224226476Y-58093999D01*
X224178857Y-58093999D01*
X224083619Y-58141619D01*
X224036000Y-58189238D01*
X223988380Y-58284476D01*
X223988380Y-58474952D01*
X224036000Y-58570190D01*
X224083619Y-58617809D01*
X224178857Y-58665428D01*
X224226476Y-58665428D01*
X224321714Y-58617809D01*
X224369333Y-58570190D01*
X224416952Y-58474952D01*
X224416952Y-58284476D01*
X224464571Y-58189238D01*
X224512190Y-58141619D01*
X224607428Y-58093999D01*
X224797904Y-58093999D01*
X224893142Y-58141619D01*
X224940761Y-58189238D01*
X224988380Y-58284476D01*
X224988380Y-58474952D01*
X224940761Y-58570190D01*
X224893142Y-58617809D01*
X224797904Y-58665428D01*
X224607428Y-58665428D01*
X224512190Y-58617809D01*
X224464571Y-58570190D01*
X224416952Y-58474952D01*
X224988380Y-59093999D02*
X223988380Y-59093999D01*
X224607428Y-59189238D02*
X224988380Y-59474952D01*
X224321714Y-59474952D02*
X224702666Y-59093999D01*
X224893142Y-59903523D02*
X224940761Y-59951142D01*
X224988380Y-59903523D01*
X224940761Y-59855904D01*
X224893142Y-59903523D01*
X224988380Y-59903523D01*
X224940761Y-60808285D02*
X224988380Y-60713047D01*
X224988380Y-60522571D01*
X224940761Y-60427333D01*
X224893142Y-60379714D01*
X224797904Y-60332095D01*
X224512190Y-60332095D01*
X224416952Y-60379714D01*
X224369333Y-60427333D01*
X224321714Y-60522571D01*
X224321714Y-60713047D01*
X224369333Y-60808285D01*
X224988380Y-61379714D02*
X224940761Y-61284476D01*
X224893142Y-61236857D01*
X224797904Y-61189238D01*
X224512190Y-61189238D01*
X224416952Y-61236857D01*
X224369333Y-61284476D01*
X224321714Y-61379714D01*
X224321714Y-61522571D01*
X224369333Y-61617809D01*
X224416952Y-61665428D01*
X224512190Y-61713047D01*
X224797904Y-61713047D01*
X224893142Y-61665428D01*
X224940761Y-61617809D01*
X224988380Y-61522571D01*
X224988380Y-61379714D01*
X224988380Y-62141619D02*
X224321714Y-62141619D01*
X224416952Y-62141619D02*
X224369333Y-62189238D01*
X224321714Y-62284476D01*
X224321714Y-62427333D01*
X224369333Y-62522571D01*
X224464571Y-62570190D01*
X224988380Y-62570190D01*
X224464571Y-62570190D02*
X224369333Y-62617809D01*
X224321714Y-62713047D01*
X224321714Y-62855904D01*
X224369333Y-62951142D01*
X224464571Y-62998761D01*
X224988380Y-62998761D01*
X224893142Y-100125809D02*
X224940761Y-100078190D01*
X224988380Y-99935333D01*
X224988380Y-99840095D01*
X224940761Y-99697238D01*
X224845523Y-99602000D01*
X224750285Y-99554380D01*
X224559809Y-99506761D01*
X224416952Y-99506761D01*
X224226476Y-99554380D01*
X224131238Y-99602000D01*
X224036000Y-99697238D01*
X223988380Y-99840095D01*
X223988380Y-99935333D01*
X224036000Y-100078190D01*
X224083619Y-100125809D01*
X224988380Y-100697238D02*
X224940761Y-100602000D01*
X224893142Y-100554380D01*
X224797904Y-100506761D01*
X224512190Y-100506761D01*
X224416952Y-100554380D01*
X224369333Y-100602000D01*
X224321714Y-100697238D01*
X224321714Y-100840095D01*
X224369333Y-100935333D01*
X224416952Y-100982952D01*
X224512190Y-101030571D01*
X224797904Y-101030571D01*
X224893142Y-100982952D01*
X224940761Y-100935333D01*
X224988380Y-100840095D01*
X224988380Y-100697238D01*
X224321714Y-101459142D02*
X225321714Y-101459142D01*
X224369333Y-101459142D02*
X224321714Y-101554380D01*
X224321714Y-101744857D01*
X224369333Y-101840095D01*
X224416952Y-101887714D01*
X224512190Y-101935333D01*
X224797904Y-101935333D01*
X224893142Y-101887714D01*
X224940761Y-101840095D01*
X224988380Y-101744857D01*
X224988380Y-101554380D01*
X224940761Y-101459142D01*
X224321714Y-102268666D02*
X224988380Y-102506761D01*
X224321714Y-102744857D02*
X224988380Y-102506761D01*
X225226476Y-102411523D01*
X225274095Y-102363904D01*
X225321714Y-102268666D01*
X224988380Y-103125809D02*
X224321714Y-103125809D01*
X224512190Y-103125809D02*
X224416952Y-103173428D01*
X224369333Y-103221047D01*
X224321714Y-103316285D01*
X224321714Y-103411523D01*
X224988380Y-103744857D02*
X224321714Y-103744857D01*
X223988380Y-103744857D02*
X224036000Y-103697238D01*
X224083619Y-103744857D01*
X224036000Y-103792476D01*
X223988380Y-103744857D01*
X224083619Y-103744857D01*
X224321714Y-104649619D02*
X225131238Y-104649619D01*
X225226476Y-104602000D01*
X225274095Y-104554380D01*
X225321714Y-104459142D01*
X225321714Y-104316285D01*
X225274095Y-104221047D01*
X224940761Y-104649619D02*
X224988380Y-104554380D01*
X224988380Y-104363904D01*
X224940761Y-104268666D01*
X224893142Y-104221047D01*
X224797904Y-104173428D01*
X224512190Y-104173428D01*
X224416952Y-104221047D01*
X224369333Y-104268666D01*
X224321714Y-104363904D01*
X224321714Y-104554380D01*
X224369333Y-104649619D01*
X224988380Y-105125809D02*
X223988380Y-105125809D01*
X224988380Y-105554380D02*
X224464571Y-105554380D01*
X224369333Y-105506761D01*
X224321714Y-105411523D01*
X224321714Y-105268666D01*
X224369333Y-105173428D01*
X224416952Y-105125809D01*
X224321714Y-105887714D02*
X224321714Y-106268666D01*
X223988380Y-106030571D02*
X224845523Y-106030571D01*
X224940761Y-106078190D01*
X224988380Y-106173428D01*
X224988380Y-106268666D01*
X224226476Y-108173428D02*
X224178857Y-108078190D01*
X224178857Y-107887714D01*
X224226476Y-107792476D01*
X224321714Y-107697238D01*
X224416952Y-107649619D01*
X224607428Y-107649619D01*
X224702666Y-107697238D01*
X224797904Y-107792476D01*
X224845523Y-107887714D01*
X224845523Y-108078190D01*
X224797904Y-108173428D01*
X223845523Y-107982952D02*
X223893142Y-107744857D01*
X224036000Y-107506761D01*
X224274095Y-107363904D01*
X224512190Y-107316285D01*
X224750285Y-107363904D01*
X224988380Y-107506761D01*
X225131238Y-107744857D01*
X225178857Y-107982952D01*
X225131238Y-108221047D01*
X224988380Y-108459142D01*
X224750285Y-108602000D01*
X224512190Y-108649619D01*
X224274095Y-108602000D01*
X224036000Y-108459142D01*
X223893142Y-108221047D01*
X223845523Y-107982952D01*
X224083619Y-109030571D02*
X224036000Y-109078190D01*
X223988380Y-109173428D01*
X223988380Y-109411523D01*
X224036000Y-109506761D01*
X224083619Y-109554380D01*
X224178857Y-109602000D01*
X224274095Y-109602000D01*
X224416952Y-109554380D01*
X224988380Y-108982952D01*
X224988380Y-109602000D01*
X223988380Y-110221047D02*
X223988380Y-110316285D01*
X224036000Y-110411523D01*
X224083619Y-110459142D01*
X224178857Y-110506761D01*
X224369333Y-110554380D01*
X224607428Y-110554380D01*
X224797904Y-110506761D01*
X224893142Y-110459142D01*
X224940761Y-110411523D01*
X224988380Y-110316285D01*
X224988380Y-110221047D01*
X224940761Y-110125809D01*
X224893142Y-110078190D01*
X224797904Y-110030571D01*
X224607428Y-109982952D01*
X224369333Y-109982952D01*
X224178857Y-110030571D01*
X224083619Y-110078190D01*
X224036000Y-110125809D01*
X223988380Y-110221047D01*
X224083619Y-110935333D02*
X224036000Y-110982952D01*
X223988380Y-111078190D01*
X223988380Y-111316285D01*
X224036000Y-111411523D01*
X224083619Y-111459142D01*
X224178857Y-111506761D01*
X224274095Y-111506761D01*
X224416952Y-111459142D01*
X224988380Y-110887714D01*
X224988380Y-111506761D01*
X223988380Y-112125809D02*
X223988380Y-112221047D01*
X224036000Y-112316285D01*
X224083619Y-112363904D01*
X224178857Y-112411523D01*
X224369333Y-112459142D01*
X224607428Y-112459142D01*
X224797904Y-112411523D01*
X224893142Y-112363904D01*
X224940761Y-112316285D01*
X224988380Y-112221047D01*
X224988380Y-112125809D01*
X224940761Y-112030571D01*
X224893142Y-111982952D01*
X224797904Y-111935333D01*
X224607428Y-111887714D01*
X224369333Y-111887714D01*
X224178857Y-111935333D01*
X224083619Y-111982952D01*
X224036000Y-112030571D01*
X223988380Y-112125809D01*
X224988380Y-114221047D02*
X224512190Y-113887714D01*
X224988380Y-113649619D02*
X223988380Y-113649619D01*
X223988380Y-114030571D01*
X224036000Y-114125809D01*
X224083619Y-114173428D01*
X224178857Y-114221047D01*
X224321714Y-114221047D01*
X224416952Y-114173428D01*
X224464571Y-114125809D01*
X224512190Y-114030571D01*
X224512190Y-113649619D01*
X224988380Y-114792476D02*
X224940761Y-114697238D01*
X224893142Y-114649619D01*
X224797904Y-114602000D01*
X224512190Y-114602000D01*
X224416952Y-114649619D01*
X224369333Y-114697238D01*
X224321714Y-114792476D01*
X224321714Y-114935333D01*
X224369333Y-115030571D01*
X224416952Y-115078190D01*
X224512190Y-115125809D01*
X224797904Y-115125809D01*
X224893142Y-115078190D01*
X224940761Y-115030571D01*
X224988380Y-114935333D01*
X224988380Y-114792476D01*
X224940761Y-115506761D02*
X224988380Y-115602000D01*
X224988380Y-115792476D01*
X224940761Y-115887714D01*
X224845523Y-115935333D01*
X224797904Y-115935333D01*
X224702666Y-115887714D01*
X224655047Y-115792476D01*
X224655047Y-115649619D01*
X224607428Y-115554380D01*
X224512190Y-115506761D01*
X224464571Y-115506761D01*
X224369333Y-115554380D01*
X224321714Y-115649619D01*
X224321714Y-115792476D01*
X224369333Y-115887714D01*
X224940761Y-116316285D02*
X224988380Y-116411523D01*
X224988380Y-116602000D01*
X224940761Y-116697238D01*
X224845523Y-116744857D01*
X224797904Y-116744857D01*
X224702666Y-116697238D01*
X224655047Y-116602000D01*
X224655047Y-116459142D01*
X224607428Y-116363904D01*
X224512190Y-116316285D01*
X224464571Y-116316285D01*
X224369333Y-116363904D01*
X224321714Y-116459142D01*
X224321714Y-116602000D01*
X224369333Y-116697238D01*
X224464571Y-118268666D02*
X224512190Y-118411523D01*
X224559809Y-118459142D01*
X224655047Y-118506761D01*
X224797904Y-118506761D01*
X224893142Y-118459142D01*
X224940761Y-118411523D01*
X224988380Y-118316285D01*
X224988380Y-117935333D01*
X223988380Y-117935333D01*
X223988380Y-118268666D01*
X224036000Y-118363904D01*
X224083619Y-118411523D01*
X224178857Y-118459142D01*
X224274095Y-118459142D01*
X224369333Y-118411523D01*
X224416952Y-118363904D01*
X224464571Y-118268666D01*
X224464571Y-117935333D01*
X224988380Y-119363904D02*
X224464571Y-119363904D01*
X224369333Y-119316285D01*
X224321714Y-119221047D01*
X224321714Y-119030571D01*
X224369333Y-118935333D01*
X224940761Y-119363904D02*
X224988380Y-119268666D01*
X224988380Y-119030571D01*
X224940761Y-118935333D01*
X224845523Y-118887714D01*
X224750285Y-118887714D01*
X224655047Y-118935333D01*
X224607428Y-119030571D01*
X224607428Y-119268666D01*
X224559809Y-119363904D01*
X224988380Y-119840095D02*
X224321714Y-119840095D01*
X224416952Y-119840095D02*
X224369333Y-119887714D01*
X224321714Y-119982952D01*
X224321714Y-120125809D01*
X224369333Y-120221047D01*
X224464571Y-120268666D01*
X224988380Y-120268666D01*
X224464571Y-120268666D02*
X224369333Y-120316285D01*
X224321714Y-120411523D01*
X224321714Y-120554380D01*
X224369333Y-120649619D01*
X224464571Y-120697238D01*
X224988380Y-120697238D01*
X224321714Y-121030571D02*
X224321714Y-121411523D01*
X224988380Y-121173428D02*
X224131238Y-121173428D01*
X224036000Y-121221047D01*
X223988380Y-121316285D01*
X223988380Y-121411523D01*
X224988380Y-121887714D02*
X224940761Y-121792476D01*
X224893142Y-121744857D01*
X224797904Y-121697238D01*
X224512190Y-121697238D01*
X224416952Y-121744857D01*
X224369333Y-121792476D01*
X224321714Y-121887714D01*
X224321714Y-122030571D01*
X224369333Y-122125809D01*
X224416952Y-122173428D01*
X224512190Y-122221047D01*
X224797904Y-122221047D01*
X224893142Y-122173428D01*
X224940761Y-122125809D01*
X224988380Y-122030571D01*
X224988380Y-121887714D01*
X224988380Y-122649619D02*
X224321714Y-122649619D01*
X224512190Y-122649619D02*
X224416952Y-122697238D01*
X224369333Y-122744857D01*
X224321714Y-122840095D01*
X224321714Y-122935333D01*
X224988380Y-123697238D02*
X223988380Y-123697238D01*
X224940761Y-123697238D02*
X224988380Y-123602000D01*
X224988380Y-123411523D01*
X224940761Y-123316285D01*
X224893142Y-123268666D01*
X224797904Y-123221047D01*
X224512190Y-123221047D01*
X224416952Y-123268666D01*
X224369333Y-123316285D01*
X224321714Y-123411523D01*
X224321714Y-123602000D01*
X224369333Y-123697238D01*
X224988380Y-125744857D02*
X224988380Y-125697238D01*
X224940761Y-125602000D01*
X224797904Y-125459142D01*
X224512190Y-125221047D01*
X224369333Y-125125809D01*
X224226476Y-125078190D01*
X224131238Y-125078190D01*
X224036000Y-125125809D01*
X223988380Y-125221047D01*
X223988380Y-125268666D01*
X224036000Y-125363904D01*
X224131238Y-125411523D01*
X224178857Y-125411523D01*
X224274095Y-125363904D01*
X224321714Y-125316285D01*
X224512190Y-125030571D01*
X224559809Y-124982952D01*
X224655047Y-124935333D01*
X224797904Y-124935333D01*
X224893142Y-124982952D01*
X224940761Y-125030571D01*
X224988380Y-125125809D01*
X224988380Y-125268666D01*
X224940761Y-125363904D01*
X224893142Y-125411523D01*
X224702666Y-125554380D01*
X224559809Y-125602000D01*
X224464571Y-125602000D01*
X224893142Y-127506761D02*
X224940761Y-127459142D01*
X224988380Y-127316285D01*
X224988380Y-127221047D01*
X224940761Y-127078190D01*
X224845523Y-126982952D01*
X224750285Y-126935333D01*
X224559809Y-126887714D01*
X224416952Y-126887714D01*
X224226476Y-126935333D01*
X224131238Y-126982952D01*
X224036000Y-127078190D01*
X223988380Y-127221047D01*
X223988380Y-127316285D01*
X224036000Y-127459142D01*
X224083619Y-127506761D01*
X224988380Y-128078190D02*
X224940761Y-127982952D01*
X224893142Y-127935333D01*
X224797904Y-127887714D01*
X224512190Y-127887714D01*
X224416952Y-127935333D01*
X224369333Y-127982952D01*
X224321714Y-128078190D01*
X224321714Y-128221047D01*
X224369333Y-128316285D01*
X224416952Y-128363904D01*
X224512190Y-128411523D01*
X224797904Y-128411523D01*
X224893142Y-128363904D01*
X224940761Y-128316285D01*
X224988380Y-128221047D01*
X224988380Y-128078190D01*
X224321714Y-128840095D02*
X224988380Y-128840095D01*
X224416952Y-128840095D02*
X224369333Y-128887714D01*
X224321714Y-128982952D01*
X224321714Y-129125809D01*
X224369333Y-129221047D01*
X224464571Y-129268666D01*
X224988380Y-129268666D01*
X224321714Y-129602000D02*
X224321714Y-129982952D01*
X223988380Y-129744857D02*
X224845523Y-129744857D01*
X224940761Y-129792476D01*
X224988380Y-129887714D01*
X224988380Y-129982952D01*
X224988380Y-130316285D02*
X224321714Y-130316285D01*
X224512190Y-130316285D02*
X224416952Y-130363904D01*
X224369333Y-130411523D01*
X224321714Y-130506761D01*
X224321714Y-130602000D01*
X224988380Y-130935333D02*
X224321714Y-130935333D01*
X223988380Y-130935333D02*
X224036000Y-130887714D01*
X224083619Y-130935333D01*
X224036000Y-130982952D01*
X223988380Y-130935333D01*
X224083619Y-130935333D01*
X224988380Y-131411523D02*
X223988380Y-131411523D01*
X224369333Y-131411523D02*
X224321714Y-131506761D01*
X224321714Y-131697238D01*
X224369333Y-131792476D01*
X224416952Y-131840095D01*
X224512190Y-131887714D01*
X224797904Y-131887714D01*
X224893142Y-131840095D01*
X224940761Y-131792476D01*
X224988380Y-131697238D01*
X224988380Y-131506761D01*
X224940761Y-131411523D01*
X224321714Y-132744857D02*
X224988380Y-132744857D01*
X224321714Y-132316285D02*
X224845523Y-132316285D01*
X224940761Y-132363904D01*
X224988380Y-132459142D01*
X224988380Y-132602000D01*
X224940761Y-132697238D01*
X224893142Y-132744857D01*
X224321714Y-133078190D02*
X224321714Y-133459142D01*
X223988380Y-133221047D02*
X224845523Y-133221047D01*
X224940761Y-133268666D01*
X224988380Y-133363904D01*
X224988380Y-133459142D01*
X224988380Y-133935333D02*
X224940761Y-133840095D01*
X224893142Y-133792476D01*
X224797904Y-133744857D01*
X224512190Y-133744857D01*
X224416952Y-133792476D01*
X224369333Y-133840095D01*
X224321714Y-133935333D01*
X224321714Y-134078190D01*
X224369333Y-134173428D01*
X224416952Y-134221047D01*
X224512190Y-134268666D01*
X224797904Y-134268666D01*
X224893142Y-134221047D01*
X224940761Y-134173428D01*
X224988380Y-134078190D01*
X224988380Y-133935333D01*
X224988380Y-134697238D02*
X224321714Y-134697238D01*
X224512190Y-134697238D02*
X224416952Y-134744857D01*
X224369333Y-134792476D01*
X224321714Y-134887714D01*
X224321714Y-134982952D01*
X224940761Y-135268666D02*
X224988380Y-135363904D01*
X224988380Y-135554380D01*
X224940761Y-135649619D01*
X224845523Y-135697238D01*
X224797904Y-135697238D01*
X224702666Y-135649619D01*
X224655047Y-135554380D01*
X224655047Y-135411523D01*
X224607428Y-135316285D01*
X224512190Y-135268666D01*
X224464571Y-135268666D01*
X224369333Y-135316285D01*
X224321714Y-135411523D01*
X224321714Y-135554380D01*
X224369333Y-135649619D01*
D11*
G36*
X221670554Y-142078430D02*
G01*
X221757637Y-142077811D01*
X222216597Y-141626086D01*
X222675558Y-141174361D01*
X222886177Y-141174032D01*
X223096795Y-141173703D01*
X223096795Y-140898610D01*
X223150236Y-140891522D01*
X223174594Y-140888838D01*
X223220465Y-140884313D01*
X223285111Y-140878191D01*
X223365797Y-140870712D01*
X223459787Y-140862119D01*
X223564343Y-140852654D01*
X223676731Y-140842558D01*
X223794213Y-140832074D01*
X223914054Y-140821444D01*
X224033517Y-140810909D01*
X224149865Y-140800713D01*
X224260363Y-140791095D01*
X224362275Y-140782300D01*
X224452864Y-140774568D01*
X224529393Y-140768142D01*
X224589127Y-140763263D01*
X224629330Y-140760175D01*
X224647265Y-140759117D01*
X224647350Y-140759118D01*
X224661741Y-140766827D01*
X224691454Y-140789981D01*
X224736837Y-140828895D01*
X224798235Y-140883884D01*
X224875994Y-140955264D01*
X224970460Y-141043349D01*
X225081978Y-141148454D01*
X225210894Y-141270895D01*
X225246993Y-141305310D01*
X225819122Y-141851137D01*
X225907142Y-141762881D01*
X225829464Y-141691485D01*
X225801392Y-141665366D01*
X225757980Y-141624566D01*
X225702072Y-141571777D01*
X225636514Y-141509691D01*
X225564147Y-141441000D01*
X225487818Y-141368396D01*
X225442230Y-141324960D01*
X225356825Y-141243416D01*
X225288416Y-141177504D01*
X225235759Y-141125544D01*
X225197611Y-141085855D01*
X225172726Y-141056757D01*
X225159862Y-141036569D01*
X225157774Y-141023610D01*
X225165219Y-141016200D01*
X225180952Y-141012658D01*
X225203729Y-141011303D01*
X225209945Y-141011121D01*
X225252767Y-141001703D01*
X225304525Y-140978497D01*
X225357034Y-140946136D01*
X225402109Y-140909252D01*
X225416034Y-140894493D01*
X225464753Y-140818767D01*
X225492012Y-140730308D01*
X225498479Y-140652100D01*
X225486282Y-140563468D01*
X225450519Y-140481612D01*
X225392428Y-140409164D01*
X225377968Y-140395797D01*
X225322439Y-140346918D01*
X225322439Y-139501326D01*
X225498479Y-139501326D01*
X225498479Y-139274990D01*
X225416237Y-139274990D01*
X225360092Y-139272150D01*
X225321122Y-139262607D01*
X225299925Y-139251009D01*
X225284758Y-139242723D01*
X225262768Y-139235627D01*
X225230693Y-139229252D01*
X225185275Y-139223128D01*
X225123254Y-139216784D01*
X225041368Y-139209750D01*
X224980452Y-139204934D01*
X224695049Y-139182839D01*
X225244511Y-138640435D01*
X225343934Y-138542363D01*
X225439521Y-138448216D01*
X225529516Y-138359715D01*
X225612163Y-138278580D01*
X225685707Y-138206531D01*
X225748390Y-138145288D01*
X225798458Y-138096573D01*
X225834154Y-138062104D01*
X225853701Y-138043621D01*
X225884650Y-138013257D01*
X225906236Y-137987929D01*
X225913429Y-137974305D01*
X225905003Y-137956905D01*
X225883951Y-137931540D01*
X225875377Y-137922942D01*
X225837326Y-137886486D01*
X225633364Y-138087198D01*
X225581405Y-138138404D01*
X225514526Y-138204431D01*
X225435656Y-138282382D01*
X225347720Y-138369362D01*
X225253647Y-138462474D01*
X225156364Y-138558821D01*
X225058799Y-138655508D01*
X224988851Y-138724866D01*
X224882256Y-138830297D01*
X224792013Y-138918871D01*
X224716898Y-138991719D01*
X224655692Y-139049977D01*
X224607172Y-139094775D01*
X224581835Y-139116979D01*
X224581835Y-139295276D01*
X224867261Y-139317599D01*
X224950925Y-139324331D01*
X225027433Y-139330843D01*
X225092787Y-139336766D01*
X225142987Y-139341732D01*
X225174035Y-139345371D01*
X225180979Y-139346542D01*
X225209271Y-139353162D01*
X225209271Y-140302636D01*
X225130312Y-140308974D01*
X225037021Y-140328110D01*
X224954497Y-140368154D01*
X224885744Y-140426582D01*
X224833769Y-140500871D01*
X224802569Y-140584252D01*
X224787934Y-140611302D01*
X224756525Y-140624844D01*
X224755140Y-140625128D01*
X224741880Y-140626753D01*
X224728301Y-140624744D01*
X224711887Y-140617142D01*
X224690117Y-140601984D01*
X224660473Y-140577312D01*
X224620438Y-140541164D01*
X224567491Y-140491580D01*
X224499115Y-140426599D01*
X224494711Y-140422401D01*
X224421317Y-140352507D01*
X224343143Y-140278200D01*
X224265570Y-140204586D01*
X224193981Y-140136771D01*
X224133757Y-140079860D01*
X224120293Y-140067168D01*
X224069526Y-140018513D01*
X224026081Y-139975291D01*
X223992947Y-139940605D01*
X223973111Y-139917556D01*
X223968752Y-139909818D01*
X223977876Y-139898278D01*
X224002906Y-139871290D01*
X224041758Y-139830979D01*
X224092349Y-139779471D01*
X224152594Y-139718891D01*
X224220410Y-139651364D01*
X224276271Y-139596174D01*
X224581835Y-139295276D01*
X224581835Y-139116979D01*
X224570117Y-139127249D01*
X224543305Y-139148529D01*
X224525514Y-139159749D01*
X224517276Y-139162246D01*
X224499296Y-139161300D01*
X224458598Y-139158427D01*
X224397525Y-139153813D01*
X224318419Y-139147642D01*
X224223620Y-139140102D01*
X224115473Y-139131379D01*
X223996318Y-139121657D01*
X223868497Y-139111124D01*
X223766341Y-139102635D01*
X223190380Y-139054604D01*
X223190380Y-139178195D01*
X223202810Y-139178727D01*
X223237816Y-139181231D01*
X223292921Y-139185504D01*
X223365649Y-139191347D01*
X223453520Y-139198557D01*
X223554057Y-139206934D01*
X223664783Y-139216277D01*
X223769911Y-139225242D01*
X223889189Y-139235398D01*
X224001786Y-139244858D01*
X224105011Y-139253404D01*
X224196179Y-139260821D01*
X224272601Y-139266892D01*
X224331589Y-139271399D01*
X224370455Y-139274127D01*
X224385550Y-139274884D01*
X224394944Y-139276065D01*
X224398672Y-139280744D01*
X224395177Y-139290724D01*
X224382905Y-139307810D01*
X224360300Y-139333804D01*
X224325806Y-139370510D01*
X224277868Y-139419733D01*
X224214930Y-139483274D01*
X224147674Y-139550695D01*
X223872183Y-139826399D01*
X223870112Y-139824467D01*
X223870112Y-140006710D01*
X223881486Y-140015016D01*
X223908269Y-140038267D01*
X223947998Y-140074135D01*
X223998213Y-140120287D01*
X224056452Y-140174394D01*
X224120253Y-140234126D01*
X224187155Y-140297152D01*
X224254696Y-140361142D01*
X224320416Y-140423764D01*
X224381852Y-140482690D01*
X224436543Y-140535588D01*
X224482028Y-140580128D01*
X224515844Y-140613980D01*
X224535532Y-140634812D01*
X224539543Y-140640494D01*
X224526597Y-140642366D01*
X224490840Y-140646254D01*
X224434510Y-140651943D01*
X224359846Y-140659219D01*
X224269086Y-140667869D01*
X224164468Y-140677678D01*
X224048232Y-140688434D01*
X223922614Y-140699921D01*
X223821324Y-140709093D01*
X223689985Y-140720826D01*
X223566258Y-140731665D01*
X223452387Y-140741430D01*
X223350617Y-140749937D01*
X223263193Y-140757005D01*
X223192359Y-140762451D01*
X223140359Y-140766092D01*
X223109438Y-140767747D01*
X223101409Y-140767558D01*
X223108560Y-140757666D01*
X223131547Y-140732476D01*
X223168145Y-140694190D01*
X223216128Y-140645011D01*
X223273272Y-140587139D01*
X223337353Y-140522778D01*
X223406144Y-140454129D01*
X223477422Y-140383395D01*
X223548961Y-140312778D01*
X223618536Y-140244480D01*
X223683923Y-140180704D01*
X223742897Y-140123650D01*
X223793233Y-140075522D01*
X223832705Y-140038522D01*
X223859089Y-140014852D01*
X223870112Y-140006710D01*
X223870112Y-139824467D01*
X223762001Y-139723591D01*
X223706083Y-139671232D01*
X223643654Y-139612465D01*
X223577149Y-139549615D01*
X223509004Y-139485005D01*
X223441654Y-139420958D01*
X223377534Y-139359797D01*
X223319078Y-139303847D01*
X223268724Y-139255430D01*
X223228904Y-139216870D01*
X223202056Y-139190491D01*
X223190614Y-139178616D01*
X223190380Y-139178195D01*
X223190380Y-139054604D01*
X223046432Y-139042599D01*
X222414864Y-138442062D01*
X221783295Y-137841525D01*
X221695021Y-137841966D01*
X221606746Y-137842408D01*
X221710372Y-137939417D01*
X221768169Y-137993709D01*
X221836074Y-138057808D01*
X221912278Y-138129984D01*
X221994975Y-138208508D01*
X222082359Y-138291651D01*
X222172621Y-138377681D01*
X222263956Y-138464870D01*
X222354555Y-138551487D01*
X222442613Y-138635803D01*
X222526321Y-138716088D01*
X222603873Y-138790613D01*
X222673463Y-138857646D01*
X222733282Y-138915459D01*
X222781524Y-138962321D01*
X222816382Y-138996504D01*
X222836049Y-139016276D01*
X222839822Y-139020610D01*
X222826698Y-139020908D01*
X222793095Y-139019269D01*
X222743586Y-139015977D01*
X222682743Y-139011318D01*
X222658438Y-139009318D01*
X222480657Y-138994423D01*
X222480657Y-139111045D01*
X222508949Y-139117066D01*
X222531324Y-139120137D01*
X222573423Y-139124452D01*
X222629884Y-139129512D01*
X222695341Y-139134819D01*
X222719568Y-139136656D01*
X222789127Y-139142073D01*
X222853724Y-139147541D01*
X222907254Y-139152512D01*
X222943616Y-139156439D01*
X222950215Y-139157325D01*
X222963762Y-139160666D01*
X222979620Y-139167899D01*
X222999567Y-139180560D01*
X223025379Y-139200189D01*
X223058835Y-139228322D01*
X223101713Y-139266498D01*
X223155789Y-139316254D01*
X223222842Y-139379129D01*
X223304649Y-139456659D01*
X223387656Y-139535749D01*
X223469800Y-139614436D01*
X223545875Y-139687888D01*
X223614031Y-139754276D01*
X223672418Y-139811773D01*
X223719187Y-139858549D01*
X223752488Y-139892776D01*
X223770473Y-139912627D01*
X223773148Y-139916860D01*
X223763447Y-139927997D01*
X223738147Y-139954029D01*
X223699788Y-139992430D01*
X223650906Y-140040672D01*
X223594040Y-140096230D01*
X223552612Y-140136408D01*
X223335706Y-140346169D01*
X223335706Y-139727663D01*
X223096795Y-139727663D01*
X223096795Y-140482119D01*
X223203248Y-140482119D01*
X223065360Y-140620435D01*
X222967546Y-140718553D01*
X222967546Y-140909643D01*
X222982976Y-140911471D01*
X222991573Y-140920723D01*
X222995319Y-140943050D01*
X222996195Y-140984105D01*
X222996201Y-140991376D01*
X222996201Y-141073109D01*
X222776878Y-141073109D01*
X222857885Y-140991376D01*
X222907134Y-140945270D01*
X222944865Y-140917694D01*
X222967546Y-140909643D01*
X222967546Y-140718553D01*
X222927472Y-140758752D01*
X222804658Y-140758752D01*
X222748156Y-140759137D01*
X222712211Y-140760900D01*
X222692236Y-140764950D01*
X222683643Y-140772199D01*
X222681845Y-140783130D01*
X222679204Y-140795288D01*
X222668618Y-140804273D01*
X222646087Y-140811174D01*
X222607615Y-140817076D01*
X222549204Y-140823065D01*
X222527810Y-140824987D01*
X222480657Y-140829148D01*
X222480657Y-139111045D01*
X222480657Y-138994423D01*
X222480657Y-138834891D01*
X222367488Y-138834891D01*
X222367488Y-138902686D01*
X222366402Y-138942338D01*
X222361160Y-138963884D01*
X222358040Y-138966520D01*
X222358040Y-139105384D01*
X222365168Y-139112692D01*
X222367368Y-139138007D01*
X222367488Y-139155092D01*
X222367488Y-139212119D01*
X222367488Y-139424779D01*
X222367488Y-140839302D01*
X222318492Y-140791458D01*
X222258030Y-140717150D01*
X222211397Y-140625184D01*
X222177955Y-140514002D01*
X222159459Y-140403529D01*
X222150828Y-140331227D01*
X222241746Y-140331227D01*
X222241746Y-139752812D01*
X222138599Y-139752812D01*
X222147202Y-139667935D01*
X222154462Y-139608632D01*
X222164085Y-139545449D01*
X222170958Y-139507614D01*
X222186113Y-139432168D01*
X222276801Y-139428474D01*
X222367488Y-139424779D01*
X222367488Y-139212119D01*
X222317191Y-139212119D01*
X222285682Y-139210456D01*
X222268169Y-139206303D01*
X222266894Y-139204629D01*
X222274960Y-139186013D01*
X222294526Y-139158817D01*
X222318650Y-139131552D01*
X222340388Y-139112733D01*
X222343214Y-139111057D01*
X222358040Y-139105384D01*
X222358040Y-138966520D01*
X222348787Y-138974338D01*
X222335310Y-138978558D01*
X222300333Y-138995781D01*
X222258285Y-139028862D01*
X222215062Y-139072107D01*
X222176560Y-139119826D01*
X222156507Y-139151170D01*
X222134557Y-139186877D01*
X222116117Y-139205181D01*
X222094374Y-139211612D01*
X222081424Y-139212106D01*
X222078281Y-139212106D01*
X222078281Y-139853406D01*
X222141152Y-139853406D01*
X222141152Y-140230633D01*
X222078281Y-140230633D01*
X222078281Y-139853406D01*
X222078281Y-139212106D01*
X222040558Y-139212119D01*
X222040558Y-139317952D01*
X222041735Y-139366645D01*
X222044871Y-139404595D01*
X222049377Y-139425692D01*
X222051201Y-139427977D01*
X222054001Y-139441359D01*
X222052854Y-139473926D01*
X222048099Y-139520084D01*
X222043709Y-139551624D01*
X222035084Y-139608812D01*
X222027297Y-139661114D01*
X222021553Y-139700418D01*
X222019921Y-139711945D01*
X222010594Y-139742063D01*
X221995978Y-139752812D01*
X221990026Y-139756080D01*
X221985484Y-139767770D01*
X221982176Y-139790712D01*
X221979921Y-139827735D01*
X221978540Y-139881668D01*
X221977856Y-139955340D01*
X221977686Y-140042020D01*
X221977783Y-140134529D01*
X221978236Y-140204906D01*
X221979296Y-140256164D01*
X221981209Y-140291320D01*
X221984225Y-140313389D01*
X221988591Y-140325385D01*
X221994555Y-140330324D01*
X222001490Y-140331227D01*
X222023501Y-140338921D01*
X222036027Y-140364121D01*
X222040494Y-140410009D01*
X222040558Y-140418264D01*
X222048574Y-140495973D01*
X222070642Y-140584233D01*
X222103790Y-140675085D01*
X222145045Y-140760570D01*
X222191437Y-140832726D01*
X222198788Y-140842072D01*
X222222704Y-140872533D01*
X222232282Y-140890572D01*
X222229186Y-140903169D01*
X222216410Y-140916100D01*
X222191384Y-140954293D01*
X222181777Y-141003998D01*
X222186773Y-141057524D01*
X222205557Y-141107178D01*
X222237312Y-141145267D01*
X222241003Y-141148025D01*
X222300281Y-141176526D01*
X222361640Y-141181828D01*
X222420133Y-141164518D01*
X222470810Y-141125180D01*
X222474995Y-141120370D01*
X222494873Y-141092440D01*
X222503627Y-141064102D01*
X222504259Y-141024263D01*
X222503698Y-141014311D01*
X222502268Y-140975332D01*
X222505545Y-140955254D01*
X222515434Y-140947985D01*
X222524667Y-140947240D01*
X222551450Y-140945716D01*
X222591731Y-140941935D01*
X222615830Y-140939218D01*
X222654107Y-140935277D01*
X222673702Y-140936916D01*
X222680864Y-140946421D01*
X222681845Y-140963351D01*
X222678607Y-140973392D01*
X222668126Y-140989590D01*
X222649254Y-141013145D01*
X222620841Y-141045257D01*
X222581741Y-141087128D01*
X222530803Y-141139957D01*
X222466879Y-141204945D01*
X222388820Y-141283291D01*
X222295478Y-141376197D01*
X222185704Y-141484863D01*
X222132658Y-141537231D01*
X221583473Y-142079049D01*
X221670554Y-142078430D01*
G37*
X221670554Y-142078430D02*
X221757637Y-142077811D01*
X222216597Y-141626086D01*
X222675558Y-141174361D01*
X222886177Y-141174032D01*
X223096795Y-141173703D01*
X223096795Y-140898610D01*
X223150236Y-140891522D01*
X223174594Y-140888838D01*
X223220465Y-140884313D01*
X223285111Y-140878191D01*
X223365797Y-140870712D01*
X223459787Y-140862119D01*
X223564343Y-140852654D01*
X223676731Y-140842558D01*
X223794213Y-140832074D01*
X223914054Y-140821444D01*
X224033517Y-140810909D01*
X224149865Y-140800713D01*
X224260363Y-140791095D01*
X224362275Y-140782300D01*
X224452864Y-140774568D01*
X224529393Y-140768142D01*
X224589127Y-140763263D01*
X224629330Y-140760175D01*
X224647265Y-140759117D01*
X224647350Y-140759118D01*
X224661741Y-140766827D01*
X224691454Y-140789981D01*
X224736837Y-140828895D01*
X224798235Y-140883884D01*
X224875994Y-140955264D01*
X224970460Y-141043349D01*
X225081978Y-141148454D01*
X225210894Y-141270895D01*
X225246993Y-141305310D01*
X225819122Y-141851137D01*
X225907142Y-141762881D01*
X225829464Y-141691485D01*
X225801392Y-141665366D01*
X225757980Y-141624566D01*
X225702072Y-141571777D01*
X225636514Y-141509691D01*
X225564147Y-141441000D01*
X225487818Y-141368396D01*
X225442230Y-141324960D01*
X225356825Y-141243416D01*
X225288416Y-141177504D01*
X225235759Y-141125544D01*
X225197611Y-141085855D01*
X225172726Y-141056757D01*
X225159862Y-141036569D01*
X225157774Y-141023610D01*
X225165219Y-141016200D01*
X225180952Y-141012658D01*
X225203729Y-141011303D01*
X225209945Y-141011121D01*
X225252767Y-141001703D01*
X225304525Y-140978497D01*
X225357034Y-140946136D01*
X225402109Y-140909252D01*
X225416034Y-140894493D01*
X225464753Y-140818767D01*
X225492012Y-140730308D01*
X225498479Y-140652100D01*
X225486282Y-140563468D01*
X225450519Y-140481612D01*
X225392428Y-140409164D01*
X225377968Y-140395797D01*
X225322439Y-140346918D01*
X225322439Y-139501326D01*
X225498479Y-139501326D01*
X225498479Y-139274990D01*
X225416237Y-139274990D01*
X225360092Y-139272150D01*
X225321122Y-139262607D01*
X225299925Y-139251009D01*
X225284758Y-139242723D01*
X225262768Y-139235627D01*
X225230693Y-139229252D01*
X225185275Y-139223128D01*
X225123254Y-139216784D01*
X225041368Y-139209750D01*
X224980452Y-139204934D01*
X224695049Y-139182839D01*
X225244511Y-138640435D01*
X225343934Y-138542363D01*
X225439521Y-138448216D01*
X225529516Y-138359715D01*
X225612163Y-138278580D01*
X225685707Y-138206531D01*
X225748390Y-138145288D01*
X225798458Y-138096573D01*
X225834154Y-138062104D01*
X225853701Y-138043621D01*
X225884650Y-138013257D01*
X225906236Y-137987929D01*
X225913429Y-137974305D01*
X225905003Y-137956905D01*
X225883951Y-137931540D01*
X225875377Y-137922942D01*
X225837326Y-137886486D01*
X225633364Y-138087198D01*
X225581405Y-138138404D01*
X225514526Y-138204431D01*
X225435656Y-138282382D01*
X225347720Y-138369362D01*
X225253647Y-138462474D01*
X225156364Y-138558821D01*
X225058799Y-138655508D01*
X224988851Y-138724866D01*
X224882256Y-138830297D01*
X224792013Y-138918871D01*
X224716898Y-138991719D01*
X224655692Y-139049977D01*
X224607172Y-139094775D01*
X224581835Y-139116979D01*
X224581835Y-139295276D01*
X224867261Y-139317599D01*
X224950925Y-139324331D01*
X225027433Y-139330843D01*
X225092787Y-139336766D01*
X225142987Y-139341732D01*
X225174035Y-139345371D01*
X225180979Y-139346542D01*
X225209271Y-139353162D01*
X225209271Y-140302636D01*
X225130312Y-140308974D01*
X225037021Y-140328110D01*
X224954497Y-140368154D01*
X224885744Y-140426582D01*
X224833769Y-140500871D01*
X224802569Y-140584252D01*
X224787934Y-140611302D01*
X224756525Y-140624844D01*
X224755140Y-140625128D01*
X224741880Y-140626753D01*
X224728301Y-140624744D01*
X224711887Y-140617142D01*
X224690117Y-140601984D01*
X224660473Y-140577312D01*
X224620438Y-140541164D01*
X224567491Y-140491580D01*
X224499115Y-140426599D01*
X224494711Y-140422401D01*
X224421317Y-140352507D01*
X224343143Y-140278200D01*
X224265570Y-140204586D01*
X224193981Y-140136771D01*
X224133757Y-140079860D01*
X224120293Y-140067168D01*
X224069526Y-140018513D01*
X224026081Y-139975291D01*
X223992947Y-139940605D01*
X223973111Y-139917556D01*
X223968752Y-139909818D01*
X223977876Y-139898278D01*
X224002906Y-139871290D01*
X224041758Y-139830979D01*
X224092349Y-139779471D01*
X224152594Y-139718891D01*
X224220410Y-139651364D01*
X224276271Y-139596174D01*
X224581835Y-139295276D01*
X224581835Y-139116979D01*
X224570117Y-139127249D01*
X224543305Y-139148529D01*
X224525514Y-139159749D01*
X224517276Y-139162246D01*
X224499296Y-139161300D01*
X224458598Y-139158427D01*
X224397525Y-139153813D01*
X224318419Y-139147642D01*
X224223620Y-139140102D01*
X224115473Y-139131379D01*
X223996318Y-139121657D01*
X223868497Y-139111124D01*
X223766341Y-139102635D01*
X223190380Y-139054604D01*
X223190380Y-139178195D01*
X223202810Y-139178727D01*
X223237816Y-139181231D01*
X223292921Y-139185504D01*
X223365649Y-139191347D01*
X223453520Y-139198557D01*
X223554057Y-139206934D01*
X223664783Y-139216277D01*
X223769911Y-139225242D01*
X223889189Y-139235398D01*
X224001786Y-139244858D01*
X224105011Y-139253404D01*
X224196179Y-139260821D01*
X224272601Y-139266892D01*
X224331589Y-139271399D01*
X224370455Y-139274127D01*
X224385550Y-139274884D01*
X224394944Y-139276065D01*
X224398672Y-139280744D01*
X224395177Y-139290724D01*
X224382905Y-139307810D01*
X224360300Y-139333804D01*
X224325806Y-139370510D01*
X224277868Y-139419733D01*
X224214930Y-139483274D01*
X224147674Y-139550695D01*
X223872183Y-139826399D01*
X223870112Y-139824467D01*
X223870112Y-140006710D01*
X223881486Y-140015016D01*
X223908269Y-140038267D01*
X223947998Y-140074135D01*
X223998213Y-140120287D01*
X224056452Y-140174394D01*
X224120253Y-140234126D01*
X224187155Y-140297152D01*
X224254696Y-140361142D01*
X224320416Y-140423764D01*
X224381852Y-140482690D01*
X224436543Y-140535588D01*
X224482028Y-140580128D01*
X224515844Y-140613980D01*
X224535532Y-140634812D01*
X224539543Y-140640494D01*
X224526597Y-140642366D01*
X224490840Y-140646254D01*
X224434510Y-140651943D01*
X224359846Y-140659219D01*
X224269086Y-140667869D01*
X224164468Y-140677678D01*
X224048232Y-140688434D01*
X223922614Y-140699921D01*
X223821324Y-140709093D01*
X223689985Y-140720826D01*
X223566258Y-140731665D01*
X223452387Y-140741430D01*
X223350617Y-140749937D01*
X223263193Y-140757005D01*
X223192359Y-140762451D01*
X223140359Y-140766092D01*
X223109438Y-140767747D01*
X223101409Y-140767558D01*
X223108560Y-140757666D01*
X223131547Y-140732476D01*
X223168145Y-140694190D01*
X223216128Y-140645011D01*
X223273272Y-140587139D01*
X223337353Y-140522778D01*
X223406144Y-140454129D01*
X223477422Y-140383395D01*
X223548961Y-140312778D01*
X223618536Y-140244480D01*
X223683923Y-140180704D01*
X223742897Y-140123650D01*
X223793233Y-140075522D01*
X223832705Y-140038522D01*
X223859089Y-140014852D01*
X223870112Y-140006710D01*
X223870112Y-139824467D01*
X223762001Y-139723591D01*
X223706083Y-139671232D01*
X223643654Y-139612465D01*
X223577149Y-139549615D01*
X223509004Y-139485005D01*
X223441654Y-139420958D01*
X223377534Y-139359797D01*
X223319078Y-139303847D01*
X223268724Y-139255430D01*
X223228904Y-139216870D01*
X223202056Y-139190491D01*
X223190614Y-139178616D01*
X223190380Y-139178195D01*
X223190380Y-139054604D01*
X223046432Y-139042599D01*
X222414864Y-138442062D01*
X221783295Y-137841525D01*
X221695021Y-137841966D01*
X221606746Y-137842408D01*
X221710372Y-137939417D01*
X221768169Y-137993709D01*
X221836074Y-138057808D01*
X221912278Y-138129984D01*
X221994975Y-138208508D01*
X222082359Y-138291651D01*
X222172621Y-138377681D01*
X222263956Y-138464870D01*
X222354555Y-138551487D01*
X222442613Y-138635803D01*
X222526321Y-138716088D01*
X222603873Y-138790613D01*
X222673463Y-138857646D01*
X222733282Y-138915459D01*
X222781524Y-138962321D01*
X222816382Y-138996504D01*
X222836049Y-139016276D01*
X222839822Y-139020610D01*
X222826698Y-139020908D01*
X222793095Y-139019269D01*
X222743586Y-139015977D01*
X222682743Y-139011318D01*
X222658438Y-139009318D01*
X222480657Y-138994423D01*
X222480657Y-139111045D01*
X222508949Y-139117066D01*
X222531324Y-139120137D01*
X222573423Y-139124452D01*
X222629884Y-139129512D01*
X222695341Y-139134819D01*
X222719568Y-139136656D01*
X222789127Y-139142073D01*
X222853724Y-139147541D01*
X222907254Y-139152512D01*
X222943616Y-139156439D01*
X222950215Y-139157325D01*
X222963762Y-139160666D01*
X222979620Y-139167899D01*
X222999567Y-139180560D01*
X223025379Y-139200189D01*
X223058835Y-139228322D01*
X223101713Y-139266498D01*
X223155789Y-139316254D01*
X223222842Y-139379129D01*
X223304649Y-139456659D01*
X223387656Y-139535749D01*
X223469800Y-139614436D01*
X223545875Y-139687888D01*
X223614031Y-139754276D01*
X223672418Y-139811773D01*
X223719187Y-139858549D01*
X223752488Y-139892776D01*
X223770473Y-139912627D01*
X223773148Y-139916860D01*
X223763447Y-139927997D01*
X223738147Y-139954029D01*
X223699788Y-139992430D01*
X223650906Y-140040672D01*
X223594040Y-140096230D01*
X223552612Y-140136408D01*
X223335706Y-140346169D01*
X223335706Y-139727663D01*
X223096795Y-139727663D01*
X223096795Y-140482119D01*
X223203248Y-140482119D01*
X223065360Y-140620435D01*
X222967546Y-140718553D01*
X222967546Y-140909643D01*
X222982976Y-140911471D01*
X222991573Y-140920723D01*
X222995319Y-140943050D01*
X222996195Y-140984105D01*
X222996201Y-140991376D01*
X222996201Y-141073109D01*
X222776878Y-141073109D01*
X222857885Y-140991376D01*
X222907134Y-140945270D01*
X222944865Y-140917694D01*
X222967546Y-140909643D01*
X222967546Y-140718553D01*
X222927472Y-140758752D01*
X222804658Y-140758752D01*
X222748156Y-140759137D01*
X222712211Y-140760900D01*
X222692236Y-140764950D01*
X222683643Y-140772199D01*
X222681845Y-140783130D01*
X222679204Y-140795288D01*
X222668618Y-140804273D01*
X222646087Y-140811174D01*
X222607615Y-140817076D01*
X222549204Y-140823065D01*
X222527810Y-140824987D01*
X222480657Y-140829148D01*
X222480657Y-139111045D01*
X222480657Y-138994423D01*
X222480657Y-138834891D01*
X222367488Y-138834891D01*
X222367488Y-138902686D01*
X222366402Y-138942338D01*
X222361160Y-138963884D01*
X222358040Y-138966520D01*
X222358040Y-139105384D01*
X222365168Y-139112692D01*
X222367368Y-139138007D01*
X222367488Y-139155092D01*
X222367488Y-139212119D01*
X222367488Y-139424779D01*
X222367488Y-140839302D01*
X222318492Y-140791458D01*
X222258030Y-140717150D01*
X222211397Y-140625184D01*
X222177955Y-140514002D01*
X222159459Y-140403529D01*
X222150828Y-140331227D01*
X222241746Y-140331227D01*
X222241746Y-139752812D01*
X222138599Y-139752812D01*
X222147202Y-139667935D01*
X222154462Y-139608632D01*
X222164085Y-139545449D01*
X222170958Y-139507614D01*
X222186113Y-139432168D01*
X222276801Y-139428474D01*
X222367488Y-139424779D01*
X222367488Y-139212119D01*
X222317191Y-139212119D01*
X222285682Y-139210456D01*
X222268169Y-139206303D01*
X222266894Y-139204629D01*
X222274960Y-139186013D01*
X222294526Y-139158817D01*
X222318650Y-139131552D01*
X222340388Y-139112733D01*
X222343214Y-139111057D01*
X222358040Y-139105384D01*
X222358040Y-138966520D01*
X222348787Y-138974338D01*
X222335310Y-138978558D01*
X222300333Y-138995781D01*
X222258285Y-139028862D01*
X222215062Y-139072107D01*
X222176560Y-139119826D01*
X222156507Y-139151170D01*
X222134557Y-139186877D01*
X222116117Y-139205181D01*
X222094374Y-139211612D01*
X222081424Y-139212106D01*
X222078281Y-139212106D01*
X222078281Y-139853406D01*
X222141152Y-139853406D01*
X222141152Y-140230633D01*
X222078281Y-140230633D01*
X222078281Y-139853406D01*
X222078281Y-139212106D01*
X222040558Y-139212119D01*
X222040558Y-139317952D01*
X222041735Y-139366645D01*
X222044871Y-139404595D01*
X222049377Y-139425692D01*
X222051201Y-139427977D01*
X222054001Y-139441359D01*
X222052854Y-139473926D01*
X222048099Y-139520084D01*
X222043709Y-139551624D01*
X222035084Y-139608812D01*
X222027297Y-139661114D01*
X222021553Y-139700418D01*
X222019921Y-139711945D01*
X222010594Y-139742063D01*
X221995978Y-139752812D01*
X221990026Y-139756080D01*
X221985484Y-139767770D01*
X221982176Y-139790712D01*
X221979921Y-139827735D01*
X221978540Y-139881668D01*
X221977856Y-139955340D01*
X221977686Y-140042020D01*
X221977783Y-140134529D01*
X221978236Y-140204906D01*
X221979296Y-140256164D01*
X221981209Y-140291320D01*
X221984225Y-140313389D01*
X221988591Y-140325385D01*
X221994555Y-140330324D01*
X222001490Y-140331227D01*
X222023501Y-140338921D01*
X222036027Y-140364121D01*
X222040494Y-140410009D01*
X222040558Y-140418264D01*
X222048574Y-140495973D01*
X222070642Y-140584233D01*
X222103790Y-140675085D01*
X222145045Y-140760570D01*
X222191437Y-140832726D01*
X222198788Y-140842072D01*
X222222704Y-140872533D01*
X222232282Y-140890572D01*
X222229186Y-140903169D01*
X222216410Y-140916100D01*
X222191384Y-140954293D01*
X222181777Y-141003998D01*
X222186773Y-141057524D01*
X222205557Y-141107178D01*
X222237312Y-141145267D01*
X222241003Y-141148025D01*
X222300281Y-141176526D01*
X222361640Y-141181828D01*
X222420133Y-141164518D01*
X222470810Y-141125180D01*
X222474995Y-141120370D01*
X222494873Y-141092440D01*
X222503627Y-141064102D01*
X222504259Y-141024263D01*
X222503698Y-141014311D01*
X222502268Y-140975332D01*
X222505545Y-140955254D01*
X222515434Y-140947985D01*
X222524667Y-140947240D01*
X222551450Y-140945716D01*
X222591731Y-140941935D01*
X222615830Y-140939218D01*
X222654107Y-140935277D01*
X222673702Y-140936916D01*
X222680864Y-140946421D01*
X222681845Y-140963351D01*
X222678607Y-140973392D01*
X222668126Y-140989590D01*
X222649254Y-141013145D01*
X222620841Y-141045257D01*
X222581741Y-141087128D01*
X222530803Y-141139957D01*
X222466879Y-141204945D01*
X222388820Y-141283291D01*
X222295478Y-141376197D01*
X222185704Y-141484863D01*
X222132658Y-141537231D01*
X221583473Y-142079049D01*
X221670554Y-142078430D01*
G36*
X227623528Y-141701822D02*
G01*
X227623528Y-138181029D01*
X226755904Y-138181029D01*
X226755904Y-141701822D01*
X227623528Y-141701822D01*
G37*
X227623528Y-141701822D02*
X227623528Y-138181029D01*
X226755904Y-138181029D01*
X226755904Y-141701822D01*
X227623528Y-141701822D01*
M02*
