G04 #@! TF.GenerationSoftware,KiCad,Pcbnew,(5.1.5-0-10_14)*
G04 #@! TF.CreationDate,2020-08-29T20:57:47+01:00*
G04 #@! TF.ProjectId,mc68681-basic,6d633638-3638-4312-9d62-617369632e6b,rev?*
G04 #@! TF.SameCoordinates,Original*
G04 #@! TF.FileFunction,Copper,L4,Bot*
G04 #@! TF.FilePolarity,Positive*
%FSLAX46Y46*%
G04 Gerber Fmt 4.6, Leading zero omitted, Abs format (unit mm)*
G04 Created by KiCad (PCBNEW (5.1.5-0-10_14)) date 2020-08-29 20:57:47*
%MOMM*%
%LPD*%
G04 APERTURE LIST*
%ADD10O,1.600000X1.600000*%
%ADD11C,1.600000*%
%ADD12O,1.600000X2.400000*%
%ADD13R,1.600000X2.400000*%
%ADD14C,1.600200*%
%ADD15C,1.500000*%
%ADD16O,1.700000X1.700000*%
%ADD17R,1.700000X1.700000*%
%ADD18O,2.400000X1.600000*%
%ADD19R,2.400000X1.600000*%
%ADD20R,1.600000X1.600000*%
%ADD21C,0.800000*%
%ADD22C,0.150000*%
G04 APERTURE END LIST*
D10*
X92850000Y-116815000D03*
D11*
X92850000Y-126975000D03*
D12*
X88700000Y-131380000D03*
X111560000Y-139000000D03*
X91240000Y-131380000D03*
X109020000Y-139000000D03*
X93780000Y-131380000D03*
X106480000Y-139000000D03*
X96320000Y-131380000D03*
X103940000Y-139000000D03*
X98860000Y-131380000D03*
X101400000Y-139000000D03*
X101400000Y-131380000D03*
X98860000Y-139000000D03*
X103940000Y-131380000D03*
X96320000Y-139000000D03*
X106480000Y-131380000D03*
X93780000Y-139000000D03*
X109020000Y-131380000D03*
X91240000Y-139000000D03*
X111560000Y-131380000D03*
D13*
X88700000Y-139000000D03*
D14*
X85065800Y-122075000D03*
X87605800Y-122075000D03*
X67100000Y-108080000D03*
X67100000Y-110620000D03*
X78355000Y-122075000D03*
X80895000Y-122075000D03*
X103644200Y-126450000D03*
X106184200Y-126450000D03*
X83500000Y-145044200D03*
X83500000Y-147584200D03*
X83500000Y-136815800D03*
X83500000Y-139355800D03*
X67100000Y-86920000D03*
X67100000Y-89460000D03*
X71644200Y-122000000D03*
X74184200Y-122000000D03*
X94505000Y-83550000D03*
X97045000Y-83550000D03*
X106184200Y-65175000D03*
X103644200Y-65175000D03*
X94505000Y-104850000D03*
X97045000Y-104850000D03*
X66594200Y-64200000D03*
X69134200Y-64200000D03*
X88294200Y-64200000D03*
X90834200Y-64200000D03*
D10*
X78025000Y-137015000D03*
D11*
X78025000Y-147175000D03*
D15*
X95775000Y-91644999D03*
X95775000Y-96524999D03*
D16*
X65540000Y-136000000D03*
D17*
X63000000Y-136000000D03*
D16*
X65540000Y-140000000D03*
D17*
X63000000Y-140000000D03*
D16*
X65540000Y-144000000D03*
D17*
X63000000Y-144000000D03*
D16*
X65540000Y-148000000D03*
D17*
X63000000Y-148000000D03*
D16*
X61550000Y-115700000D03*
X61550000Y-113160000D03*
X61550000Y-110620000D03*
X61550000Y-108080000D03*
X61550000Y-105540000D03*
D17*
X61550000Y-103000000D03*
D16*
X61550000Y-94540000D03*
X61550000Y-92000000D03*
X61550000Y-89460000D03*
X61550000Y-86920000D03*
X61550000Y-84380000D03*
D17*
X61550000Y-81840000D03*
D16*
X121000000Y-153380000D03*
X118460000Y-153380000D03*
X121000000Y-150840000D03*
X118460000Y-150840000D03*
X121000000Y-148300000D03*
X118460000Y-148300000D03*
X121000000Y-145760000D03*
X118460000Y-145760000D03*
X121000000Y-143220000D03*
X118460000Y-143220000D03*
X121000000Y-140680000D03*
X118460000Y-140680000D03*
X121000000Y-138140000D03*
X118460000Y-138140000D03*
X121000000Y-135600000D03*
D17*
X118460000Y-135600000D03*
D16*
X121000000Y-127640000D03*
X118460000Y-127640000D03*
X121000000Y-125100000D03*
X118460000Y-125100000D03*
X121000000Y-122560000D03*
X118460000Y-122560000D03*
X121000000Y-120020000D03*
X118460000Y-120020000D03*
X121000000Y-117480000D03*
X118460000Y-117480000D03*
X121000000Y-114940000D03*
X118460000Y-114940000D03*
X121000000Y-112400000D03*
X118460000Y-112400000D03*
X121000000Y-109860000D03*
X118460000Y-109860000D03*
X121000000Y-107320000D03*
X118460000Y-107320000D03*
X121000000Y-104780000D03*
X118460000Y-104780000D03*
X121000000Y-102240000D03*
X118460000Y-102240000D03*
X121000000Y-99700000D03*
X118460000Y-99700000D03*
X121000000Y-97160000D03*
X118460000Y-97160000D03*
X121000000Y-94620000D03*
X118460000Y-94620000D03*
X121000000Y-92080000D03*
X118460000Y-92080000D03*
X121000000Y-89540000D03*
X118460000Y-89540000D03*
X121000000Y-87000000D03*
X118460000Y-87000000D03*
X121000000Y-84460000D03*
X118460000Y-84460000D03*
X121000000Y-81920000D03*
X118460000Y-81920000D03*
X121000000Y-79380000D03*
X118460000Y-79380000D03*
X121000000Y-76840000D03*
X118460000Y-76840000D03*
X121000000Y-74300000D03*
X118460000Y-74300000D03*
X121000000Y-71760000D03*
X118460000Y-71760000D03*
X121000000Y-69220000D03*
X118460000Y-69220000D03*
X121000000Y-66680000D03*
X118460000Y-66680000D03*
X121000000Y-64140000D03*
X118460000Y-64140000D03*
X121000000Y-61600000D03*
X118460000Y-61600000D03*
X121000000Y-59060000D03*
X118460000Y-59060000D03*
X121000000Y-56520000D03*
X118460000Y-56520000D03*
X121000000Y-53980000D03*
X118460000Y-53980000D03*
X121000000Y-51440000D03*
X118460000Y-51440000D03*
X121000000Y-48900000D03*
D17*
X118460000Y-48900000D03*
D12*
X88700000Y-51430000D03*
X111560000Y-59050000D03*
X91240000Y-51430000D03*
X109020000Y-59050000D03*
X93780000Y-51430000D03*
X106480000Y-59050000D03*
X96320000Y-51430000D03*
X103940000Y-59050000D03*
X98860000Y-51430000D03*
X101400000Y-59050000D03*
X101400000Y-51430000D03*
X98860000Y-59050000D03*
X103940000Y-51430000D03*
X96320000Y-59050000D03*
X106480000Y-51430000D03*
X93780000Y-59050000D03*
X109020000Y-51430000D03*
X91240000Y-59050000D03*
X111560000Y-51430000D03*
D13*
X88700000Y-59050000D03*
D18*
X111620000Y-70000000D03*
X104000000Y-92860000D03*
X111620000Y-72540000D03*
X104000000Y-90320000D03*
X111620000Y-75080000D03*
X104000000Y-87780000D03*
X111620000Y-77620000D03*
X104000000Y-85240000D03*
X111620000Y-80160000D03*
X104000000Y-82700000D03*
X111620000Y-82700000D03*
X104000000Y-80160000D03*
X111620000Y-85240000D03*
X104000000Y-77620000D03*
X111620000Y-87780000D03*
X104000000Y-75080000D03*
X111620000Y-90320000D03*
X104000000Y-72540000D03*
X111620000Y-92860000D03*
D19*
X104000000Y-70000000D03*
D12*
X67000000Y-51430000D03*
X82240000Y-59050000D03*
X69540000Y-51430000D03*
X79700000Y-59050000D03*
X72080000Y-51430000D03*
X77160000Y-59050000D03*
X74620000Y-51430000D03*
X74620000Y-59050000D03*
X77160000Y-51430000D03*
X72080000Y-59050000D03*
X79700000Y-51430000D03*
X69540000Y-59050000D03*
X82240000Y-51430000D03*
D13*
X67000000Y-59050000D03*
D12*
X88700000Y-145380000D03*
X111560000Y-153000000D03*
X91240000Y-145380000D03*
X109020000Y-153000000D03*
X93780000Y-145380000D03*
X106480000Y-153000000D03*
X96320000Y-145380000D03*
X103940000Y-153000000D03*
X98860000Y-145380000D03*
X101400000Y-153000000D03*
X101400000Y-145380000D03*
X98860000Y-153000000D03*
X103940000Y-145380000D03*
X96320000Y-153000000D03*
X106480000Y-145380000D03*
X93780000Y-153000000D03*
X109020000Y-145380000D03*
X91240000Y-153000000D03*
X111560000Y-145380000D03*
D13*
X88700000Y-153000000D03*
D18*
X111620000Y-100000000D03*
X104000000Y-122860000D03*
X111620000Y-102540000D03*
X104000000Y-120320000D03*
X111620000Y-105080000D03*
X104000000Y-117780000D03*
X111620000Y-107620000D03*
X104000000Y-115240000D03*
X111620000Y-110160000D03*
X104000000Y-112700000D03*
X111620000Y-112700000D03*
X104000000Y-110160000D03*
X111620000Y-115240000D03*
X104000000Y-107620000D03*
X111620000Y-117780000D03*
X104000000Y-105080000D03*
X111620000Y-120320000D03*
X104000000Y-102540000D03*
X111620000Y-122860000D03*
D19*
X104000000Y-100000000D03*
D18*
X87240000Y-70000000D03*
X72000000Y-118260000D03*
X87240000Y-72540000D03*
X72000000Y-115720000D03*
X87240000Y-75080000D03*
X72000000Y-113180000D03*
X87240000Y-77620000D03*
X72000000Y-110640000D03*
X87240000Y-80160000D03*
X72000000Y-108100000D03*
X87240000Y-82700000D03*
X72000000Y-105560000D03*
X87240000Y-85240000D03*
X72000000Y-103020000D03*
X87240000Y-87780000D03*
X72000000Y-100480000D03*
X87240000Y-90320000D03*
X72000000Y-97940000D03*
X87240000Y-92860000D03*
X72000000Y-95400000D03*
X87240000Y-95400000D03*
X72000000Y-92860000D03*
X87240000Y-97940000D03*
X72000000Y-90320000D03*
X87240000Y-100480000D03*
X72000000Y-87780000D03*
X87240000Y-103020000D03*
X72000000Y-85240000D03*
X87240000Y-105560000D03*
X72000000Y-82700000D03*
X87240000Y-108100000D03*
X72000000Y-80160000D03*
X87240000Y-110640000D03*
X72000000Y-77620000D03*
X87240000Y-113180000D03*
X72000000Y-75080000D03*
X87240000Y-115720000D03*
X72000000Y-72540000D03*
X87240000Y-118260000D03*
D19*
X72000000Y-70000000D03*
D11*
X65592621Y-127000000D03*
D20*
X63092621Y-127000000D03*
D11*
X65592621Y-71000000D03*
D20*
X63092621Y-71000000D03*
D21*
X101125000Y-72575000D03*
X76300000Y-101650000D03*
X76275000Y-115725000D03*
X101725000Y-75075000D03*
X73600000Y-109459620D03*
X101099980Y-80150000D03*
X74250000Y-113925000D03*
X107572298Y-83022298D03*
X83850000Y-86500000D03*
X107550000Y-102500000D03*
X74909311Y-149279133D03*
X99625000Y-85850000D03*
X99700000Y-96875000D03*
X75234321Y-150209738D03*
X75850000Y-150975000D03*
X63199999Y-97950000D03*
X115975000Y-155325000D03*
X64500000Y-95450000D03*
X64525000Y-93225000D03*
X80875000Y-154424990D03*
X81050000Y-83850000D03*
X81050000Y-97950000D03*
X98825000Y-100850000D03*
X106000000Y-121575000D03*
X78725000Y-99225000D03*
X78725000Y-87775000D03*
X100449990Y-103800000D03*
X98125000Y-87150000D03*
X102450000Y-106300000D03*
X108222298Y-97850000D03*
X74000000Y-96900000D03*
X84750000Y-114880010D03*
X108875000Y-97050000D03*
X74650000Y-96163202D03*
X85200000Y-112340010D03*
X98825000Y-79200000D03*
X89650000Y-108270000D03*
X85193727Y-54558833D03*
X85075000Y-75100000D03*
X83700000Y-102180010D03*
X100424999Y-73925000D03*
X76925000Y-118275000D03*
X84475000Y-53900000D03*
X84275000Y-70000000D03*
X123800000Y-51125000D03*
X114583376Y-60700010D03*
X103950000Y-56525000D03*
X115536612Y-61050020D03*
X116300000Y-61725000D03*
X114275000Y-62375020D03*
X116950000Y-63125000D03*
X123600000Y-128750000D03*
D22*
X92645000Y-90320000D02*
X87240000Y-90320000D01*
X95775000Y-93450000D02*
X92645000Y-90320000D01*
X95775000Y-96524999D02*
X95775000Y-93450000D01*
X91910001Y-87780000D02*
X87240000Y-87780000D01*
X95775000Y-91644999D02*
X91910001Y-87780000D01*
X87275000Y-72575000D02*
X87240000Y-72540000D01*
X101125000Y-72575000D02*
X87275000Y-72575000D01*
X104000000Y-102540000D02*
X100569632Y-102540000D01*
X100569632Y-102540000D02*
X99927316Y-101897684D01*
X99927316Y-101897684D02*
X99559643Y-101530010D01*
X99559643Y-101530010D02*
X86105010Y-101530010D01*
X86105010Y-101530010D02*
X81205010Y-101530010D01*
X86105010Y-101530010D02*
X86000000Y-101530010D01*
X76419990Y-101530010D02*
X76300000Y-101650000D01*
X81205010Y-101530010D02*
X76419990Y-101530010D01*
X72005000Y-115725000D02*
X72000000Y-115720000D01*
X76275000Y-115725000D02*
X72005000Y-115725000D01*
X87245000Y-75075000D02*
X87240000Y-75080000D01*
X101725000Y-75075000D02*
X87245000Y-75075000D01*
X104000000Y-107620000D02*
X89295000Y-107620000D01*
X88285010Y-106610010D02*
X86285010Y-106610010D01*
X89295000Y-107620000D02*
X88285010Y-106610010D01*
X86285010Y-106610010D02*
X86275000Y-106600000D01*
X76449610Y-106610010D02*
X73600000Y-109459620D01*
X81939990Y-106610010D02*
X76449610Y-106610010D01*
X86285010Y-106610010D02*
X81939990Y-106610010D01*
X81939990Y-106610010D02*
X81785010Y-106610010D01*
X74459980Y-110640000D02*
X72000000Y-110640000D01*
X75509990Y-111690010D02*
X74459980Y-110640000D01*
X101640010Y-111690010D02*
X75509990Y-111690010D01*
X102650000Y-112700000D02*
X101640010Y-111690010D01*
X104000000Y-112700000D02*
X102650000Y-112700000D01*
X87250000Y-80150000D02*
X87240000Y-80160000D01*
X101099980Y-80150000D02*
X87250000Y-80150000D01*
X102650000Y-117780000D02*
X101600000Y-116730000D01*
X104000000Y-117780000D02*
X102650000Y-117780000D01*
X99100010Y-114230010D02*
X85605010Y-114230010D01*
X101600000Y-116730000D02*
X99100010Y-114230010D01*
X85605010Y-114230010D02*
X82105010Y-114230010D01*
X74555010Y-114230010D02*
X74250000Y-113925000D01*
X82105010Y-114230010D02*
X74555010Y-114230010D01*
X107572298Y-83022298D02*
X107572298Y-84112714D01*
X107572298Y-84112714D02*
X105185012Y-86500000D01*
X111580000Y-102500000D02*
X111620000Y-102540000D01*
X107550000Y-102500000D02*
X111580000Y-102500000D01*
X83850000Y-86500000D02*
X84675000Y-86500000D01*
X84675000Y-86500000D02*
X84875000Y-86300000D01*
X89190368Y-86300000D02*
X89390367Y-86500000D01*
X84875000Y-86300000D02*
X89190368Y-86300000D01*
X89390367Y-86500000D02*
X105185012Y-86500000D01*
X74909311Y-149279133D02*
X76621474Y-149279133D01*
X77600000Y-150257659D02*
X77607659Y-150257659D01*
X77607659Y-150257659D02*
X77674980Y-150324980D01*
X76621474Y-149279133D02*
X77600000Y-150257659D01*
X77674980Y-150324980D02*
X108449980Y-150324980D01*
X109020000Y-150895000D02*
X109020000Y-153600000D01*
X108449980Y-150324980D02*
X109020000Y-150895000D01*
X88590000Y-85240000D02*
X89524990Y-86174990D01*
X87240000Y-85240000D02*
X88590000Y-85240000D01*
X99300010Y-86174990D02*
X99625000Y-85850000D01*
X89524990Y-86174990D02*
X99300010Y-86174990D01*
X100265685Y-96875000D02*
X100740686Y-96399999D01*
X100740686Y-96399999D02*
X112024999Y-96399999D01*
X99700000Y-96875000D02*
X100265685Y-96875000D01*
X116344998Y-92080000D02*
X118460000Y-92080000D01*
X112024999Y-96399999D02*
X116344998Y-92080000D01*
X75234321Y-150209738D02*
X77084748Y-150209738D01*
X77525000Y-150649990D02*
X103424990Y-150649990D01*
X77084748Y-150209738D02*
X77525000Y-150649990D01*
X103940000Y-151165000D02*
X103940000Y-153600000D01*
X103424990Y-150649990D02*
X103940000Y-151165000D01*
X75850000Y-150975000D02*
X97975000Y-150975000D01*
X98860000Y-151860000D02*
X98860000Y-153600000D01*
X97975000Y-150975000D02*
X98860000Y-151860000D01*
X71990000Y-97950000D02*
X72000000Y-97940000D01*
X63199999Y-97950000D02*
X71990000Y-97950000D01*
X61550000Y-89460000D02*
X63715000Y-91625000D01*
X87240000Y-91910000D02*
X87240000Y-92860000D01*
X86955000Y-91625000D02*
X87240000Y-91910000D01*
X63715000Y-91625000D02*
X86955000Y-91625000D01*
X61550000Y-89460000D02*
X56790000Y-89460000D01*
X56790000Y-89460000D02*
X54450000Y-91800000D01*
X54450000Y-91800000D02*
X53850000Y-92400000D01*
X53850000Y-92400000D02*
X53850000Y-104975000D01*
X53850000Y-104975000D02*
X53850000Y-142075000D01*
X53850000Y-149394870D02*
X59855130Y-155400000D01*
X53850000Y-142075000D02*
X53850000Y-149394870D01*
X115900000Y-155400000D02*
X115975000Y-155325000D01*
X59855130Y-155400000D02*
X115900000Y-155400000D01*
X71950000Y-95450000D02*
X72000000Y-95400000D01*
X64500000Y-95450000D02*
X71950000Y-95450000D01*
X93780000Y-151650000D02*
X93780000Y-153000000D01*
X93679990Y-151549990D02*
X93780000Y-151650000D01*
X82625010Y-151549990D02*
X93679990Y-151549990D01*
X79750030Y-154424970D02*
X82625010Y-151549990D01*
X54825030Y-114149970D02*
X54825030Y-148991004D01*
X60258996Y-154424970D02*
X79750030Y-154424970D01*
X54825030Y-148991004D02*
X60258996Y-154424970D01*
X55815000Y-113160000D02*
X54825030Y-114149970D01*
X61550000Y-113160000D02*
X55815000Y-113160000D01*
X61550000Y-92000000D02*
X63650000Y-94100000D01*
X87240000Y-94450000D02*
X87240000Y-95400000D01*
X86890000Y-94100000D02*
X87240000Y-94450000D01*
X63650000Y-94100000D02*
X86890000Y-94100000D01*
X55525000Y-92000000D02*
X54175010Y-93349990D01*
X59989752Y-155074990D02*
X91115010Y-155074990D01*
X54175010Y-149260248D02*
X59989752Y-155074990D01*
X91115010Y-155074990D02*
X91240000Y-154950000D01*
X54175010Y-93349990D02*
X54175010Y-149260248D01*
X91240000Y-154950000D02*
X91240000Y-153600000D01*
X61550000Y-92000000D02*
X55525000Y-92000000D01*
X71635000Y-93225000D02*
X72000000Y-92860000D01*
X64525000Y-93225000D02*
X71635000Y-93225000D01*
X61550000Y-110620000D02*
X56055000Y-110620000D01*
X56055000Y-110620000D02*
X54500020Y-112174980D01*
X54500020Y-140224980D02*
X54500020Y-149125626D01*
X54500020Y-112174980D02*
X54500020Y-140224980D01*
X54500020Y-140224980D02*
X54500020Y-140350020D01*
X54500020Y-149125626D02*
X60124374Y-154749980D01*
X81199990Y-154749980D02*
X80875000Y-154424990D01*
X60124374Y-154749980D02*
X81199990Y-154749980D01*
X62752081Y-84380000D02*
X63282081Y-83850000D01*
X61550000Y-84380000D02*
X62752081Y-84380000D01*
X63282081Y-83850000D02*
X81050000Y-83850000D01*
X87230000Y-97950000D02*
X87240000Y-97940000D01*
X81050000Y-97950000D02*
X87230000Y-97950000D01*
X87610000Y-100850000D02*
X87240000Y-100480000D01*
X98825000Y-100850000D02*
X87610000Y-100850000D01*
X106115001Y-121459999D02*
X106000000Y-121575000D01*
X119899999Y-121459999D02*
X106115001Y-121459999D01*
X121000000Y-122560000D02*
X119899999Y-121459999D01*
X102650000Y-100000000D02*
X101875000Y-99225000D01*
X104000000Y-100000000D02*
X102650000Y-100000000D01*
X101875000Y-99225000D02*
X78725000Y-99225000D01*
X72005000Y-87775000D02*
X72000000Y-87780000D01*
X78725000Y-87775000D02*
X72005000Y-87775000D01*
X99670760Y-103020000D02*
X87240000Y-103020000D01*
X100049991Y-103399231D02*
X99670760Y-103020000D01*
X100049991Y-103400001D02*
X100049991Y-103399231D01*
X100449990Y-103800000D02*
X100049991Y-103400001D01*
X98125000Y-87150000D02*
X89580735Y-87150000D01*
X89580735Y-87150000D02*
X89055745Y-86625010D01*
X85009622Y-86625010D02*
X84434632Y-87200000D01*
X89055745Y-86625010D02*
X85009622Y-86625010D01*
X73350000Y-85240000D02*
X72000000Y-85240000D01*
X77152002Y-85240000D02*
X73350000Y-85240000D01*
X79112002Y-87200000D02*
X77152002Y-85240000D01*
X84434632Y-87200000D02*
X79112002Y-87200000D01*
X87240000Y-105560000D02*
X92385000Y-105560000D01*
X93125000Y-106300000D02*
X101475000Y-106300000D01*
X92385000Y-105560000D02*
X93125000Y-106300000D01*
X101475000Y-106300000D02*
X102450000Y-106300000D01*
X111690000Y-80160000D02*
X111620000Y-80160000D01*
X115734623Y-79250010D02*
X112599990Y-79250010D01*
X112599990Y-79250010D02*
X111690000Y-80160000D01*
X116719621Y-78265011D02*
X115734623Y-79250010D01*
X122609989Y-78265011D02*
X116719621Y-78265011D01*
X121849999Y-57369999D02*
X121000000Y-56520000D01*
X123150010Y-58670010D02*
X121849999Y-57369999D01*
X123150010Y-77724990D02*
X123150010Y-58670010D01*
X122609989Y-78265011D02*
X123150010Y-77724990D01*
X89575010Y-97850010D02*
X106322288Y-97850010D01*
X88614990Y-96889990D02*
X89575010Y-97850010D01*
X74010010Y-96889990D02*
X88614990Y-96889990D01*
X74000000Y-96900000D02*
X74010010Y-96889990D01*
X106322288Y-97850010D02*
X106824990Y-97850010D01*
X106825000Y-97850000D02*
X108222298Y-97850000D01*
X106824990Y-97850010D02*
X106825000Y-97850000D01*
X102650000Y-120320000D02*
X96885020Y-114555020D01*
X104000000Y-120320000D02*
X102650000Y-120320000D01*
X96885020Y-114555020D02*
X85650000Y-114555020D01*
X85074990Y-114555020D02*
X84750000Y-114880010D01*
X85650000Y-114555020D02*
X85074990Y-114555020D01*
X112970000Y-82700000D02*
X113869990Y-81800010D01*
X111620000Y-82700000D02*
X112970000Y-82700000D01*
X117229622Y-80805011D02*
X122544989Y-80805011D01*
X116234623Y-81800010D02*
X117229622Y-80805011D01*
X113869990Y-81800010D02*
X116234623Y-81800010D01*
X121849999Y-54829999D02*
X121000000Y-53980000D01*
X123475020Y-56455020D02*
X121849999Y-54829999D01*
X123475020Y-79874980D02*
X123475020Y-56455020D01*
X122544989Y-80805011D02*
X123475020Y-79874980D01*
X89709632Y-97525000D02*
X105685296Y-97525000D01*
X105685296Y-97525000D02*
X106160296Y-97050000D01*
X88749613Y-96564980D02*
X89709632Y-97525000D01*
X75051778Y-96564980D02*
X88749613Y-96564980D01*
X106160296Y-97050000D02*
X108875000Y-97050000D01*
X74650000Y-96163202D02*
X75051778Y-96564980D01*
X102650000Y-115240000D02*
X99425020Y-112015020D01*
X104000000Y-115240000D02*
X102650000Y-115240000D01*
X99425020Y-112015020D02*
X85150000Y-112015020D01*
X85150000Y-112290010D02*
X85200000Y-112340010D01*
X85150000Y-112015020D02*
X85150000Y-112290010D01*
X72000000Y-78570000D02*
X72000000Y-77620000D01*
X72230001Y-78800001D02*
X72000000Y-78570000D01*
X98425001Y-78800001D02*
X72230001Y-78800001D01*
X98825000Y-79200000D02*
X98425001Y-78800001D01*
X102650000Y-110160000D02*
X100435010Y-107945010D01*
X104000000Y-110160000D02*
X102650000Y-110160000D01*
X89974990Y-107945010D02*
X89650000Y-108270000D01*
X100435010Y-107945010D02*
X89974990Y-107945010D01*
X121000000Y-51440000D02*
X119885011Y-50325011D01*
X119885011Y-50325011D02*
X116809623Y-50325011D01*
X116809623Y-50325011D02*
X112909634Y-54225000D01*
X112909634Y-54225000D02*
X111950000Y-54225000D01*
X111284633Y-54225000D02*
X111284623Y-54225010D01*
X111950000Y-54225000D02*
X111284633Y-54225000D01*
X111284623Y-54225010D02*
X85875000Y-54225010D01*
X85527550Y-54225010D02*
X85193727Y-54558833D01*
X85875000Y-54225010D02*
X85527550Y-54225010D01*
X72020000Y-75100000D02*
X72000000Y-75080000D01*
X85075000Y-75100000D02*
X72020000Y-75100000D01*
X102650000Y-105080000D02*
X99425020Y-101855020D01*
X104000000Y-105080000D02*
X102650000Y-105080000D01*
X99425020Y-101855020D02*
X85500000Y-101855020D01*
X85500000Y-101855020D02*
X85374990Y-101855020D01*
X84024990Y-101855020D02*
X83700000Y-102180010D01*
X85374990Y-101855020D02*
X84024990Y-101855020D01*
X72000000Y-73490000D02*
X72000000Y-72540000D01*
X72435000Y-73925000D02*
X72000000Y-73490000D01*
X100424999Y-73925000D02*
X72435000Y-73925000D01*
X101400000Y-57700000D02*
X100725000Y-57025000D01*
X101400000Y-59050000D02*
X101400000Y-57700000D01*
X74620000Y-57700000D02*
X74620000Y-59050000D01*
X75295000Y-57025000D02*
X74620000Y-57700000D01*
X100725000Y-57025000D02*
X75295000Y-57025000D01*
X74620000Y-57700000D02*
X74145000Y-57225000D01*
X67000000Y-57700000D02*
X67000000Y-59050000D01*
X67475000Y-57225000D02*
X67000000Y-57700000D01*
X74145000Y-57225000D02*
X67475000Y-57225000D01*
X87225000Y-118275000D02*
X87240000Y-118260000D01*
X76925000Y-118275000D02*
X87225000Y-118275000D01*
X91405000Y-118260000D02*
X92850000Y-116815000D01*
X87240000Y-118260000D02*
X91405000Y-118260000D01*
X119899999Y-50000001D02*
X116675001Y-50000001D01*
X121000000Y-48900000D02*
X119899999Y-50000001D01*
X116675001Y-50000001D02*
X112775002Y-53900000D01*
X112775002Y-53900000D02*
X111150000Y-53900000D01*
X111150000Y-53900000D02*
X84475000Y-53900000D01*
X84275000Y-70000000D02*
X72000000Y-70000000D01*
X91240000Y-144630000D02*
X91240000Y-145980000D01*
X90385000Y-143775000D02*
X91240000Y-144630000D01*
X74410001Y-146385001D02*
X75200000Y-147175000D01*
X75200000Y-147175000D02*
X78025000Y-147175000D01*
X63614999Y-146385001D02*
X74410001Y-146385001D01*
X63000000Y-147000000D02*
X63614999Y-146385001D01*
X63000000Y-148000000D02*
X63000000Y-147000000D01*
X82556370Y-143775000D02*
X90385000Y-143775000D01*
X79156370Y-147175000D02*
X82556370Y-143775000D01*
X78025000Y-147175000D02*
X79156370Y-147175000D01*
X93780000Y-146730000D02*
X93780000Y-145380000D01*
X94750020Y-147700020D02*
X93780000Y-146730000D01*
X115975000Y-151144264D02*
X112530756Y-147700020D01*
X115975000Y-152097081D02*
X115975000Y-151144264D01*
X117257919Y-153380000D02*
X115975000Y-152097081D01*
X112530756Y-147700020D02*
X94750020Y-147700020D01*
X118460000Y-153380000D02*
X117257919Y-153380000D01*
X96320000Y-145380000D02*
X96320000Y-146730000D01*
X117570367Y-152279999D02*
X119899999Y-152279999D01*
X119899999Y-152279999D02*
X120150001Y-152530001D01*
X112665378Y-147375010D02*
X117570367Y-152279999D01*
X120150001Y-152530001D02*
X121000000Y-153380000D01*
X96965010Y-147375010D02*
X112665378Y-147375010D01*
X96320000Y-146730000D02*
X96965010Y-147375010D01*
X98860000Y-146730000D02*
X99180000Y-147050000D01*
X98860000Y-145380000D02*
X98860000Y-146730000D01*
X120150001Y-151689999D02*
X121000000Y-150840000D01*
X119899999Y-151940001D02*
X120150001Y-151689999D01*
X112800000Y-147050000D02*
X117690001Y-151940001D01*
X99180000Y-147050000D02*
X112800000Y-147050000D01*
X117690001Y-151940001D02*
X119899999Y-151940001D01*
X112800000Y-147050000D02*
X112925000Y-147050000D01*
X115074960Y-142374960D02*
X118460000Y-145760000D01*
X103055040Y-142374960D02*
X115074960Y-142374960D01*
X101400000Y-144030000D02*
X103055040Y-142374960D01*
X101400000Y-145380000D02*
X101400000Y-144030000D01*
X120150001Y-146609999D02*
X121000000Y-145760000D01*
X119899999Y-146860001D02*
X120150001Y-146609999D01*
X117931999Y-146860001D02*
X119899999Y-146860001D01*
X113771968Y-142699970D02*
X117931999Y-146860001D01*
X103940000Y-144030000D02*
X105270030Y-142699970D01*
X105270030Y-142699970D02*
X113771968Y-142699970D01*
X103940000Y-145380000D02*
X103940000Y-144030000D01*
X120150001Y-147450001D02*
X121000000Y-148300000D01*
X119899999Y-147199999D02*
X120150001Y-147450001D01*
X106480000Y-144030000D02*
X107485020Y-143024980D01*
X117812365Y-147199999D02*
X119899999Y-147199999D01*
X106480000Y-145380000D02*
X106480000Y-144030000D01*
X113637346Y-143024980D02*
X117812365Y-147199999D01*
X107485020Y-143024980D02*
X113637346Y-143024980D01*
X113502724Y-143349990D02*
X118452734Y-148300000D01*
X118452734Y-148300000D02*
X118460000Y-148300000D01*
X109700010Y-143349990D02*
X113502724Y-143349990D01*
X109020000Y-144030000D02*
X109700010Y-143349990D01*
X109020000Y-145380000D02*
X109020000Y-144030000D01*
X117610001Y-149990001D02*
X118460000Y-150840000D01*
X114825000Y-147205000D02*
X117610001Y-149990001D01*
X114825000Y-145150000D02*
X114825000Y-147205000D01*
X113350000Y-143675000D02*
X114825000Y-145150000D01*
X111915000Y-143675000D02*
X113350000Y-143675000D01*
X111560000Y-144030000D02*
X111915000Y-143675000D01*
X111560000Y-145380000D02*
X111560000Y-144030000D01*
X119769632Y-83610001D02*
X119309999Y-83610001D01*
X120154633Y-83225000D02*
X119769632Y-83610001D01*
X119309999Y-83610001D02*
X118460000Y-84460000D01*
X122825000Y-83225000D02*
X120154633Y-83225000D01*
X123800030Y-82249970D02*
X122825000Y-83225000D01*
X123800030Y-56320397D02*
X123800030Y-82249970D01*
X123800000Y-56320367D02*
X123800030Y-56320397D01*
X123800000Y-51125000D02*
X123800000Y-56320367D01*
X119874999Y-83045001D02*
X115904999Y-83045001D01*
X121000000Y-81920000D02*
X119874999Y-83045001D01*
X115904999Y-83045001D02*
X114925000Y-84025000D01*
X104400000Y-90320000D02*
X104000000Y-90320000D01*
X110695000Y-84025000D02*
X104400000Y-90320000D01*
X114925000Y-84025000D02*
X110695000Y-84025000D01*
X120150001Y-80229999D02*
X121000000Y-79380000D01*
X117094999Y-80480001D02*
X119899999Y-80480001D01*
X119899999Y-80480001D02*
X120150001Y-80229999D01*
X116100000Y-81475000D02*
X117094999Y-80480001D01*
X110705000Y-81475000D02*
X116100000Y-81475000D01*
X104400000Y-87780000D02*
X110705000Y-81475000D01*
X104000000Y-87780000D02*
X104400000Y-87780000D01*
X122825000Y-60885000D02*
X121000000Y-59060000D01*
X122649989Y-75725011D02*
X122825000Y-75550000D01*
X116759622Y-75725011D02*
X122649989Y-75725011D01*
X122825000Y-75550000D02*
X122825000Y-60885000D01*
X115784623Y-76700010D02*
X116759622Y-75725011D01*
X112449990Y-76700010D02*
X115784623Y-76700010D01*
X111620000Y-77530000D02*
X112449990Y-76700010D01*
X111620000Y-77620000D02*
X111620000Y-77530000D01*
X104000000Y-85240000D02*
X104400000Y-85240000D01*
X104400000Y-85240000D02*
X110715000Y-78925000D01*
X110715000Y-78925000D02*
X115600000Y-78925000D01*
X121000000Y-76840000D02*
X120088002Y-76840000D01*
X116584999Y-77940001D02*
X115600000Y-78925000D01*
X118988001Y-77940001D02*
X116584999Y-77940001D01*
X120088002Y-76840000D02*
X118988001Y-77940001D01*
X119899999Y-75400001D02*
X121000000Y-74300000D01*
X116675001Y-75400001D02*
X119899999Y-75400001D01*
X116650000Y-75375000D02*
X116675001Y-75400001D01*
X110725000Y-76375000D02*
X115650000Y-76375000D01*
X104400000Y-82700000D02*
X110725000Y-76375000D01*
X115650000Y-76375000D02*
X116650000Y-75375000D01*
X104000000Y-82700000D02*
X104400000Y-82700000D01*
X121000000Y-71760000D02*
X119710000Y-73050000D01*
X119710000Y-73050000D02*
X116700000Y-73050000D01*
X116700000Y-73050000D02*
X115875000Y-73875000D01*
X104400000Y-80160000D02*
X104000000Y-80160000D01*
X110685000Y-73875000D02*
X104400000Y-80160000D01*
X115875000Y-73875000D02*
X110685000Y-73875000D01*
X112970000Y-92860000D02*
X114980000Y-90850000D01*
X111620000Y-92860000D02*
X112970000Y-92860000D01*
X119690000Y-90850000D02*
X121000000Y-89540000D01*
X114980000Y-90850000D02*
X119690000Y-90850000D01*
X121000000Y-69220000D02*
X119720000Y-70500000D01*
X119720000Y-70500000D02*
X116775000Y-70500000D01*
X116775000Y-70500000D02*
X116000000Y-71275000D01*
X104400000Y-77620000D02*
X104000000Y-77620000D01*
X110745000Y-71275000D02*
X104400000Y-77620000D01*
X116000000Y-71275000D02*
X110745000Y-71275000D01*
X112970000Y-87780000D02*
X113340000Y-88150000D01*
X111620000Y-87780000D02*
X112970000Y-87780000D01*
X119850000Y-88150000D02*
X121000000Y-87000000D01*
X113340000Y-88150000D02*
X119850000Y-88150000D01*
X121000000Y-66680000D02*
X119780000Y-67900000D01*
X119780000Y-67900000D02*
X116900000Y-67900000D01*
X116900000Y-67900000D02*
X116075000Y-68725000D01*
X104400000Y-75080000D02*
X104000000Y-75080000D01*
X110755000Y-68725000D02*
X104400000Y-75080000D01*
X116075000Y-68725000D02*
X110755000Y-68725000D01*
X112310001Y-65579999D02*
X105350000Y-72540000D01*
X119560001Y-65579999D02*
X112310001Y-65579999D01*
X105350000Y-72540000D02*
X104000000Y-72540000D01*
X121000000Y-64140000D02*
X119560001Y-65579999D01*
X111620000Y-85240000D02*
X112190000Y-85240000D01*
X112190000Y-85240000D02*
X112700000Y-85750000D01*
X119710000Y-85750000D02*
X121000000Y-84460000D01*
X112700000Y-85750000D02*
X119710000Y-85750000D01*
X107350000Y-70000000D02*
X104000000Y-70000000D01*
X119899999Y-62700001D02*
X119899999Y-64650001D01*
X119899999Y-64650001D02*
X119295011Y-65254989D01*
X121000000Y-61600000D02*
X119899999Y-62700001D01*
X107430367Y-70000000D02*
X107350000Y-70000000D01*
X112175378Y-65254989D02*
X107430367Y-70000000D01*
X119295011Y-65254989D02*
X112175378Y-65254989D01*
X98860000Y-59450000D02*
X100435000Y-61025000D01*
X98860000Y-59050000D02*
X98860000Y-59450000D01*
X100435000Y-61025000D02*
X113475000Y-61025000D01*
X114258386Y-61025000D02*
X114583376Y-60700010D01*
X113475000Y-61025000D02*
X114258386Y-61025000D01*
X117257919Y-56520000D02*
X118460000Y-56520000D01*
X118455000Y-56525000D02*
X118460000Y-56520000D01*
X103950000Y-56525000D02*
X118455000Y-56525000D01*
X96320000Y-60400000D02*
X97295010Y-61375010D01*
X96320000Y-59050000D02*
X96320000Y-60400000D01*
X97295010Y-61375010D02*
X100290022Y-61375010D01*
X100290022Y-61375010D02*
X111225000Y-61375010D01*
X115211622Y-61375010D02*
X115536612Y-61050020D01*
X111225000Y-61375010D02*
X115211622Y-61375010D01*
X93780000Y-60400000D02*
X95105020Y-61725020D01*
X93780000Y-59050000D02*
X93780000Y-60400000D01*
X95105020Y-61725020D02*
X100145044Y-61725020D01*
X100145044Y-61725020D02*
X109200000Y-61725020D01*
X116299980Y-61725020D02*
X116300000Y-61725000D01*
X109200000Y-61725020D02*
X116299980Y-61725020D01*
X91240000Y-60400000D02*
X92890030Y-62050030D01*
X91240000Y-59050000D02*
X91240000Y-60400000D01*
X113950010Y-62050030D02*
X114275000Y-62375020D01*
X92890030Y-62050030D02*
X113950010Y-62050030D01*
X88700000Y-59050000D02*
X88700000Y-60400000D01*
X88700000Y-60400000D02*
X90675040Y-62375040D01*
X90675040Y-62375040D02*
X103875040Y-62375040D01*
X103875040Y-62375040D02*
X108050000Y-62375040D01*
X108050000Y-62375040D02*
X111100000Y-62375040D01*
X111100000Y-62375040D02*
X112600040Y-62375040D01*
X113350000Y-63125000D02*
X114999980Y-63125000D01*
X112600040Y-62375040D02*
X113350000Y-63125000D01*
X118230000Y-66450000D02*
X118460000Y-66680000D01*
X114999980Y-63125000D02*
X115900000Y-63125000D01*
X115900000Y-63125000D02*
X116950000Y-63125000D01*
X123575000Y-128775000D02*
X123600000Y-128750000D01*
X72765000Y-128775000D02*
X123575000Y-128775000D01*
X65540000Y-136000000D02*
X72765000Y-128775000D01*
X109020000Y-140350000D02*
X109620000Y-140950000D01*
X109020000Y-139000000D02*
X109020000Y-140350000D01*
X109620000Y-140950000D02*
X112900000Y-140950000D01*
X113170000Y-140680000D02*
X118460000Y-140680000D01*
X112900000Y-140950000D02*
X113170000Y-140680000D01*
X120150001Y-142370001D02*
X121000000Y-143220000D01*
X103940000Y-139000000D02*
X103940000Y-140350000D01*
X105190020Y-141600020D02*
X117292386Y-141600020D01*
X117797376Y-142105011D02*
X119885011Y-142105011D01*
X117292386Y-141600020D02*
X117797376Y-142105011D01*
X119885011Y-142105011D02*
X120150001Y-142370001D01*
X103940000Y-140350000D02*
X105190020Y-141600020D01*
X117019970Y-143220000D02*
X118460000Y-143220000D01*
X102975030Y-141925030D02*
X115725000Y-141925030D01*
X115725000Y-141925030D02*
X117019970Y-143220000D01*
X101400000Y-140350000D02*
X102975030Y-141925030D01*
X101400000Y-139000000D02*
X101400000Y-140350000D01*
X98860000Y-137650000D02*
X99260000Y-137250000D01*
X98860000Y-139000000D02*
X98860000Y-137650000D01*
X99260000Y-137250000D02*
X113100000Y-137250000D01*
X113990000Y-138140000D02*
X118460000Y-138140000D01*
X113100000Y-137250000D02*
X113990000Y-138140000D01*
X119899999Y-137039999D02*
X120150001Y-137290001D01*
X120150001Y-137290001D02*
X121000000Y-138140000D01*
X97045010Y-136924990D02*
X117225376Y-136924990D01*
X117225376Y-136924990D02*
X117340385Y-137039999D01*
X96320000Y-137650000D02*
X97045010Y-136924990D01*
X117340385Y-137039999D02*
X119899999Y-137039999D01*
X96320000Y-139000000D02*
X96320000Y-137650000D01*
X119899999Y-136700001D02*
X120150001Y-136449999D01*
X117359999Y-136599980D02*
X117460020Y-136700001D01*
X93780000Y-137650000D02*
X94830020Y-136599980D01*
X120150001Y-136449999D02*
X121000000Y-135600000D01*
X117460020Y-136700001D02*
X119899999Y-136700001D01*
X94830020Y-136599980D02*
X117359999Y-136599980D01*
X93780000Y-139000000D02*
X93780000Y-137650000D01*
X113424970Y-135600000D02*
X118460000Y-135600000D01*
X92615030Y-136274970D02*
X112750000Y-136274970D01*
X91240000Y-137650000D02*
X92615030Y-136274970D01*
X112750000Y-136274970D02*
X113424970Y-135600000D01*
X91240000Y-139000000D02*
X91240000Y-137650000D01*
X117931999Y-141780001D02*
X119899999Y-141780001D01*
X107405010Y-141275010D02*
X117427008Y-141275010D01*
X106480000Y-140350000D02*
X107405010Y-141275010D01*
X117427008Y-141275010D02*
X117931999Y-141780001D01*
X120150001Y-141529999D02*
X121000000Y-140680000D01*
X119899999Y-141780001D02*
X120150001Y-141529999D01*
X106480000Y-139000000D02*
X106480000Y-140350000D01*
M02*
