G04 #@! TF.GenerationSoftware,KiCad,Pcbnew,(5.1.5-0-10_14)*
G04 #@! TF.CreationDate,2020-06-25T21:21:32+01:00*
G04 #@! TF.ProjectId,mc68681-basic,6d633638-3638-4312-9d62-617369632e6b,rev?*
G04 #@! TF.SameCoordinates,Original*
G04 #@! TF.FileFunction,Copper,L1,Top*
G04 #@! TF.FilePolarity,Positive*
%FSLAX46Y46*%
G04 Gerber Fmt 4.6, Leading zero omitted, Abs format (unit mm)*
G04 Created by KiCad (PCBNEW (5.1.5-0-10_14)) date 2020-06-25 21:21:32*
%MOMM*%
%LPD*%
G04 APERTURE LIST*
%ADD10O,1.600000X1.600000*%
%ADD11C,1.600000*%
%ADD12O,1.600000X2.400000*%
%ADD13R,1.600000X2.400000*%
%ADD14C,1.600200*%
%ADD15C,1.500000*%
%ADD16O,1.700000X1.700000*%
%ADD17R,1.700000X1.700000*%
%ADD18O,2.400000X1.600000*%
%ADD19R,2.400000X1.600000*%
%ADD20R,1.600000X1.600000*%
%ADD21C,0.800000*%
%ADD22C,0.150000*%
%ADD23C,0.800000*%
G04 APERTURE END LIST*
D10*
X92850000Y-116815000D03*
D11*
X92850000Y-126975000D03*
D12*
X88700000Y-131380000D03*
X111560000Y-139000000D03*
X91240000Y-131380000D03*
X109020000Y-139000000D03*
X93780000Y-131380000D03*
X106480000Y-139000000D03*
X96320000Y-131380000D03*
X103940000Y-139000000D03*
X98860000Y-131380000D03*
X101400000Y-139000000D03*
X101400000Y-131380000D03*
X98860000Y-139000000D03*
X103940000Y-131380000D03*
X96320000Y-139000000D03*
X106480000Y-131380000D03*
X93780000Y-139000000D03*
X109020000Y-131380000D03*
X91240000Y-139000000D03*
X111560000Y-131380000D03*
D13*
X88700000Y-139000000D03*
D14*
X85065800Y-122075000D03*
X87605800Y-122075000D03*
X67100000Y-108080000D03*
X67100000Y-110620000D03*
X78355000Y-122075000D03*
X80895000Y-122075000D03*
X103644200Y-126450000D03*
X106184200Y-126450000D03*
X83500000Y-145044200D03*
X83500000Y-147584200D03*
X83500000Y-136815800D03*
X83500000Y-139355800D03*
X67100000Y-86920000D03*
X67100000Y-89460000D03*
X71644200Y-122000000D03*
X74184200Y-122000000D03*
X94505000Y-83550000D03*
X97045000Y-83550000D03*
X106184200Y-65175000D03*
X103644200Y-65175000D03*
X94505000Y-104850000D03*
X97045000Y-104850000D03*
X66594200Y-64200000D03*
X69134200Y-64200000D03*
X88294200Y-64200000D03*
X90834200Y-64200000D03*
D10*
X78025000Y-137015000D03*
D11*
X78025000Y-147175000D03*
D15*
X95775000Y-91644999D03*
X95775000Y-96524999D03*
D16*
X65540000Y-136000000D03*
D17*
X63000000Y-136000000D03*
D16*
X65540000Y-140000000D03*
D17*
X63000000Y-140000000D03*
D16*
X65540000Y-144000000D03*
D17*
X63000000Y-144000000D03*
D16*
X65540000Y-148000000D03*
D17*
X63000000Y-148000000D03*
D16*
X61550000Y-115700000D03*
X61550000Y-113160000D03*
X61550000Y-110620000D03*
X61550000Y-108080000D03*
X61550000Y-105540000D03*
D17*
X61550000Y-103000000D03*
D16*
X61550000Y-94540000D03*
X61550000Y-92000000D03*
X61550000Y-89460000D03*
X61550000Y-86920000D03*
X61550000Y-84380000D03*
D17*
X61550000Y-81840000D03*
D16*
X121000000Y-153380000D03*
X118460000Y-153380000D03*
X121000000Y-150840000D03*
X118460000Y-150840000D03*
X121000000Y-148300000D03*
X118460000Y-148300000D03*
X121000000Y-145760000D03*
X118460000Y-145760000D03*
X121000000Y-143220000D03*
X118460000Y-143220000D03*
X121000000Y-140680000D03*
X118460000Y-140680000D03*
X121000000Y-138140000D03*
X118460000Y-138140000D03*
X121000000Y-135600000D03*
D17*
X118460000Y-135600000D03*
D16*
X121000000Y-127640000D03*
X118460000Y-127640000D03*
X121000000Y-125100000D03*
X118460000Y-125100000D03*
X121000000Y-122560000D03*
X118460000Y-122560000D03*
X121000000Y-120020000D03*
X118460000Y-120020000D03*
X121000000Y-117480000D03*
X118460000Y-117480000D03*
X121000000Y-114940000D03*
X118460000Y-114940000D03*
X121000000Y-112400000D03*
X118460000Y-112400000D03*
X121000000Y-109860000D03*
X118460000Y-109860000D03*
X121000000Y-107320000D03*
X118460000Y-107320000D03*
X121000000Y-104780000D03*
X118460000Y-104780000D03*
X121000000Y-102240000D03*
X118460000Y-102240000D03*
X121000000Y-99700000D03*
X118460000Y-99700000D03*
X121000000Y-97160000D03*
X118460000Y-97160000D03*
X121000000Y-94620000D03*
X118460000Y-94620000D03*
X121000000Y-92080000D03*
X118460000Y-92080000D03*
X121000000Y-89540000D03*
X118460000Y-89540000D03*
X121000000Y-87000000D03*
X118460000Y-87000000D03*
X121000000Y-84460000D03*
X118460000Y-84460000D03*
X121000000Y-81920000D03*
X118460000Y-81920000D03*
X121000000Y-79380000D03*
X118460000Y-79380000D03*
X121000000Y-76840000D03*
X118460000Y-76840000D03*
X121000000Y-74300000D03*
X118460000Y-74300000D03*
X121000000Y-71760000D03*
X118460000Y-71760000D03*
X121000000Y-69220000D03*
X118460000Y-69220000D03*
X121000000Y-66680000D03*
X118460000Y-66680000D03*
X121000000Y-64140000D03*
X118460000Y-64140000D03*
X121000000Y-61600000D03*
X118460000Y-61600000D03*
X121000000Y-59060000D03*
X118460000Y-59060000D03*
X121000000Y-56520000D03*
X118460000Y-56520000D03*
X121000000Y-53980000D03*
X118460000Y-53980000D03*
X121000000Y-51440000D03*
X118460000Y-51440000D03*
X121000000Y-48900000D03*
D17*
X118460000Y-48900000D03*
D12*
X88700000Y-51430000D03*
X111560000Y-59050000D03*
X91240000Y-51430000D03*
X109020000Y-59050000D03*
X93780000Y-51430000D03*
X106480000Y-59050000D03*
X96320000Y-51430000D03*
X103940000Y-59050000D03*
X98860000Y-51430000D03*
X101400000Y-59050000D03*
X101400000Y-51430000D03*
X98860000Y-59050000D03*
X103940000Y-51430000D03*
X96320000Y-59050000D03*
X106480000Y-51430000D03*
X93780000Y-59050000D03*
X109020000Y-51430000D03*
X91240000Y-59050000D03*
X111560000Y-51430000D03*
D13*
X88700000Y-59050000D03*
D18*
X111620000Y-70000000D03*
X104000000Y-92860000D03*
X111620000Y-72540000D03*
X104000000Y-90320000D03*
X111620000Y-75080000D03*
X104000000Y-87780000D03*
X111620000Y-77620000D03*
X104000000Y-85240000D03*
X111620000Y-80160000D03*
X104000000Y-82700000D03*
X111620000Y-82700000D03*
X104000000Y-80160000D03*
X111620000Y-85240000D03*
X104000000Y-77620000D03*
X111620000Y-87780000D03*
X104000000Y-75080000D03*
X111620000Y-90320000D03*
X104000000Y-72540000D03*
X111620000Y-92860000D03*
D19*
X104000000Y-70000000D03*
D12*
X67000000Y-51430000D03*
X82240000Y-59050000D03*
X69540000Y-51430000D03*
X79700000Y-59050000D03*
X72080000Y-51430000D03*
X77160000Y-59050000D03*
X74620000Y-51430000D03*
X74620000Y-59050000D03*
X77160000Y-51430000D03*
X72080000Y-59050000D03*
X79700000Y-51430000D03*
X69540000Y-59050000D03*
X82240000Y-51430000D03*
D13*
X67000000Y-59050000D03*
D12*
X88700000Y-145380000D03*
X111560000Y-153000000D03*
X91240000Y-145380000D03*
X109020000Y-153000000D03*
X93780000Y-145380000D03*
X106480000Y-153000000D03*
X96320000Y-145380000D03*
X103940000Y-153000000D03*
X98860000Y-145380000D03*
X101400000Y-153000000D03*
X101400000Y-145380000D03*
X98860000Y-153000000D03*
X103940000Y-145380000D03*
X96320000Y-153000000D03*
X106480000Y-145380000D03*
X93780000Y-153000000D03*
X109020000Y-145380000D03*
X91240000Y-153000000D03*
X111560000Y-145380000D03*
D13*
X88700000Y-153000000D03*
D18*
X111620000Y-100000000D03*
X104000000Y-122860000D03*
X111620000Y-102540000D03*
X104000000Y-120320000D03*
X111620000Y-105080000D03*
X104000000Y-117780000D03*
X111620000Y-107620000D03*
X104000000Y-115240000D03*
X111620000Y-110160000D03*
X104000000Y-112700000D03*
X111620000Y-112700000D03*
X104000000Y-110160000D03*
X111620000Y-115240000D03*
X104000000Y-107620000D03*
X111620000Y-117780000D03*
X104000000Y-105080000D03*
X111620000Y-120320000D03*
X104000000Y-102540000D03*
X111620000Y-122860000D03*
D19*
X104000000Y-100000000D03*
D18*
X87240000Y-70000000D03*
X72000000Y-118260000D03*
X87240000Y-72540000D03*
X72000000Y-115720000D03*
X87240000Y-75080000D03*
X72000000Y-113180000D03*
X87240000Y-77620000D03*
X72000000Y-110640000D03*
X87240000Y-80160000D03*
X72000000Y-108100000D03*
X87240000Y-82700000D03*
X72000000Y-105560000D03*
X87240000Y-85240000D03*
X72000000Y-103020000D03*
X87240000Y-87780000D03*
X72000000Y-100480000D03*
X87240000Y-90320000D03*
X72000000Y-97940000D03*
X87240000Y-92860000D03*
X72000000Y-95400000D03*
X87240000Y-95400000D03*
X72000000Y-92860000D03*
X87240000Y-97940000D03*
X72000000Y-90320000D03*
X87240000Y-100480000D03*
X72000000Y-87780000D03*
X87240000Y-103020000D03*
X72000000Y-85240000D03*
X87240000Y-105560000D03*
X72000000Y-82700000D03*
X87240000Y-108100000D03*
X72000000Y-80160000D03*
X87240000Y-110640000D03*
X72000000Y-77620000D03*
X87240000Y-113180000D03*
X72000000Y-75080000D03*
X87240000Y-115720000D03*
X72000000Y-72540000D03*
X87240000Y-118260000D03*
D19*
X72000000Y-70000000D03*
D11*
X65592621Y-127000000D03*
D20*
X63092621Y-127000000D03*
D11*
X65592621Y-71000000D03*
D20*
X63092621Y-71000000D03*
D21*
X101125000Y-72575000D03*
X76300000Y-101650000D03*
X76275000Y-115725000D03*
X101725000Y-75075000D03*
X73600000Y-109459620D03*
X101099980Y-80150000D03*
X74250000Y-113925000D03*
X107572298Y-83022298D03*
X83850000Y-86500000D03*
X107550000Y-102500000D03*
X74909311Y-149279133D03*
X99625000Y-85850000D03*
X99700000Y-96875000D03*
X75234321Y-150209738D03*
X75850000Y-150975000D03*
X63199999Y-97950000D03*
X115975000Y-155325000D03*
X64500000Y-95450000D03*
X64525000Y-93225000D03*
X80875000Y-154424990D03*
X81050000Y-83850000D03*
X81050000Y-97950000D03*
X98825000Y-100850000D03*
X106000000Y-121575000D03*
X78725000Y-99225000D03*
X78725000Y-87775000D03*
X100449990Y-103800000D03*
X98125000Y-87150000D03*
X102450000Y-106300000D03*
X108222298Y-97850000D03*
X74000000Y-96900000D03*
X84750000Y-114880010D03*
X108875000Y-97050000D03*
X74650000Y-96163202D03*
X85200000Y-112340010D03*
X98825000Y-79200000D03*
X89650000Y-108270000D03*
X85193727Y-54558833D03*
X85075000Y-75100000D03*
X83700000Y-102180010D03*
X100424999Y-73925000D03*
X76925000Y-118275000D03*
X84475000Y-53900000D03*
X84275000Y-70000000D03*
X123800000Y-51125000D03*
X114583376Y-60700010D03*
X103950000Y-56525000D03*
X115536612Y-61050020D03*
X116300000Y-61725000D03*
X114275000Y-62375020D03*
X116950000Y-63125000D03*
X123600000Y-128750000D03*
D22*
X94505000Y-97794999D02*
X95775000Y-96524999D01*
X94505000Y-104850000D02*
X94505000Y-97794999D01*
X93704901Y-89574900D02*
X95025001Y-90895000D01*
X93704901Y-84350099D02*
X93704901Y-89574900D01*
X95025001Y-90895000D02*
X95775000Y-91644999D01*
X94505000Y-83550000D02*
X93704901Y-84350099D01*
X103940000Y-131380000D02*
X103940000Y-130099633D01*
X103940000Y-130099633D02*
X103940000Y-129915000D01*
X103940000Y-129915000D02*
X103225000Y-129200000D01*
X101625000Y-129200000D02*
X100775020Y-128350020D01*
X103225000Y-129200000D02*
X101625000Y-129200000D01*
X100775020Y-128350020D02*
X100775020Y-127700000D01*
X100775020Y-127700000D02*
X100775020Y-116400000D01*
X100775020Y-106515347D02*
X101690368Y-105600000D01*
X100775020Y-116400000D02*
X100775020Y-106515347D01*
X101690368Y-105600000D02*
X102074990Y-105215378D01*
X102074990Y-105215378D02*
X102074990Y-95875000D01*
X102074990Y-95875000D02*
X102074990Y-95859623D01*
X102074990Y-95859623D02*
X102074990Y-78975000D01*
X102074990Y-78975000D02*
X102074990Y-76799990D01*
X101074999Y-72625001D02*
X101125000Y-72575000D01*
X101074999Y-75799999D02*
X101074999Y-72625001D01*
X102074990Y-76799990D02*
X101074999Y-75799999D01*
X76300000Y-101650000D02*
X76300000Y-113575000D01*
X76300000Y-115700000D02*
X76275000Y-115725000D01*
X76300000Y-113575000D02*
X76300000Y-115700000D01*
X106480000Y-130980000D02*
X104225000Y-128725000D01*
X106480000Y-131380000D02*
X106480000Y-130980000D01*
X104225000Y-128725000D02*
X103025000Y-128725000D01*
X101875000Y-128725000D02*
X101100030Y-127950030D01*
X101100030Y-127950030D02*
X101100030Y-116265377D01*
X103025000Y-128725000D02*
X101875000Y-128725000D01*
X101100030Y-116265377D02*
X101100030Y-125525000D01*
X102400000Y-105350000D02*
X102400000Y-95725000D01*
X101100030Y-106649970D02*
X102400000Y-105350000D01*
X101100030Y-116265377D02*
X101100030Y-106649970D01*
X102400000Y-75750000D02*
X101725000Y-75075000D01*
X102400000Y-95725000D02*
X102400000Y-75750000D01*
X73350000Y-113180000D02*
X72000000Y-113180000D01*
X73600000Y-112930000D02*
X73350000Y-113180000D01*
X73600000Y-109459620D02*
X73600000Y-112930000D01*
X99799990Y-129090010D02*
X99799990Y-128884623D01*
X98860000Y-130030000D02*
X99799990Y-129090010D01*
X98860000Y-131380000D02*
X98860000Y-130030000D01*
X99799990Y-128884623D02*
X99799990Y-118399990D01*
X99799990Y-101296645D02*
X101424970Y-99671665D01*
X99799990Y-118399990D02*
X99799990Y-101296645D01*
X101424970Y-99671665D02*
X101424970Y-96400000D01*
X101424970Y-80474990D02*
X101099980Y-80150000D01*
X101424970Y-96400000D02*
X101424970Y-80474990D01*
X73350000Y-108100000D02*
X72000000Y-108100000D01*
X74250000Y-109000000D02*
X73350000Y-108100000D01*
X74250000Y-113925000D02*
X74250000Y-109000000D01*
X110270000Y-72540000D02*
X107572298Y-75237702D01*
X107572298Y-75237702D02*
X107572298Y-83022298D01*
X111620000Y-72540000D02*
X110270000Y-72540000D01*
X83850000Y-85934315D02*
X83850000Y-86500000D01*
X83850000Y-84740000D02*
X83850000Y-85934315D01*
X85890000Y-82700000D02*
X83850000Y-84740000D01*
X87240000Y-82700000D02*
X85890000Y-82700000D01*
X107572298Y-102477702D02*
X107550000Y-102500000D01*
X107572298Y-83022298D02*
X107572298Y-102477702D01*
X73350000Y-105560000D02*
X74900001Y-107110001D01*
X74900001Y-107110001D02*
X74900001Y-116399999D01*
X72000000Y-105560000D02*
X73350000Y-105560000D01*
X74900001Y-116399999D02*
X74900001Y-119224999D01*
X74900001Y-119224999D02*
X75234301Y-119559299D01*
X75234301Y-148954143D02*
X74909311Y-149279133D01*
X75234301Y-119559299D02*
X75234301Y-148954143D01*
X99625000Y-96800000D02*
X99700000Y-96875000D01*
X99625000Y-85850000D02*
X99625000Y-96800000D01*
X75225011Y-104895011D02*
X75225011Y-106975378D01*
X73350000Y-103020000D02*
X75225011Y-104895011D01*
X72000000Y-103020000D02*
X73350000Y-103020000D01*
X75225011Y-106975378D02*
X75225011Y-113600011D01*
X75225011Y-119090377D02*
X75559311Y-119424676D01*
X75225011Y-113600011D02*
X75225011Y-119090377D01*
X75559311Y-119424676D02*
X75559311Y-149300000D01*
X75559311Y-149884748D02*
X75234321Y-150209738D01*
X75559311Y-149300000D02*
X75559311Y-149884748D01*
X73350000Y-100480000D02*
X75550021Y-102680021D01*
X72000000Y-100480000D02*
X73350000Y-100480000D01*
X75550021Y-102680021D02*
X75550021Y-113734634D01*
X75550021Y-118955753D02*
X75884321Y-119290053D01*
X75550021Y-113734634D02*
X75550021Y-118955753D01*
X75884321Y-119290053D02*
X75884321Y-149250000D01*
X75884321Y-150940679D02*
X75850000Y-150975000D01*
X75884321Y-149250000D02*
X75884321Y-150940679D01*
X63199999Y-103890001D02*
X63199999Y-97950000D01*
X61550000Y-105540000D02*
X63199999Y-103890001D01*
X109020000Y-130030000D02*
X109020000Y-131380000D01*
X109400000Y-129650000D02*
X109020000Y-130030000D01*
X112509633Y-129650000D02*
X109400000Y-129650000D01*
X115975000Y-133115367D02*
X112509633Y-129650000D01*
X115975000Y-155325000D02*
X115975000Y-133115367D01*
X61550000Y-113160000D02*
X64500000Y-110210000D01*
X64500000Y-110210000D02*
X64500000Y-95450000D01*
X61550000Y-110620000D02*
X64174990Y-107995010D01*
X64174990Y-107995010D02*
X64174990Y-104300000D01*
X63849999Y-93900001D02*
X64525000Y-93225000D01*
X63849999Y-103975009D02*
X63849999Y-93900001D01*
X64174990Y-104300000D02*
X63849999Y-103975009D01*
X115649990Y-133249990D02*
X113780000Y-131380000D01*
X113780000Y-131380000D02*
X111560000Y-131380000D01*
X114600011Y-154824989D02*
X115649990Y-153775010D01*
X81274999Y-154824989D02*
X114600011Y-154824989D01*
X115649990Y-153775010D02*
X115649990Y-133249990D01*
X80875000Y-154424990D02*
X81274999Y-154824989D01*
X81050000Y-83850000D02*
X81050000Y-97950000D01*
X63000000Y-135000000D02*
X64825000Y-133175000D01*
X63000000Y-136000000D02*
X63000000Y-135000000D01*
X64825000Y-133175000D02*
X67975000Y-133175000D01*
X67975000Y-133175000D02*
X70075000Y-131075000D01*
X70650000Y-90320000D02*
X72000000Y-90320000D01*
X70075000Y-90895000D02*
X70650000Y-90320000D01*
X70075000Y-131075000D02*
X70075000Y-90895000D01*
X95370000Y-153000000D02*
X95050000Y-152680000D01*
X96320000Y-153000000D02*
X95370000Y-153000000D01*
X95050000Y-152680000D02*
X95050000Y-130375000D01*
X95050000Y-130375000D02*
X95050000Y-130150000D01*
X95050000Y-130150000D02*
X95050000Y-129925000D01*
X95050000Y-129925000D02*
X98824960Y-126150040D01*
X98824960Y-126150040D02*
X98824960Y-124350000D01*
X98824960Y-100850040D02*
X98825000Y-100850000D01*
X98824960Y-124350000D02*
X98824960Y-100850040D01*
X105350000Y-100000000D02*
X104000000Y-100000000D01*
X106000000Y-100650000D02*
X105350000Y-100000000D01*
X106000000Y-121575000D02*
X106000000Y-100650000D01*
X78725000Y-99225000D02*
X78725000Y-87775000D01*
X100450000Y-153000000D02*
X101400000Y-153000000D01*
X100125000Y-152675000D02*
X100450000Y-153000000D01*
X100125000Y-104400000D02*
X100125000Y-152675000D01*
X100125000Y-104124990D02*
X100449990Y-103800000D01*
X100125000Y-104400000D02*
X100125000Y-104124990D01*
X93780000Y-131380000D02*
X93780000Y-130030000D01*
X93780000Y-130030000D02*
X93780000Y-129870000D01*
X93780000Y-129870000D02*
X93780000Y-129820000D01*
X93780000Y-129820000D02*
X97300000Y-126300000D01*
X97300000Y-126300000D02*
X98499950Y-125100050D01*
X98499950Y-125100050D02*
X98499950Y-124725000D01*
X98125000Y-124350050D02*
X98125000Y-87150000D01*
X98499950Y-124725000D02*
X98125000Y-124350050D01*
X107430000Y-153000000D02*
X107775000Y-152655000D01*
X106749990Y-128399990D02*
X102009622Y-128399990D01*
X102009622Y-128399990D02*
X101425040Y-127815408D01*
X107775000Y-152655000D02*
X107775000Y-129425000D01*
X107775000Y-129425000D02*
X106749990Y-128399990D01*
X106480000Y-153000000D02*
X107430000Y-153000000D01*
X101425040Y-107299960D02*
X102450000Y-106275000D01*
X101425040Y-127815408D02*
X101425040Y-107299960D01*
X111220000Y-80160000D02*
X108225000Y-83155000D01*
X111620000Y-80160000D02*
X111220000Y-80160000D01*
X108225000Y-83155000D02*
X108225000Y-95947298D01*
X73350000Y-82700000D02*
X72000000Y-82700000D01*
X74000000Y-83350000D02*
X73350000Y-82700000D01*
X74000000Y-96900000D02*
X74000000Y-83350000D01*
X108222298Y-95950000D02*
X108222298Y-97850000D01*
X108225000Y-95947298D02*
X108222298Y-95950000D01*
X85890000Y-108100000D02*
X87240000Y-108100000D01*
X84350001Y-109639999D02*
X85890000Y-108100000D01*
X84350001Y-114480011D02*
X84350001Y-109639999D01*
X84750000Y-114880010D02*
X84350001Y-114480011D01*
X108875000Y-84095000D02*
X108875000Y-95000000D01*
X110270000Y-82700000D02*
X108875000Y-84095000D01*
X111620000Y-82700000D02*
X110270000Y-82700000D01*
X73350000Y-80160000D02*
X72000000Y-80160000D01*
X74650000Y-81460000D02*
X73350000Y-80160000D01*
X74650000Y-96163202D02*
X74650000Y-81460000D01*
X108875000Y-95000000D02*
X108875000Y-97050000D01*
X86900010Y-110640000D02*
X87240000Y-110640000D01*
X85200000Y-112340010D02*
X86900010Y-110640000D01*
X96320000Y-130030000D02*
X99149970Y-127200030D01*
X96320000Y-131380000D02*
X96320000Y-130030000D01*
X99149970Y-127200030D02*
X99149970Y-118130744D01*
X99149970Y-101487032D02*
X99475001Y-101162001D01*
X98825000Y-99887998D02*
X98825000Y-79200000D01*
X99475001Y-100537999D02*
X98825000Y-99887998D01*
X99475001Y-101162001D02*
X99475001Y-100537999D01*
X99149970Y-118130744D02*
X99149970Y-101487032D01*
X89650000Y-112120000D02*
X88590000Y-113180000D01*
X88590000Y-113180000D02*
X87240000Y-113180000D01*
X89650000Y-108270000D02*
X89650000Y-112120000D01*
X85193727Y-55124518D02*
X84800010Y-55518235D01*
X85193727Y-54558833D02*
X85193727Y-55124518D01*
X84800010Y-55518235D02*
X84800010Y-55875000D01*
X84800010Y-55875000D02*
X84800010Y-67175000D01*
X85075000Y-67449990D02*
X85075000Y-75100000D01*
X84800010Y-67175000D02*
X85075000Y-67449990D01*
X83700000Y-114792012D02*
X84627988Y-115720000D01*
X85890000Y-115720000D02*
X87240000Y-115720000D01*
X84627988Y-115720000D02*
X85890000Y-115720000D01*
X83700000Y-102180010D02*
X83700000Y-114792012D01*
X101400000Y-130030000D02*
X100450010Y-129080010D01*
X101400000Y-131380000D02*
X101400000Y-130030000D01*
X100450010Y-129080010D02*
X100450010Y-128884623D01*
X100450010Y-128884623D02*
X100450010Y-112074990D01*
X100450010Y-106380724D02*
X100755735Y-106075000D01*
X100450010Y-112074990D02*
X100450010Y-106380724D01*
X100755735Y-106075000D02*
X101705736Y-105125000D01*
X101705736Y-105125000D02*
X101749980Y-105080756D01*
X101749980Y-105080756D02*
X101749980Y-96075000D01*
X101749980Y-96075000D02*
X101749980Y-76934612D01*
X101749980Y-76934612D02*
X100575000Y-75759632D01*
X100575000Y-74075001D02*
X100424999Y-73925000D01*
X100575000Y-75759632D02*
X100575000Y-74075001D01*
X76950001Y-62730001D02*
X76950001Y-118249999D01*
X74620000Y-60400000D02*
X76950001Y-62730001D01*
X76950001Y-118249999D02*
X76925000Y-118275000D01*
X74620000Y-59050000D02*
X74620000Y-60400000D01*
X84475000Y-69800000D02*
X84275000Y-70000000D01*
X84475000Y-53900000D02*
X84475000Y-69800000D01*
X116700000Y-112400000D02*
X118460000Y-112400000D01*
X115750060Y-120079940D02*
X115750060Y-113349940D01*
X112970000Y-122860000D02*
X115750060Y-120079940D01*
X115750060Y-113349940D02*
X116700000Y-112400000D01*
X111620000Y-122860000D02*
X112970000Y-122860000D01*
X115425050Y-110799950D02*
X116365000Y-109860000D01*
X115425050Y-117864950D02*
X115425050Y-110799950D01*
X116365000Y-109860000D02*
X118460000Y-109860000D01*
X112970000Y-120320000D02*
X115425050Y-117864950D01*
X111620000Y-120320000D02*
X112970000Y-120320000D01*
X112970000Y-117780000D02*
X115100040Y-115649960D01*
X111620000Y-117780000D02*
X112970000Y-117780000D01*
X115100040Y-115649960D02*
X115100040Y-108474960D01*
X116255000Y-107320000D02*
X118460000Y-107320000D01*
X115100040Y-108474960D02*
X116255000Y-107320000D01*
X115570000Y-104780000D02*
X118460000Y-104780000D01*
X114775030Y-105574970D02*
X115570000Y-104780000D01*
X114775030Y-113434970D02*
X114775030Y-105574970D01*
X112970000Y-115240000D02*
X114775030Y-113434970D01*
X111620000Y-115240000D02*
X112970000Y-115240000D01*
X115460000Y-102240000D02*
X118460000Y-102240000D01*
X114450030Y-104978869D02*
X114450030Y-103249970D01*
X114450030Y-103249970D02*
X115460000Y-102240000D01*
X114450020Y-111219980D02*
X114450020Y-104978879D01*
X114450020Y-104978879D02*
X114450030Y-104978869D01*
X112970000Y-112700000D02*
X114450020Y-111219980D01*
X111620000Y-112700000D02*
X112970000Y-112700000D01*
X112970000Y-110160000D02*
X114125010Y-109004990D01*
X111620000Y-110160000D02*
X112970000Y-110160000D01*
X114125010Y-104844256D02*
X114125020Y-104844246D01*
X114125010Y-109004990D02*
X114125010Y-104844256D01*
X114125020Y-104844246D02*
X114125020Y-100674980D01*
X115100000Y-99700000D02*
X118460000Y-99700000D01*
X114125020Y-100674980D02*
X115100000Y-99700000D01*
X112970000Y-107620000D02*
X113800000Y-106790000D01*
X111620000Y-107620000D02*
X112970000Y-107620000D01*
X113800000Y-104709633D02*
X113800010Y-104709623D01*
X113800000Y-106790000D02*
X113800000Y-104709633D01*
X113800010Y-104709623D02*
X113800010Y-98074990D01*
X114715000Y-97160000D02*
X118460000Y-97160000D01*
X113800010Y-98074990D02*
X114715000Y-97160000D01*
X112970000Y-105080000D02*
X113475000Y-104575000D01*
X111620000Y-105080000D02*
X112970000Y-105080000D01*
X113475000Y-104575000D02*
X113475000Y-95700000D01*
X114555000Y-94620000D02*
X118460000Y-94620000D01*
X113475000Y-95700000D02*
X114555000Y-94620000D01*
X91240000Y-132730000D02*
X89900000Y-134070000D01*
X91240000Y-131380000D02*
X91240000Y-132730000D01*
X90290000Y-145380000D02*
X91240000Y-145380000D01*
X89900000Y-144990000D02*
X90290000Y-145380000D01*
X89900000Y-134070000D02*
X89900000Y-144990000D01*
X78550000Y-49075000D02*
X79549990Y-48075010D01*
X78750000Y-59050000D02*
X78550000Y-58850000D01*
X78550000Y-58850000D02*
X78550000Y-49125000D01*
X78550000Y-49125000D02*
X78550000Y-49075000D01*
X81775000Y-48075010D02*
X115025376Y-48075010D01*
X79549990Y-48075010D02*
X81775000Y-48075010D01*
X115025376Y-48075010D02*
X117275376Y-50325011D01*
X79700000Y-59050000D02*
X78750000Y-59050000D01*
X122925011Y-50325011D02*
X123725000Y-51125000D01*
X117275376Y-50325011D02*
X122925011Y-50325011D01*
X119715000Y-78125000D02*
X118460000Y-79380000D01*
X71550000Y-47750000D02*
X115159998Y-47750000D01*
X122900000Y-78125000D02*
X119715000Y-78125000D01*
X123637003Y-50000001D02*
X124450001Y-50812999D01*
X124450001Y-76574999D02*
X122900000Y-78125000D01*
X117409999Y-50000001D02*
X123637003Y-50000001D01*
X115159998Y-47750000D02*
X117409999Y-50000001D01*
X124450001Y-50812999D02*
X124450001Y-76574999D01*
X71130000Y-59050000D02*
X70850000Y-58770000D01*
X70850000Y-58770000D02*
X70850000Y-48450000D01*
X70850000Y-48450000D02*
X71550000Y-47750000D01*
X72080000Y-59050000D02*
X71130000Y-59050000D01*
X112970000Y-75080000D02*
X113625000Y-74425000D01*
X111620000Y-75080000D02*
X112970000Y-75080000D01*
X113625000Y-74425000D02*
X113625000Y-49725000D01*
X113625000Y-49725000D02*
X113125000Y-49225000D01*
X107335000Y-49225000D02*
X106480000Y-50080000D01*
X106480000Y-50080000D02*
X106480000Y-51430000D01*
X113125000Y-49225000D02*
X107335000Y-49225000D01*
X115649980Y-74029980D02*
X118460000Y-76840000D01*
X114583376Y-61718019D02*
X115649980Y-62784623D01*
X115649980Y-62784623D02*
X115649980Y-74029980D01*
X114583376Y-60700010D02*
X114583376Y-61718019D01*
X103940000Y-52780000D02*
X103950000Y-52790000D01*
X103940000Y-51430000D02*
X103940000Y-52780000D01*
X103950000Y-52790000D02*
X103950000Y-56525000D01*
X115974990Y-71814990D02*
X118460000Y-74300000D01*
X115561622Y-62211622D02*
X115974990Y-62624990D01*
X115974990Y-62624990D02*
X115974990Y-71814990D01*
X115536612Y-62211622D02*
X115561622Y-62211622D01*
X115536612Y-61050020D02*
X115536612Y-62211622D01*
X116300000Y-69600000D02*
X118460000Y-71760000D01*
X116300000Y-61725000D02*
X116300000Y-69600000D01*
X113950010Y-85030010D02*
X118460000Y-89540000D01*
X113950010Y-63265695D02*
X113950010Y-85030010D01*
X114275000Y-62940705D02*
X113950010Y-63265695D01*
X114275000Y-62375020D02*
X114275000Y-62940705D01*
X117515685Y-63125000D02*
X117765685Y-62875000D01*
X116950000Y-63125000D02*
X117515685Y-63125000D01*
X117765685Y-62875000D02*
X119300000Y-62875000D01*
X119300000Y-62875000D02*
X119725000Y-63300000D01*
X119725000Y-65415000D02*
X118460000Y-66680000D01*
X119725000Y-63300000D02*
X119725000Y-65415000D01*
X123600000Y-122620000D02*
X121000000Y-120020000D01*
X123600000Y-128750000D02*
X123600000Y-122620000D01*
D23*
X58874990Y-89595010D02*
X61550000Y-86920000D01*
X58874990Y-139624990D02*
X58874990Y-89595010D01*
X63540000Y-142000000D02*
X61250000Y-142000000D01*
X61250000Y-142000000D02*
X58874990Y-139624990D01*
X65540000Y-144000000D02*
X63540000Y-142000000D01*
X59850000Y-109780000D02*
X61550000Y-108080000D01*
X59850000Y-136550000D02*
X59850000Y-109780000D01*
X61300000Y-138000000D02*
X59850000Y-136550000D01*
X63540000Y-138000000D02*
X61300000Y-138000000D01*
X65540000Y-140000000D02*
X63540000Y-138000000D01*
M02*
