G04 #@! TF.GenerationSoftware,KiCad,Pcbnew,(5.1.5-0-10_14)*
G04 #@! TF.CreationDate,2021-10-20T20:55:26+01:00*
G04 #@! TF.ProjectId,mc68681-basic,6d633638-3638-4312-9d62-617369632e6b,rev?*
G04 #@! TF.SameCoordinates,Original*
G04 #@! TF.FileFunction,Copper,L1,Top*
G04 #@! TF.FilePolarity,Positive*
%FSLAX46Y46*%
G04 Gerber Fmt 4.6, Leading zero omitted, Abs format (unit mm)*
G04 Created by KiCad (PCBNEW (5.1.5-0-10_14)) date 2021-10-20 20:55:26*
%MOMM*%
%LPD*%
G04 APERTURE LIST*
%ADD10C,1.600000*%
%ADD11O,1.600000X2.400000*%
%ADD12R,1.600000X2.400000*%
%ADD13C,1.500000*%
%ADD14O,1.700000X1.700000*%
%ADD15R,1.700000X1.700000*%
%ADD16O,1.600000X1.600000*%
%ADD17C,1.422400*%
%ADD18R,1.422400X1.422400*%
%ADD19C,1.600200*%
%ADD20O,2.400000X1.600000*%
%ADD21R,2.400000X1.600000*%
%ADD22R,1.600000X1.600000*%
%ADD23C,0.800000*%
%ADD24C,0.400000*%
%ADD25C,0.150000*%
%ADD26C,0.800000*%
G04 APERTURE END LIST*
D10*
X97350000Y-114340000D03*
X92350000Y-114340000D03*
X77160000Y-114360000D03*
X72160000Y-114360000D03*
D11*
X88700000Y-51430000D03*
X111560000Y-59050000D03*
X91240000Y-51430000D03*
X109020000Y-59050000D03*
X93780000Y-51430000D03*
X106480000Y-59050000D03*
X96320000Y-51430000D03*
X103940000Y-59050000D03*
X98860000Y-51430000D03*
X101400000Y-59050000D03*
X101400000Y-51430000D03*
X98860000Y-59050000D03*
X103940000Y-51430000D03*
X96320000Y-59050000D03*
X106480000Y-51430000D03*
X93780000Y-59050000D03*
X109020000Y-51430000D03*
X91240000Y-59050000D03*
X111560000Y-51430000D03*
D12*
X88700000Y-59050000D03*
D13*
X87150000Y-114340000D03*
X82270000Y-114340000D03*
D14*
X65360000Y-146890000D03*
X62820000Y-146890000D03*
X65360000Y-144350000D03*
X62820000Y-144350000D03*
X65360000Y-141810000D03*
X62820000Y-141810000D03*
X65360000Y-139270000D03*
X62820000Y-139270000D03*
X65360000Y-136730000D03*
D15*
X62820000Y-136730000D03*
D16*
X89800000Y-122120000D03*
D10*
X79640000Y-122120000D03*
D17*
X93610000Y-87156350D03*
X93610000Y-89696350D03*
X93610000Y-92236350D03*
X93610000Y-94776350D03*
X93610000Y-97316350D03*
X91070000Y-84616350D03*
X91070000Y-89696350D03*
X91070000Y-92236350D03*
X91070000Y-94776350D03*
X91070000Y-97316350D03*
X91070000Y-99856350D03*
X91070000Y-102396350D03*
X88530000Y-102396350D03*
X85990000Y-102396350D03*
X83450000Y-102396350D03*
X80910000Y-102396350D03*
X78370000Y-102396350D03*
X93610000Y-99856350D03*
X88530000Y-99856350D03*
X85990000Y-99856350D03*
X83450000Y-99856350D03*
X80910000Y-99856350D03*
X78370000Y-99856350D03*
X75830000Y-99856350D03*
X75830000Y-97316350D03*
X75830000Y-94776350D03*
X75830000Y-92236350D03*
X75830000Y-89696350D03*
X75830000Y-87156350D03*
X78370000Y-97316350D03*
X78370000Y-94776350D03*
X78370000Y-92236350D03*
X78370000Y-89696350D03*
X78370000Y-87156350D03*
X88530000Y-84616350D03*
X85990000Y-84616350D03*
X78370000Y-84616350D03*
X80910000Y-84616350D03*
X83450000Y-84616350D03*
X91070000Y-87156350D03*
X88530000Y-87156350D03*
X80910000Y-87156350D03*
X83450000Y-87156350D03*
D18*
X85990000Y-87156350D03*
D11*
X88700000Y-131380000D03*
X111560000Y-139000000D03*
X91240000Y-131380000D03*
X109020000Y-139000000D03*
X93780000Y-131380000D03*
X106480000Y-139000000D03*
X96320000Y-131380000D03*
X103940000Y-139000000D03*
X98860000Y-131380000D03*
X101400000Y-139000000D03*
X101400000Y-131380000D03*
X98860000Y-139000000D03*
X103940000Y-131380000D03*
X96320000Y-139000000D03*
X106480000Y-131380000D03*
X93780000Y-139000000D03*
X109020000Y-131380000D03*
X91240000Y-139000000D03*
X111560000Y-131380000D03*
D12*
X88700000Y-139000000D03*
D19*
X93235800Y-75355000D03*
X95775800Y-75355000D03*
X67100000Y-108080000D03*
X67100000Y-110620000D03*
X83450000Y-75355000D03*
X85990000Y-75355000D03*
X103644200Y-126450000D03*
X106184200Y-126450000D03*
X83500000Y-145044200D03*
X83500000Y-147584200D03*
X83500000Y-136815800D03*
X83500000Y-139355800D03*
X67100000Y-86920000D03*
X67100000Y-89460000D03*
X73664200Y-75280000D03*
X76204200Y-75280000D03*
X105904200Y-64175000D03*
X103364200Y-64175000D03*
X71060000Y-64175000D03*
X73600000Y-64175000D03*
X87212100Y-64175000D03*
X89752100Y-64175000D03*
D16*
X78025000Y-137015000D03*
D10*
X78025000Y-147175000D03*
D14*
X61550000Y-115700000D03*
X61550000Y-113160000D03*
X61550000Y-110620000D03*
X61550000Y-108080000D03*
X61550000Y-105540000D03*
D15*
X61550000Y-103000000D03*
D14*
X61550000Y-94540000D03*
X61550000Y-92000000D03*
X61550000Y-89460000D03*
X61550000Y-86920000D03*
X61550000Y-84380000D03*
D15*
X61550000Y-81840000D03*
D14*
X121000000Y-153380000D03*
X118460000Y-153380000D03*
X121000000Y-150840000D03*
X118460000Y-150840000D03*
X121000000Y-148300000D03*
X118460000Y-148300000D03*
X121000000Y-145760000D03*
X118460000Y-145760000D03*
X121000000Y-143220000D03*
X118460000Y-143220000D03*
X121000000Y-140680000D03*
X118460000Y-140680000D03*
X121000000Y-138140000D03*
X118460000Y-138140000D03*
X121000000Y-135600000D03*
D15*
X118460000Y-135600000D03*
D14*
X121000000Y-127640000D03*
X118460000Y-127640000D03*
X121000000Y-125100000D03*
X118460000Y-125100000D03*
X121000000Y-122560000D03*
X118460000Y-122560000D03*
X121000000Y-120020000D03*
X118460000Y-120020000D03*
X121000000Y-117480000D03*
X118460000Y-117480000D03*
X121000000Y-114940000D03*
X118460000Y-114940000D03*
X121000000Y-112400000D03*
X118460000Y-112400000D03*
X121000000Y-109860000D03*
X118460000Y-109860000D03*
X121000000Y-107320000D03*
X118460000Y-107320000D03*
X121000000Y-104780000D03*
X118460000Y-104780000D03*
X121000000Y-102240000D03*
X118460000Y-102240000D03*
X121000000Y-99700000D03*
X118460000Y-99700000D03*
X121000000Y-97160000D03*
X118460000Y-97160000D03*
X121000000Y-94620000D03*
X118460000Y-94620000D03*
X121000000Y-92080000D03*
X118460000Y-92080000D03*
X121000000Y-89540000D03*
X118460000Y-89540000D03*
X121000000Y-87000000D03*
X118460000Y-87000000D03*
X121000000Y-84460000D03*
X118460000Y-84460000D03*
X121000000Y-81920000D03*
X118460000Y-81920000D03*
X121000000Y-79380000D03*
X118460000Y-79380000D03*
X121000000Y-76840000D03*
X118460000Y-76840000D03*
X121000000Y-74300000D03*
X118460000Y-74300000D03*
X121000000Y-71760000D03*
X118460000Y-71760000D03*
X121000000Y-69220000D03*
X118460000Y-69220000D03*
X121000000Y-66680000D03*
X118460000Y-66680000D03*
X121000000Y-64140000D03*
X118460000Y-64140000D03*
X121000000Y-61600000D03*
X118460000Y-61600000D03*
X121000000Y-59060000D03*
X118460000Y-59060000D03*
X121000000Y-56520000D03*
X118460000Y-56520000D03*
X121000000Y-53980000D03*
X118460000Y-53980000D03*
X121000000Y-51440000D03*
X118460000Y-51440000D03*
X121000000Y-48900000D03*
D15*
X118460000Y-48900000D03*
D20*
X111620000Y-70000000D03*
X104000000Y-92860000D03*
X111620000Y-72540000D03*
X104000000Y-90320000D03*
X111620000Y-75080000D03*
X104000000Y-87780000D03*
X111620000Y-77620000D03*
X104000000Y-85240000D03*
X111620000Y-80160000D03*
X104000000Y-82700000D03*
X111620000Y-82700000D03*
X104000000Y-80160000D03*
X111620000Y-85240000D03*
X104000000Y-77620000D03*
X111620000Y-87780000D03*
X104000000Y-75080000D03*
X111620000Y-90320000D03*
X104000000Y-72540000D03*
X111620000Y-92860000D03*
D21*
X104000000Y-70000000D03*
D11*
X67000000Y-51430000D03*
X82240000Y-59050000D03*
X69540000Y-51430000D03*
X79700000Y-59050000D03*
X72080000Y-51430000D03*
X77160000Y-59050000D03*
X74620000Y-51430000D03*
X74620000Y-59050000D03*
X77160000Y-51430000D03*
X72080000Y-59050000D03*
X79700000Y-51430000D03*
X69540000Y-59050000D03*
X82240000Y-51430000D03*
D12*
X67000000Y-59050000D03*
D11*
X88700000Y-145380000D03*
X111560000Y-153000000D03*
X91240000Y-145380000D03*
X109020000Y-153000000D03*
X93780000Y-145380000D03*
X106480000Y-153000000D03*
X96320000Y-145380000D03*
X103940000Y-153000000D03*
X98860000Y-145380000D03*
X101400000Y-153000000D03*
X101400000Y-145380000D03*
X98860000Y-153000000D03*
X103940000Y-145380000D03*
X96320000Y-153000000D03*
X106480000Y-145380000D03*
X93780000Y-153000000D03*
X109020000Y-145380000D03*
X91240000Y-153000000D03*
X111560000Y-145380000D03*
D12*
X88700000Y-153000000D03*
D20*
X111620000Y-100000000D03*
X104000000Y-122860000D03*
X111620000Y-102540000D03*
X104000000Y-120320000D03*
X111620000Y-105080000D03*
X104000000Y-117780000D03*
X111620000Y-107620000D03*
X104000000Y-115240000D03*
X111620000Y-110160000D03*
X104000000Y-112700000D03*
X111620000Y-112700000D03*
X104000000Y-110160000D03*
X111620000Y-115240000D03*
X104000000Y-107620000D03*
X111620000Y-117780000D03*
X104000000Y-105080000D03*
X111620000Y-120320000D03*
X104000000Y-102540000D03*
X111620000Y-122860000D03*
D21*
X104000000Y-100000000D03*
D10*
X65592621Y-127000000D03*
D22*
X63092621Y-127000000D03*
D10*
X65592621Y-71000000D03*
D22*
X63092621Y-71000000D03*
D23*
X87170000Y-91190000D03*
X101738436Y-85905872D03*
X102410000Y-83730000D03*
X80910000Y-107620000D03*
X79470000Y-112690000D03*
X99554903Y-84926493D03*
X78390000Y-117780000D03*
X107572298Y-83022298D03*
X107550000Y-102500000D03*
X75790000Y-149590000D03*
X89700000Y-95740000D03*
X76790000Y-150325000D03*
X74290000Y-150980000D03*
X63199999Y-96970000D03*
X115975000Y-155325000D03*
X63370000Y-93250000D03*
X64500000Y-95450000D03*
X64525000Y-93225000D03*
X80875000Y-154424990D03*
X87240000Y-83040000D03*
X57210000Y-90710000D03*
X98810000Y-97340000D03*
X106000000Y-121575000D03*
X73530000Y-98460000D03*
X100747937Y-101267937D03*
X95470000Y-88767551D03*
X101750030Y-106970000D03*
X93630000Y-106970000D03*
X108222298Y-96387551D03*
X80430000Y-96460000D03*
X91080000Y-120330000D03*
X109020000Y-54875010D03*
X84190000Y-55270000D03*
X89740000Y-117070000D03*
X99460000Y-88120000D03*
X88540000Y-108270000D03*
X106480000Y-54550000D03*
X85006047Y-54625009D03*
X100320000Y-85545149D03*
X97820000Y-103960000D03*
X103930000Y-53900000D03*
X85844796Y-54127889D03*
X74584301Y-146790000D03*
X74570000Y-136730000D03*
X123800000Y-51125000D03*
X114583376Y-60700010D03*
X52560000Y-148910000D03*
X114850000Y-49890000D03*
X115536612Y-61050020D03*
X116300000Y-61725000D03*
X114275000Y-62375020D03*
X116950000Y-63125000D03*
X64170000Y-128730000D03*
X113890000Y-128810000D03*
X94920000Y-53974989D03*
X53200000Y-146860000D03*
X82310000Y-92230000D03*
D24*
X87150000Y-91210000D02*
X87170000Y-91190000D01*
X87150000Y-114340000D02*
X87150000Y-91210000D01*
D25*
X103940000Y-131380000D02*
X103940000Y-130099633D01*
X103940000Y-130099633D02*
X103940000Y-129915000D01*
X103940000Y-129915000D02*
X103225000Y-129200000D01*
X101625000Y-129200000D02*
X100775020Y-128350020D01*
X103225000Y-129200000D02*
X101625000Y-129200000D01*
X100775020Y-128350020D02*
X100775020Y-127700000D01*
X100775020Y-127700000D02*
X100775020Y-116400000D01*
X100775020Y-106515347D02*
X101690368Y-105600000D01*
X100775020Y-116400000D02*
X100775020Y-106515347D01*
X101690368Y-105600000D02*
X102074990Y-105215378D01*
X102074990Y-105215378D02*
X102074990Y-95875000D01*
X102074990Y-95875000D02*
X102074990Y-95859623D01*
X102074990Y-86242426D02*
X101738436Y-85905872D01*
X102074990Y-95875000D02*
X102074990Y-86242426D01*
X106480000Y-130980000D02*
X104225000Y-128725000D01*
X106480000Y-131380000D02*
X106480000Y-130980000D01*
X104225000Y-128725000D02*
X103025000Y-128725000D01*
X101875000Y-128725000D02*
X101100030Y-127950030D01*
X101100030Y-127950030D02*
X101100030Y-116265377D01*
X103025000Y-128725000D02*
X101875000Y-128725000D01*
X101100030Y-116265377D02*
X101100030Y-125525000D01*
X102410000Y-95715000D02*
X102400000Y-95725000D01*
X101100030Y-106649970D02*
X101100030Y-116265377D01*
X102410000Y-105340000D02*
X101100030Y-106649970D01*
X102410000Y-83730000D02*
X102410000Y-105340000D01*
X80910000Y-107620000D02*
X80910000Y-102396350D01*
X79470000Y-100956350D02*
X78370000Y-99856350D01*
X79470000Y-112690000D02*
X79470000Y-100956350D01*
X99799990Y-129090010D02*
X99799990Y-128884623D01*
X98860000Y-130030000D02*
X99799990Y-129090010D01*
X98860000Y-131380000D02*
X98860000Y-130030000D01*
X99799990Y-128884623D02*
X99799990Y-118399990D01*
X99799990Y-101296645D02*
X101424970Y-99671665D01*
X99799990Y-118399990D02*
X99799990Y-101296645D01*
X101424970Y-99671665D02*
X101424970Y-96400000D01*
X101424970Y-96400000D02*
X101424970Y-87894970D01*
X99554903Y-86024903D02*
X99554903Y-84926493D01*
X101424970Y-87894970D02*
X99554903Y-86024903D01*
X78370000Y-104320000D02*
X78370000Y-102396350D01*
X78370000Y-117760000D02*
X78390000Y-117780000D01*
X78370000Y-104320000D02*
X78370000Y-117760000D01*
X110270000Y-72540000D02*
X107572298Y-75237702D01*
X107572298Y-75237702D02*
X107572298Y-83022298D01*
X111620000Y-72540000D02*
X110270000Y-72540000D01*
X107572298Y-102477702D02*
X107550000Y-102500000D01*
X107572298Y-83022298D02*
X107572298Y-102477702D01*
X75790000Y-149380000D02*
X75790000Y-149590000D01*
X75559311Y-149149311D02*
X75790000Y-149380000D01*
X75559311Y-109333458D02*
X75559311Y-149149311D01*
X75830000Y-109062770D02*
X75559311Y-109333458D01*
X75830000Y-99856350D02*
X75830000Y-109062770D01*
X89700000Y-91066350D02*
X91070000Y-89696350D01*
X89700000Y-95740000D02*
X89700000Y-91066350D01*
X76790000Y-149627998D02*
X76790000Y-150325000D01*
X75884321Y-109468081D02*
X75884321Y-148722319D01*
X76791201Y-108561201D02*
X75884321Y-109468081D01*
X76791201Y-98895149D02*
X76791201Y-108561201D01*
X75884321Y-148722319D02*
X76790000Y-149627998D01*
X78370000Y-97316350D02*
X76791201Y-98895149D01*
X74290000Y-150192057D02*
X74290000Y-150980000D01*
X75234301Y-149247756D02*
X74290000Y-150192057D01*
X75830000Y-97316350D02*
X74560000Y-98586350D01*
X75234301Y-109374301D02*
X75234301Y-149247756D01*
X74560000Y-108700000D02*
X75234301Y-109374301D01*
X74560000Y-98586350D02*
X74560000Y-108700000D01*
X61550000Y-105540000D02*
X63199999Y-103890001D01*
X63199999Y-96970000D02*
X63199999Y-103890001D01*
X109020000Y-130030000D02*
X109020000Y-131380000D01*
X109400000Y-129650000D02*
X109020000Y-130030000D01*
X112509633Y-129650000D02*
X109400000Y-129650000D01*
X115975000Y-133115367D02*
X112509633Y-129650000D01*
X115975000Y-155325000D02*
X115975000Y-133115367D01*
X63370000Y-91280000D02*
X61550000Y-89460000D01*
X63370000Y-93250000D02*
X63370000Y-91280000D01*
X61550000Y-113160000D02*
X64500000Y-110210000D01*
X64500000Y-110210000D02*
X64500000Y-95450000D01*
X61550000Y-110620000D02*
X64174990Y-107995010D01*
X64174990Y-107995010D02*
X64174990Y-104300000D01*
X63849999Y-93900001D02*
X64525000Y-93225000D01*
X63849999Y-103975009D02*
X63849999Y-93900001D01*
X64174990Y-104300000D02*
X63849999Y-103975009D01*
X115649990Y-133249990D02*
X113780000Y-131380000D01*
X113780000Y-131380000D02*
X111560000Y-131380000D01*
X114600011Y-154824989D02*
X115649990Y-153775010D01*
X81274999Y-154824989D02*
X114600011Y-154824989D01*
X115649990Y-153775010D02*
X115649990Y-133249990D01*
X80875000Y-154424990D02*
X81274999Y-154824989D01*
X87240000Y-83040000D02*
X87240000Y-89000000D01*
X87240000Y-89000000D02*
X88400000Y-90160000D01*
X88400000Y-95652138D02*
X90064212Y-97316350D01*
X90064212Y-97316350D02*
X91070000Y-97316350D01*
X88400000Y-90160000D02*
X88400000Y-95652138D01*
X57210000Y-138740000D02*
X62820000Y-144350000D01*
X57210000Y-90710000D02*
X57210000Y-138740000D01*
X95370000Y-153000000D02*
X95050000Y-152680000D01*
X96320000Y-153000000D02*
X95370000Y-153000000D01*
X95050000Y-152680000D02*
X95050000Y-130375000D01*
X95050000Y-130375000D02*
X95050000Y-130150000D01*
X95050000Y-130150000D02*
X95050000Y-129925000D01*
X95050000Y-129925000D02*
X98824960Y-126150040D01*
X98824960Y-126150040D02*
X98824960Y-124350000D01*
X98824960Y-100850040D02*
X98825000Y-100850000D01*
X98824960Y-124350000D02*
X98824960Y-100850040D01*
X98824960Y-97354960D02*
X98810000Y-97340000D01*
X98824960Y-100850040D02*
X98824960Y-97354960D01*
X105350000Y-100000000D02*
X104000000Y-100000000D01*
X106000000Y-100650000D02*
X105350000Y-100000000D01*
X106000000Y-121575000D02*
X106000000Y-100650000D01*
X75118801Y-90407549D02*
X75830000Y-89696350D01*
X73130001Y-92396349D02*
X75118801Y-90407549D01*
X73130001Y-98060001D02*
X73130001Y-92396349D01*
X73530000Y-98460000D02*
X73130001Y-98060001D01*
X100450000Y-153000000D02*
X101400000Y-153000000D01*
X100125000Y-152675000D02*
X100450000Y-153000000D01*
X100125000Y-104400000D02*
X100125000Y-152675000D01*
X100125000Y-104400000D02*
X100125000Y-104124990D01*
X100125000Y-101890874D02*
X100747937Y-101267937D01*
X100125000Y-104124990D02*
X100125000Y-101890874D01*
X93780000Y-131380000D02*
X93780000Y-130030000D01*
X93780000Y-130030000D02*
X93780000Y-129870000D01*
X93780000Y-129870000D02*
X93780000Y-129820000D01*
X93780000Y-129820000D02*
X97300000Y-126300000D01*
X97300000Y-126300000D02*
X98499950Y-125100050D01*
X98499950Y-109389950D02*
X95390000Y-106280000D01*
X98499950Y-125100050D02*
X98499950Y-109389950D01*
X95390000Y-88847551D02*
X95470000Y-88767551D01*
X95390000Y-106280000D02*
X95390000Y-88847551D01*
X107430000Y-153000000D02*
X107775000Y-152655000D01*
X106749990Y-128399990D02*
X102009622Y-128399990D01*
X102009622Y-128399990D02*
X101425040Y-127815408D01*
X107775000Y-152655000D02*
X107775000Y-129425000D01*
X107775000Y-129425000D02*
X106749990Y-128399990D01*
X106480000Y-153000000D02*
X107430000Y-153000000D01*
X101425040Y-127815408D02*
X101425040Y-107299960D01*
X101425040Y-107294990D02*
X101750030Y-106970000D01*
X101425040Y-107299960D02*
X101425040Y-107294990D01*
X93630000Y-99876350D02*
X93610000Y-99856350D01*
X93630000Y-106970000D02*
X93630000Y-99876350D01*
X111220000Y-80160000D02*
X108225000Y-83155000D01*
X111620000Y-80160000D02*
X111220000Y-80160000D01*
X108225000Y-83155000D02*
X108225000Y-95947298D01*
X108225000Y-95947298D02*
X108222298Y-95950000D01*
X108225000Y-96384849D02*
X108222298Y-96387551D01*
X108225000Y-95947298D02*
X108225000Y-96384849D01*
X80430000Y-96460000D02*
X80430000Y-89810000D01*
X80430000Y-89810000D02*
X78960000Y-88340000D01*
X77013650Y-88340000D02*
X75830000Y-87156350D01*
X78960000Y-88340000D02*
X77013650Y-88340000D01*
X91080000Y-102406350D02*
X91070000Y-102396350D01*
X91080000Y-120330000D02*
X91080000Y-102406350D01*
X109020000Y-54875010D02*
X109020000Y-59050000D01*
X83790001Y-55669999D02*
X83790001Y-70489999D01*
X84190000Y-55270000D02*
X83790001Y-55669999D01*
X78370000Y-75910000D02*
X78370000Y-84616350D01*
X83790001Y-70489999D02*
X78370000Y-75910000D01*
X89740000Y-101066350D02*
X88530000Y-99856350D01*
X89740000Y-117070000D02*
X89740000Y-101066350D01*
X96320000Y-130030000D02*
X99149970Y-127200030D01*
X96320000Y-131380000D02*
X96320000Y-130030000D01*
X99149970Y-127200030D02*
X99149970Y-118130744D01*
X99149970Y-101487032D02*
X99475001Y-101162001D01*
X99475001Y-101162001D02*
X99475001Y-100537999D01*
X99149970Y-118130744D02*
X99149970Y-101487032D01*
X99475001Y-88205001D02*
X99380000Y-88110000D01*
X99475001Y-100537999D02*
X99475001Y-88205001D01*
X88540000Y-102406350D02*
X88530000Y-102396350D01*
X88540000Y-108270000D02*
X88540000Y-102406350D01*
X106480000Y-54550000D02*
X106480000Y-59050000D01*
X85006047Y-54625009D02*
X85006047Y-71743953D01*
X80910000Y-75840000D02*
X80910000Y-84616350D01*
X85006047Y-71743953D02*
X80910000Y-75840000D01*
X101400000Y-130030000D02*
X100450010Y-129080010D01*
X101400000Y-131380000D02*
X101400000Y-130030000D01*
X100450010Y-129080010D02*
X100450010Y-128884623D01*
X100450010Y-128884623D02*
X100450010Y-112074990D01*
X100450010Y-106380724D02*
X100755735Y-106075000D01*
X100450010Y-112074990D02*
X100450010Y-106380724D01*
X100755735Y-106075000D02*
X101705736Y-105125000D01*
X101705736Y-105125000D02*
X101749980Y-105080756D01*
X101749980Y-105080756D02*
X101749980Y-96075000D01*
X101749980Y-96075000D02*
X101749980Y-96009623D01*
X101749980Y-96009623D02*
X101749980Y-88050000D01*
X101749980Y-86975129D02*
X100320000Y-85545149D01*
X101749980Y-88050000D02*
X101749980Y-86975129D01*
X101400000Y-60400000D02*
X101400000Y-59050000D01*
X97809990Y-63990010D02*
X101400000Y-60400000D01*
X97809990Y-103949990D02*
X97809990Y-63990010D01*
X97820000Y-103960000D02*
X97809990Y-103949990D01*
X85990000Y-118310000D02*
X89800000Y-122120000D01*
X85990000Y-102396350D02*
X85990000Y-118310000D01*
X104600000Y-58390000D02*
X103940000Y-59050000D01*
X103930000Y-59040000D02*
X103940000Y-59050000D01*
X103930000Y-53900000D02*
X103930000Y-59040000D01*
X84161199Y-83905151D02*
X83450000Y-84616350D01*
X84710000Y-83356350D02*
X84161199Y-83905151D01*
X84710000Y-74370000D02*
X84710000Y-83356350D01*
X85844796Y-73235204D02*
X84710000Y-74370000D01*
X85844796Y-54127889D02*
X85844796Y-73235204D01*
X116700000Y-112400000D02*
X118460000Y-112400000D01*
X115750060Y-120079940D02*
X115750060Y-113349940D01*
X112970000Y-122860000D02*
X115750060Y-120079940D01*
X115750060Y-113349940D02*
X116700000Y-112400000D01*
X111620000Y-122860000D02*
X112970000Y-122860000D01*
X115425050Y-110799950D02*
X116365000Y-109860000D01*
X115425050Y-117864950D02*
X115425050Y-110799950D01*
X116365000Y-109860000D02*
X118460000Y-109860000D01*
X112970000Y-120320000D02*
X115425050Y-117864950D01*
X111620000Y-120320000D02*
X112970000Y-120320000D01*
X112970000Y-117780000D02*
X115100040Y-115649960D01*
X111620000Y-117780000D02*
X112970000Y-117780000D01*
X115100040Y-115649960D02*
X115100040Y-108474960D01*
X116255000Y-107320000D02*
X118460000Y-107320000D01*
X115100040Y-108474960D02*
X116255000Y-107320000D01*
X115570000Y-104780000D02*
X118460000Y-104780000D01*
X114775030Y-105574970D02*
X115570000Y-104780000D01*
X114775030Y-113434970D02*
X114775030Y-105574970D01*
X112970000Y-115240000D02*
X114775030Y-113434970D01*
X111620000Y-115240000D02*
X112970000Y-115240000D01*
X115460000Y-102240000D02*
X118460000Y-102240000D01*
X114450030Y-104978869D02*
X114450030Y-103249970D01*
X114450030Y-103249970D02*
X115460000Y-102240000D01*
X114450020Y-111219980D02*
X114450020Y-104978879D01*
X114450020Y-104978879D02*
X114450030Y-104978869D01*
X112970000Y-112700000D02*
X114450020Y-111219980D01*
X111620000Y-112700000D02*
X112970000Y-112700000D01*
X112970000Y-110160000D02*
X114125010Y-109004990D01*
X111620000Y-110160000D02*
X112970000Y-110160000D01*
X114125010Y-104844256D02*
X114125020Y-104844246D01*
X114125010Y-109004990D02*
X114125010Y-104844256D01*
X114125020Y-104844246D02*
X114125020Y-100674980D01*
X115100000Y-99700000D02*
X118460000Y-99700000D01*
X114125020Y-100674980D02*
X115100000Y-99700000D01*
X112970000Y-107620000D02*
X113800000Y-106790000D01*
X111620000Y-107620000D02*
X112970000Y-107620000D01*
X113800000Y-104709633D02*
X113800010Y-104709623D01*
X113800000Y-106790000D02*
X113800000Y-104709633D01*
X113800010Y-104709623D02*
X113800010Y-98074990D01*
X114715000Y-97160000D02*
X118460000Y-97160000D01*
X113800010Y-98074990D02*
X114715000Y-97160000D01*
X112970000Y-105080000D02*
X113475000Y-104575000D01*
X111620000Y-105080000D02*
X112970000Y-105080000D01*
X113475000Y-104575000D02*
X113475000Y-95700000D01*
X114555000Y-94620000D02*
X118460000Y-94620000D01*
X113475000Y-95700000D02*
X114555000Y-94620000D01*
X91240000Y-132730000D02*
X89900000Y-134070000D01*
X91240000Y-131380000D02*
X91240000Y-132730000D01*
X90290000Y-145380000D02*
X91240000Y-145380000D01*
X89900000Y-144990000D02*
X90290000Y-145380000D01*
X89900000Y-134070000D02*
X89900000Y-144990000D01*
X74584301Y-136744301D02*
X74570000Y-136730000D01*
X74584301Y-146790000D02*
X74584301Y-136744301D01*
X78550000Y-49075000D02*
X79549990Y-48075010D01*
X78750000Y-59050000D02*
X78550000Y-58850000D01*
X78550000Y-58850000D02*
X78550000Y-49125000D01*
X78550000Y-49125000D02*
X78550000Y-49075000D01*
X81775000Y-48075010D02*
X115025376Y-48075010D01*
X79549990Y-48075010D02*
X81775000Y-48075010D01*
X115025376Y-48075010D02*
X117275376Y-50325011D01*
X79700000Y-59050000D02*
X78750000Y-59050000D01*
X122925011Y-50325011D02*
X123725000Y-51125000D01*
X117275376Y-50325011D02*
X122925011Y-50325011D01*
X119715000Y-78125000D02*
X118460000Y-79380000D01*
X71550000Y-47750000D02*
X115159998Y-47750000D01*
X122900000Y-78125000D02*
X119715000Y-78125000D01*
X123637003Y-50000001D02*
X124450001Y-50812999D01*
X124450001Y-76574999D02*
X122900000Y-78125000D01*
X117409999Y-50000001D02*
X123637003Y-50000001D01*
X115159998Y-47750000D02*
X117409999Y-50000001D01*
X124450001Y-50812999D02*
X124450001Y-76574999D01*
X71130000Y-59050000D02*
X70850000Y-58770000D01*
X70850000Y-58770000D02*
X70850000Y-48450000D01*
X70850000Y-48450000D02*
X71550000Y-47750000D01*
X72080000Y-59050000D02*
X71130000Y-59050000D01*
X112970000Y-75080000D02*
X113625000Y-74425000D01*
X111620000Y-75080000D02*
X112970000Y-75080000D01*
X113625000Y-74425000D02*
X113625000Y-49725000D01*
X113625000Y-49725000D02*
X113125000Y-49225000D01*
X107335000Y-49225000D02*
X106480000Y-50080000D01*
X106480000Y-50080000D02*
X106480000Y-51430000D01*
X113125000Y-49225000D02*
X107335000Y-49225000D01*
X115649980Y-74029980D02*
X118460000Y-76840000D01*
X114583376Y-61718019D02*
X115649980Y-62784623D01*
X115649980Y-62784623D02*
X115649980Y-74029980D01*
X114583376Y-60700010D02*
X114583376Y-61718019D01*
X63340000Y-148910000D02*
X52560000Y-148910000D01*
X65360000Y-146890000D02*
X63340000Y-148910000D01*
X114850000Y-52910000D02*
X118460000Y-56520000D01*
X114850000Y-49890000D02*
X114850000Y-52910000D01*
X115974990Y-71814990D02*
X118460000Y-74300000D01*
X115561622Y-62211622D02*
X115974990Y-62624990D01*
X115974990Y-62624990D02*
X115974990Y-71814990D01*
X115536612Y-62211622D02*
X115561622Y-62211622D01*
X115536612Y-61050020D02*
X115536612Y-62211622D01*
X116300000Y-69600000D02*
X118460000Y-71760000D01*
X116300000Y-61725000D02*
X116300000Y-69600000D01*
X113950010Y-85030010D02*
X118460000Y-89540000D01*
X113950010Y-63265695D02*
X113950010Y-85030010D01*
X114275000Y-62940705D02*
X113950010Y-63265695D01*
X114275000Y-62375020D02*
X114275000Y-62940705D01*
X117515685Y-63125000D02*
X117765685Y-62875000D01*
X116950000Y-63125000D02*
X117515685Y-63125000D01*
X117765685Y-62875000D02*
X119300000Y-62875000D01*
X119300000Y-62875000D02*
X119725000Y-63300000D01*
X119725000Y-65415000D02*
X118460000Y-66680000D01*
X119725000Y-63300000D02*
X119725000Y-65415000D01*
X64170000Y-143160000D02*
X65360000Y-144350000D01*
X64170000Y-128730000D02*
X64170000Y-143160000D01*
X121000000Y-120020000D02*
X119710000Y-121310000D01*
X119710000Y-121310000D02*
X116890000Y-121310000D01*
X113890000Y-124310000D02*
X113890000Y-128810000D01*
X116890000Y-121310000D02*
X113890000Y-124310000D01*
D26*
X58874990Y-89595010D02*
X61550000Y-86920000D01*
X58874990Y-137864990D02*
X62820000Y-141810000D01*
X58874990Y-89595010D02*
X58874990Y-137864990D01*
X59850000Y-109780000D02*
X61550000Y-108080000D01*
X59850000Y-136300000D02*
X62820000Y-139270000D01*
X59850000Y-109780000D02*
X59850000Y-136300000D01*
D25*
X91070000Y-87156350D02*
X94450000Y-83776350D01*
X94450000Y-83776350D02*
X94450000Y-63590000D01*
X94920000Y-63120000D02*
X94920000Y-53974989D01*
X94450000Y-63590000D02*
X94920000Y-63120000D01*
X103940000Y-52780000D02*
X103950000Y-52790000D01*
X103940000Y-51430000D02*
X103940000Y-52780000D01*
X62790000Y-146860000D02*
X62820000Y-146890000D01*
X53200000Y-146860000D02*
X62790000Y-146860000D01*
D24*
X82270000Y-92270000D02*
X82310000Y-92230000D01*
X82270000Y-114340000D02*
X82270000Y-92270000D01*
M02*
