M48
; DRILL file {KiCad (5.1.5-0-10_14)} date Wednesday, 16 September 2020 at 12:26:39
; FORMAT={-:-/ absolute / inch / decimal}
; #@! TF.CreationDate,2020-09-16T12:26:39+01:00
; #@! TF.GenerationSoftware,Kicad,Pcbnew,(5.1.5-0-10_14)
; #@! TF.FileFunction,Plated,1,4,PTH
FMAT,2
INCH
T1C0.0157
T2C0.0315
T3C0.0320
T4C0.0394
%
G90
G05
T1
X2.4882Y-3.8563
X2.5394Y-3.7579
X2.5404Y-3.6703
X2.8976Y-4.3094
X2.9134Y-3.815
X2.9232Y-4.4852
X2.939Y-3.786
X2.9492Y-5.8771
X2.962Y-5.9138
X2.9862Y-5.9439
X3.003Y-4.5561
X3.0039Y-4.002
X3.0285Y-4.6565
X3.0994Y-3.4557
X3.0994Y-3.9065
X3.1841Y-6.0797
X3.1909Y-3.3012
X3.1909Y-3.8563
X3.2953Y-4.0228
X3.3012Y-3.4055
X3.3179Y-2.7559
X3.3258Y-2.122
X3.3366Y-4.5228
X3.3494Y-2.9567
X3.3541Y-2.148
X3.3543Y-4.4228
X3.5295Y-4.2626
X3.8632Y-3.4311
X3.8907Y-3.1181
X3.8907Y-3.9705
X3.9222Y-3.3799
X3.9252Y-3.814
X3.9537Y-2.9104
X3.9547Y-4.0866
X3.9803Y-3.1555
X3.9813Y-2.8573
X4.0049Y-2.9557
X4.0335Y-4.185
X4.0925Y-2.2254
X4.1732Y-4.7864
X4.2343Y-4.0354
X4.2351Y-3.2686
X4.2607Y-3.8524
X4.2864Y-3.8209
X4.499Y-2.4557
X4.5112Y-2.3898
X4.5487Y-2.4035
X4.5659Y-6.1152
X4.5787Y-2.4301
X4.6043Y-2.4852
X4.8661Y-5.0689
X4.874Y-2.0128
T2
X4.0945Y-3.937
X4.0945Y-4.037
X4.0945Y-4.137
X4.0945Y-4.237
X4.0945Y-4.337
X4.0945Y-4.437
X4.0945Y-4.537
X4.0945Y-4.637
X4.0945Y-4.737
X4.0945Y-4.837
X4.3945Y-3.937
X4.3945Y-4.037
X4.3945Y-4.137
X4.3945Y-4.237
X4.3945Y-4.337
X4.3945Y-4.437
X4.3945Y-4.537
X4.3945Y-4.637
X4.3945Y-4.737
X4.3945Y-4.837
X3.4921Y-2.0248
X3.4921Y-2.3248
X3.5921Y-2.0248
X3.5921Y-2.3248
X3.6921Y-2.0248
X3.6921Y-2.3248
X3.7921Y-2.0248
X3.7921Y-2.3248
X3.8921Y-2.0248
X3.8921Y-2.3248
X3.9921Y-2.0248
X3.9921Y-2.3248
X4.0921Y-2.0248
X4.0921Y-2.3248
X4.1921Y-2.0248
X4.1921Y-2.3248
X4.2921Y-2.0248
X4.2921Y-2.3248
X4.3921Y-2.0248
X4.3921Y-2.3248
X3.6555Y-4.599
X3.6555Y-4.999
X3.4921Y-5.1724
X3.4921Y-5.4724
X3.5921Y-5.1724
X3.5921Y-5.4724
X3.6921Y-5.1724
X3.6921Y-5.4724
X3.7921Y-5.1724
X3.7921Y-5.4724
X3.8921Y-5.1724
X3.8921Y-5.4724
X3.9921Y-5.1724
X3.9921Y-5.4724
X4.0921Y-5.1724
X4.0921Y-5.4724
X4.1921Y-5.1724
X4.1921Y-5.4724
X4.2921Y-5.1724
X4.2921Y-5.4724
X4.3921Y-5.1724
X4.3921Y-5.4724
X3.4921Y-5.7236
X3.4921Y-6.0236
X3.5921Y-5.7236
X3.5921Y-6.0236
X3.6921Y-5.7236
X3.6921Y-6.0236
X3.7921Y-5.7236
X3.7921Y-6.0236
X3.8921Y-5.7236
X3.8921Y-6.0236
X3.9921Y-5.7236
X3.9921Y-6.0236
X4.0921Y-5.7236
X4.0921Y-6.0236
X4.1921Y-5.7236
X4.1921Y-6.0236
X4.2921Y-5.7236
X4.2921Y-6.0236
X4.3921Y-5.7236
X4.3921Y-6.0236
X2.484Y-2.7953
X2.5824Y-2.7953
X3.7707Y-3.6081
X3.7707Y-3.8002
X2.6378Y-2.0248
X2.6378Y-2.3248
X2.7378Y-2.0248
X2.7378Y-2.3248
X2.8378Y-2.0248
X2.8378Y-2.3248
X2.9378Y-2.0248
X2.9378Y-2.3248
X3.0378Y-2.0248
X3.0378Y-2.3248
X3.1378Y-2.0248
X3.1378Y-2.3248
X3.2378Y-2.0248
X3.2378Y-2.3248
X2.8346Y-2.7559
X2.8346Y-2.8559
X2.8346Y-2.9559
X2.8346Y-3.0559
X2.8346Y-3.1559
X2.8346Y-3.2559
X2.8346Y-3.3559
X2.8346Y-3.4559
X2.8346Y-3.5559
X2.8346Y-3.6559
X2.8346Y-3.7559
X2.8346Y-3.8559
X2.8346Y-3.9559
X2.8346Y-4.0559
X2.8346Y-4.1559
X2.8346Y-4.2559
X2.8346Y-4.3559
X2.8346Y-4.4559
X2.8346Y-4.5559
X2.8346Y-4.6559
X3.4346Y-2.7559
X3.4346Y-2.8559
X3.4346Y-2.9559
X3.4346Y-3.0559
X3.4346Y-3.1559
X3.4346Y-3.2559
X3.4346Y-3.3559
X3.4346Y-3.4559
X3.4346Y-3.5559
X3.4346Y-3.6559
X3.4346Y-3.7559
X3.4346Y-3.8559
X3.4346Y-3.9559
X3.4346Y-4.0559
X3.4346Y-4.1559
X3.4346Y-4.2559
X3.4346Y-4.3559
X3.4346Y-4.4559
X3.4346Y-4.5559
X3.4346Y-4.6559
X3.0719Y-5.3943
X3.0719Y-5.7943
X2.484Y-5.0
X2.5824Y-5.0
X4.0945Y-2.7559
X4.0945Y-2.8559
X4.0945Y-2.9559
X4.0945Y-3.0559
X4.0945Y-3.1559
X4.0945Y-3.2559
X4.0945Y-3.3559
X4.0945Y-3.4559
X4.0945Y-3.5559
X4.0945Y-3.6559
X4.3945Y-2.7559
X4.3945Y-2.8559
X4.3945Y-2.9559
X4.3945Y-3.0559
X4.3945Y-3.1559
X4.3945Y-3.2559
X4.3945Y-3.3559
X4.3945Y-3.4559
X4.3945Y-3.5559
X4.3945Y-3.6559
T3
X2.6417Y-4.2551
X2.6417Y-4.3551
X2.8206Y-4.8031
X2.9206Y-4.8031
X3.4761Y-2.5276
X3.5761Y-2.5276
X3.2874Y-5.3864
X3.2874Y-5.4864
X2.6417Y-3.422
X2.6417Y-3.522
X2.6218Y-2.5276
X2.7218Y-2.5276
X3.2874Y-5.7104
X3.2874Y-5.8104
X3.7207Y-4.128
X3.8207Y-4.128
X3.349Y-4.8061
X3.449Y-4.8061
X4.0805Y-4.9783
X4.1805Y-4.9783
X4.0805Y-2.5659
X4.1805Y-2.5659
X3.0848Y-4.8061
X3.1848Y-4.8061
X3.7207Y-3.2894
X3.8207Y-3.2894
T4
X2.4803Y-5.8268
X2.5803Y-5.8268
X2.4803Y-5.6693
X2.5803Y-5.6693
X2.4803Y-5.5118
X2.5803Y-5.5118
X4.6638Y-1.9252
X4.6638Y-2.0252
X4.6638Y-2.1252
X4.6638Y-2.2252
X4.6638Y-2.3252
X4.6638Y-2.4252
X4.6638Y-2.5252
X4.6638Y-2.6252
X4.6638Y-2.7252
X4.6638Y-2.8252
X4.6638Y-2.9252
X4.6638Y-3.0252
X4.6638Y-3.1252
X4.6638Y-3.2252
X4.6638Y-3.3252
X4.6638Y-3.4252
X4.6638Y-3.5252
X4.6638Y-3.6252
X4.6638Y-3.7252
X4.6638Y-3.8252
X4.6638Y-3.9252
X4.6638Y-4.0252
X4.6638Y-4.1252
X4.6638Y-4.2252
X4.6638Y-4.3252
X4.6638Y-4.4252
X4.6638Y-4.5252
X4.6638Y-4.6252
X4.6638Y-4.7252
X4.6638Y-4.8252
X4.6638Y-4.9252
X4.6638Y-5.0252
X4.7638Y-1.9252
X4.7638Y-2.0252
X4.7638Y-2.1252
X4.7638Y-2.2252
X4.7638Y-2.3252
X4.7638Y-2.4252
X4.7638Y-2.5252
X4.7638Y-2.6252
X4.7638Y-2.7252
X4.7638Y-2.8252
X4.7638Y-2.9252
X4.7638Y-3.0252
X4.7638Y-3.1252
X4.7638Y-3.2252
X4.7638Y-3.3252
X4.7638Y-3.4252
X4.7638Y-3.5252
X4.7638Y-3.6252
X4.7638Y-3.7252
X4.7638Y-3.8252
X4.7638Y-3.9252
X4.7638Y-4.0252
X4.7638Y-4.1252
X4.7638Y-4.2252
X4.7638Y-4.3252
X4.7638Y-4.4252
X4.7638Y-4.5252
X4.7638Y-4.6252
X4.7638Y-4.7252
X4.7638Y-4.8252
X4.7638Y-4.9252
X4.7638Y-5.0252
X2.4803Y-5.3543
X2.5803Y-5.3543
X2.4232Y-4.0551
X2.4232Y-4.1551
X2.4232Y-4.2551
X2.4232Y-4.3551
X2.4232Y-4.4551
X2.4232Y-4.5551
X2.4232Y-3.222
X2.4232Y-3.322
X2.4232Y-3.422
X2.4232Y-3.522
X2.4232Y-3.622
X2.4232Y-3.722
X4.6638Y-5.3386
X4.6638Y-5.4386
X4.6638Y-5.5386
X4.6638Y-5.6386
X4.6638Y-5.7386
X4.6638Y-5.8386
X4.6638Y-5.9386
X4.6638Y-6.0386
X4.7638Y-5.3386
X4.7638Y-5.4386
X4.7638Y-5.5386
X4.7638Y-5.6386
X4.7638Y-5.7386
X4.7638Y-5.8386
X4.7638Y-5.9386
X4.7638Y-6.0386
T0
M30
