M48
; DRILL file {KiCad (5.1.5-0-10_14)} date Sunday, 27 June 2021 at 02:59:27
; FORMAT={-:-/ absolute / inch / decimal}
; #@! TF.CreationDate,2021-06-27T02:59:27+01:00
; #@! TF.GenerationSoftware,Kicad,Pcbnew,(5.1.5-0-10_14)
; #@! TF.FileFunction,Plated,1,4,PTH
FMAT,2
INCH
T1C0.0157
T2C0.0315
T3C0.0320
T4C0.0394
%
G90
G05
T1
X2.0693Y-5.8626
X2.0945Y-5.7819
X2.4566Y-4.7557
X2.4882Y-3.8177
X2.5035Y-4.3387
X2.5264Y-5.0681
X2.5394Y-3.7579
X2.5404Y-3.6703
X2.8949Y-3.8764
X2.9248Y-5.9441
X2.9358Y-5.3831
X2.9364Y-5.7791
X2.9839Y-5.8894
X3.0232Y-5.9183
X3.0862Y-4.637
X3.1287Y-4.4366
X3.1665Y-3.7976
X3.1841Y-6.0797
X3.1854Y-4.237
X3.2406Y-3.6311
X3.3146Y-2.176
X3.3467Y-2.1506
X3.3797Y-2.131
X3.4319Y-3.5902
X3.4346Y-3.2693
X3.4858Y-4.2626
X3.5315Y-3.7693
X3.5331Y-4.6091
X3.5858Y-4.7374
X3.6862Y-4.2114
X3.737Y-2.125
X3.7587Y-3.4948
X3.8512Y-4.0929
X3.8902Y-3.8323
X3.9157Y-3.4693
X3.9195Y-3.3436
X3.9496Y-3.3679
X3.9665Y-3.9869
X4.0055Y-3.3821
X4.0059Y-4.2114
X4.0319Y-3.2965
X4.0917Y-2.122
X4.1732Y-4.7864
X4.1921Y-2.1476
X4.2343Y-4.0354
X4.2351Y-3.2686
X4.2607Y-3.7948
X4.2921Y-2.1604
X4.4839Y-5.0713
X4.499Y-2.4557
X4.5112Y-2.3898
X4.5217Y-1.9642
X4.5487Y-2.4035
X4.5659Y-6.1152
X4.5787Y-2.4301
X4.6043Y-2.4852
X4.874Y-2.0128
T2
X3.1354Y-4.8079
X3.5354Y-4.8079
X4.0945Y-2.7559
X4.0945Y-2.8559
X4.0945Y-2.9559
X4.0945Y-3.0559
X4.0945Y-3.1559
X4.0945Y-3.2559
X4.0945Y-3.3559
X4.0945Y-3.4559
X4.0945Y-3.5559
X4.0945Y-3.6559
X4.3945Y-2.7559
X4.3945Y-2.8559
X4.3945Y-2.9559
X4.3945Y-3.0559
X4.3945Y-3.1559
X4.3945Y-3.2559
X4.3945Y-3.3559
X4.3945Y-3.4559
X4.3945Y-3.5559
X4.3945Y-3.6559
X3.6358Y-4.5016
X3.8327Y-4.5016
X3.0719Y-5.3943
X3.0719Y-5.7943
X3.4921Y-5.7236
X3.4921Y-6.0236
X3.5921Y-5.7236
X3.5921Y-6.0236
X3.6921Y-5.7236
X3.6921Y-6.0236
X3.7921Y-5.7236
X3.7921Y-6.0236
X3.8921Y-5.7236
X3.8921Y-6.0236
X3.9921Y-5.7236
X3.9921Y-6.0236
X4.0921Y-5.7236
X4.0921Y-6.0236
X4.1921Y-5.7236
X4.1921Y-6.0236
X4.2921Y-5.7236
X4.2921Y-6.0236
X4.3921Y-5.7236
X4.3921Y-6.0236
X3.239Y-4.5016
X3.4311Y-4.5016
X2.484Y-5.0
X2.5824Y-5.0
X3.4921Y-5.1724
X3.4921Y-5.4724
X3.5921Y-5.1724
X3.5921Y-5.4724
X3.6921Y-5.1724
X3.6921Y-5.4724
X3.7921Y-5.1724
X3.7921Y-5.4724
X3.8921Y-5.1724
X3.8921Y-5.4724
X3.9921Y-5.1724
X3.9921Y-5.4724
X4.0921Y-5.1724
X4.0921Y-5.4724
X4.1921Y-5.1724
X4.1921Y-5.4724
X4.2921Y-5.1724
X4.2921Y-5.4724
X4.3921Y-5.1724
X4.3921Y-5.4724
X2.484Y-2.7953
X2.5824Y-2.7953
X2.1692Y-4.6783
X2.248Y-4.6783
X2.1692Y-3.8461
X2.248Y-3.8461
X2.9854Y-3.4314
X2.9854Y-3.5314
X2.9854Y-3.6314
X2.9854Y-3.7314
X2.9854Y-3.8314
X2.9854Y-3.9314
X3.0854Y-3.3314
X3.0854Y-3.4314
X3.0854Y-3.5314
X3.0854Y-3.6314
X3.0854Y-3.7314
X3.0854Y-3.8314
X3.0854Y-3.9314
X3.0854Y-4.0314
X3.1854Y-3.3314
X3.1854Y-3.4314
X3.1854Y-3.9314
X3.1854Y-4.0314
X3.2854Y-3.3314
X3.2854Y-3.4314
X3.2854Y-3.9314
X3.2854Y-4.0314
X3.3854Y-3.3314
X3.3854Y-3.4314
X3.3854Y-3.9314
X3.3854Y-4.0314
X3.4854Y-3.3314
X3.4854Y-3.4314
X3.4854Y-3.9314
X3.4854Y-4.0314
X3.5854Y-3.3314
X3.5854Y-3.4314
X3.5854Y-3.5314
X3.5854Y-3.6314
X3.5854Y-3.7314
X3.5854Y-3.8314
X3.5854Y-3.9314
X3.5854Y-4.0314
X3.6854Y-3.4314
X3.6854Y-3.5314
X3.6854Y-3.6314
X3.6854Y-3.7314
X3.6854Y-3.8314
X3.6854Y-3.9314
X4.0945Y-3.937
X4.0945Y-4.037
X4.0945Y-4.137
X4.0945Y-4.237
X4.0945Y-4.337
X4.0945Y-4.437
X4.0945Y-4.537
X4.0945Y-4.637
X4.0945Y-4.737
X4.0945Y-4.837
X4.3945Y-3.937
X4.3945Y-4.037
X4.3945Y-4.137
X4.3945Y-4.237
X4.3945Y-4.337
X4.3945Y-4.437
X4.3945Y-4.537
X4.3945Y-4.637
X4.3945Y-4.737
X4.3945Y-4.837
X3.4921Y-2.0248
X3.4921Y-2.3248
X3.5921Y-2.0248
X3.5921Y-2.3248
X3.6921Y-2.0248
X3.6921Y-2.3248
X3.7921Y-2.0248
X3.7921Y-2.3248
X3.8921Y-2.0248
X3.8921Y-2.3248
X3.9921Y-2.0248
X3.9921Y-2.3248
X4.0921Y-2.0248
X4.0921Y-2.3248
X4.1921Y-2.0248
X4.1921Y-2.3248
X4.2921Y-2.0248
X4.2921Y-2.3248
X4.3921Y-2.0248
X4.3921Y-2.3248
X2.1692Y-3.522
X2.248Y-3.522
X2.8409Y-4.5024
X3.0378Y-4.5024
X2.1692Y-4.3551
X2.248Y-4.3551
X2.6378Y-2.0248
X2.6378Y-2.3248
X2.7378Y-2.0248
X2.7378Y-2.3248
X2.8378Y-2.0248
X2.8378Y-2.3248
X2.9378Y-2.0248
X2.9378Y-2.3248
X3.0378Y-2.0248
X3.0378Y-2.3248
X3.1378Y-2.0248
X3.1378Y-2.3248
X3.2378Y-2.0248
X3.2378Y-2.3248
T3
X3.2874Y-5.7104
X3.2874Y-5.8104
X3.6707Y-2.9667
X3.7707Y-2.9667
X4.0805Y-4.9783
X4.1805Y-4.9783
X4.0695Y-2.5266
X4.1695Y-2.5266
X3.4335Y-2.5266
X3.5335Y-2.5266
X2.9002Y-2.9638
X3.0002Y-2.9638
X3.2854Y-2.9667
X3.3854Y-2.9667
X2.6417Y-3.422
X2.6417Y-3.522
X2.7976Y-2.5266
X2.8976Y-2.5266
X3.2874Y-5.3864
X3.2874Y-5.4864
X2.6417Y-4.2551
X2.6417Y-4.3551
T4
X2.4732Y-5.3831
X2.4732Y-5.4831
X2.4732Y-5.5831
X2.4732Y-5.6831
X2.4732Y-5.7831
X2.5732Y-5.3831
X2.5732Y-5.4831
X2.5732Y-5.5831
X2.5732Y-5.6831
X2.5732Y-5.7831
X2.4232Y-3.222
X2.4232Y-3.322
X2.4232Y-3.422
X2.4232Y-3.522
X2.4232Y-3.622
X2.4232Y-3.722
X4.6638Y-1.9252
X4.6638Y-2.0252
X4.6638Y-2.1252
X4.6638Y-2.2252
X4.6638Y-2.3252
X4.6638Y-2.4252
X4.6638Y-2.5252
X4.6638Y-2.6252
X4.6638Y-2.7252
X4.6638Y-2.8252
X4.6638Y-2.9252
X4.6638Y-3.0252
X4.6638Y-3.1252
X4.6638Y-3.2252
X4.6638Y-3.3252
X4.6638Y-3.4252
X4.6638Y-3.5252
X4.6638Y-3.6252
X4.6638Y-3.7252
X4.6638Y-3.8252
X4.6638Y-3.9252
X4.6638Y-4.0252
X4.6638Y-4.1252
X4.6638Y-4.2252
X4.6638Y-4.3252
X4.6638Y-4.4252
X4.6638Y-4.5252
X4.6638Y-4.6252
X4.6638Y-4.7252
X4.6638Y-4.8252
X4.6638Y-4.9252
X4.6638Y-5.0252
X4.7638Y-1.9252
X4.7638Y-2.0252
X4.7638Y-2.1252
X4.7638Y-2.2252
X4.7638Y-2.3252
X4.7638Y-2.4252
X4.7638Y-2.5252
X4.7638Y-2.6252
X4.7638Y-2.7252
X4.7638Y-2.8252
X4.7638Y-2.9252
X4.7638Y-3.0252
X4.7638Y-3.1252
X4.7638Y-3.2252
X4.7638Y-3.3252
X4.7638Y-3.4252
X4.7638Y-3.5252
X4.7638Y-3.6252
X4.7638Y-3.7252
X4.7638Y-3.8252
X4.7638Y-3.9252
X4.7638Y-4.0252
X4.7638Y-4.1252
X4.7638Y-4.2252
X4.7638Y-4.3252
X4.7638Y-4.4252
X4.7638Y-4.5252
X4.7638Y-4.6252
X4.7638Y-4.7252
X4.7638Y-4.8252
X4.7638Y-4.9252
X4.7638Y-5.0252
X4.6638Y-5.3386
X4.6638Y-5.4386
X4.6638Y-5.5386
X4.6638Y-5.6386
X4.6638Y-5.7386
X4.6638Y-5.8386
X4.6638Y-5.9386
X4.6638Y-6.0386
X4.7638Y-5.3386
X4.7638Y-5.4386
X4.7638Y-5.5386
X4.7638Y-5.6386
X4.7638Y-5.7386
X4.7638Y-5.8386
X4.7638Y-5.9386
X4.7638Y-6.0386
X2.4232Y-4.0551
X2.4232Y-4.1551
X2.4232Y-4.2551
X2.4232Y-4.3551
X2.4232Y-4.4551
X2.4232Y-4.5551
T0
M30
