G04 #@! TF.GenerationSoftware,KiCad,Pcbnew,(5.1.5-0-10_14)*
G04 #@! TF.CreationDate,2021-06-27T14:31:18+01:00*
G04 #@! TF.ProjectId,flash-rom-expansion,666c6173-682d-4726-9f6d-2d657870616e,rev?*
G04 #@! TF.SameCoordinates,Original*
G04 #@! TF.FileFunction,Soldermask,Top*
G04 #@! TF.FilePolarity,Negative*
%FSLAX46Y46*%
G04 Gerber Fmt 4.6, Leading zero omitted, Abs format (unit mm)*
G04 Created by KiCad (PCBNEW (5.1.5-0-10_14)) date 2021-06-27 14:31:18*
%MOMM*%
%LPD*%
G04 APERTURE LIST*
%ADD10C,0.100000*%
G04 APERTURE END LIST*
D10*
G36*
X83933512Y-98183927D02*
G01*
X84082812Y-98213624D01*
X84246784Y-98281544D01*
X84394354Y-98380147D01*
X84519853Y-98505646D01*
X84618456Y-98653216D01*
X84686376Y-98817188D01*
X84721000Y-98991259D01*
X84721000Y-99168741D01*
X84686376Y-99342812D01*
X84618456Y-99506784D01*
X84519853Y-99654354D01*
X84394354Y-99779853D01*
X84246784Y-99878456D01*
X84082812Y-99946376D01*
X83933512Y-99976073D01*
X83908742Y-99981000D01*
X83731258Y-99981000D01*
X83706488Y-99976073D01*
X83557188Y-99946376D01*
X83393216Y-99878456D01*
X83245646Y-99779853D01*
X83120147Y-99654354D01*
X83021544Y-99506784D01*
X82953624Y-99342812D01*
X82919000Y-99168741D01*
X82919000Y-98991259D01*
X82953624Y-98817188D01*
X83021544Y-98653216D01*
X83120147Y-98505646D01*
X83245646Y-98380147D01*
X83393216Y-98281544D01*
X83557188Y-98213624D01*
X83706488Y-98183927D01*
X83731258Y-98179000D01*
X83908742Y-98179000D01*
X83933512Y-98183927D01*
G37*
G36*
X68693512Y-98183927D02*
G01*
X68842812Y-98213624D01*
X69006784Y-98281544D01*
X69154354Y-98380147D01*
X69279853Y-98505646D01*
X69378456Y-98653216D01*
X69446376Y-98817188D01*
X69481000Y-98991259D01*
X69481000Y-99168741D01*
X69446376Y-99342812D01*
X69378456Y-99506784D01*
X69279853Y-99654354D01*
X69154354Y-99779853D01*
X69006784Y-99878456D01*
X68842812Y-99946376D01*
X68693512Y-99976073D01*
X68668742Y-99981000D01*
X68491258Y-99981000D01*
X68466488Y-99976073D01*
X68317188Y-99946376D01*
X68153216Y-99878456D01*
X68005646Y-99779853D01*
X67880147Y-99654354D01*
X67781544Y-99506784D01*
X67713624Y-99342812D01*
X67679000Y-99168741D01*
X67679000Y-98991259D01*
X67713624Y-98817188D01*
X67781544Y-98653216D01*
X67880147Y-98505646D01*
X68005646Y-98380147D01*
X68153216Y-98281544D01*
X68317188Y-98213624D01*
X68466488Y-98183927D01*
X68491258Y-98179000D01*
X68668742Y-98179000D01*
X68693512Y-98183927D01*
G37*
G36*
X59693512Y-98183927D02*
G01*
X59842812Y-98213624D01*
X60006784Y-98281544D01*
X60154354Y-98380147D01*
X60279853Y-98505646D01*
X60378456Y-98653216D01*
X60446376Y-98817188D01*
X60481000Y-98991259D01*
X60481000Y-99168741D01*
X60446376Y-99342812D01*
X60378456Y-99506784D01*
X60279853Y-99654354D01*
X60154354Y-99779853D01*
X60006784Y-99878456D01*
X59842812Y-99946376D01*
X59693512Y-99976073D01*
X59668742Y-99981000D01*
X59491258Y-99981000D01*
X59466488Y-99976073D01*
X59317188Y-99946376D01*
X59153216Y-99878456D01*
X59005646Y-99779853D01*
X58880147Y-99654354D01*
X58781544Y-99506784D01*
X58713624Y-99342812D01*
X58679000Y-99168741D01*
X58679000Y-98991259D01*
X58713624Y-98817188D01*
X58781544Y-98653216D01*
X58880147Y-98505646D01*
X59005646Y-98380147D01*
X59153216Y-98281544D01*
X59317188Y-98213624D01*
X59466488Y-98183927D01*
X59491258Y-98179000D01*
X59668742Y-98179000D01*
X59693512Y-98183927D01*
G37*
G36*
X108173512Y-98163927D02*
G01*
X108322812Y-98193624D01*
X108486784Y-98261544D01*
X108634354Y-98360147D01*
X108759853Y-98485646D01*
X108858456Y-98633216D01*
X108926376Y-98797188D01*
X108961000Y-98971259D01*
X108961000Y-99148741D01*
X108926376Y-99322812D01*
X108858456Y-99486784D01*
X108759853Y-99634354D01*
X108634354Y-99759853D01*
X108486784Y-99858456D01*
X108322812Y-99926376D01*
X108173512Y-99956073D01*
X108148742Y-99961000D01*
X107971258Y-99961000D01*
X107946488Y-99956073D01*
X107797188Y-99926376D01*
X107633216Y-99858456D01*
X107485646Y-99759853D01*
X107360147Y-99634354D01*
X107261544Y-99486784D01*
X107193624Y-99322812D01*
X107159000Y-99148741D01*
X107159000Y-98971259D01*
X107193624Y-98797188D01*
X107261544Y-98633216D01*
X107360147Y-98485646D01*
X107485646Y-98360147D01*
X107633216Y-98261544D01*
X107797188Y-98193624D01*
X107946488Y-98163927D01*
X107971258Y-98159000D01*
X108148742Y-98159000D01*
X108173512Y-98163927D01*
G37*
G36*
X92933512Y-98163927D02*
G01*
X93082812Y-98193624D01*
X93246784Y-98261544D01*
X93394354Y-98360147D01*
X93519853Y-98485646D01*
X93618456Y-98633216D01*
X93686376Y-98797188D01*
X93721000Y-98971259D01*
X93721000Y-99148741D01*
X93686376Y-99322812D01*
X93618456Y-99486784D01*
X93519853Y-99634354D01*
X93394354Y-99759853D01*
X93246784Y-99858456D01*
X93082812Y-99926376D01*
X92933512Y-99956073D01*
X92908742Y-99961000D01*
X92731258Y-99961000D01*
X92706488Y-99956073D01*
X92557188Y-99926376D01*
X92393216Y-99858456D01*
X92245646Y-99759853D01*
X92120147Y-99634354D01*
X92021544Y-99486784D01*
X91953624Y-99322812D01*
X91919000Y-99148741D01*
X91919000Y-98971259D01*
X91953624Y-98797188D01*
X92021544Y-98633216D01*
X92120147Y-98485646D01*
X92245646Y-98360147D01*
X92393216Y-98261544D01*
X92557188Y-98193624D01*
X92706488Y-98163927D01*
X92731258Y-98159000D01*
X92908742Y-98159000D01*
X92933512Y-98163927D01*
G37*
G36*
X48826823Y-98221313D02*
G01*
X48987242Y-98269976D01*
X49119906Y-98340886D01*
X49135078Y-98348996D01*
X49264659Y-98455341D01*
X49371004Y-98584922D01*
X49371005Y-98584924D01*
X49450024Y-98732758D01*
X49498687Y-98893177D01*
X49515117Y-99060000D01*
X49498687Y-99226823D01*
X49450024Y-99387242D01*
X49386128Y-99506782D01*
X49371004Y-99535078D01*
X49264659Y-99664659D01*
X49135078Y-99771004D01*
X49135076Y-99771005D01*
X48987242Y-99850024D01*
X48826823Y-99898687D01*
X48701804Y-99911000D01*
X47818196Y-99911000D01*
X47693177Y-99898687D01*
X47532758Y-99850024D01*
X47384924Y-99771005D01*
X47384922Y-99771004D01*
X47255341Y-99664659D01*
X47148996Y-99535078D01*
X47133872Y-99506782D01*
X47069976Y-99387242D01*
X47021313Y-99226823D01*
X47004883Y-99060000D01*
X47021313Y-98893177D01*
X47069976Y-98732758D01*
X47148995Y-98584924D01*
X47148996Y-98584922D01*
X47255341Y-98455341D01*
X47384922Y-98348996D01*
X47400094Y-98340886D01*
X47532758Y-98269976D01*
X47693177Y-98221313D01*
X47818196Y-98209000D01*
X48701804Y-98209000D01*
X48826823Y-98221313D01*
G37*
G36*
X102166823Y-98221313D02*
G01*
X102327242Y-98269976D01*
X102459906Y-98340886D01*
X102475078Y-98348996D01*
X102604659Y-98455341D01*
X102711004Y-98584922D01*
X102711005Y-98584924D01*
X102790024Y-98732758D01*
X102838687Y-98893177D01*
X102855117Y-99060000D01*
X102838687Y-99226823D01*
X102790024Y-99387242D01*
X102726128Y-99506782D01*
X102711004Y-99535078D01*
X102604659Y-99664659D01*
X102475078Y-99771004D01*
X102475076Y-99771005D01*
X102327242Y-99850024D01*
X102166823Y-99898687D01*
X102041804Y-99911000D01*
X101158196Y-99911000D01*
X101033177Y-99898687D01*
X100872758Y-99850024D01*
X100724924Y-99771005D01*
X100724922Y-99771004D01*
X100595341Y-99664659D01*
X100488996Y-99535078D01*
X100473872Y-99506782D01*
X100409976Y-99387242D01*
X100361313Y-99226823D01*
X100344883Y-99060000D01*
X100361313Y-98893177D01*
X100409976Y-98732758D01*
X100488995Y-98584924D01*
X100488996Y-98584922D01*
X100595341Y-98455341D01*
X100724922Y-98348996D01*
X100740094Y-98340886D01*
X100872758Y-98269976D01*
X101033177Y-98221313D01*
X101158196Y-98209000D01*
X102041804Y-98209000D01*
X102166823Y-98221313D01*
G37*
G36*
X89466823Y-98221313D02*
G01*
X89627242Y-98269976D01*
X89759906Y-98340886D01*
X89775078Y-98348996D01*
X89904659Y-98455341D01*
X90011004Y-98584922D01*
X90011005Y-98584924D01*
X90090024Y-98732758D01*
X90138687Y-98893177D01*
X90155117Y-99060000D01*
X90138687Y-99226823D01*
X90090024Y-99387242D01*
X90026128Y-99506782D01*
X90011004Y-99535078D01*
X89904659Y-99664659D01*
X89775078Y-99771004D01*
X89775076Y-99771005D01*
X89627242Y-99850024D01*
X89466823Y-99898687D01*
X89341804Y-99911000D01*
X88458196Y-99911000D01*
X88333177Y-99898687D01*
X88172758Y-99850024D01*
X88024924Y-99771005D01*
X88024922Y-99771004D01*
X87895341Y-99664659D01*
X87788996Y-99535078D01*
X87773872Y-99506782D01*
X87709976Y-99387242D01*
X87661313Y-99226823D01*
X87644883Y-99060000D01*
X87661313Y-98893177D01*
X87709976Y-98732758D01*
X87788995Y-98584924D01*
X87788996Y-98584922D01*
X87895341Y-98455341D01*
X88024922Y-98348996D01*
X88040094Y-98340886D01*
X88172758Y-98269976D01*
X88333177Y-98221313D01*
X88458196Y-98209000D01*
X89341804Y-98209000D01*
X89466823Y-98221313D01*
G37*
G36*
X117406823Y-98221313D02*
G01*
X117567242Y-98269976D01*
X117699906Y-98340886D01*
X117715078Y-98348996D01*
X117844659Y-98455341D01*
X117951004Y-98584922D01*
X117951005Y-98584924D01*
X118030024Y-98732758D01*
X118078687Y-98893177D01*
X118095117Y-99060000D01*
X118078687Y-99226823D01*
X118030024Y-99387242D01*
X117966128Y-99506782D01*
X117951004Y-99535078D01*
X117844659Y-99664659D01*
X117715078Y-99771004D01*
X117715076Y-99771005D01*
X117567242Y-99850024D01*
X117406823Y-99898687D01*
X117281804Y-99911000D01*
X116398196Y-99911000D01*
X116273177Y-99898687D01*
X116112758Y-99850024D01*
X115964924Y-99771005D01*
X115964922Y-99771004D01*
X115835341Y-99664659D01*
X115728996Y-99535078D01*
X115713872Y-99506782D01*
X115649976Y-99387242D01*
X115601313Y-99226823D01*
X115584883Y-99060000D01*
X115601313Y-98893177D01*
X115649976Y-98732758D01*
X115728995Y-98584924D01*
X115728996Y-98584922D01*
X115835341Y-98455341D01*
X115964922Y-98348996D01*
X115980094Y-98340886D01*
X116112758Y-98269976D01*
X116273177Y-98221313D01*
X116398196Y-98209000D01*
X117281804Y-98209000D01*
X117406823Y-98221313D01*
G37*
G36*
X74226823Y-98221313D02*
G01*
X74387242Y-98269976D01*
X74519906Y-98340886D01*
X74535078Y-98348996D01*
X74664659Y-98455341D01*
X74771004Y-98584922D01*
X74771005Y-98584924D01*
X74850024Y-98732758D01*
X74898687Y-98893177D01*
X74915117Y-99060000D01*
X74898687Y-99226823D01*
X74850024Y-99387242D01*
X74786128Y-99506782D01*
X74771004Y-99535078D01*
X74664659Y-99664659D01*
X74535078Y-99771004D01*
X74535076Y-99771005D01*
X74387242Y-99850024D01*
X74226823Y-99898687D01*
X74101804Y-99911000D01*
X73218196Y-99911000D01*
X73093177Y-99898687D01*
X72932758Y-99850024D01*
X72784924Y-99771005D01*
X72784922Y-99771004D01*
X72655341Y-99664659D01*
X72548996Y-99535078D01*
X72533872Y-99506782D01*
X72469976Y-99387242D01*
X72421313Y-99226823D01*
X72404883Y-99060000D01*
X72421313Y-98893177D01*
X72469976Y-98732758D01*
X72548995Y-98584924D01*
X72548996Y-98584922D01*
X72655341Y-98455341D01*
X72784922Y-98348996D01*
X72800094Y-98340886D01*
X72932758Y-98269976D01*
X73093177Y-98221313D01*
X73218196Y-98209000D01*
X74101804Y-98209000D01*
X74226823Y-98221313D01*
G37*
G36*
X64066823Y-98221313D02*
G01*
X64227242Y-98269976D01*
X64359906Y-98340886D01*
X64375078Y-98348996D01*
X64504659Y-98455341D01*
X64611004Y-98584922D01*
X64611005Y-98584924D01*
X64690024Y-98732758D01*
X64738687Y-98893177D01*
X64755117Y-99060000D01*
X64738687Y-99226823D01*
X64690024Y-99387242D01*
X64626128Y-99506782D01*
X64611004Y-99535078D01*
X64504659Y-99664659D01*
X64375078Y-99771004D01*
X64375076Y-99771005D01*
X64227242Y-99850024D01*
X64066823Y-99898687D01*
X63941804Y-99911000D01*
X63058196Y-99911000D01*
X62933177Y-99898687D01*
X62772758Y-99850024D01*
X62624924Y-99771005D01*
X62624922Y-99771004D01*
X62495341Y-99664659D01*
X62388996Y-99535078D01*
X62373872Y-99506782D01*
X62309976Y-99387242D01*
X62261313Y-99226823D01*
X62244883Y-99060000D01*
X62261313Y-98893177D01*
X62309976Y-98732758D01*
X62388995Y-98584924D01*
X62388996Y-98584922D01*
X62495341Y-98455341D01*
X62624922Y-98348996D01*
X62640094Y-98340886D01*
X62772758Y-98269976D01*
X62933177Y-98221313D01*
X63058196Y-98209000D01*
X63941804Y-98209000D01*
X64066823Y-98221313D01*
G37*
G36*
X83933512Y-95643927D02*
G01*
X84082812Y-95673624D01*
X84246784Y-95741544D01*
X84394354Y-95840147D01*
X84519853Y-95965646D01*
X84618456Y-96113216D01*
X84686376Y-96277188D01*
X84721000Y-96451259D01*
X84721000Y-96628741D01*
X84686376Y-96802812D01*
X84618456Y-96966784D01*
X84519853Y-97114354D01*
X84394354Y-97239853D01*
X84246784Y-97338456D01*
X84082812Y-97406376D01*
X83933512Y-97436073D01*
X83908742Y-97441000D01*
X83731258Y-97441000D01*
X83706488Y-97436073D01*
X83557188Y-97406376D01*
X83393216Y-97338456D01*
X83245646Y-97239853D01*
X83120147Y-97114354D01*
X83021544Y-96966784D01*
X82953624Y-96802812D01*
X82919000Y-96628741D01*
X82919000Y-96451259D01*
X82953624Y-96277188D01*
X83021544Y-96113216D01*
X83120147Y-95965646D01*
X83245646Y-95840147D01*
X83393216Y-95741544D01*
X83557188Y-95673624D01*
X83706488Y-95643927D01*
X83731258Y-95639000D01*
X83908742Y-95639000D01*
X83933512Y-95643927D01*
G37*
G36*
X68693512Y-95643927D02*
G01*
X68842812Y-95673624D01*
X69006784Y-95741544D01*
X69154354Y-95840147D01*
X69279853Y-95965646D01*
X69378456Y-96113216D01*
X69446376Y-96277188D01*
X69481000Y-96451259D01*
X69481000Y-96628741D01*
X69446376Y-96802812D01*
X69378456Y-96966784D01*
X69279853Y-97114354D01*
X69154354Y-97239853D01*
X69006784Y-97338456D01*
X68842812Y-97406376D01*
X68693512Y-97436073D01*
X68668742Y-97441000D01*
X68491258Y-97441000D01*
X68466488Y-97436073D01*
X68317188Y-97406376D01*
X68153216Y-97338456D01*
X68005646Y-97239853D01*
X67880147Y-97114354D01*
X67781544Y-96966784D01*
X67713624Y-96802812D01*
X67679000Y-96628741D01*
X67679000Y-96451259D01*
X67713624Y-96277188D01*
X67781544Y-96113216D01*
X67880147Y-95965646D01*
X68005646Y-95840147D01*
X68153216Y-95741544D01*
X68317188Y-95673624D01*
X68466488Y-95643927D01*
X68491258Y-95639000D01*
X68668742Y-95639000D01*
X68693512Y-95643927D01*
G37*
G36*
X59693512Y-95643927D02*
G01*
X59842812Y-95673624D01*
X60006784Y-95741544D01*
X60154354Y-95840147D01*
X60279853Y-95965646D01*
X60378456Y-96113216D01*
X60446376Y-96277188D01*
X60481000Y-96451259D01*
X60481000Y-96628741D01*
X60446376Y-96802812D01*
X60378456Y-96966784D01*
X60279853Y-97114354D01*
X60154354Y-97239853D01*
X60006784Y-97338456D01*
X59842812Y-97406376D01*
X59693512Y-97436073D01*
X59668742Y-97441000D01*
X59491258Y-97441000D01*
X59466488Y-97436073D01*
X59317188Y-97406376D01*
X59153216Y-97338456D01*
X59005646Y-97239853D01*
X58880147Y-97114354D01*
X58781544Y-96966784D01*
X58713624Y-96802812D01*
X58679000Y-96628741D01*
X58679000Y-96451259D01*
X58713624Y-96277188D01*
X58781544Y-96113216D01*
X58880147Y-95965646D01*
X59005646Y-95840147D01*
X59153216Y-95741544D01*
X59317188Y-95673624D01*
X59466488Y-95643927D01*
X59491258Y-95639000D01*
X59668742Y-95639000D01*
X59693512Y-95643927D01*
G37*
G36*
X108173512Y-95623927D02*
G01*
X108322812Y-95653624D01*
X108486784Y-95721544D01*
X108634354Y-95820147D01*
X108759853Y-95945646D01*
X108858456Y-96093216D01*
X108926376Y-96257188D01*
X108961000Y-96431259D01*
X108961000Y-96608741D01*
X108926376Y-96782812D01*
X108858456Y-96946784D01*
X108759853Y-97094354D01*
X108634354Y-97219853D01*
X108486784Y-97318456D01*
X108322812Y-97386376D01*
X108173512Y-97416073D01*
X108148742Y-97421000D01*
X107971258Y-97421000D01*
X107946488Y-97416073D01*
X107797188Y-97386376D01*
X107633216Y-97318456D01*
X107485646Y-97219853D01*
X107360147Y-97094354D01*
X107261544Y-96946784D01*
X107193624Y-96782812D01*
X107159000Y-96608741D01*
X107159000Y-96431259D01*
X107193624Y-96257188D01*
X107261544Y-96093216D01*
X107360147Y-95945646D01*
X107485646Y-95820147D01*
X107633216Y-95721544D01*
X107797188Y-95653624D01*
X107946488Y-95623927D01*
X107971258Y-95619000D01*
X108148742Y-95619000D01*
X108173512Y-95623927D01*
G37*
G36*
X92933512Y-95623927D02*
G01*
X93082812Y-95653624D01*
X93246784Y-95721544D01*
X93394354Y-95820147D01*
X93519853Y-95945646D01*
X93618456Y-96093216D01*
X93686376Y-96257188D01*
X93721000Y-96431259D01*
X93721000Y-96608741D01*
X93686376Y-96782812D01*
X93618456Y-96946784D01*
X93519853Y-97094354D01*
X93394354Y-97219853D01*
X93246784Y-97318456D01*
X93082812Y-97386376D01*
X92933512Y-97416073D01*
X92908742Y-97421000D01*
X92731258Y-97421000D01*
X92706488Y-97416073D01*
X92557188Y-97386376D01*
X92393216Y-97318456D01*
X92245646Y-97219853D01*
X92120147Y-97094354D01*
X92021544Y-96946784D01*
X91953624Y-96782812D01*
X91919000Y-96608741D01*
X91919000Y-96431259D01*
X91953624Y-96257188D01*
X92021544Y-96093216D01*
X92120147Y-95945646D01*
X92245646Y-95820147D01*
X92393216Y-95721544D01*
X92557188Y-95653624D01*
X92706488Y-95623927D01*
X92731258Y-95619000D01*
X92908742Y-95619000D01*
X92933512Y-95623927D01*
G37*
G36*
X89466823Y-95681313D02*
G01*
X89627242Y-95729976D01*
X89759906Y-95800886D01*
X89775078Y-95808996D01*
X89904659Y-95915341D01*
X90011004Y-96044922D01*
X90011005Y-96044924D01*
X90090024Y-96192758D01*
X90138687Y-96353177D01*
X90155117Y-96520000D01*
X90138687Y-96686823D01*
X90090024Y-96847242D01*
X90026128Y-96966782D01*
X90011004Y-96995078D01*
X89904659Y-97124659D01*
X89775078Y-97231004D01*
X89775076Y-97231005D01*
X89627242Y-97310024D01*
X89466823Y-97358687D01*
X89341804Y-97371000D01*
X88458196Y-97371000D01*
X88333177Y-97358687D01*
X88172758Y-97310024D01*
X88024924Y-97231005D01*
X88024922Y-97231004D01*
X87895341Y-97124659D01*
X87788996Y-96995078D01*
X87773872Y-96966782D01*
X87709976Y-96847242D01*
X87661313Y-96686823D01*
X87644883Y-96520000D01*
X87661313Y-96353177D01*
X87709976Y-96192758D01*
X87788995Y-96044924D01*
X87788996Y-96044922D01*
X87895341Y-95915341D01*
X88024922Y-95808996D01*
X88040094Y-95800886D01*
X88172758Y-95729976D01*
X88333177Y-95681313D01*
X88458196Y-95669000D01*
X89341804Y-95669000D01*
X89466823Y-95681313D01*
G37*
G36*
X117406823Y-95681313D02*
G01*
X117567242Y-95729976D01*
X117699906Y-95800886D01*
X117715078Y-95808996D01*
X117844659Y-95915341D01*
X117951004Y-96044922D01*
X117951005Y-96044924D01*
X118030024Y-96192758D01*
X118078687Y-96353177D01*
X118095117Y-96520000D01*
X118078687Y-96686823D01*
X118030024Y-96847242D01*
X117966128Y-96966782D01*
X117951004Y-96995078D01*
X117844659Y-97124659D01*
X117715078Y-97231004D01*
X117715076Y-97231005D01*
X117567242Y-97310024D01*
X117406823Y-97358687D01*
X117281804Y-97371000D01*
X116398196Y-97371000D01*
X116273177Y-97358687D01*
X116112758Y-97310024D01*
X115964924Y-97231005D01*
X115964922Y-97231004D01*
X115835341Y-97124659D01*
X115728996Y-96995078D01*
X115713872Y-96966782D01*
X115649976Y-96847242D01*
X115601313Y-96686823D01*
X115584883Y-96520000D01*
X115601313Y-96353177D01*
X115649976Y-96192758D01*
X115728995Y-96044924D01*
X115728996Y-96044922D01*
X115835341Y-95915341D01*
X115964922Y-95808996D01*
X115980094Y-95800886D01*
X116112758Y-95729976D01*
X116273177Y-95681313D01*
X116398196Y-95669000D01*
X117281804Y-95669000D01*
X117406823Y-95681313D01*
G37*
G36*
X74226823Y-95681313D02*
G01*
X74387242Y-95729976D01*
X74519906Y-95800886D01*
X74535078Y-95808996D01*
X74664659Y-95915341D01*
X74771004Y-96044922D01*
X74771005Y-96044924D01*
X74850024Y-96192758D01*
X74898687Y-96353177D01*
X74915117Y-96520000D01*
X74898687Y-96686823D01*
X74850024Y-96847242D01*
X74786128Y-96966782D01*
X74771004Y-96995078D01*
X74664659Y-97124659D01*
X74535078Y-97231004D01*
X74535076Y-97231005D01*
X74387242Y-97310024D01*
X74226823Y-97358687D01*
X74101804Y-97371000D01*
X73218196Y-97371000D01*
X73093177Y-97358687D01*
X72932758Y-97310024D01*
X72784924Y-97231005D01*
X72784922Y-97231004D01*
X72655341Y-97124659D01*
X72548996Y-96995078D01*
X72533872Y-96966782D01*
X72469976Y-96847242D01*
X72421313Y-96686823D01*
X72404883Y-96520000D01*
X72421313Y-96353177D01*
X72469976Y-96192758D01*
X72548995Y-96044924D01*
X72548996Y-96044922D01*
X72655341Y-95915341D01*
X72784922Y-95808996D01*
X72800094Y-95800886D01*
X72932758Y-95729976D01*
X73093177Y-95681313D01*
X73218196Y-95669000D01*
X74101804Y-95669000D01*
X74226823Y-95681313D01*
G37*
G36*
X48826823Y-95681313D02*
G01*
X48987242Y-95729976D01*
X49119906Y-95800886D01*
X49135078Y-95808996D01*
X49264659Y-95915341D01*
X49371004Y-96044922D01*
X49371005Y-96044924D01*
X49450024Y-96192758D01*
X49498687Y-96353177D01*
X49515117Y-96520000D01*
X49498687Y-96686823D01*
X49450024Y-96847242D01*
X49386128Y-96966782D01*
X49371004Y-96995078D01*
X49264659Y-97124659D01*
X49135078Y-97231004D01*
X49135076Y-97231005D01*
X48987242Y-97310024D01*
X48826823Y-97358687D01*
X48701804Y-97371000D01*
X47818196Y-97371000D01*
X47693177Y-97358687D01*
X47532758Y-97310024D01*
X47384924Y-97231005D01*
X47384922Y-97231004D01*
X47255341Y-97124659D01*
X47148996Y-96995078D01*
X47133872Y-96966782D01*
X47069976Y-96847242D01*
X47021313Y-96686823D01*
X47004883Y-96520000D01*
X47021313Y-96353177D01*
X47069976Y-96192758D01*
X47148995Y-96044924D01*
X47148996Y-96044922D01*
X47255341Y-95915341D01*
X47384922Y-95808996D01*
X47400094Y-95800886D01*
X47532758Y-95729976D01*
X47693177Y-95681313D01*
X47818196Y-95669000D01*
X48701804Y-95669000D01*
X48826823Y-95681313D01*
G37*
G36*
X102166823Y-95681313D02*
G01*
X102327242Y-95729976D01*
X102459906Y-95800886D01*
X102475078Y-95808996D01*
X102604659Y-95915341D01*
X102711004Y-96044922D01*
X102711005Y-96044924D01*
X102790024Y-96192758D01*
X102838687Y-96353177D01*
X102855117Y-96520000D01*
X102838687Y-96686823D01*
X102790024Y-96847242D01*
X102726128Y-96966782D01*
X102711004Y-96995078D01*
X102604659Y-97124659D01*
X102475078Y-97231004D01*
X102475076Y-97231005D01*
X102327242Y-97310024D01*
X102166823Y-97358687D01*
X102041804Y-97371000D01*
X101158196Y-97371000D01*
X101033177Y-97358687D01*
X100872758Y-97310024D01*
X100724924Y-97231005D01*
X100724922Y-97231004D01*
X100595341Y-97124659D01*
X100488996Y-96995078D01*
X100473872Y-96966782D01*
X100409976Y-96847242D01*
X100361313Y-96686823D01*
X100344883Y-96520000D01*
X100361313Y-96353177D01*
X100409976Y-96192758D01*
X100488995Y-96044924D01*
X100488996Y-96044922D01*
X100595341Y-95915341D01*
X100724922Y-95808996D01*
X100740094Y-95800886D01*
X100872758Y-95729976D01*
X101033177Y-95681313D01*
X101158196Y-95669000D01*
X102041804Y-95669000D01*
X102166823Y-95681313D01*
G37*
G36*
X64066823Y-95681313D02*
G01*
X64227242Y-95729976D01*
X64359906Y-95800886D01*
X64375078Y-95808996D01*
X64504659Y-95915341D01*
X64611004Y-96044922D01*
X64611005Y-96044924D01*
X64690024Y-96192758D01*
X64738687Y-96353177D01*
X64755117Y-96520000D01*
X64738687Y-96686823D01*
X64690024Y-96847242D01*
X64626128Y-96966782D01*
X64611004Y-96995078D01*
X64504659Y-97124659D01*
X64375078Y-97231004D01*
X64375076Y-97231005D01*
X64227242Y-97310024D01*
X64066823Y-97358687D01*
X63941804Y-97371000D01*
X63058196Y-97371000D01*
X62933177Y-97358687D01*
X62772758Y-97310024D01*
X62624924Y-97231005D01*
X62624922Y-97231004D01*
X62495341Y-97124659D01*
X62388996Y-96995078D01*
X62373872Y-96966782D01*
X62309976Y-96847242D01*
X62261313Y-96686823D01*
X62244883Y-96520000D01*
X62261313Y-96353177D01*
X62309976Y-96192758D01*
X62388995Y-96044924D01*
X62388996Y-96044922D01*
X62495341Y-95915341D01*
X62624922Y-95808996D01*
X62640094Y-95800886D01*
X62772758Y-95729976D01*
X62933177Y-95681313D01*
X63058196Y-95669000D01*
X63941804Y-95669000D01*
X64066823Y-95681313D01*
G37*
G36*
X68693512Y-93103927D02*
G01*
X68842812Y-93133624D01*
X69006784Y-93201544D01*
X69154354Y-93300147D01*
X69279853Y-93425646D01*
X69378456Y-93573216D01*
X69446376Y-93737188D01*
X69481000Y-93911259D01*
X69481000Y-94088741D01*
X69446376Y-94262812D01*
X69378456Y-94426784D01*
X69279853Y-94574354D01*
X69154354Y-94699853D01*
X69006784Y-94798456D01*
X68842812Y-94866376D01*
X68693512Y-94896073D01*
X68668742Y-94901000D01*
X68491258Y-94901000D01*
X68466488Y-94896073D01*
X68317188Y-94866376D01*
X68153216Y-94798456D01*
X68005646Y-94699853D01*
X67880147Y-94574354D01*
X67781544Y-94426784D01*
X67713624Y-94262812D01*
X67679000Y-94088741D01*
X67679000Y-93911259D01*
X67713624Y-93737188D01*
X67781544Y-93573216D01*
X67880147Y-93425646D01*
X68005646Y-93300147D01*
X68153216Y-93201544D01*
X68317188Y-93133624D01*
X68466488Y-93103927D01*
X68491258Y-93099000D01*
X68668742Y-93099000D01*
X68693512Y-93103927D01*
G37*
G36*
X83933512Y-93103927D02*
G01*
X84082812Y-93133624D01*
X84246784Y-93201544D01*
X84394354Y-93300147D01*
X84519853Y-93425646D01*
X84618456Y-93573216D01*
X84686376Y-93737188D01*
X84721000Y-93911259D01*
X84721000Y-94088741D01*
X84686376Y-94262812D01*
X84618456Y-94426784D01*
X84519853Y-94574354D01*
X84394354Y-94699853D01*
X84246784Y-94798456D01*
X84082812Y-94866376D01*
X83933512Y-94896073D01*
X83908742Y-94901000D01*
X83731258Y-94901000D01*
X83706488Y-94896073D01*
X83557188Y-94866376D01*
X83393216Y-94798456D01*
X83245646Y-94699853D01*
X83120147Y-94574354D01*
X83021544Y-94426784D01*
X82953624Y-94262812D01*
X82919000Y-94088741D01*
X82919000Y-93911259D01*
X82953624Y-93737188D01*
X83021544Y-93573216D01*
X83120147Y-93425646D01*
X83245646Y-93300147D01*
X83393216Y-93201544D01*
X83557188Y-93133624D01*
X83706488Y-93103927D01*
X83731258Y-93099000D01*
X83908742Y-93099000D01*
X83933512Y-93103927D01*
G37*
G36*
X59693512Y-93103927D02*
G01*
X59842812Y-93133624D01*
X60006784Y-93201544D01*
X60154354Y-93300147D01*
X60279853Y-93425646D01*
X60378456Y-93573216D01*
X60446376Y-93737188D01*
X60481000Y-93911259D01*
X60481000Y-94088741D01*
X60446376Y-94262812D01*
X60378456Y-94426784D01*
X60279853Y-94574354D01*
X60154354Y-94699853D01*
X60006784Y-94798456D01*
X59842812Y-94866376D01*
X59693512Y-94896073D01*
X59668742Y-94901000D01*
X59491258Y-94901000D01*
X59466488Y-94896073D01*
X59317188Y-94866376D01*
X59153216Y-94798456D01*
X59005646Y-94699853D01*
X58880147Y-94574354D01*
X58781544Y-94426784D01*
X58713624Y-94262812D01*
X58679000Y-94088741D01*
X58679000Y-93911259D01*
X58713624Y-93737188D01*
X58781544Y-93573216D01*
X58880147Y-93425646D01*
X59005646Y-93300147D01*
X59153216Y-93201544D01*
X59317188Y-93133624D01*
X59466488Y-93103927D01*
X59491258Y-93099000D01*
X59668742Y-93099000D01*
X59693512Y-93103927D01*
G37*
G36*
X92933512Y-93083927D02*
G01*
X93082812Y-93113624D01*
X93246784Y-93181544D01*
X93394354Y-93280147D01*
X93519853Y-93405646D01*
X93618456Y-93553216D01*
X93686376Y-93717188D01*
X93721000Y-93891259D01*
X93721000Y-94068741D01*
X93686376Y-94242812D01*
X93618456Y-94406784D01*
X93519853Y-94554354D01*
X93394354Y-94679853D01*
X93246784Y-94778456D01*
X93082812Y-94846376D01*
X92933512Y-94876073D01*
X92908742Y-94881000D01*
X92731258Y-94881000D01*
X92706488Y-94876073D01*
X92557188Y-94846376D01*
X92393216Y-94778456D01*
X92245646Y-94679853D01*
X92120147Y-94554354D01*
X92021544Y-94406784D01*
X91953624Y-94242812D01*
X91919000Y-94068741D01*
X91919000Y-93891259D01*
X91953624Y-93717188D01*
X92021544Y-93553216D01*
X92120147Y-93405646D01*
X92245646Y-93280147D01*
X92393216Y-93181544D01*
X92557188Y-93113624D01*
X92706488Y-93083927D01*
X92731258Y-93079000D01*
X92908742Y-93079000D01*
X92933512Y-93083927D01*
G37*
G36*
X108173512Y-93083927D02*
G01*
X108322812Y-93113624D01*
X108486784Y-93181544D01*
X108634354Y-93280147D01*
X108759853Y-93405646D01*
X108858456Y-93553216D01*
X108926376Y-93717188D01*
X108961000Y-93891259D01*
X108961000Y-94068741D01*
X108926376Y-94242812D01*
X108858456Y-94406784D01*
X108759853Y-94554354D01*
X108634354Y-94679853D01*
X108486784Y-94778456D01*
X108322812Y-94846376D01*
X108173512Y-94876073D01*
X108148742Y-94881000D01*
X107971258Y-94881000D01*
X107946488Y-94876073D01*
X107797188Y-94846376D01*
X107633216Y-94778456D01*
X107485646Y-94679853D01*
X107360147Y-94554354D01*
X107261544Y-94406784D01*
X107193624Y-94242812D01*
X107159000Y-94068741D01*
X107159000Y-93891259D01*
X107193624Y-93717188D01*
X107261544Y-93553216D01*
X107360147Y-93405646D01*
X107485646Y-93280147D01*
X107633216Y-93181544D01*
X107797188Y-93113624D01*
X107946488Y-93083927D01*
X107971258Y-93079000D01*
X108148742Y-93079000D01*
X108173512Y-93083927D01*
G37*
G36*
X48826823Y-93141313D02*
G01*
X48987242Y-93189976D01*
X49119906Y-93260886D01*
X49135078Y-93268996D01*
X49264659Y-93375341D01*
X49371004Y-93504922D01*
X49371005Y-93504924D01*
X49450024Y-93652758D01*
X49498687Y-93813177D01*
X49515117Y-93980000D01*
X49498687Y-94146823D01*
X49450024Y-94307242D01*
X49386128Y-94426782D01*
X49371004Y-94455078D01*
X49264659Y-94584659D01*
X49135078Y-94691004D01*
X49135076Y-94691005D01*
X48987242Y-94770024D01*
X48826823Y-94818687D01*
X48701804Y-94831000D01*
X47818196Y-94831000D01*
X47693177Y-94818687D01*
X47532758Y-94770024D01*
X47384924Y-94691005D01*
X47384922Y-94691004D01*
X47255341Y-94584659D01*
X47148996Y-94455078D01*
X47133872Y-94426782D01*
X47069976Y-94307242D01*
X47021313Y-94146823D01*
X47004883Y-93980000D01*
X47021313Y-93813177D01*
X47069976Y-93652758D01*
X47148995Y-93504924D01*
X47148996Y-93504922D01*
X47255341Y-93375341D01*
X47384922Y-93268996D01*
X47400094Y-93260886D01*
X47532758Y-93189976D01*
X47693177Y-93141313D01*
X47818196Y-93129000D01*
X48701804Y-93129000D01*
X48826823Y-93141313D01*
G37*
G36*
X64066823Y-93141313D02*
G01*
X64227242Y-93189976D01*
X64359906Y-93260886D01*
X64375078Y-93268996D01*
X64504659Y-93375341D01*
X64611004Y-93504922D01*
X64611005Y-93504924D01*
X64690024Y-93652758D01*
X64738687Y-93813177D01*
X64755117Y-93980000D01*
X64738687Y-94146823D01*
X64690024Y-94307242D01*
X64626128Y-94426782D01*
X64611004Y-94455078D01*
X64504659Y-94584659D01*
X64375078Y-94691004D01*
X64375076Y-94691005D01*
X64227242Y-94770024D01*
X64066823Y-94818687D01*
X63941804Y-94831000D01*
X63058196Y-94831000D01*
X62933177Y-94818687D01*
X62772758Y-94770024D01*
X62624924Y-94691005D01*
X62624922Y-94691004D01*
X62495341Y-94584659D01*
X62388996Y-94455078D01*
X62373872Y-94426782D01*
X62309976Y-94307242D01*
X62261313Y-94146823D01*
X62244883Y-93980000D01*
X62261313Y-93813177D01*
X62309976Y-93652758D01*
X62388995Y-93504924D01*
X62388996Y-93504922D01*
X62495341Y-93375341D01*
X62624922Y-93268996D01*
X62640094Y-93260886D01*
X62772758Y-93189976D01*
X62933177Y-93141313D01*
X63058196Y-93129000D01*
X63941804Y-93129000D01*
X64066823Y-93141313D01*
G37*
G36*
X117406823Y-93141313D02*
G01*
X117567242Y-93189976D01*
X117699906Y-93260886D01*
X117715078Y-93268996D01*
X117844659Y-93375341D01*
X117951004Y-93504922D01*
X117951005Y-93504924D01*
X118030024Y-93652758D01*
X118078687Y-93813177D01*
X118095117Y-93980000D01*
X118078687Y-94146823D01*
X118030024Y-94307242D01*
X117966128Y-94426782D01*
X117951004Y-94455078D01*
X117844659Y-94584659D01*
X117715078Y-94691004D01*
X117715076Y-94691005D01*
X117567242Y-94770024D01*
X117406823Y-94818687D01*
X117281804Y-94831000D01*
X116398196Y-94831000D01*
X116273177Y-94818687D01*
X116112758Y-94770024D01*
X115964924Y-94691005D01*
X115964922Y-94691004D01*
X115835341Y-94584659D01*
X115728996Y-94455078D01*
X115713872Y-94426782D01*
X115649976Y-94307242D01*
X115601313Y-94146823D01*
X115584883Y-93980000D01*
X115601313Y-93813177D01*
X115649976Y-93652758D01*
X115728995Y-93504924D01*
X115728996Y-93504922D01*
X115835341Y-93375341D01*
X115964922Y-93268996D01*
X115980094Y-93260886D01*
X116112758Y-93189976D01*
X116273177Y-93141313D01*
X116398196Y-93129000D01*
X117281804Y-93129000D01*
X117406823Y-93141313D01*
G37*
G36*
X89466823Y-93141313D02*
G01*
X89627242Y-93189976D01*
X89759906Y-93260886D01*
X89775078Y-93268996D01*
X89904659Y-93375341D01*
X90011004Y-93504922D01*
X90011005Y-93504924D01*
X90090024Y-93652758D01*
X90138687Y-93813177D01*
X90155117Y-93980000D01*
X90138687Y-94146823D01*
X90090024Y-94307242D01*
X90026128Y-94426782D01*
X90011004Y-94455078D01*
X89904659Y-94584659D01*
X89775078Y-94691004D01*
X89775076Y-94691005D01*
X89627242Y-94770024D01*
X89466823Y-94818687D01*
X89341804Y-94831000D01*
X88458196Y-94831000D01*
X88333177Y-94818687D01*
X88172758Y-94770024D01*
X88024924Y-94691005D01*
X88024922Y-94691004D01*
X87895341Y-94584659D01*
X87788996Y-94455078D01*
X87773872Y-94426782D01*
X87709976Y-94307242D01*
X87661313Y-94146823D01*
X87644883Y-93980000D01*
X87661313Y-93813177D01*
X87709976Y-93652758D01*
X87788995Y-93504924D01*
X87788996Y-93504922D01*
X87895341Y-93375341D01*
X88024922Y-93268996D01*
X88040094Y-93260886D01*
X88172758Y-93189976D01*
X88333177Y-93141313D01*
X88458196Y-93129000D01*
X89341804Y-93129000D01*
X89466823Y-93141313D01*
G37*
G36*
X74226823Y-93141313D02*
G01*
X74387242Y-93189976D01*
X74519906Y-93260886D01*
X74535078Y-93268996D01*
X74664659Y-93375341D01*
X74771004Y-93504922D01*
X74771005Y-93504924D01*
X74850024Y-93652758D01*
X74898687Y-93813177D01*
X74915117Y-93980000D01*
X74898687Y-94146823D01*
X74850024Y-94307242D01*
X74786128Y-94426782D01*
X74771004Y-94455078D01*
X74664659Y-94584659D01*
X74535078Y-94691004D01*
X74535076Y-94691005D01*
X74387242Y-94770024D01*
X74226823Y-94818687D01*
X74101804Y-94831000D01*
X73218196Y-94831000D01*
X73093177Y-94818687D01*
X72932758Y-94770024D01*
X72784924Y-94691005D01*
X72784922Y-94691004D01*
X72655341Y-94584659D01*
X72548996Y-94455078D01*
X72533872Y-94426782D01*
X72469976Y-94307242D01*
X72421313Y-94146823D01*
X72404883Y-93980000D01*
X72421313Y-93813177D01*
X72469976Y-93652758D01*
X72548995Y-93504924D01*
X72548996Y-93504922D01*
X72655341Y-93375341D01*
X72784922Y-93268996D01*
X72800094Y-93260886D01*
X72932758Y-93189976D01*
X73093177Y-93141313D01*
X73218196Y-93129000D01*
X74101804Y-93129000D01*
X74226823Y-93141313D01*
G37*
G36*
X102166823Y-93141313D02*
G01*
X102327242Y-93189976D01*
X102459906Y-93260886D01*
X102475078Y-93268996D01*
X102604659Y-93375341D01*
X102711004Y-93504922D01*
X102711005Y-93504924D01*
X102790024Y-93652758D01*
X102838687Y-93813177D01*
X102855117Y-93980000D01*
X102838687Y-94146823D01*
X102790024Y-94307242D01*
X102726128Y-94426782D01*
X102711004Y-94455078D01*
X102604659Y-94584659D01*
X102475078Y-94691004D01*
X102475076Y-94691005D01*
X102327242Y-94770024D01*
X102166823Y-94818687D01*
X102041804Y-94831000D01*
X101158196Y-94831000D01*
X101033177Y-94818687D01*
X100872758Y-94770024D01*
X100724924Y-94691005D01*
X100724922Y-94691004D01*
X100595341Y-94584659D01*
X100488996Y-94455078D01*
X100473872Y-94426782D01*
X100409976Y-94307242D01*
X100361313Y-94146823D01*
X100344883Y-93980000D01*
X100361313Y-93813177D01*
X100409976Y-93652758D01*
X100488995Y-93504924D01*
X100488996Y-93504922D01*
X100595341Y-93375341D01*
X100724922Y-93268996D01*
X100740094Y-93260886D01*
X100872758Y-93189976D01*
X101033177Y-93141313D01*
X101158196Y-93129000D01*
X102041804Y-93129000D01*
X102166823Y-93141313D01*
G37*
G36*
X59693512Y-90563927D02*
G01*
X59842812Y-90593624D01*
X60006784Y-90661544D01*
X60154354Y-90760147D01*
X60279853Y-90885646D01*
X60378456Y-91033216D01*
X60446376Y-91197188D01*
X60481000Y-91371259D01*
X60481000Y-91548741D01*
X60446376Y-91722812D01*
X60378456Y-91886784D01*
X60279853Y-92034354D01*
X60154354Y-92159853D01*
X60006784Y-92258456D01*
X59842812Y-92326376D01*
X59693512Y-92356073D01*
X59668742Y-92361000D01*
X59491258Y-92361000D01*
X59466488Y-92356073D01*
X59317188Y-92326376D01*
X59153216Y-92258456D01*
X59005646Y-92159853D01*
X58880147Y-92034354D01*
X58781544Y-91886784D01*
X58713624Y-91722812D01*
X58679000Y-91548741D01*
X58679000Y-91371259D01*
X58713624Y-91197188D01*
X58781544Y-91033216D01*
X58880147Y-90885646D01*
X59005646Y-90760147D01*
X59153216Y-90661544D01*
X59317188Y-90593624D01*
X59466488Y-90563927D01*
X59491258Y-90559000D01*
X59668742Y-90559000D01*
X59693512Y-90563927D01*
G37*
G36*
X68693512Y-90563927D02*
G01*
X68842812Y-90593624D01*
X69006784Y-90661544D01*
X69154354Y-90760147D01*
X69279853Y-90885646D01*
X69378456Y-91033216D01*
X69446376Y-91197188D01*
X69481000Y-91371259D01*
X69481000Y-91548741D01*
X69446376Y-91722812D01*
X69378456Y-91886784D01*
X69279853Y-92034354D01*
X69154354Y-92159853D01*
X69006784Y-92258456D01*
X68842812Y-92326376D01*
X68693512Y-92356073D01*
X68668742Y-92361000D01*
X68491258Y-92361000D01*
X68466488Y-92356073D01*
X68317188Y-92326376D01*
X68153216Y-92258456D01*
X68005646Y-92159853D01*
X67880147Y-92034354D01*
X67781544Y-91886784D01*
X67713624Y-91722812D01*
X67679000Y-91548741D01*
X67679000Y-91371259D01*
X67713624Y-91197188D01*
X67781544Y-91033216D01*
X67880147Y-90885646D01*
X68005646Y-90760147D01*
X68153216Y-90661544D01*
X68317188Y-90593624D01*
X68466488Y-90563927D01*
X68491258Y-90559000D01*
X68668742Y-90559000D01*
X68693512Y-90563927D01*
G37*
G36*
X83933512Y-90563927D02*
G01*
X84082812Y-90593624D01*
X84246784Y-90661544D01*
X84394354Y-90760147D01*
X84519853Y-90885646D01*
X84618456Y-91033216D01*
X84686376Y-91197188D01*
X84721000Y-91371259D01*
X84721000Y-91548741D01*
X84686376Y-91722812D01*
X84618456Y-91886784D01*
X84519853Y-92034354D01*
X84394354Y-92159853D01*
X84246784Y-92258456D01*
X84082812Y-92326376D01*
X83933512Y-92356073D01*
X83908742Y-92361000D01*
X83731258Y-92361000D01*
X83706488Y-92356073D01*
X83557188Y-92326376D01*
X83393216Y-92258456D01*
X83245646Y-92159853D01*
X83120147Y-92034354D01*
X83021544Y-91886784D01*
X82953624Y-91722812D01*
X82919000Y-91548741D01*
X82919000Y-91371259D01*
X82953624Y-91197188D01*
X83021544Y-91033216D01*
X83120147Y-90885646D01*
X83245646Y-90760147D01*
X83393216Y-90661544D01*
X83557188Y-90593624D01*
X83706488Y-90563927D01*
X83731258Y-90559000D01*
X83908742Y-90559000D01*
X83933512Y-90563927D01*
G37*
G36*
X108173512Y-90543927D02*
G01*
X108322812Y-90573624D01*
X108486784Y-90641544D01*
X108634354Y-90740147D01*
X108759853Y-90865646D01*
X108858456Y-91013216D01*
X108926376Y-91177188D01*
X108961000Y-91351259D01*
X108961000Y-91528741D01*
X108926376Y-91702812D01*
X108858456Y-91866784D01*
X108759853Y-92014354D01*
X108634354Y-92139853D01*
X108486784Y-92238456D01*
X108322812Y-92306376D01*
X108173512Y-92336073D01*
X108148742Y-92341000D01*
X107971258Y-92341000D01*
X107946488Y-92336073D01*
X107797188Y-92306376D01*
X107633216Y-92238456D01*
X107485646Y-92139853D01*
X107360147Y-92014354D01*
X107261544Y-91866784D01*
X107193624Y-91702812D01*
X107159000Y-91528741D01*
X107159000Y-91351259D01*
X107193624Y-91177188D01*
X107261544Y-91013216D01*
X107360147Y-90865646D01*
X107485646Y-90740147D01*
X107633216Y-90641544D01*
X107797188Y-90573624D01*
X107946488Y-90543927D01*
X107971258Y-90539000D01*
X108148742Y-90539000D01*
X108173512Y-90543927D01*
G37*
G36*
X92933512Y-90543927D02*
G01*
X93082812Y-90573624D01*
X93246784Y-90641544D01*
X93394354Y-90740147D01*
X93519853Y-90865646D01*
X93618456Y-91013216D01*
X93686376Y-91177188D01*
X93721000Y-91351259D01*
X93721000Y-91528741D01*
X93686376Y-91702812D01*
X93618456Y-91866784D01*
X93519853Y-92014354D01*
X93394354Y-92139853D01*
X93246784Y-92238456D01*
X93082812Y-92306376D01*
X92933512Y-92336073D01*
X92908742Y-92341000D01*
X92731258Y-92341000D01*
X92706488Y-92336073D01*
X92557188Y-92306376D01*
X92393216Y-92238456D01*
X92245646Y-92139853D01*
X92120147Y-92014354D01*
X92021544Y-91866784D01*
X91953624Y-91702812D01*
X91919000Y-91528741D01*
X91919000Y-91351259D01*
X91953624Y-91177188D01*
X92021544Y-91013216D01*
X92120147Y-90865646D01*
X92245646Y-90740147D01*
X92393216Y-90641544D01*
X92557188Y-90573624D01*
X92706488Y-90543927D01*
X92731258Y-90539000D01*
X92908742Y-90539000D01*
X92933512Y-90543927D01*
G37*
G36*
X117406823Y-90601313D02*
G01*
X117567242Y-90649976D01*
X117699906Y-90720886D01*
X117715078Y-90728996D01*
X117844659Y-90835341D01*
X117951004Y-90964922D01*
X117951005Y-90964924D01*
X118030024Y-91112758D01*
X118078687Y-91273177D01*
X118095117Y-91440000D01*
X118078687Y-91606823D01*
X118030024Y-91767242D01*
X117966128Y-91886782D01*
X117951004Y-91915078D01*
X117844659Y-92044659D01*
X117715078Y-92151004D01*
X117715076Y-92151005D01*
X117567242Y-92230024D01*
X117406823Y-92278687D01*
X117281804Y-92291000D01*
X116398196Y-92291000D01*
X116273177Y-92278687D01*
X116112758Y-92230024D01*
X115964924Y-92151005D01*
X115964922Y-92151004D01*
X115835341Y-92044659D01*
X115728996Y-91915078D01*
X115713872Y-91886782D01*
X115649976Y-91767242D01*
X115601313Y-91606823D01*
X115584883Y-91440000D01*
X115601313Y-91273177D01*
X115649976Y-91112758D01*
X115728995Y-90964924D01*
X115728996Y-90964922D01*
X115835341Y-90835341D01*
X115964922Y-90728996D01*
X115980094Y-90720886D01*
X116112758Y-90649976D01*
X116273177Y-90601313D01*
X116398196Y-90589000D01*
X117281804Y-90589000D01*
X117406823Y-90601313D01*
G37*
G36*
X102166823Y-90601313D02*
G01*
X102327242Y-90649976D01*
X102459906Y-90720886D01*
X102475078Y-90728996D01*
X102604659Y-90835341D01*
X102711004Y-90964922D01*
X102711005Y-90964924D01*
X102790024Y-91112758D01*
X102838687Y-91273177D01*
X102855117Y-91440000D01*
X102838687Y-91606823D01*
X102790024Y-91767242D01*
X102726128Y-91886782D01*
X102711004Y-91915078D01*
X102604659Y-92044659D01*
X102475078Y-92151004D01*
X102475076Y-92151005D01*
X102327242Y-92230024D01*
X102166823Y-92278687D01*
X102041804Y-92291000D01*
X101158196Y-92291000D01*
X101033177Y-92278687D01*
X100872758Y-92230024D01*
X100724924Y-92151005D01*
X100724922Y-92151004D01*
X100595341Y-92044659D01*
X100488996Y-91915078D01*
X100473872Y-91886782D01*
X100409976Y-91767242D01*
X100361313Y-91606823D01*
X100344883Y-91440000D01*
X100361313Y-91273177D01*
X100409976Y-91112758D01*
X100488995Y-90964924D01*
X100488996Y-90964922D01*
X100595341Y-90835341D01*
X100724922Y-90728996D01*
X100740094Y-90720886D01*
X100872758Y-90649976D01*
X101033177Y-90601313D01*
X101158196Y-90589000D01*
X102041804Y-90589000D01*
X102166823Y-90601313D01*
G37*
G36*
X89466823Y-90601313D02*
G01*
X89627242Y-90649976D01*
X89759906Y-90720886D01*
X89775078Y-90728996D01*
X89904659Y-90835341D01*
X90011004Y-90964922D01*
X90011005Y-90964924D01*
X90090024Y-91112758D01*
X90138687Y-91273177D01*
X90155117Y-91440000D01*
X90138687Y-91606823D01*
X90090024Y-91767242D01*
X90026128Y-91886782D01*
X90011004Y-91915078D01*
X89904659Y-92044659D01*
X89775078Y-92151004D01*
X89775076Y-92151005D01*
X89627242Y-92230024D01*
X89466823Y-92278687D01*
X89341804Y-92291000D01*
X88458196Y-92291000D01*
X88333177Y-92278687D01*
X88172758Y-92230024D01*
X88024924Y-92151005D01*
X88024922Y-92151004D01*
X87895341Y-92044659D01*
X87788996Y-91915078D01*
X87773872Y-91886782D01*
X87709976Y-91767242D01*
X87661313Y-91606823D01*
X87644883Y-91440000D01*
X87661313Y-91273177D01*
X87709976Y-91112758D01*
X87788995Y-90964924D01*
X87788996Y-90964922D01*
X87895341Y-90835341D01*
X88024922Y-90728996D01*
X88040094Y-90720886D01*
X88172758Y-90649976D01*
X88333177Y-90601313D01*
X88458196Y-90589000D01*
X89341804Y-90589000D01*
X89466823Y-90601313D01*
G37*
G36*
X74226823Y-90601313D02*
G01*
X74387242Y-90649976D01*
X74519906Y-90720886D01*
X74535078Y-90728996D01*
X74664659Y-90835341D01*
X74771004Y-90964922D01*
X74771005Y-90964924D01*
X74850024Y-91112758D01*
X74898687Y-91273177D01*
X74915117Y-91440000D01*
X74898687Y-91606823D01*
X74850024Y-91767242D01*
X74786128Y-91886782D01*
X74771004Y-91915078D01*
X74664659Y-92044659D01*
X74535078Y-92151004D01*
X74535076Y-92151005D01*
X74387242Y-92230024D01*
X74226823Y-92278687D01*
X74101804Y-92291000D01*
X73218196Y-92291000D01*
X73093177Y-92278687D01*
X72932758Y-92230024D01*
X72784924Y-92151005D01*
X72784922Y-92151004D01*
X72655341Y-92044659D01*
X72548996Y-91915078D01*
X72533872Y-91886782D01*
X72469976Y-91767242D01*
X72421313Y-91606823D01*
X72404883Y-91440000D01*
X72421313Y-91273177D01*
X72469976Y-91112758D01*
X72548995Y-90964924D01*
X72548996Y-90964922D01*
X72655341Y-90835341D01*
X72784922Y-90728996D01*
X72800094Y-90720886D01*
X72932758Y-90649976D01*
X73093177Y-90601313D01*
X73218196Y-90589000D01*
X74101804Y-90589000D01*
X74226823Y-90601313D01*
G37*
G36*
X64066823Y-90601313D02*
G01*
X64227242Y-90649976D01*
X64359906Y-90720886D01*
X64375078Y-90728996D01*
X64504659Y-90835341D01*
X64611004Y-90964922D01*
X64611005Y-90964924D01*
X64690024Y-91112758D01*
X64738687Y-91273177D01*
X64755117Y-91440000D01*
X64738687Y-91606823D01*
X64690024Y-91767242D01*
X64626128Y-91886782D01*
X64611004Y-91915078D01*
X64504659Y-92044659D01*
X64375078Y-92151004D01*
X64375076Y-92151005D01*
X64227242Y-92230024D01*
X64066823Y-92278687D01*
X63941804Y-92291000D01*
X63058196Y-92291000D01*
X62933177Y-92278687D01*
X62772758Y-92230024D01*
X62624924Y-92151005D01*
X62624922Y-92151004D01*
X62495341Y-92044659D01*
X62388996Y-91915078D01*
X62373872Y-91886782D01*
X62309976Y-91767242D01*
X62261313Y-91606823D01*
X62244883Y-91440000D01*
X62261313Y-91273177D01*
X62309976Y-91112758D01*
X62388995Y-90964924D01*
X62388996Y-90964922D01*
X62495341Y-90835341D01*
X62624922Y-90728996D01*
X62640094Y-90720886D01*
X62772758Y-90649976D01*
X62933177Y-90601313D01*
X63058196Y-90589000D01*
X63941804Y-90589000D01*
X64066823Y-90601313D01*
G37*
G36*
X48826823Y-90601313D02*
G01*
X48987242Y-90649976D01*
X49119906Y-90720886D01*
X49135078Y-90728996D01*
X49264659Y-90835341D01*
X49371004Y-90964922D01*
X49371005Y-90964924D01*
X49450024Y-91112758D01*
X49498687Y-91273177D01*
X49515117Y-91440000D01*
X49498687Y-91606823D01*
X49450024Y-91767242D01*
X49386128Y-91886782D01*
X49371004Y-91915078D01*
X49264659Y-92044659D01*
X49135078Y-92151004D01*
X49135076Y-92151005D01*
X48987242Y-92230024D01*
X48826823Y-92278687D01*
X48701804Y-92291000D01*
X47818196Y-92291000D01*
X47693177Y-92278687D01*
X47532758Y-92230024D01*
X47384924Y-92151005D01*
X47384922Y-92151004D01*
X47255341Y-92044659D01*
X47148996Y-91915078D01*
X47133872Y-91886782D01*
X47069976Y-91767242D01*
X47021313Y-91606823D01*
X47004883Y-91440000D01*
X47021313Y-91273177D01*
X47069976Y-91112758D01*
X47148995Y-90964924D01*
X47148996Y-90964922D01*
X47255341Y-90835341D01*
X47384922Y-90728996D01*
X47400094Y-90720886D01*
X47532758Y-90649976D01*
X47693177Y-90601313D01*
X47818196Y-90589000D01*
X48701804Y-90589000D01*
X48826823Y-90601313D01*
G37*
G36*
X83933512Y-88023927D02*
G01*
X84082812Y-88053624D01*
X84246784Y-88121544D01*
X84394354Y-88220147D01*
X84519853Y-88345646D01*
X84618456Y-88493216D01*
X84686376Y-88657188D01*
X84721000Y-88831259D01*
X84721000Y-89008741D01*
X84686376Y-89182812D01*
X84618456Y-89346784D01*
X84519853Y-89494354D01*
X84394354Y-89619853D01*
X84246784Y-89718456D01*
X84082812Y-89786376D01*
X83933512Y-89816073D01*
X83908742Y-89821000D01*
X83731258Y-89821000D01*
X83706488Y-89816073D01*
X83557188Y-89786376D01*
X83393216Y-89718456D01*
X83245646Y-89619853D01*
X83120147Y-89494354D01*
X83021544Y-89346784D01*
X82953624Y-89182812D01*
X82919000Y-89008741D01*
X82919000Y-88831259D01*
X82953624Y-88657188D01*
X83021544Y-88493216D01*
X83120147Y-88345646D01*
X83245646Y-88220147D01*
X83393216Y-88121544D01*
X83557188Y-88053624D01*
X83706488Y-88023927D01*
X83731258Y-88019000D01*
X83908742Y-88019000D01*
X83933512Y-88023927D01*
G37*
G36*
X68693512Y-88023927D02*
G01*
X68842812Y-88053624D01*
X69006784Y-88121544D01*
X69154354Y-88220147D01*
X69279853Y-88345646D01*
X69378456Y-88493216D01*
X69446376Y-88657188D01*
X69481000Y-88831259D01*
X69481000Y-89008741D01*
X69446376Y-89182812D01*
X69378456Y-89346784D01*
X69279853Y-89494354D01*
X69154354Y-89619853D01*
X69006784Y-89718456D01*
X68842812Y-89786376D01*
X68693512Y-89816073D01*
X68668742Y-89821000D01*
X68491258Y-89821000D01*
X68466488Y-89816073D01*
X68317188Y-89786376D01*
X68153216Y-89718456D01*
X68005646Y-89619853D01*
X67880147Y-89494354D01*
X67781544Y-89346784D01*
X67713624Y-89182812D01*
X67679000Y-89008741D01*
X67679000Y-88831259D01*
X67713624Y-88657188D01*
X67781544Y-88493216D01*
X67880147Y-88345646D01*
X68005646Y-88220147D01*
X68153216Y-88121544D01*
X68317188Y-88053624D01*
X68466488Y-88023927D01*
X68491258Y-88019000D01*
X68668742Y-88019000D01*
X68693512Y-88023927D01*
G37*
G36*
X59693512Y-88023927D02*
G01*
X59842812Y-88053624D01*
X60006784Y-88121544D01*
X60154354Y-88220147D01*
X60279853Y-88345646D01*
X60378456Y-88493216D01*
X60446376Y-88657188D01*
X60481000Y-88831259D01*
X60481000Y-89008741D01*
X60446376Y-89182812D01*
X60378456Y-89346784D01*
X60279853Y-89494354D01*
X60154354Y-89619853D01*
X60006784Y-89718456D01*
X59842812Y-89786376D01*
X59693512Y-89816073D01*
X59668742Y-89821000D01*
X59491258Y-89821000D01*
X59466488Y-89816073D01*
X59317188Y-89786376D01*
X59153216Y-89718456D01*
X59005646Y-89619853D01*
X58880147Y-89494354D01*
X58781544Y-89346784D01*
X58713624Y-89182812D01*
X58679000Y-89008741D01*
X58679000Y-88831259D01*
X58713624Y-88657188D01*
X58781544Y-88493216D01*
X58880147Y-88345646D01*
X59005646Y-88220147D01*
X59153216Y-88121544D01*
X59317188Y-88053624D01*
X59466488Y-88023927D01*
X59491258Y-88019000D01*
X59668742Y-88019000D01*
X59693512Y-88023927D01*
G37*
G36*
X108173512Y-88003927D02*
G01*
X108322812Y-88033624D01*
X108486784Y-88101544D01*
X108634354Y-88200147D01*
X108759853Y-88325646D01*
X108858456Y-88473216D01*
X108926376Y-88637188D01*
X108961000Y-88811259D01*
X108961000Y-88988741D01*
X108926376Y-89162812D01*
X108858456Y-89326784D01*
X108759853Y-89474354D01*
X108634354Y-89599853D01*
X108486784Y-89698456D01*
X108322812Y-89766376D01*
X108173512Y-89796073D01*
X108148742Y-89801000D01*
X107971258Y-89801000D01*
X107946488Y-89796073D01*
X107797188Y-89766376D01*
X107633216Y-89698456D01*
X107485646Y-89599853D01*
X107360147Y-89474354D01*
X107261544Y-89326784D01*
X107193624Y-89162812D01*
X107159000Y-88988741D01*
X107159000Y-88811259D01*
X107193624Y-88637188D01*
X107261544Y-88473216D01*
X107360147Y-88325646D01*
X107485646Y-88200147D01*
X107633216Y-88101544D01*
X107797188Y-88033624D01*
X107946488Y-88003927D01*
X107971258Y-87999000D01*
X108148742Y-87999000D01*
X108173512Y-88003927D01*
G37*
G36*
X92933512Y-88003927D02*
G01*
X93082812Y-88033624D01*
X93246784Y-88101544D01*
X93394354Y-88200147D01*
X93519853Y-88325646D01*
X93618456Y-88473216D01*
X93686376Y-88637188D01*
X93721000Y-88811259D01*
X93721000Y-88988741D01*
X93686376Y-89162812D01*
X93618456Y-89326784D01*
X93519853Y-89474354D01*
X93394354Y-89599853D01*
X93246784Y-89698456D01*
X93082812Y-89766376D01*
X92933512Y-89796073D01*
X92908742Y-89801000D01*
X92731258Y-89801000D01*
X92706488Y-89796073D01*
X92557188Y-89766376D01*
X92393216Y-89698456D01*
X92245646Y-89599853D01*
X92120147Y-89474354D01*
X92021544Y-89326784D01*
X91953624Y-89162812D01*
X91919000Y-88988741D01*
X91919000Y-88811259D01*
X91953624Y-88637188D01*
X92021544Y-88473216D01*
X92120147Y-88325646D01*
X92245646Y-88200147D01*
X92393216Y-88101544D01*
X92557188Y-88033624D01*
X92706488Y-88003927D01*
X92731258Y-87999000D01*
X92908742Y-87999000D01*
X92933512Y-88003927D01*
G37*
G36*
X48826823Y-88061313D02*
G01*
X48987242Y-88109976D01*
X49119906Y-88180886D01*
X49135078Y-88188996D01*
X49264659Y-88295341D01*
X49371004Y-88424922D01*
X49371005Y-88424924D01*
X49450024Y-88572758D01*
X49498687Y-88733177D01*
X49515117Y-88900000D01*
X49498687Y-89066823D01*
X49450024Y-89227242D01*
X49386128Y-89346782D01*
X49371004Y-89375078D01*
X49264659Y-89504659D01*
X49135078Y-89611004D01*
X49135076Y-89611005D01*
X48987242Y-89690024D01*
X48826823Y-89738687D01*
X48701804Y-89751000D01*
X47818196Y-89751000D01*
X47693177Y-89738687D01*
X47532758Y-89690024D01*
X47384924Y-89611005D01*
X47384922Y-89611004D01*
X47255341Y-89504659D01*
X47148996Y-89375078D01*
X47133872Y-89346782D01*
X47069976Y-89227242D01*
X47021313Y-89066823D01*
X47004883Y-88900000D01*
X47021313Y-88733177D01*
X47069976Y-88572758D01*
X47148995Y-88424924D01*
X47148996Y-88424922D01*
X47255341Y-88295341D01*
X47384922Y-88188996D01*
X47400094Y-88180886D01*
X47532758Y-88109976D01*
X47693177Y-88061313D01*
X47818196Y-88049000D01*
X48701804Y-88049000D01*
X48826823Y-88061313D01*
G37*
G36*
X117406823Y-88061313D02*
G01*
X117567242Y-88109976D01*
X117699906Y-88180886D01*
X117715078Y-88188996D01*
X117844659Y-88295341D01*
X117951004Y-88424922D01*
X117951005Y-88424924D01*
X118030024Y-88572758D01*
X118078687Y-88733177D01*
X118095117Y-88900000D01*
X118078687Y-89066823D01*
X118030024Y-89227242D01*
X117966128Y-89346782D01*
X117951004Y-89375078D01*
X117844659Y-89504659D01*
X117715078Y-89611004D01*
X117715076Y-89611005D01*
X117567242Y-89690024D01*
X117406823Y-89738687D01*
X117281804Y-89751000D01*
X116398196Y-89751000D01*
X116273177Y-89738687D01*
X116112758Y-89690024D01*
X115964924Y-89611005D01*
X115964922Y-89611004D01*
X115835341Y-89504659D01*
X115728996Y-89375078D01*
X115713872Y-89346782D01*
X115649976Y-89227242D01*
X115601313Y-89066823D01*
X115584883Y-88900000D01*
X115601313Y-88733177D01*
X115649976Y-88572758D01*
X115728995Y-88424924D01*
X115728996Y-88424922D01*
X115835341Y-88295341D01*
X115964922Y-88188996D01*
X115980094Y-88180886D01*
X116112758Y-88109976D01*
X116273177Y-88061313D01*
X116398196Y-88049000D01*
X117281804Y-88049000D01*
X117406823Y-88061313D01*
G37*
G36*
X102166823Y-88061313D02*
G01*
X102327242Y-88109976D01*
X102459906Y-88180886D01*
X102475078Y-88188996D01*
X102604659Y-88295341D01*
X102711004Y-88424922D01*
X102711005Y-88424924D01*
X102790024Y-88572758D01*
X102838687Y-88733177D01*
X102855117Y-88900000D01*
X102838687Y-89066823D01*
X102790024Y-89227242D01*
X102726128Y-89346782D01*
X102711004Y-89375078D01*
X102604659Y-89504659D01*
X102475078Y-89611004D01*
X102475076Y-89611005D01*
X102327242Y-89690024D01*
X102166823Y-89738687D01*
X102041804Y-89751000D01*
X101158196Y-89751000D01*
X101033177Y-89738687D01*
X100872758Y-89690024D01*
X100724924Y-89611005D01*
X100724922Y-89611004D01*
X100595341Y-89504659D01*
X100488996Y-89375078D01*
X100473872Y-89346782D01*
X100409976Y-89227242D01*
X100361313Y-89066823D01*
X100344883Y-88900000D01*
X100361313Y-88733177D01*
X100409976Y-88572758D01*
X100488995Y-88424924D01*
X100488996Y-88424922D01*
X100595341Y-88295341D01*
X100724922Y-88188996D01*
X100740094Y-88180886D01*
X100872758Y-88109976D01*
X101033177Y-88061313D01*
X101158196Y-88049000D01*
X102041804Y-88049000D01*
X102166823Y-88061313D01*
G37*
G36*
X89466823Y-88061313D02*
G01*
X89627242Y-88109976D01*
X89759906Y-88180886D01*
X89775078Y-88188996D01*
X89904659Y-88295341D01*
X90011004Y-88424922D01*
X90011005Y-88424924D01*
X90090024Y-88572758D01*
X90138687Y-88733177D01*
X90155117Y-88900000D01*
X90138687Y-89066823D01*
X90090024Y-89227242D01*
X90026128Y-89346782D01*
X90011004Y-89375078D01*
X89904659Y-89504659D01*
X89775078Y-89611004D01*
X89775076Y-89611005D01*
X89627242Y-89690024D01*
X89466823Y-89738687D01*
X89341804Y-89751000D01*
X88458196Y-89751000D01*
X88333177Y-89738687D01*
X88172758Y-89690024D01*
X88024924Y-89611005D01*
X88024922Y-89611004D01*
X87895341Y-89504659D01*
X87788996Y-89375078D01*
X87773872Y-89346782D01*
X87709976Y-89227242D01*
X87661313Y-89066823D01*
X87644883Y-88900000D01*
X87661313Y-88733177D01*
X87709976Y-88572758D01*
X87788995Y-88424924D01*
X87788996Y-88424922D01*
X87895341Y-88295341D01*
X88024922Y-88188996D01*
X88040094Y-88180886D01*
X88172758Y-88109976D01*
X88333177Y-88061313D01*
X88458196Y-88049000D01*
X89341804Y-88049000D01*
X89466823Y-88061313D01*
G37*
G36*
X74226823Y-88061313D02*
G01*
X74387242Y-88109976D01*
X74519906Y-88180886D01*
X74535078Y-88188996D01*
X74664659Y-88295341D01*
X74771004Y-88424922D01*
X74771005Y-88424924D01*
X74850024Y-88572758D01*
X74898687Y-88733177D01*
X74915117Y-88900000D01*
X74898687Y-89066823D01*
X74850024Y-89227242D01*
X74786128Y-89346782D01*
X74771004Y-89375078D01*
X74664659Y-89504659D01*
X74535078Y-89611004D01*
X74535076Y-89611005D01*
X74387242Y-89690024D01*
X74226823Y-89738687D01*
X74101804Y-89751000D01*
X73218196Y-89751000D01*
X73093177Y-89738687D01*
X72932758Y-89690024D01*
X72784924Y-89611005D01*
X72784922Y-89611004D01*
X72655341Y-89504659D01*
X72548996Y-89375078D01*
X72533872Y-89346782D01*
X72469976Y-89227242D01*
X72421313Y-89066823D01*
X72404883Y-88900000D01*
X72421313Y-88733177D01*
X72469976Y-88572758D01*
X72548995Y-88424924D01*
X72548996Y-88424922D01*
X72655341Y-88295341D01*
X72784922Y-88188996D01*
X72800094Y-88180886D01*
X72932758Y-88109976D01*
X73093177Y-88061313D01*
X73218196Y-88049000D01*
X74101804Y-88049000D01*
X74226823Y-88061313D01*
G37*
G36*
X64066823Y-88061313D02*
G01*
X64227242Y-88109976D01*
X64359906Y-88180886D01*
X64375078Y-88188996D01*
X64504659Y-88295341D01*
X64611004Y-88424922D01*
X64611005Y-88424924D01*
X64690024Y-88572758D01*
X64738687Y-88733177D01*
X64755117Y-88900000D01*
X64738687Y-89066823D01*
X64690024Y-89227242D01*
X64626128Y-89346782D01*
X64611004Y-89375078D01*
X64504659Y-89504659D01*
X64375078Y-89611004D01*
X64375076Y-89611005D01*
X64227242Y-89690024D01*
X64066823Y-89738687D01*
X63941804Y-89751000D01*
X63058196Y-89751000D01*
X62933177Y-89738687D01*
X62772758Y-89690024D01*
X62624924Y-89611005D01*
X62624922Y-89611004D01*
X62495341Y-89504659D01*
X62388996Y-89375078D01*
X62373872Y-89346782D01*
X62309976Y-89227242D01*
X62261313Y-89066823D01*
X62244883Y-88900000D01*
X62261313Y-88733177D01*
X62309976Y-88572758D01*
X62388995Y-88424924D01*
X62388996Y-88424922D01*
X62495341Y-88295341D01*
X62624922Y-88188996D01*
X62640094Y-88180886D01*
X62772758Y-88109976D01*
X62933177Y-88061313D01*
X63058196Y-88049000D01*
X63941804Y-88049000D01*
X64066823Y-88061313D01*
G37*
G36*
X83933512Y-85483927D02*
G01*
X84082812Y-85513624D01*
X84246784Y-85581544D01*
X84394354Y-85680147D01*
X84519853Y-85805646D01*
X84618456Y-85953216D01*
X84686376Y-86117188D01*
X84721000Y-86291259D01*
X84721000Y-86468741D01*
X84686376Y-86642812D01*
X84618456Y-86806784D01*
X84519853Y-86954354D01*
X84394354Y-87079853D01*
X84246784Y-87178456D01*
X84082812Y-87246376D01*
X83933512Y-87276073D01*
X83908742Y-87281000D01*
X83731258Y-87281000D01*
X83706488Y-87276073D01*
X83557188Y-87246376D01*
X83393216Y-87178456D01*
X83245646Y-87079853D01*
X83120147Y-86954354D01*
X83021544Y-86806784D01*
X82953624Y-86642812D01*
X82919000Y-86468741D01*
X82919000Y-86291259D01*
X82953624Y-86117188D01*
X83021544Y-85953216D01*
X83120147Y-85805646D01*
X83245646Y-85680147D01*
X83393216Y-85581544D01*
X83557188Y-85513624D01*
X83706488Y-85483927D01*
X83731258Y-85479000D01*
X83908742Y-85479000D01*
X83933512Y-85483927D01*
G37*
G36*
X68693512Y-85483927D02*
G01*
X68842812Y-85513624D01*
X69006784Y-85581544D01*
X69154354Y-85680147D01*
X69279853Y-85805646D01*
X69378456Y-85953216D01*
X69446376Y-86117188D01*
X69481000Y-86291259D01*
X69481000Y-86468741D01*
X69446376Y-86642812D01*
X69378456Y-86806784D01*
X69279853Y-86954354D01*
X69154354Y-87079853D01*
X69006784Y-87178456D01*
X68842812Y-87246376D01*
X68693512Y-87276073D01*
X68668742Y-87281000D01*
X68491258Y-87281000D01*
X68466488Y-87276073D01*
X68317188Y-87246376D01*
X68153216Y-87178456D01*
X68005646Y-87079853D01*
X67880147Y-86954354D01*
X67781544Y-86806784D01*
X67713624Y-86642812D01*
X67679000Y-86468741D01*
X67679000Y-86291259D01*
X67713624Y-86117188D01*
X67781544Y-85953216D01*
X67880147Y-85805646D01*
X68005646Y-85680147D01*
X68153216Y-85581544D01*
X68317188Y-85513624D01*
X68466488Y-85483927D01*
X68491258Y-85479000D01*
X68668742Y-85479000D01*
X68693512Y-85483927D01*
G37*
G36*
X59693512Y-85483927D02*
G01*
X59842812Y-85513624D01*
X60006784Y-85581544D01*
X60154354Y-85680147D01*
X60279853Y-85805646D01*
X60378456Y-85953216D01*
X60446376Y-86117188D01*
X60481000Y-86291259D01*
X60481000Y-86468741D01*
X60446376Y-86642812D01*
X60378456Y-86806784D01*
X60279853Y-86954354D01*
X60154354Y-87079853D01*
X60006784Y-87178456D01*
X59842812Y-87246376D01*
X59693512Y-87276073D01*
X59668742Y-87281000D01*
X59491258Y-87281000D01*
X59466488Y-87276073D01*
X59317188Y-87246376D01*
X59153216Y-87178456D01*
X59005646Y-87079853D01*
X58880147Y-86954354D01*
X58781544Y-86806784D01*
X58713624Y-86642812D01*
X58679000Y-86468741D01*
X58679000Y-86291259D01*
X58713624Y-86117188D01*
X58781544Y-85953216D01*
X58880147Y-85805646D01*
X59005646Y-85680147D01*
X59153216Y-85581544D01*
X59317188Y-85513624D01*
X59466488Y-85483927D01*
X59491258Y-85479000D01*
X59668742Y-85479000D01*
X59693512Y-85483927D01*
G37*
G36*
X108173512Y-85463927D02*
G01*
X108322812Y-85493624D01*
X108486784Y-85561544D01*
X108634354Y-85660147D01*
X108759853Y-85785646D01*
X108858456Y-85933216D01*
X108926376Y-86097188D01*
X108961000Y-86271259D01*
X108961000Y-86448741D01*
X108926376Y-86622812D01*
X108858456Y-86786784D01*
X108759853Y-86934354D01*
X108634354Y-87059853D01*
X108486784Y-87158456D01*
X108322812Y-87226376D01*
X108173512Y-87256073D01*
X108148742Y-87261000D01*
X107971258Y-87261000D01*
X107946488Y-87256073D01*
X107797188Y-87226376D01*
X107633216Y-87158456D01*
X107485646Y-87059853D01*
X107360147Y-86934354D01*
X107261544Y-86786784D01*
X107193624Y-86622812D01*
X107159000Y-86448741D01*
X107159000Y-86271259D01*
X107193624Y-86097188D01*
X107261544Y-85933216D01*
X107360147Y-85785646D01*
X107485646Y-85660147D01*
X107633216Y-85561544D01*
X107797188Y-85493624D01*
X107946488Y-85463927D01*
X107971258Y-85459000D01*
X108148742Y-85459000D01*
X108173512Y-85463927D01*
G37*
G36*
X92933512Y-85463927D02*
G01*
X93082812Y-85493624D01*
X93246784Y-85561544D01*
X93394354Y-85660147D01*
X93519853Y-85785646D01*
X93618456Y-85933216D01*
X93686376Y-86097188D01*
X93721000Y-86271259D01*
X93721000Y-86448741D01*
X93686376Y-86622812D01*
X93618456Y-86786784D01*
X93519853Y-86934354D01*
X93394354Y-87059853D01*
X93246784Y-87158456D01*
X93082812Y-87226376D01*
X92933512Y-87256073D01*
X92908742Y-87261000D01*
X92731258Y-87261000D01*
X92706488Y-87256073D01*
X92557188Y-87226376D01*
X92393216Y-87158456D01*
X92245646Y-87059853D01*
X92120147Y-86934354D01*
X92021544Y-86786784D01*
X91953624Y-86622812D01*
X91919000Y-86448741D01*
X91919000Y-86271259D01*
X91953624Y-86097188D01*
X92021544Y-85933216D01*
X92120147Y-85785646D01*
X92245646Y-85660147D01*
X92393216Y-85561544D01*
X92557188Y-85493624D01*
X92706488Y-85463927D01*
X92731258Y-85459000D01*
X92908742Y-85459000D01*
X92933512Y-85463927D01*
G37*
G36*
X64066823Y-85521313D02*
G01*
X64227242Y-85569976D01*
X64359906Y-85640886D01*
X64375078Y-85648996D01*
X64504659Y-85755341D01*
X64611004Y-85884922D01*
X64611005Y-85884924D01*
X64690024Y-86032758D01*
X64738687Y-86193177D01*
X64755117Y-86360000D01*
X64738687Y-86526823D01*
X64690024Y-86687242D01*
X64626128Y-86806782D01*
X64611004Y-86835078D01*
X64504659Y-86964659D01*
X64375078Y-87071004D01*
X64375076Y-87071005D01*
X64227242Y-87150024D01*
X64066823Y-87198687D01*
X63941804Y-87211000D01*
X63058196Y-87211000D01*
X62933177Y-87198687D01*
X62772758Y-87150024D01*
X62624924Y-87071005D01*
X62624922Y-87071004D01*
X62495341Y-86964659D01*
X62388996Y-86835078D01*
X62373872Y-86806782D01*
X62309976Y-86687242D01*
X62261313Y-86526823D01*
X62244883Y-86360000D01*
X62261313Y-86193177D01*
X62309976Y-86032758D01*
X62388995Y-85884924D01*
X62388996Y-85884922D01*
X62495341Y-85755341D01*
X62624922Y-85648996D01*
X62640094Y-85640886D01*
X62772758Y-85569976D01*
X62933177Y-85521313D01*
X63058196Y-85509000D01*
X63941804Y-85509000D01*
X64066823Y-85521313D01*
G37*
G36*
X74226823Y-85521313D02*
G01*
X74387242Y-85569976D01*
X74519906Y-85640886D01*
X74535078Y-85648996D01*
X74664659Y-85755341D01*
X74771004Y-85884922D01*
X74771005Y-85884924D01*
X74850024Y-86032758D01*
X74898687Y-86193177D01*
X74915117Y-86360000D01*
X74898687Y-86526823D01*
X74850024Y-86687242D01*
X74786128Y-86806782D01*
X74771004Y-86835078D01*
X74664659Y-86964659D01*
X74535078Y-87071004D01*
X74535076Y-87071005D01*
X74387242Y-87150024D01*
X74226823Y-87198687D01*
X74101804Y-87211000D01*
X73218196Y-87211000D01*
X73093177Y-87198687D01*
X72932758Y-87150024D01*
X72784924Y-87071005D01*
X72784922Y-87071004D01*
X72655341Y-86964659D01*
X72548996Y-86835078D01*
X72533872Y-86806782D01*
X72469976Y-86687242D01*
X72421313Y-86526823D01*
X72404883Y-86360000D01*
X72421313Y-86193177D01*
X72469976Y-86032758D01*
X72548995Y-85884924D01*
X72548996Y-85884922D01*
X72655341Y-85755341D01*
X72784922Y-85648996D01*
X72800094Y-85640886D01*
X72932758Y-85569976D01*
X73093177Y-85521313D01*
X73218196Y-85509000D01*
X74101804Y-85509000D01*
X74226823Y-85521313D01*
G37*
G36*
X117406823Y-85521313D02*
G01*
X117567242Y-85569976D01*
X117699906Y-85640886D01*
X117715078Y-85648996D01*
X117844659Y-85755341D01*
X117951004Y-85884922D01*
X117951005Y-85884924D01*
X118030024Y-86032758D01*
X118078687Y-86193177D01*
X118095117Y-86360000D01*
X118078687Y-86526823D01*
X118030024Y-86687242D01*
X117966128Y-86806782D01*
X117951004Y-86835078D01*
X117844659Y-86964659D01*
X117715078Y-87071004D01*
X117715076Y-87071005D01*
X117567242Y-87150024D01*
X117406823Y-87198687D01*
X117281804Y-87211000D01*
X116398196Y-87211000D01*
X116273177Y-87198687D01*
X116112758Y-87150024D01*
X115964924Y-87071005D01*
X115964922Y-87071004D01*
X115835341Y-86964659D01*
X115728996Y-86835078D01*
X115713872Y-86806782D01*
X115649976Y-86687242D01*
X115601313Y-86526823D01*
X115584883Y-86360000D01*
X115601313Y-86193177D01*
X115649976Y-86032758D01*
X115728995Y-85884924D01*
X115728996Y-85884922D01*
X115835341Y-85755341D01*
X115964922Y-85648996D01*
X115980094Y-85640886D01*
X116112758Y-85569976D01*
X116273177Y-85521313D01*
X116398196Y-85509000D01*
X117281804Y-85509000D01*
X117406823Y-85521313D01*
G37*
G36*
X102166823Y-85521313D02*
G01*
X102327242Y-85569976D01*
X102459906Y-85640886D01*
X102475078Y-85648996D01*
X102604659Y-85755341D01*
X102711004Y-85884922D01*
X102711005Y-85884924D01*
X102790024Y-86032758D01*
X102838687Y-86193177D01*
X102855117Y-86360000D01*
X102838687Y-86526823D01*
X102790024Y-86687242D01*
X102726128Y-86806782D01*
X102711004Y-86835078D01*
X102604659Y-86964659D01*
X102475078Y-87071004D01*
X102475076Y-87071005D01*
X102327242Y-87150024D01*
X102166823Y-87198687D01*
X102041804Y-87211000D01*
X101158196Y-87211000D01*
X101033177Y-87198687D01*
X100872758Y-87150024D01*
X100724924Y-87071005D01*
X100724922Y-87071004D01*
X100595341Y-86964659D01*
X100488996Y-86835078D01*
X100473872Y-86806782D01*
X100409976Y-86687242D01*
X100361313Y-86526823D01*
X100344883Y-86360000D01*
X100361313Y-86193177D01*
X100409976Y-86032758D01*
X100488995Y-85884924D01*
X100488996Y-85884922D01*
X100595341Y-85755341D01*
X100724922Y-85648996D01*
X100740094Y-85640886D01*
X100872758Y-85569976D01*
X101033177Y-85521313D01*
X101158196Y-85509000D01*
X102041804Y-85509000D01*
X102166823Y-85521313D01*
G37*
G36*
X89466823Y-85521313D02*
G01*
X89627242Y-85569976D01*
X89759906Y-85640886D01*
X89775078Y-85648996D01*
X89904659Y-85755341D01*
X90011004Y-85884922D01*
X90011005Y-85884924D01*
X90090024Y-86032758D01*
X90138687Y-86193177D01*
X90155117Y-86360000D01*
X90138687Y-86526823D01*
X90090024Y-86687242D01*
X90026128Y-86806782D01*
X90011004Y-86835078D01*
X89904659Y-86964659D01*
X89775078Y-87071004D01*
X89775076Y-87071005D01*
X89627242Y-87150024D01*
X89466823Y-87198687D01*
X89341804Y-87211000D01*
X88458196Y-87211000D01*
X88333177Y-87198687D01*
X88172758Y-87150024D01*
X88024924Y-87071005D01*
X88024922Y-87071004D01*
X87895341Y-86964659D01*
X87788996Y-86835078D01*
X87773872Y-86806782D01*
X87709976Y-86687242D01*
X87661313Y-86526823D01*
X87644883Y-86360000D01*
X87661313Y-86193177D01*
X87709976Y-86032758D01*
X87788995Y-85884924D01*
X87788996Y-85884922D01*
X87895341Y-85755341D01*
X88024922Y-85648996D01*
X88040094Y-85640886D01*
X88172758Y-85569976D01*
X88333177Y-85521313D01*
X88458196Y-85509000D01*
X89341804Y-85509000D01*
X89466823Y-85521313D01*
G37*
G36*
X48826823Y-85521313D02*
G01*
X48987242Y-85569976D01*
X49119906Y-85640886D01*
X49135078Y-85648996D01*
X49264659Y-85755341D01*
X49371004Y-85884922D01*
X49371005Y-85884924D01*
X49450024Y-86032758D01*
X49498687Y-86193177D01*
X49515117Y-86360000D01*
X49498687Y-86526823D01*
X49450024Y-86687242D01*
X49386128Y-86806782D01*
X49371004Y-86835078D01*
X49264659Y-86964659D01*
X49135078Y-87071004D01*
X49135076Y-87071005D01*
X48987242Y-87150024D01*
X48826823Y-87198687D01*
X48701804Y-87211000D01*
X47818196Y-87211000D01*
X47693177Y-87198687D01*
X47532758Y-87150024D01*
X47384924Y-87071005D01*
X47384922Y-87071004D01*
X47255341Y-86964659D01*
X47148996Y-86835078D01*
X47133872Y-86806782D01*
X47069976Y-86687242D01*
X47021313Y-86526823D01*
X47004883Y-86360000D01*
X47021313Y-86193177D01*
X47069976Y-86032758D01*
X47148995Y-85884924D01*
X47148996Y-85884922D01*
X47255341Y-85755341D01*
X47384922Y-85648996D01*
X47400094Y-85640886D01*
X47532758Y-85569976D01*
X47693177Y-85521313D01*
X47818196Y-85509000D01*
X48701804Y-85509000D01*
X48826823Y-85521313D01*
G37*
G36*
X68693512Y-82943927D02*
G01*
X68842812Y-82973624D01*
X69006784Y-83041544D01*
X69154354Y-83140147D01*
X69279853Y-83265646D01*
X69378456Y-83413216D01*
X69446376Y-83577188D01*
X69481000Y-83751259D01*
X69481000Y-83928741D01*
X69446376Y-84102812D01*
X69378456Y-84266784D01*
X69279853Y-84414354D01*
X69154354Y-84539853D01*
X69006784Y-84638456D01*
X68842812Y-84706376D01*
X68693512Y-84736073D01*
X68668742Y-84741000D01*
X68491258Y-84741000D01*
X68466488Y-84736073D01*
X68317188Y-84706376D01*
X68153216Y-84638456D01*
X68005646Y-84539853D01*
X67880147Y-84414354D01*
X67781544Y-84266784D01*
X67713624Y-84102812D01*
X67679000Y-83928741D01*
X67679000Y-83751259D01*
X67713624Y-83577188D01*
X67781544Y-83413216D01*
X67880147Y-83265646D01*
X68005646Y-83140147D01*
X68153216Y-83041544D01*
X68317188Y-82973624D01*
X68466488Y-82943927D01*
X68491258Y-82939000D01*
X68668742Y-82939000D01*
X68693512Y-82943927D01*
G37*
G36*
X59693512Y-82943927D02*
G01*
X59842812Y-82973624D01*
X60006784Y-83041544D01*
X60154354Y-83140147D01*
X60279853Y-83265646D01*
X60378456Y-83413216D01*
X60446376Y-83577188D01*
X60481000Y-83751259D01*
X60481000Y-83928741D01*
X60446376Y-84102812D01*
X60378456Y-84266784D01*
X60279853Y-84414354D01*
X60154354Y-84539853D01*
X60006784Y-84638456D01*
X59842812Y-84706376D01*
X59693512Y-84736073D01*
X59668742Y-84741000D01*
X59491258Y-84741000D01*
X59466488Y-84736073D01*
X59317188Y-84706376D01*
X59153216Y-84638456D01*
X59005646Y-84539853D01*
X58880147Y-84414354D01*
X58781544Y-84266784D01*
X58713624Y-84102812D01*
X58679000Y-83928741D01*
X58679000Y-83751259D01*
X58713624Y-83577188D01*
X58781544Y-83413216D01*
X58880147Y-83265646D01*
X59005646Y-83140147D01*
X59153216Y-83041544D01*
X59317188Y-82973624D01*
X59466488Y-82943927D01*
X59491258Y-82939000D01*
X59668742Y-82939000D01*
X59693512Y-82943927D01*
G37*
G36*
X83933512Y-82943927D02*
G01*
X84082812Y-82973624D01*
X84246784Y-83041544D01*
X84394354Y-83140147D01*
X84519853Y-83265646D01*
X84618456Y-83413216D01*
X84686376Y-83577188D01*
X84721000Y-83751259D01*
X84721000Y-83928741D01*
X84686376Y-84102812D01*
X84618456Y-84266784D01*
X84519853Y-84414354D01*
X84394354Y-84539853D01*
X84246784Y-84638456D01*
X84082812Y-84706376D01*
X83933512Y-84736073D01*
X83908742Y-84741000D01*
X83731258Y-84741000D01*
X83706488Y-84736073D01*
X83557188Y-84706376D01*
X83393216Y-84638456D01*
X83245646Y-84539853D01*
X83120147Y-84414354D01*
X83021544Y-84266784D01*
X82953624Y-84102812D01*
X82919000Y-83928741D01*
X82919000Y-83751259D01*
X82953624Y-83577188D01*
X83021544Y-83413216D01*
X83120147Y-83265646D01*
X83245646Y-83140147D01*
X83393216Y-83041544D01*
X83557188Y-82973624D01*
X83706488Y-82943927D01*
X83731258Y-82939000D01*
X83908742Y-82939000D01*
X83933512Y-82943927D01*
G37*
G36*
X92933512Y-82923927D02*
G01*
X93082812Y-82953624D01*
X93246784Y-83021544D01*
X93394354Y-83120147D01*
X93519853Y-83245646D01*
X93618456Y-83393216D01*
X93686376Y-83557188D01*
X93721000Y-83731259D01*
X93721000Y-83908741D01*
X93686376Y-84082812D01*
X93618456Y-84246784D01*
X93519853Y-84394354D01*
X93394354Y-84519853D01*
X93246784Y-84618456D01*
X93082812Y-84686376D01*
X92933512Y-84716073D01*
X92908742Y-84721000D01*
X92731258Y-84721000D01*
X92706488Y-84716073D01*
X92557188Y-84686376D01*
X92393216Y-84618456D01*
X92245646Y-84519853D01*
X92120147Y-84394354D01*
X92021544Y-84246784D01*
X91953624Y-84082812D01*
X91919000Y-83908741D01*
X91919000Y-83731259D01*
X91953624Y-83557188D01*
X92021544Y-83393216D01*
X92120147Y-83245646D01*
X92245646Y-83120147D01*
X92393216Y-83021544D01*
X92557188Y-82953624D01*
X92706488Y-82923927D01*
X92731258Y-82919000D01*
X92908742Y-82919000D01*
X92933512Y-82923927D01*
G37*
G36*
X108173512Y-82923927D02*
G01*
X108322812Y-82953624D01*
X108486784Y-83021544D01*
X108634354Y-83120147D01*
X108759853Y-83245646D01*
X108858456Y-83393216D01*
X108926376Y-83557188D01*
X108961000Y-83731259D01*
X108961000Y-83908741D01*
X108926376Y-84082812D01*
X108858456Y-84246784D01*
X108759853Y-84394354D01*
X108634354Y-84519853D01*
X108486784Y-84618456D01*
X108322812Y-84686376D01*
X108173512Y-84716073D01*
X108148742Y-84721000D01*
X107971258Y-84721000D01*
X107946488Y-84716073D01*
X107797188Y-84686376D01*
X107633216Y-84618456D01*
X107485646Y-84519853D01*
X107360147Y-84394354D01*
X107261544Y-84246784D01*
X107193624Y-84082812D01*
X107159000Y-83908741D01*
X107159000Y-83731259D01*
X107193624Y-83557188D01*
X107261544Y-83393216D01*
X107360147Y-83245646D01*
X107485646Y-83120147D01*
X107633216Y-83021544D01*
X107797188Y-82953624D01*
X107946488Y-82923927D01*
X107971258Y-82919000D01*
X108148742Y-82919000D01*
X108173512Y-82923927D01*
G37*
G36*
X89466823Y-82981313D02*
G01*
X89627242Y-83029976D01*
X89759906Y-83100886D01*
X89775078Y-83108996D01*
X89904659Y-83215341D01*
X90011004Y-83344922D01*
X90011005Y-83344924D01*
X90090024Y-83492758D01*
X90138687Y-83653177D01*
X90155117Y-83820000D01*
X90138687Y-83986823D01*
X90090024Y-84147242D01*
X90026128Y-84266782D01*
X90011004Y-84295078D01*
X89904659Y-84424659D01*
X89775078Y-84531004D01*
X89775076Y-84531005D01*
X89627242Y-84610024D01*
X89466823Y-84658687D01*
X89341804Y-84671000D01*
X88458196Y-84671000D01*
X88333177Y-84658687D01*
X88172758Y-84610024D01*
X88024924Y-84531005D01*
X88024922Y-84531004D01*
X87895341Y-84424659D01*
X87788996Y-84295078D01*
X87773872Y-84266782D01*
X87709976Y-84147242D01*
X87661313Y-83986823D01*
X87644883Y-83820000D01*
X87661313Y-83653177D01*
X87709976Y-83492758D01*
X87788995Y-83344924D01*
X87788996Y-83344922D01*
X87895341Y-83215341D01*
X88024922Y-83108996D01*
X88040094Y-83100886D01*
X88172758Y-83029976D01*
X88333177Y-82981313D01*
X88458196Y-82969000D01*
X89341804Y-82969000D01*
X89466823Y-82981313D01*
G37*
G36*
X102166823Y-82981313D02*
G01*
X102327242Y-83029976D01*
X102459906Y-83100886D01*
X102475078Y-83108996D01*
X102604659Y-83215341D01*
X102711004Y-83344922D01*
X102711005Y-83344924D01*
X102790024Y-83492758D01*
X102838687Y-83653177D01*
X102855117Y-83820000D01*
X102838687Y-83986823D01*
X102790024Y-84147242D01*
X102726128Y-84266782D01*
X102711004Y-84295078D01*
X102604659Y-84424659D01*
X102475078Y-84531004D01*
X102475076Y-84531005D01*
X102327242Y-84610024D01*
X102166823Y-84658687D01*
X102041804Y-84671000D01*
X101158196Y-84671000D01*
X101033177Y-84658687D01*
X100872758Y-84610024D01*
X100724924Y-84531005D01*
X100724922Y-84531004D01*
X100595341Y-84424659D01*
X100488996Y-84295078D01*
X100473872Y-84266782D01*
X100409976Y-84147242D01*
X100361313Y-83986823D01*
X100344883Y-83820000D01*
X100361313Y-83653177D01*
X100409976Y-83492758D01*
X100488995Y-83344924D01*
X100488996Y-83344922D01*
X100595341Y-83215341D01*
X100724922Y-83108996D01*
X100740094Y-83100886D01*
X100872758Y-83029976D01*
X101033177Y-82981313D01*
X101158196Y-82969000D01*
X102041804Y-82969000D01*
X102166823Y-82981313D01*
G37*
G36*
X74226823Y-82981313D02*
G01*
X74387242Y-83029976D01*
X74519906Y-83100886D01*
X74535078Y-83108996D01*
X74664659Y-83215341D01*
X74771004Y-83344922D01*
X74771005Y-83344924D01*
X74850024Y-83492758D01*
X74898687Y-83653177D01*
X74915117Y-83820000D01*
X74898687Y-83986823D01*
X74850024Y-84147242D01*
X74786128Y-84266782D01*
X74771004Y-84295078D01*
X74664659Y-84424659D01*
X74535078Y-84531004D01*
X74535076Y-84531005D01*
X74387242Y-84610024D01*
X74226823Y-84658687D01*
X74101804Y-84671000D01*
X73218196Y-84671000D01*
X73093177Y-84658687D01*
X72932758Y-84610024D01*
X72784924Y-84531005D01*
X72784922Y-84531004D01*
X72655341Y-84424659D01*
X72548996Y-84295078D01*
X72533872Y-84266782D01*
X72469976Y-84147242D01*
X72421313Y-83986823D01*
X72404883Y-83820000D01*
X72421313Y-83653177D01*
X72469976Y-83492758D01*
X72548995Y-83344924D01*
X72548996Y-83344922D01*
X72655341Y-83215341D01*
X72784922Y-83108996D01*
X72800094Y-83100886D01*
X72932758Y-83029976D01*
X73093177Y-82981313D01*
X73218196Y-82969000D01*
X74101804Y-82969000D01*
X74226823Y-82981313D01*
G37*
G36*
X64066823Y-82981313D02*
G01*
X64227242Y-83029976D01*
X64359906Y-83100886D01*
X64375078Y-83108996D01*
X64504659Y-83215341D01*
X64611004Y-83344922D01*
X64611005Y-83344924D01*
X64690024Y-83492758D01*
X64738687Y-83653177D01*
X64755117Y-83820000D01*
X64738687Y-83986823D01*
X64690024Y-84147242D01*
X64626128Y-84266782D01*
X64611004Y-84295078D01*
X64504659Y-84424659D01*
X64375078Y-84531004D01*
X64375076Y-84531005D01*
X64227242Y-84610024D01*
X64066823Y-84658687D01*
X63941804Y-84671000D01*
X63058196Y-84671000D01*
X62933177Y-84658687D01*
X62772758Y-84610024D01*
X62624924Y-84531005D01*
X62624922Y-84531004D01*
X62495341Y-84424659D01*
X62388996Y-84295078D01*
X62373872Y-84266782D01*
X62309976Y-84147242D01*
X62261313Y-83986823D01*
X62244883Y-83820000D01*
X62261313Y-83653177D01*
X62309976Y-83492758D01*
X62388995Y-83344924D01*
X62388996Y-83344922D01*
X62495341Y-83215341D01*
X62624922Y-83108996D01*
X62640094Y-83100886D01*
X62772758Y-83029976D01*
X62933177Y-82981313D01*
X63058196Y-82969000D01*
X63941804Y-82969000D01*
X64066823Y-82981313D01*
G37*
G36*
X48826823Y-82981313D02*
G01*
X48987242Y-83029976D01*
X49119906Y-83100886D01*
X49135078Y-83108996D01*
X49264659Y-83215341D01*
X49371004Y-83344922D01*
X49371005Y-83344924D01*
X49450024Y-83492758D01*
X49498687Y-83653177D01*
X49515117Y-83820000D01*
X49498687Y-83986823D01*
X49450024Y-84147242D01*
X49386128Y-84266782D01*
X49371004Y-84295078D01*
X49264659Y-84424659D01*
X49135078Y-84531004D01*
X49135076Y-84531005D01*
X48987242Y-84610024D01*
X48826823Y-84658687D01*
X48701804Y-84671000D01*
X47818196Y-84671000D01*
X47693177Y-84658687D01*
X47532758Y-84610024D01*
X47384924Y-84531005D01*
X47384922Y-84531004D01*
X47255341Y-84424659D01*
X47148996Y-84295078D01*
X47133872Y-84266782D01*
X47069976Y-84147242D01*
X47021313Y-83986823D01*
X47004883Y-83820000D01*
X47021313Y-83653177D01*
X47069976Y-83492758D01*
X47148995Y-83344924D01*
X47148996Y-83344922D01*
X47255341Y-83215341D01*
X47384922Y-83108996D01*
X47400094Y-83100886D01*
X47532758Y-83029976D01*
X47693177Y-82981313D01*
X47818196Y-82969000D01*
X48701804Y-82969000D01*
X48826823Y-82981313D01*
G37*
G36*
X117406823Y-82981313D02*
G01*
X117567242Y-83029976D01*
X117699906Y-83100886D01*
X117715078Y-83108996D01*
X117844659Y-83215341D01*
X117951004Y-83344922D01*
X117951005Y-83344924D01*
X118030024Y-83492758D01*
X118078687Y-83653177D01*
X118095117Y-83820000D01*
X118078687Y-83986823D01*
X118030024Y-84147242D01*
X117966128Y-84266782D01*
X117951004Y-84295078D01*
X117844659Y-84424659D01*
X117715078Y-84531004D01*
X117715076Y-84531005D01*
X117567242Y-84610024D01*
X117406823Y-84658687D01*
X117281804Y-84671000D01*
X116398196Y-84671000D01*
X116273177Y-84658687D01*
X116112758Y-84610024D01*
X115964924Y-84531005D01*
X115964922Y-84531004D01*
X115835341Y-84424659D01*
X115728996Y-84295078D01*
X115713872Y-84266782D01*
X115649976Y-84147242D01*
X115601313Y-83986823D01*
X115584883Y-83820000D01*
X115601313Y-83653177D01*
X115649976Y-83492758D01*
X115728995Y-83344924D01*
X115728996Y-83344922D01*
X115835341Y-83215341D01*
X115964922Y-83108996D01*
X115980094Y-83100886D01*
X116112758Y-83029976D01*
X116273177Y-82981313D01*
X116398196Y-82969000D01*
X117281804Y-82969000D01*
X117406823Y-82981313D01*
G37*
G36*
X68693512Y-80403927D02*
G01*
X68842812Y-80433624D01*
X69006784Y-80501544D01*
X69154354Y-80600147D01*
X69279853Y-80725646D01*
X69378456Y-80873216D01*
X69446376Y-81037188D01*
X69481000Y-81211259D01*
X69481000Y-81388741D01*
X69446376Y-81562812D01*
X69378456Y-81726784D01*
X69279853Y-81874354D01*
X69154354Y-81999853D01*
X69006784Y-82098456D01*
X68842812Y-82166376D01*
X68693512Y-82196073D01*
X68668742Y-82201000D01*
X68491258Y-82201000D01*
X68466488Y-82196073D01*
X68317188Y-82166376D01*
X68153216Y-82098456D01*
X68005646Y-81999853D01*
X67880147Y-81874354D01*
X67781544Y-81726784D01*
X67713624Y-81562812D01*
X67679000Y-81388741D01*
X67679000Y-81211259D01*
X67713624Y-81037188D01*
X67781544Y-80873216D01*
X67880147Y-80725646D01*
X68005646Y-80600147D01*
X68153216Y-80501544D01*
X68317188Y-80433624D01*
X68466488Y-80403927D01*
X68491258Y-80399000D01*
X68668742Y-80399000D01*
X68693512Y-80403927D01*
G37*
G36*
X59693512Y-80403927D02*
G01*
X59842812Y-80433624D01*
X60006784Y-80501544D01*
X60154354Y-80600147D01*
X60279853Y-80725646D01*
X60378456Y-80873216D01*
X60446376Y-81037188D01*
X60481000Y-81211259D01*
X60481000Y-81388741D01*
X60446376Y-81562812D01*
X60378456Y-81726784D01*
X60279853Y-81874354D01*
X60154354Y-81999853D01*
X60006784Y-82098456D01*
X59842812Y-82166376D01*
X59693512Y-82196073D01*
X59668742Y-82201000D01*
X59491258Y-82201000D01*
X59466488Y-82196073D01*
X59317188Y-82166376D01*
X59153216Y-82098456D01*
X59005646Y-81999853D01*
X58880147Y-81874354D01*
X58781544Y-81726784D01*
X58713624Y-81562812D01*
X58679000Y-81388741D01*
X58679000Y-81211259D01*
X58713624Y-81037188D01*
X58781544Y-80873216D01*
X58880147Y-80725646D01*
X59005646Y-80600147D01*
X59153216Y-80501544D01*
X59317188Y-80433624D01*
X59466488Y-80403927D01*
X59491258Y-80399000D01*
X59668742Y-80399000D01*
X59693512Y-80403927D01*
G37*
G36*
X83933512Y-80403927D02*
G01*
X84082812Y-80433624D01*
X84246784Y-80501544D01*
X84394354Y-80600147D01*
X84519853Y-80725646D01*
X84618456Y-80873216D01*
X84686376Y-81037188D01*
X84721000Y-81211259D01*
X84721000Y-81388741D01*
X84686376Y-81562812D01*
X84618456Y-81726784D01*
X84519853Y-81874354D01*
X84394354Y-81999853D01*
X84246784Y-82098456D01*
X84082812Y-82166376D01*
X83933512Y-82196073D01*
X83908742Y-82201000D01*
X83731258Y-82201000D01*
X83706488Y-82196073D01*
X83557188Y-82166376D01*
X83393216Y-82098456D01*
X83245646Y-81999853D01*
X83120147Y-81874354D01*
X83021544Y-81726784D01*
X82953624Y-81562812D01*
X82919000Y-81388741D01*
X82919000Y-81211259D01*
X82953624Y-81037188D01*
X83021544Y-80873216D01*
X83120147Y-80725646D01*
X83245646Y-80600147D01*
X83393216Y-80501544D01*
X83557188Y-80433624D01*
X83706488Y-80403927D01*
X83731258Y-80399000D01*
X83908742Y-80399000D01*
X83933512Y-80403927D01*
G37*
G36*
X108173512Y-80383927D02*
G01*
X108322812Y-80413624D01*
X108486784Y-80481544D01*
X108634354Y-80580147D01*
X108759853Y-80705646D01*
X108858456Y-80853216D01*
X108926376Y-81017188D01*
X108961000Y-81191259D01*
X108961000Y-81368741D01*
X108926376Y-81542812D01*
X108858456Y-81706784D01*
X108759853Y-81854354D01*
X108634354Y-81979853D01*
X108486784Y-82078456D01*
X108322812Y-82146376D01*
X108173512Y-82176073D01*
X108148742Y-82181000D01*
X107971258Y-82181000D01*
X107946488Y-82176073D01*
X107797188Y-82146376D01*
X107633216Y-82078456D01*
X107485646Y-81979853D01*
X107360147Y-81854354D01*
X107261544Y-81706784D01*
X107193624Y-81542812D01*
X107159000Y-81368741D01*
X107159000Y-81191259D01*
X107193624Y-81017188D01*
X107261544Y-80853216D01*
X107360147Y-80705646D01*
X107485646Y-80580147D01*
X107633216Y-80481544D01*
X107797188Y-80413624D01*
X107946488Y-80383927D01*
X107971258Y-80379000D01*
X108148742Y-80379000D01*
X108173512Y-80383927D01*
G37*
G36*
X92933512Y-80383927D02*
G01*
X93082812Y-80413624D01*
X93246784Y-80481544D01*
X93394354Y-80580147D01*
X93519853Y-80705646D01*
X93618456Y-80853216D01*
X93686376Y-81017188D01*
X93721000Y-81191259D01*
X93721000Y-81368741D01*
X93686376Y-81542812D01*
X93618456Y-81706784D01*
X93519853Y-81854354D01*
X93394354Y-81979853D01*
X93246784Y-82078456D01*
X93082812Y-82146376D01*
X92933512Y-82176073D01*
X92908742Y-82181000D01*
X92731258Y-82181000D01*
X92706488Y-82176073D01*
X92557188Y-82146376D01*
X92393216Y-82078456D01*
X92245646Y-81979853D01*
X92120147Y-81854354D01*
X92021544Y-81706784D01*
X91953624Y-81542812D01*
X91919000Y-81368741D01*
X91919000Y-81191259D01*
X91953624Y-81017188D01*
X92021544Y-80853216D01*
X92120147Y-80705646D01*
X92245646Y-80580147D01*
X92393216Y-80481544D01*
X92557188Y-80413624D01*
X92706488Y-80383927D01*
X92731258Y-80379000D01*
X92908742Y-80379000D01*
X92933512Y-80383927D01*
G37*
G36*
X64066823Y-80441313D02*
G01*
X64227242Y-80489976D01*
X64359906Y-80560886D01*
X64375078Y-80568996D01*
X64504659Y-80675341D01*
X64611004Y-80804922D01*
X64611005Y-80804924D01*
X64690024Y-80952758D01*
X64738687Y-81113177D01*
X64755117Y-81280000D01*
X64738687Y-81446823D01*
X64690024Y-81607242D01*
X64626128Y-81726782D01*
X64611004Y-81755078D01*
X64504659Y-81884659D01*
X64375078Y-81991004D01*
X64375076Y-81991005D01*
X64227242Y-82070024D01*
X64066823Y-82118687D01*
X63941804Y-82131000D01*
X63058196Y-82131000D01*
X62933177Y-82118687D01*
X62772758Y-82070024D01*
X62624924Y-81991005D01*
X62624922Y-81991004D01*
X62495341Y-81884659D01*
X62388996Y-81755078D01*
X62373872Y-81726782D01*
X62309976Y-81607242D01*
X62261313Y-81446823D01*
X62244883Y-81280000D01*
X62261313Y-81113177D01*
X62309976Y-80952758D01*
X62388995Y-80804924D01*
X62388996Y-80804922D01*
X62495341Y-80675341D01*
X62624922Y-80568996D01*
X62640094Y-80560886D01*
X62772758Y-80489976D01*
X62933177Y-80441313D01*
X63058196Y-80429000D01*
X63941804Y-80429000D01*
X64066823Y-80441313D01*
G37*
G36*
X117406823Y-80441313D02*
G01*
X117567242Y-80489976D01*
X117699906Y-80560886D01*
X117715078Y-80568996D01*
X117844659Y-80675341D01*
X117951004Y-80804922D01*
X117951005Y-80804924D01*
X118030024Y-80952758D01*
X118078687Y-81113177D01*
X118095117Y-81280000D01*
X118078687Y-81446823D01*
X118030024Y-81607242D01*
X117966128Y-81726782D01*
X117951004Y-81755078D01*
X117844659Y-81884659D01*
X117715078Y-81991004D01*
X117715076Y-81991005D01*
X117567242Y-82070024D01*
X117406823Y-82118687D01*
X117281804Y-82131000D01*
X116398196Y-82131000D01*
X116273177Y-82118687D01*
X116112758Y-82070024D01*
X115964924Y-81991005D01*
X115964922Y-81991004D01*
X115835341Y-81884659D01*
X115728996Y-81755078D01*
X115713872Y-81726782D01*
X115649976Y-81607242D01*
X115601313Y-81446823D01*
X115584883Y-81280000D01*
X115601313Y-81113177D01*
X115649976Y-80952758D01*
X115728995Y-80804924D01*
X115728996Y-80804922D01*
X115835341Y-80675341D01*
X115964922Y-80568996D01*
X115980094Y-80560886D01*
X116112758Y-80489976D01*
X116273177Y-80441313D01*
X116398196Y-80429000D01*
X117281804Y-80429000D01*
X117406823Y-80441313D01*
G37*
G36*
X102166823Y-80441313D02*
G01*
X102327242Y-80489976D01*
X102459906Y-80560886D01*
X102475078Y-80568996D01*
X102604659Y-80675341D01*
X102711004Y-80804922D01*
X102711005Y-80804924D01*
X102790024Y-80952758D01*
X102838687Y-81113177D01*
X102855117Y-81280000D01*
X102838687Y-81446823D01*
X102790024Y-81607242D01*
X102726128Y-81726782D01*
X102711004Y-81755078D01*
X102604659Y-81884659D01*
X102475078Y-81991004D01*
X102475076Y-81991005D01*
X102327242Y-82070024D01*
X102166823Y-82118687D01*
X102041804Y-82131000D01*
X101158196Y-82131000D01*
X101033177Y-82118687D01*
X100872758Y-82070024D01*
X100724924Y-81991005D01*
X100724922Y-81991004D01*
X100595341Y-81884659D01*
X100488996Y-81755078D01*
X100473872Y-81726782D01*
X100409976Y-81607242D01*
X100361313Y-81446823D01*
X100344883Y-81280000D01*
X100361313Y-81113177D01*
X100409976Y-80952758D01*
X100488995Y-80804924D01*
X100488996Y-80804922D01*
X100595341Y-80675341D01*
X100724922Y-80568996D01*
X100740094Y-80560886D01*
X100872758Y-80489976D01*
X101033177Y-80441313D01*
X101158196Y-80429000D01*
X102041804Y-80429000D01*
X102166823Y-80441313D01*
G37*
G36*
X48826823Y-80441313D02*
G01*
X48987242Y-80489976D01*
X49119906Y-80560886D01*
X49135078Y-80568996D01*
X49264659Y-80675341D01*
X49371004Y-80804922D01*
X49371005Y-80804924D01*
X49450024Y-80952758D01*
X49498687Y-81113177D01*
X49515117Y-81280000D01*
X49498687Y-81446823D01*
X49450024Y-81607242D01*
X49386128Y-81726782D01*
X49371004Y-81755078D01*
X49264659Y-81884659D01*
X49135078Y-81991004D01*
X49135076Y-81991005D01*
X48987242Y-82070024D01*
X48826823Y-82118687D01*
X48701804Y-82131000D01*
X47818196Y-82131000D01*
X47693177Y-82118687D01*
X47532758Y-82070024D01*
X47384924Y-81991005D01*
X47384922Y-81991004D01*
X47255341Y-81884659D01*
X47148996Y-81755078D01*
X47133872Y-81726782D01*
X47069976Y-81607242D01*
X47021313Y-81446823D01*
X47004883Y-81280000D01*
X47021313Y-81113177D01*
X47069976Y-80952758D01*
X47148995Y-80804924D01*
X47148996Y-80804922D01*
X47255341Y-80675341D01*
X47384922Y-80568996D01*
X47400094Y-80560886D01*
X47532758Y-80489976D01*
X47693177Y-80441313D01*
X47818196Y-80429000D01*
X48701804Y-80429000D01*
X48826823Y-80441313D01*
G37*
G36*
X89466823Y-80441313D02*
G01*
X89627242Y-80489976D01*
X89759906Y-80560886D01*
X89775078Y-80568996D01*
X89904659Y-80675341D01*
X90011004Y-80804922D01*
X90011005Y-80804924D01*
X90090024Y-80952758D01*
X90138687Y-81113177D01*
X90155117Y-81280000D01*
X90138687Y-81446823D01*
X90090024Y-81607242D01*
X90026128Y-81726782D01*
X90011004Y-81755078D01*
X89904659Y-81884659D01*
X89775078Y-81991004D01*
X89775076Y-81991005D01*
X89627242Y-82070024D01*
X89466823Y-82118687D01*
X89341804Y-82131000D01*
X88458196Y-82131000D01*
X88333177Y-82118687D01*
X88172758Y-82070024D01*
X88024924Y-81991005D01*
X88024922Y-81991004D01*
X87895341Y-81884659D01*
X87788996Y-81755078D01*
X87773872Y-81726782D01*
X87709976Y-81607242D01*
X87661313Y-81446823D01*
X87644883Y-81280000D01*
X87661313Y-81113177D01*
X87709976Y-80952758D01*
X87788995Y-80804924D01*
X87788996Y-80804922D01*
X87895341Y-80675341D01*
X88024922Y-80568996D01*
X88040094Y-80560886D01*
X88172758Y-80489976D01*
X88333177Y-80441313D01*
X88458196Y-80429000D01*
X89341804Y-80429000D01*
X89466823Y-80441313D01*
G37*
G36*
X74226823Y-80441313D02*
G01*
X74387242Y-80489976D01*
X74519906Y-80560886D01*
X74535078Y-80568996D01*
X74664659Y-80675341D01*
X74771004Y-80804922D01*
X74771005Y-80804924D01*
X74850024Y-80952758D01*
X74898687Y-81113177D01*
X74915117Y-81280000D01*
X74898687Y-81446823D01*
X74850024Y-81607242D01*
X74786128Y-81726782D01*
X74771004Y-81755078D01*
X74664659Y-81884659D01*
X74535078Y-81991004D01*
X74535076Y-81991005D01*
X74387242Y-82070024D01*
X74226823Y-82118687D01*
X74101804Y-82131000D01*
X73218196Y-82131000D01*
X73093177Y-82118687D01*
X72932758Y-82070024D01*
X72784924Y-81991005D01*
X72784922Y-81991004D01*
X72655341Y-81884659D01*
X72548996Y-81755078D01*
X72533872Y-81726782D01*
X72469976Y-81607242D01*
X72421313Y-81446823D01*
X72404883Y-81280000D01*
X72421313Y-81113177D01*
X72469976Y-80952758D01*
X72548995Y-80804924D01*
X72548996Y-80804922D01*
X72655341Y-80675341D01*
X72784922Y-80568996D01*
X72800094Y-80560886D01*
X72932758Y-80489976D01*
X73093177Y-80441313D01*
X73218196Y-80429000D01*
X74101804Y-80429000D01*
X74226823Y-80441313D01*
G37*
G36*
X68693512Y-77863927D02*
G01*
X68842812Y-77893624D01*
X69006784Y-77961544D01*
X69154354Y-78060147D01*
X69279853Y-78185646D01*
X69378456Y-78333216D01*
X69446376Y-78497188D01*
X69481000Y-78671259D01*
X69481000Y-78848741D01*
X69446376Y-79022812D01*
X69378456Y-79186784D01*
X69279853Y-79334354D01*
X69154354Y-79459853D01*
X69006784Y-79558456D01*
X68842812Y-79626376D01*
X68693512Y-79656073D01*
X68668742Y-79661000D01*
X68491258Y-79661000D01*
X68466488Y-79656073D01*
X68317188Y-79626376D01*
X68153216Y-79558456D01*
X68005646Y-79459853D01*
X67880147Y-79334354D01*
X67781544Y-79186784D01*
X67713624Y-79022812D01*
X67679000Y-78848741D01*
X67679000Y-78671259D01*
X67713624Y-78497188D01*
X67781544Y-78333216D01*
X67880147Y-78185646D01*
X68005646Y-78060147D01*
X68153216Y-77961544D01*
X68317188Y-77893624D01*
X68466488Y-77863927D01*
X68491258Y-77859000D01*
X68668742Y-77859000D01*
X68693512Y-77863927D01*
G37*
G36*
X83933512Y-77863927D02*
G01*
X84082812Y-77893624D01*
X84246784Y-77961544D01*
X84394354Y-78060147D01*
X84519853Y-78185646D01*
X84618456Y-78333216D01*
X84686376Y-78497188D01*
X84721000Y-78671259D01*
X84721000Y-78848741D01*
X84686376Y-79022812D01*
X84618456Y-79186784D01*
X84519853Y-79334354D01*
X84394354Y-79459853D01*
X84246784Y-79558456D01*
X84082812Y-79626376D01*
X83933512Y-79656073D01*
X83908742Y-79661000D01*
X83731258Y-79661000D01*
X83706488Y-79656073D01*
X83557188Y-79626376D01*
X83393216Y-79558456D01*
X83245646Y-79459853D01*
X83120147Y-79334354D01*
X83021544Y-79186784D01*
X82953624Y-79022812D01*
X82919000Y-78848741D01*
X82919000Y-78671259D01*
X82953624Y-78497188D01*
X83021544Y-78333216D01*
X83120147Y-78185646D01*
X83245646Y-78060147D01*
X83393216Y-77961544D01*
X83557188Y-77893624D01*
X83706488Y-77863927D01*
X83731258Y-77859000D01*
X83908742Y-77859000D01*
X83933512Y-77863927D01*
G37*
G36*
X59693512Y-77863927D02*
G01*
X59842812Y-77893624D01*
X60006784Y-77961544D01*
X60154354Y-78060147D01*
X60279853Y-78185646D01*
X60378456Y-78333216D01*
X60446376Y-78497188D01*
X60481000Y-78671259D01*
X60481000Y-78848741D01*
X60446376Y-79022812D01*
X60378456Y-79186784D01*
X60279853Y-79334354D01*
X60154354Y-79459853D01*
X60006784Y-79558456D01*
X59842812Y-79626376D01*
X59693512Y-79656073D01*
X59668742Y-79661000D01*
X59491258Y-79661000D01*
X59466488Y-79656073D01*
X59317188Y-79626376D01*
X59153216Y-79558456D01*
X59005646Y-79459853D01*
X58880147Y-79334354D01*
X58781544Y-79186784D01*
X58713624Y-79022812D01*
X58679000Y-78848741D01*
X58679000Y-78671259D01*
X58713624Y-78497188D01*
X58781544Y-78333216D01*
X58880147Y-78185646D01*
X59005646Y-78060147D01*
X59153216Y-77961544D01*
X59317188Y-77893624D01*
X59466488Y-77863927D01*
X59491258Y-77859000D01*
X59668742Y-77859000D01*
X59693512Y-77863927D01*
G37*
G36*
X92933512Y-77843927D02*
G01*
X93082812Y-77873624D01*
X93246784Y-77941544D01*
X93394354Y-78040147D01*
X93519853Y-78165646D01*
X93618456Y-78313216D01*
X93686376Y-78477188D01*
X93721000Y-78651259D01*
X93721000Y-78828741D01*
X93686376Y-79002812D01*
X93618456Y-79166784D01*
X93519853Y-79314354D01*
X93394354Y-79439853D01*
X93246784Y-79538456D01*
X93082812Y-79606376D01*
X92933512Y-79636073D01*
X92908742Y-79641000D01*
X92731258Y-79641000D01*
X92706488Y-79636073D01*
X92557188Y-79606376D01*
X92393216Y-79538456D01*
X92245646Y-79439853D01*
X92120147Y-79314354D01*
X92021544Y-79166784D01*
X91953624Y-79002812D01*
X91919000Y-78828741D01*
X91919000Y-78651259D01*
X91953624Y-78477188D01*
X92021544Y-78313216D01*
X92120147Y-78165646D01*
X92245646Y-78040147D01*
X92393216Y-77941544D01*
X92557188Y-77873624D01*
X92706488Y-77843927D01*
X92731258Y-77839000D01*
X92908742Y-77839000D01*
X92933512Y-77843927D01*
G37*
G36*
X108173512Y-77843927D02*
G01*
X108322812Y-77873624D01*
X108486784Y-77941544D01*
X108634354Y-78040147D01*
X108759853Y-78165646D01*
X108858456Y-78313216D01*
X108926376Y-78477188D01*
X108961000Y-78651259D01*
X108961000Y-78828741D01*
X108926376Y-79002812D01*
X108858456Y-79166784D01*
X108759853Y-79314354D01*
X108634354Y-79439853D01*
X108486784Y-79538456D01*
X108322812Y-79606376D01*
X108173512Y-79636073D01*
X108148742Y-79641000D01*
X107971258Y-79641000D01*
X107946488Y-79636073D01*
X107797188Y-79606376D01*
X107633216Y-79538456D01*
X107485646Y-79439853D01*
X107360147Y-79314354D01*
X107261544Y-79166784D01*
X107193624Y-79002812D01*
X107159000Y-78828741D01*
X107159000Y-78651259D01*
X107193624Y-78477188D01*
X107261544Y-78313216D01*
X107360147Y-78165646D01*
X107485646Y-78040147D01*
X107633216Y-77941544D01*
X107797188Y-77873624D01*
X107946488Y-77843927D01*
X107971258Y-77839000D01*
X108148742Y-77839000D01*
X108173512Y-77843927D01*
G37*
G36*
X117406823Y-77901313D02*
G01*
X117567242Y-77949976D01*
X117699906Y-78020886D01*
X117715078Y-78028996D01*
X117844659Y-78135341D01*
X117951004Y-78264922D01*
X117951005Y-78264924D01*
X118030024Y-78412758D01*
X118078687Y-78573177D01*
X118095117Y-78740000D01*
X118078687Y-78906823D01*
X118030024Y-79067242D01*
X117966128Y-79186782D01*
X117951004Y-79215078D01*
X117844659Y-79344659D01*
X117715078Y-79451004D01*
X117715076Y-79451005D01*
X117567242Y-79530024D01*
X117406823Y-79578687D01*
X117281804Y-79591000D01*
X116398196Y-79591000D01*
X116273177Y-79578687D01*
X116112758Y-79530024D01*
X115964924Y-79451005D01*
X115964922Y-79451004D01*
X115835341Y-79344659D01*
X115728996Y-79215078D01*
X115713872Y-79186782D01*
X115649976Y-79067242D01*
X115601313Y-78906823D01*
X115584883Y-78740000D01*
X115601313Y-78573177D01*
X115649976Y-78412758D01*
X115728995Y-78264924D01*
X115728996Y-78264922D01*
X115835341Y-78135341D01*
X115964922Y-78028996D01*
X115980094Y-78020886D01*
X116112758Y-77949976D01*
X116273177Y-77901313D01*
X116398196Y-77889000D01*
X117281804Y-77889000D01*
X117406823Y-77901313D01*
G37*
G36*
X64066823Y-77901313D02*
G01*
X64227242Y-77949976D01*
X64359906Y-78020886D01*
X64375078Y-78028996D01*
X64504659Y-78135341D01*
X64611004Y-78264922D01*
X64611005Y-78264924D01*
X64690024Y-78412758D01*
X64738687Y-78573177D01*
X64755117Y-78740000D01*
X64738687Y-78906823D01*
X64690024Y-79067242D01*
X64626128Y-79186782D01*
X64611004Y-79215078D01*
X64504659Y-79344659D01*
X64375078Y-79451004D01*
X64375076Y-79451005D01*
X64227242Y-79530024D01*
X64066823Y-79578687D01*
X63941804Y-79591000D01*
X63058196Y-79591000D01*
X62933177Y-79578687D01*
X62772758Y-79530024D01*
X62624924Y-79451005D01*
X62624922Y-79451004D01*
X62495341Y-79344659D01*
X62388996Y-79215078D01*
X62373872Y-79186782D01*
X62309976Y-79067242D01*
X62261313Y-78906823D01*
X62244883Y-78740000D01*
X62261313Y-78573177D01*
X62309976Y-78412758D01*
X62388995Y-78264924D01*
X62388996Y-78264922D01*
X62495341Y-78135341D01*
X62624922Y-78028996D01*
X62640094Y-78020886D01*
X62772758Y-77949976D01*
X62933177Y-77901313D01*
X63058196Y-77889000D01*
X63941804Y-77889000D01*
X64066823Y-77901313D01*
G37*
G36*
X102166823Y-77901313D02*
G01*
X102327242Y-77949976D01*
X102459906Y-78020886D01*
X102475078Y-78028996D01*
X102604659Y-78135341D01*
X102711004Y-78264922D01*
X102711005Y-78264924D01*
X102790024Y-78412758D01*
X102838687Y-78573177D01*
X102855117Y-78740000D01*
X102838687Y-78906823D01*
X102790024Y-79067242D01*
X102726128Y-79186782D01*
X102711004Y-79215078D01*
X102604659Y-79344659D01*
X102475078Y-79451004D01*
X102475076Y-79451005D01*
X102327242Y-79530024D01*
X102166823Y-79578687D01*
X102041804Y-79591000D01*
X101158196Y-79591000D01*
X101033177Y-79578687D01*
X100872758Y-79530024D01*
X100724924Y-79451005D01*
X100724922Y-79451004D01*
X100595341Y-79344659D01*
X100488996Y-79215078D01*
X100473872Y-79186782D01*
X100409976Y-79067242D01*
X100361313Y-78906823D01*
X100344883Y-78740000D01*
X100361313Y-78573177D01*
X100409976Y-78412758D01*
X100488995Y-78264924D01*
X100488996Y-78264922D01*
X100595341Y-78135341D01*
X100724922Y-78028996D01*
X100740094Y-78020886D01*
X100872758Y-77949976D01*
X101033177Y-77901313D01*
X101158196Y-77889000D01*
X102041804Y-77889000D01*
X102166823Y-77901313D01*
G37*
G36*
X89466823Y-77901313D02*
G01*
X89627242Y-77949976D01*
X89759906Y-78020886D01*
X89775078Y-78028996D01*
X89904659Y-78135341D01*
X90011004Y-78264922D01*
X90011005Y-78264924D01*
X90090024Y-78412758D01*
X90138687Y-78573177D01*
X90155117Y-78740000D01*
X90138687Y-78906823D01*
X90090024Y-79067242D01*
X90026128Y-79186782D01*
X90011004Y-79215078D01*
X89904659Y-79344659D01*
X89775078Y-79451004D01*
X89775076Y-79451005D01*
X89627242Y-79530024D01*
X89466823Y-79578687D01*
X89341804Y-79591000D01*
X88458196Y-79591000D01*
X88333177Y-79578687D01*
X88172758Y-79530024D01*
X88024924Y-79451005D01*
X88024922Y-79451004D01*
X87895341Y-79344659D01*
X87788996Y-79215078D01*
X87773872Y-79186782D01*
X87709976Y-79067242D01*
X87661313Y-78906823D01*
X87644883Y-78740000D01*
X87661313Y-78573177D01*
X87709976Y-78412758D01*
X87788995Y-78264924D01*
X87788996Y-78264922D01*
X87895341Y-78135341D01*
X88024922Y-78028996D01*
X88040094Y-78020886D01*
X88172758Y-77949976D01*
X88333177Y-77901313D01*
X88458196Y-77889000D01*
X89341804Y-77889000D01*
X89466823Y-77901313D01*
G37*
G36*
X74226823Y-77901313D02*
G01*
X74387242Y-77949976D01*
X74519906Y-78020886D01*
X74535078Y-78028996D01*
X74664659Y-78135341D01*
X74771004Y-78264922D01*
X74771005Y-78264924D01*
X74850024Y-78412758D01*
X74898687Y-78573177D01*
X74915117Y-78740000D01*
X74898687Y-78906823D01*
X74850024Y-79067242D01*
X74786128Y-79186782D01*
X74771004Y-79215078D01*
X74664659Y-79344659D01*
X74535078Y-79451004D01*
X74535076Y-79451005D01*
X74387242Y-79530024D01*
X74226823Y-79578687D01*
X74101804Y-79591000D01*
X73218196Y-79591000D01*
X73093177Y-79578687D01*
X72932758Y-79530024D01*
X72784924Y-79451005D01*
X72784922Y-79451004D01*
X72655341Y-79344659D01*
X72548996Y-79215078D01*
X72533872Y-79186782D01*
X72469976Y-79067242D01*
X72421313Y-78906823D01*
X72404883Y-78740000D01*
X72421313Y-78573177D01*
X72469976Y-78412758D01*
X72548995Y-78264924D01*
X72548996Y-78264922D01*
X72655341Y-78135341D01*
X72784922Y-78028996D01*
X72800094Y-78020886D01*
X72932758Y-77949976D01*
X73093177Y-77901313D01*
X73218196Y-77889000D01*
X74101804Y-77889000D01*
X74226823Y-77901313D01*
G37*
G36*
X48826823Y-77901313D02*
G01*
X48987242Y-77949976D01*
X49119906Y-78020886D01*
X49135078Y-78028996D01*
X49264659Y-78135341D01*
X49371004Y-78264922D01*
X49371005Y-78264924D01*
X49450024Y-78412758D01*
X49498687Y-78573177D01*
X49515117Y-78740000D01*
X49498687Y-78906823D01*
X49450024Y-79067242D01*
X49386128Y-79186782D01*
X49371004Y-79215078D01*
X49264659Y-79344659D01*
X49135078Y-79451004D01*
X49135076Y-79451005D01*
X48987242Y-79530024D01*
X48826823Y-79578687D01*
X48701804Y-79591000D01*
X47818196Y-79591000D01*
X47693177Y-79578687D01*
X47532758Y-79530024D01*
X47384924Y-79451005D01*
X47384922Y-79451004D01*
X47255341Y-79344659D01*
X47148996Y-79215078D01*
X47133872Y-79186782D01*
X47069976Y-79067242D01*
X47021313Y-78906823D01*
X47004883Y-78740000D01*
X47021313Y-78573177D01*
X47069976Y-78412758D01*
X47148995Y-78264924D01*
X47148996Y-78264922D01*
X47255341Y-78135341D01*
X47384922Y-78028996D01*
X47400094Y-78020886D01*
X47532758Y-77949976D01*
X47693177Y-77901313D01*
X47818196Y-77889000D01*
X48701804Y-77889000D01*
X48826823Y-77901313D01*
G37*
G36*
X68693512Y-75323927D02*
G01*
X68842812Y-75353624D01*
X69006784Y-75421544D01*
X69154354Y-75520147D01*
X69279853Y-75645646D01*
X69378456Y-75793216D01*
X69446376Y-75957188D01*
X69481000Y-76131259D01*
X69481000Y-76308741D01*
X69446376Y-76482812D01*
X69378456Y-76646784D01*
X69279853Y-76794354D01*
X69154354Y-76919853D01*
X69006784Y-77018456D01*
X68842812Y-77086376D01*
X68693512Y-77116073D01*
X68668742Y-77121000D01*
X68491258Y-77121000D01*
X68466488Y-77116073D01*
X68317188Y-77086376D01*
X68153216Y-77018456D01*
X68005646Y-76919853D01*
X67880147Y-76794354D01*
X67781544Y-76646784D01*
X67713624Y-76482812D01*
X67679000Y-76308741D01*
X67679000Y-76131259D01*
X67713624Y-75957188D01*
X67781544Y-75793216D01*
X67880147Y-75645646D01*
X68005646Y-75520147D01*
X68153216Y-75421544D01*
X68317188Y-75353624D01*
X68466488Y-75323927D01*
X68491258Y-75319000D01*
X68668742Y-75319000D01*
X68693512Y-75323927D01*
G37*
G36*
X59693512Y-75323927D02*
G01*
X59842812Y-75353624D01*
X60006784Y-75421544D01*
X60154354Y-75520147D01*
X60279853Y-75645646D01*
X60378456Y-75793216D01*
X60446376Y-75957188D01*
X60481000Y-76131259D01*
X60481000Y-76308741D01*
X60446376Y-76482812D01*
X60378456Y-76646784D01*
X60279853Y-76794354D01*
X60154354Y-76919853D01*
X60006784Y-77018456D01*
X59842812Y-77086376D01*
X59693512Y-77116073D01*
X59668742Y-77121000D01*
X59491258Y-77121000D01*
X59466488Y-77116073D01*
X59317188Y-77086376D01*
X59153216Y-77018456D01*
X59005646Y-76919853D01*
X58880147Y-76794354D01*
X58781544Y-76646784D01*
X58713624Y-76482812D01*
X58679000Y-76308741D01*
X58679000Y-76131259D01*
X58713624Y-75957188D01*
X58781544Y-75793216D01*
X58880147Y-75645646D01*
X59005646Y-75520147D01*
X59153216Y-75421544D01*
X59317188Y-75353624D01*
X59466488Y-75323927D01*
X59491258Y-75319000D01*
X59668742Y-75319000D01*
X59693512Y-75323927D01*
G37*
G36*
X83933512Y-75323927D02*
G01*
X84082812Y-75353624D01*
X84246784Y-75421544D01*
X84394354Y-75520147D01*
X84519853Y-75645646D01*
X84618456Y-75793216D01*
X84686376Y-75957188D01*
X84721000Y-76131259D01*
X84721000Y-76308741D01*
X84686376Y-76482812D01*
X84618456Y-76646784D01*
X84519853Y-76794354D01*
X84394354Y-76919853D01*
X84246784Y-77018456D01*
X84082812Y-77086376D01*
X83933512Y-77116073D01*
X83908742Y-77121000D01*
X83731258Y-77121000D01*
X83706488Y-77116073D01*
X83557188Y-77086376D01*
X83393216Y-77018456D01*
X83245646Y-76919853D01*
X83120147Y-76794354D01*
X83021544Y-76646784D01*
X82953624Y-76482812D01*
X82919000Y-76308741D01*
X82919000Y-76131259D01*
X82953624Y-75957188D01*
X83021544Y-75793216D01*
X83120147Y-75645646D01*
X83245646Y-75520147D01*
X83393216Y-75421544D01*
X83557188Y-75353624D01*
X83706488Y-75323927D01*
X83731258Y-75319000D01*
X83908742Y-75319000D01*
X83933512Y-75323927D01*
G37*
G36*
X108173512Y-75303927D02*
G01*
X108322812Y-75333624D01*
X108486784Y-75401544D01*
X108634354Y-75500147D01*
X108759853Y-75625646D01*
X108858456Y-75773216D01*
X108926376Y-75937188D01*
X108961000Y-76111259D01*
X108961000Y-76288741D01*
X108926376Y-76462812D01*
X108858456Y-76626784D01*
X108759853Y-76774354D01*
X108634354Y-76899853D01*
X108486784Y-76998456D01*
X108322812Y-77066376D01*
X108173512Y-77096073D01*
X108148742Y-77101000D01*
X107971258Y-77101000D01*
X107946488Y-77096073D01*
X107797188Y-77066376D01*
X107633216Y-76998456D01*
X107485646Y-76899853D01*
X107360147Y-76774354D01*
X107261544Y-76626784D01*
X107193624Y-76462812D01*
X107159000Y-76288741D01*
X107159000Y-76111259D01*
X107193624Y-75937188D01*
X107261544Y-75773216D01*
X107360147Y-75625646D01*
X107485646Y-75500147D01*
X107633216Y-75401544D01*
X107797188Y-75333624D01*
X107946488Y-75303927D01*
X107971258Y-75299000D01*
X108148742Y-75299000D01*
X108173512Y-75303927D01*
G37*
G36*
X92933512Y-75303927D02*
G01*
X93082812Y-75333624D01*
X93246784Y-75401544D01*
X93394354Y-75500147D01*
X93519853Y-75625646D01*
X93618456Y-75773216D01*
X93686376Y-75937188D01*
X93721000Y-76111259D01*
X93721000Y-76288741D01*
X93686376Y-76462812D01*
X93618456Y-76626784D01*
X93519853Y-76774354D01*
X93394354Y-76899853D01*
X93246784Y-76998456D01*
X93082812Y-77066376D01*
X92933512Y-77096073D01*
X92908742Y-77101000D01*
X92731258Y-77101000D01*
X92706488Y-77096073D01*
X92557188Y-77066376D01*
X92393216Y-76998456D01*
X92245646Y-76899853D01*
X92120147Y-76774354D01*
X92021544Y-76626784D01*
X91953624Y-76462812D01*
X91919000Y-76288741D01*
X91919000Y-76111259D01*
X91953624Y-75937188D01*
X92021544Y-75773216D01*
X92120147Y-75625646D01*
X92245646Y-75500147D01*
X92393216Y-75401544D01*
X92557188Y-75333624D01*
X92706488Y-75303927D01*
X92731258Y-75299000D01*
X92908742Y-75299000D01*
X92933512Y-75303927D01*
G37*
G36*
X89466823Y-75361313D02*
G01*
X89627242Y-75409976D01*
X89759906Y-75480886D01*
X89775078Y-75488996D01*
X89904659Y-75595341D01*
X90011004Y-75724922D01*
X90011005Y-75724924D01*
X90090024Y-75872758D01*
X90138687Y-76033177D01*
X90155117Y-76200000D01*
X90138687Y-76366823D01*
X90090024Y-76527242D01*
X90026128Y-76646782D01*
X90011004Y-76675078D01*
X89904659Y-76804659D01*
X89775078Y-76911004D01*
X89775076Y-76911005D01*
X89627242Y-76990024D01*
X89466823Y-77038687D01*
X89341804Y-77051000D01*
X88458196Y-77051000D01*
X88333177Y-77038687D01*
X88172758Y-76990024D01*
X88024924Y-76911005D01*
X88024922Y-76911004D01*
X87895341Y-76804659D01*
X87788996Y-76675078D01*
X87773872Y-76646782D01*
X87709976Y-76527242D01*
X87661313Y-76366823D01*
X87644883Y-76200000D01*
X87661313Y-76033177D01*
X87709976Y-75872758D01*
X87788995Y-75724924D01*
X87788996Y-75724922D01*
X87895341Y-75595341D01*
X88024922Y-75488996D01*
X88040094Y-75480886D01*
X88172758Y-75409976D01*
X88333177Y-75361313D01*
X88458196Y-75349000D01*
X89341804Y-75349000D01*
X89466823Y-75361313D01*
G37*
G36*
X64066823Y-75361313D02*
G01*
X64227242Y-75409976D01*
X64359906Y-75480886D01*
X64375078Y-75488996D01*
X64504659Y-75595341D01*
X64611004Y-75724922D01*
X64611005Y-75724924D01*
X64690024Y-75872758D01*
X64738687Y-76033177D01*
X64755117Y-76200000D01*
X64738687Y-76366823D01*
X64690024Y-76527242D01*
X64626128Y-76646782D01*
X64611004Y-76675078D01*
X64504659Y-76804659D01*
X64375078Y-76911004D01*
X64375076Y-76911005D01*
X64227242Y-76990024D01*
X64066823Y-77038687D01*
X63941804Y-77051000D01*
X63058196Y-77051000D01*
X62933177Y-77038687D01*
X62772758Y-76990024D01*
X62624924Y-76911005D01*
X62624922Y-76911004D01*
X62495341Y-76804659D01*
X62388996Y-76675078D01*
X62373872Y-76646782D01*
X62309976Y-76527242D01*
X62261313Y-76366823D01*
X62244883Y-76200000D01*
X62261313Y-76033177D01*
X62309976Y-75872758D01*
X62388995Y-75724924D01*
X62388996Y-75724922D01*
X62495341Y-75595341D01*
X62624922Y-75488996D01*
X62640094Y-75480886D01*
X62772758Y-75409976D01*
X62933177Y-75361313D01*
X63058196Y-75349000D01*
X63941804Y-75349000D01*
X64066823Y-75361313D01*
G37*
G36*
X48826823Y-75361313D02*
G01*
X48987242Y-75409976D01*
X49119906Y-75480886D01*
X49135078Y-75488996D01*
X49264659Y-75595341D01*
X49371004Y-75724922D01*
X49371005Y-75724924D01*
X49450024Y-75872758D01*
X49498687Y-76033177D01*
X49515117Y-76200000D01*
X49498687Y-76366823D01*
X49450024Y-76527242D01*
X49386128Y-76646782D01*
X49371004Y-76675078D01*
X49264659Y-76804659D01*
X49135078Y-76911004D01*
X49135076Y-76911005D01*
X48987242Y-76990024D01*
X48826823Y-77038687D01*
X48701804Y-77051000D01*
X47818196Y-77051000D01*
X47693177Y-77038687D01*
X47532758Y-76990024D01*
X47384924Y-76911005D01*
X47384922Y-76911004D01*
X47255341Y-76804659D01*
X47148996Y-76675078D01*
X47133872Y-76646782D01*
X47069976Y-76527242D01*
X47021313Y-76366823D01*
X47004883Y-76200000D01*
X47021313Y-76033177D01*
X47069976Y-75872758D01*
X47148995Y-75724924D01*
X47148996Y-75724922D01*
X47255341Y-75595341D01*
X47384922Y-75488996D01*
X47400094Y-75480886D01*
X47532758Y-75409976D01*
X47693177Y-75361313D01*
X47818196Y-75349000D01*
X48701804Y-75349000D01*
X48826823Y-75361313D01*
G37*
G36*
X102166823Y-75361313D02*
G01*
X102327242Y-75409976D01*
X102459906Y-75480886D01*
X102475078Y-75488996D01*
X102604659Y-75595341D01*
X102711004Y-75724922D01*
X102711005Y-75724924D01*
X102790024Y-75872758D01*
X102838687Y-76033177D01*
X102855117Y-76200000D01*
X102838687Y-76366823D01*
X102790024Y-76527242D01*
X102726128Y-76646782D01*
X102711004Y-76675078D01*
X102604659Y-76804659D01*
X102475078Y-76911004D01*
X102475076Y-76911005D01*
X102327242Y-76990024D01*
X102166823Y-77038687D01*
X102041804Y-77051000D01*
X101158196Y-77051000D01*
X101033177Y-77038687D01*
X100872758Y-76990024D01*
X100724924Y-76911005D01*
X100724922Y-76911004D01*
X100595341Y-76804659D01*
X100488996Y-76675078D01*
X100473872Y-76646782D01*
X100409976Y-76527242D01*
X100361313Y-76366823D01*
X100344883Y-76200000D01*
X100361313Y-76033177D01*
X100409976Y-75872758D01*
X100488995Y-75724924D01*
X100488996Y-75724922D01*
X100595341Y-75595341D01*
X100724922Y-75488996D01*
X100740094Y-75480886D01*
X100872758Y-75409976D01*
X101033177Y-75361313D01*
X101158196Y-75349000D01*
X102041804Y-75349000D01*
X102166823Y-75361313D01*
G37*
G36*
X74226823Y-75361313D02*
G01*
X74387242Y-75409976D01*
X74519906Y-75480886D01*
X74535078Y-75488996D01*
X74664659Y-75595341D01*
X74771004Y-75724922D01*
X74771005Y-75724924D01*
X74850024Y-75872758D01*
X74898687Y-76033177D01*
X74915117Y-76200000D01*
X74898687Y-76366823D01*
X74850024Y-76527242D01*
X74786128Y-76646782D01*
X74771004Y-76675078D01*
X74664659Y-76804659D01*
X74535078Y-76911004D01*
X74535076Y-76911005D01*
X74387242Y-76990024D01*
X74226823Y-77038687D01*
X74101804Y-77051000D01*
X73218196Y-77051000D01*
X73093177Y-77038687D01*
X72932758Y-76990024D01*
X72784924Y-76911005D01*
X72784922Y-76911004D01*
X72655341Y-76804659D01*
X72548996Y-76675078D01*
X72533872Y-76646782D01*
X72469976Y-76527242D01*
X72421313Y-76366823D01*
X72404883Y-76200000D01*
X72421313Y-76033177D01*
X72469976Y-75872758D01*
X72548995Y-75724924D01*
X72548996Y-75724922D01*
X72655341Y-75595341D01*
X72784922Y-75488996D01*
X72800094Y-75480886D01*
X72932758Y-75409976D01*
X73093177Y-75361313D01*
X73218196Y-75349000D01*
X74101804Y-75349000D01*
X74226823Y-75361313D01*
G37*
G36*
X117406823Y-75361313D02*
G01*
X117567242Y-75409976D01*
X117699906Y-75480886D01*
X117715078Y-75488996D01*
X117844659Y-75595341D01*
X117951004Y-75724922D01*
X117951005Y-75724924D01*
X118030024Y-75872758D01*
X118078687Y-76033177D01*
X118095117Y-76200000D01*
X118078687Y-76366823D01*
X118030024Y-76527242D01*
X117966128Y-76646782D01*
X117951004Y-76675078D01*
X117844659Y-76804659D01*
X117715078Y-76911004D01*
X117715076Y-76911005D01*
X117567242Y-76990024D01*
X117406823Y-77038687D01*
X117281804Y-77051000D01*
X116398196Y-77051000D01*
X116273177Y-77038687D01*
X116112758Y-76990024D01*
X115964924Y-76911005D01*
X115964922Y-76911004D01*
X115835341Y-76804659D01*
X115728996Y-76675078D01*
X115713872Y-76646782D01*
X115649976Y-76527242D01*
X115601313Y-76366823D01*
X115584883Y-76200000D01*
X115601313Y-76033177D01*
X115649976Y-75872758D01*
X115728995Y-75724924D01*
X115728996Y-75724922D01*
X115835341Y-75595341D01*
X115964922Y-75488996D01*
X115980094Y-75480886D01*
X116112758Y-75409976D01*
X116273177Y-75361313D01*
X116398196Y-75349000D01*
X117281804Y-75349000D01*
X117406823Y-75361313D01*
G37*
G36*
X83933512Y-72783927D02*
G01*
X84082812Y-72813624D01*
X84246784Y-72881544D01*
X84394354Y-72980147D01*
X84519853Y-73105646D01*
X84618456Y-73253216D01*
X84686376Y-73417188D01*
X84721000Y-73591259D01*
X84721000Y-73768741D01*
X84686376Y-73942812D01*
X84618456Y-74106784D01*
X84519853Y-74254354D01*
X84394354Y-74379853D01*
X84246784Y-74478456D01*
X84082812Y-74546376D01*
X83933512Y-74576073D01*
X83908742Y-74581000D01*
X83731258Y-74581000D01*
X83706488Y-74576073D01*
X83557188Y-74546376D01*
X83393216Y-74478456D01*
X83245646Y-74379853D01*
X83120147Y-74254354D01*
X83021544Y-74106784D01*
X82953624Y-73942812D01*
X82919000Y-73768741D01*
X82919000Y-73591259D01*
X82953624Y-73417188D01*
X83021544Y-73253216D01*
X83120147Y-73105646D01*
X83245646Y-72980147D01*
X83393216Y-72881544D01*
X83557188Y-72813624D01*
X83706488Y-72783927D01*
X83731258Y-72779000D01*
X83908742Y-72779000D01*
X83933512Y-72783927D01*
G37*
G36*
X68693512Y-72783927D02*
G01*
X68842812Y-72813624D01*
X69006784Y-72881544D01*
X69154354Y-72980147D01*
X69279853Y-73105646D01*
X69378456Y-73253216D01*
X69446376Y-73417188D01*
X69481000Y-73591259D01*
X69481000Y-73768741D01*
X69446376Y-73942812D01*
X69378456Y-74106784D01*
X69279853Y-74254354D01*
X69154354Y-74379853D01*
X69006784Y-74478456D01*
X68842812Y-74546376D01*
X68693512Y-74576073D01*
X68668742Y-74581000D01*
X68491258Y-74581000D01*
X68466488Y-74576073D01*
X68317188Y-74546376D01*
X68153216Y-74478456D01*
X68005646Y-74379853D01*
X67880147Y-74254354D01*
X67781544Y-74106784D01*
X67713624Y-73942812D01*
X67679000Y-73768741D01*
X67679000Y-73591259D01*
X67713624Y-73417188D01*
X67781544Y-73253216D01*
X67880147Y-73105646D01*
X68005646Y-72980147D01*
X68153216Y-72881544D01*
X68317188Y-72813624D01*
X68466488Y-72783927D01*
X68491258Y-72779000D01*
X68668742Y-72779000D01*
X68693512Y-72783927D01*
G37*
G36*
X59693512Y-72783927D02*
G01*
X59842812Y-72813624D01*
X60006784Y-72881544D01*
X60154354Y-72980147D01*
X60279853Y-73105646D01*
X60378456Y-73253216D01*
X60446376Y-73417188D01*
X60481000Y-73591259D01*
X60481000Y-73768741D01*
X60446376Y-73942812D01*
X60378456Y-74106784D01*
X60279853Y-74254354D01*
X60154354Y-74379853D01*
X60006784Y-74478456D01*
X59842812Y-74546376D01*
X59693512Y-74576073D01*
X59668742Y-74581000D01*
X59491258Y-74581000D01*
X59466488Y-74576073D01*
X59317188Y-74546376D01*
X59153216Y-74478456D01*
X59005646Y-74379853D01*
X58880147Y-74254354D01*
X58781544Y-74106784D01*
X58713624Y-73942812D01*
X58679000Y-73768741D01*
X58679000Y-73591259D01*
X58713624Y-73417188D01*
X58781544Y-73253216D01*
X58880147Y-73105646D01*
X59005646Y-72980147D01*
X59153216Y-72881544D01*
X59317188Y-72813624D01*
X59466488Y-72783927D01*
X59491258Y-72779000D01*
X59668742Y-72779000D01*
X59693512Y-72783927D01*
G37*
G36*
X92933512Y-72763927D02*
G01*
X93082812Y-72793624D01*
X93246784Y-72861544D01*
X93394354Y-72960147D01*
X93519853Y-73085646D01*
X93618456Y-73233216D01*
X93686376Y-73397188D01*
X93721000Y-73571259D01*
X93721000Y-73748741D01*
X93686376Y-73922812D01*
X93618456Y-74086784D01*
X93519853Y-74234354D01*
X93394354Y-74359853D01*
X93246784Y-74458456D01*
X93082812Y-74526376D01*
X92933512Y-74556073D01*
X92908742Y-74561000D01*
X92731258Y-74561000D01*
X92706488Y-74556073D01*
X92557188Y-74526376D01*
X92393216Y-74458456D01*
X92245646Y-74359853D01*
X92120147Y-74234354D01*
X92021544Y-74086784D01*
X91953624Y-73922812D01*
X91919000Y-73748741D01*
X91919000Y-73571259D01*
X91953624Y-73397188D01*
X92021544Y-73233216D01*
X92120147Y-73085646D01*
X92245646Y-72960147D01*
X92393216Y-72861544D01*
X92557188Y-72793624D01*
X92706488Y-72763927D01*
X92731258Y-72759000D01*
X92908742Y-72759000D01*
X92933512Y-72763927D01*
G37*
G36*
X108173512Y-72763927D02*
G01*
X108322812Y-72793624D01*
X108486784Y-72861544D01*
X108634354Y-72960147D01*
X108759853Y-73085646D01*
X108858456Y-73233216D01*
X108926376Y-73397188D01*
X108961000Y-73571259D01*
X108961000Y-73748741D01*
X108926376Y-73922812D01*
X108858456Y-74086784D01*
X108759853Y-74234354D01*
X108634354Y-74359853D01*
X108486784Y-74458456D01*
X108322812Y-74526376D01*
X108173512Y-74556073D01*
X108148742Y-74561000D01*
X107971258Y-74561000D01*
X107946488Y-74556073D01*
X107797188Y-74526376D01*
X107633216Y-74458456D01*
X107485646Y-74359853D01*
X107360147Y-74234354D01*
X107261544Y-74086784D01*
X107193624Y-73922812D01*
X107159000Y-73748741D01*
X107159000Y-73571259D01*
X107193624Y-73397188D01*
X107261544Y-73233216D01*
X107360147Y-73085646D01*
X107485646Y-72960147D01*
X107633216Y-72861544D01*
X107797188Y-72793624D01*
X107946488Y-72763927D01*
X107971258Y-72759000D01*
X108148742Y-72759000D01*
X108173512Y-72763927D01*
G37*
G36*
X64066823Y-72821313D02*
G01*
X64227242Y-72869976D01*
X64359906Y-72940886D01*
X64375078Y-72948996D01*
X64504659Y-73055341D01*
X64611004Y-73184922D01*
X64611005Y-73184924D01*
X64690024Y-73332758D01*
X64738687Y-73493177D01*
X64755117Y-73660000D01*
X64738687Y-73826823D01*
X64690024Y-73987242D01*
X64626128Y-74106782D01*
X64611004Y-74135078D01*
X64504659Y-74264659D01*
X64375078Y-74371004D01*
X64375076Y-74371005D01*
X64227242Y-74450024D01*
X64066823Y-74498687D01*
X63941804Y-74511000D01*
X63058196Y-74511000D01*
X62933177Y-74498687D01*
X62772758Y-74450024D01*
X62624924Y-74371005D01*
X62624922Y-74371004D01*
X62495341Y-74264659D01*
X62388996Y-74135078D01*
X62373872Y-74106782D01*
X62309976Y-73987242D01*
X62261313Y-73826823D01*
X62244883Y-73660000D01*
X62261313Y-73493177D01*
X62309976Y-73332758D01*
X62388995Y-73184924D01*
X62388996Y-73184922D01*
X62495341Y-73055341D01*
X62624922Y-72948996D01*
X62640094Y-72940886D01*
X62772758Y-72869976D01*
X62933177Y-72821313D01*
X63058196Y-72809000D01*
X63941804Y-72809000D01*
X64066823Y-72821313D01*
G37*
G36*
X74226823Y-72821313D02*
G01*
X74387242Y-72869976D01*
X74519906Y-72940886D01*
X74535078Y-72948996D01*
X74664659Y-73055341D01*
X74771004Y-73184922D01*
X74771005Y-73184924D01*
X74850024Y-73332758D01*
X74898687Y-73493177D01*
X74915117Y-73660000D01*
X74898687Y-73826823D01*
X74850024Y-73987242D01*
X74786128Y-74106782D01*
X74771004Y-74135078D01*
X74664659Y-74264659D01*
X74535078Y-74371004D01*
X74535076Y-74371005D01*
X74387242Y-74450024D01*
X74226823Y-74498687D01*
X74101804Y-74511000D01*
X73218196Y-74511000D01*
X73093177Y-74498687D01*
X72932758Y-74450024D01*
X72784924Y-74371005D01*
X72784922Y-74371004D01*
X72655341Y-74264659D01*
X72548996Y-74135078D01*
X72533872Y-74106782D01*
X72469976Y-73987242D01*
X72421313Y-73826823D01*
X72404883Y-73660000D01*
X72421313Y-73493177D01*
X72469976Y-73332758D01*
X72548995Y-73184924D01*
X72548996Y-73184922D01*
X72655341Y-73055341D01*
X72784922Y-72948996D01*
X72800094Y-72940886D01*
X72932758Y-72869976D01*
X73093177Y-72821313D01*
X73218196Y-72809000D01*
X74101804Y-72809000D01*
X74226823Y-72821313D01*
G37*
G36*
X89466823Y-72821313D02*
G01*
X89627242Y-72869976D01*
X89759906Y-72940886D01*
X89775078Y-72948996D01*
X89904659Y-73055341D01*
X90011004Y-73184922D01*
X90011005Y-73184924D01*
X90090024Y-73332758D01*
X90138687Y-73493177D01*
X90155117Y-73660000D01*
X90138687Y-73826823D01*
X90090024Y-73987242D01*
X90026128Y-74106782D01*
X90011004Y-74135078D01*
X89904659Y-74264659D01*
X89775078Y-74371004D01*
X89775076Y-74371005D01*
X89627242Y-74450024D01*
X89466823Y-74498687D01*
X89341804Y-74511000D01*
X88458196Y-74511000D01*
X88333177Y-74498687D01*
X88172758Y-74450024D01*
X88024924Y-74371005D01*
X88024922Y-74371004D01*
X87895341Y-74264659D01*
X87788996Y-74135078D01*
X87773872Y-74106782D01*
X87709976Y-73987242D01*
X87661313Y-73826823D01*
X87644883Y-73660000D01*
X87661313Y-73493177D01*
X87709976Y-73332758D01*
X87788995Y-73184924D01*
X87788996Y-73184922D01*
X87895341Y-73055341D01*
X88024922Y-72948996D01*
X88040094Y-72940886D01*
X88172758Y-72869976D01*
X88333177Y-72821313D01*
X88458196Y-72809000D01*
X89341804Y-72809000D01*
X89466823Y-72821313D01*
G37*
G36*
X48826823Y-72821313D02*
G01*
X48987242Y-72869976D01*
X49119906Y-72940886D01*
X49135078Y-72948996D01*
X49264659Y-73055341D01*
X49371004Y-73184922D01*
X49371005Y-73184924D01*
X49450024Y-73332758D01*
X49498687Y-73493177D01*
X49515117Y-73660000D01*
X49498687Y-73826823D01*
X49450024Y-73987242D01*
X49386128Y-74106782D01*
X49371004Y-74135078D01*
X49264659Y-74264659D01*
X49135078Y-74371004D01*
X49135076Y-74371005D01*
X48987242Y-74450024D01*
X48826823Y-74498687D01*
X48701804Y-74511000D01*
X47818196Y-74511000D01*
X47693177Y-74498687D01*
X47532758Y-74450024D01*
X47384924Y-74371005D01*
X47384922Y-74371004D01*
X47255341Y-74264659D01*
X47148996Y-74135078D01*
X47133872Y-74106782D01*
X47069976Y-73987242D01*
X47021313Y-73826823D01*
X47004883Y-73660000D01*
X47021313Y-73493177D01*
X47069976Y-73332758D01*
X47148995Y-73184924D01*
X47148996Y-73184922D01*
X47255341Y-73055341D01*
X47384922Y-72948996D01*
X47400094Y-72940886D01*
X47532758Y-72869976D01*
X47693177Y-72821313D01*
X47818196Y-72809000D01*
X48701804Y-72809000D01*
X48826823Y-72821313D01*
G37*
G36*
X102166823Y-72821313D02*
G01*
X102327242Y-72869976D01*
X102459906Y-72940886D01*
X102475078Y-72948996D01*
X102604659Y-73055341D01*
X102711004Y-73184922D01*
X102711005Y-73184924D01*
X102790024Y-73332758D01*
X102838687Y-73493177D01*
X102855117Y-73660000D01*
X102838687Y-73826823D01*
X102790024Y-73987242D01*
X102726128Y-74106782D01*
X102711004Y-74135078D01*
X102604659Y-74264659D01*
X102475078Y-74371004D01*
X102475076Y-74371005D01*
X102327242Y-74450024D01*
X102166823Y-74498687D01*
X102041804Y-74511000D01*
X101158196Y-74511000D01*
X101033177Y-74498687D01*
X100872758Y-74450024D01*
X100724924Y-74371005D01*
X100724922Y-74371004D01*
X100595341Y-74264659D01*
X100488996Y-74135078D01*
X100473872Y-74106782D01*
X100409976Y-73987242D01*
X100361313Y-73826823D01*
X100344883Y-73660000D01*
X100361313Y-73493177D01*
X100409976Y-73332758D01*
X100488995Y-73184924D01*
X100488996Y-73184922D01*
X100595341Y-73055341D01*
X100724922Y-72948996D01*
X100740094Y-72940886D01*
X100872758Y-72869976D01*
X101033177Y-72821313D01*
X101158196Y-72809000D01*
X102041804Y-72809000D01*
X102166823Y-72821313D01*
G37*
G36*
X117406823Y-72821313D02*
G01*
X117567242Y-72869976D01*
X117699906Y-72940886D01*
X117715078Y-72948996D01*
X117844659Y-73055341D01*
X117951004Y-73184922D01*
X117951005Y-73184924D01*
X118030024Y-73332758D01*
X118078687Y-73493177D01*
X118095117Y-73660000D01*
X118078687Y-73826823D01*
X118030024Y-73987242D01*
X117966128Y-74106782D01*
X117951004Y-74135078D01*
X117844659Y-74264659D01*
X117715078Y-74371004D01*
X117715076Y-74371005D01*
X117567242Y-74450024D01*
X117406823Y-74498687D01*
X117281804Y-74511000D01*
X116398196Y-74511000D01*
X116273177Y-74498687D01*
X116112758Y-74450024D01*
X115964924Y-74371005D01*
X115964922Y-74371004D01*
X115835341Y-74264659D01*
X115728996Y-74135078D01*
X115713872Y-74106782D01*
X115649976Y-73987242D01*
X115601313Y-73826823D01*
X115584883Y-73660000D01*
X115601313Y-73493177D01*
X115649976Y-73332758D01*
X115728995Y-73184924D01*
X115728996Y-73184922D01*
X115835341Y-73055341D01*
X115964922Y-72948996D01*
X115980094Y-72940886D01*
X116112758Y-72869976D01*
X116273177Y-72821313D01*
X116398196Y-72809000D01*
X117281804Y-72809000D01*
X117406823Y-72821313D01*
G37*
G36*
X59693512Y-70243927D02*
G01*
X59842812Y-70273624D01*
X60006784Y-70341544D01*
X60154354Y-70440147D01*
X60279853Y-70565646D01*
X60378456Y-70713216D01*
X60446376Y-70877188D01*
X60481000Y-71051259D01*
X60481000Y-71228741D01*
X60446376Y-71402812D01*
X60378456Y-71566784D01*
X60279853Y-71714354D01*
X60154354Y-71839853D01*
X60006784Y-71938456D01*
X59842812Y-72006376D01*
X59693512Y-72036073D01*
X59668742Y-72041000D01*
X59491258Y-72041000D01*
X59466488Y-72036073D01*
X59317188Y-72006376D01*
X59153216Y-71938456D01*
X59005646Y-71839853D01*
X58880147Y-71714354D01*
X58781544Y-71566784D01*
X58713624Y-71402812D01*
X58679000Y-71228741D01*
X58679000Y-71051259D01*
X58713624Y-70877188D01*
X58781544Y-70713216D01*
X58880147Y-70565646D01*
X59005646Y-70440147D01*
X59153216Y-70341544D01*
X59317188Y-70273624D01*
X59466488Y-70243927D01*
X59491258Y-70239000D01*
X59668742Y-70239000D01*
X59693512Y-70243927D01*
G37*
G36*
X68693512Y-70243927D02*
G01*
X68842812Y-70273624D01*
X69006784Y-70341544D01*
X69154354Y-70440147D01*
X69279853Y-70565646D01*
X69378456Y-70713216D01*
X69446376Y-70877188D01*
X69481000Y-71051259D01*
X69481000Y-71228741D01*
X69446376Y-71402812D01*
X69378456Y-71566784D01*
X69279853Y-71714354D01*
X69154354Y-71839853D01*
X69006784Y-71938456D01*
X68842812Y-72006376D01*
X68693512Y-72036073D01*
X68668742Y-72041000D01*
X68491258Y-72041000D01*
X68466488Y-72036073D01*
X68317188Y-72006376D01*
X68153216Y-71938456D01*
X68005646Y-71839853D01*
X67880147Y-71714354D01*
X67781544Y-71566784D01*
X67713624Y-71402812D01*
X67679000Y-71228741D01*
X67679000Y-71051259D01*
X67713624Y-70877188D01*
X67781544Y-70713216D01*
X67880147Y-70565646D01*
X68005646Y-70440147D01*
X68153216Y-70341544D01*
X68317188Y-70273624D01*
X68466488Y-70243927D01*
X68491258Y-70239000D01*
X68668742Y-70239000D01*
X68693512Y-70243927D01*
G37*
G36*
X83933512Y-70243927D02*
G01*
X84082812Y-70273624D01*
X84246784Y-70341544D01*
X84394354Y-70440147D01*
X84519853Y-70565646D01*
X84618456Y-70713216D01*
X84686376Y-70877188D01*
X84721000Y-71051259D01*
X84721000Y-71228741D01*
X84686376Y-71402812D01*
X84618456Y-71566784D01*
X84519853Y-71714354D01*
X84394354Y-71839853D01*
X84246784Y-71938456D01*
X84082812Y-72006376D01*
X83933512Y-72036073D01*
X83908742Y-72041000D01*
X83731258Y-72041000D01*
X83706488Y-72036073D01*
X83557188Y-72006376D01*
X83393216Y-71938456D01*
X83245646Y-71839853D01*
X83120147Y-71714354D01*
X83021544Y-71566784D01*
X82953624Y-71402812D01*
X82919000Y-71228741D01*
X82919000Y-71051259D01*
X82953624Y-70877188D01*
X83021544Y-70713216D01*
X83120147Y-70565646D01*
X83245646Y-70440147D01*
X83393216Y-70341544D01*
X83557188Y-70273624D01*
X83706488Y-70243927D01*
X83731258Y-70239000D01*
X83908742Y-70239000D01*
X83933512Y-70243927D01*
G37*
G36*
X108173512Y-70223927D02*
G01*
X108322812Y-70253624D01*
X108486784Y-70321544D01*
X108634354Y-70420147D01*
X108759853Y-70545646D01*
X108858456Y-70693216D01*
X108926376Y-70857188D01*
X108961000Y-71031259D01*
X108961000Y-71208741D01*
X108926376Y-71382812D01*
X108858456Y-71546784D01*
X108759853Y-71694354D01*
X108634354Y-71819853D01*
X108486784Y-71918456D01*
X108322812Y-71986376D01*
X108173512Y-72016073D01*
X108148742Y-72021000D01*
X107971258Y-72021000D01*
X107946488Y-72016073D01*
X107797188Y-71986376D01*
X107633216Y-71918456D01*
X107485646Y-71819853D01*
X107360147Y-71694354D01*
X107261544Y-71546784D01*
X107193624Y-71382812D01*
X107159000Y-71208741D01*
X107159000Y-71031259D01*
X107193624Y-70857188D01*
X107261544Y-70693216D01*
X107360147Y-70545646D01*
X107485646Y-70420147D01*
X107633216Y-70321544D01*
X107797188Y-70253624D01*
X107946488Y-70223927D01*
X107971258Y-70219000D01*
X108148742Y-70219000D01*
X108173512Y-70223927D01*
G37*
G36*
X92933512Y-70223927D02*
G01*
X93082812Y-70253624D01*
X93246784Y-70321544D01*
X93394354Y-70420147D01*
X93519853Y-70545646D01*
X93618456Y-70693216D01*
X93686376Y-70857188D01*
X93721000Y-71031259D01*
X93721000Y-71208741D01*
X93686376Y-71382812D01*
X93618456Y-71546784D01*
X93519853Y-71694354D01*
X93394354Y-71819853D01*
X93246784Y-71918456D01*
X93082812Y-71986376D01*
X92933512Y-72016073D01*
X92908742Y-72021000D01*
X92731258Y-72021000D01*
X92706488Y-72016073D01*
X92557188Y-71986376D01*
X92393216Y-71918456D01*
X92245646Y-71819853D01*
X92120147Y-71694354D01*
X92021544Y-71546784D01*
X91953624Y-71382812D01*
X91919000Y-71208741D01*
X91919000Y-71031259D01*
X91953624Y-70857188D01*
X92021544Y-70693216D01*
X92120147Y-70545646D01*
X92245646Y-70420147D01*
X92393216Y-70321544D01*
X92557188Y-70253624D01*
X92706488Y-70223927D01*
X92731258Y-70219000D01*
X92908742Y-70219000D01*
X92933512Y-70223927D01*
G37*
G36*
X48826823Y-70281313D02*
G01*
X48987242Y-70329976D01*
X49119906Y-70400886D01*
X49135078Y-70408996D01*
X49264659Y-70515341D01*
X49371004Y-70644922D01*
X49371005Y-70644924D01*
X49450024Y-70792758D01*
X49498687Y-70953177D01*
X49515117Y-71120000D01*
X49498687Y-71286823D01*
X49450024Y-71447242D01*
X49386128Y-71566782D01*
X49371004Y-71595078D01*
X49264659Y-71724659D01*
X49135078Y-71831004D01*
X49135076Y-71831005D01*
X48987242Y-71910024D01*
X48826823Y-71958687D01*
X48701804Y-71971000D01*
X47818196Y-71971000D01*
X47693177Y-71958687D01*
X47532758Y-71910024D01*
X47384924Y-71831005D01*
X47384922Y-71831004D01*
X47255341Y-71724659D01*
X47148996Y-71595078D01*
X47133872Y-71566782D01*
X47069976Y-71447242D01*
X47021313Y-71286823D01*
X47004883Y-71120000D01*
X47021313Y-70953177D01*
X47069976Y-70792758D01*
X47148995Y-70644924D01*
X47148996Y-70644922D01*
X47255341Y-70515341D01*
X47384922Y-70408996D01*
X47400094Y-70400886D01*
X47532758Y-70329976D01*
X47693177Y-70281313D01*
X47818196Y-70269000D01*
X48701804Y-70269000D01*
X48826823Y-70281313D01*
G37*
G36*
X64066823Y-70281313D02*
G01*
X64227242Y-70329976D01*
X64359906Y-70400886D01*
X64375078Y-70408996D01*
X64504659Y-70515341D01*
X64611004Y-70644922D01*
X64611005Y-70644924D01*
X64690024Y-70792758D01*
X64738687Y-70953177D01*
X64755117Y-71120000D01*
X64738687Y-71286823D01*
X64690024Y-71447242D01*
X64626128Y-71566782D01*
X64611004Y-71595078D01*
X64504659Y-71724659D01*
X64375078Y-71831004D01*
X64375076Y-71831005D01*
X64227242Y-71910024D01*
X64066823Y-71958687D01*
X63941804Y-71971000D01*
X63058196Y-71971000D01*
X62933177Y-71958687D01*
X62772758Y-71910024D01*
X62624924Y-71831005D01*
X62624922Y-71831004D01*
X62495341Y-71724659D01*
X62388996Y-71595078D01*
X62373872Y-71566782D01*
X62309976Y-71447242D01*
X62261313Y-71286823D01*
X62244883Y-71120000D01*
X62261313Y-70953177D01*
X62309976Y-70792758D01*
X62388995Y-70644924D01*
X62388996Y-70644922D01*
X62495341Y-70515341D01*
X62624922Y-70408996D01*
X62640094Y-70400886D01*
X62772758Y-70329976D01*
X62933177Y-70281313D01*
X63058196Y-70269000D01*
X63941804Y-70269000D01*
X64066823Y-70281313D01*
G37*
G36*
X102166823Y-70281313D02*
G01*
X102327242Y-70329976D01*
X102459906Y-70400886D01*
X102475078Y-70408996D01*
X102604659Y-70515341D01*
X102711004Y-70644922D01*
X102711005Y-70644924D01*
X102790024Y-70792758D01*
X102838687Y-70953177D01*
X102855117Y-71120000D01*
X102838687Y-71286823D01*
X102790024Y-71447242D01*
X102726128Y-71566782D01*
X102711004Y-71595078D01*
X102604659Y-71724659D01*
X102475078Y-71831004D01*
X102475076Y-71831005D01*
X102327242Y-71910024D01*
X102166823Y-71958687D01*
X102041804Y-71971000D01*
X101158196Y-71971000D01*
X101033177Y-71958687D01*
X100872758Y-71910024D01*
X100724924Y-71831005D01*
X100724922Y-71831004D01*
X100595341Y-71724659D01*
X100488996Y-71595078D01*
X100473872Y-71566782D01*
X100409976Y-71447242D01*
X100361313Y-71286823D01*
X100344883Y-71120000D01*
X100361313Y-70953177D01*
X100409976Y-70792758D01*
X100488995Y-70644924D01*
X100488996Y-70644922D01*
X100595341Y-70515341D01*
X100724922Y-70408996D01*
X100740094Y-70400886D01*
X100872758Y-70329976D01*
X101033177Y-70281313D01*
X101158196Y-70269000D01*
X102041804Y-70269000D01*
X102166823Y-70281313D01*
G37*
G36*
X89466823Y-70281313D02*
G01*
X89627242Y-70329976D01*
X89759906Y-70400886D01*
X89775078Y-70408996D01*
X89904659Y-70515341D01*
X90011004Y-70644922D01*
X90011005Y-70644924D01*
X90090024Y-70792758D01*
X90138687Y-70953177D01*
X90155117Y-71120000D01*
X90138687Y-71286823D01*
X90090024Y-71447242D01*
X90026128Y-71566782D01*
X90011004Y-71595078D01*
X89904659Y-71724659D01*
X89775078Y-71831004D01*
X89775076Y-71831005D01*
X89627242Y-71910024D01*
X89466823Y-71958687D01*
X89341804Y-71971000D01*
X88458196Y-71971000D01*
X88333177Y-71958687D01*
X88172758Y-71910024D01*
X88024924Y-71831005D01*
X88024922Y-71831004D01*
X87895341Y-71724659D01*
X87788996Y-71595078D01*
X87773872Y-71566782D01*
X87709976Y-71447242D01*
X87661313Y-71286823D01*
X87644883Y-71120000D01*
X87661313Y-70953177D01*
X87709976Y-70792758D01*
X87788995Y-70644924D01*
X87788996Y-70644922D01*
X87895341Y-70515341D01*
X88024922Y-70408996D01*
X88040094Y-70400886D01*
X88172758Y-70329976D01*
X88333177Y-70281313D01*
X88458196Y-70269000D01*
X89341804Y-70269000D01*
X89466823Y-70281313D01*
G37*
G36*
X117406823Y-70281313D02*
G01*
X117567242Y-70329976D01*
X117699906Y-70400886D01*
X117715078Y-70408996D01*
X117844659Y-70515341D01*
X117951004Y-70644922D01*
X117951005Y-70644924D01*
X118030024Y-70792758D01*
X118078687Y-70953177D01*
X118095117Y-71120000D01*
X118078687Y-71286823D01*
X118030024Y-71447242D01*
X117966128Y-71566782D01*
X117951004Y-71595078D01*
X117844659Y-71724659D01*
X117715078Y-71831004D01*
X117715076Y-71831005D01*
X117567242Y-71910024D01*
X117406823Y-71958687D01*
X117281804Y-71971000D01*
X116398196Y-71971000D01*
X116273177Y-71958687D01*
X116112758Y-71910024D01*
X115964924Y-71831005D01*
X115964922Y-71831004D01*
X115835341Y-71724659D01*
X115728996Y-71595078D01*
X115713872Y-71566782D01*
X115649976Y-71447242D01*
X115601313Y-71286823D01*
X115584883Y-71120000D01*
X115601313Y-70953177D01*
X115649976Y-70792758D01*
X115728995Y-70644924D01*
X115728996Y-70644922D01*
X115835341Y-70515341D01*
X115964922Y-70408996D01*
X115980094Y-70400886D01*
X116112758Y-70329976D01*
X116273177Y-70281313D01*
X116398196Y-70269000D01*
X117281804Y-70269000D01*
X117406823Y-70281313D01*
G37*
G36*
X74226823Y-70281313D02*
G01*
X74387242Y-70329976D01*
X74519906Y-70400886D01*
X74535078Y-70408996D01*
X74664659Y-70515341D01*
X74771004Y-70644922D01*
X74771005Y-70644924D01*
X74850024Y-70792758D01*
X74898687Y-70953177D01*
X74915117Y-71120000D01*
X74898687Y-71286823D01*
X74850024Y-71447242D01*
X74786128Y-71566782D01*
X74771004Y-71595078D01*
X74664659Y-71724659D01*
X74535078Y-71831004D01*
X74535076Y-71831005D01*
X74387242Y-71910024D01*
X74226823Y-71958687D01*
X74101804Y-71971000D01*
X73218196Y-71971000D01*
X73093177Y-71958687D01*
X72932758Y-71910024D01*
X72784924Y-71831005D01*
X72784922Y-71831004D01*
X72655341Y-71724659D01*
X72548996Y-71595078D01*
X72533872Y-71566782D01*
X72469976Y-71447242D01*
X72421313Y-71286823D01*
X72404883Y-71120000D01*
X72421313Y-70953177D01*
X72469976Y-70792758D01*
X72548995Y-70644924D01*
X72548996Y-70644922D01*
X72655341Y-70515341D01*
X72784922Y-70408996D01*
X72800094Y-70400886D01*
X72932758Y-70329976D01*
X73093177Y-70281313D01*
X73218196Y-70269000D01*
X74101804Y-70269000D01*
X74226823Y-70281313D01*
G37*
G36*
X68693512Y-67703927D02*
G01*
X68842812Y-67733624D01*
X69006784Y-67801544D01*
X69154354Y-67900147D01*
X69279853Y-68025646D01*
X69378456Y-68173216D01*
X69446376Y-68337188D01*
X69481000Y-68511259D01*
X69481000Y-68688741D01*
X69446376Y-68862812D01*
X69378456Y-69026784D01*
X69279853Y-69174354D01*
X69154354Y-69299853D01*
X69006784Y-69398456D01*
X68842812Y-69466376D01*
X68693512Y-69496073D01*
X68668742Y-69501000D01*
X68491258Y-69501000D01*
X68466488Y-69496073D01*
X68317188Y-69466376D01*
X68153216Y-69398456D01*
X68005646Y-69299853D01*
X67880147Y-69174354D01*
X67781544Y-69026784D01*
X67713624Y-68862812D01*
X67679000Y-68688741D01*
X67679000Y-68511259D01*
X67713624Y-68337188D01*
X67781544Y-68173216D01*
X67880147Y-68025646D01*
X68005646Y-67900147D01*
X68153216Y-67801544D01*
X68317188Y-67733624D01*
X68466488Y-67703927D01*
X68491258Y-67699000D01*
X68668742Y-67699000D01*
X68693512Y-67703927D01*
G37*
G36*
X83933512Y-67703927D02*
G01*
X84082812Y-67733624D01*
X84246784Y-67801544D01*
X84394354Y-67900147D01*
X84519853Y-68025646D01*
X84618456Y-68173216D01*
X84686376Y-68337188D01*
X84721000Y-68511259D01*
X84721000Y-68688741D01*
X84686376Y-68862812D01*
X84618456Y-69026784D01*
X84519853Y-69174354D01*
X84394354Y-69299853D01*
X84246784Y-69398456D01*
X84082812Y-69466376D01*
X83933512Y-69496073D01*
X83908742Y-69501000D01*
X83731258Y-69501000D01*
X83706488Y-69496073D01*
X83557188Y-69466376D01*
X83393216Y-69398456D01*
X83245646Y-69299853D01*
X83120147Y-69174354D01*
X83021544Y-69026784D01*
X82953624Y-68862812D01*
X82919000Y-68688741D01*
X82919000Y-68511259D01*
X82953624Y-68337188D01*
X83021544Y-68173216D01*
X83120147Y-68025646D01*
X83245646Y-67900147D01*
X83393216Y-67801544D01*
X83557188Y-67733624D01*
X83706488Y-67703927D01*
X83731258Y-67699000D01*
X83908742Y-67699000D01*
X83933512Y-67703927D01*
G37*
G36*
X59693512Y-67703927D02*
G01*
X59842812Y-67733624D01*
X60006784Y-67801544D01*
X60154354Y-67900147D01*
X60279853Y-68025646D01*
X60378456Y-68173216D01*
X60446376Y-68337188D01*
X60481000Y-68511259D01*
X60481000Y-68688741D01*
X60446376Y-68862812D01*
X60378456Y-69026784D01*
X60279853Y-69174354D01*
X60154354Y-69299853D01*
X60006784Y-69398456D01*
X59842812Y-69466376D01*
X59693512Y-69496073D01*
X59668742Y-69501000D01*
X59491258Y-69501000D01*
X59466488Y-69496073D01*
X59317188Y-69466376D01*
X59153216Y-69398456D01*
X59005646Y-69299853D01*
X58880147Y-69174354D01*
X58781544Y-69026784D01*
X58713624Y-68862812D01*
X58679000Y-68688741D01*
X58679000Y-68511259D01*
X58713624Y-68337188D01*
X58781544Y-68173216D01*
X58880147Y-68025646D01*
X59005646Y-67900147D01*
X59153216Y-67801544D01*
X59317188Y-67733624D01*
X59466488Y-67703927D01*
X59491258Y-67699000D01*
X59668742Y-67699000D01*
X59693512Y-67703927D01*
G37*
G36*
X92933512Y-67683927D02*
G01*
X93082812Y-67713624D01*
X93246784Y-67781544D01*
X93394354Y-67880147D01*
X93519853Y-68005646D01*
X93618456Y-68153216D01*
X93686376Y-68317188D01*
X93721000Y-68491259D01*
X93721000Y-68668741D01*
X93686376Y-68842812D01*
X93618456Y-69006784D01*
X93519853Y-69154354D01*
X93394354Y-69279853D01*
X93246784Y-69378456D01*
X93082812Y-69446376D01*
X92933512Y-69476073D01*
X92908742Y-69481000D01*
X92731258Y-69481000D01*
X92706488Y-69476073D01*
X92557188Y-69446376D01*
X92393216Y-69378456D01*
X92245646Y-69279853D01*
X92120147Y-69154354D01*
X92021544Y-69006784D01*
X91953624Y-68842812D01*
X91919000Y-68668741D01*
X91919000Y-68491259D01*
X91953624Y-68317188D01*
X92021544Y-68153216D01*
X92120147Y-68005646D01*
X92245646Y-67880147D01*
X92393216Y-67781544D01*
X92557188Y-67713624D01*
X92706488Y-67683927D01*
X92731258Y-67679000D01*
X92908742Y-67679000D01*
X92933512Y-67683927D01*
G37*
G36*
X108173512Y-67683927D02*
G01*
X108322812Y-67713624D01*
X108486784Y-67781544D01*
X108634354Y-67880147D01*
X108759853Y-68005646D01*
X108858456Y-68153216D01*
X108926376Y-68317188D01*
X108961000Y-68491259D01*
X108961000Y-68668741D01*
X108926376Y-68842812D01*
X108858456Y-69006784D01*
X108759853Y-69154354D01*
X108634354Y-69279853D01*
X108486784Y-69378456D01*
X108322812Y-69446376D01*
X108173512Y-69476073D01*
X108148742Y-69481000D01*
X107971258Y-69481000D01*
X107946488Y-69476073D01*
X107797188Y-69446376D01*
X107633216Y-69378456D01*
X107485646Y-69279853D01*
X107360147Y-69154354D01*
X107261544Y-69006784D01*
X107193624Y-68842812D01*
X107159000Y-68668741D01*
X107159000Y-68491259D01*
X107193624Y-68317188D01*
X107261544Y-68153216D01*
X107360147Y-68005646D01*
X107485646Y-67880147D01*
X107633216Y-67781544D01*
X107797188Y-67713624D01*
X107946488Y-67683927D01*
X107971258Y-67679000D01*
X108148742Y-67679000D01*
X108173512Y-67683927D01*
G37*
G36*
X74226823Y-67741313D02*
G01*
X74387242Y-67789976D01*
X74519906Y-67860886D01*
X74535078Y-67868996D01*
X74664659Y-67975341D01*
X74771004Y-68104922D01*
X74771005Y-68104924D01*
X74850024Y-68252758D01*
X74898687Y-68413177D01*
X74915117Y-68580000D01*
X74898687Y-68746823D01*
X74850024Y-68907242D01*
X74786128Y-69026782D01*
X74771004Y-69055078D01*
X74664659Y-69184659D01*
X74535078Y-69291004D01*
X74535076Y-69291005D01*
X74387242Y-69370024D01*
X74226823Y-69418687D01*
X74101804Y-69431000D01*
X73218196Y-69431000D01*
X73093177Y-69418687D01*
X72932758Y-69370024D01*
X72784924Y-69291005D01*
X72784922Y-69291004D01*
X72655341Y-69184659D01*
X72548996Y-69055078D01*
X72533872Y-69026782D01*
X72469976Y-68907242D01*
X72421313Y-68746823D01*
X72404883Y-68580000D01*
X72421313Y-68413177D01*
X72469976Y-68252758D01*
X72548995Y-68104924D01*
X72548996Y-68104922D01*
X72655341Y-67975341D01*
X72784922Y-67868996D01*
X72800094Y-67860886D01*
X72932758Y-67789976D01*
X73093177Y-67741313D01*
X73218196Y-67729000D01*
X74101804Y-67729000D01*
X74226823Y-67741313D01*
G37*
G36*
X48826823Y-67741313D02*
G01*
X48987242Y-67789976D01*
X49119906Y-67860886D01*
X49135078Y-67868996D01*
X49264659Y-67975341D01*
X49371004Y-68104922D01*
X49371005Y-68104924D01*
X49450024Y-68252758D01*
X49498687Y-68413177D01*
X49515117Y-68580000D01*
X49498687Y-68746823D01*
X49450024Y-68907242D01*
X49386128Y-69026782D01*
X49371004Y-69055078D01*
X49264659Y-69184659D01*
X49135078Y-69291004D01*
X49135076Y-69291005D01*
X48987242Y-69370024D01*
X48826823Y-69418687D01*
X48701804Y-69431000D01*
X47818196Y-69431000D01*
X47693177Y-69418687D01*
X47532758Y-69370024D01*
X47384924Y-69291005D01*
X47384922Y-69291004D01*
X47255341Y-69184659D01*
X47148996Y-69055078D01*
X47133872Y-69026782D01*
X47069976Y-68907242D01*
X47021313Y-68746823D01*
X47004883Y-68580000D01*
X47021313Y-68413177D01*
X47069976Y-68252758D01*
X47148995Y-68104924D01*
X47148996Y-68104922D01*
X47255341Y-67975341D01*
X47384922Y-67868996D01*
X47400094Y-67860886D01*
X47532758Y-67789976D01*
X47693177Y-67741313D01*
X47818196Y-67729000D01*
X48701804Y-67729000D01*
X48826823Y-67741313D01*
G37*
G36*
X117406823Y-67741313D02*
G01*
X117567242Y-67789976D01*
X117699906Y-67860886D01*
X117715078Y-67868996D01*
X117844659Y-67975341D01*
X117951004Y-68104922D01*
X117951005Y-68104924D01*
X118030024Y-68252758D01*
X118078687Y-68413177D01*
X118095117Y-68580000D01*
X118078687Y-68746823D01*
X118030024Y-68907242D01*
X117966128Y-69026782D01*
X117951004Y-69055078D01*
X117844659Y-69184659D01*
X117715078Y-69291004D01*
X117715076Y-69291005D01*
X117567242Y-69370024D01*
X117406823Y-69418687D01*
X117281804Y-69431000D01*
X116398196Y-69431000D01*
X116273177Y-69418687D01*
X116112758Y-69370024D01*
X115964924Y-69291005D01*
X115964922Y-69291004D01*
X115835341Y-69184659D01*
X115728996Y-69055078D01*
X115713872Y-69026782D01*
X115649976Y-68907242D01*
X115601313Y-68746823D01*
X115584883Y-68580000D01*
X115601313Y-68413177D01*
X115649976Y-68252758D01*
X115728995Y-68104924D01*
X115728996Y-68104922D01*
X115835341Y-67975341D01*
X115964922Y-67868996D01*
X115980094Y-67860886D01*
X116112758Y-67789976D01*
X116273177Y-67741313D01*
X116398196Y-67729000D01*
X117281804Y-67729000D01*
X117406823Y-67741313D01*
G37*
G36*
X102166823Y-67741313D02*
G01*
X102327242Y-67789976D01*
X102459906Y-67860886D01*
X102475078Y-67868996D01*
X102604659Y-67975341D01*
X102711004Y-68104922D01*
X102711005Y-68104924D01*
X102790024Y-68252758D01*
X102838687Y-68413177D01*
X102855117Y-68580000D01*
X102838687Y-68746823D01*
X102790024Y-68907242D01*
X102726128Y-69026782D01*
X102711004Y-69055078D01*
X102604659Y-69184659D01*
X102475078Y-69291004D01*
X102475076Y-69291005D01*
X102327242Y-69370024D01*
X102166823Y-69418687D01*
X102041804Y-69431000D01*
X101158196Y-69431000D01*
X101033177Y-69418687D01*
X100872758Y-69370024D01*
X100724924Y-69291005D01*
X100724922Y-69291004D01*
X100595341Y-69184659D01*
X100488996Y-69055078D01*
X100473872Y-69026782D01*
X100409976Y-68907242D01*
X100361313Y-68746823D01*
X100344883Y-68580000D01*
X100361313Y-68413177D01*
X100409976Y-68252758D01*
X100488995Y-68104924D01*
X100488996Y-68104922D01*
X100595341Y-67975341D01*
X100724922Y-67868996D01*
X100740094Y-67860886D01*
X100872758Y-67789976D01*
X101033177Y-67741313D01*
X101158196Y-67729000D01*
X102041804Y-67729000D01*
X102166823Y-67741313D01*
G37*
G36*
X89466823Y-67741313D02*
G01*
X89627242Y-67789976D01*
X89759906Y-67860886D01*
X89775078Y-67868996D01*
X89904659Y-67975341D01*
X90011004Y-68104922D01*
X90011005Y-68104924D01*
X90090024Y-68252758D01*
X90138687Y-68413177D01*
X90155117Y-68580000D01*
X90138687Y-68746823D01*
X90090024Y-68907242D01*
X90026128Y-69026782D01*
X90011004Y-69055078D01*
X89904659Y-69184659D01*
X89775078Y-69291004D01*
X89775076Y-69291005D01*
X89627242Y-69370024D01*
X89466823Y-69418687D01*
X89341804Y-69431000D01*
X88458196Y-69431000D01*
X88333177Y-69418687D01*
X88172758Y-69370024D01*
X88024924Y-69291005D01*
X88024922Y-69291004D01*
X87895341Y-69184659D01*
X87788996Y-69055078D01*
X87773872Y-69026782D01*
X87709976Y-68907242D01*
X87661313Y-68746823D01*
X87644883Y-68580000D01*
X87661313Y-68413177D01*
X87709976Y-68252758D01*
X87788995Y-68104924D01*
X87788996Y-68104922D01*
X87895341Y-67975341D01*
X88024922Y-67868996D01*
X88040094Y-67860886D01*
X88172758Y-67789976D01*
X88333177Y-67741313D01*
X88458196Y-67729000D01*
X89341804Y-67729000D01*
X89466823Y-67741313D01*
G37*
G36*
X64066823Y-67741313D02*
G01*
X64227242Y-67789976D01*
X64359906Y-67860886D01*
X64375078Y-67868996D01*
X64504659Y-67975341D01*
X64611004Y-68104922D01*
X64611005Y-68104924D01*
X64690024Y-68252758D01*
X64738687Y-68413177D01*
X64755117Y-68580000D01*
X64738687Y-68746823D01*
X64690024Y-68907242D01*
X64626128Y-69026782D01*
X64611004Y-69055078D01*
X64504659Y-69184659D01*
X64375078Y-69291004D01*
X64375076Y-69291005D01*
X64227242Y-69370024D01*
X64066823Y-69418687D01*
X63941804Y-69431000D01*
X63058196Y-69431000D01*
X62933177Y-69418687D01*
X62772758Y-69370024D01*
X62624924Y-69291005D01*
X62624922Y-69291004D01*
X62495341Y-69184659D01*
X62388996Y-69055078D01*
X62373872Y-69026782D01*
X62309976Y-68907242D01*
X62261313Y-68746823D01*
X62244883Y-68580000D01*
X62261313Y-68413177D01*
X62309976Y-68252758D01*
X62388995Y-68104924D01*
X62388996Y-68104922D01*
X62495341Y-67975341D01*
X62624922Y-67868996D01*
X62640094Y-67860886D01*
X62772758Y-67789976D01*
X62933177Y-67741313D01*
X63058196Y-67729000D01*
X63941804Y-67729000D01*
X64066823Y-67741313D01*
G37*
G36*
X84721000Y-66961000D02*
G01*
X82919000Y-66961000D01*
X82919000Y-65159000D01*
X84721000Y-65159000D01*
X84721000Y-66961000D01*
G37*
G36*
X69481000Y-66961000D02*
G01*
X67679000Y-66961000D01*
X67679000Y-65159000D01*
X69481000Y-65159000D01*
X69481000Y-66961000D01*
G37*
G36*
X60481000Y-66961000D02*
G01*
X58679000Y-66961000D01*
X58679000Y-65159000D01*
X60481000Y-65159000D01*
X60481000Y-66961000D01*
G37*
G36*
X92933512Y-65143927D02*
G01*
X93082812Y-65173624D01*
X93246784Y-65241544D01*
X93394354Y-65340147D01*
X93519853Y-65465646D01*
X93618456Y-65613216D01*
X93686376Y-65777188D01*
X93721000Y-65951259D01*
X93721000Y-66128741D01*
X93686376Y-66302812D01*
X93618456Y-66466784D01*
X93519853Y-66614354D01*
X93394354Y-66739853D01*
X93246784Y-66838456D01*
X93082812Y-66906376D01*
X92933512Y-66936073D01*
X92908742Y-66941000D01*
X92731258Y-66941000D01*
X92706488Y-66936073D01*
X92557188Y-66906376D01*
X92393216Y-66838456D01*
X92245646Y-66739853D01*
X92120147Y-66614354D01*
X92021544Y-66466784D01*
X91953624Y-66302812D01*
X91919000Y-66128741D01*
X91919000Y-65951259D01*
X91953624Y-65777188D01*
X92021544Y-65613216D01*
X92120147Y-65465646D01*
X92245646Y-65340147D01*
X92393216Y-65241544D01*
X92557188Y-65173624D01*
X92706488Y-65143927D01*
X92731258Y-65139000D01*
X92908742Y-65139000D01*
X92933512Y-65143927D01*
G37*
G36*
X108173512Y-65143927D02*
G01*
X108322812Y-65173624D01*
X108486784Y-65241544D01*
X108634354Y-65340147D01*
X108759853Y-65465646D01*
X108858456Y-65613216D01*
X108926376Y-65777188D01*
X108961000Y-65951259D01*
X108961000Y-66128741D01*
X108926376Y-66302812D01*
X108858456Y-66466784D01*
X108759853Y-66614354D01*
X108634354Y-66739853D01*
X108486784Y-66838456D01*
X108322812Y-66906376D01*
X108173512Y-66936073D01*
X108148742Y-66941000D01*
X107971258Y-66941000D01*
X107946488Y-66936073D01*
X107797188Y-66906376D01*
X107633216Y-66838456D01*
X107485646Y-66739853D01*
X107360147Y-66614354D01*
X107261544Y-66466784D01*
X107193624Y-66302812D01*
X107159000Y-66128741D01*
X107159000Y-65951259D01*
X107193624Y-65777188D01*
X107261544Y-65613216D01*
X107360147Y-65465646D01*
X107485646Y-65340147D01*
X107633216Y-65241544D01*
X107797188Y-65173624D01*
X107946488Y-65143927D01*
X107971258Y-65139000D01*
X108148742Y-65139000D01*
X108173512Y-65143927D01*
G37*
G36*
X64066823Y-65201313D02*
G01*
X64227242Y-65249976D01*
X64359906Y-65320886D01*
X64375078Y-65328996D01*
X64504659Y-65435341D01*
X64611004Y-65564922D01*
X64611005Y-65564924D01*
X64690024Y-65712758D01*
X64738687Y-65873177D01*
X64755117Y-66040000D01*
X64738687Y-66206823D01*
X64690024Y-66367242D01*
X64619114Y-66499906D01*
X64611004Y-66515078D01*
X64504659Y-66644659D01*
X64375078Y-66751004D01*
X64375076Y-66751005D01*
X64227242Y-66830024D01*
X64066823Y-66878687D01*
X63941804Y-66891000D01*
X63058196Y-66891000D01*
X62933177Y-66878687D01*
X62772758Y-66830024D01*
X62624924Y-66751005D01*
X62624922Y-66751004D01*
X62495341Y-66644659D01*
X62388996Y-66515078D01*
X62380886Y-66499906D01*
X62309976Y-66367242D01*
X62261313Y-66206823D01*
X62244883Y-66040000D01*
X62261313Y-65873177D01*
X62309976Y-65712758D01*
X62388995Y-65564924D01*
X62388996Y-65564922D01*
X62495341Y-65435341D01*
X62624922Y-65328996D01*
X62640094Y-65320886D01*
X62772758Y-65249976D01*
X62933177Y-65201313D01*
X63058196Y-65189000D01*
X63941804Y-65189000D01*
X64066823Y-65201313D01*
G37*
G36*
X117406823Y-65201313D02*
G01*
X117567242Y-65249976D01*
X117699906Y-65320886D01*
X117715078Y-65328996D01*
X117844659Y-65435341D01*
X117951004Y-65564922D01*
X117951005Y-65564924D01*
X118030024Y-65712758D01*
X118078687Y-65873177D01*
X118095117Y-66040000D01*
X118078687Y-66206823D01*
X118030024Y-66367242D01*
X117959114Y-66499906D01*
X117951004Y-66515078D01*
X117844659Y-66644659D01*
X117715078Y-66751004D01*
X117715076Y-66751005D01*
X117567242Y-66830024D01*
X117406823Y-66878687D01*
X117281804Y-66891000D01*
X116398196Y-66891000D01*
X116273177Y-66878687D01*
X116112758Y-66830024D01*
X115964924Y-66751005D01*
X115964922Y-66751004D01*
X115835341Y-66644659D01*
X115728996Y-66515078D01*
X115720886Y-66499906D01*
X115649976Y-66367242D01*
X115601313Y-66206823D01*
X115584883Y-66040000D01*
X115601313Y-65873177D01*
X115649976Y-65712758D01*
X115728995Y-65564924D01*
X115728996Y-65564922D01*
X115835341Y-65435341D01*
X115964922Y-65328996D01*
X115980094Y-65320886D01*
X116112758Y-65249976D01*
X116273177Y-65201313D01*
X116398196Y-65189000D01*
X117281804Y-65189000D01*
X117406823Y-65201313D01*
G37*
G36*
X89466823Y-65201313D02*
G01*
X89627242Y-65249976D01*
X89759906Y-65320886D01*
X89775078Y-65328996D01*
X89904659Y-65435341D01*
X90011004Y-65564922D01*
X90011005Y-65564924D01*
X90090024Y-65712758D01*
X90138687Y-65873177D01*
X90155117Y-66040000D01*
X90138687Y-66206823D01*
X90090024Y-66367242D01*
X90019114Y-66499906D01*
X90011004Y-66515078D01*
X89904659Y-66644659D01*
X89775078Y-66751004D01*
X89775076Y-66751005D01*
X89627242Y-66830024D01*
X89466823Y-66878687D01*
X89341804Y-66891000D01*
X88458196Y-66891000D01*
X88333177Y-66878687D01*
X88172758Y-66830024D01*
X88024924Y-66751005D01*
X88024922Y-66751004D01*
X87895341Y-66644659D01*
X87788996Y-66515078D01*
X87780886Y-66499906D01*
X87709976Y-66367242D01*
X87661313Y-66206823D01*
X87644883Y-66040000D01*
X87661313Y-65873177D01*
X87709976Y-65712758D01*
X87788995Y-65564924D01*
X87788996Y-65564922D01*
X87895341Y-65435341D01*
X88024922Y-65328996D01*
X88040094Y-65320886D01*
X88172758Y-65249976D01*
X88333177Y-65201313D01*
X88458196Y-65189000D01*
X89341804Y-65189000D01*
X89466823Y-65201313D01*
G37*
G36*
X74226823Y-65201313D02*
G01*
X74387242Y-65249976D01*
X74519906Y-65320886D01*
X74535078Y-65328996D01*
X74664659Y-65435341D01*
X74771004Y-65564922D01*
X74771005Y-65564924D01*
X74850024Y-65712758D01*
X74898687Y-65873177D01*
X74915117Y-66040000D01*
X74898687Y-66206823D01*
X74850024Y-66367242D01*
X74779114Y-66499906D01*
X74771004Y-66515078D01*
X74664659Y-66644659D01*
X74535078Y-66751004D01*
X74535076Y-66751005D01*
X74387242Y-66830024D01*
X74226823Y-66878687D01*
X74101804Y-66891000D01*
X73218196Y-66891000D01*
X73093177Y-66878687D01*
X72932758Y-66830024D01*
X72784924Y-66751005D01*
X72784922Y-66751004D01*
X72655341Y-66644659D01*
X72548996Y-66515078D01*
X72540886Y-66499906D01*
X72469976Y-66367242D01*
X72421313Y-66206823D01*
X72404883Y-66040000D01*
X72421313Y-65873177D01*
X72469976Y-65712758D01*
X72548995Y-65564924D01*
X72548996Y-65564922D01*
X72655341Y-65435341D01*
X72784922Y-65328996D01*
X72800094Y-65320886D01*
X72932758Y-65249976D01*
X73093177Y-65201313D01*
X73218196Y-65189000D01*
X74101804Y-65189000D01*
X74226823Y-65201313D01*
G37*
G36*
X48826823Y-65201313D02*
G01*
X48987242Y-65249976D01*
X49119906Y-65320886D01*
X49135078Y-65328996D01*
X49264659Y-65435341D01*
X49371004Y-65564922D01*
X49371005Y-65564924D01*
X49450024Y-65712758D01*
X49498687Y-65873177D01*
X49515117Y-66040000D01*
X49498687Y-66206823D01*
X49450024Y-66367242D01*
X49379114Y-66499906D01*
X49371004Y-66515078D01*
X49264659Y-66644659D01*
X49135078Y-66751004D01*
X49135076Y-66751005D01*
X48987242Y-66830024D01*
X48826823Y-66878687D01*
X48701804Y-66891000D01*
X47818196Y-66891000D01*
X47693177Y-66878687D01*
X47532758Y-66830024D01*
X47384924Y-66751005D01*
X47384922Y-66751004D01*
X47255341Y-66644659D01*
X47148996Y-66515078D01*
X47140886Y-66499906D01*
X47069976Y-66367242D01*
X47021313Y-66206823D01*
X47004883Y-66040000D01*
X47021313Y-65873177D01*
X47069976Y-65712758D01*
X47148995Y-65564924D01*
X47148996Y-65564922D01*
X47255341Y-65435341D01*
X47384922Y-65328996D01*
X47400094Y-65320886D01*
X47532758Y-65249976D01*
X47693177Y-65201313D01*
X47818196Y-65189000D01*
X48701804Y-65189000D01*
X48826823Y-65201313D01*
G37*
G36*
X102166823Y-65201313D02*
G01*
X102327242Y-65249976D01*
X102459906Y-65320886D01*
X102475078Y-65328996D01*
X102604659Y-65435341D01*
X102711004Y-65564922D01*
X102711005Y-65564924D01*
X102790024Y-65712758D01*
X102838687Y-65873177D01*
X102855117Y-66040000D01*
X102838687Y-66206823D01*
X102790024Y-66367242D01*
X102719114Y-66499906D01*
X102711004Y-66515078D01*
X102604659Y-66644659D01*
X102475078Y-66751004D01*
X102475076Y-66751005D01*
X102327242Y-66830024D01*
X102166823Y-66878687D01*
X102041804Y-66891000D01*
X101158196Y-66891000D01*
X101033177Y-66878687D01*
X100872758Y-66830024D01*
X100724924Y-66751005D01*
X100724922Y-66751004D01*
X100595341Y-66644659D01*
X100488996Y-66515078D01*
X100480886Y-66499906D01*
X100409976Y-66367242D01*
X100361313Y-66206823D01*
X100344883Y-66040000D01*
X100361313Y-65873177D01*
X100409976Y-65712758D01*
X100488995Y-65564924D01*
X100488996Y-65564922D01*
X100595341Y-65435341D01*
X100724922Y-65328996D01*
X100740094Y-65320886D01*
X100872758Y-65249976D01*
X101033177Y-65201313D01*
X101158196Y-65189000D01*
X102041804Y-65189000D01*
X102166823Y-65201313D01*
G37*
G36*
X108173512Y-62603927D02*
G01*
X108322812Y-62633624D01*
X108486784Y-62701544D01*
X108634354Y-62800147D01*
X108759853Y-62925646D01*
X108858456Y-63073216D01*
X108926376Y-63237188D01*
X108961000Y-63411259D01*
X108961000Y-63588741D01*
X108926376Y-63762812D01*
X108858456Y-63926784D01*
X108759853Y-64074354D01*
X108634354Y-64199853D01*
X108486784Y-64298456D01*
X108322812Y-64366376D01*
X108173512Y-64396073D01*
X108148742Y-64401000D01*
X107971258Y-64401000D01*
X107946488Y-64396073D01*
X107797188Y-64366376D01*
X107633216Y-64298456D01*
X107485646Y-64199853D01*
X107360147Y-64074354D01*
X107261544Y-63926784D01*
X107193624Y-63762812D01*
X107159000Y-63588741D01*
X107159000Y-63411259D01*
X107193624Y-63237188D01*
X107261544Y-63073216D01*
X107360147Y-62925646D01*
X107485646Y-62800147D01*
X107633216Y-62701544D01*
X107797188Y-62633624D01*
X107946488Y-62603927D01*
X107971258Y-62599000D01*
X108148742Y-62599000D01*
X108173512Y-62603927D01*
G37*
G36*
X92933512Y-62603927D02*
G01*
X93082812Y-62633624D01*
X93246784Y-62701544D01*
X93394354Y-62800147D01*
X93519853Y-62925646D01*
X93618456Y-63073216D01*
X93686376Y-63237188D01*
X93721000Y-63411259D01*
X93721000Y-63588741D01*
X93686376Y-63762812D01*
X93618456Y-63926784D01*
X93519853Y-64074354D01*
X93394354Y-64199853D01*
X93246784Y-64298456D01*
X93082812Y-64366376D01*
X92933512Y-64396073D01*
X92908742Y-64401000D01*
X92731258Y-64401000D01*
X92706488Y-64396073D01*
X92557188Y-64366376D01*
X92393216Y-64298456D01*
X92245646Y-64199853D01*
X92120147Y-64074354D01*
X92021544Y-63926784D01*
X91953624Y-63762812D01*
X91919000Y-63588741D01*
X91919000Y-63411259D01*
X91953624Y-63237188D01*
X92021544Y-63073216D01*
X92120147Y-62925646D01*
X92245646Y-62800147D01*
X92393216Y-62701544D01*
X92557188Y-62633624D01*
X92706488Y-62603927D01*
X92731258Y-62599000D01*
X92908742Y-62599000D01*
X92933512Y-62603927D01*
G37*
G36*
X89466823Y-62661313D02*
G01*
X89627242Y-62709976D01*
X89759906Y-62780886D01*
X89775078Y-62788996D01*
X89904659Y-62895341D01*
X90011004Y-63024922D01*
X90011005Y-63024924D01*
X90090024Y-63172758D01*
X90138687Y-63333177D01*
X90155117Y-63500000D01*
X90138687Y-63666823D01*
X90090024Y-63827242D01*
X90019114Y-63959906D01*
X90011004Y-63975078D01*
X89904659Y-64104659D01*
X89775078Y-64211004D01*
X89775076Y-64211005D01*
X89627242Y-64290024D01*
X89466823Y-64338687D01*
X89341804Y-64351000D01*
X88458196Y-64351000D01*
X88333177Y-64338687D01*
X88172758Y-64290024D01*
X88024924Y-64211005D01*
X88024922Y-64211004D01*
X87895341Y-64104659D01*
X87788996Y-63975078D01*
X87780886Y-63959906D01*
X87709976Y-63827242D01*
X87661313Y-63666823D01*
X87644883Y-63500000D01*
X87661313Y-63333177D01*
X87709976Y-63172758D01*
X87788995Y-63024924D01*
X87788996Y-63024922D01*
X87895341Y-62895341D01*
X88024922Y-62788996D01*
X88040094Y-62780886D01*
X88172758Y-62709976D01*
X88333177Y-62661313D01*
X88458196Y-62649000D01*
X89341804Y-62649000D01*
X89466823Y-62661313D01*
G37*
G36*
X117406823Y-62661313D02*
G01*
X117567242Y-62709976D01*
X117699906Y-62780886D01*
X117715078Y-62788996D01*
X117844659Y-62895341D01*
X117951004Y-63024922D01*
X117951005Y-63024924D01*
X118030024Y-63172758D01*
X118078687Y-63333177D01*
X118095117Y-63500000D01*
X118078687Y-63666823D01*
X118030024Y-63827242D01*
X117959114Y-63959906D01*
X117951004Y-63975078D01*
X117844659Y-64104659D01*
X117715078Y-64211004D01*
X117715076Y-64211005D01*
X117567242Y-64290024D01*
X117406823Y-64338687D01*
X117281804Y-64351000D01*
X116398196Y-64351000D01*
X116273177Y-64338687D01*
X116112758Y-64290024D01*
X115964924Y-64211005D01*
X115964922Y-64211004D01*
X115835341Y-64104659D01*
X115728996Y-63975078D01*
X115720886Y-63959906D01*
X115649976Y-63827242D01*
X115601313Y-63666823D01*
X115584883Y-63500000D01*
X115601313Y-63333177D01*
X115649976Y-63172758D01*
X115728995Y-63024924D01*
X115728996Y-63024922D01*
X115835341Y-62895341D01*
X115964922Y-62788996D01*
X115980094Y-62780886D01*
X116112758Y-62709976D01*
X116273177Y-62661313D01*
X116398196Y-62649000D01*
X117281804Y-62649000D01*
X117406823Y-62661313D01*
G37*
G36*
X102166823Y-62661313D02*
G01*
X102327242Y-62709976D01*
X102459906Y-62780886D01*
X102475078Y-62788996D01*
X102604659Y-62895341D01*
X102711004Y-63024922D01*
X102711005Y-63024924D01*
X102790024Y-63172758D01*
X102838687Y-63333177D01*
X102855117Y-63500000D01*
X102838687Y-63666823D01*
X102790024Y-63827242D01*
X102719114Y-63959906D01*
X102711004Y-63975078D01*
X102604659Y-64104659D01*
X102475078Y-64211004D01*
X102475076Y-64211005D01*
X102327242Y-64290024D01*
X102166823Y-64338687D01*
X102041804Y-64351000D01*
X101158196Y-64351000D01*
X101033177Y-64338687D01*
X100872758Y-64290024D01*
X100724924Y-64211005D01*
X100724922Y-64211004D01*
X100595341Y-64104659D01*
X100488996Y-63975078D01*
X100480886Y-63959906D01*
X100409976Y-63827242D01*
X100361313Y-63666823D01*
X100344883Y-63500000D01*
X100361313Y-63333177D01*
X100409976Y-63172758D01*
X100488995Y-63024924D01*
X100488996Y-63024922D01*
X100595341Y-62895341D01*
X100724922Y-62788996D01*
X100740094Y-62780886D01*
X100872758Y-62709976D01*
X101033177Y-62661313D01*
X101158196Y-62649000D01*
X102041804Y-62649000D01*
X102166823Y-62661313D01*
G37*
G36*
X74226823Y-62661313D02*
G01*
X74387242Y-62709976D01*
X74519906Y-62780886D01*
X74535078Y-62788996D01*
X74664659Y-62895341D01*
X74771004Y-63024922D01*
X74771005Y-63024924D01*
X74850024Y-63172758D01*
X74898687Y-63333177D01*
X74915117Y-63500000D01*
X74898687Y-63666823D01*
X74850024Y-63827242D01*
X74779114Y-63959906D01*
X74771004Y-63975078D01*
X74664659Y-64104659D01*
X74535078Y-64211004D01*
X74535076Y-64211005D01*
X74387242Y-64290024D01*
X74226823Y-64338687D01*
X74101804Y-64351000D01*
X73218196Y-64351000D01*
X73093177Y-64338687D01*
X72932758Y-64290024D01*
X72784924Y-64211005D01*
X72784922Y-64211004D01*
X72655341Y-64104659D01*
X72548996Y-63975078D01*
X72540886Y-63959906D01*
X72469976Y-63827242D01*
X72421313Y-63666823D01*
X72404883Y-63500000D01*
X72421313Y-63333177D01*
X72469976Y-63172758D01*
X72548995Y-63024924D01*
X72548996Y-63024922D01*
X72655341Y-62895341D01*
X72784922Y-62788996D01*
X72800094Y-62780886D01*
X72932758Y-62709976D01*
X73093177Y-62661313D01*
X73218196Y-62649000D01*
X74101804Y-62649000D01*
X74226823Y-62661313D01*
G37*
G36*
X48826823Y-62661313D02*
G01*
X48987242Y-62709976D01*
X49119906Y-62780886D01*
X49135078Y-62788996D01*
X49264659Y-62895341D01*
X49371004Y-63024922D01*
X49371005Y-63024924D01*
X49450024Y-63172758D01*
X49498687Y-63333177D01*
X49515117Y-63500000D01*
X49498687Y-63666823D01*
X49450024Y-63827242D01*
X49379114Y-63959906D01*
X49371004Y-63975078D01*
X49264659Y-64104659D01*
X49135078Y-64211004D01*
X49135076Y-64211005D01*
X48987242Y-64290024D01*
X48826823Y-64338687D01*
X48701804Y-64351000D01*
X47818196Y-64351000D01*
X47693177Y-64338687D01*
X47532758Y-64290024D01*
X47384924Y-64211005D01*
X47384922Y-64211004D01*
X47255341Y-64104659D01*
X47148996Y-63975078D01*
X47140886Y-63959906D01*
X47069976Y-63827242D01*
X47021313Y-63666823D01*
X47004883Y-63500000D01*
X47021313Y-63333177D01*
X47069976Y-63172758D01*
X47148995Y-63024924D01*
X47148996Y-63024922D01*
X47255341Y-62895341D01*
X47384922Y-62788996D01*
X47400094Y-62780886D01*
X47532758Y-62709976D01*
X47693177Y-62661313D01*
X47818196Y-62649000D01*
X48701804Y-62649000D01*
X48826823Y-62661313D01*
G37*
G36*
X64066823Y-62661313D02*
G01*
X64227242Y-62709976D01*
X64359906Y-62780886D01*
X64375078Y-62788996D01*
X64504659Y-62895341D01*
X64611004Y-63024922D01*
X64611005Y-63024924D01*
X64690024Y-63172758D01*
X64738687Y-63333177D01*
X64755117Y-63500000D01*
X64738687Y-63666823D01*
X64690024Y-63827242D01*
X64619114Y-63959906D01*
X64611004Y-63975078D01*
X64504659Y-64104659D01*
X64375078Y-64211004D01*
X64375076Y-64211005D01*
X64227242Y-64290024D01*
X64066823Y-64338687D01*
X63941804Y-64351000D01*
X63058196Y-64351000D01*
X62933177Y-64338687D01*
X62772758Y-64290024D01*
X62624924Y-64211005D01*
X62624922Y-64211004D01*
X62495341Y-64104659D01*
X62388996Y-63975078D01*
X62380886Y-63959906D01*
X62309976Y-63827242D01*
X62261313Y-63666823D01*
X62244883Y-63500000D01*
X62261313Y-63333177D01*
X62309976Y-63172758D01*
X62388995Y-63024924D01*
X62388996Y-63024922D01*
X62495341Y-62895341D01*
X62624922Y-62788996D01*
X62640094Y-62780886D01*
X62772758Y-62709976D01*
X62933177Y-62661313D01*
X63058196Y-62649000D01*
X63941804Y-62649000D01*
X64066823Y-62661313D01*
G37*
G36*
X93721000Y-61861000D02*
G01*
X91919000Y-61861000D01*
X91919000Y-60059000D01*
X93721000Y-60059000D01*
X93721000Y-61861000D01*
G37*
G36*
X108961000Y-61861000D02*
G01*
X107159000Y-61861000D01*
X107159000Y-60059000D01*
X108961000Y-60059000D01*
X108961000Y-61861000D01*
G37*
G36*
X117406823Y-60121313D02*
G01*
X117567242Y-60169976D01*
X117699906Y-60240886D01*
X117715078Y-60248996D01*
X117844659Y-60355341D01*
X117951004Y-60484922D01*
X117951005Y-60484924D01*
X118030024Y-60632758D01*
X118078687Y-60793177D01*
X118095117Y-60960000D01*
X118078687Y-61126823D01*
X118030024Y-61287242D01*
X117959114Y-61419906D01*
X117951004Y-61435078D01*
X117844659Y-61564659D01*
X117715078Y-61671004D01*
X117715076Y-61671005D01*
X117567242Y-61750024D01*
X117406823Y-61798687D01*
X117281804Y-61811000D01*
X116398196Y-61811000D01*
X116273177Y-61798687D01*
X116112758Y-61750024D01*
X115964924Y-61671005D01*
X115964922Y-61671004D01*
X115835341Y-61564659D01*
X115728996Y-61435078D01*
X115720886Y-61419906D01*
X115649976Y-61287242D01*
X115601313Y-61126823D01*
X115584883Y-60960000D01*
X115601313Y-60793177D01*
X115649976Y-60632758D01*
X115728995Y-60484924D01*
X115728996Y-60484922D01*
X115835341Y-60355341D01*
X115964922Y-60248996D01*
X115980094Y-60240886D01*
X116112758Y-60169976D01*
X116273177Y-60121313D01*
X116398196Y-60109000D01*
X117281804Y-60109000D01*
X117406823Y-60121313D01*
G37*
G36*
X102851000Y-61811000D02*
G01*
X100349000Y-61811000D01*
X100349000Y-60109000D01*
X102851000Y-60109000D01*
X102851000Y-61811000D01*
G37*
G36*
X89466823Y-60121313D02*
G01*
X89627242Y-60169976D01*
X89759906Y-60240886D01*
X89775078Y-60248996D01*
X89904659Y-60355341D01*
X90011004Y-60484922D01*
X90011005Y-60484924D01*
X90090024Y-60632758D01*
X90138687Y-60793177D01*
X90155117Y-60960000D01*
X90138687Y-61126823D01*
X90090024Y-61287242D01*
X90019114Y-61419906D01*
X90011004Y-61435078D01*
X89904659Y-61564659D01*
X89775078Y-61671004D01*
X89775076Y-61671005D01*
X89627242Y-61750024D01*
X89466823Y-61798687D01*
X89341804Y-61811000D01*
X88458196Y-61811000D01*
X88333177Y-61798687D01*
X88172758Y-61750024D01*
X88024924Y-61671005D01*
X88024922Y-61671004D01*
X87895341Y-61564659D01*
X87788996Y-61435078D01*
X87780886Y-61419906D01*
X87709976Y-61287242D01*
X87661313Y-61126823D01*
X87644883Y-60960000D01*
X87661313Y-60793177D01*
X87709976Y-60632758D01*
X87788995Y-60484924D01*
X87788996Y-60484922D01*
X87895341Y-60355341D01*
X88024922Y-60248996D01*
X88040094Y-60240886D01*
X88172758Y-60169976D01*
X88333177Y-60121313D01*
X88458196Y-60109000D01*
X89341804Y-60109000D01*
X89466823Y-60121313D01*
G37*
G36*
X74911000Y-61811000D02*
G01*
X72409000Y-61811000D01*
X72409000Y-60109000D01*
X74911000Y-60109000D01*
X74911000Y-61811000D01*
G37*
G36*
X64066823Y-60121313D02*
G01*
X64227242Y-60169976D01*
X64359906Y-60240886D01*
X64375078Y-60248996D01*
X64504659Y-60355341D01*
X64611004Y-60484922D01*
X64611005Y-60484924D01*
X64690024Y-60632758D01*
X64738687Y-60793177D01*
X64755117Y-60960000D01*
X64738687Y-61126823D01*
X64690024Y-61287242D01*
X64619114Y-61419906D01*
X64611004Y-61435078D01*
X64504659Y-61564659D01*
X64375078Y-61671004D01*
X64375076Y-61671005D01*
X64227242Y-61750024D01*
X64066823Y-61798687D01*
X63941804Y-61811000D01*
X63058196Y-61811000D01*
X62933177Y-61798687D01*
X62772758Y-61750024D01*
X62624924Y-61671005D01*
X62624922Y-61671004D01*
X62495341Y-61564659D01*
X62388996Y-61435078D01*
X62380886Y-61419906D01*
X62309976Y-61287242D01*
X62261313Y-61126823D01*
X62244883Y-60960000D01*
X62261313Y-60793177D01*
X62309976Y-60632758D01*
X62388995Y-60484924D01*
X62388996Y-60484922D01*
X62495341Y-60355341D01*
X62624922Y-60248996D01*
X62640094Y-60240886D01*
X62772758Y-60169976D01*
X62933177Y-60121313D01*
X63058196Y-60109000D01*
X63941804Y-60109000D01*
X64066823Y-60121313D01*
G37*
G36*
X49511000Y-61811000D02*
G01*
X47009000Y-61811000D01*
X47009000Y-60109000D01*
X49511000Y-60109000D01*
X49511000Y-61811000D01*
G37*
M02*
