G04 #@! TF.GenerationSoftware,KiCad,Pcbnew,(5.1.5-0-10_14)*
G04 #@! TF.CreationDate,2021-06-27T14:31:18+01:00*
G04 #@! TF.ProjectId,flash-rom-expansion,666c6173-682d-4726-9f6d-2d657870616e,rev?*
G04 #@! TF.SameCoordinates,Original*
G04 #@! TF.FileFunction,Copper,L1,Top*
G04 #@! TF.FilePolarity,Positive*
%FSLAX46Y46*%
G04 Gerber Fmt 4.6, Leading zero omitted, Abs format (unit mm)*
G04 Created by KiCad (PCBNEW (5.1.5-0-10_14)) date 2021-06-27 14:31:18*
%MOMM*%
%LPD*%
G04 APERTURE LIST*
%ADD10O,1.700000X1.700000*%
%ADD11R,1.700000X1.700000*%
%ADD12O,2.400000X1.600000*%
%ADD13R,2.400000X1.600000*%
%ADD14C,0.800000*%
%ADD15C,0.250000*%
%ADD16C,0.130000*%
G04 APERTURE END LIST*
D10*
X108060000Y-99060000D03*
X108060000Y-96520000D03*
X108060000Y-93980000D03*
X108060000Y-91440000D03*
X108060000Y-88900000D03*
X108060000Y-86360000D03*
X108060000Y-83820000D03*
X108060000Y-81280000D03*
X108060000Y-78740000D03*
X108060000Y-76200000D03*
X108060000Y-73660000D03*
X108060000Y-71120000D03*
X108060000Y-68580000D03*
X108060000Y-66040000D03*
X108060000Y-63500000D03*
D11*
X108060000Y-60960000D03*
D10*
X92820000Y-99060000D03*
X92820000Y-96520000D03*
X92820000Y-93980000D03*
X92820000Y-91440000D03*
X92820000Y-88900000D03*
X92820000Y-86360000D03*
X92820000Y-83820000D03*
X92820000Y-81280000D03*
X92820000Y-78740000D03*
X92820000Y-76200000D03*
X92820000Y-73660000D03*
X92820000Y-71120000D03*
X92820000Y-68580000D03*
X92820000Y-66040000D03*
X92820000Y-63500000D03*
D11*
X92820000Y-60960000D03*
D10*
X83820000Y-99080000D03*
X83820000Y-96540000D03*
X83820000Y-94000000D03*
X83820000Y-91460000D03*
X83820000Y-88920000D03*
X83820000Y-86380000D03*
X83820000Y-83840000D03*
X83820000Y-81300000D03*
X83820000Y-78760000D03*
X83820000Y-76220000D03*
X83820000Y-73680000D03*
X83820000Y-71140000D03*
X83820000Y-68600000D03*
D11*
X83820000Y-66060000D03*
D10*
X68580000Y-99080000D03*
X68580000Y-96540000D03*
X68580000Y-94000000D03*
X68580000Y-91460000D03*
X68580000Y-88920000D03*
X68580000Y-86380000D03*
X68580000Y-83840000D03*
X68580000Y-81300000D03*
X68580000Y-78760000D03*
X68580000Y-76220000D03*
X68580000Y-73680000D03*
X68580000Y-71140000D03*
X68580000Y-68600000D03*
D11*
X68580000Y-66060000D03*
D10*
X59580000Y-99080000D03*
X59580000Y-96540000D03*
X59580000Y-94000000D03*
X59580000Y-91460000D03*
X59580000Y-88920000D03*
X59580000Y-86380000D03*
X59580000Y-83840000D03*
X59580000Y-81300000D03*
X59580000Y-78760000D03*
X59580000Y-76220000D03*
X59580000Y-73680000D03*
X59580000Y-71140000D03*
X59580000Y-68600000D03*
D11*
X59580000Y-66060000D03*
D12*
X88900000Y-60960000D03*
X73660000Y-99060000D03*
X88900000Y-63500000D03*
X73660000Y-96520000D03*
X88900000Y-66040000D03*
X73660000Y-93980000D03*
X88900000Y-68580000D03*
X73660000Y-91440000D03*
X88900000Y-71120000D03*
X73660000Y-88900000D03*
X88900000Y-73660000D03*
X73660000Y-86360000D03*
X88900000Y-76200000D03*
X73660000Y-83820000D03*
X88900000Y-78740000D03*
X73660000Y-81280000D03*
X88900000Y-81280000D03*
X73660000Y-78740000D03*
X88900000Y-83820000D03*
X73660000Y-76200000D03*
X88900000Y-86360000D03*
X73660000Y-73660000D03*
X88900000Y-88900000D03*
X73660000Y-71120000D03*
X88900000Y-91440000D03*
X73660000Y-68580000D03*
X88900000Y-93980000D03*
X73660000Y-66040000D03*
X88900000Y-96520000D03*
X73660000Y-63500000D03*
X88900000Y-99060000D03*
D13*
X73660000Y-60960000D03*
D12*
X63500000Y-60960000D03*
X48260000Y-99060000D03*
X63500000Y-63500000D03*
X48260000Y-96520000D03*
X63500000Y-66040000D03*
X48260000Y-93980000D03*
X63500000Y-68580000D03*
X48260000Y-91440000D03*
X63500000Y-71120000D03*
X48260000Y-88900000D03*
X63500000Y-73660000D03*
X48260000Y-86360000D03*
X63500000Y-76200000D03*
X48260000Y-83820000D03*
X63500000Y-78740000D03*
X48260000Y-81280000D03*
X63500000Y-81280000D03*
X48260000Y-78740000D03*
X63500000Y-83820000D03*
X48260000Y-76200000D03*
X63500000Y-86360000D03*
X48260000Y-73660000D03*
X63500000Y-88900000D03*
X48260000Y-71120000D03*
X63500000Y-91440000D03*
X48260000Y-68580000D03*
X63500000Y-93980000D03*
X48260000Y-66040000D03*
X63500000Y-96520000D03*
X48260000Y-63500000D03*
X63500000Y-99060000D03*
D13*
X48260000Y-60960000D03*
D12*
X116840000Y-60960000D03*
X101600000Y-99060000D03*
X116840000Y-63500000D03*
X101600000Y-96520000D03*
X116840000Y-66040000D03*
X101600000Y-93980000D03*
X116840000Y-68580000D03*
X101600000Y-91440000D03*
X116840000Y-71120000D03*
X101600000Y-88900000D03*
X116840000Y-73660000D03*
X101600000Y-86360000D03*
X116840000Y-76200000D03*
X101600000Y-83820000D03*
X116840000Y-78740000D03*
X101600000Y-81280000D03*
X116840000Y-81280000D03*
X101600000Y-78740000D03*
X116840000Y-83820000D03*
X101600000Y-76200000D03*
X116840000Y-86360000D03*
X101600000Y-73660000D03*
X116840000Y-88900000D03*
X101600000Y-71120000D03*
X116840000Y-91440000D03*
X101600000Y-68580000D03*
X116840000Y-93980000D03*
X101600000Y-66040000D03*
X116840000Y-96520000D03*
X101600000Y-63500000D03*
X116840000Y-99060000D03*
D13*
X101600000Y-60960000D03*
D14*
X56606000Y-58709200D03*
X48029800Y-101333500D03*
X80677200Y-98622900D03*
X85436800Y-100049900D03*
X78783900Y-100383600D03*
X87797200Y-100350400D03*
X72030700Y-100351400D03*
X93741100Y-100368900D03*
D15*
X106884700Y-63180100D02*
X102413800Y-58709200D01*
X102413800Y-58709200D02*
X56606000Y-58709200D01*
D16*
X112450000Y-63500000D02*
X116840000Y-63500000D01*
X108060000Y-63500000D02*
X112450000Y-63500000D01*
X48260000Y-66040000D02*
X49590000Y-66040000D01*
X49590000Y-66040000D02*
X50735000Y-64895000D01*
X50735000Y-64895000D02*
X73445000Y-64895000D01*
X73445000Y-64895000D02*
X73660000Y-65110000D01*
X73660000Y-65110000D02*
X73660000Y-66040000D01*
D15*
X107740100Y-63180100D02*
X108060000Y-63500000D01*
X106884700Y-63180100D02*
X107740100Y-63180100D01*
X48029800Y-101333500D02*
X49785300Y-99578000D01*
X49785300Y-99578000D02*
X49785300Y-96520000D01*
X48260000Y-96520000D02*
X49785300Y-96520000D01*
D16*
X92820000Y-96520000D02*
X101600000Y-96520000D01*
D15*
X108060000Y-66040000D02*
X106884700Y-66040000D01*
D16*
X88900000Y-66970000D02*
X88900000Y-66040000D01*
X63500000Y-66040000D02*
X64830000Y-66040000D01*
X64830000Y-66040000D02*
X65965000Y-67175000D01*
X65965000Y-67175000D02*
X88695000Y-67175000D01*
X88695000Y-67175000D02*
X88900000Y-66970000D01*
D15*
X106884700Y-66040000D02*
X105689400Y-67235300D01*
X105689400Y-67235300D02*
X89165300Y-67235300D01*
X89165300Y-67235300D02*
X88900000Y-66970000D01*
D16*
X108060000Y-66040000D02*
X116840000Y-66040000D01*
D15*
X48260000Y-93980000D02*
X49785300Y-93980000D01*
X92820000Y-93980000D02*
X91644700Y-93980000D01*
X91644700Y-93980000D02*
X90430400Y-95194300D01*
X90430400Y-95194300D02*
X50999600Y-95194300D01*
X50999600Y-95194300D02*
X49785300Y-93980000D01*
D16*
X92820000Y-93980000D02*
X101600000Y-93980000D01*
D15*
X48260000Y-91440000D02*
X49785300Y-91440000D01*
X92820000Y-91440000D02*
X91644700Y-91440000D01*
X91644700Y-91440000D02*
X90476300Y-90271600D01*
X90476300Y-90271600D02*
X50953700Y-90271600D01*
X50953700Y-90271600D02*
X49785300Y-91440000D01*
D16*
X92820000Y-91440000D02*
X101600000Y-91440000D01*
D15*
X108060000Y-71120000D02*
X106884700Y-71120000D01*
X106884700Y-71120000D02*
X105701700Y-69937000D01*
X105701700Y-69937000D02*
X92190800Y-69937000D01*
X92190800Y-69937000D02*
X91007800Y-71120000D01*
X91007800Y-71120000D02*
X88900000Y-71120000D01*
D16*
X108060000Y-71120000D02*
X116840000Y-71120000D01*
D15*
X92820000Y-88900000D02*
X91644700Y-88900000D01*
X73660000Y-88900000D02*
X75185300Y-88900000D01*
X75185300Y-88900000D02*
X76342100Y-87743200D01*
X76342100Y-87743200D02*
X90487900Y-87743200D01*
X90487900Y-87743200D02*
X91644700Y-88900000D01*
D16*
X92820000Y-88900000D02*
X101600000Y-88900000D01*
X108060000Y-73660000D02*
X116840000Y-73660000D01*
D15*
X48260000Y-86360000D02*
X49785300Y-86360000D01*
X73660000Y-86360000D02*
X72134700Y-86360000D01*
X72134700Y-86360000D02*
X70925400Y-87569300D01*
X70925400Y-87569300D02*
X50994600Y-87569300D01*
X50994600Y-87569300D02*
X49785300Y-86360000D01*
D16*
X92820000Y-86360000D02*
X101600000Y-86360000D01*
X108060000Y-76200000D02*
X116840000Y-76200000D01*
D15*
X73660000Y-83820000D02*
X75185300Y-83820000D01*
X97210000Y-83820000D02*
X93172000Y-83820000D01*
X93172000Y-83820000D02*
X92721600Y-83369600D01*
X92721600Y-83369600D02*
X91210600Y-83369600D01*
X91210600Y-83369600D02*
X90485700Y-82644700D01*
X90485700Y-82644700D02*
X76360600Y-82644700D01*
X76360600Y-82644700D02*
X75185300Y-83820000D01*
D16*
X97210000Y-83820000D02*
X101600000Y-83820000D01*
X92820000Y-83820000D02*
X97210000Y-83820000D01*
D15*
X108060000Y-78740000D02*
X106884700Y-78740000D01*
X106884700Y-78740000D02*
X105709300Y-77564600D01*
X105709300Y-77564600D02*
X92333100Y-77564600D01*
X92333100Y-77564600D02*
X91989400Y-77908300D01*
X91989400Y-77908300D02*
X89731700Y-77908300D01*
X89731700Y-77908300D02*
X88900000Y-78740000D01*
D16*
X108060000Y-78740000D02*
X116840000Y-78740000D01*
X92820000Y-81280000D02*
X101600000Y-81280000D01*
D15*
X73660000Y-81280000D02*
X72134700Y-81280000D01*
X48260000Y-81280000D02*
X49785300Y-81280000D01*
X49785300Y-81280000D02*
X50994500Y-82489200D01*
X50994500Y-82489200D02*
X70925500Y-82489200D01*
X70925500Y-82489200D02*
X72134700Y-81280000D01*
X85436800Y-100049900D02*
X85215800Y-100270900D01*
X85215800Y-100270900D02*
X82325200Y-100270900D01*
X82325200Y-100270900D02*
X80677200Y-98622900D01*
D16*
X88900000Y-81280000D02*
X90230000Y-81280000D01*
X90230000Y-81280000D02*
X91345000Y-80165000D01*
X91345000Y-80165000D02*
X106945000Y-80165000D01*
X106945000Y-80165000D02*
X108060000Y-81280000D01*
X108060000Y-81280000D02*
X116840000Y-81280000D01*
D15*
X73660000Y-78740000D02*
X72134700Y-78740000D01*
X48260000Y-78740000D02*
X49785300Y-78740000D01*
X49785300Y-78740000D02*
X50994600Y-79949300D01*
X50994600Y-79949300D02*
X70925400Y-79949300D01*
X70925400Y-79949300D02*
X72134700Y-78740000D01*
X73660000Y-78740000D02*
X75185300Y-78740000D01*
X92820000Y-78740000D02*
X90891500Y-78740000D01*
X90891500Y-78740000D02*
X89682200Y-79949300D01*
X89682200Y-79949300D02*
X76394600Y-79949300D01*
X76394600Y-79949300D02*
X75185300Y-78740000D01*
D16*
X92820000Y-78740000D02*
X101600000Y-78740000D01*
D15*
X88900000Y-83820000D02*
X87374700Y-83820000D01*
X63500000Y-83820000D02*
X65025300Y-83820000D01*
X65025300Y-83820000D02*
X66234600Y-85029300D01*
X66234600Y-85029300D02*
X86165400Y-85029300D01*
X86165400Y-85029300D02*
X87374700Y-83820000D01*
X88900000Y-83820000D02*
X90425300Y-83820000D01*
X108060000Y-83820000D02*
X106884700Y-83820000D01*
X106884700Y-83820000D02*
X105690800Y-85013900D01*
X105690800Y-85013900D02*
X91619200Y-85013900D01*
X91619200Y-85013900D02*
X90425300Y-83820000D01*
D16*
X108060000Y-83820000D02*
X116840000Y-83820000D01*
D15*
X73660000Y-76200000D02*
X75185300Y-76200000D01*
X92820000Y-76200000D02*
X91644700Y-76200000D01*
X91644700Y-76200000D02*
X90449400Y-77395300D01*
X90449400Y-77395300D02*
X76380600Y-77395300D01*
X76380600Y-77395300D02*
X75185300Y-76200000D01*
D16*
X92820000Y-76200000D02*
X101600000Y-76200000D01*
D15*
X48260000Y-76200000D02*
X49785300Y-76200000D01*
X73660000Y-76200000D02*
X72134700Y-76200000D01*
X72134700Y-76200000D02*
X70925400Y-77409300D01*
X70925400Y-77409300D02*
X50994600Y-77409300D01*
X50994600Y-77409300D02*
X49785300Y-76200000D01*
D16*
X108060000Y-86360000D02*
X116840000Y-86360000D01*
D15*
X48260000Y-73660000D02*
X49785300Y-73660000D01*
X92820000Y-73660000D02*
X91644700Y-73660000D01*
X73660000Y-73660000D02*
X72134700Y-73660000D01*
X72134700Y-73660000D02*
X70925400Y-74869300D01*
X70925400Y-74869300D02*
X50994600Y-74869300D01*
X50994600Y-74869300D02*
X49785300Y-73660000D01*
X74422700Y-73660000D02*
X73660000Y-73660000D01*
X74422700Y-73660000D02*
X75185300Y-73660000D01*
X91644700Y-73660000D02*
X90435400Y-74869300D01*
X90435400Y-74869300D02*
X76394600Y-74869300D01*
X76394600Y-74869300D02*
X75185300Y-73660000D01*
D16*
X92820000Y-73660000D02*
X101600000Y-73660000D01*
D15*
X78783900Y-100383600D02*
X79177800Y-100777500D01*
X79177800Y-100777500D02*
X87370100Y-100777500D01*
X87370100Y-100777500D02*
X87797200Y-100350400D01*
D16*
X108060000Y-88900000D02*
X116840000Y-88900000D01*
D15*
X92820000Y-71120000D02*
X91644700Y-71120000D01*
X73660000Y-71120000D02*
X75185300Y-71120000D01*
X91644700Y-71120000D02*
X90435400Y-72329300D01*
X90435400Y-72329300D02*
X76394600Y-72329300D01*
X76394600Y-72329300D02*
X75185300Y-71120000D01*
D16*
X92820000Y-71120000D02*
X101600000Y-71120000D01*
D15*
X73660000Y-71120000D02*
X72134700Y-71120000D01*
X48260000Y-71120000D02*
X49785300Y-71120000D01*
X49785300Y-71120000D02*
X50994600Y-72329300D01*
X50994600Y-72329300D02*
X70925400Y-72329300D01*
X70925400Y-72329300D02*
X72134700Y-71120000D01*
X63500000Y-91440000D02*
X65025300Y-91440000D01*
X108060000Y-91440000D02*
X106884700Y-91440000D01*
X106884700Y-91440000D02*
X105675600Y-92649100D01*
X105675600Y-92649100D02*
X66234400Y-92649100D01*
X66234400Y-92649100D02*
X65025300Y-91440000D01*
D16*
X108060000Y-91440000D02*
X116840000Y-91440000D01*
D15*
X73660000Y-68580000D02*
X75185300Y-68580000D01*
X92820000Y-68580000D02*
X91644700Y-68580000D01*
X91644700Y-68580000D02*
X90435400Y-69789300D01*
X90435400Y-69789300D02*
X76394600Y-69789300D01*
X76394600Y-69789300D02*
X75185300Y-68580000D01*
D16*
X92820000Y-68580000D02*
X101600000Y-68580000D01*
D15*
X73660000Y-68580000D02*
X72134700Y-68580000D01*
X48260000Y-68580000D02*
X49785300Y-68580000D01*
X49785300Y-68580000D02*
X50994600Y-69789300D01*
X50994600Y-69789300D02*
X70925400Y-69789300D01*
X70925400Y-69789300D02*
X72134700Y-68580000D01*
X93741100Y-100368900D02*
X92882200Y-101227800D01*
X92882200Y-101227800D02*
X72907100Y-101227800D01*
X72907100Y-101227800D02*
X72030700Y-100351400D01*
D16*
X108060000Y-93980000D02*
X116840000Y-93980000D01*
X92820000Y-66040000D02*
X101600000Y-66040000D01*
D15*
X63500000Y-96520000D02*
X65025300Y-96520000D01*
X108060000Y-96520000D02*
X106884700Y-96520000D01*
X106884700Y-96520000D02*
X105675400Y-97729300D01*
X105675400Y-97729300D02*
X66234600Y-97729300D01*
X66234600Y-97729300D02*
X65025300Y-96520000D01*
D16*
X108060000Y-96520000D02*
X116840000Y-96520000D01*
X92820000Y-63500000D02*
X101600000Y-63500000D01*
X73660000Y-63500000D02*
X74990000Y-63500000D01*
X74990000Y-63500000D02*
X76055000Y-62435000D01*
X76055000Y-62435000D02*
X91755000Y-62435000D01*
X91755000Y-62435000D02*
X92820000Y-63500000D01*
X48260000Y-63500000D02*
X49590000Y-63500000D01*
X49590000Y-63500000D02*
X51045000Y-62045000D01*
X51045000Y-62045000D02*
X73135000Y-62045000D01*
X73135000Y-62045000D02*
X73660000Y-62570000D01*
X73660000Y-62570000D02*
X73660000Y-63500000D01*
D15*
X65025300Y-99060000D02*
X67643400Y-101678100D01*
X67643400Y-101678100D02*
X104266600Y-101678100D01*
X104266600Y-101678100D02*
X106884700Y-99060000D01*
X63500000Y-99060000D02*
X65025300Y-99060000D01*
X108060000Y-99060000D02*
X106884700Y-99060000D01*
D16*
X108060000Y-99060000D02*
X116840000Y-99060000D01*
X92820000Y-60960000D02*
X101600000Y-60960000D01*
X73660000Y-60030000D02*
X74047000Y-59643000D01*
X74047000Y-59643000D02*
X92483000Y-59643000D01*
X92483000Y-59643000D02*
X92820000Y-59980000D01*
X92820000Y-59980000D02*
X92820000Y-60960000D01*
X48260000Y-60960000D02*
X48260000Y-60030000D01*
X48260000Y-60030000D02*
X48689000Y-59601000D01*
X48689000Y-59601000D02*
X73231000Y-59601000D01*
X73231000Y-59601000D02*
X73660000Y-60030000D01*
X73660000Y-60030000D02*
X73660000Y-60960000D01*
X108060000Y-68580000D02*
X116840000Y-68580000D01*
X63500000Y-63500000D02*
X64830000Y-63500000D01*
X64830000Y-63500000D02*
X65895000Y-64565000D01*
X65895000Y-64565000D02*
X88765000Y-64565000D01*
X88765000Y-64565000D02*
X88900000Y-64430000D01*
X88900000Y-64430000D02*
X88900000Y-63500000D01*
D15*
X68580000Y-96540000D02*
X69755300Y-96540000D01*
X73660000Y-96520000D02*
X69775300Y-96520000D01*
X69775300Y-96520000D02*
X69755300Y-96540000D01*
X68580000Y-94000000D02*
X69755300Y-94000000D01*
X73660000Y-93980000D02*
X69775300Y-93980000D01*
X69775300Y-93980000D02*
X69755300Y-94000000D01*
X68580000Y-91460000D02*
X69755300Y-91460000D01*
X73660000Y-91440000D02*
X69775300Y-91440000D01*
X69775300Y-91440000D02*
X69755300Y-91460000D01*
X83820000Y-88920000D02*
X84995300Y-88920000D01*
X88900000Y-88900000D02*
X85015300Y-88900000D01*
X85015300Y-88900000D02*
X84995300Y-88920000D01*
X83820000Y-91460000D02*
X84995300Y-91460000D01*
X88900000Y-91440000D02*
X85015300Y-91440000D01*
X85015300Y-91440000D02*
X84995300Y-91460000D01*
X83820000Y-94000000D02*
X84995300Y-94000000D01*
X88900000Y-93980000D02*
X85015300Y-93980000D01*
X85015300Y-93980000D02*
X84995300Y-94000000D01*
X83820000Y-96540000D02*
X84995300Y-96540000D01*
X88900000Y-96520000D02*
X85015300Y-96520000D01*
X85015300Y-96520000D02*
X84995300Y-96540000D01*
X88900000Y-99060000D02*
X87374700Y-99060000D01*
X87374700Y-99060000D02*
X85015300Y-99060000D01*
X85015300Y-99060000D02*
X84995300Y-99080000D01*
X83820000Y-99080000D02*
X84995300Y-99080000D01*
M02*
