M48
; DRILL file {KiCad (5.1.5-0-10_14)} date Sunday, 27 June 2021 at 02:44:25
; FORMAT={-:-/ absolute / inch / decimal}
; #@! TF.CreationDate,2021-06-27T02:44:25+01:00
; #@! TF.GenerationSoftware,Kicad,Pcbnew,(5.1.5-0-10_14)
; #@! TF.FileFunction,Plated,1,2,PTH
FMAT,2
INCH
T1C0.0157
T2C0.0315
T3C0.0394
%
G90
G05
T1
X1.8909Y-3.9895
X2.2286Y-2.3114
X2.8359Y-3.9508
X3.1017Y-3.9521
X3.1763Y-3.8828
X3.3637Y-3.939
X3.4566Y-3.9508
X3.6906Y-3.9515
T2
X4.0Y-2.4
X4.0Y-2.5
X4.0Y-2.6
X4.0Y-2.7
X4.0Y-2.8
X4.0Y-2.9
X4.0Y-3.0
X4.0Y-3.1
X4.0Y-3.2
X4.0Y-3.3
X4.0Y-3.4
X4.0Y-3.5
X4.0Y-3.6
X4.0Y-3.7
X4.0Y-3.8
X4.0Y-3.9
X4.6Y-2.4
X4.6Y-2.5
X4.6Y-2.6
X4.6Y-2.7
X4.6Y-2.8
X4.6Y-2.9
X4.6Y-3.0
X4.6Y-3.1
X4.6Y-3.2
X4.6Y-3.3
X4.6Y-3.4
X4.6Y-3.5
X4.6Y-3.6
X4.6Y-3.7
X4.6Y-3.8
X4.6Y-3.9
X2.9Y-2.4
X2.9Y-2.5
X2.9Y-2.6
X2.9Y-2.7
X2.9Y-2.8
X2.9Y-2.9
X2.9Y-3.0
X2.9Y-3.1
X2.9Y-3.2
X2.9Y-3.3
X2.9Y-3.4
X2.9Y-3.5
X2.9Y-3.6
X2.9Y-3.7
X2.9Y-3.8
X2.9Y-3.9
X3.5Y-2.4
X3.5Y-2.5
X3.5Y-2.6
X3.5Y-2.7
X3.5Y-2.8
X3.5Y-2.9
X3.5Y-3.0
X3.5Y-3.1
X3.5Y-3.2
X3.5Y-3.3
X3.5Y-3.4
X3.5Y-3.5
X3.5Y-3.6
X3.5Y-3.7
X3.5Y-3.8
X3.5Y-3.9
X1.9Y-2.4
X1.9Y-2.5
X1.9Y-2.6
X1.9Y-2.7
X1.9Y-2.8
X1.9Y-2.9
X1.9Y-3.0
X1.9Y-3.1
X1.9Y-3.2
X1.9Y-3.3
X1.9Y-3.4
X1.9Y-3.5
X1.9Y-3.6
X1.9Y-3.7
X1.9Y-3.8
X1.9Y-3.9
X2.5Y-2.4
X2.5Y-2.5
X2.5Y-2.6
X2.5Y-2.7
X2.5Y-2.8
X2.5Y-2.9
X2.5Y-3.0
X2.5Y-3.1
X2.5Y-3.2
X2.5Y-3.3
X2.5Y-3.4
X2.5Y-3.5
X2.5Y-3.6
X2.5Y-3.7
X2.5Y-3.8
X2.5Y-3.9
T3
X3.6543Y-2.4
X3.6543Y-2.5
X3.6543Y-2.6
X3.6543Y-2.7
X3.6543Y-2.8
X3.6543Y-2.9
X3.6543Y-3.0
X3.6543Y-3.1
X3.6543Y-3.2
X3.6543Y-3.3
X3.6543Y-3.4
X3.6543Y-3.5
X3.6543Y-3.6
X3.6543Y-3.7
X3.6543Y-3.8
X3.6543Y-3.9
X3.3Y-2.6008
X3.3Y-2.7008
X3.3Y-2.8008
X3.3Y-2.9008
X3.3Y-3.0008
X3.3Y-3.1008
X3.3Y-3.2008
X3.3Y-3.3008
X3.3Y-3.4008
X3.3Y-3.5008
X3.3Y-3.6008
X3.3Y-3.7008
X3.3Y-3.8008
X3.3Y-3.9008
X2.7Y-2.6008
X2.7Y-2.7008
X2.7Y-2.8008
X2.7Y-2.9008
X2.7Y-3.0008
X2.7Y-3.1008
X2.7Y-3.2008
X2.7Y-3.3008
X2.7Y-3.4008
X2.7Y-3.5008
X2.7Y-3.6008
X2.7Y-3.7008
X2.7Y-3.8008
X2.7Y-3.9008
X2.3457Y-2.6008
X2.3457Y-2.7008
X2.3457Y-2.8008
X2.3457Y-2.9008
X2.3457Y-3.0008
X2.3457Y-3.1008
X2.3457Y-3.2008
X2.3457Y-3.3008
X2.3457Y-3.4008
X2.3457Y-3.5008
X2.3457Y-3.6008
X2.3457Y-3.7008
X2.3457Y-3.8008
X2.3457Y-3.9008
X4.2543Y-2.4
X4.2543Y-2.5
X4.2543Y-2.6
X4.2543Y-2.7
X4.2543Y-2.8
X4.2543Y-2.9
X4.2543Y-3.0
X4.2543Y-3.1
X4.2543Y-3.2
X4.2543Y-3.3
X4.2543Y-3.4
X4.2543Y-3.5
X4.2543Y-3.6
X4.2543Y-3.7
X4.2543Y-3.8
X4.2543Y-3.9
T0
M30
