G04 #@! TF.GenerationSoftware,KiCad,Pcbnew,(5.1.5-0-10_14)*
G04 #@! TF.CreationDate,2021-06-27T14:31:18+01:00*
G04 #@! TF.ProjectId,flash-rom-expansion,666c6173-682d-4726-9f6d-2d657870616e,rev?*
G04 #@! TF.SameCoordinates,Original*
G04 #@! TF.FileFunction,Legend,Bot*
G04 #@! TF.FilePolarity,Positive*
%FSLAX46Y46*%
G04 Gerber Fmt 4.6, Leading zero omitted, Abs format (unit mm)*
G04 Created by KiCad (PCBNEW (5.1.5-0-10_14)) date 2021-06-27 14:31:18*
%MOMM*%
%LPD*%
G04 APERTURE LIST*
%ADD10C,0.150000*%
G04 APERTURE END LIST*
D10*
X51627380Y-64142857D02*
X50960714Y-64142857D01*
X51151190Y-64142857D02*
X51055952Y-64190476D01*
X51008333Y-64238095D01*
X50960714Y-64333333D01*
X50960714Y-64428571D01*
X51627380Y-64904761D02*
X51579761Y-64809523D01*
X51532142Y-64761904D01*
X51436904Y-64714285D01*
X51151190Y-64714285D01*
X51055952Y-64761904D01*
X51008333Y-64809523D01*
X50960714Y-64904761D01*
X50960714Y-65047619D01*
X51008333Y-65142857D01*
X51055952Y-65190476D01*
X51151190Y-65238095D01*
X51436904Y-65238095D01*
X51532142Y-65190476D01*
X51579761Y-65142857D01*
X51627380Y-65047619D01*
X51627380Y-64904761D01*
X51579761Y-65619047D02*
X51627380Y-65714285D01*
X51627380Y-65904761D01*
X51579761Y-66000000D01*
X51484523Y-66047619D01*
X51436904Y-66047619D01*
X51341666Y-66000000D01*
X51294047Y-65904761D01*
X51294047Y-65761904D01*
X51246428Y-65666666D01*
X51151190Y-65619047D01*
X51103571Y-65619047D01*
X51008333Y-65666666D01*
X50960714Y-65761904D01*
X50960714Y-65904761D01*
X51008333Y-66000000D01*
X51579761Y-66904761D02*
X51627380Y-66809523D01*
X51627380Y-66619047D01*
X51579761Y-66523809D01*
X51532142Y-66476190D01*
X51436904Y-66428571D01*
X51151190Y-66428571D01*
X51055952Y-66476190D01*
X51008333Y-66523809D01*
X50960714Y-66619047D01*
X50960714Y-66809523D01*
X51008333Y-66904761D01*
X51627380Y-67476190D02*
X51579761Y-67380952D01*
X51532142Y-67333333D01*
X51436904Y-67285714D01*
X51151190Y-67285714D01*
X51055952Y-67333333D01*
X51008333Y-67380952D01*
X50960714Y-67476190D01*
X50960714Y-67619047D01*
X51008333Y-67714285D01*
X51055952Y-67761904D01*
X51151190Y-67809523D01*
X51436904Y-67809523D01*
X51532142Y-67761904D01*
X51579761Y-67714285D01*
X51627380Y-67619047D01*
X51627380Y-67476190D01*
X51722619Y-68000000D02*
X51722619Y-68761904D01*
X51627380Y-69000000D02*
X50960714Y-69000000D01*
X51055952Y-69000000D02*
X51008333Y-69047619D01*
X50960714Y-69142857D01*
X50960714Y-69285714D01*
X51008333Y-69380952D01*
X51103571Y-69428571D01*
X51627380Y-69428571D01*
X51103571Y-69428571D02*
X51008333Y-69476190D01*
X50960714Y-69571428D01*
X50960714Y-69714285D01*
X51008333Y-69809523D01*
X51103571Y-69857142D01*
X51627380Y-69857142D01*
X50627380Y-70761904D02*
X50627380Y-70571428D01*
X50675000Y-70476190D01*
X50722619Y-70428571D01*
X50865476Y-70333333D01*
X51055952Y-70285714D01*
X51436904Y-70285714D01*
X51532142Y-70333333D01*
X51579761Y-70380952D01*
X51627380Y-70476190D01*
X51627380Y-70666666D01*
X51579761Y-70761904D01*
X51532142Y-70809523D01*
X51436904Y-70857142D01*
X51198809Y-70857142D01*
X51103571Y-70809523D01*
X51055952Y-70761904D01*
X51008333Y-70666666D01*
X51008333Y-70476190D01*
X51055952Y-70380952D01*
X51103571Y-70333333D01*
X51198809Y-70285714D01*
X51055952Y-71428571D02*
X51008333Y-71333333D01*
X50960714Y-71285714D01*
X50865476Y-71238095D01*
X50817857Y-71238095D01*
X50722619Y-71285714D01*
X50675000Y-71333333D01*
X50627380Y-71428571D01*
X50627380Y-71619047D01*
X50675000Y-71714285D01*
X50722619Y-71761904D01*
X50817857Y-71809523D01*
X50865476Y-71809523D01*
X50960714Y-71761904D01*
X51008333Y-71714285D01*
X51055952Y-71619047D01*
X51055952Y-71428571D01*
X51103571Y-71333333D01*
X51151190Y-71285714D01*
X51246428Y-71238095D01*
X51436904Y-71238095D01*
X51532142Y-71285714D01*
X51579761Y-71333333D01*
X51627380Y-71428571D01*
X51627380Y-71619047D01*
X51579761Y-71714285D01*
X51532142Y-71761904D01*
X51436904Y-71809523D01*
X51246428Y-71809523D01*
X51151190Y-71761904D01*
X51103571Y-71714285D01*
X51055952Y-71619047D01*
X51627380Y-72238095D02*
X50627380Y-72238095D01*
X51246428Y-72333333D02*
X51627380Y-72619047D01*
X50960714Y-72619047D02*
X51341666Y-72238095D01*
X51103571Y-74142857D02*
X51103571Y-73809523D01*
X51627380Y-73809523D02*
X50627380Y-73809523D01*
X50627380Y-74285714D01*
X51627380Y-74809523D02*
X51579761Y-74714285D01*
X51484523Y-74666666D01*
X50627380Y-74666666D01*
X51627380Y-75619047D02*
X51103571Y-75619047D01*
X51008333Y-75571428D01*
X50960714Y-75476190D01*
X50960714Y-75285714D01*
X51008333Y-75190476D01*
X51579761Y-75619047D02*
X51627380Y-75523809D01*
X51627380Y-75285714D01*
X51579761Y-75190476D01*
X51484523Y-75142857D01*
X51389285Y-75142857D01*
X51294047Y-75190476D01*
X51246428Y-75285714D01*
X51246428Y-75523809D01*
X51198809Y-75619047D01*
X51579761Y-76047619D02*
X51627380Y-76142857D01*
X51627380Y-76333333D01*
X51579761Y-76428571D01*
X51484523Y-76476190D01*
X51436904Y-76476190D01*
X51341666Y-76428571D01*
X51294047Y-76333333D01*
X51294047Y-76190476D01*
X51246428Y-76095238D01*
X51151190Y-76047619D01*
X51103571Y-76047619D01*
X51008333Y-76095238D01*
X50960714Y-76190476D01*
X50960714Y-76333333D01*
X51008333Y-76428571D01*
X51627380Y-76904761D02*
X50627380Y-76904761D01*
X51627380Y-77333333D02*
X51103571Y-77333333D01*
X51008333Y-77285714D01*
X50960714Y-77190476D01*
X50960714Y-77047619D01*
X51008333Y-76952380D01*
X51055952Y-76904761D01*
X51627380Y-79142857D02*
X51151190Y-78809523D01*
X51627380Y-78571428D02*
X50627380Y-78571428D01*
X50627380Y-78952380D01*
X50675000Y-79047619D01*
X50722619Y-79095238D01*
X50817857Y-79142857D01*
X50960714Y-79142857D01*
X51055952Y-79095238D01*
X51103571Y-79047619D01*
X51151190Y-78952380D01*
X51151190Y-78571428D01*
X50627380Y-79761904D02*
X50627380Y-79952380D01*
X50675000Y-80047619D01*
X50770238Y-80142857D01*
X50960714Y-80190476D01*
X51294047Y-80190476D01*
X51484523Y-80142857D01*
X51579761Y-80047619D01*
X51627380Y-79952380D01*
X51627380Y-79761904D01*
X51579761Y-79666666D01*
X51484523Y-79571428D01*
X51294047Y-79523809D01*
X50960714Y-79523809D01*
X50770238Y-79571428D01*
X50675000Y-79666666D01*
X50627380Y-79761904D01*
X51627380Y-80619047D02*
X50627380Y-80619047D01*
X51341666Y-80952380D01*
X50627380Y-81285714D01*
X51627380Y-81285714D01*
X51341666Y-82476190D02*
X51341666Y-82952380D01*
X51627380Y-82380952D02*
X50627380Y-82714285D01*
X51627380Y-83047619D01*
X51627380Y-83809523D02*
X50627380Y-83809523D01*
X51579761Y-83809523D02*
X51627380Y-83714285D01*
X51627380Y-83523809D01*
X51579761Y-83428571D01*
X51532142Y-83380952D01*
X51436904Y-83333333D01*
X51151190Y-83333333D01*
X51055952Y-83380952D01*
X51008333Y-83428571D01*
X50960714Y-83523809D01*
X50960714Y-83714285D01*
X51008333Y-83809523D01*
X51627380Y-84714285D02*
X51103571Y-84714285D01*
X51008333Y-84666666D01*
X50960714Y-84571428D01*
X50960714Y-84380952D01*
X51008333Y-84285714D01*
X51579761Y-84714285D02*
X51627380Y-84619047D01*
X51627380Y-84380952D01*
X51579761Y-84285714D01*
X51484523Y-84238095D01*
X51389285Y-84238095D01*
X51294047Y-84285714D01*
X51246428Y-84380952D01*
X51246428Y-84619047D01*
X51198809Y-84714285D01*
X50960714Y-85190476D02*
X51960714Y-85190476D01*
X51008333Y-85190476D02*
X50960714Y-85285714D01*
X50960714Y-85476190D01*
X51008333Y-85571428D01*
X51055952Y-85619047D01*
X51151190Y-85666666D01*
X51436904Y-85666666D01*
X51532142Y-85619047D01*
X51579761Y-85571428D01*
X51627380Y-85476190D01*
X51627380Y-85285714D01*
X51579761Y-85190476D01*
X50960714Y-85952380D02*
X50960714Y-86333333D01*
X50627380Y-86095238D02*
X51484523Y-86095238D01*
X51579761Y-86142857D01*
X51627380Y-86238095D01*
X51627380Y-86333333D01*
X51579761Y-87047619D02*
X51627380Y-86952380D01*
X51627380Y-86761904D01*
X51579761Y-86666666D01*
X51484523Y-86619047D01*
X51103571Y-86619047D01*
X51008333Y-86666666D01*
X50960714Y-86761904D01*
X50960714Y-86952380D01*
X51008333Y-87047619D01*
X51103571Y-87095238D01*
X51198809Y-87095238D01*
X51294047Y-86619047D01*
X51627380Y-87523809D02*
X50960714Y-87523809D01*
X51151190Y-87523809D02*
X51055952Y-87571428D01*
X51008333Y-87619047D01*
X50960714Y-87714285D01*
X50960714Y-87809523D01*
X51627380Y-88904761D02*
X50627380Y-88904761D01*
X50627380Y-89285714D01*
X50675000Y-89380952D01*
X50722619Y-89428571D01*
X50817857Y-89476190D01*
X50960714Y-89476190D01*
X51055952Y-89428571D01*
X51103571Y-89380952D01*
X51151190Y-89285714D01*
X51151190Y-88904761D01*
X51627380Y-89904761D02*
X50960714Y-89904761D01*
X51151190Y-89904761D02*
X51055952Y-89952380D01*
X51008333Y-89999999D01*
X50960714Y-90095238D01*
X50960714Y-90190476D01*
X51627380Y-90666666D02*
X51579761Y-90571428D01*
X51532142Y-90523809D01*
X51436904Y-90476190D01*
X51151190Y-90476190D01*
X51055952Y-90523809D01*
X51008333Y-90571428D01*
X50960714Y-90666666D01*
X50960714Y-90809523D01*
X51008333Y-90904761D01*
X51055952Y-90952380D01*
X51151190Y-90999999D01*
X51436904Y-90999999D01*
X51532142Y-90952380D01*
X51579761Y-90904761D01*
X51627380Y-90809523D01*
X51627380Y-90666666D01*
X50960714Y-91285714D02*
X50960714Y-91666666D01*
X50627380Y-91428571D02*
X51484523Y-91428571D01*
X51579761Y-91476190D01*
X51627380Y-91571428D01*
X51627380Y-91666666D01*
X51627380Y-92142857D02*
X51579761Y-92047619D01*
X51532142Y-91999999D01*
X51436904Y-91952380D01*
X51151190Y-91952380D01*
X51055952Y-91999999D01*
X51008333Y-92047619D01*
X50960714Y-92142857D01*
X50960714Y-92285714D01*
X51008333Y-92380952D01*
X51055952Y-92428571D01*
X51151190Y-92476190D01*
X51436904Y-92476190D01*
X51532142Y-92428571D01*
X51579761Y-92380952D01*
X51627380Y-92285714D01*
X51627380Y-92142857D01*
X50960714Y-92761904D02*
X50960714Y-93142857D01*
X50627380Y-92904761D02*
X51484523Y-92904761D01*
X51579761Y-92952380D01*
X51627380Y-93047619D01*
X51627380Y-93142857D01*
X50960714Y-93380952D02*
X51627380Y-93619047D01*
X50960714Y-93857142D02*
X51627380Y-93619047D01*
X51865476Y-93523809D01*
X51913095Y-93476190D01*
X51960714Y-93380952D01*
X50960714Y-94238095D02*
X51960714Y-94238095D01*
X51008333Y-94238095D02*
X50960714Y-94333333D01*
X50960714Y-94523809D01*
X51008333Y-94619047D01*
X51055952Y-94666666D01*
X51151190Y-94714285D01*
X51436904Y-94714285D01*
X51532142Y-94666666D01*
X51579761Y-94619047D01*
X51627380Y-94523809D01*
X51627380Y-94333333D01*
X51579761Y-94238095D01*
X51579761Y-95523809D02*
X51627380Y-95428571D01*
X51627380Y-95238095D01*
X51579761Y-95142857D01*
X51484523Y-95095238D01*
X51103571Y-95095238D01*
X51008333Y-95142857D01*
X50960714Y-95238095D01*
X50960714Y-95428571D01*
X51008333Y-95523809D01*
X51103571Y-95571428D01*
X51198809Y-95571428D01*
X51294047Y-95095238D01*
X51627380Y-96761904D02*
X50960714Y-96761904D01*
X51151190Y-96761904D02*
X51055952Y-96809523D01*
X51008333Y-96857142D01*
X50960714Y-96952380D01*
X50960714Y-97047619D01*
X50627380Y-97571428D02*
X50627380Y-97666666D01*
X50675000Y-97761904D01*
X50722619Y-97809523D01*
X50817857Y-97857142D01*
X51008333Y-97904761D01*
X51246428Y-97904761D01*
X51436904Y-97857142D01*
X51532142Y-97809523D01*
X51579761Y-97761904D01*
X51627380Y-97666666D01*
X51627380Y-97571428D01*
X51579761Y-97476190D01*
X51532142Y-97428571D01*
X51436904Y-97380952D01*
X51246428Y-97333333D01*
X51008333Y-97333333D01*
X50817857Y-97380952D01*
X50722619Y-97428571D01*
X50675000Y-97476190D01*
X50627380Y-97571428D01*
X52277380Y-77761904D02*
X52991666Y-77761904D01*
X53134523Y-77714285D01*
X53229761Y-77619047D01*
X53277380Y-77476190D01*
X53277380Y-77380952D01*
X52610714Y-78666666D02*
X53277380Y-78666666D01*
X52610714Y-78238095D02*
X53134523Y-78238095D01*
X53229761Y-78285714D01*
X53277380Y-78380952D01*
X53277380Y-78523809D01*
X53229761Y-78619047D01*
X53182142Y-78666666D01*
X53277380Y-79285714D02*
X53229761Y-79190476D01*
X53134523Y-79142857D01*
X52277380Y-79142857D01*
X52610714Y-79571428D02*
X53277380Y-79809523D01*
X52610714Y-80047619D02*
X53277380Y-79809523D01*
X53515476Y-79714285D01*
X53563095Y-79666666D01*
X53610714Y-79571428D01*
X52372619Y-81142857D02*
X52325000Y-81190476D01*
X52277380Y-81285714D01*
X52277380Y-81523809D01*
X52325000Y-81619047D01*
X52372619Y-81666666D01*
X52467857Y-81714285D01*
X52563095Y-81714285D01*
X52705952Y-81666666D01*
X53277380Y-81095238D01*
X53277380Y-81714285D01*
X52277380Y-82333333D02*
X52277380Y-82428571D01*
X52325000Y-82523809D01*
X52372619Y-82571428D01*
X52467857Y-82619047D01*
X52658333Y-82666666D01*
X52896428Y-82666666D01*
X53086904Y-82619047D01*
X53182142Y-82571428D01*
X53229761Y-82523809D01*
X53277380Y-82428571D01*
X53277380Y-82333333D01*
X53229761Y-82238095D01*
X53182142Y-82190476D01*
X53086904Y-82142857D01*
X52896428Y-82095238D01*
X52658333Y-82095238D01*
X52467857Y-82142857D01*
X52372619Y-82190476D01*
X52325000Y-82238095D01*
X52277380Y-82333333D01*
X52372619Y-83047619D02*
X52325000Y-83095238D01*
X52277380Y-83190476D01*
X52277380Y-83428571D01*
X52325000Y-83523809D01*
X52372619Y-83571428D01*
X52467857Y-83619047D01*
X52563095Y-83619047D01*
X52705952Y-83571428D01*
X53277380Y-83000000D01*
X53277380Y-83619047D01*
X53277380Y-84571428D02*
X53277380Y-84000000D01*
X53277380Y-84285714D02*
X52277380Y-84285714D01*
X52420238Y-84190476D01*
X52515476Y-84095238D01*
X52563095Y-84000000D01*
M02*
