M48
; DRILL file {KiCad (5.1.5-0-10_14)} date Saturday, 26 June 2021 at 23:08:55
; FORMAT={-:-/ absolute / inch / decimal}
; #@! TF.CreationDate,2021-06-26T23:08:55+01:00
; #@! TF.GenerationSoftware,Kicad,Pcbnew,(5.1.5-0-10_14)
; #@! TF.FileFunction,Plated,1,4,PTH
FMAT,2
INCH
T1C0.0138
T2C0.0157
T3C0.0173
T4C0.0315
T5C0.0320
T6C0.0354
T7C0.0394
T8C0.0400
T9C0.0433
T10C0.0472
%
G90
G05
T2
X10.0788Y-2.7671
X10.104Y-2.7967
X10.1293Y-2.8298
X10.1498Y-4.269
X10.1543Y-4.4686
X10.1667Y-4.1672
X10.1676Y-4.5808
X10.1919Y-4.2649
X10.1929Y-4.0632
X10.1935Y-4.3578
X10.194Y-4.1346
X10.1951Y-4.4526
X10.1962Y-4.5505
X10.1979Y-2.6937
X10.2171Y-4.2303
X10.2181Y-4.0338
X10.2181Y-4.1042
X10.2196Y-4.4202
X10.2196Y-4.519
X10.2207Y-4.327
X10.2231Y-2.6629
X10.2772Y-3.6405
X10.3426Y-2.4373
X10.3508Y-2.1729
X10.3618Y-3.1594
X10.3618Y-3.4345
X10.3739Y-2.0122
X10.3813Y-3.0107
X10.3819Y-2.5898
X10.4296Y-2.9835
X10.4312Y-3.9981
X10.4319Y-1.9693
X10.5772Y-4.6006
X10.5788Y-4.0246
X10.5873Y-4.1672
X10.591Y-4.4508
X10.6934Y-2.6224
X10.698Y-4.4456
X10.6985Y-4.519
X10.7002Y-4.3698
X10.7009Y-4.269
X10.7027Y-4.2176
X10.7028Y-4.5755
X10.7062Y-4.1247
X10.7083Y-4.05
X10.7186Y-2.653
X10.7273Y-4.4202
X10.7285Y-4.3194
X10.7296Y-4.2442
X10.7326Y-3.1834
X10.7327Y-3.0856
X10.7328Y-3.1234
X10.7338Y-4.0779
X10.7343Y-4.1499
X10.7475Y-4.5506
X10.757Y-4.3443
X10.7739Y-4.4686
T3
X0.5085Y-2.8736
X0.5085Y-2.9248
X0.5085Y-2.976
X0.5478Y-2.8992
X0.5478Y-2.9504
T4
X7.2014Y-1.6502
X7.2014Y-1.7486
X3.7877Y-1.6502
X3.7877Y-1.7486
X8.3393Y-1.6502
X8.3393Y-1.7486
X1.1677Y-2.2225
X1.1677Y-2.3209
X2.6498Y-1.6502
X2.6498Y-1.7486
X9.4772Y-1.6502
X9.4772Y-1.7486
X6.0635Y-1.6502
X6.0635Y-1.7486
X0.9242Y-4.2174
X1.0226Y-4.2174
X0.9217Y-3.0441
X1.0201Y-3.0441
X10.6148Y-1.6564
X10.6148Y-1.7548
X4.9256Y-1.6502
X4.9256Y-1.7486
T5
X0.993Y-2.5827
X1.133Y-2.5827
X1.1677Y-1.6983
X1.1677Y-2.0983
T6
X0.8222Y-1.6984
X0.9222Y-1.6984
T7
X0.9219Y-4.3854
X1.0219Y-4.3854
X0.9219Y-4.4858
X1.0219Y-4.4858
X0.9219Y-4.5852
X1.0219Y-4.5852
X0.5087Y-3.3555
X0.5087Y-3.4555
X0.5087Y-3.5555
T8
X1.7152Y-5.1635
X1.7152Y-5.2635
X1.7152Y-5.3635
X1.7152Y-5.4635
X1.7152Y-5.5635
X1.7152Y-5.6635
X1.7152Y-5.7635
X1.7152Y-5.8635
X1.8152Y-5.1635
X1.8152Y-5.2635
X1.8152Y-5.3635
X1.8152Y-5.4635
X1.8152Y-5.5635
X1.8152Y-5.6635
X1.8152Y-5.7635
X1.8152Y-5.8635
X9.7794Y-5.1635
X9.7794Y-5.2635
X9.7794Y-5.3635
X9.7794Y-5.4635
X9.7794Y-5.5635
X9.7794Y-5.6635
X9.7794Y-5.7635
X9.7794Y-5.8635
X9.8794Y-5.1635
X9.8794Y-5.2635
X9.8794Y-5.3635
X9.8794Y-5.4635
X9.8794Y-5.5635
X9.8794Y-5.6635
X9.8794Y-5.7635
X9.8794Y-5.8635
X5.1759Y-5.1635
X5.1759Y-5.2635
X5.1759Y-5.3635
X5.1759Y-5.4635
X5.1759Y-5.5635
X5.1759Y-5.6635
X5.1759Y-5.7635
X5.1759Y-5.8635
X5.2759Y-5.1635
X5.2759Y-5.2635
X5.2759Y-5.3635
X5.2759Y-5.4635
X5.2759Y-5.5635
X5.2759Y-5.6635
X5.2759Y-5.7635
X5.2759Y-5.8635
X2.8688Y-5.1635
X2.8688Y-5.2635
X2.8688Y-5.3635
X2.8688Y-5.4635
X2.8688Y-5.5635
X2.8688Y-5.6635
X2.8688Y-5.7635
X2.8688Y-5.8635
X2.9688Y-5.1635
X2.9688Y-5.2635
X2.9688Y-5.3635
X2.9688Y-5.4635
X2.9688Y-5.5635
X2.9688Y-5.6635
X2.9688Y-5.7635
X2.9688Y-5.8635
X4.0223Y-1.7477
X4.0223Y-1.8477
X4.0223Y-1.9477
X4.0223Y-2.0477
X4.0223Y-2.1477
X4.0223Y-2.2477
X4.0223Y-2.3477
X4.0223Y-2.4477
X4.0223Y-2.5477
X4.0223Y-2.6477
X4.0223Y-2.7477
X4.0223Y-2.8477
X4.0223Y-2.9477
X4.0223Y-3.0477
X4.0223Y-3.1477
X4.0223Y-3.2477
X4.0223Y-3.3477
X4.0223Y-3.4477
X4.0223Y-3.5477
X4.0223Y-3.6477
X4.0223Y-3.7477
X4.0223Y-3.8477
X4.0223Y-3.9477
X4.0223Y-4.0477
X4.0223Y-4.1477
X4.0223Y-4.2477
X4.0223Y-4.3477
X4.0223Y-4.4477
X4.0223Y-4.5477
X4.0223Y-4.6477
X4.0223Y-4.7477
X4.0223Y-4.8477
X4.1223Y-1.7477
X4.1223Y-1.8477
X4.1223Y-1.9477
X4.1223Y-2.0477
X4.1223Y-2.1477
X4.1223Y-2.2477
X4.1223Y-2.3477
X4.1223Y-2.4477
X4.1223Y-2.5477
X4.1223Y-2.6477
X4.1223Y-2.7477
X4.1223Y-2.8477
X4.1223Y-2.9477
X4.1223Y-3.0477
X4.1223Y-3.1477
X4.1223Y-3.2477
X4.1223Y-3.3477
X4.1223Y-3.4477
X4.1223Y-3.5477
X4.1223Y-3.6477
X4.1223Y-3.7477
X4.1223Y-3.8477
X4.1223Y-3.9477
X4.1223Y-4.0477
X4.1223Y-4.1477
X4.1223Y-4.2477
X4.1223Y-4.3477
X4.1223Y-4.4477
X4.1223Y-4.5477
X4.1223Y-4.6477
X4.1223Y-4.7477
X4.1223Y-4.8477
X9.7794Y-1.7477
X9.7794Y-1.8477
X9.7794Y-1.9477
X9.7794Y-2.0477
X9.7794Y-2.1477
X9.7794Y-2.2477
X9.7794Y-2.3477
X9.7794Y-2.4477
X9.7794Y-2.5477
X9.7794Y-2.6477
X9.7794Y-2.7477
X9.7794Y-2.8477
X9.7794Y-2.9477
X9.7794Y-3.0477
X9.7794Y-3.1477
X9.7794Y-3.2477
X9.7794Y-3.3477
X9.7794Y-3.4477
X9.7794Y-3.5477
X9.7794Y-3.6477
X9.7794Y-3.7477
X9.7794Y-3.8477
X9.7794Y-3.9477
X9.7794Y-4.0477
X9.7794Y-4.1477
X9.7794Y-4.2477
X9.7794Y-4.3477
X9.7794Y-4.4477
X9.7794Y-4.5477
X9.7794Y-4.6477
X9.7794Y-4.7477
X9.7794Y-4.8477
X9.8794Y-1.7477
X9.8794Y-1.8477
X9.8794Y-1.9477
X9.8794Y-2.0477
X9.8794Y-2.1477
X9.8794Y-2.2477
X9.8794Y-2.3477
X9.8794Y-2.4477
X9.8794Y-2.5477
X9.8794Y-2.6477
X9.8794Y-2.7477
X9.8794Y-2.8477
X9.8794Y-2.9477
X9.8794Y-3.0477
X9.8794Y-3.1477
X9.8794Y-3.2477
X9.8794Y-3.3477
X9.8794Y-3.4477
X9.8794Y-3.5477
X9.8794Y-3.6477
X9.8794Y-3.7477
X9.8794Y-3.8477
X9.8794Y-3.9477
X9.8794Y-4.0477
X9.8794Y-4.1477
X9.8794Y-4.2477
X9.8794Y-4.3477
X9.8794Y-4.4477
X9.8794Y-4.5477
X9.8794Y-4.6477
X9.8794Y-4.7477
X9.8794Y-4.8477
X6.3294Y-5.1635
X6.3294Y-5.2635
X6.3294Y-5.3635
X6.3294Y-5.4635
X6.3294Y-5.5635
X6.3294Y-5.6635
X6.3294Y-5.7635
X6.3294Y-5.8635
X6.4294Y-5.1635
X6.4294Y-5.2635
X6.4294Y-5.3635
X6.4294Y-5.4635
X6.4294Y-5.5635
X6.4294Y-5.6635
X6.4294Y-5.7635
X6.4294Y-5.8635
X7.4794Y-5.1635
X7.4794Y-5.2635
X7.4794Y-5.3635
X7.4794Y-5.4635
X7.4794Y-5.5635
X7.4794Y-5.6635
X7.4794Y-5.7635
X7.4794Y-5.8635
X7.5794Y-5.1635
X7.5794Y-5.2635
X7.5794Y-5.3635
X7.5794Y-5.4635
X7.5794Y-5.5635
X7.5794Y-5.6635
X7.5794Y-5.7635
X7.5794Y-5.8635
X1.7152Y-1.7477
X1.7152Y-1.8477
X1.7152Y-1.9477
X1.7152Y-2.0477
X1.7152Y-2.1477
X1.7152Y-2.2477
X1.7152Y-2.3477
X1.7152Y-2.4477
X1.7152Y-2.5477
X1.7152Y-2.6477
X1.7152Y-2.7477
X1.7152Y-2.8477
X1.7152Y-2.9477
X1.7152Y-3.0477
X1.7152Y-3.1477
X1.7152Y-3.2477
X1.7152Y-3.3477
X1.7152Y-3.4477
X1.7152Y-3.5477
X1.7152Y-3.6477
X1.7152Y-3.7477
X1.7152Y-3.8477
X1.7152Y-3.9477
X1.7152Y-4.0477
X1.7152Y-4.1477
X1.7152Y-4.2477
X1.7152Y-4.3477
X1.7152Y-4.4477
X1.7152Y-4.5477
X1.7152Y-4.6477
X1.7152Y-4.7477
X1.7152Y-4.8477
X1.8152Y-1.7477
X1.8152Y-1.8477
X1.8152Y-1.9477
X1.8152Y-2.0477
X1.8152Y-2.1477
X1.8152Y-2.2477
X1.8152Y-2.3477
X1.8152Y-2.4477
X1.8152Y-2.5477
X1.8152Y-2.6477
X1.8152Y-2.7477
X1.8152Y-2.8477
X1.8152Y-2.9477
X1.8152Y-3.0477
X1.8152Y-3.1477
X1.8152Y-3.2477
X1.8152Y-3.3477
X1.8152Y-3.4477
X1.8152Y-3.5477
X1.8152Y-3.6477
X1.8152Y-3.7477
X1.8152Y-3.8477
X1.8152Y-3.9477
X1.8152Y-4.0477
X1.8152Y-4.1477
X1.8152Y-4.2477
X1.8152Y-4.3477
X1.8152Y-4.4477
X1.8152Y-4.5477
X1.8152Y-4.6477
X1.8152Y-4.7477
X1.8152Y-4.8477
X10.9379Y-5.1635
X10.9379Y-5.2635
X10.9379Y-5.3635
X10.9379Y-5.4635
X10.9379Y-5.5635
X10.9379Y-5.6635
X10.9379Y-5.7635
X10.9379Y-5.8635
X11.0379Y-5.1635
X11.0379Y-5.2635
X11.0379Y-5.3635
X11.0379Y-5.4635
X11.0379Y-5.5635
X11.0379Y-5.6635
X11.0379Y-5.7635
X11.0379Y-5.8635
X5.1759Y-1.7477
X5.1759Y-1.8477
X5.1759Y-1.9477
X5.1759Y-2.0477
X5.1759Y-2.1477
X5.1759Y-2.2477
X5.1759Y-2.3477
X5.1759Y-2.4477
X5.1759Y-2.5477
X5.1759Y-2.6477
X5.1759Y-2.7477
X5.1759Y-2.8477
X5.1759Y-2.9477
X5.1759Y-3.0477
X5.1759Y-3.1477
X5.1759Y-3.2477
X5.1759Y-3.3477
X5.1759Y-3.4477
X5.1759Y-3.5477
X5.1759Y-3.6477
X5.1759Y-3.7477
X5.1759Y-3.8477
X5.1759Y-3.9477
X5.1759Y-4.0477
X5.1759Y-4.1477
X5.1759Y-4.2477
X5.1759Y-4.3477
X5.1759Y-4.4477
X5.1759Y-4.5477
X5.1759Y-4.6477
X5.1759Y-4.7477
X5.1759Y-4.8477
X5.2759Y-1.7477
X5.2759Y-1.8477
X5.2759Y-1.9477
X5.2759Y-2.0477
X5.2759Y-2.1477
X5.2759Y-2.2477
X5.2759Y-2.3477
X5.2759Y-2.4477
X5.2759Y-2.5477
X5.2759Y-2.6477
X5.2759Y-2.7477
X5.2759Y-2.8477
X5.2759Y-2.9477
X5.2759Y-3.0477
X5.2759Y-3.1477
X5.2759Y-3.2477
X5.2759Y-3.3477
X5.2759Y-3.4477
X5.2759Y-3.5477
X5.2759Y-3.6477
X5.2759Y-3.7477
X5.2759Y-3.8477
X5.2759Y-3.9477
X5.2759Y-4.0477
X5.2759Y-4.1477
X5.2759Y-4.2477
X5.2759Y-4.3477
X5.2759Y-4.4477
X5.2759Y-4.5477
X5.2759Y-4.6477
X5.2759Y-4.7477
X5.2759Y-4.8477
X10.9379Y-1.7477
X10.9379Y-1.8477
X10.9379Y-1.9477
X10.9379Y-2.0477
X10.9379Y-2.1477
X10.9379Y-2.2477
X10.9379Y-2.3477
X10.9379Y-2.4477
X10.9379Y-2.5477
X10.9379Y-2.6477
X10.9379Y-2.7477
X10.9379Y-2.8477
X10.9379Y-2.9477
X10.9379Y-3.0477
X10.9379Y-3.1477
X10.9379Y-3.2477
X10.9379Y-3.3477
X10.9379Y-3.4477
X10.9379Y-3.5477
X10.9379Y-3.6477
X10.9379Y-3.7477
X10.9379Y-3.8477
X10.9379Y-3.9477
X10.9379Y-4.0477
X10.9379Y-4.1477
X10.9379Y-4.2477
X10.9379Y-4.3477
X10.9379Y-4.4477
X10.9379Y-4.5477
X10.9379Y-4.6477
X10.9379Y-4.7477
X10.9379Y-4.8477
X11.0379Y-1.7477
X11.0379Y-1.8477
X11.0379Y-1.9477
X11.0379Y-2.0477
X11.0379Y-2.1477
X11.0379Y-2.2477
X11.0379Y-2.3477
X11.0379Y-2.4477
X11.0379Y-2.5477
X11.0379Y-2.6477
X11.0379Y-2.7477
X11.0379Y-2.8477
X11.0379Y-2.9477
X11.0379Y-3.0477
X11.0379Y-3.1477
X11.0379Y-3.2477
X11.0379Y-3.3477
X11.0379Y-3.4477
X11.0379Y-3.5477
X11.0379Y-3.6477
X11.0379Y-3.7477
X11.0379Y-3.8477
X11.0379Y-3.9477
X11.0379Y-4.0477
X11.0379Y-4.1477
X11.0379Y-4.2477
X11.0379Y-4.3477
X11.0379Y-4.4477
X11.0379Y-4.5477
X11.0379Y-4.6477
X11.0379Y-4.7477
X11.0379Y-4.8477
X8.6294Y-5.1635
X8.6294Y-5.2635
X8.6294Y-5.3635
X8.6294Y-5.4635
X8.6294Y-5.5635
X8.6294Y-5.6635
X8.6294Y-5.7635
X8.6294Y-5.8635
X8.7294Y-5.1635
X8.7294Y-5.2635
X8.7294Y-5.3635
X8.7294Y-5.4635
X8.7294Y-5.5635
X8.7294Y-5.6635
X8.7294Y-5.7635
X8.7294Y-5.8635
X6.3294Y-1.7477
X6.3294Y-1.8477
X6.3294Y-1.9477
X6.3294Y-2.0477
X6.3294Y-2.1477
X6.3294Y-2.2477
X6.3294Y-2.3477
X6.3294Y-2.4477
X6.3294Y-2.5477
X6.3294Y-2.6477
X6.3294Y-2.7477
X6.3294Y-2.8477
X6.3294Y-2.9477
X6.3294Y-3.0477
X6.3294Y-3.1477
X6.3294Y-3.2477
X6.3294Y-3.3477
X6.3294Y-3.4477
X6.3294Y-3.5477
X6.3294Y-3.6477
X6.3294Y-3.7477
X6.3294Y-3.8477
X6.3294Y-3.9477
X6.3294Y-4.0477
X6.3294Y-4.1477
X6.3294Y-4.2477
X6.3294Y-4.3477
X6.3294Y-4.4477
X6.3294Y-4.5477
X6.3294Y-4.6477
X6.3294Y-4.7477
X6.3294Y-4.8477
X6.4294Y-1.7477
X6.4294Y-1.8477
X6.4294Y-1.9477
X6.4294Y-2.0477
X6.4294Y-2.1477
X6.4294Y-2.2477
X6.4294Y-2.3477
X6.4294Y-2.4477
X6.4294Y-2.5477
X6.4294Y-2.6477
X6.4294Y-2.7477
X6.4294Y-2.8477
X6.4294Y-2.9477
X6.4294Y-3.0477
X6.4294Y-3.1477
X6.4294Y-3.2477
X6.4294Y-3.3477
X6.4294Y-3.4477
X6.4294Y-3.5477
X6.4294Y-3.6477
X6.4294Y-3.7477
X6.4294Y-3.8477
X6.4294Y-3.9477
X6.4294Y-4.0477
X6.4294Y-4.1477
X6.4294Y-4.2477
X6.4294Y-4.3477
X6.4294Y-4.4477
X6.4294Y-4.5477
X6.4294Y-4.6477
X6.4294Y-4.7477
X6.4294Y-4.8477
X7.4794Y-1.7477
X7.4794Y-1.8477
X7.4794Y-1.9477
X7.4794Y-2.0477
X7.4794Y-2.1477
X7.4794Y-2.2477
X7.4794Y-2.3477
X7.4794Y-2.4477
X7.4794Y-2.5477
X7.4794Y-2.6477
X7.4794Y-2.7477
X7.4794Y-2.8477
X7.4794Y-2.9477
X7.4794Y-3.0477
X7.4794Y-3.1477
X7.4794Y-3.2477
X7.4794Y-3.3477
X7.4794Y-3.4477
X7.4794Y-3.5477
X7.4794Y-3.6477
X7.4794Y-3.7477
X7.4794Y-3.8477
X7.4794Y-3.9477
X7.4794Y-4.0477
X7.4794Y-4.1477
X7.4794Y-4.2477
X7.4794Y-4.3477
X7.4794Y-4.4477
X7.4794Y-4.5477
X7.4794Y-4.6477
X7.4794Y-4.7477
X7.4794Y-4.8477
X7.5794Y-1.7477
X7.5794Y-1.8477
X7.5794Y-1.9477
X7.5794Y-2.0477
X7.5794Y-2.1477
X7.5794Y-2.2477
X7.5794Y-2.3477
X7.5794Y-2.4477
X7.5794Y-2.5477
X7.5794Y-2.6477
X7.5794Y-2.7477
X7.5794Y-2.8477
X7.5794Y-2.9477
X7.5794Y-3.0477
X7.5794Y-3.1477
X7.5794Y-3.2477
X7.5794Y-3.3477
X7.5794Y-3.4477
X7.5794Y-3.5477
X7.5794Y-3.6477
X7.5794Y-3.7477
X7.5794Y-3.8477
X7.5794Y-3.9477
X7.5794Y-4.0477
X7.5794Y-4.1477
X7.5794Y-4.2477
X7.5794Y-4.3477
X7.5794Y-4.4477
X7.5794Y-4.5477
X7.5794Y-4.6477
X7.5794Y-4.7477
X7.5794Y-4.8477
X8.6294Y-1.7477
X8.6294Y-1.8477
X8.6294Y-1.9477
X8.6294Y-2.0477
X8.6294Y-2.1477
X8.6294Y-2.2477
X8.6294Y-2.3477
X8.6294Y-2.4477
X8.6294Y-2.5477
X8.6294Y-2.6477
X8.6294Y-2.7477
X8.6294Y-2.8477
X8.6294Y-2.9477
X8.6294Y-3.0477
X8.6294Y-3.1477
X8.6294Y-3.2477
X8.6294Y-3.3477
X8.6294Y-3.4477
X8.6294Y-3.5477
X8.6294Y-3.6477
X8.6294Y-3.7477
X8.6294Y-3.8477
X8.6294Y-3.9477
X8.6294Y-4.0477
X8.6294Y-4.1477
X8.6294Y-4.2477
X8.6294Y-4.3477
X8.6294Y-4.4477
X8.6294Y-4.5477
X8.6294Y-4.6477
X8.6294Y-4.7477
X8.6294Y-4.8477
X8.7294Y-1.7477
X8.7294Y-1.8477
X8.7294Y-1.9477
X8.7294Y-2.0477
X8.7294Y-2.1477
X8.7294Y-2.2477
X8.7294Y-2.3477
X8.7294Y-2.4477
X8.7294Y-2.5477
X8.7294Y-2.6477
X8.7294Y-2.7477
X8.7294Y-2.8477
X8.7294Y-2.9477
X8.7294Y-3.0477
X8.7294Y-3.1477
X8.7294Y-3.2477
X8.7294Y-3.3477
X8.7294Y-3.4477
X8.7294Y-3.5477
X8.7294Y-3.6477
X8.7294Y-3.7477
X8.7294Y-3.8477
X8.7294Y-3.9477
X8.7294Y-4.0477
X8.7294Y-4.1477
X8.7294Y-4.2477
X8.7294Y-4.3477
X8.7294Y-4.4477
X8.7294Y-4.5477
X8.7294Y-4.6477
X8.7294Y-4.7477
X8.7294Y-4.8477
X2.8688Y-1.7477
X2.8688Y-1.8477
X2.8688Y-1.9477
X2.8688Y-2.0477
X2.8688Y-2.1477
X2.8688Y-2.2477
X2.8688Y-2.3477
X2.8688Y-2.4477
X2.8688Y-2.5477
X2.8688Y-2.6477
X2.8688Y-2.7477
X2.8688Y-2.8477
X2.8688Y-2.9477
X2.8688Y-3.0477
X2.8688Y-3.1477
X2.8688Y-3.2477
X2.8688Y-3.3477
X2.8688Y-3.4477
X2.8688Y-3.5477
X2.8688Y-3.6477
X2.8688Y-3.7477
X2.8688Y-3.8477
X2.8688Y-3.9477
X2.8688Y-4.0477
X2.8688Y-4.1477
X2.8688Y-4.2477
X2.8688Y-4.3477
X2.8688Y-4.4477
X2.8688Y-4.5477
X2.8688Y-4.6477
X2.8688Y-4.7477
X2.8688Y-4.8477
X2.9688Y-1.7477
X2.9688Y-1.8477
X2.9688Y-1.9477
X2.9688Y-2.0477
X2.9688Y-2.1477
X2.9688Y-2.2477
X2.9688Y-2.3477
X2.9688Y-2.4477
X2.9688Y-2.5477
X2.9688Y-2.6477
X2.9688Y-2.7477
X2.9688Y-2.8477
X2.9688Y-2.9477
X2.9688Y-3.0477
X2.9688Y-3.1477
X2.9688Y-3.2477
X2.9688Y-3.3477
X2.9688Y-3.4477
X2.9688Y-3.5477
X2.9688Y-3.6477
X2.9688Y-3.7477
X2.9688Y-3.8477
X2.9688Y-3.9477
X2.9688Y-4.0477
X2.9688Y-4.1477
X2.9688Y-4.2477
X2.9688Y-4.3477
X2.9688Y-4.4477
X2.9688Y-4.5477
X2.9688Y-4.6477
X2.9688Y-4.7477
X2.9688Y-4.8477
X4.0223Y-5.1635
X4.0223Y-5.2635
X4.0223Y-5.3635
X4.0223Y-5.4635
X4.0223Y-5.5635
X4.0223Y-5.6635
X4.0223Y-5.7635
X4.0223Y-5.8635
X4.1223Y-5.1635
X4.1223Y-5.2635
X4.1223Y-5.3635
X4.1223Y-5.4635
X4.1223Y-5.5635
X4.1223Y-5.6635
X4.1223Y-5.7635
X4.1223Y-5.8635
T9
X0.5821Y-2.4941
X0.5821Y-2.5941
T10
X0.8709Y-3.2756
X0.9709Y-3.2756
X1.0709Y-3.2756
T1
G00X0.4974Y-2.7841
M15
G01X0.5368Y-2.7841
M16
G05
G00X0.4974Y-3.0656
M15
G01X0.5368Y-3.0656
M16
G05
T4
G00X0.7671Y-2.074
M15
G01X0.7671Y-2.1606
M16
G05
G00X0.8341Y-2.3063
M15
G01X0.9207Y-2.3063
M16
G05
G00X0.9955Y-2.0661
M15
G01X0.9955Y-2.1685
M16
G05
T6
G00X1.0195Y-5.6232
M15
G01X0.9722Y-5.6232
M16
G05
G00X1.0195Y-5.8094
M15
G01X0.9722Y-5.8094
M16
G05
G00X1.2085Y-5.6232
M15
G01X1.1612Y-5.6232
M16
G05
G00X1.2085Y-5.8094
M15
G01X1.1612Y-5.8094
M16
G05
T0
M30
