M48
; DRILL file {KiCad (5.1.5-0-10_14)} date Sunday, 25 July 2021 at 00:48:51
; FORMAT={-:-/ absolute / inch / decimal}
; #@! TF.CreationDate,2021-07-25T00:48:51+01:00
; #@! TF.GenerationSoftware,Kicad,Pcbnew,(5.1.5-0-10_14)
; #@! TF.FileFunction,NonPlated,1,4,NPTH
FMAT,2
INCH
T1C0.0433
T2C0.1260
T3C0.1378
%
G90
G05
T1
X0.4821Y-2.4941
X0.4821Y-2.5941
T2
X4.6461Y-1.6409
X3.4941Y-5.9201
X4.6461Y-5.9201
X3.4941Y-1.6409
X6.9503Y-1.6409
X2.342Y-1.6409
X6.9503Y-5.9201
X2.342Y-5.9201
X5.7982Y-5.9201
X5.7982Y-1.6409
X0.4886Y-5.9201
X8.1023Y-5.9201
X9.2544Y-5.9201
X11.2567Y-5.9201
X0.4886Y-1.6409
X8.1023Y-1.6409
X9.2544Y-1.6409
X11.2567Y-1.6409
T3
X0.9709Y-3.8976
T0
M30
