G04 #@! TF.GenerationSoftware,KiCad,Pcbnew,(5.1.5-0-10_14)*
G04 #@! TF.CreationDate,2021-07-25T00:48:49+01:00*
G04 #@! TF.ProjectId,roscbus04,726f7363-6275-4733-9034-2e6b69636164,rev?*
G04 #@! TF.SameCoordinates,Original*
G04 #@! TF.FileFunction,Copper,L2,Inr*
G04 #@! TF.FilePolarity,Positive*
%FSLAX46Y46*%
G04 Gerber Fmt 4.6, Leading zero omitted, Abs format (unit mm)*
G04 Created by KiCad (PCBNEW (5.1.5-0-10_14)) date 2021-07-25 00:48:49*
%MOMM*%
%LPD*%
G04 APERTURE LIST*
%ADD10C,1.600000*%
%ADD11C,1.524000*%
%ADD12O,1.905000X2.000000*%
%ADD13R,1.905000X2.000000*%
%ADD14C,0.100000*%
%ADD15C,1.320800*%
%ADD16C,1.800000*%
%ADD17R,1.800000X1.800000*%
%ADD18O,1.700000X1.700000*%
%ADD19R,1.700000X1.700000*%
%ADD20C,2.200000*%
%ADD21R,2.200000X2.200000*%
%ADD22R,1.800000X4.400000*%
%ADD23O,1.800000X4.000000*%
%ADD24O,4.000000X1.800000*%
%ADD25O,1.850000X0.850000*%
%ADD26C,0.840000*%
%ADD27R,0.840000X0.840000*%
%ADD28C,1.600200*%
%ADD29C,0.800000*%
%ADD30C,0.160000*%
%ADD31C,0.450000*%
%ADD32C,1.000000*%
G04 APERTURE END LIST*
D10*
X67305000Y-41915000D03*
X67305000Y-44415000D03*
X96207500Y-41915000D03*
X96207500Y-44415000D03*
X125110000Y-41915000D03*
X125110000Y-44415000D03*
X154012500Y-41915000D03*
X154012500Y-44415000D03*
D11*
X43567000Y-131152000D03*
X46107000Y-131152000D03*
X43567000Y-133692000D03*
X46107000Y-133692000D03*
X43567000Y-136232000D03*
X46107000Y-136232000D03*
X43567000Y-138772000D03*
X46107000Y-138772000D03*
X43567000Y-141312000D03*
X46107000Y-141312000D03*
X43567000Y-143852000D03*
X46107000Y-143852000D03*
X43567000Y-146392000D03*
X46107000Y-146392000D03*
X43567000Y-148932000D03*
X46107000Y-148932000D03*
X46107000Y-123132000D03*
X43567000Y-123132000D03*
X46107000Y-120592000D03*
X43567000Y-120592000D03*
X43567000Y-44392000D03*
X46107000Y-44392000D03*
X43567000Y-46932000D03*
X46107000Y-46932000D03*
X43567000Y-49472000D03*
X46107000Y-49472000D03*
X43567000Y-52012000D03*
X46107000Y-52012000D03*
X43567000Y-54552000D03*
X46107000Y-54552000D03*
X43567000Y-57092000D03*
X46107000Y-57092000D03*
X43567000Y-59632000D03*
X46107000Y-59632000D03*
X43567000Y-62172000D03*
X46107000Y-62172000D03*
X43567000Y-64712000D03*
X46107000Y-64712000D03*
X43567000Y-67252000D03*
X46107000Y-67252000D03*
X43567000Y-69792000D03*
X46107000Y-69792000D03*
X43567000Y-72332000D03*
X46107000Y-72332000D03*
X43567000Y-74872000D03*
X46107000Y-74872000D03*
X43567000Y-77412000D03*
X46107000Y-77412000D03*
X43567000Y-79952000D03*
X46107000Y-79952000D03*
X43567000Y-82492000D03*
X46107000Y-82492000D03*
X43567000Y-85032000D03*
X46107000Y-85032000D03*
X43567000Y-87572000D03*
X46107000Y-87572000D03*
X43567000Y-90112000D03*
X46107000Y-90112000D03*
X43567000Y-92652000D03*
X46107000Y-92652000D03*
X43567000Y-95192000D03*
X46107000Y-95192000D03*
X43567000Y-97732000D03*
X46107000Y-97732000D03*
X43567000Y-100272000D03*
X46107000Y-100272000D03*
X43567000Y-102812000D03*
X46107000Y-102812000D03*
X43567000Y-105352000D03*
X46107000Y-105352000D03*
X43567000Y-107892000D03*
X46107000Y-107892000D03*
X43567000Y-110432000D03*
X46107000Y-110432000D03*
X43567000Y-112972000D03*
X46107000Y-112972000D03*
X43567000Y-115512000D03*
X46107000Y-115512000D03*
X43567000Y-118052000D03*
X46107000Y-118052000D03*
X72867000Y-131152000D03*
X75407000Y-131152000D03*
X72867000Y-133692000D03*
X75407000Y-133692000D03*
X72867000Y-136232000D03*
X75407000Y-136232000D03*
X72867000Y-138772000D03*
X75407000Y-138772000D03*
X72867000Y-141312000D03*
X75407000Y-141312000D03*
X72867000Y-143852000D03*
X75407000Y-143852000D03*
X72867000Y-146392000D03*
X75407000Y-146392000D03*
X72867000Y-148932000D03*
X75407000Y-148932000D03*
X75407000Y-123132000D03*
X72867000Y-123132000D03*
X75407000Y-120592000D03*
X72867000Y-120592000D03*
X72867000Y-44392000D03*
X75407000Y-44392000D03*
X72867000Y-46932000D03*
X75407000Y-46932000D03*
X72867000Y-49472000D03*
X75407000Y-49472000D03*
X72867000Y-52012000D03*
X75407000Y-52012000D03*
X72867000Y-54552000D03*
X75407000Y-54552000D03*
X72867000Y-57092000D03*
X75407000Y-57092000D03*
X72867000Y-59632000D03*
X75407000Y-59632000D03*
X72867000Y-62172000D03*
X75407000Y-62172000D03*
X72867000Y-64712000D03*
X75407000Y-64712000D03*
X72867000Y-67252000D03*
X75407000Y-67252000D03*
X72867000Y-69792000D03*
X75407000Y-69792000D03*
X72867000Y-72332000D03*
X75407000Y-72332000D03*
X72867000Y-74872000D03*
X75407000Y-74872000D03*
X72867000Y-77412000D03*
X75407000Y-77412000D03*
X72867000Y-79952000D03*
X75407000Y-79952000D03*
X72867000Y-82492000D03*
X75407000Y-82492000D03*
X72867000Y-85032000D03*
X75407000Y-85032000D03*
X72867000Y-87572000D03*
X75407000Y-87572000D03*
X72867000Y-90112000D03*
X75407000Y-90112000D03*
X72867000Y-92652000D03*
X75407000Y-92652000D03*
X72867000Y-95192000D03*
X75407000Y-95192000D03*
X72867000Y-97732000D03*
X75407000Y-97732000D03*
X72867000Y-100272000D03*
X75407000Y-100272000D03*
X72867000Y-102812000D03*
X75407000Y-102812000D03*
X72867000Y-105352000D03*
X75407000Y-105352000D03*
X72867000Y-107892000D03*
X75407000Y-107892000D03*
X72867000Y-110432000D03*
X75407000Y-110432000D03*
X72867000Y-112972000D03*
X75407000Y-112972000D03*
X72867000Y-115512000D03*
X75407000Y-115512000D03*
X72867000Y-118052000D03*
X75407000Y-118052000D03*
X102167000Y-131152000D03*
X104707000Y-131152000D03*
X102167000Y-133692000D03*
X104707000Y-133692000D03*
X102167000Y-136232000D03*
X104707000Y-136232000D03*
X102167000Y-138772000D03*
X104707000Y-138772000D03*
X102167000Y-141312000D03*
X104707000Y-141312000D03*
X102167000Y-143852000D03*
X104707000Y-143852000D03*
X102167000Y-146392000D03*
X104707000Y-146392000D03*
X102167000Y-148932000D03*
X104707000Y-148932000D03*
X104707000Y-123132000D03*
X102167000Y-123132000D03*
X104707000Y-120592000D03*
X102167000Y-120592000D03*
X102167000Y-44392000D03*
X104707000Y-44392000D03*
X102167000Y-46932000D03*
X104707000Y-46932000D03*
X102167000Y-49472000D03*
X104707000Y-49472000D03*
X102167000Y-52012000D03*
X104707000Y-52012000D03*
X102167000Y-54552000D03*
X104707000Y-54552000D03*
X102167000Y-57092000D03*
X104707000Y-57092000D03*
X102167000Y-59632000D03*
X104707000Y-59632000D03*
X102167000Y-62172000D03*
X104707000Y-62172000D03*
X102167000Y-64712000D03*
X104707000Y-64712000D03*
X102167000Y-67252000D03*
X104707000Y-67252000D03*
X102167000Y-69792000D03*
X104707000Y-69792000D03*
X102167000Y-72332000D03*
X104707000Y-72332000D03*
X102167000Y-74872000D03*
X104707000Y-74872000D03*
X102167000Y-77412000D03*
X104707000Y-77412000D03*
X102167000Y-79952000D03*
X104707000Y-79952000D03*
X102167000Y-82492000D03*
X104707000Y-82492000D03*
X102167000Y-85032000D03*
X104707000Y-85032000D03*
X102167000Y-87572000D03*
X104707000Y-87572000D03*
X102167000Y-90112000D03*
X104707000Y-90112000D03*
X102167000Y-92652000D03*
X104707000Y-92652000D03*
X102167000Y-95192000D03*
X104707000Y-95192000D03*
X102167000Y-97732000D03*
X104707000Y-97732000D03*
X102167000Y-100272000D03*
X104707000Y-100272000D03*
X102167000Y-102812000D03*
X104707000Y-102812000D03*
X102167000Y-105352000D03*
X104707000Y-105352000D03*
X102167000Y-107892000D03*
X104707000Y-107892000D03*
X102167000Y-110432000D03*
X104707000Y-110432000D03*
X102167000Y-112972000D03*
X104707000Y-112972000D03*
X102167000Y-115512000D03*
X104707000Y-115512000D03*
X102167000Y-118052000D03*
X104707000Y-118052000D03*
X131467000Y-131152000D03*
X134007000Y-131152000D03*
X131467000Y-133692000D03*
X134007000Y-133692000D03*
X131467000Y-136232000D03*
X134007000Y-136232000D03*
X131467000Y-138772000D03*
X134007000Y-138772000D03*
X131467000Y-141312000D03*
X134007000Y-141312000D03*
X131467000Y-143852000D03*
X134007000Y-143852000D03*
X131467000Y-146392000D03*
X134007000Y-146392000D03*
X131467000Y-148932000D03*
X134007000Y-148932000D03*
X134007000Y-123132000D03*
X131467000Y-123132000D03*
X134007000Y-120592000D03*
X131467000Y-120592000D03*
X131467000Y-44392000D03*
X134007000Y-44392000D03*
X131467000Y-46932000D03*
X134007000Y-46932000D03*
X131467000Y-49472000D03*
X134007000Y-49472000D03*
X131467000Y-52012000D03*
X134007000Y-52012000D03*
X131467000Y-54552000D03*
X134007000Y-54552000D03*
X131467000Y-57092000D03*
X134007000Y-57092000D03*
X131467000Y-59632000D03*
X134007000Y-59632000D03*
X131467000Y-62172000D03*
X134007000Y-62172000D03*
X131467000Y-64712000D03*
X134007000Y-64712000D03*
X131467000Y-67252000D03*
X134007000Y-67252000D03*
X131467000Y-69792000D03*
X134007000Y-69792000D03*
X131467000Y-72332000D03*
X134007000Y-72332000D03*
X131467000Y-74872000D03*
X134007000Y-74872000D03*
X131467000Y-77412000D03*
X134007000Y-77412000D03*
X131467000Y-79952000D03*
X134007000Y-79952000D03*
X131467000Y-82492000D03*
X134007000Y-82492000D03*
X131467000Y-85032000D03*
X134007000Y-85032000D03*
X131467000Y-87572000D03*
X134007000Y-87572000D03*
X131467000Y-90112000D03*
X134007000Y-90112000D03*
X131467000Y-92652000D03*
X134007000Y-92652000D03*
X131467000Y-95192000D03*
X134007000Y-95192000D03*
X131467000Y-97732000D03*
X134007000Y-97732000D03*
X131467000Y-100272000D03*
X134007000Y-100272000D03*
X131467000Y-102812000D03*
X134007000Y-102812000D03*
X131467000Y-105352000D03*
X134007000Y-105352000D03*
X131467000Y-107892000D03*
X134007000Y-107892000D03*
X131467000Y-110432000D03*
X134007000Y-110432000D03*
X131467000Y-112972000D03*
X134007000Y-112972000D03*
X131467000Y-115512000D03*
X134007000Y-115512000D03*
X131467000Y-118052000D03*
X134007000Y-118052000D03*
X250937000Y-123132000D03*
X248397000Y-123132000D03*
X250937000Y-120592000D03*
X248397000Y-120592000D03*
X248397000Y-44392000D03*
X250937000Y-44392000D03*
X248397000Y-46932000D03*
X250937000Y-46932000D03*
X248397000Y-49472000D03*
X250937000Y-49472000D03*
X248397000Y-52012000D03*
X250937000Y-52012000D03*
X248397000Y-54552000D03*
X250937000Y-54552000D03*
X248397000Y-57092000D03*
X250937000Y-57092000D03*
X248397000Y-59632000D03*
X250937000Y-59632000D03*
X248397000Y-62172000D03*
X250937000Y-62172000D03*
X248397000Y-64712000D03*
X250937000Y-64712000D03*
X248397000Y-67252000D03*
X250937000Y-67252000D03*
X248397000Y-69792000D03*
X250937000Y-69792000D03*
X248397000Y-72332000D03*
X250937000Y-72332000D03*
X248397000Y-74872000D03*
X250937000Y-74872000D03*
X248397000Y-77412000D03*
X250937000Y-77412000D03*
X248397000Y-79952000D03*
X250937000Y-79952000D03*
X248397000Y-82492000D03*
X250937000Y-82492000D03*
X248397000Y-85032000D03*
X250937000Y-85032000D03*
X248397000Y-87572000D03*
X250937000Y-87572000D03*
X248397000Y-90112000D03*
X250937000Y-90112000D03*
X248397000Y-92652000D03*
X250937000Y-92652000D03*
X248397000Y-95192000D03*
X250937000Y-95192000D03*
X248397000Y-97732000D03*
X250937000Y-97732000D03*
X248397000Y-100272000D03*
X250937000Y-100272000D03*
X248397000Y-102812000D03*
X250937000Y-102812000D03*
X248397000Y-105352000D03*
X250937000Y-105352000D03*
X248397000Y-107892000D03*
X250937000Y-107892000D03*
X248397000Y-110432000D03*
X250937000Y-110432000D03*
X248397000Y-112972000D03*
X250937000Y-112972000D03*
X248397000Y-115512000D03*
X250937000Y-115512000D03*
X248397000Y-118052000D03*
X250937000Y-118052000D03*
X277823000Y-131152000D03*
X280363000Y-131152000D03*
X277823000Y-133692000D03*
X280363000Y-133692000D03*
X277823000Y-136232000D03*
X280363000Y-136232000D03*
X277823000Y-138772000D03*
X280363000Y-138772000D03*
X277823000Y-141312000D03*
X280363000Y-141312000D03*
X277823000Y-143852000D03*
X280363000Y-143852000D03*
X277823000Y-146392000D03*
X280363000Y-146392000D03*
X277823000Y-148932000D03*
X280363000Y-148932000D03*
X280363000Y-123132000D03*
X277823000Y-123132000D03*
X280363000Y-120592000D03*
X277823000Y-120592000D03*
X277823000Y-44392000D03*
X280363000Y-44392000D03*
X277823000Y-46932000D03*
X280363000Y-46932000D03*
X277823000Y-49472000D03*
X280363000Y-49472000D03*
X277823000Y-52012000D03*
X280363000Y-52012000D03*
X277823000Y-54552000D03*
X280363000Y-54552000D03*
X277823000Y-57092000D03*
X280363000Y-57092000D03*
X277823000Y-59632000D03*
X280363000Y-59632000D03*
X277823000Y-62172000D03*
X280363000Y-62172000D03*
X277823000Y-64712000D03*
X280363000Y-64712000D03*
X277823000Y-67252000D03*
X280363000Y-67252000D03*
X277823000Y-69792000D03*
X280363000Y-69792000D03*
X277823000Y-72332000D03*
X280363000Y-72332000D03*
X277823000Y-74872000D03*
X280363000Y-74872000D03*
X277823000Y-77412000D03*
X280363000Y-77412000D03*
X277823000Y-79952000D03*
X280363000Y-79952000D03*
X277823000Y-82492000D03*
X280363000Y-82492000D03*
X277823000Y-85032000D03*
X280363000Y-85032000D03*
X277823000Y-87572000D03*
X280363000Y-87572000D03*
X277823000Y-90112000D03*
X280363000Y-90112000D03*
X277823000Y-92652000D03*
X280363000Y-92652000D03*
X277823000Y-95192000D03*
X280363000Y-95192000D03*
X277823000Y-97732000D03*
X280363000Y-97732000D03*
X277823000Y-100272000D03*
X280363000Y-100272000D03*
X277823000Y-102812000D03*
X280363000Y-102812000D03*
X277823000Y-105352000D03*
X280363000Y-105352000D03*
X277823000Y-107892000D03*
X280363000Y-107892000D03*
X277823000Y-110432000D03*
X280363000Y-110432000D03*
X277823000Y-112972000D03*
X280363000Y-112972000D03*
X277823000Y-115512000D03*
X280363000Y-115512000D03*
X277823000Y-118052000D03*
X280363000Y-118052000D03*
D12*
X22120000Y-83200000D03*
X24660000Y-83200000D03*
D13*
X27200000Y-83200000D03*
G04 #@! TA.AperFunction,ViaPad*
D14*
G36*
X31644009Y-141832408D02*
G01*
X31692545Y-141839607D01*
X31740142Y-141851530D01*
X31786342Y-141868060D01*
X31830698Y-141889039D01*
X31872785Y-141914265D01*
X31912197Y-141943495D01*
X31948553Y-141976447D01*
X31981505Y-142012803D01*
X32010735Y-142052215D01*
X32035961Y-142094302D01*
X32056940Y-142138658D01*
X32073470Y-142184858D01*
X32085393Y-142232455D01*
X32092592Y-142280991D01*
X32095000Y-142330000D01*
X32095000Y-143330000D01*
X32092592Y-143379009D01*
X32085393Y-143427545D01*
X32073470Y-143475142D01*
X32056940Y-143521342D01*
X32035961Y-143565698D01*
X32010735Y-143607785D01*
X31981505Y-143647197D01*
X31948553Y-143683553D01*
X31912197Y-143716505D01*
X31872785Y-143745735D01*
X31830698Y-143770961D01*
X31786342Y-143791940D01*
X31740142Y-143808470D01*
X31692545Y-143820393D01*
X31644009Y-143827592D01*
X31595000Y-143830000D01*
X28595000Y-143830000D01*
X28545991Y-143827592D01*
X28497455Y-143820393D01*
X28449858Y-143808470D01*
X28403658Y-143791940D01*
X28359302Y-143770961D01*
X28317215Y-143745735D01*
X28277803Y-143716505D01*
X28241447Y-143683553D01*
X28208495Y-143647197D01*
X28179265Y-143607785D01*
X28154039Y-143565698D01*
X28133060Y-143521342D01*
X28116530Y-143475142D01*
X28104607Y-143427545D01*
X28097408Y-143379009D01*
X28095000Y-143330000D01*
X28095000Y-142330000D01*
X28097408Y-142280991D01*
X28104607Y-142232455D01*
X28116530Y-142184858D01*
X28133060Y-142138658D01*
X28154039Y-142094302D01*
X28179265Y-142052215D01*
X28208495Y-142012803D01*
X28241447Y-141976447D01*
X28277803Y-141943495D01*
X28317215Y-141914265D01*
X28359302Y-141889039D01*
X28403658Y-141868060D01*
X28449858Y-141851530D01*
X28497455Y-141839607D01*
X28545991Y-141832408D01*
X28595000Y-141830000D01*
X31595000Y-141830000D01*
X31644009Y-141832408D01*
G37*
G04 #@! TD.AperFunction*
G04 #@! TA.AperFunction,ViaPad*
G36*
X26844009Y-141832408D02*
G01*
X26892545Y-141839607D01*
X26940142Y-141851530D01*
X26986342Y-141868060D01*
X27030698Y-141889039D01*
X27072785Y-141914265D01*
X27112197Y-141943495D01*
X27148553Y-141976447D01*
X27181505Y-142012803D01*
X27210735Y-142052215D01*
X27235961Y-142094302D01*
X27256940Y-142138658D01*
X27273470Y-142184858D01*
X27285393Y-142232455D01*
X27292592Y-142280991D01*
X27295000Y-142330000D01*
X27295000Y-143330000D01*
X27292592Y-143379009D01*
X27285393Y-143427545D01*
X27273470Y-143475142D01*
X27256940Y-143521342D01*
X27235961Y-143565698D01*
X27210735Y-143607785D01*
X27181505Y-143647197D01*
X27148553Y-143683553D01*
X27112197Y-143716505D01*
X27072785Y-143745735D01*
X27030698Y-143770961D01*
X26986342Y-143791940D01*
X26940142Y-143808470D01*
X26892545Y-143820393D01*
X26844009Y-143827592D01*
X26795000Y-143830000D01*
X23795000Y-143830000D01*
X23745991Y-143827592D01*
X23697455Y-143820393D01*
X23649858Y-143808470D01*
X23603658Y-143791940D01*
X23559302Y-143770961D01*
X23517215Y-143745735D01*
X23477803Y-143716505D01*
X23441447Y-143683553D01*
X23408495Y-143647197D01*
X23379265Y-143607785D01*
X23354039Y-143565698D01*
X23333060Y-143521342D01*
X23316530Y-143475142D01*
X23304607Y-143427545D01*
X23297408Y-143379009D01*
X23295000Y-143330000D01*
X23295000Y-142330000D01*
X23297408Y-142280991D01*
X23304607Y-142232455D01*
X23316530Y-142184858D01*
X23333060Y-142138658D01*
X23354039Y-142094302D01*
X23379265Y-142052215D01*
X23408495Y-142012803D01*
X23441447Y-141976447D01*
X23477803Y-141943495D01*
X23517215Y-141914265D01*
X23559302Y-141889039D01*
X23603658Y-141868060D01*
X23649858Y-141851530D01*
X23697455Y-141839607D01*
X23745991Y-141832408D01*
X23795000Y-141830000D01*
X26795000Y-141830000D01*
X26844009Y-141832408D01*
G37*
G04 #@! TD.AperFunction*
G04 #@! TA.AperFunction,ViaPad*
G36*
X26844009Y-146562408D02*
G01*
X26892545Y-146569607D01*
X26940142Y-146581530D01*
X26986342Y-146598060D01*
X27030698Y-146619039D01*
X27072785Y-146644265D01*
X27112197Y-146673495D01*
X27148553Y-146706447D01*
X27181505Y-146742803D01*
X27210735Y-146782215D01*
X27235961Y-146824302D01*
X27256940Y-146868658D01*
X27273470Y-146914858D01*
X27285393Y-146962455D01*
X27292592Y-147010991D01*
X27295000Y-147060000D01*
X27295000Y-148060000D01*
X27292592Y-148109009D01*
X27285393Y-148157545D01*
X27273470Y-148205142D01*
X27256940Y-148251342D01*
X27235961Y-148295698D01*
X27210735Y-148337785D01*
X27181505Y-148377197D01*
X27148553Y-148413553D01*
X27112197Y-148446505D01*
X27072785Y-148475735D01*
X27030698Y-148500961D01*
X26986342Y-148521940D01*
X26940142Y-148538470D01*
X26892545Y-148550393D01*
X26844009Y-148557592D01*
X26795000Y-148560000D01*
X23795000Y-148560000D01*
X23745991Y-148557592D01*
X23697455Y-148550393D01*
X23649858Y-148538470D01*
X23603658Y-148521940D01*
X23559302Y-148500961D01*
X23517215Y-148475735D01*
X23477803Y-148446505D01*
X23441447Y-148413553D01*
X23408495Y-148377197D01*
X23379265Y-148337785D01*
X23354039Y-148295698D01*
X23333060Y-148251342D01*
X23316530Y-148205142D01*
X23304607Y-148157545D01*
X23297408Y-148109009D01*
X23295000Y-148060000D01*
X23295000Y-147060000D01*
X23297408Y-147010991D01*
X23304607Y-146962455D01*
X23316530Y-146914858D01*
X23333060Y-146868658D01*
X23354039Y-146824302D01*
X23379265Y-146782215D01*
X23408495Y-146742803D01*
X23441447Y-146706447D01*
X23477803Y-146673495D01*
X23517215Y-146644265D01*
X23559302Y-146619039D01*
X23603658Y-146598060D01*
X23649858Y-146581530D01*
X23697455Y-146569607D01*
X23745991Y-146562408D01*
X23795000Y-146560000D01*
X26795000Y-146560000D01*
X26844009Y-146562408D01*
G37*
G04 #@! TD.AperFunction*
G04 #@! TA.AperFunction,ViaPad*
G36*
X31644009Y-146562408D02*
G01*
X31692545Y-146569607D01*
X31740142Y-146581530D01*
X31786342Y-146598060D01*
X31830698Y-146619039D01*
X31872785Y-146644265D01*
X31912197Y-146673495D01*
X31948553Y-146706447D01*
X31981505Y-146742803D01*
X32010735Y-146782215D01*
X32035961Y-146824302D01*
X32056940Y-146868658D01*
X32073470Y-146914858D01*
X32085393Y-146962455D01*
X32092592Y-147010991D01*
X32095000Y-147060000D01*
X32095000Y-148060000D01*
X32092592Y-148109009D01*
X32085393Y-148157545D01*
X32073470Y-148205142D01*
X32056940Y-148251342D01*
X32035961Y-148295698D01*
X32010735Y-148337785D01*
X31981505Y-148377197D01*
X31948553Y-148413553D01*
X31912197Y-148446505D01*
X31872785Y-148475735D01*
X31830698Y-148500961D01*
X31786342Y-148521940D01*
X31740142Y-148538470D01*
X31692545Y-148550393D01*
X31644009Y-148557592D01*
X31595000Y-148560000D01*
X28595000Y-148560000D01*
X28545991Y-148557592D01*
X28497455Y-148550393D01*
X28449858Y-148538470D01*
X28403658Y-148521940D01*
X28359302Y-148500961D01*
X28317215Y-148475735D01*
X28277803Y-148446505D01*
X28241447Y-148413553D01*
X28208495Y-148377197D01*
X28179265Y-148337785D01*
X28154039Y-148295698D01*
X28133060Y-148251342D01*
X28116530Y-148205142D01*
X28104607Y-148157545D01*
X28097408Y-148109009D01*
X28095000Y-148060000D01*
X28095000Y-147060000D01*
X28097408Y-147010991D01*
X28104607Y-146962455D01*
X28116530Y-146914858D01*
X28133060Y-146868658D01*
X28154039Y-146824302D01*
X28179265Y-146782215D01*
X28208495Y-146742803D01*
X28241447Y-146706447D01*
X28277803Y-146673495D01*
X28317215Y-146644265D01*
X28359302Y-146619039D01*
X28403658Y-146598060D01*
X28449858Y-146581530D01*
X28497455Y-146569607D01*
X28545991Y-146562408D01*
X28595000Y-146560000D01*
X31595000Y-146560000D01*
X31644009Y-146562408D01*
G37*
G04 #@! TD.AperFunction*
D15*
X29660000Y-43137000D03*
X29660000Y-53297000D03*
D16*
X23425000Y-43140000D03*
D17*
X20885000Y-43140000D03*
D18*
X25955000Y-111390000D03*
D19*
X23415000Y-111390000D03*
D18*
X23415000Y-113940000D03*
D19*
X25955000Y-113940000D03*
D18*
X23415000Y-116465000D03*
D19*
X25955000Y-116465000D03*
D18*
X12920000Y-90310000D03*
X12920000Y-87770000D03*
D19*
X12920000Y-85230000D03*
D20*
X14785000Y-65890000D03*
D21*
X14785000Y-63350000D03*
D22*
X25285000Y-53780000D03*
D23*
X19485000Y-53780000D03*
D24*
X22285000Y-58580000D03*
D25*
X13135000Y-70715000D03*
X13135000Y-77865000D03*
D26*
X12915000Y-72990000D03*
X13915000Y-73640000D03*
X12915000Y-74290000D03*
X13915000Y-74940000D03*
D27*
X12915000Y-75590000D03*
D10*
X25910000Y-77320000D03*
X23410000Y-77320000D03*
X29660000Y-58951000D03*
X29660000Y-56451000D03*
X269615000Y-42073000D03*
X269615000Y-44573000D03*
X240720000Y-41915000D03*
X240720000Y-44415000D03*
X211817500Y-41915000D03*
X211817500Y-44415000D03*
X182915000Y-41915000D03*
X182915000Y-44415000D03*
X25974000Y-107121000D03*
X23474000Y-107121000D03*
D28*
X28778000Y-65600000D03*
X25222000Y-65600000D03*
D11*
X248397000Y-131152000D03*
X250937000Y-131152000D03*
X248397000Y-133692000D03*
X250937000Y-133692000D03*
X248397000Y-136232000D03*
X250937000Y-136232000D03*
X248397000Y-138772000D03*
X250937000Y-138772000D03*
X248397000Y-141312000D03*
X250937000Y-141312000D03*
X248397000Y-143852000D03*
X250937000Y-143852000D03*
X248397000Y-146392000D03*
X250937000Y-146392000D03*
X248397000Y-148932000D03*
X250937000Y-148932000D03*
X219187000Y-131152000D03*
X221727000Y-131152000D03*
X219187000Y-133692000D03*
X221727000Y-133692000D03*
X219187000Y-136232000D03*
X221727000Y-136232000D03*
X219187000Y-138772000D03*
X221727000Y-138772000D03*
X219187000Y-141312000D03*
X221727000Y-141312000D03*
X219187000Y-143852000D03*
X221727000Y-143852000D03*
X219187000Y-146392000D03*
X221727000Y-146392000D03*
X219187000Y-148932000D03*
X221727000Y-148932000D03*
X221727000Y-123132000D03*
X219187000Y-123132000D03*
X221727000Y-120592000D03*
X219187000Y-120592000D03*
X219187000Y-44392000D03*
X221727000Y-44392000D03*
X219187000Y-46932000D03*
X221727000Y-46932000D03*
X219187000Y-49472000D03*
X221727000Y-49472000D03*
X219187000Y-52012000D03*
X221727000Y-52012000D03*
X219187000Y-54552000D03*
X221727000Y-54552000D03*
X219187000Y-57092000D03*
X221727000Y-57092000D03*
X219187000Y-59632000D03*
X221727000Y-59632000D03*
X219187000Y-62172000D03*
X221727000Y-62172000D03*
X219187000Y-64712000D03*
X221727000Y-64712000D03*
X219187000Y-67252000D03*
X221727000Y-67252000D03*
X219187000Y-69792000D03*
X221727000Y-69792000D03*
X219187000Y-72332000D03*
X221727000Y-72332000D03*
X219187000Y-74872000D03*
X221727000Y-74872000D03*
X219187000Y-77412000D03*
X221727000Y-77412000D03*
X219187000Y-79952000D03*
X221727000Y-79952000D03*
X219187000Y-82492000D03*
X221727000Y-82492000D03*
X219187000Y-85032000D03*
X221727000Y-85032000D03*
X219187000Y-87572000D03*
X221727000Y-87572000D03*
X219187000Y-90112000D03*
X221727000Y-90112000D03*
X219187000Y-92652000D03*
X221727000Y-92652000D03*
X219187000Y-95192000D03*
X221727000Y-95192000D03*
X219187000Y-97732000D03*
X221727000Y-97732000D03*
X219187000Y-100272000D03*
X221727000Y-100272000D03*
X219187000Y-102812000D03*
X221727000Y-102812000D03*
X219187000Y-105352000D03*
X221727000Y-105352000D03*
X219187000Y-107892000D03*
X221727000Y-107892000D03*
X219187000Y-110432000D03*
X221727000Y-110432000D03*
X219187000Y-112972000D03*
X221727000Y-112972000D03*
X219187000Y-115512000D03*
X221727000Y-115512000D03*
X219187000Y-118052000D03*
X221727000Y-118052000D03*
X189977000Y-131152000D03*
X192517000Y-131152000D03*
X189977000Y-133692000D03*
X192517000Y-133692000D03*
X189977000Y-136232000D03*
X192517000Y-136232000D03*
X189977000Y-138772000D03*
X192517000Y-138772000D03*
X189977000Y-141312000D03*
X192517000Y-141312000D03*
X189977000Y-143852000D03*
X192517000Y-143852000D03*
X189977000Y-146392000D03*
X192517000Y-146392000D03*
X189977000Y-148932000D03*
X192517000Y-148932000D03*
X192517000Y-123132000D03*
X189977000Y-123132000D03*
X192517000Y-120592000D03*
X189977000Y-120592000D03*
X189977000Y-44392000D03*
X192517000Y-44392000D03*
X189977000Y-46932000D03*
X192517000Y-46932000D03*
X189977000Y-49472000D03*
X192517000Y-49472000D03*
X189977000Y-52012000D03*
X192517000Y-52012000D03*
X189977000Y-54552000D03*
X192517000Y-54552000D03*
X189977000Y-57092000D03*
X192517000Y-57092000D03*
X189977000Y-59632000D03*
X192517000Y-59632000D03*
X189977000Y-62172000D03*
X192517000Y-62172000D03*
X189977000Y-64712000D03*
X192517000Y-64712000D03*
X189977000Y-67252000D03*
X192517000Y-67252000D03*
X189977000Y-69792000D03*
X192517000Y-69792000D03*
X189977000Y-72332000D03*
X192517000Y-72332000D03*
X189977000Y-74872000D03*
X192517000Y-74872000D03*
X189977000Y-77412000D03*
X192517000Y-77412000D03*
X189977000Y-79952000D03*
X192517000Y-79952000D03*
X189977000Y-82492000D03*
X192517000Y-82492000D03*
X189977000Y-85032000D03*
X192517000Y-85032000D03*
X189977000Y-87572000D03*
X192517000Y-87572000D03*
X189977000Y-90112000D03*
X192517000Y-90112000D03*
X189977000Y-92652000D03*
X192517000Y-92652000D03*
X189977000Y-95192000D03*
X192517000Y-95192000D03*
X189977000Y-97732000D03*
X192517000Y-97732000D03*
X189977000Y-100272000D03*
X192517000Y-100272000D03*
X189977000Y-102812000D03*
X192517000Y-102812000D03*
X189977000Y-105352000D03*
X192517000Y-105352000D03*
X189977000Y-107892000D03*
X192517000Y-107892000D03*
X189977000Y-110432000D03*
X192517000Y-110432000D03*
X189977000Y-112972000D03*
X192517000Y-112972000D03*
X189977000Y-115512000D03*
X192517000Y-115512000D03*
X189977000Y-118052000D03*
X192517000Y-118052000D03*
X160767000Y-131152000D03*
X163307000Y-131152000D03*
X160767000Y-133692000D03*
X163307000Y-133692000D03*
X160767000Y-136232000D03*
X163307000Y-136232000D03*
X160767000Y-138772000D03*
X163307000Y-138772000D03*
X160767000Y-141312000D03*
X163307000Y-141312000D03*
X160767000Y-143852000D03*
X163307000Y-143852000D03*
X160767000Y-146392000D03*
X163307000Y-146392000D03*
X160767000Y-148932000D03*
X163307000Y-148932000D03*
X163307000Y-123132000D03*
X160767000Y-123132000D03*
X163307000Y-120592000D03*
X160767000Y-120592000D03*
X160767000Y-44392000D03*
X163307000Y-44392000D03*
X160767000Y-46932000D03*
X163307000Y-46932000D03*
X160767000Y-49472000D03*
X163307000Y-49472000D03*
X160767000Y-52012000D03*
X163307000Y-52012000D03*
X160767000Y-54552000D03*
X163307000Y-54552000D03*
X160767000Y-57092000D03*
X163307000Y-57092000D03*
X160767000Y-59632000D03*
X163307000Y-59632000D03*
X160767000Y-62172000D03*
X163307000Y-62172000D03*
X160767000Y-64712000D03*
X163307000Y-64712000D03*
X160767000Y-67252000D03*
X163307000Y-67252000D03*
X160767000Y-69792000D03*
X163307000Y-69792000D03*
X160767000Y-72332000D03*
X163307000Y-72332000D03*
X160767000Y-74872000D03*
X163307000Y-74872000D03*
X160767000Y-77412000D03*
X163307000Y-77412000D03*
X160767000Y-79952000D03*
X163307000Y-79952000D03*
X160767000Y-82492000D03*
X163307000Y-82492000D03*
X160767000Y-85032000D03*
X163307000Y-85032000D03*
X160767000Y-87572000D03*
X163307000Y-87572000D03*
X160767000Y-90112000D03*
X163307000Y-90112000D03*
X160767000Y-92652000D03*
X163307000Y-92652000D03*
X160767000Y-95192000D03*
X163307000Y-95192000D03*
X160767000Y-97732000D03*
X163307000Y-97732000D03*
X160767000Y-100272000D03*
X163307000Y-100272000D03*
X160767000Y-102812000D03*
X163307000Y-102812000D03*
X160767000Y-105352000D03*
X163307000Y-105352000D03*
X160767000Y-107892000D03*
X163307000Y-107892000D03*
X160767000Y-110432000D03*
X163307000Y-110432000D03*
X160767000Y-112972000D03*
X163307000Y-112972000D03*
X160767000Y-115512000D03*
X163307000Y-115512000D03*
X160767000Y-118052000D03*
X163307000Y-118052000D03*
D29*
X271741000Y-114783000D03*
X272986000Y-115586000D03*
X273656000Y-113503000D03*
X271852000Y-116218500D03*
X271728000Y-112917000D03*
X268661000Y-116855000D03*
X268702000Y-102225000D03*
X272473000Y-112274000D03*
X271785000Y-110994000D03*
X273226980Y-110344731D03*
X272505000Y-109712000D03*
X261040000Y-92468000D03*
X263496000Y-51111000D03*
X263699000Y-65780000D03*
X263685000Y-76473000D03*
X271804000Y-108432000D03*
X272532114Y-107801491D03*
X271848000Y-107128000D03*
X272651353Y-105408330D03*
X271937000Y-104767000D03*
X272639461Y-103579800D03*
X271992000Y-102871000D03*
X272610000Y-78375000D03*
X272612299Y-79334999D03*
X272607000Y-80859000D03*
X272253000Y-67386881D03*
X271613000Y-66608000D03*
X263189000Y-80248000D03*
X263189000Y-87236000D03*
X262701000Y-61908000D03*
X262910000Y-55192000D03*
X264971000Y-50020000D03*
X264911000Y-75782000D03*
X264952000Y-101553000D03*
X269011000Y-113051000D03*
X268917000Y-105848000D03*
X268595000Y-55183000D03*
X268289000Y-80254000D03*
X268125000Y-87246000D03*
X263134000Y-105848000D03*
X258258000Y-116353000D03*
X258983000Y-115582000D03*
X259578000Y-114783000D03*
X257918000Y-113503000D03*
X258955000Y-113095000D03*
X259578000Y-112274000D03*
X258914000Y-110688000D03*
X259606000Y-109907000D03*
X257806000Y-108432000D03*
X258874000Y-108329000D03*
X259514000Y-107449000D03*
X258233000Y-105848000D03*
X258927000Y-105020000D03*
X259541000Y-104246000D03*
X258900000Y-103205000D03*
X259541000Y-102458000D03*
X259667000Y-67638000D03*
X259027000Y-68419382D03*
X256001258Y-70285238D03*
X256641258Y-71035992D03*
X257283000Y-71876286D03*
D30*
X219948999Y-116273999D02*
X219187000Y-115512000D01*
X220189001Y-116514001D02*
X219948999Y-116273999D01*
X247394999Y-116514001D02*
X220189001Y-116514001D01*
X248397000Y-115512000D02*
X247394999Y-116514001D01*
X190979001Y-116514001D02*
X190738999Y-116273999D01*
X190738999Y-116273999D02*
X189977000Y-115512000D01*
X218184999Y-116514001D02*
X190979001Y-116514001D01*
X219187000Y-115512000D02*
X218184999Y-116514001D01*
X161528999Y-116273999D02*
X160767000Y-115512000D01*
X161769001Y-116514001D02*
X161528999Y-116273999D01*
X188974999Y-116514001D02*
X161769001Y-116514001D01*
X189977000Y-115512000D02*
X188974999Y-116514001D01*
X276597000Y-116738000D02*
X277823000Y-115512000D01*
X248397000Y-115512000D02*
X249614989Y-116729989D01*
X249614989Y-116729989D02*
X251250989Y-116729989D01*
X251250989Y-116729989D02*
X252339000Y-117818000D01*
X275517000Y-117818000D02*
X276597000Y-116738000D01*
X252339000Y-117818000D02*
X275517000Y-117818000D01*
X132469001Y-116514001D02*
X132228999Y-116273999D01*
X132228999Y-116273999D02*
X131467000Y-115512000D01*
X158687369Y-116514001D02*
X132469001Y-116514001D01*
X159689370Y-115512000D02*
X158687369Y-116514001D01*
X160767000Y-115512000D02*
X159689370Y-115512000D01*
X102928999Y-116273999D02*
X102167000Y-115512000D01*
X103169001Y-116514001D02*
X102928999Y-116273999D01*
X130464999Y-116514001D02*
X103169001Y-116514001D01*
X131467000Y-115512000D02*
X130464999Y-116514001D01*
X73869001Y-116514001D02*
X73628999Y-116273999D01*
X101164999Y-116514001D02*
X73869001Y-116514001D01*
X73628999Y-116273999D02*
X72867000Y-115512000D01*
X102167000Y-115512000D02*
X101164999Y-116514001D01*
X44328999Y-116273999D02*
X43567000Y-115512000D01*
X44569001Y-116514001D02*
X44328999Y-116273999D01*
X71864999Y-116514001D02*
X44569001Y-116514001D01*
X72867000Y-115512000D02*
X71864999Y-116514001D01*
X219948999Y-113733999D02*
X219187000Y-112972000D01*
X220189001Y-113974001D02*
X219948999Y-113733999D01*
X247394999Y-113974001D02*
X220189001Y-113974001D01*
X248397000Y-112972000D02*
X247394999Y-113974001D01*
X190738999Y-113733999D02*
X189977000Y-112972000D01*
X190979001Y-113974001D02*
X190738999Y-113733999D01*
X218184999Y-113974001D02*
X190979001Y-113974001D01*
X219187000Y-112972000D02*
X218184999Y-113974001D01*
X161528999Y-113733999D02*
X160767000Y-112972000D01*
X188974999Y-113974001D02*
X161769001Y-113974001D01*
X161769001Y-113974001D02*
X161528999Y-113733999D01*
X189977000Y-112972000D02*
X188974999Y-113974001D01*
X248397000Y-112972000D02*
X249568000Y-114143000D01*
X276652000Y-114143000D02*
X277823000Y-112972000D01*
X249568000Y-114143000D02*
X276652000Y-114143000D01*
X132228999Y-113733999D02*
X131467000Y-112972000D01*
X132469001Y-113974001D02*
X132228999Y-113733999D01*
X159764999Y-113974001D02*
X132469001Y-113974001D01*
X160767000Y-112972000D02*
X159764999Y-113974001D01*
X102928999Y-113733999D02*
X102167000Y-112972000D01*
X103169001Y-113974001D02*
X102928999Y-113733999D01*
X130464999Y-113974001D02*
X103169001Y-113974001D01*
X131467000Y-112972000D02*
X130464999Y-113974001D01*
X73628999Y-113733999D02*
X72867000Y-112972000D01*
X73869001Y-113974001D02*
X73628999Y-113733999D01*
X101164999Y-113974001D02*
X73869001Y-113974001D01*
X102167000Y-112972000D02*
X101164999Y-113974001D01*
X44569001Y-113974001D02*
X44328999Y-113733999D01*
X44328999Y-113733999D02*
X43567000Y-112972000D01*
X71864999Y-113974001D02*
X44569001Y-113974001D01*
X72867000Y-112972000D02*
X71864999Y-113974001D01*
X219948999Y-111193999D02*
X219187000Y-110432000D01*
X220189001Y-111434001D02*
X219948999Y-111193999D01*
X247394999Y-111434001D02*
X220189001Y-111434001D01*
X248397000Y-110432000D02*
X247394999Y-111434001D01*
X190738999Y-111193999D02*
X189977000Y-110432000D01*
X218184999Y-111434001D02*
X190979001Y-111434001D01*
X190979001Y-111434001D02*
X190738999Y-111193999D01*
X219187000Y-110432000D02*
X218184999Y-111434001D01*
X161528999Y-111193999D02*
X160767000Y-110432000D01*
X161769001Y-111434001D02*
X161528999Y-111193999D01*
X188974999Y-111434001D02*
X161769001Y-111434001D01*
X189977000Y-110432000D02*
X188974999Y-111434001D01*
X248397000Y-110432000D02*
X249599000Y-111634000D01*
X276621000Y-111634000D02*
X277823000Y-110432000D01*
X249599000Y-111634000D02*
X276621000Y-111634000D01*
X132228999Y-111193999D02*
X131467000Y-110432000D01*
X132469001Y-111434001D02*
X132228999Y-111193999D01*
X159764999Y-111434001D02*
X132469001Y-111434001D01*
X160767000Y-110432000D02*
X159764999Y-111434001D01*
X102928999Y-111193999D02*
X102167000Y-110432000D01*
X130464999Y-111434001D02*
X103169001Y-111434001D01*
X103169001Y-111434001D02*
X102928999Y-111193999D01*
X131467000Y-110432000D02*
X130464999Y-111434001D01*
X73628999Y-111193999D02*
X72867000Y-110432000D01*
X73869001Y-111434001D02*
X73628999Y-111193999D01*
X101164999Y-111434001D02*
X73869001Y-111434001D01*
X102167000Y-110432000D02*
X101164999Y-111434001D01*
X44328999Y-111193999D02*
X43567000Y-110432000D01*
X44569001Y-111434001D02*
X44328999Y-111193999D01*
X71864999Y-111434001D02*
X44569001Y-111434001D01*
X72867000Y-110432000D02*
X71864999Y-111434001D01*
X220189001Y-108894001D02*
X219948999Y-108653999D01*
X219948999Y-108653999D02*
X219187000Y-107892000D01*
X247394999Y-108894001D02*
X220189001Y-108894001D01*
X248397000Y-107892000D02*
X247394999Y-108894001D01*
X190738999Y-108653999D02*
X189977000Y-107892000D01*
X190979001Y-108894001D02*
X190738999Y-108653999D01*
X218184999Y-108894001D02*
X190979001Y-108894001D01*
X219187000Y-107892000D02*
X218184999Y-108894001D01*
X161528999Y-108653999D02*
X160767000Y-107892000D01*
X188974999Y-108894001D02*
X161769001Y-108894001D01*
X161769001Y-108894001D02*
X161528999Y-108653999D01*
X189977000Y-107892000D02*
X188974999Y-108894001D01*
X248397000Y-107892000D02*
X249577000Y-109072000D01*
X276643000Y-109072000D02*
X277823000Y-107892000D01*
X249577000Y-109072000D02*
X276643000Y-109072000D01*
X279162000Y-94601000D02*
X279162000Y-106553000D01*
X278434000Y-93873000D02*
X279162000Y-94601000D01*
X279162000Y-106553000D02*
X277823000Y-107892000D01*
X262445000Y-93873000D02*
X278434000Y-93873000D01*
X261040000Y-92468000D02*
X262445000Y-93873000D01*
X132228999Y-108653999D02*
X131467000Y-107892000D01*
X132469001Y-108894001D02*
X132228999Y-108653999D01*
X158687369Y-108894001D02*
X132469001Y-108894001D01*
X159689370Y-107892000D02*
X158687369Y-108894001D01*
X160767000Y-107892000D02*
X159689370Y-107892000D01*
X102928999Y-108653999D02*
X102167000Y-107892000D01*
X103169001Y-108894001D02*
X102928999Y-108653999D01*
X130464999Y-108894001D02*
X103169001Y-108894001D01*
X131467000Y-107892000D02*
X130464999Y-108894001D01*
X73628999Y-108653999D02*
X72867000Y-107892000D01*
X73869001Y-108894001D02*
X73628999Y-108653999D01*
X101164999Y-108894001D02*
X73869001Y-108894001D01*
X102167000Y-107892000D02*
X101164999Y-108894001D01*
X44569001Y-108894001D02*
X44328999Y-108653999D01*
X44328999Y-108653999D02*
X43567000Y-107892000D01*
X71864999Y-108894001D02*
X44569001Y-108894001D01*
X72867000Y-107892000D02*
X71864999Y-108894001D01*
X219948999Y-106113999D02*
X219187000Y-105352000D01*
X220189001Y-106354001D02*
X219948999Y-106113999D01*
X247394999Y-106354001D02*
X220189001Y-106354001D01*
X248397000Y-105352000D02*
X247394999Y-106354001D01*
X190738999Y-106113999D02*
X189977000Y-105352000D01*
X190979001Y-106354001D02*
X190738999Y-106113999D01*
X218184999Y-106354001D02*
X190979001Y-106354001D01*
X219187000Y-105352000D02*
X218184999Y-106354001D01*
X161528999Y-106113999D02*
X160767000Y-105352000D01*
X161769001Y-106354001D02*
X161528999Y-106113999D01*
X188974999Y-106354001D02*
X161769001Y-106354001D01*
X189977000Y-105352000D02*
X188974999Y-106354001D01*
X248668000Y-105352000D02*
X249804000Y-106488000D01*
X248397000Y-105352000D02*
X248668000Y-105352000D01*
X276687000Y-106488000D02*
X277823000Y-105352000D01*
X249804000Y-106488000D02*
X276687000Y-106488000D01*
X132228999Y-106113999D02*
X131467000Y-105352000D01*
X132469001Y-106354001D02*
X132228999Y-106113999D01*
X159764999Y-106354001D02*
X132469001Y-106354001D01*
X160767000Y-105352000D02*
X159764999Y-106354001D01*
X102928999Y-106113999D02*
X102167000Y-105352000D01*
X103169001Y-106354001D02*
X102928999Y-106113999D01*
X130464999Y-106354001D02*
X103169001Y-106354001D01*
X131467000Y-105352000D02*
X130464999Y-106354001D01*
X73628999Y-106113999D02*
X72867000Y-105352000D01*
X73869001Y-106354001D02*
X73628999Y-106113999D01*
X101164999Y-106354001D02*
X73869001Y-106354001D01*
X102167000Y-105352000D02*
X101164999Y-106354001D01*
X44569001Y-106354001D02*
X44328999Y-106113999D01*
X71864999Y-106354001D02*
X44569001Y-106354001D01*
X44328999Y-106113999D02*
X43567000Y-105352000D01*
X72867000Y-105352000D02*
X71864999Y-106354001D01*
X222944989Y-86354011D02*
X222488999Y-86810001D01*
X222488999Y-86810001D02*
X221727000Y-87572000D01*
X249719011Y-86354011D02*
X222944989Y-86354011D01*
X250937000Y-87572000D02*
X249719011Y-86354011D01*
X193519001Y-86569999D02*
X193278999Y-86810001D01*
X220724999Y-86569999D02*
X193519001Y-86569999D01*
X193278999Y-86810001D02*
X192517000Y-87572000D01*
X221727000Y-87572000D02*
X220724999Y-86569999D01*
X164068999Y-86810001D02*
X163307000Y-87572000D01*
X164309001Y-86569999D02*
X164068999Y-86810001D01*
X191514999Y-86569999D02*
X164309001Y-86569999D01*
X192517000Y-87572000D02*
X191514999Y-86569999D01*
X250937000Y-87572000D02*
X252471000Y-89106000D01*
X278829000Y-89106000D02*
X280363000Y-87572000D01*
X252471000Y-89106000D02*
X278829000Y-89106000D01*
X134768999Y-86810001D02*
X134007000Y-87572000D01*
X135009001Y-86569999D02*
X134768999Y-86810001D01*
X162304999Y-86569999D02*
X135009001Y-86569999D01*
X163307000Y-87572000D02*
X162304999Y-86569999D01*
X105468999Y-86810001D02*
X104707000Y-87572000D01*
X131927369Y-86569999D02*
X105709001Y-86569999D01*
X105709001Y-86569999D02*
X105468999Y-86810001D01*
X132929370Y-87572000D02*
X131927369Y-86569999D01*
X134007000Y-87572000D02*
X132929370Y-87572000D01*
X76409001Y-86569999D02*
X76168999Y-86810001D01*
X102627369Y-86569999D02*
X76409001Y-86569999D01*
X76168999Y-86810001D02*
X75407000Y-87572000D01*
X103629370Y-87572000D02*
X102627369Y-86569999D01*
X104707000Y-87572000D02*
X103629370Y-87572000D01*
X46868999Y-86810001D02*
X46107000Y-87572000D01*
X47109001Y-86569999D02*
X46868999Y-86810001D01*
X74404999Y-86569999D02*
X47109001Y-86569999D01*
X75407000Y-87572000D02*
X74404999Y-86569999D01*
X222729001Y-78949999D02*
X222488999Y-79190001D01*
X249934999Y-78949999D02*
X222729001Y-78949999D01*
X222488999Y-79190001D02*
X221727000Y-79952000D01*
X250937000Y-79952000D02*
X249934999Y-78949999D01*
X193519001Y-78949999D02*
X193278999Y-79190001D01*
X193278999Y-79190001D02*
X192517000Y-79952000D01*
X220724999Y-78949999D02*
X193519001Y-78949999D01*
X221727000Y-79952000D02*
X220724999Y-78949999D01*
X164068999Y-79190001D02*
X163307000Y-79952000D01*
X191514999Y-78949999D02*
X164309001Y-78949999D01*
X164309001Y-78949999D02*
X164068999Y-79190001D01*
X192517000Y-79952000D02*
X191514999Y-78949999D01*
X251698999Y-79190001D02*
X271000001Y-79190001D01*
X250937000Y-79952000D02*
X251698999Y-79190001D01*
X271785000Y-79975000D02*
X273550000Y-79975000D01*
X271000001Y-79190001D02*
X271785000Y-79975000D01*
X273550000Y-79975000D02*
X274529001Y-80954001D01*
X279360999Y-80954001D02*
X280363000Y-79952000D01*
X274529001Y-80954001D02*
X279360999Y-80954001D01*
X134768999Y-79190001D02*
X134007000Y-79952000D01*
X161247961Y-78949999D02*
X135009001Y-78949999D01*
X162249962Y-79952000D02*
X161247961Y-78949999D01*
X135009001Y-78949999D02*
X134768999Y-79190001D01*
X163307000Y-79952000D02*
X162249962Y-79952000D01*
X105709001Y-78949999D02*
X105468999Y-79190001D01*
X133004999Y-78949999D02*
X105709001Y-78949999D01*
X105468999Y-79190001D02*
X104707000Y-79952000D01*
X134007000Y-79952000D02*
X133004999Y-78949999D01*
X76168999Y-79190001D02*
X75407000Y-79952000D01*
X76409001Y-78949999D02*
X76168999Y-79190001D01*
X103704999Y-78949999D02*
X76409001Y-78949999D01*
X104707000Y-79952000D02*
X103704999Y-78949999D01*
X46868999Y-79190001D02*
X46107000Y-79952000D01*
X47109001Y-78949999D02*
X46868999Y-79190001D01*
X74404999Y-78949999D02*
X47109001Y-78949999D01*
X75407000Y-79952000D02*
X74404999Y-78949999D01*
X222729001Y-76409999D02*
X222488999Y-76650001D01*
X249934999Y-76409999D02*
X222729001Y-76409999D01*
X222488999Y-76650001D02*
X221727000Y-77412000D01*
X250937000Y-77412000D02*
X249934999Y-76409999D01*
X193278999Y-76650001D02*
X192517000Y-77412000D01*
X193519001Y-76409999D02*
X193278999Y-76650001D01*
X220724999Y-76409999D02*
X193519001Y-76409999D01*
X221727000Y-77412000D02*
X220724999Y-76409999D01*
X164068999Y-76650001D02*
X163307000Y-77412000D01*
X164309001Y-76409999D02*
X164068999Y-76650001D01*
X191514999Y-76409999D02*
X164309001Y-76409999D01*
X192517000Y-77412000D02*
X191514999Y-76409999D01*
X250937000Y-77412000D02*
X274291000Y-77412000D01*
X274291000Y-77412000D02*
X275390000Y-76313000D01*
X279264000Y-76313000D02*
X280363000Y-77412000D01*
X275390000Y-76313000D02*
X279264000Y-76313000D01*
X135009001Y-76409999D02*
X134768999Y-76650001D01*
X161227369Y-76409999D02*
X135009001Y-76409999D01*
X134768999Y-76650001D02*
X134007000Y-77412000D01*
X162229370Y-77412000D02*
X161227369Y-76409999D01*
X163307000Y-77412000D02*
X162229370Y-77412000D01*
X105468999Y-76650001D02*
X104707000Y-77412000D01*
X105709001Y-76409999D02*
X105468999Y-76650001D01*
X133004999Y-76409999D02*
X105709001Y-76409999D01*
X134007000Y-77412000D02*
X133004999Y-76409999D01*
X76409001Y-76409999D02*
X76168999Y-76650001D01*
X76168999Y-76650001D02*
X75407000Y-77412000D01*
X103704999Y-76409999D02*
X76409001Y-76409999D01*
X104707000Y-77412000D02*
X103704999Y-76409999D01*
X47109001Y-76409999D02*
X46868999Y-76650001D01*
X74404999Y-76409999D02*
X47109001Y-76409999D01*
X46868999Y-76650001D02*
X46107000Y-77412000D01*
X75407000Y-77412000D02*
X74404999Y-76409999D01*
X222488999Y-74110001D02*
X221727000Y-74872000D01*
X222729001Y-73869999D02*
X222488999Y-74110001D01*
X249934999Y-73869999D02*
X222729001Y-73869999D01*
X250937000Y-74872000D02*
X249934999Y-73869999D01*
X193278999Y-74110001D02*
X192517000Y-74872000D01*
X193519001Y-73869999D02*
X193278999Y-74110001D01*
X220724999Y-73869999D02*
X193519001Y-73869999D01*
X221727000Y-74872000D02*
X220724999Y-73869999D01*
X164068999Y-74110001D02*
X163307000Y-74872000D01*
X164309001Y-73869999D02*
X164068999Y-74110001D01*
X191514999Y-73869999D02*
X164309001Y-73869999D01*
X192517000Y-74872000D02*
X191514999Y-73869999D01*
X250937000Y-74872000D02*
X275374000Y-74872000D01*
X275374000Y-74872000D02*
X276589000Y-73657000D01*
X279148000Y-73657000D02*
X280363000Y-74872000D01*
X276589000Y-73657000D02*
X279148000Y-73657000D01*
X134768999Y-74110001D02*
X134007000Y-74872000D01*
X135009001Y-73869999D02*
X134768999Y-74110001D01*
X162304999Y-73869999D02*
X135009001Y-73869999D01*
X163307000Y-74872000D02*
X162304999Y-73869999D01*
X105468999Y-74110001D02*
X104707000Y-74872000D01*
X105709001Y-73869999D02*
X105468999Y-74110001D01*
X133004999Y-73869999D02*
X105709001Y-73869999D01*
X134007000Y-74872000D02*
X133004999Y-73869999D01*
X76168999Y-74110001D02*
X75407000Y-74872000D01*
X76409001Y-73869999D02*
X76168999Y-74110001D01*
X102627369Y-73869999D02*
X76409001Y-73869999D01*
X103629370Y-74872000D02*
X102627369Y-73869999D01*
X104707000Y-74872000D02*
X103629370Y-74872000D01*
X46868999Y-74110001D02*
X46107000Y-74872000D01*
X47109001Y-73869999D02*
X46868999Y-74110001D01*
X74404999Y-73869999D02*
X47109001Y-73869999D01*
X75407000Y-74872000D02*
X74404999Y-73869999D01*
X280363000Y-72332000D02*
X281727000Y-73696000D01*
X281727000Y-73696000D02*
X281727000Y-77875000D01*
X281727000Y-77875000D02*
X281727000Y-78068000D01*
X272649001Y-78414001D02*
X272610000Y-78375000D01*
X281380999Y-78414001D02*
X272649001Y-78414001D01*
X281727000Y-78068000D02*
X281380999Y-78414001D01*
X282047009Y-78200553D02*
X281513551Y-78734011D01*
X282047009Y-71476009D02*
X282047009Y-78200553D01*
X280363000Y-69792000D02*
X282047009Y-71476009D01*
X273213287Y-78734011D02*
X272612299Y-79334999D01*
X281513551Y-78734011D02*
X273213287Y-78734011D01*
X272702001Y-80954001D02*
X272607000Y-80859000D01*
X282367019Y-69256019D02*
X280363000Y-67252000D01*
X282367019Y-80101981D02*
X282367019Y-69256019D01*
X281194989Y-81274011D02*
X282367019Y-80101981D01*
X273022011Y-81274011D02*
X281194989Y-81274011D01*
X272607000Y-80859000D02*
X273022011Y-81274011D01*
X272253000Y-67386881D02*
X275201119Y-67386881D01*
X275201119Y-67386881D02*
X276670000Y-65918000D01*
X279157000Y-65918000D02*
X280363000Y-64712000D01*
X276670000Y-65918000D02*
X279157000Y-65918000D01*
X271613000Y-66608000D02*
X274306000Y-66608000D01*
X274306000Y-66608000D02*
X276079000Y-64835000D01*
X276079000Y-64835000D02*
X276079000Y-64112000D01*
X279601001Y-62933999D02*
X280363000Y-62172000D01*
X279360999Y-63174001D02*
X279601001Y-62933999D01*
X277016999Y-63174001D02*
X279360999Y-63174001D01*
X276079000Y-64112000D02*
X277016999Y-63174001D01*
X222488999Y-58870001D02*
X221727000Y-59632000D01*
X222729001Y-58629999D02*
X222488999Y-58870001D01*
X249934999Y-58629999D02*
X222729001Y-58629999D01*
X250937000Y-59632000D02*
X249934999Y-58629999D01*
X193278999Y-58870001D02*
X192517000Y-59632000D01*
X220724999Y-58629999D02*
X193519001Y-58629999D01*
X193519001Y-58629999D02*
X193278999Y-58870001D01*
X221727000Y-59632000D02*
X220724999Y-58629999D01*
X164068999Y-58870001D02*
X163307000Y-59632000D01*
X164309001Y-58629999D02*
X164068999Y-58870001D01*
X191514999Y-58629999D02*
X164309001Y-58629999D01*
X192517000Y-59632000D02*
X191514999Y-58629999D01*
X250937000Y-59632000D02*
X275351000Y-59632000D01*
X275351000Y-59632000D02*
X276581000Y-58402000D01*
X279133000Y-58402000D02*
X280363000Y-59632000D01*
X276581000Y-58402000D02*
X279133000Y-58402000D01*
X135009001Y-58629999D02*
X134768999Y-58870001D01*
X134768999Y-58870001D02*
X134007000Y-59632000D01*
X162304999Y-58629999D02*
X135009001Y-58629999D01*
X163307000Y-59632000D02*
X162304999Y-58629999D01*
X105468999Y-58870001D02*
X104707000Y-59632000D01*
X105709001Y-58629999D02*
X105468999Y-58870001D01*
X131927369Y-58629999D02*
X105709001Y-58629999D01*
X132929370Y-59632000D02*
X131927369Y-58629999D01*
X134007000Y-59632000D02*
X132929370Y-59632000D01*
X76168999Y-58870001D02*
X75407000Y-59632000D01*
X103704999Y-58629999D02*
X76409001Y-58629999D01*
X76409001Y-58629999D02*
X76168999Y-58870001D01*
X104707000Y-59632000D02*
X103704999Y-58629999D01*
X47109001Y-58629999D02*
X46868999Y-58870001D01*
X74404999Y-58629999D02*
X47109001Y-58629999D01*
X46868999Y-58870001D02*
X46107000Y-59632000D01*
X75407000Y-59632000D02*
X74404999Y-58629999D01*
X222729001Y-56089999D02*
X222488999Y-56330001D01*
X249934999Y-56089999D02*
X222729001Y-56089999D01*
X222488999Y-56330001D02*
X221727000Y-57092000D01*
X250937000Y-57092000D02*
X249934999Y-56089999D01*
X193278999Y-56330001D02*
X192517000Y-57092000D01*
X193734989Y-55874011D02*
X193278999Y-56330001D01*
X220509011Y-55874011D02*
X193734989Y-55874011D01*
X221727000Y-57092000D02*
X220509011Y-55874011D01*
X191514999Y-56089999D02*
X164309001Y-56089999D01*
X164068999Y-56330001D02*
X163307000Y-57092000D01*
X164309001Y-56089999D02*
X164068999Y-56330001D01*
X192517000Y-57092000D02*
X191514999Y-56089999D01*
X250937000Y-57092000D02*
X274693000Y-57092000D01*
X274693000Y-57092000D02*
X275888000Y-55897000D01*
X279168000Y-55897000D02*
X280363000Y-57092000D01*
X275888000Y-55897000D02*
X279168000Y-55897000D01*
X134768999Y-56330001D02*
X134007000Y-57092000D01*
X135009001Y-56089999D02*
X134768999Y-56330001D01*
X162304999Y-56089999D02*
X135009001Y-56089999D01*
X163307000Y-57092000D02*
X162304999Y-56089999D01*
X105468999Y-56330001D02*
X104707000Y-57092000D01*
X105709001Y-56089999D02*
X105468999Y-56330001D01*
X133004999Y-56089999D02*
X105709001Y-56089999D01*
X134007000Y-57092000D02*
X133004999Y-56089999D01*
X76168999Y-56330001D02*
X75407000Y-57092000D01*
X102627369Y-56089999D02*
X76409001Y-56089999D01*
X76409001Y-56089999D02*
X76168999Y-56330001D01*
X103629370Y-57092000D02*
X102627369Y-56089999D01*
X104707000Y-57092000D02*
X103629370Y-57092000D01*
X47109001Y-56089999D02*
X46868999Y-56330001D01*
X46868999Y-56330001D02*
X46107000Y-57092000D01*
X74404999Y-56089999D02*
X47109001Y-56089999D01*
X75407000Y-57092000D02*
X74404999Y-56089999D01*
X222488999Y-53790001D02*
X221727000Y-54552000D01*
X222729001Y-53549999D02*
X222488999Y-53790001D01*
X249934999Y-53549999D02*
X222729001Y-53549999D01*
X250937000Y-54552000D02*
X249934999Y-53549999D01*
X193519001Y-53549999D02*
X193278999Y-53790001D01*
X220724999Y-53549999D02*
X193519001Y-53549999D01*
X193278999Y-53790001D02*
X192517000Y-54552000D01*
X221727000Y-54552000D02*
X220724999Y-53549999D01*
X164309001Y-53549999D02*
X164068999Y-53790001D01*
X191514999Y-53549999D02*
X164309001Y-53549999D01*
X164068999Y-53790001D02*
X163307000Y-54552000D01*
X192517000Y-54552000D02*
X191514999Y-53549999D01*
X251939001Y-53549999D02*
X250937000Y-54552000D01*
X279360999Y-53549999D02*
X251939001Y-53549999D01*
X280363000Y-54552000D02*
X279360999Y-53549999D01*
X134768999Y-53790001D02*
X134007000Y-54552000D01*
X135009001Y-53549999D02*
X134768999Y-53790001D01*
X162249962Y-54552000D02*
X161247961Y-53549999D01*
X161247961Y-53549999D02*
X135009001Y-53549999D01*
X163307000Y-54552000D02*
X162249962Y-54552000D01*
X105468999Y-53790001D02*
X104707000Y-54552000D01*
X105709001Y-53549999D02*
X105468999Y-53790001D01*
X133004999Y-53549999D02*
X105709001Y-53549999D01*
X134007000Y-54552000D02*
X133004999Y-53549999D01*
X76409001Y-53549999D02*
X76168999Y-53790001D01*
X103704999Y-53549999D02*
X76409001Y-53549999D01*
X76168999Y-53790001D02*
X75407000Y-54552000D01*
X104707000Y-54552000D02*
X103704999Y-53549999D01*
X74404999Y-53549999D02*
X47109001Y-53549999D01*
X46868999Y-53790001D02*
X46107000Y-54552000D01*
X47109001Y-53549999D02*
X46868999Y-53790001D01*
X75407000Y-54552000D02*
X74404999Y-53549999D01*
X250937000Y-52012000D02*
X249719011Y-50794011D01*
X222944989Y-50794011D02*
X221727000Y-52012000D01*
X249719011Y-50794011D02*
X222944989Y-50794011D01*
X193278999Y-51250001D02*
X192517000Y-52012000D01*
X193519001Y-51009999D02*
X193278999Y-51250001D01*
X220724999Y-51009999D02*
X193519001Y-51009999D01*
X221727000Y-52012000D02*
X220724999Y-51009999D01*
X164068999Y-51250001D02*
X163307000Y-52012000D01*
X164309001Y-51009999D02*
X164068999Y-51250001D01*
X191514999Y-51009999D02*
X164309001Y-51009999D01*
X192517000Y-52012000D02*
X191514999Y-51009999D01*
X250937000Y-52012000D02*
X274778000Y-52012000D01*
X274778000Y-52012000D02*
X276053000Y-50737000D01*
X279088000Y-50737000D02*
X280363000Y-52012000D01*
X276053000Y-50737000D02*
X279088000Y-50737000D01*
X162545001Y-51250001D02*
X163307000Y-52012000D01*
X162304999Y-51009999D02*
X162545001Y-51250001D01*
X135009001Y-51009999D02*
X162304999Y-51009999D01*
X134007000Y-52012000D02*
X135009001Y-51009999D01*
X105468999Y-51250001D02*
X104707000Y-52012000D01*
X105709001Y-51009999D02*
X105468999Y-51250001D01*
X133004999Y-51009999D02*
X105709001Y-51009999D01*
X134007000Y-52012000D02*
X133004999Y-51009999D01*
X76409001Y-51009999D02*
X76168999Y-51250001D01*
X102647961Y-51009999D02*
X76409001Y-51009999D01*
X76168999Y-51250001D02*
X75407000Y-52012000D01*
X103649962Y-52012000D02*
X102647961Y-51009999D01*
X104707000Y-52012000D02*
X103649962Y-52012000D01*
X46868999Y-51250001D02*
X46107000Y-52012000D01*
X47109001Y-51009999D02*
X46868999Y-51250001D01*
X74404999Y-51009999D02*
X47109001Y-51009999D01*
X75407000Y-52012000D02*
X74404999Y-51009999D01*
X251698999Y-47693999D02*
X250937000Y-46932000D01*
X279144999Y-47934001D02*
X251939001Y-47934001D01*
X251939001Y-47934001D02*
X251698999Y-47693999D01*
X280147000Y-46932000D02*
X279144999Y-47934001D01*
X222488999Y-47693999D02*
X221727000Y-46932000D01*
X222729001Y-47934001D02*
X222488999Y-47693999D01*
X249934999Y-47934001D02*
X222729001Y-47934001D01*
X250937000Y-46932000D02*
X249934999Y-47934001D01*
X193959999Y-48374999D02*
X193278999Y-47693999D01*
X193278999Y-47693999D02*
X192517000Y-46932000D01*
X220284001Y-48374999D02*
X193959999Y-48374999D01*
X221727000Y-46932000D02*
X220284001Y-48374999D01*
X164068999Y-47693999D02*
X163307000Y-46932000D01*
X164309001Y-47934001D02*
X164068999Y-47693999D01*
X191514999Y-47934001D02*
X164309001Y-47934001D01*
X192517000Y-46932000D02*
X191514999Y-47934001D01*
X162545001Y-47693999D02*
X163307000Y-46932000D01*
X135009001Y-47934001D02*
X162304999Y-47934001D01*
X162304999Y-47934001D02*
X162545001Y-47693999D01*
X134007000Y-46932000D02*
X135009001Y-47934001D01*
X105468999Y-47693999D02*
X104707000Y-46932000D01*
X133004999Y-47934001D02*
X105709001Y-47934001D01*
X105709001Y-47934001D02*
X105468999Y-47693999D01*
X134007000Y-46932000D02*
X133004999Y-47934001D01*
X76168999Y-47693999D02*
X75407000Y-46932000D01*
X76409001Y-47934001D02*
X76168999Y-47693999D01*
X102627369Y-47934001D02*
X76409001Y-47934001D01*
X103629370Y-46932000D02*
X102627369Y-47934001D01*
X104707000Y-46932000D02*
X103629370Y-46932000D01*
X46868999Y-47693999D02*
X46107000Y-46932000D01*
X47109001Y-47934001D02*
X46868999Y-47693999D01*
X74404999Y-47934001D02*
X47109001Y-47934001D01*
X75407000Y-46932000D02*
X74404999Y-47934001D01*
D31*
X163157000Y-44392000D02*
X163307000Y-44392000D01*
X240697000Y-44392000D02*
X240720000Y-44415000D01*
X279385001Y-45153999D02*
X280147000Y-44392000D01*
X278959999Y-45579001D02*
X279385001Y-45153999D01*
D30*
X252154989Y-147714011D02*
X250937000Y-148932000D01*
X278929011Y-147714011D02*
X252154989Y-147714011D01*
X280147000Y-148932000D02*
X278929011Y-147714011D01*
X250175001Y-148170001D02*
X250937000Y-148932000D01*
X249934999Y-147929999D02*
X250175001Y-148170001D01*
X222729001Y-147929999D02*
X249934999Y-147929999D01*
X221727000Y-148932000D02*
X222729001Y-147929999D01*
X193519001Y-147929999D02*
X193278999Y-148170001D01*
X193278999Y-148170001D02*
X192517000Y-148932000D01*
X220649370Y-148932000D02*
X219647369Y-147929999D01*
X219647369Y-147929999D02*
X193519001Y-147929999D01*
X221727000Y-148932000D02*
X220649370Y-148932000D01*
X164309001Y-147929999D02*
X164068999Y-148170001D01*
X190437369Y-147929999D02*
X164309001Y-147929999D01*
X164068999Y-148170001D02*
X163307000Y-148932000D01*
X191439370Y-148932000D02*
X190437369Y-147929999D01*
X192517000Y-148932000D02*
X191439370Y-148932000D01*
X162229370Y-148932000D02*
X161011381Y-147714011D01*
X163307000Y-148932000D02*
X162229370Y-148932000D01*
X135224989Y-147714011D02*
X134007000Y-148932000D01*
X161011381Y-147714011D02*
X135224989Y-147714011D01*
X132929370Y-148932000D02*
X131711381Y-147714011D01*
X134007000Y-148932000D02*
X132929370Y-148932000D01*
X105924989Y-147714011D02*
X104707000Y-148932000D01*
X131711381Y-147714011D02*
X105924989Y-147714011D01*
X104707000Y-148932000D02*
X103489011Y-147714011D01*
X76624989Y-147714011D02*
X75407000Y-148932000D01*
X103489011Y-147714011D02*
X76624989Y-147714011D01*
X74329370Y-148932000D02*
X73111381Y-147714011D01*
X75407000Y-148932000D02*
X74329370Y-148932000D01*
X47324989Y-147714011D02*
X46107000Y-148932000D01*
X73111381Y-147714011D02*
X47324989Y-147714011D01*
X249158999Y-149693999D02*
X248397000Y-148932000D01*
X249399001Y-149934001D02*
X249158999Y-149693999D01*
X276604999Y-149934001D02*
X249399001Y-149934001D01*
X277607000Y-148932000D02*
X276604999Y-149934001D01*
X219255000Y-149000000D02*
X219187000Y-148932000D01*
X188899370Y-148932000D02*
X189977000Y-148932000D01*
X188357370Y-148390000D02*
X188899370Y-148932000D01*
X165330000Y-148390000D02*
X188357370Y-148390000D01*
X164789962Y-148930038D02*
X165330000Y-148390000D01*
X164789962Y-148932000D02*
X164789962Y-148930038D01*
X161769001Y-149934001D02*
X163787961Y-149934001D01*
X163787961Y-149934001D02*
X164789962Y-148932000D01*
X160767000Y-148932000D02*
X161769001Y-149934001D01*
X220189001Y-149934001D02*
X219948999Y-149693999D01*
X222207961Y-149934001D02*
X220189001Y-149934001D01*
X223611963Y-148529999D02*
X222207961Y-149934001D01*
X219948999Y-149693999D02*
X219187000Y-148932000D01*
X247319370Y-148932000D02*
X246917369Y-148529999D01*
X246917369Y-148529999D02*
X223611963Y-148529999D01*
X248397000Y-148932000D02*
X247319370Y-148932000D01*
X159689370Y-148932000D02*
X158791391Y-148034021D01*
X160767000Y-148932000D02*
X159689370Y-148932000D01*
X158791391Y-148034021D02*
X137597979Y-148034021D01*
X132228999Y-149693999D02*
X131467000Y-148932000D01*
X132469001Y-149934001D02*
X132228999Y-149693999D01*
X135697999Y-149934001D02*
X132469001Y-149934001D01*
X137597979Y-148034021D02*
X135697999Y-149934001D01*
X130389370Y-148932000D02*
X129491391Y-148034021D01*
X131467000Y-148932000D02*
X130389370Y-148932000D01*
X129491391Y-148034021D02*
X108910979Y-148034021D01*
X108910979Y-148034021D02*
X106621000Y-150324000D01*
X103559000Y-150324000D02*
X102167000Y-148932000D01*
X106621000Y-150324000D02*
X103559000Y-150324000D01*
X102167000Y-148932000D02*
X100727979Y-148932000D01*
X100727979Y-148932000D02*
X99830000Y-148034021D01*
X99830000Y-148034021D02*
X79327979Y-148034021D01*
X77427999Y-149934001D02*
X77427999Y-149955001D01*
X79327979Y-148034021D02*
X77427999Y-149934001D01*
X77427999Y-149955001D02*
X76863000Y-150520000D01*
X74455000Y-150520000D02*
X72867000Y-148932000D01*
X76863000Y-150520000D02*
X74455000Y-150520000D01*
X71789370Y-148932000D02*
X70891391Y-148034021D01*
X72867000Y-148932000D02*
X71789370Y-148932000D01*
X70891391Y-148034021D02*
X49384979Y-148034021D01*
X49384979Y-148034021D02*
X46737000Y-150682000D01*
X45317000Y-150682000D02*
X43567000Y-148932000D01*
X46737000Y-150682000D02*
X45317000Y-150682000D01*
X219187000Y-148932000D02*
X217824991Y-148932000D01*
X217824991Y-148932000D02*
X217143000Y-148250009D01*
X217143000Y-148250009D02*
X196445991Y-148250009D01*
X196445991Y-148250009D02*
X193844000Y-150852000D01*
X191897000Y-150852000D02*
X189977000Y-148932000D01*
X193844000Y-150852000D02*
X191897000Y-150852000D01*
X280147000Y-146392000D02*
X278930000Y-145175000D01*
X252154000Y-145175000D02*
X250937000Y-146392000D01*
X278930000Y-145175000D02*
X252154000Y-145175000D01*
X249934999Y-145389999D02*
X250175001Y-145630001D01*
X222729001Y-145389999D02*
X249934999Y-145389999D01*
X250175001Y-145630001D02*
X250937000Y-146392000D01*
X221727000Y-146392000D02*
X222729001Y-145389999D01*
X193278999Y-145630001D02*
X192517000Y-146392000D01*
X193519001Y-145389999D02*
X193278999Y-145630001D01*
X220724999Y-145389999D02*
X193519001Y-145389999D01*
X221727000Y-146392000D02*
X220724999Y-145389999D01*
X164068999Y-145630001D02*
X163307000Y-146392000D01*
X164309001Y-145389999D02*
X164068999Y-145630001D01*
X191514999Y-145389999D02*
X164309001Y-145389999D01*
X192517000Y-146392000D02*
X191514999Y-145389999D01*
X135009001Y-145389999D02*
X134768999Y-145630001D01*
X161247961Y-145389999D02*
X135009001Y-145389999D01*
X162249962Y-146392000D02*
X161247961Y-145389999D01*
X134768999Y-145630001D02*
X134007000Y-146392000D01*
X163307000Y-146392000D02*
X162249962Y-146392000D01*
X105468999Y-145630001D02*
X104707000Y-146392000D01*
X133004999Y-145389999D02*
X105709001Y-145389999D01*
X105709001Y-145389999D02*
X105468999Y-145630001D01*
X134007000Y-146392000D02*
X133004999Y-145389999D01*
X76168999Y-145630001D02*
X75407000Y-146392000D01*
X76409001Y-145389999D02*
X76168999Y-145630001D01*
X103704999Y-145389999D02*
X76409001Y-145389999D01*
X104707000Y-146392000D02*
X103704999Y-145389999D01*
X46868999Y-145630001D02*
X46107000Y-146392000D01*
X47109001Y-145389999D02*
X46868999Y-145630001D01*
X74404999Y-145389999D02*
X47109001Y-145389999D01*
X75407000Y-146392000D02*
X74404999Y-145389999D01*
X249158999Y-147153999D02*
X248397000Y-146392000D01*
X249399001Y-147394001D02*
X249158999Y-147153999D01*
X276604999Y-147394001D02*
X249399001Y-147394001D01*
X277607000Y-146392000D02*
X276604999Y-147394001D01*
X190979001Y-147394001D02*
X190738999Y-147153999D01*
X190738999Y-147153999D02*
X189977000Y-146392000D01*
X218184999Y-147394001D02*
X190979001Y-147394001D01*
X219187000Y-146392000D02*
X218184999Y-147394001D01*
X188974999Y-147394001D02*
X161769001Y-147394001D01*
X161528999Y-147153999D02*
X160767000Y-146392000D01*
X161769001Y-147394001D02*
X161528999Y-147153999D01*
X189977000Y-146392000D02*
X188974999Y-147394001D01*
X219948999Y-147153999D02*
X219187000Y-146392000D01*
X220189001Y-147394001D02*
X219948999Y-147153999D01*
X247394999Y-147394001D02*
X220189001Y-147394001D01*
X248397000Y-146392000D02*
X247394999Y-147394001D01*
X132228999Y-147153999D02*
X131467000Y-146392000D01*
X132469001Y-147394001D02*
X132228999Y-147153999D01*
X159764999Y-147394001D02*
X132469001Y-147394001D01*
X160767000Y-146392000D02*
X159764999Y-147394001D01*
X102928999Y-147153999D02*
X102167000Y-146392000D01*
X103169001Y-147394001D02*
X102928999Y-147153999D01*
X129387369Y-147394001D02*
X103169001Y-147394001D01*
X130389370Y-146392000D02*
X129387369Y-147394001D01*
X131467000Y-146392000D02*
X130389370Y-146392000D01*
X73628999Y-147153999D02*
X72867000Y-146392000D01*
X73869001Y-147394001D02*
X73628999Y-147153999D01*
X101164999Y-147394001D02*
X73869001Y-147394001D01*
X102167000Y-146392000D02*
X101164999Y-147394001D01*
X44328999Y-147153999D02*
X43567000Y-146392000D01*
X44569001Y-147394001D02*
X44328999Y-147153999D01*
X71864999Y-147394001D02*
X44569001Y-147394001D01*
X72867000Y-146392000D02*
X71864999Y-147394001D01*
X252154989Y-142634011D02*
X250937000Y-143852000D01*
X278929011Y-142634011D02*
X252154989Y-142634011D01*
X280147000Y-143852000D02*
X278929011Y-142634011D01*
X250175001Y-143090001D02*
X250937000Y-143852000D01*
X249934999Y-142849999D02*
X250175001Y-143090001D01*
X222729001Y-142849999D02*
X249934999Y-142849999D01*
X221727000Y-143852000D02*
X222729001Y-142849999D01*
X193519001Y-142849999D02*
X193278999Y-143090001D01*
X193278999Y-143090001D02*
X192517000Y-143852000D01*
X220724999Y-142849999D02*
X193519001Y-142849999D01*
X221727000Y-143852000D02*
X220724999Y-142849999D01*
X164309001Y-142849999D02*
X164068999Y-143090001D01*
X164068999Y-143090001D02*
X163307000Y-143852000D01*
X191514999Y-142849999D02*
X164309001Y-142849999D01*
X192517000Y-143852000D02*
X191514999Y-142849999D01*
X134768999Y-143090001D02*
X134007000Y-143852000D01*
X135009001Y-142849999D02*
X134768999Y-143090001D01*
X162304999Y-142849999D02*
X135009001Y-142849999D01*
X163307000Y-143852000D02*
X162304999Y-142849999D01*
X105468999Y-143090001D02*
X104707000Y-143852000D01*
X105709001Y-142849999D02*
X105468999Y-143090001D01*
X133004999Y-142849999D02*
X105709001Y-142849999D01*
X134007000Y-143852000D02*
X133004999Y-142849999D01*
X76168999Y-143090001D02*
X75407000Y-143852000D01*
X76409001Y-142849999D02*
X76168999Y-143090001D01*
X103704999Y-142849999D02*
X76409001Y-142849999D01*
X104707000Y-143852000D02*
X103704999Y-142849999D01*
X47109001Y-142849999D02*
X46868999Y-143090001D01*
X74404999Y-142849999D02*
X47109001Y-142849999D01*
X46868999Y-143090001D02*
X46107000Y-143852000D01*
X75407000Y-143852000D02*
X74404999Y-142849999D01*
X249399001Y-144854001D02*
X249158999Y-144613999D01*
X276604999Y-144854001D02*
X249399001Y-144854001D01*
X249158999Y-144613999D02*
X248397000Y-143852000D01*
X277607000Y-143852000D02*
X276604999Y-144854001D01*
X219948999Y-144613999D02*
X219187000Y-143852000D01*
X220189001Y-144854001D02*
X219948999Y-144613999D01*
X247394999Y-144854001D02*
X220189001Y-144854001D01*
X248397000Y-143852000D02*
X247394999Y-144854001D01*
X190738999Y-144613999D02*
X189977000Y-143852000D01*
X190979001Y-144854001D02*
X190738999Y-144613999D01*
X218184999Y-144854001D02*
X190979001Y-144854001D01*
X219187000Y-143852000D02*
X218184999Y-144854001D01*
X161528999Y-144613999D02*
X160767000Y-143852000D01*
X161769001Y-144854001D02*
X161528999Y-144613999D01*
X188974999Y-144854001D02*
X161769001Y-144854001D01*
X189977000Y-143852000D02*
X188974999Y-144854001D01*
X132469001Y-144854001D02*
X132228999Y-144613999D01*
X132228999Y-144613999D02*
X131467000Y-143852000D01*
X159764999Y-144854001D02*
X132469001Y-144854001D01*
X160767000Y-143852000D02*
X159764999Y-144854001D01*
X103169001Y-144854001D02*
X102928999Y-144613999D01*
X130464999Y-144854001D02*
X103169001Y-144854001D01*
X102928999Y-144613999D02*
X102167000Y-143852000D01*
X131467000Y-143852000D02*
X130464999Y-144854001D01*
X73628999Y-144613999D02*
X72867000Y-143852000D01*
X73869001Y-144854001D02*
X73628999Y-144613999D01*
X101164999Y-144854001D02*
X73869001Y-144854001D01*
X102167000Y-143852000D02*
X101164999Y-144854001D01*
X44328999Y-144613999D02*
X43567000Y-143852000D01*
X44569001Y-144854001D02*
X44328999Y-144613999D01*
X71864999Y-144854001D02*
X44569001Y-144854001D01*
X72867000Y-143852000D02*
X71864999Y-144854001D01*
X278929011Y-140094011D02*
X252154989Y-140094011D01*
X252154989Y-140094011D02*
X250937000Y-141312000D01*
X280147000Y-141312000D02*
X278929011Y-140094011D01*
X250175001Y-140550001D02*
X250937000Y-141312000D01*
X222729001Y-140309999D02*
X249934999Y-140309999D01*
X249934999Y-140309999D02*
X250175001Y-140550001D01*
X221727000Y-141312000D02*
X222729001Y-140309999D01*
X193519001Y-140309999D02*
X193278999Y-140550001D01*
X193278999Y-140550001D02*
X192517000Y-141312000D01*
X220724999Y-140309999D02*
X193519001Y-140309999D01*
X221727000Y-141312000D02*
X220724999Y-140309999D01*
X164068999Y-140550001D02*
X163307000Y-141312000D01*
X164309001Y-140309999D02*
X164068999Y-140550001D01*
X191514999Y-140309999D02*
X164309001Y-140309999D01*
X192517000Y-141312000D02*
X191514999Y-140309999D01*
X134768999Y-140550001D02*
X134007000Y-141312000D01*
X162304999Y-140309999D02*
X135009001Y-140309999D01*
X135009001Y-140309999D02*
X134768999Y-140550001D01*
X163307000Y-141312000D02*
X162304999Y-140309999D01*
X105468999Y-140550001D02*
X104707000Y-141312000D01*
X105709001Y-140309999D02*
X105468999Y-140550001D01*
X133004999Y-140309999D02*
X105709001Y-140309999D01*
X134007000Y-141312000D02*
X133004999Y-140309999D01*
X103704999Y-140309999D02*
X76409001Y-140309999D01*
X76168999Y-140550001D02*
X75407000Y-141312000D01*
X76409001Y-140309999D02*
X76168999Y-140550001D01*
X104707000Y-141312000D02*
X103704999Y-140309999D01*
X46868999Y-140550001D02*
X46107000Y-141312000D01*
X47109001Y-140309999D02*
X46868999Y-140550001D01*
X74329370Y-141312000D02*
X73327369Y-140309999D01*
X73327369Y-140309999D02*
X47109001Y-140309999D01*
X75407000Y-141312000D02*
X74329370Y-141312000D01*
X249158999Y-142073999D02*
X248397000Y-141312000D01*
X249399001Y-142314001D02*
X249158999Y-142073999D01*
X276604999Y-142314001D02*
X249399001Y-142314001D01*
X277607000Y-141312000D02*
X276604999Y-142314001D01*
X219948999Y-142073999D02*
X219187000Y-141312000D01*
X220189001Y-142314001D02*
X219948999Y-142073999D01*
X247394999Y-142314001D02*
X220189001Y-142314001D01*
X248397000Y-141312000D02*
X247394999Y-142314001D01*
X190738999Y-142073999D02*
X189977000Y-141312000D01*
X190979001Y-142314001D02*
X190738999Y-142073999D01*
X218184999Y-142314001D02*
X190979001Y-142314001D01*
X219187000Y-141312000D02*
X218184999Y-142314001D01*
X161528999Y-142073999D02*
X160767000Y-141312000D01*
X161769001Y-142314001D02*
X161528999Y-142073999D01*
X188974999Y-142314001D02*
X161769001Y-142314001D01*
X189977000Y-141312000D02*
X188974999Y-142314001D01*
X132228999Y-142073999D02*
X131467000Y-141312000D01*
X132469001Y-142314001D02*
X132228999Y-142073999D01*
X159764999Y-142314001D02*
X132469001Y-142314001D01*
X160767000Y-141312000D02*
X159764999Y-142314001D01*
X102928999Y-142073999D02*
X102167000Y-141312000D01*
X103169001Y-142314001D02*
X102928999Y-142073999D01*
X130464999Y-142314001D02*
X103169001Y-142314001D01*
X131467000Y-141312000D02*
X130464999Y-142314001D01*
X73628999Y-142073999D02*
X72867000Y-141312000D01*
X73869001Y-142314001D02*
X73628999Y-142073999D01*
X101164999Y-142314001D02*
X73869001Y-142314001D01*
X102167000Y-141312000D02*
X101164999Y-142314001D01*
X44569001Y-142314001D02*
X44328999Y-142073999D01*
X70787369Y-142314001D02*
X44569001Y-142314001D01*
X71789370Y-141312000D02*
X70787369Y-142314001D01*
X44328999Y-142073999D02*
X43567000Y-141312000D01*
X72867000Y-141312000D02*
X71789370Y-141312000D01*
X252154989Y-137554011D02*
X250937000Y-138772000D01*
X278929011Y-137554011D02*
X252154989Y-137554011D01*
X280147000Y-138772000D02*
X278929011Y-137554011D01*
X249934999Y-137769999D02*
X250175001Y-138010001D01*
X222729001Y-137769999D02*
X249934999Y-137769999D01*
X250175001Y-138010001D02*
X250937000Y-138772000D01*
X221727000Y-138772000D02*
X222729001Y-137769999D01*
X193278999Y-138010001D02*
X192517000Y-138772000D01*
X193519001Y-137769999D02*
X193278999Y-138010001D01*
X220724999Y-137769999D02*
X193519001Y-137769999D01*
X221727000Y-138772000D02*
X220724999Y-137769999D01*
X164068999Y-138010001D02*
X163307000Y-138772000D01*
X191514999Y-137769999D02*
X164309001Y-137769999D01*
X164309001Y-137769999D02*
X164068999Y-138010001D01*
X192517000Y-138772000D02*
X191514999Y-137769999D01*
X134768999Y-138010001D02*
X134007000Y-138772000D01*
X162304999Y-137769999D02*
X135009001Y-137769999D01*
X135009001Y-137769999D02*
X134768999Y-138010001D01*
X163307000Y-138772000D02*
X162304999Y-137769999D01*
X105468999Y-138010001D02*
X104707000Y-138772000D01*
X105709001Y-137769999D02*
X105468999Y-138010001D01*
X133004999Y-137769999D02*
X105709001Y-137769999D01*
X134007000Y-138772000D02*
X133004999Y-137769999D01*
X76409001Y-137769999D02*
X76168999Y-138010001D01*
X103704999Y-137769999D02*
X76409001Y-137769999D01*
X76168999Y-138010001D02*
X75407000Y-138772000D01*
X104707000Y-138772000D02*
X103704999Y-137769999D01*
X46868999Y-138010001D02*
X46107000Y-138772000D01*
X47109001Y-137769999D02*
X46868999Y-138010001D01*
X74404999Y-137769999D02*
X47109001Y-137769999D01*
X75407000Y-138772000D02*
X74404999Y-137769999D01*
X249158999Y-139533999D02*
X248397000Y-138772000D01*
X276604999Y-139774001D02*
X249399001Y-139774001D01*
X249399001Y-139774001D02*
X249158999Y-139533999D01*
X277607000Y-138772000D02*
X276604999Y-139774001D01*
X220189001Y-139774001D02*
X219948999Y-139533999D01*
X219948999Y-139533999D02*
X219187000Y-138772000D01*
X247394999Y-139774001D02*
X220189001Y-139774001D01*
X248397000Y-138772000D02*
X247394999Y-139774001D01*
X190738999Y-139533999D02*
X189977000Y-138772000D01*
X190979001Y-139774001D02*
X190738999Y-139533999D01*
X218184999Y-139774001D02*
X190979001Y-139774001D01*
X219187000Y-138772000D02*
X218184999Y-139774001D01*
X161528999Y-139533999D02*
X160767000Y-138772000D01*
X161769001Y-139774001D02*
X161528999Y-139533999D01*
X188974999Y-139774001D02*
X161769001Y-139774001D01*
X189977000Y-138772000D02*
X188974999Y-139774001D01*
X132228999Y-139533999D02*
X131467000Y-138772000D01*
X132469001Y-139774001D02*
X132228999Y-139533999D01*
X159764999Y-139774001D02*
X132469001Y-139774001D01*
X160767000Y-138772000D02*
X159764999Y-139774001D01*
X103169001Y-139774001D02*
X102928999Y-139533999D01*
X130464999Y-139774001D02*
X103169001Y-139774001D01*
X102928999Y-139533999D02*
X102167000Y-138772000D01*
X131467000Y-138772000D02*
X130464999Y-139774001D01*
X73628999Y-139533999D02*
X72867000Y-138772000D01*
X73869001Y-139774001D02*
X73628999Y-139533999D01*
X101164999Y-139774001D02*
X73869001Y-139774001D01*
X102167000Y-138772000D02*
X101164999Y-139774001D01*
X71864999Y-139774001D02*
X44569001Y-139774001D01*
X44328999Y-139533999D02*
X43567000Y-138772000D01*
X44569001Y-139774001D02*
X44328999Y-139533999D01*
X72867000Y-138772000D02*
X71864999Y-139774001D01*
X252154989Y-135014011D02*
X250937000Y-136232000D01*
X278929011Y-135014011D02*
X252154989Y-135014011D01*
X280147000Y-136232000D02*
X278929011Y-135014011D01*
X222729001Y-135229999D02*
X222488999Y-135470001D01*
X222488999Y-135470001D02*
X221727000Y-136232000D01*
X249934999Y-135229999D02*
X222729001Y-135229999D01*
X250937000Y-136232000D02*
X249934999Y-135229999D01*
X193278999Y-135470001D02*
X192517000Y-136232000D01*
X193519001Y-135229999D02*
X193278999Y-135470001D01*
X220724999Y-135229999D02*
X193519001Y-135229999D01*
X221727000Y-136232000D02*
X220724999Y-135229999D01*
X164309001Y-135229999D02*
X164068999Y-135470001D01*
X164068999Y-135470001D02*
X163307000Y-136232000D01*
X191514999Y-135229999D02*
X164309001Y-135229999D01*
X192517000Y-136232000D02*
X191514999Y-135229999D01*
X135009001Y-135229999D02*
X134768999Y-135470001D01*
X134768999Y-135470001D02*
X134007000Y-136232000D01*
X162304999Y-135229999D02*
X135009001Y-135229999D01*
X163307000Y-136232000D02*
X162304999Y-135229999D01*
X105468999Y-135470001D02*
X104707000Y-136232000D01*
X105709001Y-135229999D02*
X105468999Y-135470001D01*
X133004999Y-135229999D02*
X105709001Y-135229999D01*
X134007000Y-136232000D02*
X133004999Y-135229999D01*
X76168999Y-135470001D02*
X75407000Y-136232000D01*
X76409001Y-135229999D02*
X76168999Y-135470001D01*
X103704999Y-135229999D02*
X76409001Y-135229999D01*
X104707000Y-136232000D02*
X103704999Y-135229999D01*
X46868999Y-135470001D02*
X46107000Y-136232000D01*
X73327369Y-135229999D02*
X47109001Y-135229999D01*
X74329370Y-136232000D02*
X73327369Y-135229999D01*
X47109001Y-135229999D02*
X46868999Y-135470001D01*
X75407000Y-136232000D02*
X74329370Y-136232000D01*
X249158999Y-136993999D02*
X248397000Y-136232000D01*
X249399001Y-137234001D02*
X249158999Y-136993999D01*
X276604999Y-137234001D02*
X249399001Y-137234001D01*
X277607000Y-136232000D02*
X276604999Y-137234001D01*
X190738999Y-136993999D02*
X189977000Y-136232000D01*
X190979001Y-137234001D02*
X190738999Y-136993999D01*
X218184999Y-137234001D02*
X190979001Y-137234001D01*
X219187000Y-136232000D02*
X218184999Y-137234001D01*
X161528999Y-136993999D02*
X160767000Y-136232000D01*
X161769001Y-137234001D02*
X161528999Y-136993999D01*
X188974999Y-137234001D02*
X161769001Y-137234001D01*
X189977000Y-136232000D02*
X188974999Y-137234001D01*
X247635001Y-136993999D02*
X248397000Y-136232000D01*
X247394999Y-137234001D02*
X247635001Y-136993999D01*
X220189001Y-137234001D02*
X247394999Y-137234001D01*
X219187000Y-136232000D02*
X220189001Y-137234001D01*
X132228999Y-136993999D02*
X131467000Y-136232000D01*
X132469001Y-137234001D02*
X132228999Y-136993999D01*
X158687369Y-137234001D02*
X132469001Y-137234001D01*
X159689370Y-136232000D02*
X158687369Y-137234001D01*
X160767000Y-136232000D02*
X159689370Y-136232000D01*
X130464999Y-137234001D02*
X103169001Y-137234001D01*
X102928999Y-136993999D02*
X102167000Y-136232000D01*
X103169001Y-137234001D02*
X102928999Y-136993999D01*
X131467000Y-136232000D02*
X130464999Y-137234001D01*
X73869001Y-137234001D02*
X73628999Y-136993999D01*
X73628999Y-136993999D02*
X72867000Y-136232000D01*
X101164999Y-137234001D02*
X73869001Y-137234001D01*
X102167000Y-136232000D02*
X101164999Y-137234001D01*
X44328999Y-136993999D02*
X43567000Y-136232000D01*
X44569001Y-137234001D02*
X44328999Y-136993999D01*
X71864999Y-137234001D02*
X44569001Y-137234001D01*
X72867000Y-136232000D02*
X71864999Y-137234001D01*
X252154989Y-132474011D02*
X250937000Y-133692000D01*
X278929011Y-132474011D02*
X252154989Y-132474011D01*
X280147000Y-133692000D02*
X278929011Y-132474011D01*
X250175001Y-132930001D02*
X250937000Y-133692000D01*
X222729001Y-132689999D02*
X249934999Y-132689999D01*
X249934999Y-132689999D02*
X250175001Y-132930001D01*
X221727000Y-133692000D02*
X222729001Y-132689999D01*
X193519001Y-132689999D02*
X193278999Y-132930001D01*
X193278999Y-132930001D02*
X192517000Y-133692000D01*
X220724999Y-132689999D02*
X193519001Y-132689999D01*
X221727000Y-133692000D02*
X220724999Y-132689999D01*
X164068999Y-132930001D02*
X163307000Y-133692000D01*
X164524989Y-132474011D02*
X164068999Y-132930001D01*
X191299011Y-132474011D02*
X164524989Y-132474011D01*
X192517000Y-133692000D02*
X191299011Y-132474011D01*
X135009001Y-132689999D02*
X134768999Y-132930001D01*
X134768999Y-132930001D02*
X134007000Y-133692000D01*
X162304999Y-132689999D02*
X135009001Y-132689999D01*
X163307000Y-133692000D02*
X162304999Y-132689999D01*
X105468999Y-132930001D02*
X104707000Y-133692000D01*
X105709001Y-132689999D02*
X105468999Y-132930001D01*
X131927369Y-132689999D02*
X105709001Y-132689999D01*
X132929370Y-133692000D02*
X131927369Y-132689999D01*
X134007000Y-133692000D02*
X132929370Y-133692000D01*
X76168999Y-132930001D02*
X75407000Y-133692000D01*
X76409001Y-132689999D02*
X76168999Y-132930001D01*
X103704999Y-132689999D02*
X76409001Y-132689999D01*
X104707000Y-133692000D02*
X103704999Y-132689999D01*
X46868999Y-132930001D02*
X46107000Y-133692000D01*
X74404999Y-132689999D02*
X47109001Y-132689999D01*
X47109001Y-132689999D02*
X46868999Y-132930001D01*
X75407000Y-133692000D02*
X74404999Y-132689999D01*
X249158999Y-134453999D02*
X248397000Y-133692000D01*
X249399001Y-134694001D02*
X249158999Y-134453999D01*
X276604999Y-134694001D02*
X249399001Y-134694001D01*
X277607000Y-133692000D02*
X276604999Y-134694001D01*
X190738999Y-134453999D02*
X189977000Y-133692000D01*
X190979001Y-134694001D02*
X190738999Y-134453999D01*
X218184999Y-134694001D02*
X190979001Y-134694001D01*
X219187000Y-133692000D02*
X218184999Y-134694001D01*
X161528999Y-134453999D02*
X160767000Y-133692000D01*
X161769001Y-134694001D02*
X161528999Y-134453999D01*
X188974999Y-134694001D02*
X161769001Y-134694001D01*
X189977000Y-133692000D02*
X188974999Y-134694001D01*
X220189001Y-134694001D02*
X219948999Y-134453999D01*
X219948999Y-134453999D02*
X219187000Y-133692000D01*
X248397000Y-133692000D02*
X247394999Y-134694001D01*
X247394999Y-134694001D02*
X220189001Y-134694001D01*
X132469001Y-134694001D02*
X132228999Y-134453999D01*
X132228999Y-134453999D02*
X131467000Y-133692000D01*
X159764999Y-134694001D02*
X132469001Y-134694001D01*
X160767000Y-133692000D02*
X159764999Y-134694001D01*
X102928999Y-134453999D02*
X102167000Y-133692000D01*
X103169001Y-134694001D02*
X102928999Y-134453999D01*
X130464999Y-134694001D02*
X103169001Y-134694001D01*
X131467000Y-133692000D02*
X130464999Y-134694001D01*
X73869001Y-134694001D02*
X73628999Y-134453999D01*
X73628999Y-134453999D02*
X72867000Y-133692000D01*
X101164999Y-134694001D02*
X73869001Y-134694001D01*
X102167000Y-133692000D02*
X101164999Y-134694001D01*
X44328999Y-134453999D02*
X43567000Y-133692000D01*
X44569001Y-134694001D02*
X44328999Y-134453999D01*
X71864999Y-134694001D02*
X44569001Y-134694001D01*
X72867000Y-133692000D02*
X71864999Y-134694001D01*
X252154989Y-129934011D02*
X250937000Y-131152000D01*
X280147000Y-131152000D02*
X278929011Y-129934011D01*
X222729001Y-130149999D02*
X222488999Y-130390001D01*
X222488999Y-130390001D02*
X221727000Y-131152000D01*
X250937000Y-131152000D02*
X249934999Y-130149999D01*
X252154989Y-129934011D02*
X278929011Y-129934011D01*
X249934999Y-130149999D02*
X222729001Y-130149999D01*
X220724999Y-130149999D02*
X221727000Y-131152000D01*
X193519001Y-130149999D02*
X220724999Y-130149999D01*
X192517000Y-131152000D02*
X193519001Y-130149999D01*
X164309001Y-130149999D02*
X163307000Y-131152000D01*
X191514999Y-130149999D02*
X164309001Y-130149999D01*
X192517000Y-131152000D02*
X191514999Y-130149999D01*
X135009001Y-130149999D02*
X134768999Y-130390001D01*
X134768999Y-130390001D02*
X134007000Y-131152000D01*
X161227369Y-130149999D02*
X135009001Y-130149999D01*
X162229370Y-131152000D02*
X161227369Y-130149999D01*
X163307000Y-131152000D02*
X162229370Y-131152000D01*
X105468999Y-130390001D02*
X104707000Y-131152000D01*
X105709001Y-130149999D02*
X105468999Y-130390001D01*
X133004999Y-130149999D02*
X105709001Y-130149999D01*
X134007000Y-131152000D02*
X133004999Y-130149999D01*
X76168999Y-130390001D02*
X75407000Y-131152000D01*
X76409001Y-130149999D02*
X76168999Y-130390001D01*
X103704999Y-130149999D02*
X76409001Y-130149999D01*
X104707000Y-131152000D02*
X103704999Y-130149999D01*
X46868999Y-130390001D02*
X46107000Y-131152000D01*
X47109001Y-130149999D02*
X46868999Y-130390001D01*
X74404999Y-130149999D02*
X47109001Y-130149999D01*
X75407000Y-131152000D02*
X74404999Y-130149999D01*
X249399001Y-132154001D02*
X249158999Y-131913999D01*
X249158999Y-131913999D02*
X248397000Y-131152000D01*
X276604999Y-132154001D02*
X249399001Y-132154001D01*
X277607000Y-131152000D02*
X276604999Y-132154001D01*
X219948999Y-131913999D02*
X219187000Y-131152000D01*
X220189001Y-132154001D02*
X219948999Y-131913999D01*
X247394999Y-132154001D02*
X220189001Y-132154001D01*
X248397000Y-131152000D02*
X247394999Y-132154001D01*
X190738999Y-131913999D02*
X189977000Y-131152000D01*
X190979001Y-132154001D02*
X190738999Y-131913999D01*
X218184999Y-132154001D02*
X190979001Y-132154001D01*
X219187000Y-131152000D02*
X218184999Y-132154001D01*
X161769001Y-132154001D02*
X161528999Y-131913999D01*
X161528999Y-131913999D02*
X160767000Y-131152000D01*
X188974999Y-132154001D02*
X161769001Y-132154001D01*
X189977000Y-131152000D02*
X188974999Y-132154001D01*
X132228999Y-131913999D02*
X131467000Y-131152000D01*
X159764999Y-132154001D02*
X132469001Y-132154001D01*
X132469001Y-132154001D02*
X132228999Y-131913999D01*
X160767000Y-131152000D02*
X159764999Y-132154001D01*
X102928999Y-131913999D02*
X102167000Y-131152000D01*
X130464999Y-132154001D02*
X103169001Y-132154001D01*
X103169001Y-132154001D02*
X102928999Y-131913999D01*
X131467000Y-131152000D02*
X130464999Y-132154001D01*
X73628999Y-131913999D02*
X72867000Y-131152000D01*
X101164999Y-132154001D02*
X73869001Y-132154001D01*
X73869001Y-132154001D02*
X73628999Y-131913999D01*
X102167000Y-131152000D02*
X101164999Y-132154001D01*
X44328999Y-131913999D02*
X43567000Y-131152000D01*
X70787369Y-132154001D02*
X44569001Y-132154001D01*
X44569001Y-132154001D02*
X44328999Y-131913999D01*
X71789370Y-131152000D02*
X70787369Y-132154001D01*
X72867000Y-131152000D02*
X71789370Y-131152000D01*
X12495001Y-74709999D02*
X12915000Y-74290000D01*
X12920000Y-90310000D02*
X14500000Y-88730000D01*
X11969990Y-75235010D02*
X12495001Y-74709999D01*
X11969990Y-81469990D02*
X11969990Y-75235010D01*
X14500000Y-84000000D02*
X11969990Y-81469990D01*
X14500000Y-88730000D02*
X14500000Y-84000000D01*
X13632553Y-71679991D02*
X15000000Y-73047438D01*
X11179991Y-72867447D02*
X12367448Y-71679990D01*
X11179991Y-86029991D02*
X11179991Y-72867447D01*
X12367448Y-71679990D02*
X13632553Y-71679991D01*
X12920000Y-87770000D02*
X11179991Y-86029991D01*
X15000000Y-73855000D02*
X13915000Y-74940000D01*
X15000000Y-73047438D02*
X15000000Y-73855000D01*
D32*
X25295000Y-147560000D02*
X27309000Y-149574000D01*
X27309000Y-149574000D02*
X32611000Y-149574000D01*
X27805000Y-113940000D02*
X25955000Y-113940000D01*
X34187010Y-120322010D02*
X27805000Y-113940000D01*
X34187010Y-147997990D02*
X34187010Y-120322010D01*
X32611000Y-149574000D02*
X34187010Y-147997990D01*
D30*
X190979001Y-121594001D02*
X190738999Y-121353999D01*
X218184999Y-121594001D02*
X190979001Y-121594001D01*
X190738999Y-121353999D02*
X189977000Y-120592000D01*
X219187000Y-120592000D02*
X218184999Y-121594001D01*
X188974999Y-121594001D02*
X161769001Y-121594001D01*
X161528999Y-121353999D02*
X160767000Y-120592000D01*
X161769001Y-121594001D02*
X161528999Y-121353999D01*
X189977000Y-120592000D02*
X188974999Y-121594001D01*
X247394999Y-121594001D02*
X220189001Y-121594001D01*
X248397000Y-120592000D02*
X247394999Y-121594001D01*
X220189001Y-121594001D02*
X219948999Y-121353999D01*
X219948999Y-121353999D02*
X219187000Y-120592000D01*
X132228999Y-121353999D02*
X131467000Y-120592000D01*
X132469001Y-121594001D02*
X132228999Y-121353999D01*
X159764999Y-121594001D02*
X132469001Y-121594001D01*
X160767000Y-120592000D02*
X159764999Y-121594001D01*
X102928999Y-121353999D02*
X102167000Y-120592000D01*
X103169001Y-121594001D02*
X102928999Y-121353999D01*
X130464999Y-121594001D02*
X103169001Y-121594001D01*
X131467000Y-120592000D02*
X130464999Y-121594001D01*
X73869001Y-121594001D02*
X73628999Y-121353999D01*
X73628999Y-121353999D02*
X72867000Y-120592000D01*
X101164999Y-121594001D02*
X73869001Y-121594001D01*
X102167000Y-120592000D02*
X101164999Y-121594001D01*
X44328999Y-121353999D02*
X43567000Y-120592000D01*
X70787369Y-121594001D02*
X44569001Y-121594001D01*
X71789370Y-120592000D02*
X70787369Y-121594001D01*
X44569001Y-121594001D02*
X44328999Y-121353999D01*
X72867000Y-120592000D02*
X71789370Y-120592000D01*
X219948999Y-123893999D02*
X219187000Y-123132000D01*
X220189001Y-124134001D02*
X219948999Y-123893999D01*
X247394999Y-124134001D02*
X220189001Y-124134001D01*
X248397000Y-123132000D02*
X247394999Y-124134001D01*
X190738999Y-123893999D02*
X189977000Y-123132000D01*
X190979001Y-124134001D02*
X190738999Y-123893999D01*
X218184999Y-124134001D02*
X190979001Y-124134001D01*
X219187000Y-123132000D02*
X218184999Y-124134001D01*
X161528999Y-123893999D02*
X160767000Y-123132000D01*
X161769001Y-124134001D02*
X161528999Y-123893999D01*
X188974999Y-124134001D02*
X161769001Y-124134001D01*
X189977000Y-123132000D02*
X188974999Y-124134001D01*
X132228999Y-123893999D02*
X131467000Y-123132000D01*
X132469001Y-124134001D02*
X132228999Y-123893999D01*
X159764999Y-124134001D02*
X132469001Y-124134001D01*
X160767000Y-123132000D02*
X159764999Y-124134001D01*
X103169001Y-124134001D02*
X102928999Y-123893999D01*
X130464999Y-124134001D02*
X103169001Y-124134001D01*
X102928999Y-123893999D02*
X102167000Y-123132000D01*
X131467000Y-123132000D02*
X130464999Y-124134001D01*
X73869001Y-124134001D02*
X73628999Y-123893999D01*
X73628999Y-123893999D02*
X72867000Y-123132000D01*
X101164999Y-124134001D02*
X73869001Y-124134001D01*
X102167000Y-123132000D02*
X101164999Y-124134001D01*
X44328999Y-123893999D02*
X43567000Y-123132000D01*
X44569001Y-124134001D02*
X44328999Y-123893999D01*
X71864999Y-124134001D02*
X44569001Y-124134001D01*
X72867000Y-123132000D02*
X71864999Y-124134001D01*
X222488999Y-122370001D02*
X221727000Y-123132000D01*
X222729001Y-122129999D02*
X222488999Y-122370001D01*
X249934999Y-122129999D02*
X222729001Y-122129999D01*
X250937000Y-123132000D02*
X249934999Y-122129999D01*
X193519001Y-122129999D02*
X193278999Y-122370001D01*
X220724999Y-122129999D02*
X193519001Y-122129999D01*
X193278999Y-122370001D02*
X192517000Y-123132000D01*
X221727000Y-123132000D02*
X220724999Y-122129999D01*
X164068999Y-122370001D02*
X163307000Y-123132000D01*
X164309001Y-122129999D02*
X164068999Y-122370001D01*
X191514999Y-122129999D02*
X164309001Y-122129999D01*
X192517000Y-123132000D02*
X191514999Y-122129999D01*
X134768999Y-122370001D02*
X134007000Y-123132000D01*
X135009001Y-122129999D02*
X134768999Y-122370001D01*
X162304999Y-122129999D02*
X135009001Y-122129999D01*
X163307000Y-123132000D02*
X162304999Y-122129999D01*
X105468999Y-122370001D02*
X104707000Y-123132000D01*
X105709001Y-122129999D02*
X105468999Y-122370001D01*
X133004999Y-122129999D02*
X105709001Y-122129999D01*
X134007000Y-123132000D02*
X133004999Y-122129999D01*
X76168999Y-122370001D02*
X75407000Y-123132000D01*
X76409001Y-122129999D02*
X76168999Y-122370001D01*
X103704999Y-122129999D02*
X76409001Y-122129999D01*
X104707000Y-123132000D02*
X103704999Y-122129999D01*
X47109001Y-122129999D02*
X46868999Y-122370001D01*
X74404999Y-122129999D02*
X47109001Y-122129999D01*
X46868999Y-122370001D02*
X46107000Y-123132000D01*
X75407000Y-123132000D02*
X74404999Y-122129999D01*
X222488999Y-119830001D02*
X221727000Y-120592000D01*
X222729001Y-119589999D02*
X222488999Y-119830001D01*
X249934999Y-119589999D02*
X222729001Y-119589999D01*
X250937000Y-120592000D02*
X249934999Y-119589999D01*
X193278999Y-119830001D02*
X192517000Y-120592000D01*
X193519001Y-119589999D02*
X193278999Y-119830001D01*
X220724999Y-119589999D02*
X193519001Y-119589999D01*
X221727000Y-120592000D02*
X220724999Y-119589999D01*
X164309001Y-119589999D02*
X164068999Y-119830001D01*
X191514999Y-119589999D02*
X164309001Y-119589999D01*
X164068999Y-119830001D02*
X163307000Y-120592000D01*
X192517000Y-120592000D02*
X191514999Y-119589999D01*
X134768999Y-119830001D02*
X134007000Y-120592000D01*
X135009001Y-119589999D02*
X134768999Y-119830001D01*
X162304999Y-119589999D02*
X135009001Y-119589999D01*
X163307000Y-120592000D02*
X162304999Y-119589999D01*
X105468999Y-119830001D02*
X104707000Y-120592000D01*
X105709001Y-119589999D02*
X105468999Y-119830001D01*
X132929370Y-120592000D02*
X131927369Y-119589999D01*
X131927369Y-119589999D02*
X105709001Y-119589999D01*
X134007000Y-120592000D02*
X132929370Y-120592000D01*
X76168999Y-119830001D02*
X75407000Y-120592000D01*
X103704999Y-119589999D02*
X76409001Y-119589999D01*
X76409001Y-119589999D02*
X76168999Y-119830001D01*
X104707000Y-120592000D02*
X103704999Y-119589999D01*
X46868999Y-119830001D02*
X46107000Y-120592000D01*
X47109001Y-119589999D02*
X46868999Y-119830001D01*
X74404999Y-119589999D02*
X47109001Y-119589999D01*
X75407000Y-120592000D02*
X74404999Y-119589999D01*
X222488999Y-117290001D02*
X221727000Y-118052000D01*
X249934999Y-117049999D02*
X222729001Y-117049999D01*
X222729001Y-117049999D02*
X222488999Y-117290001D01*
X250937000Y-118052000D02*
X249934999Y-117049999D01*
X193278999Y-117290001D02*
X192517000Y-118052000D01*
X193519001Y-117049999D02*
X193278999Y-117290001D01*
X220724999Y-117049999D02*
X193519001Y-117049999D01*
X221727000Y-118052000D02*
X220724999Y-117049999D01*
X164068999Y-117290001D02*
X163307000Y-118052000D01*
X164309001Y-117049999D02*
X164068999Y-117290001D01*
X191514999Y-117049999D02*
X164309001Y-117049999D01*
X192517000Y-118052000D02*
X191514999Y-117049999D01*
X135009001Y-117049999D02*
X134768999Y-117290001D01*
X161227369Y-117049999D02*
X135009001Y-117049999D01*
X134768999Y-117290001D02*
X134007000Y-118052000D01*
X162229370Y-118052000D02*
X161227369Y-117049999D01*
X163307000Y-118052000D02*
X162229370Y-118052000D01*
X105468999Y-117290001D02*
X104707000Y-118052000D01*
X105709001Y-117049999D02*
X105468999Y-117290001D01*
X131927369Y-117049999D02*
X105709001Y-117049999D01*
X132929370Y-118052000D02*
X131927369Y-117049999D01*
X134007000Y-118052000D02*
X132929370Y-118052000D01*
X76168999Y-117290001D02*
X75407000Y-118052000D01*
X76409001Y-117049999D02*
X76168999Y-117290001D01*
X103704999Y-117049999D02*
X76409001Y-117049999D01*
X104707000Y-118052000D02*
X103704999Y-117049999D01*
X47109001Y-117049999D02*
X46868999Y-117290001D01*
X74404999Y-117049999D02*
X47109001Y-117049999D01*
X46868999Y-117290001D02*
X46107000Y-118052000D01*
X75407000Y-118052000D02*
X74404999Y-117049999D01*
X222488999Y-114750001D02*
X221727000Y-115512000D01*
X222729001Y-114509999D02*
X222488999Y-114750001D01*
X249934999Y-114509999D02*
X222729001Y-114509999D01*
X250937000Y-115512000D02*
X249934999Y-114509999D01*
X193278999Y-114750001D02*
X192517000Y-115512000D01*
X193734989Y-114294011D02*
X193278999Y-114750001D01*
X220509011Y-114294011D02*
X193734989Y-114294011D01*
X221727000Y-115512000D02*
X220509011Y-114294011D01*
X164068999Y-114750001D02*
X163307000Y-115512000D01*
X164309001Y-114509999D02*
X164068999Y-114750001D01*
X191514999Y-114509999D02*
X164309001Y-114509999D01*
X192517000Y-115512000D02*
X191514999Y-114509999D01*
X135009001Y-114509999D02*
X134768999Y-114750001D01*
X134768999Y-114750001D02*
X134007000Y-115512000D01*
X162304999Y-114509999D02*
X135009001Y-114509999D01*
X163307000Y-115512000D02*
X162304999Y-114509999D01*
X105468999Y-114750001D02*
X104707000Y-115512000D01*
X105709001Y-114509999D02*
X105468999Y-114750001D01*
X133004999Y-114509999D02*
X105709001Y-114509999D01*
X134007000Y-115512000D02*
X133004999Y-114509999D01*
X76409001Y-114509999D02*
X76168999Y-114750001D01*
X76168999Y-114750001D02*
X75407000Y-115512000D01*
X102627369Y-114509999D02*
X76409001Y-114509999D01*
X103629370Y-115512000D02*
X102627369Y-114509999D01*
X104707000Y-115512000D02*
X103629370Y-115512000D01*
X46868999Y-114750001D02*
X46107000Y-115512000D01*
X47109001Y-114509999D02*
X46868999Y-114750001D01*
X74404999Y-114509999D02*
X47109001Y-114509999D01*
X75407000Y-115512000D02*
X74404999Y-114509999D01*
X222488999Y-112210001D02*
X221727000Y-112972000D01*
X222729001Y-111969999D02*
X222488999Y-112210001D01*
X249934999Y-111969999D02*
X222729001Y-111969999D01*
X250937000Y-112972000D02*
X249934999Y-111969999D01*
X193278999Y-112210001D02*
X192517000Y-112972000D01*
X193519001Y-111969999D02*
X193278999Y-112210001D01*
X220724999Y-111969999D02*
X193519001Y-111969999D01*
X221727000Y-112972000D02*
X220724999Y-111969999D01*
X164068999Y-112210001D02*
X163307000Y-112972000D01*
X164524989Y-111754011D02*
X164068999Y-112210001D01*
X191299011Y-111754011D02*
X164524989Y-111754011D01*
X192517000Y-112972000D02*
X191299011Y-111754011D01*
X134768999Y-112210001D02*
X134007000Y-112972000D01*
X135009001Y-111969999D02*
X134768999Y-112210001D01*
X161227369Y-111969999D02*
X135009001Y-111969999D01*
X162229370Y-112972000D02*
X161227369Y-111969999D01*
X163307000Y-112972000D02*
X162229370Y-112972000D01*
X131927369Y-111969999D02*
X105709001Y-111969999D01*
X105468999Y-112210001D02*
X104707000Y-112972000D01*
X105709001Y-111969999D02*
X105468999Y-112210001D01*
X132929370Y-112972000D02*
X131927369Y-111969999D01*
X134007000Y-112972000D02*
X132929370Y-112972000D01*
X76409001Y-111969999D02*
X76168999Y-112210001D01*
X76168999Y-112210001D02*
X75407000Y-112972000D01*
X102627369Y-111969999D02*
X76409001Y-111969999D01*
X103629370Y-112972000D02*
X102627369Y-111969999D01*
X104707000Y-112972000D02*
X103629370Y-112972000D01*
X46868999Y-112210001D02*
X46107000Y-112972000D01*
X47109001Y-111969999D02*
X46868999Y-112210001D01*
X74404999Y-111969999D02*
X47109001Y-111969999D01*
X75407000Y-112972000D02*
X74404999Y-111969999D01*
X222488999Y-109670001D02*
X221727000Y-110432000D01*
X222729001Y-109429999D02*
X222488999Y-109670001D01*
X249934999Y-109429999D02*
X222729001Y-109429999D01*
X250937000Y-110432000D02*
X249934999Y-109429999D01*
X193519001Y-109429999D02*
X193278999Y-109670001D01*
X220724999Y-109429999D02*
X193519001Y-109429999D01*
X193278999Y-109670001D02*
X192517000Y-110432000D01*
X221727000Y-110432000D02*
X220724999Y-109429999D01*
X164309001Y-109429999D02*
X164068999Y-109670001D01*
X164068999Y-109670001D02*
X163307000Y-110432000D01*
X191514999Y-109429999D02*
X164309001Y-109429999D01*
X192517000Y-110432000D02*
X191514999Y-109429999D01*
X134768999Y-109670001D02*
X134007000Y-110432000D01*
X162304999Y-109429999D02*
X135009001Y-109429999D01*
X135009001Y-109429999D02*
X134768999Y-109670001D01*
X163307000Y-110432000D02*
X162304999Y-109429999D01*
X105468999Y-109670001D02*
X104707000Y-110432000D01*
X131890370Y-109393000D02*
X105746000Y-109393000D01*
X105746000Y-109393000D02*
X105468999Y-109670001D01*
X132929370Y-110432000D02*
X131890370Y-109393000D01*
X134007000Y-110432000D02*
X132929370Y-110432000D01*
X76168999Y-109670001D02*
X75407000Y-110432000D01*
X76409001Y-109429999D02*
X76168999Y-109670001D01*
X102627369Y-109429999D02*
X76409001Y-109429999D01*
X103629370Y-110432000D02*
X102627369Y-109429999D01*
X104707000Y-110432000D02*
X103629370Y-110432000D01*
X47109001Y-109429999D02*
X46868999Y-109670001D01*
X73327369Y-109429999D02*
X47109001Y-109429999D01*
X74329370Y-110432000D02*
X73327369Y-109429999D01*
X46868999Y-109670001D02*
X46107000Y-110432000D01*
X75407000Y-110432000D02*
X74329370Y-110432000D01*
X249934999Y-106889999D02*
X222729001Y-106889999D01*
X222488999Y-107130001D02*
X221727000Y-107892000D01*
X222729001Y-106889999D02*
X222488999Y-107130001D01*
X250937000Y-107892000D02*
X249934999Y-106889999D01*
X193278999Y-107130001D02*
X192517000Y-107892000D01*
X193734989Y-106674011D02*
X193278999Y-107130001D01*
X220509011Y-106674011D02*
X193734989Y-106674011D01*
X221727000Y-107892000D02*
X220509011Y-106674011D01*
X164309001Y-106889999D02*
X164068999Y-107130001D01*
X164068999Y-107130001D02*
X163307000Y-107892000D01*
X191514999Y-106889999D02*
X164309001Y-106889999D01*
X192517000Y-107892000D02*
X191514999Y-106889999D01*
X135009001Y-106889999D02*
X134768999Y-107130001D01*
X161227369Y-106889999D02*
X135009001Y-106889999D01*
X134768999Y-107130001D02*
X134007000Y-107892000D01*
X162229370Y-107892000D02*
X161227369Y-106889999D01*
X163307000Y-107892000D02*
X162229370Y-107892000D01*
X105468999Y-107130001D02*
X104707000Y-107892000D01*
X105709001Y-106889999D02*
X105468999Y-107130001D01*
X133004999Y-106889999D02*
X105709001Y-106889999D01*
X134007000Y-107892000D02*
X133004999Y-106889999D01*
X76168999Y-107130001D02*
X75407000Y-107892000D01*
X76409001Y-106889999D02*
X76168999Y-107130001D01*
X103704999Y-106889999D02*
X76409001Y-106889999D01*
X104707000Y-107892000D02*
X103704999Y-106889999D01*
X46868999Y-107130001D02*
X46107000Y-107892000D01*
X47109001Y-106889999D02*
X46868999Y-107130001D01*
X74404999Y-106889999D02*
X47109001Y-106889999D01*
X75407000Y-107892000D02*
X74404999Y-106889999D01*
X222488999Y-104590001D02*
X221727000Y-105352000D01*
X222729001Y-104349999D02*
X222488999Y-104590001D01*
X249934999Y-104349999D02*
X222729001Y-104349999D01*
X250937000Y-105352000D02*
X249934999Y-104349999D01*
X193278999Y-104590001D02*
X192517000Y-105352000D01*
X193519001Y-104349999D02*
X193278999Y-104590001D01*
X220724999Y-104349999D02*
X193519001Y-104349999D01*
X221727000Y-105352000D02*
X220724999Y-104349999D01*
X164068999Y-104590001D02*
X163307000Y-105352000D01*
X191514999Y-104349999D02*
X164309001Y-104349999D01*
X164309001Y-104349999D02*
X164068999Y-104590001D01*
X192517000Y-105352000D02*
X191514999Y-104349999D01*
X134768999Y-104590001D02*
X134007000Y-105352000D01*
X135009001Y-104349999D02*
X134768999Y-104590001D01*
X162304999Y-104349999D02*
X135009001Y-104349999D01*
X163307000Y-105352000D02*
X162304999Y-104349999D01*
X105468999Y-104590001D02*
X104707000Y-105352000D01*
X105709001Y-104349999D02*
X105468999Y-104590001D01*
X133004999Y-104349999D02*
X105709001Y-104349999D01*
X134007000Y-105352000D02*
X133004999Y-104349999D01*
X76168999Y-104590001D02*
X75407000Y-105352000D01*
X102627369Y-104349999D02*
X76409001Y-104349999D01*
X103629370Y-105352000D02*
X102627369Y-104349999D01*
X76409001Y-104349999D02*
X76168999Y-104590001D01*
X104707000Y-105352000D02*
X103629370Y-105352000D01*
X46868999Y-104590001D02*
X46107000Y-105352000D01*
X47109001Y-104349999D02*
X46868999Y-104590001D01*
X74404999Y-104349999D02*
X47109001Y-104349999D01*
X75407000Y-105352000D02*
X74404999Y-104349999D01*
X222488999Y-102050001D02*
X221727000Y-102812000D01*
X249934999Y-101809999D02*
X222729001Y-101809999D01*
X222729001Y-101809999D02*
X222488999Y-102050001D01*
X250937000Y-102812000D02*
X249934999Y-101809999D01*
X193519001Y-101809999D02*
X192517000Y-102812000D01*
X220724999Y-101809999D02*
X193519001Y-101809999D01*
X221727000Y-102812000D02*
X220724999Y-101809999D01*
X164524989Y-101594011D02*
X164068999Y-102050001D01*
X191299011Y-101594011D02*
X164524989Y-101594011D01*
X164068999Y-102050001D02*
X163307000Y-102812000D01*
X192517000Y-102812000D02*
X191299011Y-101594011D01*
X134768999Y-102050001D02*
X134007000Y-102812000D01*
X135009001Y-101809999D02*
X134768999Y-102050001D01*
X161227369Y-101809999D02*
X135009001Y-101809999D01*
X162229370Y-102812000D02*
X161227369Y-101809999D01*
X163307000Y-102812000D02*
X162229370Y-102812000D01*
X105709001Y-101809999D02*
X105468999Y-102050001D01*
X105468999Y-102050001D02*
X104707000Y-102812000D01*
X133004999Y-101809999D02*
X105709001Y-101809999D01*
X134007000Y-102812000D02*
X133004999Y-101809999D01*
X76409001Y-101809999D02*
X76168999Y-102050001D01*
X103704999Y-101809999D02*
X76409001Y-101809999D01*
X76168999Y-102050001D02*
X75407000Y-102812000D01*
X104707000Y-102812000D02*
X103704999Y-101809999D01*
X46868999Y-102050001D02*
X46107000Y-102812000D01*
X47109001Y-101809999D02*
X46868999Y-102050001D01*
X74404999Y-101809999D02*
X47109001Y-101809999D01*
X75407000Y-102812000D02*
X74404999Y-101809999D01*
X222488999Y-99510001D02*
X221727000Y-100272000D01*
X222729001Y-99269999D02*
X222488999Y-99510001D01*
X249934999Y-99269999D02*
X222729001Y-99269999D01*
X250937000Y-100272000D02*
X249934999Y-99269999D01*
X193734989Y-99054011D02*
X193278999Y-99510001D01*
X220509011Y-99054011D02*
X193734989Y-99054011D01*
X193278999Y-99510001D02*
X192517000Y-100272000D01*
X221727000Y-100272000D02*
X220509011Y-99054011D01*
X164309001Y-99269999D02*
X164068999Y-99510001D01*
X164068999Y-99510001D02*
X163307000Y-100272000D01*
X191514999Y-99269999D02*
X164309001Y-99269999D01*
X192517000Y-100272000D02*
X191514999Y-99269999D01*
X134768999Y-99510001D02*
X134007000Y-100272000D01*
X135009001Y-99269999D02*
X134768999Y-99510001D01*
X162249962Y-100272000D02*
X161247961Y-99269999D01*
X161247961Y-99269999D02*
X135009001Y-99269999D01*
X163307000Y-100272000D02*
X162249962Y-100272000D01*
X105468999Y-99510001D02*
X104707000Y-100272000D01*
X105709001Y-99269999D02*
X105468999Y-99510001D01*
X133004999Y-99269999D02*
X105709001Y-99269999D01*
X134007000Y-100272000D02*
X133004999Y-99269999D01*
X76168999Y-99510001D02*
X75407000Y-100272000D01*
X76624989Y-99054011D02*
X76168999Y-99510001D01*
X103489011Y-99054011D02*
X76624989Y-99054011D01*
X104707000Y-100272000D02*
X103489011Y-99054011D01*
X47109001Y-99269999D02*
X46868999Y-99510001D01*
X74404999Y-99269999D02*
X47109001Y-99269999D01*
X46868999Y-99510001D02*
X46107000Y-100272000D01*
X75407000Y-100272000D02*
X74404999Y-99269999D01*
X222488999Y-96970001D02*
X221727000Y-97732000D01*
X222729001Y-96729999D02*
X222488999Y-96970001D01*
X249934999Y-96729999D02*
X222729001Y-96729999D01*
X250937000Y-97732000D02*
X249934999Y-96729999D01*
X193519001Y-96729999D02*
X193278999Y-96970001D01*
X220724999Y-96729999D02*
X193519001Y-96729999D01*
X193278999Y-96970001D02*
X192517000Y-97732000D01*
X221727000Y-97732000D02*
X220724999Y-96729999D01*
X191514999Y-96729999D02*
X164309001Y-96729999D01*
X164068999Y-96970001D02*
X163307000Y-97732000D01*
X164309001Y-96729999D02*
X164068999Y-96970001D01*
X192517000Y-97732000D02*
X191514999Y-96729999D01*
X134768999Y-96970001D02*
X134007000Y-97732000D01*
X135009001Y-96729999D02*
X134768999Y-96970001D01*
X162304999Y-96729999D02*
X135009001Y-96729999D01*
X163307000Y-97732000D02*
X162304999Y-96729999D01*
X105468999Y-96970001D02*
X104707000Y-97732000D01*
X105709001Y-96729999D02*
X105468999Y-96970001D01*
X133004999Y-96729999D02*
X105709001Y-96729999D01*
X134007000Y-97732000D02*
X133004999Y-96729999D01*
X76168999Y-96970001D02*
X75407000Y-97732000D01*
X76409001Y-96729999D02*
X76168999Y-96970001D01*
X103704999Y-96729999D02*
X76409001Y-96729999D01*
X104707000Y-97732000D02*
X103704999Y-96729999D01*
X46868999Y-96970001D02*
X46107000Y-97732000D01*
X47109001Y-96729999D02*
X46868999Y-96970001D01*
X74404999Y-96729999D02*
X47109001Y-96729999D01*
X75407000Y-97732000D02*
X74404999Y-96729999D01*
X222488999Y-94430001D02*
X221727000Y-95192000D01*
X222729001Y-94189999D02*
X222488999Y-94430001D01*
X249934999Y-94189999D02*
X222729001Y-94189999D01*
X250937000Y-95192000D02*
X249934999Y-94189999D01*
X193519001Y-94189999D02*
X193278999Y-94430001D01*
X220724999Y-94189999D02*
X193519001Y-94189999D01*
X193278999Y-94430001D02*
X192517000Y-95192000D01*
X221727000Y-95192000D02*
X220724999Y-94189999D01*
X164309001Y-94189999D02*
X164068999Y-94430001D01*
X191514999Y-94189999D02*
X164309001Y-94189999D01*
X164068999Y-94430001D02*
X163307000Y-95192000D01*
X192517000Y-95192000D02*
X191514999Y-94189999D01*
X134768999Y-94430001D02*
X134007000Y-95192000D01*
X135009001Y-94189999D02*
X134768999Y-94430001D01*
X162304999Y-94189999D02*
X135009001Y-94189999D01*
X163307000Y-95192000D02*
X162304999Y-94189999D01*
X105468999Y-94430001D02*
X104707000Y-95192000D01*
X105709001Y-94189999D02*
X105468999Y-94430001D01*
X133004999Y-94189999D02*
X105709001Y-94189999D01*
X134007000Y-95192000D02*
X133004999Y-94189999D01*
X76409001Y-94189999D02*
X76168999Y-94430001D01*
X103704999Y-94189999D02*
X76409001Y-94189999D01*
X76168999Y-94430001D02*
X75407000Y-95192000D01*
X104707000Y-95192000D02*
X103704999Y-94189999D01*
X46868999Y-94430001D02*
X46107000Y-95192000D01*
X47109001Y-94189999D02*
X46868999Y-94430001D01*
X74404999Y-94189999D02*
X47109001Y-94189999D01*
X75407000Y-95192000D02*
X74404999Y-94189999D01*
X222488999Y-91890001D02*
X221727000Y-92652000D01*
X249934999Y-91649999D02*
X222729001Y-91649999D01*
X222729001Y-91649999D02*
X222488999Y-91890001D01*
X250937000Y-92652000D02*
X249934999Y-91649999D01*
X193278999Y-91890001D02*
X192517000Y-92652000D01*
X193519001Y-91649999D02*
X193278999Y-91890001D01*
X220724999Y-91649999D02*
X193519001Y-91649999D01*
X221727000Y-92652000D02*
X220724999Y-91649999D01*
X164068999Y-91890001D02*
X163307000Y-92652000D01*
X164309001Y-91649999D02*
X164068999Y-91890001D01*
X191514999Y-91649999D02*
X164309001Y-91649999D01*
X192517000Y-92652000D02*
X191514999Y-91649999D01*
X134768999Y-91890001D02*
X134007000Y-92652000D01*
X162304999Y-91649999D02*
X135009001Y-91649999D01*
X135009001Y-91649999D02*
X134768999Y-91890001D01*
X163307000Y-92652000D02*
X162304999Y-91649999D01*
X105468999Y-91890001D02*
X104707000Y-92652000D01*
X105924989Y-91434011D02*
X105468999Y-91890001D01*
X131731973Y-91434011D02*
X105924989Y-91434011D01*
X132949962Y-92652000D02*
X131731973Y-91434011D01*
X134007000Y-92652000D02*
X132949962Y-92652000D01*
X76168999Y-91890001D02*
X75407000Y-92652000D01*
X76409001Y-91649999D02*
X76168999Y-91890001D01*
X103704999Y-91649999D02*
X76409001Y-91649999D01*
X104707000Y-92652000D02*
X103704999Y-91649999D01*
X47109001Y-91649999D02*
X46868999Y-91890001D01*
X46868999Y-91890001D02*
X46107000Y-92652000D01*
X74404999Y-91649999D02*
X47109001Y-91649999D01*
X75407000Y-92652000D02*
X74404999Y-91649999D01*
X222488999Y-89350001D02*
X221727000Y-90112000D01*
X222729001Y-89109999D02*
X222488999Y-89350001D01*
X249934999Y-89109999D02*
X222729001Y-89109999D01*
X250937000Y-90112000D02*
X249934999Y-89109999D01*
X193278999Y-89350001D02*
X192517000Y-90112000D01*
X220724999Y-89109999D02*
X193519001Y-89109999D01*
X193519001Y-89109999D02*
X193278999Y-89350001D01*
X221727000Y-90112000D02*
X220724999Y-89109999D01*
X164068999Y-89350001D02*
X163307000Y-90112000D01*
X164309001Y-89109999D02*
X164068999Y-89350001D01*
X191514999Y-89109999D02*
X164309001Y-89109999D01*
X192517000Y-90112000D02*
X191514999Y-89109999D01*
X134768999Y-89350001D02*
X134007000Y-90112000D01*
X135009001Y-89109999D02*
X134768999Y-89350001D01*
X162304999Y-89109999D02*
X135009001Y-89109999D01*
X163307000Y-90112000D02*
X162304999Y-89109999D01*
X105468999Y-89350001D02*
X104707000Y-90112000D01*
X105709001Y-89109999D02*
X105468999Y-89350001D01*
X133004999Y-89109999D02*
X105709001Y-89109999D01*
X134007000Y-90112000D02*
X133004999Y-89109999D01*
X76168999Y-89350001D02*
X75407000Y-90112000D01*
X103704999Y-89109999D02*
X76409001Y-89109999D01*
X76409001Y-89109999D02*
X76168999Y-89350001D01*
X104707000Y-90112000D02*
X103704999Y-89109999D01*
X46868999Y-89350001D02*
X46107000Y-90112000D01*
X47109001Y-89109999D02*
X46868999Y-89350001D01*
X74404999Y-89109999D02*
X47109001Y-89109999D01*
X75407000Y-90112000D02*
X74404999Y-89109999D01*
X219948999Y-83253999D02*
X219187000Y-82492000D01*
X247394999Y-83494001D02*
X220189001Y-83494001D01*
X220189001Y-83494001D02*
X219948999Y-83253999D01*
X248397000Y-82492000D02*
X247394999Y-83494001D01*
X190738999Y-83253999D02*
X189977000Y-82492000D01*
X190979001Y-83494001D02*
X190738999Y-83253999D01*
X218184999Y-83494001D02*
X190979001Y-83494001D01*
X219187000Y-82492000D02*
X218184999Y-83494001D01*
X161769001Y-83494001D02*
X161528999Y-83253999D01*
X161528999Y-83253999D02*
X160767000Y-82492000D01*
X188974999Y-83494001D02*
X161769001Y-83494001D01*
X189977000Y-82492000D02*
X188974999Y-83494001D01*
X132228999Y-83253999D02*
X131467000Y-82492000D01*
X132469001Y-83494001D02*
X132228999Y-83253999D01*
X159764999Y-83494001D02*
X132469001Y-83494001D01*
X160767000Y-82492000D02*
X159764999Y-83494001D01*
X102928999Y-83253999D02*
X102167000Y-82492000D01*
X103169001Y-83494001D02*
X102928999Y-83253999D01*
X130464999Y-83494001D02*
X103169001Y-83494001D01*
X131467000Y-82492000D02*
X130464999Y-83494001D01*
X73628999Y-83253999D02*
X72867000Y-82492000D01*
X73869001Y-83494001D02*
X73628999Y-83253999D01*
X101164999Y-83494001D02*
X73869001Y-83494001D01*
X102167000Y-82492000D02*
X101164999Y-83494001D01*
X44569001Y-83494001D02*
X44328999Y-83253999D01*
X71864999Y-83494001D02*
X44569001Y-83494001D01*
X44328999Y-83253999D02*
X43567000Y-82492000D01*
X72867000Y-82492000D02*
X71864999Y-83494001D01*
X219948999Y-80713999D02*
X219187000Y-79952000D01*
X220189001Y-80954001D02*
X219948999Y-80713999D01*
X247394999Y-80954001D02*
X220189001Y-80954001D01*
X248397000Y-79952000D02*
X247394999Y-80954001D01*
X190738999Y-80713999D02*
X189977000Y-79952000D01*
X190979001Y-80954001D02*
X190738999Y-80713999D01*
X218184999Y-80954001D02*
X190979001Y-80954001D01*
X219187000Y-79952000D02*
X218184999Y-80954001D01*
X161528999Y-80713999D02*
X160767000Y-79952000D01*
X161769001Y-80954001D02*
X161528999Y-80713999D01*
X188974999Y-80954001D02*
X161769001Y-80954001D01*
X189977000Y-79952000D02*
X188974999Y-80954001D01*
X132228999Y-80713999D02*
X131467000Y-79952000D01*
X132469001Y-80954001D02*
X132228999Y-80713999D01*
X159764999Y-80954001D02*
X132469001Y-80954001D01*
X160767000Y-79952000D02*
X159764999Y-80954001D01*
X102928999Y-80713999D02*
X102167000Y-79952000D01*
X130464999Y-80954001D02*
X103169001Y-80954001D01*
X103169001Y-80954001D02*
X102928999Y-80713999D01*
X131467000Y-79952000D02*
X130464999Y-80954001D01*
X73628999Y-80713999D02*
X72867000Y-79952000D01*
X73869001Y-80954001D02*
X73628999Y-80713999D01*
X101164999Y-80954001D02*
X73869001Y-80954001D01*
X102167000Y-79952000D02*
X101164999Y-80954001D01*
X44569001Y-80954001D02*
X44328999Y-80713999D01*
X71864999Y-80954001D02*
X44569001Y-80954001D01*
X44328999Y-80713999D02*
X43567000Y-79952000D01*
X72867000Y-79952000D02*
X71864999Y-80954001D01*
X219948999Y-78173999D02*
X219187000Y-77412000D01*
X220189001Y-78414001D02*
X219948999Y-78173999D01*
X247394999Y-78414001D02*
X220189001Y-78414001D01*
X248397000Y-77412000D02*
X247394999Y-78414001D01*
X190979001Y-78414001D02*
X190738999Y-78173999D01*
X190738999Y-78173999D02*
X189977000Y-77412000D01*
X218184999Y-78414001D02*
X190979001Y-78414001D01*
X219187000Y-77412000D02*
X218184999Y-78414001D01*
X161769001Y-78414001D02*
X161528999Y-78173999D01*
X188974999Y-78414001D02*
X161769001Y-78414001D01*
X161528999Y-78173999D02*
X160767000Y-77412000D01*
X189977000Y-77412000D02*
X188974999Y-78414001D01*
X132228999Y-78173999D02*
X131467000Y-77412000D01*
X132469001Y-78414001D02*
X132228999Y-78173999D01*
X158687369Y-78414001D02*
X132469001Y-78414001D01*
X159689370Y-77412000D02*
X158687369Y-78414001D01*
X160767000Y-77412000D02*
X159689370Y-77412000D01*
X102928999Y-78173999D02*
X102167000Y-77412000D01*
X103169001Y-78414001D02*
X102928999Y-78173999D01*
X129387369Y-78414001D02*
X103169001Y-78414001D01*
X130389370Y-77412000D02*
X129387369Y-78414001D01*
X131467000Y-77412000D02*
X130389370Y-77412000D01*
X73628999Y-78173999D02*
X72867000Y-77412000D01*
X73869001Y-78414001D02*
X73628999Y-78173999D01*
X101164999Y-78414001D02*
X73869001Y-78414001D01*
X102167000Y-77412000D02*
X101164999Y-78414001D01*
X44328999Y-78173999D02*
X43567000Y-77412000D01*
X44569001Y-78414001D02*
X44328999Y-78173999D01*
X71864999Y-78414001D02*
X44569001Y-78414001D01*
X72867000Y-77412000D02*
X71864999Y-78414001D01*
X219948999Y-75633999D02*
X219187000Y-74872000D01*
X220189001Y-75874001D02*
X219948999Y-75633999D01*
X247394999Y-75874001D02*
X220189001Y-75874001D01*
X248397000Y-74872000D02*
X247394999Y-75874001D01*
X190738999Y-75633999D02*
X189977000Y-74872000D01*
X190979001Y-75874001D02*
X190738999Y-75633999D01*
X218184999Y-75874001D02*
X190979001Y-75874001D01*
X219187000Y-74872000D02*
X218184999Y-75874001D01*
X161528999Y-75633999D02*
X160767000Y-74872000D01*
X161769001Y-75874001D02*
X161528999Y-75633999D01*
X188974999Y-75874001D02*
X161769001Y-75874001D01*
X189977000Y-74872000D02*
X188974999Y-75874001D01*
X132228999Y-75633999D02*
X131467000Y-74872000D01*
X158687369Y-75874001D02*
X132469001Y-75874001D01*
X132469001Y-75874001D02*
X132228999Y-75633999D01*
X159689370Y-74872000D02*
X158687369Y-75874001D01*
X160767000Y-74872000D02*
X159689370Y-74872000D01*
X102928999Y-75633999D02*
X102167000Y-74872000D01*
X103169001Y-75874001D02*
X102928999Y-75633999D01*
X130464999Y-75874001D02*
X103169001Y-75874001D01*
X131467000Y-74872000D02*
X130464999Y-75874001D01*
X73628999Y-75633999D02*
X72867000Y-74872000D01*
X101164999Y-75874001D02*
X73869001Y-75874001D01*
X73869001Y-75874001D02*
X73628999Y-75633999D01*
X102167000Y-74872000D02*
X101164999Y-75874001D01*
X44328999Y-75633999D02*
X43567000Y-74872000D01*
X44569001Y-75874001D02*
X44328999Y-75633999D01*
X71864999Y-75874001D02*
X44569001Y-75874001D01*
X72867000Y-74872000D02*
X71864999Y-75874001D01*
X219948999Y-73093999D02*
X219187000Y-72332000D01*
X247394999Y-73334001D02*
X220189001Y-73334001D01*
X220189001Y-73334001D02*
X219948999Y-73093999D01*
X248397000Y-72332000D02*
X247394999Y-73334001D01*
X190738999Y-73093999D02*
X189977000Y-72332000D01*
X190979001Y-73334001D02*
X190738999Y-73093999D01*
X218184999Y-73334001D02*
X190979001Y-73334001D01*
X219187000Y-72332000D02*
X218184999Y-73334001D01*
X161769001Y-73334001D02*
X161528999Y-73093999D01*
X161528999Y-73093999D02*
X160767000Y-72332000D01*
X188974999Y-73334001D02*
X161769001Y-73334001D01*
X189977000Y-72332000D02*
X188974999Y-73334001D01*
X132469001Y-73334001D02*
X132228999Y-73093999D01*
X159764999Y-73334001D02*
X132469001Y-73334001D01*
X132228999Y-73093999D02*
X131467000Y-72332000D01*
X160767000Y-72332000D02*
X159764999Y-73334001D01*
X102928999Y-73093999D02*
X102167000Y-72332000D01*
X130464999Y-73334001D02*
X103169001Y-73334001D01*
X103169001Y-73334001D02*
X102928999Y-73093999D01*
X131467000Y-72332000D02*
X130464999Y-73334001D01*
X100087369Y-73334001D02*
X73869001Y-73334001D01*
X73628999Y-73093999D02*
X72867000Y-72332000D01*
X73869001Y-73334001D02*
X73628999Y-73093999D01*
X101089370Y-72332000D02*
X100087369Y-73334001D01*
X102167000Y-72332000D02*
X101089370Y-72332000D01*
X44328999Y-73093999D02*
X43567000Y-72332000D01*
X44569001Y-73334001D02*
X44328999Y-73093999D01*
X71864999Y-73334001D02*
X44569001Y-73334001D01*
X72867000Y-72332000D02*
X71864999Y-73334001D01*
X219948999Y-70553999D02*
X219187000Y-69792000D01*
X220189001Y-70794001D02*
X219948999Y-70553999D01*
X247394999Y-70794001D02*
X220189001Y-70794001D01*
X248397000Y-69792000D02*
X247394999Y-70794001D01*
X190738999Y-70553999D02*
X189977000Y-69792000D01*
X190979001Y-70794001D02*
X190738999Y-70553999D01*
X218184999Y-70794001D02*
X190979001Y-70794001D01*
X219187000Y-69792000D02*
X218184999Y-70794001D01*
X161528999Y-70553999D02*
X160767000Y-69792000D01*
X161769001Y-70794001D02*
X161528999Y-70553999D01*
X188974999Y-70794001D02*
X161769001Y-70794001D01*
X189977000Y-69792000D02*
X188974999Y-70794001D01*
X132469001Y-70794001D02*
X132228999Y-70553999D01*
X159764999Y-70794001D02*
X132469001Y-70794001D01*
X132228999Y-70553999D02*
X131467000Y-69792000D01*
X160767000Y-69792000D02*
X159764999Y-70794001D01*
X102928999Y-70553999D02*
X102167000Y-69792000D01*
X130464999Y-70794001D02*
X103169001Y-70794001D01*
X103169001Y-70794001D02*
X102928999Y-70553999D01*
X131467000Y-69792000D02*
X130464999Y-70794001D01*
X73628999Y-70553999D02*
X72867000Y-69792000D01*
X73869001Y-70794001D02*
X73628999Y-70553999D01*
X101164999Y-70794001D02*
X73869001Y-70794001D01*
X102167000Y-69792000D02*
X101164999Y-70794001D01*
X44569001Y-70794001D02*
X44328999Y-70553999D01*
X44328999Y-70553999D02*
X43567000Y-69792000D01*
X71864999Y-70794001D02*
X44569001Y-70794001D01*
X72867000Y-69792000D02*
X71864999Y-70794001D01*
X219948999Y-68013999D02*
X219187000Y-67252000D01*
X220189001Y-68254001D02*
X219948999Y-68013999D01*
X247394999Y-68254001D02*
X220189001Y-68254001D01*
X248397000Y-67252000D02*
X247394999Y-68254001D01*
X190738999Y-68013999D02*
X189977000Y-67252000D01*
X218184999Y-68254001D02*
X190979001Y-68254001D01*
X190979001Y-68254001D02*
X190738999Y-68013999D01*
X219187000Y-67252000D02*
X218184999Y-68254001D01*
X161769001Y-68254001D02*
X161528999Y-68013999D01*
X188974999Y-68254001D02*
X161769001Y-68254001D01*
X161528999Y-68013999D02*
X160767000Y-67252000D01*
X189977000Y-67252000D02*
X188974999Y-68254001D01*
X159764999Y-68254001D02*
X132469001Y-68254001D01*
X132228999Y-68013999D02*
X131467000Y-67252000D01*
X132469001Y-68254001D02*
X132228999Y-68013999D01*
X160767000Y-67252000D02*
X159764999Y-68254001D01*
X102928999Y-68013999D02*
X102167000Y-67252000D01*
X103169001Y-68254001D02*
X102928999Y-68013999D01*
X130464999Y-68254001D02*
X103169001Y-68254001D01*
X131467000Y-67252000D02*
X130464999Y-68254001D01*
X73869001Y-68254001D02*
X73628999Y-68013999D01*
X101164999Y-68254001D02*
X73869001Y-68254001D01*
X73628999Y-68013999D02*
X72867000Y-67252000D01*
X102167000Y-67252000D02*
X101164999Y-68254001D01*
X44328999Y-68013999D02*
X43567000Y-67252000D01*
X44569001Y-68254001D02*
X44328999Y-68013999D01*
X71864999Y-68254001D02*
X44569001Y-68254001D01*
X72867000Y-67252000D02*
X71864999Y-68254001D01*
X219948999Y-65473999D02*
X219187000Y-64712000D01*
X220189001Y-65714001D02*
X219948999Y-65473999D01*
X247394999Y-65714001D02*
X220189001Y-65714001D01*
X248397000Y-64712000D02*
X247394999Y-65714001D01*
X190738999Y-65473999D02*
X189977000Y-64712000D01*
X190979001Y-65714001D02*
X190738999Y-65473999D01*
X218184999Y-65714001D02*
X190979001Y-65714001D01*
X219187000Y-64712000D02*
X218184999Y-65714001D01*
X161528999Y-65473999D02*
X160767000Y-64712000D01*
X161769001Y-65714001D02*
X161528999Y-65473999D01*
X188974999Y-65714001D02*
X161769001Y-65714001D01*
X189977000Y-64712000D02*
X188974999Y-65714001D01*
X132228999Y-65473999D02*
X131467000Y-64712000D01*
X132469001Y-65714001D02*
X132228999Y-65473999D01*
X159764999Y-65714001D02*
X132469001Y-65714001D01*
X160767000Y-64712000D02*
X159764999Y-65714001D01*
X102928999Y-65473999D02*
X102167000Y-64712000D01*
X103169001Y-65714001D02*
X102928999Y-65473999D01*
X129387369Y-65714001D02*
X103169001Y-65714001D01*
X130389370Y-64712000D02*
X129387369Y-65714001D01*
X131467000Y-64712000D02*
X130389370Y-64712000D01*
X73628999Y-65473999D02*
X72867000Y-64712000D01*
X73869001Y-65714001D02*
X73628999Y-65473999D01*
X101164999Y-65714001D02*
X73869001Y-65714001D01*
X102167000Y-64712000D02*
X101164999Y-65714001D01*
X44328999Y-65473999D02*
X43567000Y-64712000D01*
X44569001Y-65714001D02*
X44328999Y-65473999D01*
X71864999Y-65714001D02*
X44569001Y-65714001D01*
X72867000Y-64712000D02*
X71864999Y-65714001D01*
X220189001Y-63174001D02*
X219948999Y-62933999D01*
X247394999Y-63174001D02*
X220189001Y-63174001D01*
X219948999Y-62933999D02*
X219187000Y-62172000D01*
X248397000Y-62172000D02*
X247394999Y-63174001D01*
X190738999Y-62933999D02*
X189977000Y-62172000D01*
X190979001Y-63174001D02*
X190738999Y-62933999D01*
X218184999Y-63174001D02*
X190979001Y-63174001D01*
X219187000Y-62172000D02*
X218184999Y-63174001D01*
X161528999Y-62933999D02*
X160767000Y-62172000D01*
X161769001Y-63174001D02*
X161528999Y-62933999D01*
X188974999Y-63174001D02*
X161769001Y-63174001D01*
X189977000Y-62172000D02*
X188974999Y-63174001D01*
X158687369Y-63174001D02*
X132469001Y-63174001D01*
X159689370Y-62172000D02*
X158687369Y-63174001D01*
X132228999Y-62933999D02*
X131467000Y-62172000D01*
X132469001Y-63174001D02*
X132228999Y-62933999D01*
X160767000Y-62172000D02*
X159689370Y-62172000D01*
X102928999Y-62933999D02*
X102167000Y-62172000D01*
X103169001Y-63174001D02*
X102928999Y-62933999D01*
X129387369Y-63174001D02*
X103169001Y-63174001D01*
X130389370Y-62172000D02*
X129387369Y-63174001D01*
X131467000Y-62172000D02*
X130389370Y-62172000D01*
X73628999Y-62933999D02*
X72867000Y-62172000D01*
X73869001Y-63174001D02*
X73628999Y-62933999D01*
X101164999Y-63174001D02*
X73869001Y-63174001D01*
X102167000Y-62172000D02*
X101164999Y-63174001D01*
X44569001Y-63174001D02*
X44328999Y-62933999D01*
X44328999Y-62933999D02*
X43567000Y-62172000D01*
X71864999Y-63174001D02*
X44569001Y-63174001D01*
X72867000Y-62172000D02*
X71864999Y-63174001D01*
X220189001Y-60634001D02*
X219948999Y-60393999D01*
X219948999Y-60393999D02*
X219187000Y-59632000D01*
X247394999Y-60634001D02*
X220189001Y-60634001D01*
X248397000Y-59632000D02*
X247394999Y-60634001D01*
X190979001Y-60634001D02*
X190738999Y-60393999D01*
X190738999Y-60393999D02*
X189977000Y-59632000D01*
X218184999Y-60634001D02*
X190979001Y-60634001D01*
X219187000Y-59632000D02*
X218184999Y-60634001D01*
X161769001Y-60634001D02*
X161528999Y-60393999D01*
X188974999Y-60634001D02*
X161769001Y-60634001D01*
X161528999Y-60393999D02*
X160767000Y-59632000D01*
X189977000Y-59632000D02*
X188974999Y-60634001D01*
X132469001Y-60634001D02*
X132228999Y-60393999D01*
X132228999Y-60393999D02*
X131467000Y-59632000D01*
X159764999Y-60634001D02*
X132469001Y-60634001D01*
X160767000Y-59632000D02*
X159764999Y-60634001D01*
X102928999Y-60393999D02*
X102167000Y-59632000D01*
X129387369Y-60634001D02*
X103169001Y-60634001D01*
X130389370Y-59632000D02*
X129387369Y-60634001D01*
X103169001Y-60634001D02*
X102928999Y-60393999D01*
X131467000Y-59632000D02*
X130389370Y-59632000D01*
X101164999Y-60634001D02*
X73869001Y-60634001D01*
X73628999Y-60393999D02*
X72867000Y-59632000D01*
X73869001Y-60634001D02*
X73628999Y-60393999D01*
X102167000Y-59632000D02*
X101164999Y-60634001D01*
X44569001Y-60634001D02*
X44328999Y-60393999D01*
X44328999Y-60393999D02*
X43567000Y-59632000D01*
X71864999Y-60634001D02*
X44569001Y-60634001D01*
X72867000Y-59632000D02*
X71864999Y-60634001D01*
X220189001Y-58094001D02*
X219948999Y-57853999D01*
X219948999Y-57853999D02*
X219187000Y-57092000D01*
X247394999Y-58094001D02*
X220189001Y-58094001D01*
X248397000Y-57092000D02*
X247394999Y-58094001D01*
X190738999Y-57853999D02*
X189977000Y-57092000D01*
X218184999Y-58094001D02*
X190979001Y-58094001D01*
X190979001Y-58094001D02*
X190738999Y-57853999D01*
X219187000Y-57092000D02*
X218184999Y-58094001D01*
X161528999Y-57853999D02*
X160767000Y-57092000D01*
X188974999Y-58094001D02*
X161769001Y-58094001D01*
X161769001Y-58094001D02*
X161528999Y-57853999D01*
X189977000Y-57092000D02*
X188974999Y-58094001D01*
X132228999Y-57853999D02*
X131467000Y-57092000D01*
X132469001Y-58094001D02*
X132228999Y-57853999D01*
X159764999Y-58094001D02*
X132469001Y-58094001D01*
X160767000Y-57092000D02*
X159764999Y-58094001D01*
X103169001Y-58094001D02*
X102928999Y-57853999D01*
X130464999Y-58094001D02*
X103169001Y-58094001D01*
X102928999Y-57853999D02*
X102167000Y-57092000D01*
X131467000Y-57092000D02*
X130464999Y-58094001D01*
X73869001Y-58094001D02*
X73628999Y-57853999D01*
X101164999Y-58094001D02*
X73869001Y-58094001D01*
X73628999Y-57853999D02*
X72867000Y-57092000D01*
X102167000Y-57092000D02*
X101164999Y-58094001D01*
X44328999Y-57853999D02*
X43567000Y-57092000D01*
X44569001Y-58094001D02*
X44328999Y-57853999D01*
X71864999Y-58094001D02*
X44569001Y-58094001D01*
X72867000Y-57092000D02*
X71864999Y-58094001D01*
X219948999Y-55313999D02*
X219187000Y-54552000D01*
X220189001Y-55554001D02*
X219948999Y-55313999D01*
X247394999Y-55554001D02*
X220189001Y-55554001D01*
X248397000Y-54552000D02*
X247394999Y-55554001D01*
X190738999Y-55313999D02*
X189977000Y-54552000D01*
X190979001Y-55554001D02*
X190738999Y-55313999D01*
X218184999Y-55554001D02*
X190979001Y-55554001D01*
X219187000Y-54552000D02*
X218184999Y-55554001D01*
X161528999Y-55313999D02*
X160767000Y-54552000D01*
X161769001Y-55554001D02*
X161528999Y-55313999D01*
X188974999Y-55554001D02*
X161769001Y-55554001D01*
X189977000Y-54552000D02*
X188974999Y-55554001D01*
X132228999Y-55313999D02*
X131467000Y-54552000D01*
X159764999Y-55554001D02*
X132469001Y-55554001D01*
X132469001Y-55554001D02*
X132228999Y-55313999D01*
X160767000Y-54552000D02*
X159764999Y-55554001D01*
X102928999Y-55313999D02*
X102167000Y-54552000D01*
X103169001Y-55554001D02*
X102928999Y-55313999D01*
X130464999Y-55554001D02*
X103169001Y-55554001D01*
X131467000Y-54552000D02*
X130464999Y-55554001D01*
X73628999Y-55313999D02*
X72867000Y-54552000D01*
X73869001Y-55554001D02*
X73628999Y-55313999D01*
X100087369Y-55554001D02*
X73869001Y-55554001D01*
X101089370Y-54552000D02*
X100087369Y-55554001D01*
X102167000Y-54552000D02*
X101089370Y-54552000D01*
X44328999Y-55313999D02*
X43567000Y-54552000D01*
X71864999Y-55554001D02*
X44569001Y-55554001D01*
X44569001Y-55554001D02*
X44328999Y-55313999D01*
X72867000Y-54552000D02*
X71864999Y-55554001D01*
X219948999Y-52773999D02*
X219187000Y-52012000D01*
X220189001Y-53014001D02*
X219948999Y-52773999D01*
X247394999Y-53014001D02*
X220189001Y-53014001D01*
X248397000Y-52012000D02*
X247394999Y-53014001D01*
X190738999Y-52773999D02*
X189977000Y-52012000D01*
X190979001Y-53014001D02*
X190738999Y-52773999D01*
X218184999Y-53014001D02*
X190979001Y-53014001D01*
X219187000Y-52012000D02*
X218184999Y-53014001D01*
X161528999Y-52773999D02*
X160767000Y-52012000D01*
X188974999Y-53014001D02*
X161769001Y-53014001D01*
X161769001Y-53014001D02*
X161528999Y-52773999D01*
X189977000Y-52012000D02*
X188974999Y-53014001D01*
X132469001Y-53014001D02*
X132228999Y-52773999D01*
X159689370Y-52012000D02*
X158687369Y-53014001D01*
X132228999Y-52773999D02*
X131467000Y-52012000D01*
X158687369Y-53014001D02*
X132469001Y-53014001D01*
X160767000Y-52012000D02*
X159689370Y-52012000D01*
X102928999Y-52773999D02*
X102167000Y-52012000D01*
X103169001Y-53014001D02*
X102928999Y-52773999D01*
X130464999Y-53014001D02*
X103169001Y-53014001D01*
X131467000Y-52012000D02*
X130464999Y-53014001D01*
X73628999Y-52773999D02*
X72867000Y-52012000D01*
X101164999Y-53014001D02*
X73869001Y-53014001D01*
X73869001Y-53014001D02*
X73628999Y-52773999D01*
X102167000Y-52012000D02*
X101164999Y-53014001D01*
X44328999Y-52773999D02*
X43567000Y-52012000D01*
X44569001Y-53014001D02*
X44328999Y-52773999D01*
X71864999Y-53014001D02*
X44569001Y-53014001D01*
X72867000Y-52012000D02*
X71864999Y-53014001D01*
X219948999Y-50233999D02*
X219187000Y-49472000D01*
X247394999Y-50474001D02*
X220189001Y-50474001D01*
X220189001Y-50474001D02*
X219948999Y-50233999D01*
X248397000Y-49472000D02*
X247394999Y-50474001D01*
X190738999Y-50233999D02*
X189977000Y-49472000D01*
X190979001Y-50474001D02*
X190738999Y-50233999D01*
X218184999Y-50474001D02*
X190979001Y-50474001D01*
X219187000Y-49472000D02*
X218184999Y-50474001D01*
X161528999Y-50233999D02*
X160767000Y-49472000D01*
X161769001Y-50474001D02*
X161528999Y-50233999D01*
X188974999Y-50474001D02*
X161769001Y-50474001D01*
X189977000Y-49472000D02*
X188974999Y-50474001D01*
X132228999Y-48710001D02*
X131467000Y-49472000D01*
X159764999Y-48469999D02*
X132469001Y-48469999D01*
X132469001Y-48469999D02*
X132228999Y-48710001D01*
X160767000Y-49472000D02*
X159764999Y-48469999D01*
X102928999Y-48710001D02*
X102167000Y-49472000D01*
X103169001Y-48469999D02*
X102928999Y-48710001D01*
X130464999Y-48469999D02*
X103169001Y-48469999D01*
X131467000Y-49472000D02*
X130464999Y-48469999D01*
X73628999Y-48710001D02*
X72867000Y-49472000D01*
X73869001Y-48469999D02*
X73628999Y-48710001D01*
X101164999Y-48469999D02*
X73869001Y-48469999D01*
X102167000Y-49472000D02*
X101164999Y-48469999D01*
X44328999Y-48710001D02*
X43567000Y-49472000D01*
X44569001Y-48469999D02*
X44328999Y-48710001D01*
X71864999Y-48469999D02*
X44569001Y-48469999D01*
X72867000Y-49472000D02*
X71864999Y-48469999D01*
X220264630Y-46932000D02*
X219187000Y-46932000D01*
X248397000Y-46932000D02*
X247509011Y-46044011D01*
X241102379Y-45455001D02*
X221741629Y-45455001D01*
X221741629Y-45455001D02*
X220264630Y-46932000D01*
X241691388Y-46044011D02*
X241102379Y-45455001D01*
X247509011Y-46044011D02*
X241691388Y-46044011D01*
X219187000Y-46932000D02*
X218299011Y-46044011D01*
X209781388Y-46044011D02*
X209508991Y-45771614D01*
X218299011Y-46044011D02*
X209781388Y-46044011D01*
X191054630Y-46932000D02*
X189977000Y-46932000D01*
X192215016Y-45771614D02*
X191054630Y-46932000D01*
X209508991Y-45771614D02*
X192215016Y-45771614D01*
X163271630Y-45505000D02*
X161844630Y-46932000D01*
X161844630Y-46932000D02*
X160767000Y-46932000D01*
X188550000Y-45505000D02*
X163271630Y-45505000D01*
X189977000Y-46932000D02*
X188550000Y-45505000D01*
X132228999Y-46170001D02*
X131467000Y-46932000D01*
X132469001Y-45929999D02*
X132228999Y-46170001D01*
X159764999Y-45929999D02*
X132469001Y-45929999D01*
X160767000Y-46932000D02*
X159764999Y-45929999D01*
X102928999Y-46170001D02*
X102167000Y-46932000D01*
X103169001Y-45929999D02*
X102928999Y-46170001D01*
X130464999Y-45929999D02*
X103169001Y-45929999D01*
X131467000Y-46932000D02*
X130464999Y-45929999D01*
X73628999Y-46170001D02*
X72867000Y-46932000D01*
X73869001Y-45929999D02*
X73628999Y-46170001D01*
X101164999Y-45929999D02*
X73869001Y-45929999D01*
X102167000Y-46932000D02*
X101164999Y-45929999D01*
X44328999Y-46170001D02*
X43567000Y-46932000D01*
X44569001Y-45929999D02*
X44328999Y-46170001D01*
X71864999Y-45929999D02*
X44569001Y-45929999D01*
X72867000Y-46932000D02*
X71864999Y-45929999D01*
X219948999Y-43630001D02*
X219187000Y-44392000D01*
X220204001Y-43374999D02*
X219948999Y-43630001D01*
X222192961Y-43374999D02*
X220204001Y-43374999D01*
X222729001Y-43911039D02*
X222192961Y-43374999D01*
X237298961Y-43911039D02*
X222729001Y-43911039D01*
X237835001Y-43374999D02*
X237298961Y-43911039D01*
X247379999Y-43374999D02*
X237835001Y-43374999D01*
X248397000Y-44392000D02*
X247379999Y-43374999D01*
X160767000Y-44392000D02*
X158626000Y-44392000D01*
X157608999Y-43374999D02*
X149933001Y-43374999D01*
X158626000Y-44392000D02*
X157608999Y-43374999D01*
X149933001Y-43374999D02*
X149454000Y-43854000D01*
X149454000Y-43854000D02*
X144381000Y-43854000D01*
X144381000Y-43854000D02*
X143494000Y-42967000D01*
X132892000Y-42967000D02*
X131467000Y-44392000D01*
X143494000Y-42967000D02*
X132892000Y-42967000D01*
X130389370Y-44392000D02*
X129228370Y-43231000D01*
X131467000Y-44392000D02*
X130389370Y-44392000D01*
X129228370Y-43231000D02*
X119776000Y-43231000D01*
X119776000Y-43231000D02*
X119286000Y-43721000D01*
X119286000Y-43721000D02*
X115892000Y-43721000D01*
X115892000Y-43721000D02*
X114874000Y-42703000D01*
X103856000Y-42703000D02*
X102167000Y-44392000D01*
X114874000Y-42703000D02*
X103856000Y-42703000D01*
X102167000Y-44392000D02*
X100952000Y-43177000D01*
X100952000Y-43177000D02*
X90929000Y-43177000D01*
X90929000Y-43177000D02*
X90241000Y-43865000D01*
X90241000Y-43865000D02*
X87087000Y-43865000D01*
X73628999Y-43630001D02*
X72867000Y-44392000D01*
X73869001Y-43389999D02*
X73628999Y-43630001D01*
X86611999Y-43389999D02*
X73869001Y-43389999D01*
X87087000Y-43865000D02*
X86611999Y-43389999D01*
X71789370Y-44392000D02*
X70529370Y-43132000D01*
X72867000Y-44392000D02*
X71789370Y-44392000D01*
X70529370Y-43132000D02*
X62719000Y-43132000D01*
X62719000Y-43132000D02*
X61911000Y-43940000D01*
X61911000Y-43940000D02*
X57502000Y-43940000D01*
X44328999Y-43630001D02*
X43567000Y-44392000D01*
X44569001Y-43389999D02*
X44328999Y-43630001D01*
X56951999Y-43389999D02*
X44569001Y-43389999D01*
X57502000Y-43940000D02*
X56951999Y-43389999D01*
X190738999Y-43630001D02*
X189977000Y-44392000D01*
X190997001Y-43374999D02*
X190994001Y-43374999D01*
X201959000Y-43014000D02*
X191358000Y-43014000D01*
X191358000Y-43014000D02*
X190997001Y-43374999D01*
X209095000Y-43829000D02*
X202774000Y-43829000D01*
X190994001Y-43374999D02*
X190738999Y-43630001D01*
X202774000Y-43829000D02*
X201959000Y-43014000D01*
X209601000Y-43323000D02*
X209095000Y-43829000D01*
X218118000Y-43323000D02*
X209601000Y-43323000D01*
X219187000Y-44392000D02*
X218118000Y-43323000D01*
X161528999Y-43630001D02*
X160767000Y-44392000D01*
X162306000Y-42853000D02*
X161528999Y-43630001D01*
X175237000Y-43765000D02*
X174325000Y-42853000D01*
X177868000Y-43765000D02*
X175237000Y-43765000D01*
X178258001Y-43374999D02*
X177868000Y-43765000D01*
X174325000Y-42853000D02*
X162306000Y-42853000D01*
X187860859Y-43374999D02*
X178258001Y-43374999D01*
X188877860Y-44392000D02*
X187860859Y-43374999D01*
X189977000Y-44392000D02*
X188877860Y-44392000D01*
X219948999Y-103573999D02*
X219187000Y-102812000D01*
X220189001Y-103814001D02*
X219948999Y-103573999D01*
X247394999Y-103814001D02*
X220189001Y-103814001D01*
X248397000Y-102812000D02*
X247394999Y-103814001D01*
X190738999Y-103573999D02*
X189977000Y-102812000D01*
X190979001Y-103814001D02*
X190738999Y-103573999D01*
X218184999Y-103814001D02*
X190979001Y-103814001D01*
X219187000Y-102812000D02*
X218184999Y-103814001D01*
X161528999Y-103573999D02*
X160767000Y-102812000D01*
X161769001Y-103814001D02*
X161528999Y-103573999D01*
X188974999Y-103814001D02*
X161769001Y-103814001D01*
X189977000Y-102812000D02*
X188974999Y-103814001D01*
X132228999Y-103573999D02*
X131467000Y-102812000D01*
X159764999Y-103814001D02*
X132469001Y-103814001D01*
X132469001Y-103814001D02*
X132228999Y-103573999D01*
X160767000Y-102812000D02*
X159764999Y-103814001D01*
X103169001Y-103814001D02*
X102928999Y-103573999D01*
X102928999Y-103573999D02*
X102167000Y-102812000D01*
X130464999Y-103814001D02*
X103169001Y-103814001D01*
X131467000Y-102812000D02*
X130464999Y-103814001D01*
X73628999Y-103573999D02*
X72867000Y-102812000D01*
X73869001Y-103814001D02*
X73628999Y-103573999D01*
X101164999Y-103814001D02*
X73869001Y-103814001D01*
X102167000Y-102812000D02*
X101164999Y-103814001D01*
X44328999Y-103573999D02*
X43567000Y-102812000D01*
X44569001Y-103814001D02*
X44328999Y-103573999D01*
X71864999Y-103814001D02*
X44569001Y-103814001D01*
X72867000Y-102812000D02*
X71864999Y-103814001D01*
X222729001Y-81489999D02*
X222488999Y-81730001D01*
X249934999Y-81489999D02*
X222729001Y-81489999D01*
X222488999Y-81730001D02*
X221727000Y-82492000D01*
X250937000Y-82492000D02*
X249934999Y-81489999D01*
X193278999Y-81730001D02*
X192517000Y-82492000D01*
X193519001Y-81489999D02*
X193278999Y-81730001D01*
X220724999Y-81489999D02*
X193519001Y-81489999D01*
X221727000Y-82492000D02*
X220724999Y-81489999D01*
X164068999Y-81730001D02*
X163307000Y-82492000D01*
X191514999Y-81489999D02*
X164309001Y-81489999D01*
X164309001Y-81489999D02*
X164068999Y-81730001D01*
X192517000Y-82492000D02*
X191514999Y-81489999D01*
X134768999Y-81730001D02*
X134007000Y-82492000D01*
X135009001Y-81489999D02*
X134768999Y-81730001D01*
X162304999Y-81489999D02*
X135009001Y-81489999D01*
X163307000Y-82492000D02*
X162304999Y-81489999D01*
X105468999Y-81730001D02*
X104707000Y-82492000D01*
X105709001Y-81489999D02*
X105468999Y-81730001D01*
X133004999Y-81489999D02*
X105709001Y-81489999D01*
X134007000Y-82492000D02*
X133004999Y-81489999D01*
X76409001Y-81489999D02*
X76168999Y-81730001D01*
X103704999Y-81489999D02*
X76409001Y-81489999D01*
X76168999Y-81730001D02*
X75407000Y-82492000D01*
X104707000Y-82492000D02*
X103704999Y-81489999D01*
X47109001Y-81489999D02*
X46868999Y-81730001D01*
X74404999Y-81489999D02*
X47109001Y-81489999D01*
X46868999Y-81730001D02*
X46107000Y-82492000D01*
X75407000Y-82492000D02*
X74404999Y-81489999D01*
X222729001Y-84029999D02*
X222488999Y-84270001D01*
X222488999Y-84270001D02*
X221727000Y-85032000D01*
X249934999Y-84029999D02*
X222729001Y-84029999D01*
X250937000Y-85032000D02*
X249934999Y-84029999D01*
X193278999Y-84270001D02*
X192517000Y-85032000D01*
X193519001Y-84029999D02*
X193278999Y-84270001D01*
X220724999Y-84029999D02*
X193519001Y-84029999D01*
X221727000Y-85032000D02*
X220724999Y-84029999D01*
X164309001Y-84029999D02*
X164068999Y-84270001D01*
X164068999Y-84270001D02*
X163307000Y-85032000D01*
X191514999Y-84029999D02*
X164309001Y-84029999D01*
X192517000Y-85032000D02*
X191514999Y-84029999D01*
X134768999Y-84270001D02*
X134007000Y-85032000D01*
X162304999Y-84029999D02*
X135009001Y-84029999D01*
X135009001Y-84029999D02*
X134768999Y-84270001D01*
X163307000Y-85032000D02*
X162304999Y-84029999D01*
X105468999Y-84270001D02*
X104707000Y-85032000D01*
X133004999Y-84029999D02*
X105709001Y-84029999D01*
X105709001Y-84029999D02*
X105468999Y-84270001D01*
X134007000Y-85032000D02*
X133004999Y-84029999D01*
X76409001Y-84029999D02*
X76168999Y-84270001D01*
X102647961Y-84029999D02*
X76409001Y-84029999D01*
X103649962Y-85032000D02*
X102647961Y-84029999D01*
X76168999Y-84270001D02*
X75407000Y-85032000D01*
X104707000Y-85032000D02*
X103649962Y-85032000D01*
X46868999Y-84270001D02*
X46107000Y-85032000D01*
X47109001Y-84029999D02*
X46868999Y-84270001D01*
X74404999Y-84029999D02*
X47109001Y-84029999D01*
X75407000Y-85032000D02*
X74404999Y-84029999D01*
X220189001Y-101274001D02*
X219948999Y-101033999D01*
X219948999Y-101033999D02*
X219187000Y-100272000D01*
X247394999Y-101274001D02*
X220189001Y-101274001D01*
X248397000Y-100272000D02*
X247394999Y-101274001D01*
X218184999Y-101274001D02*
X190979001Y-101274001D01*
X190738999Y-101033999D02*
X189977000Y-100272000D01*
X190979001Y-101274001D02*
X190738999Y-101033999D01*
X219187000Y-100272000D02*
X218184999Y-101274001D01*
X161769001Y-101274001D02*
X161528999Y-101033999D01*
X188974999Y-101274001D02*
X161769001Y-101274001D01*
X161528999Y-101033999D02*
X160767000Y-100272000D01*
X189977000Y-100272000D02*
X188974999Y-101274001D01*
X132228999Y-101033999D02*
X131467000Y-100272000D01*
X132469001Y-101274001D02*
X132228999Y-101033999D01*
X159764999Y-101274001D02*
X132469001Y-101274001D01*
X160767000Y-100272000D02*
X159764999Y-101274001D01*
X102928999Y-101033999D02*
X102167000Y-100272000D01*
X103169001Y-101274001D02*
X102928999Y-101033999D01*
X130464999Y-101274001D02*
X103169001Y-101274001D01*
X131467000Y-100272000D02*
X130464999Y-101274001D01*
X73628999Y-101033999D02*
X72867000Y-100272000D01*
X73869001Y-101274001D02*
X73628999Y-101033999D01*
X100087369Y-101274001D02*
X73869001Y-101274001D01*
X101089370Y-100272000D02*
X100087369Y-101274001D01*
X102167000Y-100272000D02*
X101089370Y-100272000D01*
X44569001Y-101274001D02*
X44328999Y-101033999D01*
X44328999Y-101033999D02*
X43567000Y-100272000D01*
X71864999Y-101274001D02*
X44569001Y-101274001D01*
X72867000Y-100272000D02*
X71864999Y-101274001D01*
X220189001Y-98734001D02*
X219948999Y-98493999D01*
X247394999Y-98734001D02*
X220189001Y-98734001D01*
X219948999Y-98493999D02*
X219187000Y-97732000D01*
X248397000Y-97732000D02*
X247394999Y-98734001D01*
X218184999Y-98734001D02*
X190979001Y-98734001D01*
X190738999Y-98493999D02*
X189977000Y-97732000D01*
X190979001Y-98734001D02*
X190738999Y-98493999D01*
X219187000Y-97732000D02*
X218184999Y-98734001D01*
X161528999Y-98493999D02*
X160767000Y-97732000D01*
X161769001Y-98734001D02*
X161528999Y-98493999D01*
X188974999Y-98734001D02*
X161769001Y-98734001D01*
X189977000Y-97732000D02*
X188974999Y-98734001D01*
X132228999Y-98493999D02*
X131467000Y-97732000D01*
X132469001Y-98734001D02*
X132228999Y-98493999D01*
X159764999Y-98734001D02*
X132469001Y-98734001D01*
X160767000Y-97732000D02*
X159764999Y-98734001D01*
X102928999Y-98493999D02*
X102167000Y-97732000D01*
X103169001Y-98734001D02*
X102928999Y-98493999D01*
X129387369Y-98734001D02*
X103169001Y-98734001D01*
X130389370Y-97732000D02*
X129387369Y-98734001D01*
X131467000Y-97732000D02*
X130389370Y-97732000D01*
X73628999Y-98493999D02*
X72867000Y-97732000D01*
X73869001Y-98734001D02*
X73628999Y-98493999D01*
X101164999Y-98734001D02*
X73869001Y-98734001D01*
X102167000Y-97732000D02*
X101164999Y-98734001D01*
X44328999Y-98493999D02*
X43567000Y-97732000D01*
X44569001Y-98734001D02*
X44328999Y-98493999D01*
X71864999Y-98734001D02*
X44569001Y-98734001D01*
X72867000Y-97732000D02*
X71864999Y-98734001D01*
X219948999Y-95953999D02*
X219187000Y-95192000D01*
X220189001Y-96194001D02*
X219948999Y-95953999D01*
X247394999Y-96194001D02*
X220189001Y-96194001D01*
X248397000Y-95192000D02*
X247394999Y-96194001D01*
X190979001Y-96194001D02*
X190738999Y-95953999D01*
X190738999Y-95953999D02*
X189977000Y-95192000D01*
X218184999Y-96194001D02*
X190979001Y-96194001D01*
X219187000Y-95192000D02*
X218184999Y-96194001D01*
X161769001Y-96194001D02*
X161528999Y-95953999D01*
X188974999Y-96194001D02*
X161769001Y-96194001D01*
X161528999Y-95953999D02*
X160767000Y-95192000D01*
X189977000Y-95192000D02*
X188974999Y-96194001D01*
X132228999Y-95953999D02*
X131467000Y-95192000D01*
X159764999Y-96194001D02*
X132469001Y-96194001D01*
X132469001Y-96194001D02*
X132228999Y-95953999D01*
X160767000Y-95192000D02*
X159764999Y-96194001D01*
X102928999Y-95953999D02*
X102167000Y-95192000D01*
X103169001Y-96194001D02*
X102928999Y-95953999D01*
X130464999Y-96194001D02*
X103169001Y-96194001D01*
X131467000Y-95192000D02*
X130464999Y-96194001D01*
X73628999Y-95953999D02*
X72867000Y-95192000D01*
X73869001Y-96194001D02*
X73628999Y-95953999D01*
X101164999Y-96194001D02*
X73869001Y-96194001D01*
X102167000Y-95192000D02*
X101164999Y-96194001D01*
X44328999Y-95953999D02*
X43567000Y-95192000D01*
X44569001Y-96194001D02*
X44328999Y-95953999D01*
X71864999Y-96194001D02*
X44569001Y-96194001D01*
X72867000Y-95192000D02*
X71864999Y-96194001D01*
X219948999Y-93413999D02*
X219187000Y-92652000D01*
X220189001Y-93654001D02*
X219948999Y-93413999D01*
X247394999Y-93654001D02*
X220189001Y-93654001D01*
X248397000Y-92652000D02*
X247394999Y-93654001D01*
X190738999Y-93413999D02*
X189977000Y-92652000D01*
X218184999Y-93654001D02*
X190979001Y-93654001D01*
X190979001Y-93654001D02*
X190738999Y-93413999D01*
X219187000Y-92652000D02*
X218184999Y-93654001D01*
X161769001Y-93654001D02*
X161528999Y-93413999D01*
X161528999Y-93413999D02*
X160767000Y-92652000D01*
X188974999Y-93654001D02*
X161769001Y-93654001D01*
X189977000Y-92652000D02*
X188974999Y-93654001D01*
X132228999Y-93413999D02*
X131467000Y-92652000D01*
X159764999Y-93654001D02*
X132469001Y-93654001D01*
X132469001Y-93654001D02*
X132228999Y-93413999D01*
X160767000Y-92652000D02*
X159764999Y-93654001D01*
X102928999Y-93413999D02*
X102167000Y-92652000D01*
X103169001Y-93654001D02*
X102928999Y-93413999D01*
X130464999Y-93654001D02*
X103169001Y-93654001D01*
X131467000Y-92652000D02*
X130464999Y-93654001D01*
X73869001Y-93654001D02*
X73628999Y-93413999D01*
X73628999Y-93413999D02*
X72867000Y-92652000D01*
X101164999Y-93654001D02*
X73869001Y-93654001D01*
X102167000Y-92652000D02*
X101164999Y-93654001D01*
X44569001Y-93654001D02*
X44328999Y-93413999D01*
X44328999Y-93413999D02*
X43567000Y-92652000D01*
X71864999Y-93654001D02*
X44569001Y-93654001D01*
X72867000Y-92652000D02*
X71864999Y-93654001D01*
X220189001Y-91114001D02*
X219948999Y-90873999D01*
X219948999Y-90873999D02*
X219187000Y-90112000D01*
X247394999Y-91114001D02*
X220189001Y-91114001D01*
X248397000Y-90112000D02*
X247394999Y-91114001D01*
X190738999Y-90873999D02*
X189977000Y-90112000D01*
X190979001Y-91114001D02*
X190738999Y-90873999D01*
X218184999Y-91114001D02*
X190979001Y-91114001D01*
X219187000Y-90112000D02*
X218184999Y-91114001D01*
X161528999Y-90873999D02*
X160767000Y-90112000D01*
X161769001Y-91114001D02*
X161528999Y-90873999D01*
X188974999Y-91114001D02*
X161769001Y-91114001D01*
X189977000Y-90112000D02*
X188974999Y-91114001D01*
X132228999Y-90873999D02*
X131467000Y-90112000D01*
X159764999Y-91114001D02*
X132469001Y-91114001D01*
X132469001Y-91114001D02*
X132228999Y-90873999D01*
X160767000Y-90112000D02*
X159764999Y-91114001D01*
X102928999Y-90873999D02*
X102167000Y-90112000D01*
X103169001Y-91114001D02*
X102928999Y-90873999D01*
X129387369Y-91114001D02*
X103169001Y-91114001D01*
X130389370Y-90112000D02*
X129387369Y-91114001D01*
X131467000Y-90112000D02*
X130389370Y-90112000D01*
X73869001Y-91114001D02*
X73628999Y-90873999D01*
X101164999Y-91114001D02*
X73869001Y-91114001D01*
X73628999Y-90873999D02*
X72867000Y-90112000D01*
X102167000Y-90112000D02*
X101164999Y-91114001D01*
X44328999Y-90873999D02*
X43567000Y-90112000D01*
X44569001Y-91114001D02*
X44328999Y-90873999D01*
X71864999Y-91114001D02*
X44569001Y-91114001D01*
X72867000Y-90112000D02*
X71864999Y-91114001D01*
X219948999Y-88333999D02*
X219187000Y-87572000D01*
X220189001Y-88574001D02*
X219948999Y-88333999D01*
X247394999Y-88574001D02*
X220189001Y-88574001D01*
X248397000Y-87572000D02*
X247394999Y-88574001D01*
X190738999Y-88333999D02*
X189977000Y-87572000D01*
X190979001Y-88574001D02*
X190738999Y-88333999D01*
X218184999Y-88574001D02*
X190979001Y-88574001D01*
X219187000Y-87572000D02*
X218184999Y-88574001D01*
X161528999Y-88333999D02*
X160767000Y-87572000D01*
X188974999Y-88574001D02*
X161769001Y-88574001D01*
X161769001Y-88574001D02*
X161528999Y-88333999D01*
X189977000Y-87572000D02*
X188974999Y-88574001D01*
X132228999Y-88333999D02*
X131467000Y-87572000D01*
X159764999Y-88574001D02*
X132469001Y-88574001D01*
X132469001Y-88574001D02*
X132228999Y-88333999D01*
X160767000Y-87572000D02*
X159764999Y-88574001D01*
X102928999Y-88333999D02*
X102167000Y-87572000D01*
X103169001Y-88574001D02*
X102928999Y-88333999D01*
X130389370Y-87572000D02*
X129387369Y-88574001D01*
X129387369Y-88574001D02*
X103169001Y-88574001D01*
X131467000Y-87572000D02*
X130389370Y-87572000D01*
X73869001Y-88574001D02*
X73628999Y-88333999D01*
X73628999Y-88333999D02*
X72867000Y-87572000D01*
X101164999Y-88574001D02*
X73869001Y-88574001D01*
X102167000Y-87572000D02*
X101164999Y-88574001D01*
X44328999Y-88333999D02*
X43567000Y-87572000D01*
X44569001Y-88574001D02*
X44328999Y-88333999D01*
X71864999Y-88574001D02*
X44569001Y-88574001D01*
X72867000Y-87572000D02*
X71864999Y-88574001D01*
X247394999Y-86034001D02*
X220189001Y-86034001D01*
X219948999Y-85793999D02*
X219187000Y-85032000D01*
X220189001Y-86034001D02*
X219948999Y-85793999D01*
X248397000Y-85032000D02*
X247394999Y-86034001D01*
X190979001Y-86034001D02*
X190738999Y-85793999D01*
X190738999Y-85793999D02*
X189977000Y-85032000D01*
X218184999Y-86034001D02*
X190979001Y-86034001D01*
X219187000Y-85032000D02*
X218184999Y-86034001D01*
X161528999Y-85793999D02*
X160767000Y-85032000D01*
X161769001Y-86034001D02*
X161528999Y-85793999D01*
X188974999Y-86034001D02*
X161769001Y-86034001D01*
X189977000Y-85032000D02*
X188974999Y-86034001D01*
X132228999Y-85793999D02*
X131467000Y-85032000D01*
X132469001Y-86034001D02*
X132228999Y-85793999D01*
X159764999Y-86034001D02*
X132469001Y-86034001D01*
X160767000Y-85032000D02*
X159764999Y-86034001D01*
X102928999Y-85793999D02*
X102167000Y-85032000D01*
X103169001Y-86034001D02*
X102928999Y-85793999D01*
X130464999Y-86034001D02*
X103169001Y-86034001D01*
X131467000Y-85032000D02*
X130464999Y-86034001D01*
X73869001Y-86034001D02*
X73628999Y-85793999D01*
X101164999Y-86034001D02*
X73869001Y-86034001D01*
X73628999Y-85793999D02*
X72867000Y-85032000D01*
X102167000Y-85032000D02*
X101164999Y-86034001D01*
X44569001Y-86034001D02*
X44328999Y-85793999D01*
X71864999Y-86034001D02*
X44569001Y-86034001D01*
X44328999Y-85793999D02*
X43567000Y-85032000D01*
X72867000Y-85032000D02*
X71864999Y-86034001D01*
X12920000Y-84220000D02*
X11500000Y-82800000D01*
X12920000Y-85230000D02*
X12920000Y-84220000D01*
X11500000Y-82800000D02*
X11500000Y-73000000D01*
X11500000Y-73000000D02*
X12500000Y-72000000D01*
X12500000Y-72000000D02*
X13500000Y-72000000D01*
X13915000Y-72415000D02*
X13915000Y-73640000D01*
X13500000Y-72000000D02*
X13915000Y-72415000D01*
D32*
X30095000Y-147560000D02*
X33027000Y-144628000D01*
X27805000Y-116465000D02*
X25955000Y-116465000D01*
X33027000Y-121687000D02*
X27805000Y-116465000D01*
X33027000Y-144628000D02*
X33027000Y-121687000D01*
D30*
X222488999Y-61410001D02*
X221727000Y-62172000D01*
X222944989Y-60954011D02*
X222488999Y-61410001D01*
X249719011Y-60954011D02*
X222944989Y-60954011D01*
X250937000Y-62172000D02*
X249719011Y-60954011D01*
X193278999Y-61410001D02*
X192517000Y-62172000D01*
X193519001Y-61169999D02*
X193278999Y-61410001D01*
X220724999Y-61169999D02*
X193519001Y-61169999D01*
X221727000Y-62172000D02*
X220724999Y-61169999D01*
X164524989Y-60954011D02*
X164068999Y-61410001D01*
X191299011Y-60954011D02*
X164524989Y-60954011D01*
X164068999Y-61410001D02*
X163307000Y-62172000D01*
X192517000Y-62172000D02*
X191299011Y-60954011D01*
X259667000Y-67638000D02*
X259667000Y-63631000D01*
X258208000Y-62172000D02*
X250937000Y-62172000D01*
X259667000Y-63631000D02*
X258208000Y-62172000D01*
X134768999Y-61410001D02*
X134007000Y-62172000D01*
X135009001Y-61169999D02*
X134768999Y-61410001D01*
X162304999Y-61169999D02*
X135009001Y-61169999D01*
X163307000Y-62172000D02*
X162304999Y-61169999D01*
X105709001Y-61169999D02*
X105468999Y-61410001D01*
X105468999Y-61410001D02*
X104707000Y-62172000D01*
X133004999Y-61169999D02*
X105709001Y-61169999D01*
X134007000Y-62172000D02*
X133004999Y-61169999D01*
X76168999Y-61410001D02*
X75407000Y-62172000D01*
X76409001Y-61169999D02*
X76168999Y-61410001D01*
X102647961Y-61169999D02*
X76409001Y-61169999D01*
X103649962Y-62172000D02*
X102647961Y-61169999D01*
X104707000Y-62172000D02*
X103649962Y-62172000D01*
X46868999Y-61410001D02*
X46107000Y-62172000D01*
X47109001Y-61169999D02*
X46868999Y-61410001D01*
X74404999Y-61169999D02*
X47109001Y-61169999D01*
X75407000Y-62172000D02*
X74404999Y-61169999D01*
X222488999Y-63950001D02*
X221727000Y-64712000D01*
X222729001Y-63709999D02*
X222488999Y-63950001D01*
X249934999Y-63709999D02*
X222729001Y-63709999D01*
X250937000Y-64712000D02*
X249934999Y-63709999D01*
X193519001Y-63709999D02*
X193278999Y-63950001D01*
X193278999Y-63950001D02*
X192517000Y-64712000D01*
X220724999Y-63709999D02*
X193519001Y-63709999D01*
X221727000Y-64712000D02*
X220724999Y-63709999D01*
X164524989Y-63494011D02*
X164068999Y-63950001D01*
X164068999Y-63950001D02*
X163307000Y-64712000D01*
X191299011Y-63494011D02*
X164524989Y-63494011D01*
X192517000Y-64712000D02*
X191299011Y-63494011D01*
X259027000Y-68419382D02*
X259027000Y-66797000D01*
X256942000Y-64712000D02*
X250937000Y-64712000D01*
X259027000Y-66797000D02*
X256942000Y-64712000D01*
X135009001Y-63709999D02*
X134768999Y-63950001D01*
X162304999Y-63709999D02*
X135009001Y-63709999D01*
X134768999Y-63950001D02*
X134007000Y-64712000D01*
X163307000Y-64712000D02*
X162304999Y-63709999D01*
X105468999Y-63950001D02*
X104707000Y-64712000D01*
X105709001Y-63709999D02*
X105468999Y-63950001D01*
X133004999Y-63709999D02*
X105709001Y-63709999D01*
X134007000Y-64712000D02*
X133004999Y-63709999D01*
X76409001Y-63709999D02*
X76168999Y-63950001D01*
X103704999Y-63709999D02*
X76409001Y-63709999D01*
X76168999Y-63950001D02*
X75407000Y-64712000D01*
X104707000Y-64712000D02*
X103704999Y-63709999D01*
X46868999Y-63950001D02*
X46107000Y-64712000D01*
X47109001Y-63709999D02*
X46868999Y-63950001D01*
X74404999Y-63709999D02*
X47109001Y-63709999D01*
X75407000Y-64712000D02*
X74404999Y-63709999D01*
X222488999Y-66490001D02*
X221727000Y-67252000D01*
X222729001Y-66249999D02*
X222488999Y-66490001D01*
X249934999Y-66249999D02*
X222729001Y-66249999D01*
X250937000Y-67252000D02*
X249934999Y-66249999D01*
X193278999Y-66490001D02*
X192517000Y-67252000D01*
X220724999Y-66249999D02*
X193519001Y-66249999D01*
X193519001Y-66249999D02*
X193278999Y-66490001D01*
X221727000Y-67252000D02*
X220724999Y-66249999D01*
X164068999Y-66490001D02*
X163307000Y-67252000D01*
X164524989Y-66034011D02*
X164068999Y-66490001D01*
X191299011Y-66034011D02*
X164524989Y-66034011D01*
X192517000Y-67252000D02*
X191299011Y-66034011D01*
X252968020Y-67252000D02*
X256001258Y-70285238D01*
X250937000Y-67252000D02*
X252968020Y-67252000D01*
X135009001Y-66249999D02*
X134768999Y-66490001D01*
X161247961Y-66249999D02*
X135009001Y-66249999D01*
X134768999Y-66490001D02*
X134007000Y-67252000D01*
X162249962Y-67252000D02*
X161247961Y-66249999D01*
X163307000Y-67252000D02*
X162249962Y-67252000D01*
X105709001Y-66249999D02*
X105468999Y-66490001D01*
X105468999Y-66490001D02*
X104707000Y-67252000D01*
X133004999Y-66249999D02*
X105709001Y-66249999D01*
X134007000Y-67252000D02*
X133004999Y-66249999D01*
X76168999Y-66490001D02*
X75407000Y-67252000D01*
X76409001Y-66249999D02*
X76168999Y-66490001D01*
X103704999Y-66249999D02*
X76409001Y-66249999D01*
X104707000Y-67252000D02*
X103704999Y-66249999D01*
X47109001Y-66249999D02*
X46868999Y-66490001D01*
X74404999Y-66249999D02*
X47109001Y-66249999D01*
X46868999Y-66490001D02*
X46107000Y-67252000D01*
X75407000Y-67252000D02*
X74404999Y-66249999D01*
X222729001Y-68789999D02*
X222488999Y-69030001D01*
X222488999Y-69030001D02*
X221727000Y-69792000D01*
X249934999Y-68789999D02*
X222729001Y-68789999D01*
X250937000Y-69792000D02*
X249934999Y-68789999D01*
X193519001Y-68789999D02*
X193278999Y-69030001D01*
X193278999Y-69030001D02*
X192517000Y-69792000D01*
X220724999Y-68789999D02*
X193519001Y-68789999D01*
X221727000Y-69792000D02*
X220724999Y-68789999D01*
X164068999Y-69030001D02*
X163307000Y-69792000D01*
X164309001Y-68789999D02*
X164068999Y-69030001D01*
X191450999Y-68789999D02*
X164309001Y-68789999D01*
X192453000Y-69792000D02*
X191450999Y-68789999D01*
X192517000Y-69792000D02*
X192453000Y-69792000D01*
X252180992Y-71035992D02*
X256641258Y-71035992D01*
X250937000Y-69792000D02*
X252180992Y-71035992D01*
X134768999Y-69030001D02*
X134007000Y-69792000D01*
X135009001Y-68789999D02*
X134768999Y-69030001D01*
X162304999Y-68789999D02*
X135009001Y-68789999D01*
X163307000Y-69792000D02*
X162304999Y-68789999D01*
X131927369Y-68789999D02*
X105709001Y-68789999D01*
X105709001Y-68789999D02*
X105468999Y-69030001D01*
X132929370Y-69792000D02*
X131927369Y-68789999D01*
X105468999Y-69030001D02*
X104707000Y-69792000D01*
X134007000Y-69792000D02*
X132929370Y-69792000D01*
X103704999Y-68789999D02*
X76409001Y-68789999D01*
X76168999Y-69030001D02*
X75407000Y-69792000D01*
X76409001Y-68789999D02*
X76168999Y-69030001D01*
X104707000Y-69792000D02*
X103704999Y-68789999D01*
X47109001Y-68789999D02*
X46868999Y-69030001D01*
X74404999Y-68789999D02*
X47109001Y-68789999D01*
X46868999Y-69030001D02*
X46107000Y-69792000D01*
X75407000Y-69792000D02*
X74404999Y-68789999D01*
X222488999Y-71570001D02*
X221727000Y-72332000D01*
X249719011Y-71114011D02*
X222944989Y-71114011D01*
X222944989Y-71114011D02*
X222488999Y-71570001D01*
X250937000Y-72332000D02*
X249719011Y-71114011D01*
X193278999Y-71570001D02*
X192517000Y-72332000D01*
X220724999Y-71329999D02*
X193519001Y-71329999D01*
X193519001Y-71329999D02*
X193278999Y-71570001D01*
X221727000Y-72332000D02*
X220724999Y-71329999D01*
X164068999Y-71570001D02*
X163307000Y-72332000D01*
X164309001Y-71329999D02*
X164068999Y-71570001D01*
X191514999Y-71329999D02*
X164309001Y-71329999D01*
X192517000Y-72332000D02*
X191514999Y-71329999D01*
X256827286Y-72332000D02*
X257283000Y-71876286D01*
X250937000Y-72332000D02*
X256827286Y-72332000D01*
X134768999Y-71570001D02*
X134007000Y-72332000D01*
X135009001Y-71329999D02*
X134768999Y-71570001D01*
X162304999Y-71329999D02*
X135009001Y-71329999D01*
X163307000Y-72332000D02*
X162304999Y-71329999D01*
X105709001Y-71329999D02*
X105468999Y-71570001D01*
X105468999Y-71570001D02*
X104707000Y-72332000D01*
X133004999Y-71329999D02*
X105709001Y-71329999D01*
X134007000Y-72332000D02*
X133004999Y-71329999D01*
X76168999Y-71570001D02*
X75407000Y-72332000D01*
X102647961Y-71329999D02*
X76409001Y-71329999D01*
X103649962Y-72332000D02*
X102647961Y-71329999D01*
X76409001Y-71329999D02*
X76168999Y-71570001D01*
X104707000Y-72332000D02*
X103649962Y-72332000D01*
X47109001Y-71329999D02*
X46868999Y-71570001D01*
X46868999Y-71570001D02*
X46107000Y-72332000D01*
X74349962Y-72332000D02*
X73347961Y-71329999D01*
X73347961Y-71329999D02*
X47109001Y-71329999D01*
X75407000Y-72332000D02*
X74349962Y-72332000D01*
X220189001Y-119054001D02*
X219948999Y-118813999D01*
X247394999Y-119054001D02*
X220189001Y-119054001D01*
X219948999Y-118813999D02*
X219187000Y-118052000D01*
X248397000Y-118052000D02*
X247394999Y-119054001D01*
X190738999Y-118813999D02*
X189977000Y-118052000D01*
X190979001Y-119054001D02*
X190738999Y-118813999D01*
X218184999Y-119054001D02*
X190979001Y-119054001D01*
X219187000Y-118052000D02*
X218184999Y-119054001D01*
X161769001Y-119054001D02*
X161528999Y-118813999D01*
X188974999Y-119054001D02*
X161769001Y-119054001D01*
X161528999Y-118813999D02*
X160767000Y-118052000D01*
X189977000Y-118052000D02*
X188974999Y-119054001D01*
X132228999Y-118813999D02*
X131467000Y-118052000D01*
X132469001Y-119054001D02*
X132228999Y-118813999D01*
X159764999Y-119054001D02*
X132469001Y-119054001D01*
X160767000Y-118052000D02*
X159764999Y-119054001D01*
X102928999Y-118813999D02*
X102167000Y-118052000D01*
X103169001Y-119054001D02*
X102928999Y-118813999D01*
X130464999Y-119054001D02*
X103169001Y-119054001D01*
X131467000Y-118052000D02*
X130464999Y-119054001D01*
X73869001Y-119054001D02*
X73628999Y-118813999D01*
X73628999Y-118813999D02*
X72867000Y-118052000D01*
X100087369Y-119054001D02*
X73869001Y-119054001D01*
X101089370Y-118052000D02*
X100087369Y-119054001D01*
X102167000Y-118052000D02*
X101089370Y-118052000D01*
X44569001Y-119054001D02*
X44328999Y-118813999D01*
X71864999Y-119054001D02*
X44569001Y-119054001D01*
X44328999Y-118813999D02*
X43567000Y-118052000D01*
X72867000Y-118052000D02*
X71864999Y-119054001D01*
M02*
