G04 #@! TF.GenerationSoftware,KiCad,Pcbnew,(5.1.5-0-10_14)*
G04 #@! TF.CreationDate,2021-07-25T00:48:49+01:00*
G04 #@! TF.ProjectId,roscbus04,726f7363-6275-4733-9034-2e6b69636164,rev?*
G04 #@! TF.SameCoordinates,Original*
G04 #@! TF.FileFunction,Legend,Bot*
G04 #@! TF.FilePolarity,Positive*
%FSLAX46Y46*%
G04 Gerber Fmt 4.6, Leading zero omitted, Abs format (unit mm)*
G04 Created by KiCad (PCBNEW (5.1.5-0-10_14)) date 2021-07-25 00:48:49*
%MOMM*%
%LPD*%
G04 APERTURE LIST*
%ADD10C,0.150000*%
G04 APERTURE END LIST*
D10*
X285988380Y-47189238D02*
X284988380Y-47189238D01*
X285988380Y-47617809D02*
X285464571Y-47617809D01*
X285369333Y-47570190D01*
X285321714Y-47474952D01*
X285321714Y-47332095D01*
X285369333Y-47236857D01*
X285416952Y-47189238D01*
X285321714Y-47951142D02*
X285321714Y-48332095D01*
X284988380Y-48094000D02*
X285845523Y-48094000D01*
X285940761Y-48141619D01*
X285988380Y-48236857D01*
X285988380Y-48332095D01*
X285321714Y-48522571D02*
X285321714Y-48903523D01*
X284988380Y-48665428D02*
X285845523Y-48665428D01*
X285940761Y-48713047D01*
X285988380Y-48808285D01*
X285988380Y-48903523D01*
X285321714Y-49236857D02*
X286321714Y-49236857D01*
X285369333Y-49236857D02*
X285321714Y-49332095D01*
X285321714Y-49522571D01*
X285369333Y-49617809D01*
X285416952Y-49665428D01*
X285512190Y-49713047D01*
X285797904Y-49713047D01*
X285893142Y-49665428D01*
X285940761Y-49617809D01*
X285988380Y-49522571D01*
X285988380Y-49332095D01*
X285940761Y-49236857D01*
X285940761Y-50094000D02*
X285988380Y-50189238D01*
X285988380Y-50379714D01*
X285940761Y-50474952D01*
X285845523Y-50522571D01*
X285797904Y-50522571D01*
X285702666Y-50474952D01*
X285655047Y-50379714D01*
X285655047Y-50236857D01*
X285607428Y-50141619D01*
X285512190Y-50094000D01*
X285464571Y-50094000D01*
X285369333Y-50141619D01*
X285321714Y-50236857D01*
X285321714Y-50379714D01*
X285369333Y-50474952D01*
X285893142Y-50951142D02*
X285940761Y-50998761D01*
X285988380Y-50951142D01*
X285940761Y-50903523D01*
X285893142Y-50951142D01*
X285988380Y-50951142D01*
X285369333Y-50951142D02*
X285416952Y-50998761D01*
X285464571Y-50951142D01*
X285416952Y-50903523D01*
X285369333Y-50951142D01*
X285464571Y-50951142D01*
X284940761Y-52141619D02*
X286226476Y-51284476D01*
X284940761Y-53189238D02*
X286226476Y-52332095D01*
X285988380Y-53522571D02*
X285321714Y-53522571D01*
X285512190Y-53522571D02*
X285416952Y-53570190D01*
X285369333Y-53617809D01*
X285321714Y-53713047D01*
X285321714Y-53808285D01*
X285988380Y-54284476D02*
X285940761Y-54189238D01*
X285893142Y-54141619D01*
X285797904Y-54094000D01*
X285512190Y-54094000D01*
X285416952Y-54141619D01*
X285369333Y-54189238D01*
X285321714Y-54284476D01*
X285321714Y-54427333D01*
X285369333Y-54522571D01*
X285416952Y-54570190D01*
X285512190Y-54617809D01*
X285797904Y-54617809D01*
X285893142Y-54570190D01*
X285940761Y-54522571D01*
X285988380Y-54427333D01*
X285988380Y-54284476D01*
X285940761Y-54998761D02*
X285988380Y-55094000D01*
X285988380Y-55284476D01*
X285940761Y-55379714D01*
X285845523Y-55427333D01*
X285797904Y-55427333D01*
X285702666Y-55379714D01*
X285655047Y-55284476D01*
X285655047Y-55141619D01*
X285607428Y-55046380D01*
X285512190Y-54998761D01*
X285464571Y-54998761D01*
X285369333Y-55046380D01*
X285321714Y-55141619D01*
X285321714Y-55284476D01*
X285369333Y-55379714D01*
X285940761Y-56284476D02*
X285988380Y-56189238D01*
X285988380Y-55998761D01*
X285940761Y-55903523D01*
X285893142Y-55855904D01*
X285797904Y-55808285D01*
X285512190Y-55808285D01*
X285416952Y-55855904D01*
X285369333Y-55903523D01*
X285321714Y-55998761D01*
X285321714Y-56189238D01*
X285369333Y-56284476D01*
X285988380Y-56855904D02*
X285940761Y-56760666D01*
X285893142Y-56713047D01*
X285797904Y-56665428D01*
X285512190Y-56665428D01*
X285416952Y-56713047D01*
X285369333Y-56760666D01*
X285321714Y-56855904D01*
X285321714Y-56998761D01*
X285369333Y-57094000D01*
X285416952Y-57141619D01*
X285512190Y-57189238D01*
X285797904Y-57189238D01*
X285893142Y-57141619D01*
X285940761Y-57094000D01*
X285988380Y-56998761D01*
X285988380Y-56855904D01*
X285607428Y-57617809D02*
X285607428Y-58379714D01*
X285988380Y-58855904D02*
X285321714Y-58855904D01*
X285416952Y-58855904D02*
X285369333Y-58903523D01*
X285321714Y-58998761D01*
X285321714Y-59141619D01*
X285369333Y-59236857D01*
X285464571Y-59284476D01*
X285988380Y-59284476D01*
X285464571Y-59284476D02*
X285369333Y-59332095D01*
X285321714Y-59427333D01*
X285321714Y-59570190D01*
X285369333Y-59665428D01*
X285464571Y-59713047D01*
X285988380Y-59713047D01*
X284988380Y-60617809D02*
X284988380Y-60427333D01*
X285036000Y-60332095D01*
X285083619Y-60284476D01*
X285226476Y-60189238D01*
X285416952Y-60141619D01*
X285797904Y-60141619D01*
X285893142Y-60189238D01*
X285940761Y-60236857D01*
X285988380Y-60332095D01*
X285988380Y-60522571D01*
X285940761Y-60617809D01*
X285893142Y-60665428D01*
X285797904Y-60713047D01*
X285559809Y-60713047D01*
X285464571Y-60665428D01*
X285416952Y-60617809D01*
X285369333Y-60522571D01*
X285369333Y-60332095D01*
X285416952Y-60236857D01*
X285464571Y-60189238D01*
X285559809Y-60141619D01*
X285416952Y-61284476D02*
X285369333Y-61189238D01*
X285321714Y-61141619D01*
X285226476Y-61094000D01*
X285178857Y-61094000D01*
X285083619Y-61141619D01*
X285036000Y-61189238D01*
X284988380Y-61284476D01*
X284988380Y-61474952D01*
X285036000Y-61570190D01*
X285083619Y-61617809D01*
X285178857Y-61665428D01*
X285226476Y-61665428D01*
X285321714Y-61617809D01*
X285369333Y-61570190D01*
X285416952Y-61474952D01*
X285416952Y-61284476D01*
X285464571Y-61189238D01*
X285512190Y-61141619D01*
X285607428Y-61094000D01*
X285797904Y-61094000D01*
X285893142Y-61141619D01*
X285940761Y-61189238D01*
X285988380Y-61284476D01*
X285988380Y-61474952D01*
X285940761Y-61570190D01*
X285893142Y-61617809D01*
X285797904Y-61665428D01*
X285607428Y-61665428D01*
X285512190Y-61617809D01*
X285464571Y-61570190D01*
X285416952Y-61474952D01*
X285988380Y-62094000D02*
X284988380Y-62094000D01*
X285607428Y-62189238D02*
X285988380Y-62474952D01*
X285321714Y-62474952D02*
X285702666Y-62094000D01*
X285893142Y-62903523D02*
X285940761Y-62951142D01*
X285988380Y-62903523D01*
X285940761Y-62855904D01*
X285893142Y-62903523D01*
X285988380Y-62903523D01*
X285940761Y-63808285D02*
X285988380Y-63713047D01*
X285988380Y-63522571D01*
X285940761Y-63427333D01*
X285893142Y-63379714D01*
X285797904Y-63332095D01*
X285512190Y-63332095D01*
X285416952Y-63379714D01*
X285369333Y-63427333D01*
X285321714Y-63522571D01*
X285321714Y-63713047D01*
X285369333Y-63808285D01*
X285988380Y-64379714D02*
X285940761Y-64284476D01*
X285893142Y-64236857D01*
X285797904Y-64189238D01*
X285512190Y-64189238D01*
X285416952Y-64236857D01*
X285369333Y-64284476D01*
X285321714Y-64379714D01*
X285321714Y-64522571D01*
X285369333Y-64617809D01*
X285416952Y-64665428D01*
X285512190Y-64713047D01*
X285797904Y-64713047D01*
X285893142Y-64665428D01*
X285940761Y-64617809D01*
X285988380Y-64522571D01*
X285988380Y-64379714D01*
X285988380Y-65141619D02*
X285321714Y-65141619D01*
X285416952Y-65141619D02*
X285369333Y-65189238D01*
X285321714Y-65284476D01*
X285321714Y-65427333D01*
X285369333Y-65522571D01*
X285464571Y-65570190D01*
X285988380Y-65570190D01*
X285464571Y-65570190D02*
X285369333Y-65617809D01*
X285321714Y-65713047D01*
X285321714Y-65855904D01*
X285369333Y-65951142D01*
X285464571Y-65998761D01*
X285988380Y-65998761D01*
X285893142Y-100602000D02*
X285940761Y-100554380D01*
X285988380Y-100411523D01*
X285988380Y-100316285D01*
X285940761Y-100173428D01*
X285845523Y-100078190D01*
X285750285Y-100030571D01*
X285559809Y-99982952D01*
X285416952Y-99982952D01*
X285226476Y-100030571D01*
X285131238Y-100078190D01*
X285036000Y-100173428D01*
X284988380Y-100316285D01*
X284988380Y-100411523D01*
X285036000Y-100554380D01*
X285083619Y-100602000D01*
X285988380Y-101173428D02*
X285940761Y-101078190D01*
X285893142Y-101030571D01*
X285797904Y-100982952D01*
X285512190Y-100982952D01*
X285416952Y-101030571D01*
X285369333Y-101078190D01*
X285321714Y-101173428D01*
X285321714Y-101316285D01*
X285369333Y-101411523D01*
X285416952Y-101459142D01*
X285512190Y-101506761D01*
X285797904Y-101506761D01*
X285893142Y-101459142D01*
X285940761Y-101411523D01*
X285988380Y-101316285D01*
X285988380Y-101173428D01*
X285321714Y-101935333D02*
X286321714Y-101935333D01*
X285369333Y-101935333D02*
X285321714Y-102030571D01*
X285321714Y-102221047D01*
X285369333Y-102316285D01*
X285416952Y-102363904D01*
X285512190Y-102411523D01*
X285797904Y-102411523D01*
X285893142Y-102363904D01*
X285940761Y-102316285D01*
X285988380Y-102221047D01*
X285988380Y-102030571D01*
X285940761Y-101935333D01*
X285321714Y-102744857D02*
X285988380Y-102982952D01*
X285321714Y-103221047D02*
X285988380Y-102982952D01*
X286226476Y-102887714D01*
X286274095Y-102840095D01*
X286321714Y-102744857D01*
X285988380Y-103602000D02*
X285321714Y-103602000D01*
X285512190Y-103602000D02*
X285416952Y-103649619D01*
X285369333Y-103697238D01*
X285321714Y-103792476D01*
X285321714Y-103887714D01*
X285988380Y-104221047D02*
X285321714Y-104221047D01*
X284988380Y-104221047D02*
X285036000Y-104173428D01*
X285083619Y-104221047D01*
X285036000Y-104268666D01*
X284988380Y-104221047D01*
X285083619Y-104221047D01*
X285321714Y-105125809D02*
X286131238Y-105125809D01*
X286226476Y-105078190D01*
X286274095Y-105030571D01*
X286321714Y-104935333D01*
X286321714Y-104792476D01*
X286274095Y-104697238D01*
X285940761Y-105125809D02*
X285988380Y-105030571D01*
X285988380Y-104840095D01*
X285940761Y-104744857D01*
X285893142Y-104697238D01*
X285797904Y-104649619D01*
X285512190Y-104649619D01*
X285416952Y-104697238D01*
X285369333Y-104744857D01*
X285321714Y-104840095D01*
X285321714Y-105030571D01*
X285369333Y-105125809D01*
X285988380Y-105602000D02*
X284988380Y-105602000D01*
X285988380Y-106030571D02*
X285464571Y-106030571D01*
X285369333Y-105982952D01*
X285321714Y-105887714D01*
X285321714Y-105744857D01*
X285369333Y-105649619D01*
X285416952Y-105602000D01*
X285321714Y-106363904D02*
X285321714Y-106744857D01*
X284988380Y-106506761D02*
X285845523Y-106506761D01*
X285940761Y-106554380D01*
X285988380Y-106649619D01*
X285988380Y-106744857D01*
X285226476Y-108649619D02*
X285178857Y-108554380D01*
X285178857Y-108363904D01*
X285226476Y-108268666D01*
X285321714Y-108173428D01*
X285416952Y-108125809D01*
X285607428Y-108125809D01*
X285702666Y-108173428D01*
X285797904Y-108268666D01*
X285845523Y-108363904D01*
X285845523Y-108554380D01*
X285797904Y-108649619D01*
X284845523Y-108459142D02*
X284893142Y-108221047D01*
X285036000Y-107982952D01*
X285274095Y-107840095D01*
X285512190Y-107792476D01*
X285750285Y-107840095D01*
X285988380Y-107982952D01*
X286131238Y-108221047D01*
X286178857Y-108459142D01*
X286131238Y-108697238D01*
X285988380Y-108935333D01*
X285750285Y-109078190D01*
X285512190Y-109125809D01*
X285274095Y-109078190D01*
X285036000Y-108935333D01*
X284893142Y-108697238D01*
X284845523Y-108459142D01*
X285083619Y-109506761D02*
X285036000Y-109554380D01*
X284988380Y-109649619D01*
X284988380Y-109887714D01*
X285036000Y-109982952D01*
X285083619Y-110030571D01*
X285178857Y-110078190D01*
X285274095Y-110078190D01*
X285416952Y-110030571D01*
X285988380Y-109459142D01*
X285988380Y-110078190D01*
X284988380Y-110697238D02*
X284988380Y-110792476D01*
X285036000Y-110887714D01*
X285083619Y-110935333D01*
X285178857Y-110982952D01*
X285369333Y-111030571D01*
X285607428Y-111030571D01*
X285797904Y-110982952D01*
X285893142Y-110935333D01*
X285940761Y-110887714D01*
X285988380Y-110792476D01*
X285988380Y-110697238D01*
X285940761Y-110602000D01*
X285893142Y-110554380D01*
X285797904Y-110506761D01*
X285607428Y-110459142D01*
X285369333Y-110459142D01*
X285178857Y-110506761D01*
X285083619Y-110554380D01*
X285036000Y-110602000D01*
X284988380Y-110697238D01*
X285083619Y-111411523D02*
X285036000Y-111459142D01*
X284988380Y-111554380D01*
X284988380Y-111792476D01*
X285036000Y-111887714D01*
X285083619Y-111935333D01*
X285178857Y-111982952D01*
X285274095Y-111982952D01*
X285416952Y-111935333D01*
X285988380Y-111363904D01*
X285988380Y-111982952D01*
X284988380Y-112602000D02*
X284988380Y-112697238D01*
X285036000Y-112792476D01*
X285083619Y-112840095D01*
X285178857Y-112887714D01*
X285369333Y-112935333D01*
X285607428Y-112935333D01*
X285797904Y-112887714D01*
X285893142Y-112840095D01*
X285940761Y-112792476D01*
X285988380Y-112697238D01*
X285988380Y-112602000D01*
X285940761Y-112506761D01*
X285893142Y-112459142D01*
X285797904Y-112411523D01*
X285607428Y-112363904D01*
X285369333Y-112363904D01*
X285178857Y-112411523D01*
X285083619Y-112459142D01*
X285036000Y-112506761D01*
X284988380Y-112602000D01*
X285607428Y-113363904D02*
X285607428Y-114125809D01*
X285083619Y-114554380D02*
X285036000Y-114602000D01*
X284988380Y-114697238D01*
X284988380Y-114935333D01*
X285036000Y-115030571D01*
X285083619Y-115078190D01*
X285178857Y-115125809D01*
X285274095Y-115125809D01*
X285416952Y-115078190D01*
X285988380Y-114506761D01*
X285988380Y-115125809D01*
X284988380Y-115744857D02*
X284988380Y-115840095D01*
X285036000Y-115935333D01*
X285083619Y-115982952D01*
X285178857Y-116030571D01*
X285369333Y-116078190D01*
X285607428Y-116078190D01*
X285797904Y-116030571D01*
X285893142Y-115982952D01*
X285940761Y-115935333D01*
X285988380Y-115840095D01*
X285988380Y-115744857D01*
X285940761Y-115649619D01*
X285893142Y-115602000D01*
X285797904Y-115554380D01*
X285607428Y-115506761D01*
X285369333Y-115506761D01*
X285178857Y-115554380D01*
X285083619Y-115602000D01*
X285036000Y-115649619D01*
X284988380Y-115744857D01*
X285083619Y-116459142D02*
X285036000Y-116506761D01*
X284988380Y-116602000D01*
X284988380Y-116840095D01*
X285036000Y-116935333D01*
X285083619Y-116982952D01*
X285178857Y-117030571D01*
X285274095Y-117030571D01*
X285416952Y-116982952D01*
X285988380Y-116411523D01*
X285988380Y-117030571D01*
X285988380Y-117982952D02*
X285988380Y-117411523D01*
X285988380Y-117697238D02*
X284988380Y-117697238D01*
X285131238Y-117602000D01*
X285226476Y-117506761D01*
X285274095Y-117411523D01*
X285988380Y-119744857D02*
X285512190Y-119411523D01*
X285988380Y-119173428D02*
X284988380Y-119173428D01*
X284988380Y-119554380D01*
X285036000Y-119649619D01*
X285083619Y-119697238D01*
X285178857Y-119744857D01*
X285321714Y-119744857D01*
X285416952Y-119697238D01*
X285464571Y-119649619D01*
X285512190Y-119554380D01*
X285512190Y-119173428D01*
X285988380Y-120316285D02*
X285940761Y-120221047D01*
X285893142Y-120173428D01*
X285797904Y-120125809D01*
X285512190Y-120125809D01*
X285416952Y-120173428D01*
X285369333Y-120221047D01*
X285321714Y-120316285D01*
X285321714Y-120459142D01*
X285369333Y-120554380D01*
X285416952Y-120602000D01*
X285512190Y-120649619D01*
X285797904Y-120649619D01*
X285893142Y-120602000D01*
X285940761Y-120554380D01*
X285988380Y-120459142D01*
X285988380Y-120316285D01*
X285940761Y-121030571D02*
X285988380Y-121125809D01*
X285988380Y-121316285D01*
X285940761Y-121411523D01*
X285845523Y-121459142D01*
X285797904Y-121459142D01*
X285702666Y-121411523D01*
X285655047Y-121316285D01*
X285655047Y-121173428D01*
X285607428Y-121078190D01*
X285512190Y-121030571D01*
X285464571Y-121030571D01*
X285369333Y-121078190D01*
X285321714Y-121173428D01*
X285321714Y-121316285D01*
X285369333Y-121411523D01*
X285940761Y-121840095D02*
X285988380Y-121935333D01*
X285988380Y-122125809D01*
X285940761Y-122221047D01*
X285845523Y-122268666D01*
X285797904Y-122268666D01*
X285702666Y-122221047D01*
X285655047Y-122125809D01*
X285655047Y-121982952D01*
X285607428Y-121887714D01*
X285512190Y-121840095D01*
X285464571Y-121840095D01*
X285369333Y-121887714D01*
X285321714Y-121982952D01*
X285321714Y-122125809D01*
X285369333Y-122221047D01*
X285464571Y-123792476D02*
X285512190Y-123935333D01*
X285559809Y-123982952D01*
X285655047Y-124030571D01*
X285797904Y-124030571D01*
X285893142Y-123982952D01*
X285940761Y-123935333D01*
X285988380Y-123840095D01*
X285988380Y-123459142D01*
X284988380Y-123459142D01*
X284988380Y-123792476D01*
X285036000Y-123887714D01*
X285083619Y-123935333D01*
X285178857Y-123982952D01*
X285274095Y-123982952D01*
X285369333Y-123935333D01*
X285416952Y-123887714D01*
X285464571Y-123792476D01*
X285464571Y-123459142D01*
X285988380Y-124887714D02*
X285464571Y-124887714D01*
X285369333Y-124840095D01*
X285321714Y-124744857D01*
X285321714Y-124554380D01*
X285369333Y-124459142D01*
X285940761Y-124887714D02*
X285988380Y-124792476D01*
X285988380Y-124554380D01*
X285940761Y-124459142D01*
X285845523Y-124411523D01*
X285750285Y-124411523D01*
X285655047Y-124459142D01*
X285607428Y-124554380D01*
X285607428Y-124792476D01*
X285559809Y-124887714D01*
X285988380Y-125363904D02*
X285321714Y-125363904D01*
X285416952Y-125363904D02*
X285369333Y-125411523D01*
X285321714Y-125506761D01*
X285321714Y-125649619D01*
X285369333Y-125744857D01*
X285464571Y-125792476D01*
X285988380Y-125792476D01*
X285464571Y-125792476D02*
X285369333Y-125840095D01*
X285321714Y-125935333D01*
X285321714Y-126078190D01*
X285369333Y-126173428D01*
X285464571Y-126221047D01*
X285988380Y-126221047D01*
X285321714Y-126554380D02*
X285321714Y-126935333D01*
X285988380Y-126697238D02*
X285131238Y-126697238D01*
X285036000Y-126744857D01*
X284988380Y-126840095D01*
X284988380Y-126935333D01*
X285988380Y-127411523D02*
X285940761Y-127316285D01*
X285893142Y-127268666D01*
X285797904Y-127221047D01*
X285512190Y-127221047D01*
X285416952Y-127268666D01*
X285369333Y-127316285D01*
X285321714Y-127411523D01*
X285321714Y-127554380D01*
X285369333Y-127649619D01*
X285416952Y-127697238D01*
X285512190Y-127744857D01*
X285797904Y-127744857D01*
X285893142Y-127697238D01*
X285940761Y-127649619D01*
X285988380Y-127554380D01*
X285988380Y-127411523D01*
X285988380Y-128173428D02*
X285321714Y-128173428D01*
X285512190Y-128173428D02*
X285416952Y-128221047D01*
X285369333Y-128268666D01*
X285321714Y-128363904D01*
X285321714Y-128459142D01*
X285988380Y-129221047D02*
X284988380Y-129221047D01*
X285940761Y-129221047D02*
X285988380Y-129125809D01*
X285988380Y-128935333D01*
X285940761Y-128840095D01*
X285893142Y-128792476D01*
X285797904Y-128744857D01*
X285512190Y-128744857D01*
X285416952Y-128792476D01*
X285369333Y-128840095D01*
X285321714Y-128935333D01*
X285321714Y-129125809D01*
X285369333Y-129221047D01*
X285988380Y-131268666D02*
X285988380Y-131221047D01*
X285940761Y-131125809D01*
X285797904Y-130982952D01*
X285512190Y-130744857D01*
X285369333Y-130649619D01*
X285226476Y-130602000D01*
X285131238Y-130602000D01*
X285036000Y-130649619D01*
X284988380Y-130744857D01*
X284988380Y-130792476D01*
X285036000Y-130887714D01*
X285131238Y-130935333D01*
X285178857Y-130935333D01*
X285274095Y-130887714D01*
X285321714Y-130840095D01*
X285512190Y-130554380D01*
X285559809Y-130506761D01*
X285655047Y-130459142D01*
X285797904Y-130459142D01*
X285893142Y-130506761D01*
X285940761Y-130554380D01*
X285988380Y-130649619D01*
X285988380Y-130792476D01*
X285940761Y-130887714D01*
X285893142Y-130935333D01*
X285702666Y-131078190D01*
X285559809Y-131125809D01*
X285464571Y-131125809D01*
X285893142Y-133030571D02*
X285940761Y-132982952D01*
X285988380Y-132840095D01*
X285988380Y-132744857D01*
X285940761Y-132602000D01*
X285845523Y-132506761D01*
X285750285Y-132459142D01*
X285559809Y-132411523D01*
X285416952Y-132411523D01*
X285226476Y-132459142D01*
X285131238Y-132506761D01*
X285036000Y-132602000D01*
X284988380Y-132744857D01*
X284988380Y-132840095D01*
X285036000Y-132982952D01*
X285083619Y-133030571D01*
X285988380Y-133602000D02*
X285940761Y-133506761D01*
X285893142Y-133459142D01*
X285797904Y-133411523D01*
X285512190Y-133411523D01*
X285416952Y-133459142D01*
X285369333Y-133506761D01*
X285321714Y-133602000D01*
X285321714Y-133744857D01*
X285369333Y-133840095D01*
X285416952Y-133887714D01*
X285512190Y-133935333D01*
X285797904Y-133935333D01*
X285893142Y-133887714D01*
X285940761Y-133840095D01*
X285988380Y-133744857D01*
X285988380Y-133602000D01*
X285321714Y-134363904D02*
X285988380Y-134363904D01*
X285416952Y-134363904D02*
X285369333Y-134411523D01*
X285321714Y-134506761D01*
X285321714Y-134649619D01*
X285369333Y-134744857D01*
X285464571Y-134792476D01*
X285988380Y-134792476D01*
X285321714Y-135125809D02*
X285321714Y-135506761D01*
X284988380Y-135268666D02*
X285845523Y-135268666D01*
X285940761Y-135316285D01*
X285988380Y-135411523D01*
X285988380Y-135506761D01*
X285988380Y-135840095D02*
X285321714Y-135840095D01*
X285512190Y-135840095D02*
X285416952Y-135887714D01*
X285369333Y-135935333D01*
X285321714Y-136030571D01*
X285321714Y-136125809D01*
X285988380Y-136459142D02*
X285321714Y-136459142D01*
X284988380Y-136459142D02*
X285036000Y-136411523D01*
X285083619Y-136459142D01*
X285036000Y-136506761D01*
X284988380Y-136459142D01*
X285083619Y-136459142D01*
X285988380Y-136935333D02*
X284988380Y-136935333D01*
X285369333Y-136935333D02*
X285321714Y-137030571D01*
X285321714Y-137221047D01*
X285369333Y-137316285D01*
X285416952Y-137363904D01*
X285512190Y-137411523D01*
X285797904Y-137411523D01*
X285893142Y-137363904D01*
X285940761Y-137316285D01*
X285988380Y-137221047D01*
X285988380Y-137030571D01*
X285940761Y-136935333D01*
X285321714Y-138268666D02*
X285988380Y-138268666D01*
X285321714Y-137840095D02*
X285845523Y-137840095D01*
X285940761Y-137887714D01*
X285988380Y-137982952D01*
X285988380Y-138125809D01*
X285940761Y-138221047D01*
X285893142Y-138268666D01*
X285321714Y-138602000D02*
X285321714Y-138982952D01*
X284988380Y-138744857D02*
X285845523Y-138744857D01*
X285940761Y-138792476D01*
X285988380Y-138887714D01*
X285988380Y-138982952D01*
X285988380Y-139459142D02*
X285940761Y-139363904D01*
X285893142Y-139316285D01*
X285797904Y-139268666D01*
X285512190Y-139268666D01*
X285416952Y-139316285D01*
X285369333Y-139363904D01*
X285321714Y-139459142D01*
X285321714Y-139602000D01*
X285369333Y-139697238D01*
X285416952Y-139744857D01*
X285512190Y-139792476D01*
X285797904Y-139792476D01*
X285893142Y-139744857D01*
X285940761Y-139697238D01*
X285988380Y-139602000D01*
X285988380Y-139459142D01*
X285988380Y-140221047D02*
X285321714Y-140221047D01*
X285512190Y-140221047D02*
X285416952Y-140268666D01*
X285369333Y-140316285D01*
X285321714Y-140411523D01*
X285321714Y-140506761D01*
X285940761Y-140792476D02*
X285988380Y-140887714D01*
X285988380Y-141078190D01*
X285940761Y-141173428D01*
X285845523Y-141221047D01*
X285797904Y-141221047D01*
X285702666Y-141173428D01*
X285655047Y-141078190D01*
X285655047Y-140935333D01*
X285607428Y-140840095D01*
X285512190Y-140792476D01*
X285464571Y-140792476D01*
X285369333Y-140840095D01*
X285321714Y-140935333D01*
X285321714Y-141078190D01*
X285369333Y-141173428D01*
M02*
