%TF.GenerationSoftware,KiCad,Pcbnew,(6.0.2)*%
%TF.CreationDate,2022-07-24T16:40:57+01:00*%
%TF.ProjectId,Rosco_Hat_RAM,526f7363-6f5f-4486-9174-5f52414d2e6b,rev?*%
%TF.SameCoordinates,Original*%
%TF.FileFunction,Copper,L1,Top*%
%TF.FilePolarity,Positive*%
%FSLAX46Y46*%
G04 Gerber Fmt 4.6, Leading zero omitted, Abs format (unit mm)*
G04 Created by KiCad (PCBNEW (6.0.2)) date 2022-07-24 16:40:57*
%MOMM*%
%LPD*%
G01*
G04 APERTURE LIST*
G04 Aperture macros list*
%AMRoundRect*
0 Rectangle with rounded corners*
0 $1 Rounding radius*
0 $2 $3 $4 $5 $6 $7 $8 $9 X,Y pos of 4 corners*
0 Add a 4 corners polygon primitive as box body*
4,1,4,$2,$3,$4,$5,$6,$7,$8,$9,$2,$3,0*
0 Add four circle primitives for the rounded corners*
1,1,$1+$1,$2,$3*
1,1,$1+$1,$4,$5*
1,1,$1+$1,$6,$7*
1,1,$1+$1,$8,$9*
0 Add four rect primitives between the rounded corners*
20,1,$1+$1,$2,$3,$4,$5,0*
20,1,$1+$1,$4,$5,$6,$7,0*
20,1,$1+$1,$6,$7,$8,$9,0*
20,1,$1+$1,$8,$9,$2,$3,0*%
G04 Aperture macros list end*
%TA.AperFunction,SMDPad,CuDef*%
%ADD10RoundRect,0.150000X1.200000X0.150000X-1.200000X0.150000X-1.200000X-0.150000X1.200000X-0.150000X0*%
%TD*%
%TA.AperFunction,ComponentPad*%
%ADD11C,1.600000*%
%TD*%
%TA.AperFunction,ComponentPad*%
%ADD12R,1.600000X1.600000*%
%TD*%
%TA.AperFunction,ComponentPad*%
%ADD13O,1.600000X1.600000*%
%TD*%
%TA.AperFunction,ComponentPad*%
%ADD14R,1.700000X1.700000*%
%TD*%
%TA.AperFunction,ComponentPad*%
%ADD15O,1.700000X1.700000*%
%TD*%
%TA.AperFunction,ComponentPad*%
%ADD16R,2.400000X1.600000*%
%TD*%
%TA.AperFunction,ComponentPad*%
%ADD17O,2.400000X1.600000*%
%TD*%
%TA.AperFunction,ViaPad*%
%ADD18C,0.450000*%
%TD*%
%TA.AperFunction,ViaPad*%
%ADD19C,0.600000*%
%TD*%
%TA.AperFunction,Conductor*%
%ADD20C,0.200000*%
%TD*%
%TA.AperFunction,Conductor*%
%ADD21C,0.400000*%
%TD*%
G04 APERTURE END LIST*
D10*
%TO.P,U11,1,A0*%
%TO.N,A1*%
X164540000Y-137695000D03*
%TO.P,U11,2,A1*%
%TO.N,A2*%
X164540000Y-136425000D03*
%TO.P,U11,3,A2*%
%TO.N,A3*%
X164540000Y-135155000D03*
%TO.P,U11,4,A3*%
%TO.N,A4*%
X164540000Y-133885000D03*
%TO.P,U11,5,A4*%
%TO.N,A5*%
X164540000Y-132615000D03*
%TO.P,U11,6,~{CE}*%
%TO.N,ODDRAM3*%
X164540000Y-131345000D03*
%TO.P,U11,7,I/O0*%
%TO.N,D0*%
X164540000Y-130075000D03*
%TO.P,U11,8,I/O1*%
%TO.N,D1*%
X164540000Y-128805000D03*
%TO.P,U11,9,VDD*%
%TO.N,VCC*%
X164540000Y-127535000D03*
%TO.P,U11,10,GND*%
%TO.N,GND*%
X164540000Y-126265000D03*
%TO.P,U11,11,I/O2*%
%TO.N,D2*%
X164540000Y-124995000D03*
%TO.P,U11,12,I/O3*%
%TO.N,D3*%
X164540000Y-123725000D03*
%TO.P,U11,13,~{WE}*%
%TO.N,RW*%
X164540000Y-122455000D03*
%TO.P,U11,14,A5*%
%TO.N,A6*%
X164540000Y-121185000D03*
%TO.P,U11,15,A6*%
%TO.N,A7*%
X164540000Y-119915000D03*
%TO.P,U11,16,A7*%
%TO.N,A8*%
X164540000Y-118645000D03*
%TO.P,U11,17,A8*%
%TO.N,A9*%
X164540000Y-117375000D03*
%TO.P,U11,18,A9*%
%TO.N,A10*%
X164540000Y-116105000D03*
%TO.P,U11,19,NC*%
%TO.N,unconnected-(U11-Pad19)*%
X154740000Y-116105000D03*
%TO.P,U11,20,A10*%
%TO.N,A11*%
X154740000Y-117375000D03*
%TO.P,U11,21,A11*%
%TO.N,A12*%
X154740000Y-118645000D03*
%TO.P,U11,22,A12*%
%TO.N,A13*%
X154740000Y-119915000D03*
%TO.P,U11,23,A13*%
%TO.N,A14*%
X154740000Y-121185000D03*
%TO.P,U11,24,A14*%
%TO.N,A15*%
X154740000Y-122455000D03*
%TO.P,U11,25,I/O4*%
%TO.N,D4*%
X154740000Y-123725000D03*
%TO.P,U11,26,I/O5*%
%TO.N,D5*%
X154740000Y-124995000D03*
%TO.P,U11,27,VDD*%
%TO.N,VCC*%
X154740000Y-126265000D03*
%TO.P,U11,28,GND*%
%TO.N,GND*%
X154740000Y-127535000D03*
%TO.P,U11,29,I/O6*%
%TO.N,D6*%
X154740000Y-128805000D03*
%TO.P,U11,30,I/O7*%
%TO.N,D7*%
X154740000Y-130075000D03*
%TO.P,U11,31,~{OE}*%
%TO.N,WR*%
X154740000Y-131345000D03*
%TO.P,U11,32,A15*%
%TO.N,A16*%
X154740000Y-132615000D03*
%TO.P,U11,33,A16*%
%TO.N,A17*%
X154740000Y-133885000D03*
%TO.P,U11,34,A17*%
%TO.N,A18*%
X154740000Y-135155000D03*
%TO.P,U11,35,A18*%
%TO.N,A19*%
X154740000Y-136425000D03*
%TO.P,U11,36,NC*%
%TO.N,unconnected-(U11-Pad36)*%
X154740000Y-137695000D03*
%TD*%
%TO.P,U7,1,A0*%
%TO.N,A1*%
X109650000Y-137595000D03*
%TO.P,U7,2,A1*%
%TO.N,A2*%
X109650000Y-136325000D03*
%TO.P,U7,3,A2*%
%TO.N,A3*%
X109650000Y-135055000D03*
%TO.P,U7,4,A3*%
%TO.N,A4*%
X109650000Y-133785000D03*
%TO.P,U7,5,A4*%
%TO.N,A5*%
X109650000Y-132515000D03*
%TO.P,U7,6,~{CE}*%
%TO.N,ODDRAM1*%
X109650000Y-131245000D03*
%TO.P,U7,7,I/O0*%
%TO.N,D0*%
X109650000Y-129975000D03*
%TO.P,U7,8,I/O1*%
%TO.N,D1*%
X109650000Y-128705000D03*
%TO.P,U7,9,VDD*%
%TO.N,VCC*%
X109650000Y-127435000D03*
%TO.P,U7,10,GND*%
%TO.N,GND*%
X109650000Y-126165000D03*
%TO.P,U7,11,I/O2*%
%TO.N,D2*%
X109650000Y-124895000D03*
%TO.P,U7,12,I/O3*%
%TO.N,D3*%
X109650000Y-123625000D03*
%TO.P,U7,13,~{WE}*%
%TO.N,RW*%
X109650000Y-122355000D03*
%TO.P,U7,14,A5*%
%TO.N,A6*%
X109650000Y-121085000D03*
%TO.P,U7,15,A6*%
%TO.N,A7*%
X109650000Y-119815000D03*
%TO.P,U7,16,A7*%
%TO.N,A8*%
X109650000Y-118545000D03*
%TO.P,U7,17,A8*%
%TO.N,A9*%
X109650000Y-117275000D03*
%TO.P,U7,18,A9*%
%TO.N,A10*%
X109650000Y-116005000D03*
%TO.P,U7,19,NC*%
%TO.N,unconnected-(U7-Pad19)*%
X99850000Y-116005000D03*
%TO.P,U7,20,A10*%
%TO.N,A11*%
X99850000Y-117275000D03*
%TO.P,U7,21,A11*%
%TO.N,A12*%
X99850000Y-118545000D03*
%TO.P,U7,22,A12*%
%TO.N,A13*%
X99850000Y-119815000D03*
%TO.P,U7,23,A13*%
%TO.N,A14*%
X99850000Y-121085000D03*
%TO.P,U7,24,A14*%
%TO.N,A15*%
X99850000Y-122355000D03*
%TO.P,U7,25,I/O4*%
%TO.N,D4*%
X99850000Y-123625000D03*
%TO.P,U7,26,I/O5*%
%TO.N,D5*%
X99850000Y-124895000D03*
%TO.P,U7,27,VDD*%
%TO.N,VCC*%
X99850000Y-126165000D03*
%TO.P,U7,28,GND*%
%TO.N,GND*%
X99850000Y-127435000D03*
%TO.P,U7,29,I/O6*%
%TO.N,D6*%
X99850000Y-128705000D03*
%TO.P,U7,30,I/O7*%
%TO.N,D7*%
X99850000Y-129975000D03*
%TO.P,U7,31,~{OE}*%
%TO.N,WR*%
X99850000Y-131245000D03*
%TO.P,U7,32,A15*%
%TO.N,A16*%
X99850000Y-132515000D03*
%TO.P,U7,33,A16*%
%TO.N,A17*%
X99850000Y-133785000D03*
%TO.P,U7,34,A17*%
%TO.N,A18*%
X99850000Y-135055000D03*
%TO.P,U7,35,A18*%
%TO.N,A19*%
X99850000Y-136325000D03*
%TO.P,U7,36,NC*%
%TO.N,unconnected-(U7-Pad36)*%
X99850000Y-137595000D03*
%TD*%
%TO.P,U12,1,A0*%
%TO.N,A1*%
X164540000Y-109345000D03*
%TO.P,U12,2,A1*%
%TO.N,A2*%
X164540000Y-108075000D03*
%TO.P,U12,3,A2*%
%TO.N,A3*%
X164540000Y-106805000D03*
%TO.P,U12,4,A3*%
%TO.N,A4*%
X164540000Y-105535000D03*
%TO.P,U12,5,A4*%
%TO.N,A5*%
X164540000Y-104265000D03*
%TO.P,U12,6,~{CE}*%
%TO.N,EVENRAM3*%
X164540000Y-102995000D03*
%TO.P,U12,7,I/O0*%
%TO.N,D8*%
X164540000Y-101725000D03*
%TO.P,U12,8,I/O1*%
%TO.N,D9*%
X164540000Y-100455000D03*
%TO.P,U12,9,VDD*%
%TO.N,VCC*%
X164540000Y-99185000D03*
%TO.P,U12,10,GND*%
%TO.N,GND*%
X164540000Y-97915000D03*
%TO.P,U12,11,I/O2*%
%TO.N,D10*%
X164540000Y-96645000D03*
%TO.P,U12,12,I/O3*%
%TO.N,D11*%
X164540000Y-95375000D03*
%TO.P,U12,13,~{WE}*%
%TO.N,RW*%
X164540000Y-94105000D03*
%TO.P,U12,14,A5*%
%TO.N,A6*%
X164540000Y-92835000D03*
%TO.P,U12,15,A6*%
%TO.N,A7*%
X164540000Y-91565000D03*
%TO.P,U12,16,A7*%
%TO.N,A8*%
X164540000Y-90295000D03*
%TO.P,U12,17,A8*%
%TO.N,A9*%
X164540000Y-89025000D03*
%TO.P,U12,18,A9*%
%TO.N,A10*%
X164540000Y-87755000D03*
%TO.P,U12,19,NC*%
%TO.N,unconnected-(U12-Pad19)*%
X154740000Y-87755000D03*
%TO.P,U12,20,A10*%
%TO.N,A11*%
X154740000Y-89025000D03*
%TO.P,U12,21,A11*%
%TO.N,A12*%
X154740000Y-90295000D03*
%TO.P,U12,22,A12*%
%TO.N,A13*%
X154740000Y-91565000D03*
%TO.P,U12,23,A13*%
%TO.N,A14*%
X154740000Y-92835000D03*
%TO.P,U12,24,A14*%
%TO.N,A15*%
X154740000Y-94105000D03*
%TO.P,U12,25,I/O4*%
%TO.N,D12*%
X154740000Y-95375000D03*
%TO.P,U12,26,I/O5*%
%TO.N,D13*%
X154740000Y-96645000D03*
%TO.P,U12,27,VDD*%
%TO.N,VCC*%
X154740000Y-97915000D03*
%TO.P,U12,28,GND*%
%TO.N,GND*%
X154740000Y-99185000D03*
%TO.P,U12,29,I/O6*%
%TO.N,D14*%
X154740000Y-100455000D03*
%TO.P,U12,30,I/O7*%
%TO.N,D15*%
X154740000Y-101725000D03*
%TO.P,U12,31,~{OE}*%
%TO.N,WR*%
X154740000Y-102995000D03*
%TO.P,U12,32,A15*%
%TO.N,A16*%
X154740000Y-104265000D03*
%TO.P,U12,33,A16*%
%TO.N,A17*%
X154740000Y-105535000D03*
%TO.P,U12,34,A17*%
%TO.N,A18*%
X154740000Y-106805000D03*
%TO.P,U12,35,A18*%
%TO.N,A19*%
X154740000Y-108075000D03*
%TO.P,U12,36,NC*%
%TO.N,unconnected-(U12-Pad36)*%
X154740000Y-109345000D03*
%TD*%
D11*
%TO.P,C3,1,1*%
%TO.N,VCC*%
X123150000Y-110350000D03*
%TO.P,C3,2,2*%
%TO.N,GND*%
X120650000Y-110350000D03*
%TD*%
%TO.P,C7,1,1*%
%TO.N,VCC*%
X145350000Y-97150000D03*
%TO.P,C7,2,2*%
%TO.N,GND*%
X145350000Y-94650000D03*
%TD*%
%TO.P,C10,1,1*%
%TO.N,VCC*%
X170650000Y-128200000D03*
%TO.P,C10,2,2*%
%TO.N,GND*%
X170650000Y-125700000D03*
%TD*%
%TO.P,C12,1,1*%
%TO.N,VCC*%
X101450000Y-140650000D03*
%TO.P,C12,2,2*%
%TO.N,GND*%
X98950000Y-140650000D03*
%TD*%
D10*
%TO.P,U6,1,A0*%
%TO.N,A1*%
X92950000Y-109345000D03*
%TO.P,U6,2,A1*%
%TO.N,A2*%
X92950000Y-108075000D03*
%TO.P,U6,3,A2*%
%TO.N,A3*%
X92950000Y-106805000D03*
%TO.P,U6,4,A3*%
%TO.N,A4*%
X92950000Y-105535000D03*
%TO.P,U6,5,A4*%
%TO.N,A5*%
X92950000Y-104265000D03*
%TO.P,U6,6,~{CE}*%
%TO.N,EVENRAM0*%
X92950000Y-102995000D03*
%TO.P,U6,7,I/O0*%
%TO.N,D8*%
X92950000Y-101725000D03*
%TO.P,U6,8,I/O1*%
%TO.N,D9*%
X92950000Y-100455000D03*
%TO.P,U6,9,VDD*%
%TO.N,VCC*%
X92950000Y-99185000D03*
%TO.P,U6,10,GND*%
%TO.N,GND*%
X92950000Y-97915000D03*
%TO.P,U6,11,I/O2*%
%TO.N,D10*%
X92950000Y-96645000D03*
%TO.P,U6,12,I/O3*%
%TO.N,D11*%
X92950000Y-95375000D03*
%TO.P,U6,13,~{WE}*%
%TO.N,RW*%
X92950000Y-94105000D03*
%TO.P,U6,14,A5*%
%TO.N,A6*%
X92950000Y-92835000D03*
%TO.P,U6,15,A6*%
%TO.N,A7*%
X92950000Y-91565000D03*
%TO.P,U6,16,A7*%
%TO.N,A8*%
X92950000Y-90295000D03*
%TO.P,U6,17,A8*%
%TO.N,A9*%
X92950000Y-89025000D03*
%TO.P,U6,18,A9*%
%TO.N,A10*%
X92950000Y-87755000D03*
%TO.P,U6,19,NC*%
%TO.N,unconnected-(U6-Pad19)*%
X83150000Y-87755000D03*
%TO.P,U6,20,A10*%
%TO.N,A11*%
X83150000Y-89025000D03*
%TO.P,U6,21,A11*%
%TO.N,A12*%
X83150000Y-90295000D03*
%TO.P,U6,22,A12*%
%TO.N,A13*%
X83150000Y-91565000D03*
%TO.P,U6,23,A13*%
%TO.N,A14*%
X83150000Y-92835000D03*
%TO.P,U6,24,A14*%
%TO.N,A15*%
X83150000Y-94105000D03*
%TO.P,U6,25,I/O4*%
%TO.N,D12*%
X83150000Y-95375000D03*
%TO.P,U6,26,I/O5*%
%TO.N,D13*%
X83150000Y-96645000D03*
%TO.P,U6,27,VDD*%
%TO.N,VCC*%
X83150000Y-97915000D03*
%TO.P,U6,28,GND*%
%TO.N,GND*%
X83150000Y-99185000D03*
%TO.P,U6,29,I/O6*%
%TO.N,D14*%
X83150000Y-100455000D03*
%TO.P,U6,30,I/O7*%
%TO.N,D15*%
X83150000Y-101725000D03*
%TO.P,U6,31,~{OE}*%
%TO.N,WR*%
X83150000Y-102995000D03*
%TO.P,U6,32,A15*%
%TO.N,A16*%
X83150000Y-104265000D03*
%TO.P,U6,33,A16*%
%TO.N,A17*%
X83150000Y-105535000D03*
%TO.P,U6,34,A17*%
%TO.N,A18*%
X83150000Y-106805000D03*
%TO.P,U6,35,A18*%
%TO.N,A19*%
X83150000Y-108075000D03*
%TO.P,U6,36,NC*%
%TO.N,unconnected-(U6-Pad36)*%
X83150000Y-109345000D03*
%TD*%
D11*
%TO.P,C8,1,1*%
%TO.N,VCC*%
X170050000Y-97050000D03*
%TO.P,C8,2,2*%
%TO.N,GND*%
X170050000Y-94550000D03*
%TD*%
D12*
%TO.P,U4,1,A18*%
%TO.N,A19*%
X152000000Y-101900000D03*
D13*
%TO.P,U4,2,A16*%
%TO.N,A17*%
X152000000Y-104440000D03*
%TO.P,U4,3,A14*%
%TO.N,A15*%
X152000000Y-106980000D03*
%TO.P,U4,4,A12*%
%TO.N,A13*%
X152000000Y-109520000D03*
%TO.P,U4,5,A7*%
%TO.N,A8*%
X152000000Y-112060000D03*
%TO.P,U4,6,A6*%
%TO.N,A7*%
X152000000Y-114600000D03*
%TO.P,U4,7,A5*%
%TO.N,A6*%
X152000000Y-117140000D03*
%TO.P,U4,8,A4*%
%TO.N,A5*%
X152000000Y-119680000D03*
%TO.P,U4,9,A3*%
%TO.N,A4*%
X152000000Y-122220000D03*
%TO.P,U4,10,A2*%
%TO.N,A3*%
X152000000Y-124760000D03*
%TO.P,U4,11,A1*%
%TO.N,A2*%
X152000000Y-127300000D03*
%TO.P,U4,12,A0*%
%TO.N,A1*%
X152000000Y-129840000D03*
%TO.P,U4,13,DQ0*%
%TO.N,D8*%
X152000000Y-132380000D03*
%TO.P,U4,14,DQ1*%
%TO.N,D9*%
X152000000Y-134920000D03*
%TO.P,U4,15,DQ2*%
%TO.N,D10*%
X152000000Y-137460000D03*
%TO.P,U4,16,VSS*%
%TO.N,GND*%
X152000000Y-140000000D03*
%TO.P,U4,17,DQ3*%
%TO.N,D11*%
X167240000Y-140000000D03*
%TO.P,U4,18,DQ4*%
%TO.N,D12*%
X167240000Y-137460000D03*
%TO.P,U4,19,DQ5*%
%TO.N,D13*%
X167240000Y-134920000D03*
%TO.P,U4,20,DQ6*%
%TO.N,D14*%
X167240000Y-132380000D03*
%TO.P,U4,21,DQ7*%
%TO.N,D15*%
X167240000Y-129840000D03*
%TO.P,U4,22,CE*%
%TO.N,EVENRAMSEL*%
X167240000Y-127300000D03*
%TO.P,U4,23,A10*%
%TO.N,A11*%
X167240000Y-124760000D03*
%TO.P,U4,24,OE*%
%TO.N,WR*%
X167240000Y-122220000D03*
%TO.P,U4,25,A11*%
%TO.N,A12*%
X167240000Y-119680000D03*
%TO.P,U4,26,A9*%
%TO.N,A10*%
X167240000Y-117140000D03*
%TO.P,U4,27,A8*%
%TO.N,A9*%
X167240000Y-114600000D03*
%TO.P,U4,28,A13*%
%TO.N,A14*%
X167240000Y-112060000D03*
%TO.P,U4,29,WE*%
%TO.N,RW*%
X167240000Y-109520000D03*
%TO.P,U4,30,A17*%
%TO.N,A18*%
X167240000Y-106980000D03*
%TO.P,U4,31,A15*%
%TO.N,A16*%
X167240000Y-104440000D03*
%TO.P,U4,32,VCC*%
%TO.N,VCC*%
X167240000Y-101900000D03*
%TD*%
D11*
%TO.P,C2,1,1*%
%TO.N,VCC*%
X85450000Y-140650000D03*
%TO.P,C2,2,2*%
%TO.N,GND*%
X82950000Y-140650000D03*
%TD*%
D10*
%TO.P,U9,1,A0*%
%TO.N,A1*%
X140300000Y-137695000D03*
%TO.P,U9,2,A1*%
%TO.N,A2*%
X140300000Y-136425000D03*
%TO.P,U9,3,A2*%
%TO.N,A3*%
X140300000Y-135155000D03*
%TO.P,U9,4,A3*%
%TO.N,A4*%
X140300000Y-133885000D03*
%TO.P,U9,5,A4*%
%TO.N,A5*%
X140300000Y-132615000D03*
%TO.P,U9,6,~{CE}*%
%TO.N,ODDRAM2*%
X140300000Y-131345000D03*
%TO.P,U9,7,I/O0*%
%TO.N,D0*%
X140300000Y-130075000D03*
%TO.P,U9,8,I/O1*%
%TO.N,D1*%
X140300000Y-128805000D03*
%TO.P,U9,9,VDD*%
%TO.N,VCC*%
X140300000Y-127535000D03*
%TO.P,U9,10,GND*%
%TO.N,GND*%
X140300000Y-126265000D03*
%TO.P,U9,11,I/O2*%
%TO.N,D2*%
X140300000Y-124995000D03*
%TO.P,U9,12,I/O3*%
%TO.N,D3*%
X140300000Y-123725000D03*
%TO.P,U9,13,~{WE}*%
%TO.N,RW*%
X140300000Y-122455000D03*
%TO.P,U9,14,A5*%
%TO.N,A6*%
X140300000Y-121185000D03*
%TO.P,U9,15,A6*%
%TO.N,A7*%
X140300000Y-119915000D03*
%TO.P,U9,16,A7*%
%TO.N,A8*%
X140300000Y-118645000D03*
%TO.P,U9,17,A8*%
%TO.N,A9*%
X140300000Y-117375000D03*
%TO.P,U9,18,A9*%
%TO.N,A10*%
X140300000Y-116105000D03*
%TO.P,U9,19,NC*%
%TO.N,unconnected-(U9-Pad19)*%
X130500000Y-116105000D03*
%TO.P,U9,20,A10*%
%TO.N,A11*%
X130500000Y-117375000D03*
%TO.P,U9,21,A11*%
%TO.N,A12*%
X130500000Y-118645000D03*
%TO.P,U9,22,A12*%
%TO.N,A13*%
X130500000Y-119915000D03*
%TO.P,U9,23,A13*%
%TO.N,A14*%
X130500000Y-121185000D03*
%TO.P,U9,24,A14*%
%TO.N,A15*%
X130500000Y-122455000D03*
%TO.P,U9,25,I/O4*%
%TO.N,D4*%
X130500000Y-123725000D03*
%TO.P,U9,26,I/O5*%
%TO.N,D5*%
X130500000Y-124995000D03*
%TO.P,U9,27,VDD*%
%TO.N,VCC*%
X130500000Y-126265000D03*
%TO.P,U9,28,GND*%
%TO.N,GND*%
X130500000Y-127535000D03*
%TO.P,U9,29,I/O6*%
%TO.N,D6*%
X130500000Y-128805000D03*
%TO.P,U9,30,I/O7*%
%TO.N,D7*%
X130500000Y-130075000D03*
%TO.P,U9,31,~{OE}*%
%TO.N,WR*%
X130500000Y-131345000D03*
%TO.P,U9,32,A15*%
%TO.N,A16*%
X130500000Y-132615000D03*
%TO.P,U9,33,A16*%
%TO.N,A17*%
X130500000Y-133885000D03*
%TO.P,U9,34,A17*%
%TO.N,A18*%
X130500000Y-135155000D03*
%TO.P,U9,35,A18*%
%TO.N,A19*%
X130500000Y-136425000D03*
%TO.P,U9,36,NC*%
%TO.N,unconnected-(U9-Pad36)*%
X130500000Y-137695000D03*
%TD*%
D14*
%TO.P,J1,1,Pin_1*%
%TO.N,A20*%
X99171000Y-109683400D03*
D15*
%TO.P,J1,2,Pin_2*%
%TO.N,A21*%
X99171000Y-107143400D03*
%TO.P,J1,3,Pin_3*%
%TO.N,A22*%
X99171000Y-104603400D03*
%TO.P,J1,4,Pin_4*%
%TO.N,A23*%
X99171000Y-102063400D03*
%TD*%
D10*
%TO.P,U10,1,A0*%
%TO.N,A1*%
X140300000Y-109345000D03*
%TO.P,U10,2,A1*%
%TO.N,A2*%
X140300000Y-108075000D03*
%TO.P,U10,3,A2*%
%TO.N,A3*%
X140300000Y-106805000D03*
%TO.P,U10,4,A3*%
%TO.N,A4*%
X140300000Y-105535000D03*
%TO.P,U10,5,A4*%
%TO.N,A5*%
X140300000Y-104265000D03*
%TO.P,U10,6,~{CE}*%
%TO.N,EVENRAM2*%
X140300000Y-102995000D03*
%TO.P,U10,7,I/O0*%
%TO.N,D8*%
X140300000Y-101725000D03*
%TO.P,U10,8,I/O1*%
%TO.N,D9*%
X140300000Y-100455000D03*
%TO.P,U10,9,VDD*%
%TO.N,VCC*%
X140300000Y-99185000D03*
%TO.P,U10,10,GND*%
%TO.N,GND*%
X140300000Y-97915000D03*
%TO.P,U10,11,I/O2*%
%TO.N,D10*%
X140300000Y-96645000D03*
%TO.P,U10,12,I/O3*%
%TO.N,D11*%
X140300000Y-95375000D03*
%TO.P,U10,13,~{WE}*%
%TO.N,RW*%
X140300000Y-94105000D03*
%TO.P,U10,14,A5*%
%TO.N,A6*%
X140300000Y-92835000D03*
%TO.P,U10,15,A6*%
%TO.N,A7*%
X140300000Y-91565000D03*
%TO.P,U10,16,A7*%
%TO.N,A8*%
X140300000Y-90295000D03*
%TO.P,U10,17,A8*%
%TO.N,A9*%
X140300000Y-89025000D03*
%TO.P,U10,18,A9*%
%TO.N,A10*%
X140300000Y-87755000D03*
%TO.P,U10,19,NC*%
%TO.N,unconnected-(U10-Pad19)*%
X130500000Y-87755000D03*
%TO.P,U10,20,A10*%
%TO.N,A11*%
X130500000Y-89025000D03*
%TO.P,U10,21,A11*%
%TO.N,A12*%
X130500000Y-90295000D03*
%TO.P,U10,22,A12*%
%TO.N,A13*%
X130500000Y-91565000D03*
%TO.P,U10,23,A13*%
%TO.N,A14*%
X130500000Y-92835000D03*
%TO.P,U10,24,A14*%
%TO.N,A15*%
X130500000Y-94105000D03*
%TO.P,U10,25,I/O4*%
%TO.N,D12*%
X130500000Y-95375000D03*
%TO.P,U10,26,I/O5*%
%TO.N,D13*%
X130500000Y-96645000D03*
%TO.P,U10,27,VDD*%
%TO.N,VCC*%
X130500000Y-97915000D03*
%TO.P,U10,28,GND*%
%TO.N,GND*%
X130500000Y-99185000D03*
%TO.P,U10,29,I/O6*%
%TO.N,D14*%
X130500000Y-100455000D03*
%TO.P,U10,30,I/O7*%
%TO.N,D15*%
X130500000Y-101725000D03*
%TO.P,U10,31,~{OE}*%
%TO.N,WR*%
X130500000Y-102995000D03*
%TO.P,U10,32,A15*%
%TO.N,A16*%
X130500000Y-104265000D03*
%TO.P,U10,33,A16*%
%TO.N,A17*%
X130500000Y-105535000D03*
%TO.P,U10,34,A17*%
%TO.N,A18*%
X130500000Y-106805000D03*
%TO.P,U10,35,A18*%
%TO.N,A19*%
X130500000Y-108075000D03*
%TO.P,U10,36,NC*%
%TO.N,unconnected-(U10-Pad36)*%
X130500000Y-109345000D03*
%TD*%
%TO.P,U8,1,A0*%
%TO.N,A1*%
X113650000Y-109345000D03*
%TO.P,U8,2,A1*%
%TO.N,A2*%
X113650000Y-108075000D03*
%TO.P,U8,3,A2*%
%TO.N,A3*%
X113650000Y-106805000D03*
%TO.P,U8,4,A3*%
%TO.N,A4*%
X113650000Y-105535000D03*
%TO.P,U8,5,A4*%
%TO.N,A5*%
X113650000Y-104265000D03*
%TO.P,U8,6,~{CE}*%
%TO.N,EVENRAM1*%
X113650000Y-102995000D03*
%TO.P,U8,7,I/O0*%
%TO.N,D8*%
X113650000Y-101725000D03*
%TO.P,U8,8,I/O1*%
%TO.N,D9*%
X113650000Y-100455000D03*
%TO.P,U8,9,VDD*%
%TO.N,VCC*%
X113650000Y-99185000D03*
%TO.P,U8,10,GND*%
%TO.N,GND*%
X113650000Y-97915000D03*
%TO.P,U8,11,I/O2*%
%TO.N,D10*%
X113650000Y-96645000D03*
%TO.P,U8,12,I/O3*%
%TO.N,D11*%
X113650000Y-95375000D03*
%TO.P,U8,13,~{WE}*%
%TO.N,RW*%
X113650000Y-94105000D03*
%TO.P,U8,14,A5*%
%TO.N,A6*%
X113650000Y-92835000D03*
%TO.P,U8,15,A6*%
%TO.N,A7*%
X113650000Y-91565000D03*
%TO.P,U8,16,A7*%
%TO.N,A8*%
X113650000Y-90295000D03*
%TO.P,U8,17,A8*%
%TO.N,A9*%
X113650000Y-89025000D03*
%TO.P,U8,18,A9*%
%TO.N,A10*%
X113650000Y-87755000D03*
%TO.P,U8,19,NC*%
%TO.N,unconnected-(U8-Pad19)*%
X103850000Y-87755000D03*
%TO.P,U8,20,A10*%
%TO.N,A11*%
X103850000Y-89025000D03*
%TO.P,U8,21,A11*%
%TO.N,A12*%
X103850000Y-90295000D03*
%TO.P,U8,22,A12*%
%TO.N,A13*%
X103850000Y-91565000D03*
%TO.P,U8,23,A13*%
%TO.N,A14*%
X103850000Y-92835000D03*
%TO.P,U8,24,A14*%
%TO.N,A15*%
X103850000Y-94105000D03*
%TO.P,U8,25,I/O4*%
%TO.N,D12*%
X103850000Y-95375000D03*
%TO.P,U8,26,I/O5*%
%TO.N,D13*%
X103850000Y-96645000D03*
%TO.P,U8,27,VDD*%
%TO.N,VCC*%
X103850000Y-97915000D03*
%TO.P,U8,28,GND*%
%TO.N,GND*%
X103850000Y-99185000D03*
%TO.P,U8,29,I/O6*%
%TO.N,D14*%
X103850000Y-100455000D03*
%TO.P,U8,30,I/O7*%
%TO.N,D15*%
X103850000Y-101725000D03*
%TO.P,U8,31,~{OE}*%
%TO.N,WR*%
X103850000Y-102995000D03*
%TO.P,U8,32,A15*%
%TO.N,A16*%
X103850000Y-104265000D03*
%TO.P,U8,33,A16*%
%TO.N,A17*%
X103850000Y-105535000D03*
%TO.P,U8,34,A17*%
%TO.N,A18*%
X103850000Y-106805000D03*
%TO.P,U8,35,A18*%
%TO.N,A19*%
X103850000Y-108075000D03*
%TO.P,U8,36,NC*%
%TO.N,unconnected-(U8-Pad36)*%
X103850000Y-109345000D03*
%TD*%
D11*
%TO.P,C11,1,1*%
%TO.N,VCC*%
X147100000Y-128000000D03*
%TO.P,C11,2,2*%
%TO.N,GND*%
X147100000Y-125500000D03*
%TD*%
%TO.P,C9,1,1*%
%TO.N,VCC*%
X119350000Y-97900000D03*
%TO.P,C9,2,2*%
%TO.N,GND*%
X119350000Y-95400000D03*
%TD*%
D12*
%TO.P,U3,1,A18*%
%TO.N,A19*%
X127800000Y-101900000D03*
D13*
%TO.P,U3,2,A16*%
%TO.N,A17*%
X127800000Y-104440000D03*
%TO.P,U3,3,A14*%
%TO.N,A15*%
X127800000Y-106980000D03*
%TO.P,U3,4,A12*%
%TO.N,A13*%
X127800000Y-109520000D03*
%TO.P,U3,5,A7*%
%TO.N,A8*%
X127800000Y-112060000D03*
%TO.P,U3,6,A6*%
%TO.N,A7*%
X127800000Y-114600000D03*
%TO.P,U3,7,A5*%
%TO.N,A6*%
X127800000Y-117140000D03*
%TO.P,U3,8,A4*%
%TO.N,A5*%
X127800000Y-119680000D03*
%TO.P,U3,9,A3*%
%TO.N,A4*%
X127800000Y-122220000D03*
%TO.P,U3,10,A2*%
%TO.N,A3*%
X127800000Y-124760000D03*
%TO.P,U3,11,A1*%
%TO.N,A2*%
X127800000Y-127300000D03*
%TO.P,U3,12,A0*%
%TO.N,A1*%
X127800000Y-129840000D03*
%TO.P,U3,13,DQ0*%
%TO.N,D0*%
X127800000Y-132380000D03*
%TO.P,U3,14,DQ1*%
%TO.N,D1*%
X127800000Y-134920000D03*
%TO.P,U3,15,DQ2*%
%TO.N,D2*%
X127800000Y-137460000D03*
%TO.P,U3,16,VSS*%
%TO.N,GND*%
X127800000Y-140000000D03*
%TO.P,U3,17,DQ3*%
%TO.N,D3*%
X143040000Y-140000000D03*
%TO.P,U3,18,DQ4*%
%TO.N,D4*%
X143040000Y-137460000D03*
%TO.P,U3,19,DQ5*%
%TO.N,D5*%
X143040000Y-134920000D03*
%TO.P,U3,20,DQ6*%
%TO.N,D6*%
X143040000Y-132380000D03*
%TO.P,U3,21,DQ7*%
%TO.N,D7*%
X143040000Y-129840000D03*
%TO.P,U3,22,CE*%
%TO.N,ODDRAMSEL*%
X143040000Y-127300000D03*
%TO.P,U3,23,A10*%
%TO.N,A11*%
X143040000Y-124760000D03*
%TO.P,U3,24,OE*%
%TO.N,WR*%
X143040000Y-122220000D03*
%TO.P,U3,25,A11*%
%TO.N,A12*%
X143040000Y-119680000D03*
%TO.P,U3,26,A9*%
%TO.N,A10*%
X143040000Y-117140000D03*
%TO.P,U3,27,A8*%
%TO.N,A9*%
X143040000Y-114600000D03*
%TO.P,U3,28,A13*%
%TO.N,A14*%
X143040000Y-112060000D03*
%TO.P,U3,29,WE*%
%TO.N,RW*%
X143040000Y-109520000D03*
%TO.P,U3,30,A17*%
%TO.N,A18*%
X143040000Y-106980000D03*
%TO.P,U3,31,A15*%
%TO.N,A16*%
X143040000Y-104440000D03*
%TO.P,U3,32,VCC*%
%TO.N,VCC*%
X143040000Y-101900000D03*
%TD*%
D10*
%TO.P,U2,1,A0*%
%TO.N,A1*%
X92950000Y-137595000D03*
%TO.P,U2,2,A1*%
%TO.N,A2*%
X92950000Y-136325000D03*
%TO.P,U2,3,A2*%
%TO.N,A3*%
X92950000Y-135055000D03*
%TO.P,U2,4,A3*%
%TO.N,A4*%
X92950000Y-133785000D03*
%TO.P,U2,5,A4*%
%TO.N,A5*%
X92950000Y-132515000D03*
%TO.P,U2,6,~{CE}*%
%TO.N,ODDRAM0*%
X92950000Y-131245000D03*
%TO.P,U2,7,I/O0*%
%TO.N,D0*%
X92950000Y-129975000D03*
%TO.P,U2,8,I/O1*%
%TO.N,D1*%
X92950000Y-128705000D03*
%TO.P,U2,9,VDD*%
%TO.N,VCC*%
X92950000Y-127435000D03*
%TO.P,U2,10,GND*%
%TO.N,GND*%
X92950000Y-126165000D03*
%TO.P,U2,11,I/O2*%
%TO.N,D2*%
X92950000Y-124895000D03*
%TO.P,U2,12,I/O3*%
%TO.N,D3*%
X92950000Y-123625000D03*
%TO.P,U2,13,~{WE}*%
%TO.N,RW*%
X92950000Y-122355000D03*
%TO.P,U2,14,A5*%
%TO.N,A6*%
X92950000Y-121085000D03*
%TO.P,U2,15,A6*%
%TO.N,A7*%
X92950000Y-119815000D03*
%TO.P,U2,16,A7*%
%TO.N,A8*%
X92950000Y-118545000D03*
%TO.P,U2,17,A8*%
%TO.N,A9*%
X92950000Y-117275000D03*
%TO.P,U2,18,A9*%
%TO.N,A10*%
X92950000Y-116005000D03*
%TO.P,U2,19,NC*%
%TO.N,unconnected-(U2-Pad19)*%
X83150000Y-116005000D03*
%TO.P,U2,20,A10*%
%TO.N,A11*%
X83150000Y-117275000D03*
%TO.P,U2,21,A11*%
%TO.N,A12*%
X83150000Y-118545000D03*
%TO.P,U2,22,A12*%
%TO.N,A13*%
X83150000Y-119815000D03*
%TO.P,U2,23,A13*%
%TO.N,A14*%
X83150000Y-121085000D03*
%TO.P,U2,24,A14*%
%TO.N,A15*%
X83150000Y-122355000D03*
%TO.P,U2,25,I/O4*%
%TO.N,D4*%
X83150000Y-123625000D03*
%TO.P,U2,26,I/O5*%
%TO.N,D5*%
X83150000Y-124895000D03*
%TO.P,U2,27,VDD*%
%TO.N,VCC*%
X83150000Y-126165000D03*
%TO.P,U2,28,GND*%
%TO.N,GND*%
X83150000Y-127435000D03*
%TO.P,U2,29,I/O6*%
%TO.N,D6*%
X83150000Y-128705000D03*
%TO.P,U2,30,I/O7*%
%TO.N,D7*%
X83150000Y-129975000D03*
%TO.P,U2,31,~{OE}*%
%TO.N,WR*%
X83150000Y-131245000D03*
%TO.P,U2,32,A15*%
%TO.N,A16*%
X83150000Y-132515000D03*
%TO.P,U2,33,A16*%
%TO.N,A17*%
X83150000Y-133785000D03*
%TO.P,U2,34,A17*%
%TO.N,A18*%
X83150000Y-135055000D03*
%TO.P,U2,35,A18*%
%TO.N,A19*%
X83150000Y-136325000D03*
%TO.P,U2,36,NC*%
%TO.N,unconnected-(U2-Pad36)*%
X83150000Y-137595000D03*
%TD*%
D11*
%TO.P,C1,1,1*%
%TO.N,VCC*%
X98550000Y-94550000D03*
%TO.P,C1,2,2*%
%TO.N,GND*%
X98550000Y-97050000D03*
%TD*%
D16*
%TO.P,U1,1,E*%
%TO.N,ODDRAMSEL*%
X115525000Y-114675000D03*
D17*
%TO.P,U1,2,A0*%
%TO.N,A20*%
X115525000Y-117215000D03*
%TO.P,U1,3,A1*%
%TO.N,A21*%
X115525000Y-119755000D03*
%TO.P,U1,4,O0*%
%TO.N,ODDRAM0*%
X115525000Y-122295000D03*
%TO.P,U1,5,O1*%
%TO.N,ODDRAM1*%
X115525000Y-124835000D03*
%TO.P,U1,6,O2*%
%TO.N,ODDRAM2*%
X115525000Y-127375000D03*
%TO.P,U1,7,O3*%
%TO.N,ODDRAM3*%
X115525000Y-129915000D03*
%TO.P,U1,8,GND*%
%TO.N,GND*%
X115525000Y-132455000D03*
%TO.P,U1,9,O3*%
%TO.N,EVENRAM3*%
X123145000Y-132455000D03*
%TO.P,U1,10,O2*%
%TO.N,EVENRAM2*%
X123145000Y-129915000D03*
%TO.P,U1,11,O1*%
%TO.N,EVENRAM1*%
X123145000Y-127375000D03*
%TO.P,U1,12,O0*%
%TO.N,EVENRAM0*%
X123145000Y-124835000D03*
%TO.P,U1,13,A1*%
%TO.N,A21*%
X123145000Y-122295000D03*
%TO.P,U1,14,A0*%
%TO.N,A20*%
X123145000Y-119755000D03*
%TO.P,U1,15,E*%
%TO.N,EVENRAMSEL*%
X123145000Y-117215000D03*
%TO.P,U1,16,VCC*%
%TO.N,VCC*%
X123145000Y-114675000D03*
%TD*%
D18*
%TO.N,A20*%
X108433800Y-109930500D03*
X119523900Y-118109400D03*
%TO.N,A19*%
X125175000Y-101607700D03*
X126780300Y-107663300D03*
X153011900Y-108074300D03*
X86900600Y-135769400D03*
X136287600Y-135874000D03*
X84916900Y-108287700D03*
%TO.N,A17*%
X97327000Y-104958300D03*
X81404000Y-105525600D03*
X95579200Y-133961200D03*
X81403100Y-132729600D03*
X156231100Y-106170000D03*
X100727000Y-105531700D03*
%TO.N,A16*%
X86324700Y-131962200D03*
X166599454Y-131364011D03*
X84905700Y-104299700D03*
X115934300Y-103385700D03*
X95112800Y-132588200D03*
X134351200Y-131696100D03*
X109936100Y-104265000D03*
%TO.N,A13*%
X156473500Y-119915000D03*
X123938500Y-92233700D03*
X132361200Y-119805500D03*
X84962900Y-119259300D03*
X88621700Y-91565000D03*
X156692600Y-91565000D03*
X124723800Y-109433000D03*
X128199400Y-91958200D03*
%TO.N,A8*%
X150261200Y-114069200D03*
X143804200Y-89802700D03*
%TO.N,A7*%
X142041100Y-118898500D03*
X91219600Y-120092800D03*
X132928500Y-91565000D03*
X148402900Y-115763200D03*
X126145800Y-91632500D03*
X105591200Y-91607400D03*
X152459600Y-91565000D03*
X101630600Y-91634400D03*
%TO.N,A6*%
X94730400Y-121085000D03*
X113886700Y-116970700D03*
X106912600Y-92835000D03*
X97443500Y-92835000D03*
%TO.N,A5*%
X134832100Y-132472500D03*
X136666700Y-104265000D03*
X97633300Y-103990100D03*
X112120400Y-103565900D03*
X95154100Y-131947000D03*
X158019100Y-104479200D03*
X144267500Y-132215500D03*
X106592100Y-105970300D03*
X126239300Y-105729300D03*
X110694700Y-106032800D03*
X95429100Y-103990100D03*
%TO.N,A4*%
X138584300Y-133483900D03*
X145897000Y-105535000D03*
X160289500Y-105535000D03*
X133818700Y-132527700D03*
X162910900Y-134553100D03*
X160013500Y-122448000D03*
%TO.N,A3*%
X115875700Y-106797100D03*
X132300000Y-130200000D03*
X96845600Y-106805000D03*
X160488800Y-106696400D03*
X145153650Y-132003650D03*
X106006600Y-106530600D03*
X125319700Y-124452000D03*
X137535400Y-134834500D03*
X102084900Y-135057400D03*
X95757200Y-106805000D03*
X162788600Y-135276000D03*
X160162200Y-126062300D03*
X97343900Y-135055000D03*
%TO.N,A2*%
X149682500Y-136298600D03*
X125573500Y-108447600D03*
X137905600Y-136425000D03*
%TO.N,A1*%
X125223200Y-110365200D03*
X137284100Y-137089200D03*
X150172400Y-138035900D03*
%TO.N,D0*%
X124716800Y-131939900D03*
X147150000Y-131376700D03*
X126192400Y-129804500D03*
X121025400Y-131403700D03*
%TO.N,D1*%
X96608700Y-128737900D03*
X117397900Y-128989600D03*
X159529700Y-129991100D03*
X122394400Y-134899100D03*
X102364500Y-128705000D03*
%TO.N,D2*%
X97423300Y-125048100D03*
X142034200Y-123245000D03*
X102319700Y-124895000D03*
X112660700Y-125243200D03*
X137202500Y-125200000D03*
X136527800Y-128998900D03*
D19*
%TO.N,GND*%
X97715000Y-127435000D03*
X90650000Y-125600000D03*
X85000000Y-127550000D03*
X107385000Y-126165000D03*
X85150000Y-99700000D03*
X150250000Y-98400000D03*
X142300000Y-97750000D03*
X134435000Y-127535000D03*
X156400000Y-127100000D03*
X128350000Y-98900000D03*
X95385000Y-97915000D03*
X137985000Y-126265000D03*
X105915000Y-99185000D03*
D18*
%TO.N,D3*%
X112811100Y-124622700D03*
X160499200Y-123881700D03*
%TO.N,D4*%
X152985700Y-123987400D03*
X113420000Y-126601700D03*
%TO.N,D5*%
X153187500Y-125585800D03*
%TO.N,D6*%
X141955400Y-128236500D03*
X143902400Y-129004600D03*
%TO.N,D7*%
X90582400Y-129975000D03*
X126609000Y-130899000D03*
X94677400Y-130033600D03*
X107841600Y-129893500D03*
%TO.N,ODDRAM0*%
X97010000Y-131245000D03*
%TO.N,A11*%
X137960900Y-87780600D03*
X162940100Y-119231300D03*
X152985500Y-89201700D03*
X84905700Y-89238000D03*
X134949800Y-118061800D03*
X82303700Y-114614200D03*
X156260300Y-119231300D03*
X150140300Y-118146300D03*
X95652400Y-89025000D03*
%TO.N,WR*%
X159530900Y-123470000D03*
X86414400Y-102995000D03*
X159271200Y-102900700D03*
X144042100Y-103546100D03*
X135299300Y-131175000D03*
X156569900Y-131262300D03*
X87270900Y-130655800D03*
%TO.N,A12*%
X95613100Y-118545000D03*
X89182500Y-118545000D03*
X89426900Y-90883200D03*
%TO.N,A10*%
X162242800Y-87755000D03*
%TO.N,A9*%
X90730800Y-117484400D03*
X98010300Y-117351500D03*
X166298600Y-89292500D03*
X91167100Y-89512500D03*
X106505300Y-89025000D03*
X127808000Y-89025000D03*
X107841600Y-117094600D03*
X137511500Y-88395900D03*
%TO.N,A14*%
X152919000Y-121317400D03*
X98108100Y-92503400D03*
X94774900Y-94864700D03*
X137130600Y-121185000D03*
X157311200Y-111703200D03*
X132342300Y-92835000D03*
X86825700Y-94662600D03*
X95272600Y-121580700D03*
X90662400Y-121008600D03*
X162441100Y-93156100D03*
X156580400Y-121308500D03*
X142175600Y-92815600D03*
%TO.N,A15*%
X118262100Y-121921300D03*
X156588900Y-122455000D03*
X157786600Y-107609900D03*
X128768700Y-93941500D03*
X108487400Y-93827700D03*
X147131400Y-94105000D03*
X126842300Y-121138900D03*
X117686000Y-119304700D03*
%TO.N,A18*%
X170046500Y-107647400D03*
X89074600Y-134499400D03*
X96970600Y-107990100D03*
X157967100Y-135782600D03*
X169171600Y-135985700D03*
X88621700Y-107440000D03*
X121244900Y-136164700D03*
X100470500Y-107623700D03*
D19*
%TO.N,VCC*%
X142415000Y-99185000D03*
X156450000Y-125850000D03*
X97350000Y-126000000D03*
X95500000Y-99200000D03*
X107615000Y-127435000D03*
X84900000Y-126550000D03*
X90865000Y-127435000D03*
X152900000Y-97850000D03*
X132900000Y-125850000D03*
X101750000Y-98300000D03*
X85200000Y-98450000D03*
X111750000Y-99250000D03*
X132450000Y-98300000D03*
X138315000Y-127535000D03*
D18*
%TO.N,D8*%
X122391000Y-101725000D03*
X157177700Y-102444000D03*
X96828600Y-101674900D03*
X106292200Y-101767600D03*
%TO.N,D9*%
X160323200Y-100540700D03*
X106292200Y-100491600D03*
X150909427Y-99280473D03*
X127892000Y-100292400D03*
X150112700Y-100231000D03*
X99787400Y-99728500D03*
%TO.N,D10*%
X149071500Y-97163600D03*
X158704000Y-97192600D03*
X117374600Y-99324400D03*
X143625300Y-97004000D03*
X106197400Y-96346100D03*
X96981800Y-96645000D03*
X133553600Y-97337200D03*
X116362800Y-96310800D03*
%TO.N,D11*%
X166435700Y-94943500D03*
%TO.N,D12*%
X159950000Y-96000000D03*
%TO.N,D13*%
X161900000Y-96500000D03*
%TO.N,D14*%
X166132200Y-101123100D03*
%TO.N,D15*%
X161996800Y-101725000D03*
%TO.N,ODDRAMSEL*%
X121469500Y-121716900D03*
X119617900Y-121716900D03*
X124264300Y-125879300D03*
%TO.N,RW*%
X107912500Y-122047700D03*
X96960900Y-122437100D03*
X161381600Y-110244800D03*
X161989400Y-121857300D03*
X160212000Y-93538000D03*
X106463600Y-94303000D03*
X135010900Y-121929000D03*
X96676100Y-94198200D03*
%TO.N,EVENRAM0*%
X99038800Y-103333400D03*
%TO.N,ODDRAM1*%
X111399500Y-131136200D03*
%TO.N,EVENRAM1*%
X115377400Y-104022000D03*
%TO.N,EVENRAM2*%
X121204800Y-127163000D03*
X132861000Y-102886200D03*
X120335400Y-115063400D03*
X130683200Y-112737600D03*
%TO.N,ODDRAM3*%
X131073900Y-139022900D03*
%TO.N,EVENRAM3*%
X160049200Y-102995000D03*
%TD*%
D20*
%TO.N,A20*%
X100518400Y-109930500D02*
X100271300Y-109683400D01*
X99171000Y-109683400D02*
X100271300Y-109683400D01*
X108433800Y-109930500D02*
X100518400Y-109930500D01*
X119523900Y-118109400D02*
X118629500Y-117215000D01*
X118629500Y-117215000D02*
X115525000Y-117215000D01*
%TO.N,A21*%
X115525000Y-119755000D02*
X116975300Y-119755000D01*
X119515300Y-122295000D02*
X116975300Y-119755000D01*
X123145000Y-122295000D02*
X119515300Y-122295000D01*
%TO.N,A19*%
X127192000Y-108075000D02*
X126780300Y-107663300D01*
X141905900Y-135975300D02*
X141804600Y-135874000D01*
X126780300Y-107663300D02*
X126622400Y-107505400D01*
X154739300Y-108074300D02*
X153011900Y-108074300D01*
X97158400Y-107505700D02*
X91546100Y-107505700D01*
X99850000Y-136325000D02*
X99294400Y-135769400D01*
X91546100Y-107505700D02*
X90764100Y-108287700D01*
X130500000Y-108075000D02*
X127192000Y-108075000D01*
X130500000Y-136425000D02*
X135736600Y-136425000D01*
X127800000Y-101900000D02*
X126749700Y-101900000D01*
X149879400Y-135823300D02*
X144179900Y-135823300D01*
X97914900Y-108262200D02*
X97158400Y-107505700D01*
X90764100Y-108287700D02*
X84916900Y-108287700D01*
X86900600Y-135769400D02*
X83705600Y-135769400D01*
X83150000Y-108075000D02*
X83362700Y-108287700D01*
X144027900Y-135975300D02*
X141905900Y-135975300D01*
X150060100Y-136004000D02*
X149879400Y-135823300D01*
X154319000Y-136004000D02*
X150060100Y-136004000D01*
X154740000Y-136425000D02*
X154319000Y-136004000D01*
X104419600Y-107505400D02*
X103850000Y-108075000D01*
X126622400Y-107505400D02*
X104419600Y-107505400D01*
X103662800Y-108262200D02*
X97914900Y-108262200D01*
X126749700Y-101900000D02*
X126457400Y-101607700D01*
X141804600Y-135874000D02*
X136287600Y-135874000D01*
X83705600Y-135769400D02*
X83150000Y-136325000D01*
X135736600Y-136425000D02*
X136287600Y-135874000D01*
X144179900Y-135823300D02*
X144027900Y-135975300D01*
X126457400Y-101607700D02*
X125175000Y-101607700D01*
X99294400Y-135769400D02*
X86900600Y-135769400D01*
X83362700Y-108287700D02*
X84916900Y-108287700D01*
%TO.N,A17*%
X127275700Y-133809900D02*
X126726900Y-134358700D01*
X127800000Y-104440000D02*
X126749700Y-104440000D01*
X128850300Y-104440000D02*
X128850300Y-104571300D01*
X130424900Y-133809900D02*
X127275700Y-133809900D01*
X82458500Y-133785000D02*
X81403100Y-132729600D01*
X100423700Y-134358700D02*
X99850000Y-133785000D01*
X81404000Y-105525600D02*
X83140600Y-105525600D01*
X141839500Y-134512800D02*
X137963000Y-134512800D01*
X83150000Y-105535000D02*
X83726700Y-104958300D01*
X142482600Y-133869700D02*
X141839500Y-134512800D01*
X137264400Y-133814200D02*
X130570800Y-133814200D01*
X128325200Y-104440000D02*
X128850300Y-104440000D01*
X154724700Y-133869700D02*
X142482600Y-133869700D01*
X126369100Y-104820600D02*
X104561100Y-104820600D01*
X104561100Y-104820600D02*
X103850000Y-105531700D01*
X103850000Y-105531700D02*
X100727000Y-105531700D01*
X128850300Y-104571300D02*
X129814000Y-105535000D01*
X156231100Y-106170000D02*
X155375000Y-106170000D01*
X83726700Y-104958300D02*
X97327000Y-104958300D01*
X126749700Y-104440000D02*
X126369100Y-104820600D01*
X126726900Y-134358700D02*
X100423700Y-134358700D01*
X137963000Y-134512800D02*
X137264400Y-133814200D01*
X95579200Y-133961200D02*
X99673800Y-133961200D01*
X155375000Y-106170000D02*
X154740000Y-105535000D01*
%TO.N,A16*%
X129782200Y-104265000D02*
X128902900Y-103385700D01*
X142827700Y-104839400D02*
X131074400Y-104839400D01*
X98430400Y-100945400D02*
X99641600Y-100945400D01*
X99641600Y-100945400D02*
X102961200Y-104265000D01*
X160595000Y-132626500D02*
X161217200Y-132004300D01*
X89713600Y-104299700D02*
X91601200Y-102412100D01*
X166189700Y-103997700D02*
X165906100Y-103714100D01*
X144090300Y-104440000D02*
X145184900Y-103345400D01*
X83150000Y-132515000D02*
X83702800Y-131962200D01*
X131074400Y-104839400D02*
X130500000Y-104265000D01*
X84905700Y-104299700D02*
X89713600Y-104299700D01*
X96963700Y-102412100D02*
X98430400Y-100945400D01*
X165906100Y-103714100D02*
X155290900Y-103714100D01*
X167240000Y-104440000D02*
X166189700Y-104440000D01*
X143227100Y-104440000D02*
X144090300Y-104440000D01*
X95112800Y-132588200D02*
X99776800Y-132588200D01*
X161217200Y-132004300D02*
X165959165Y-132004300D01*
X91601200Y-102412100D02*
X96963700Y-102412100D01*
X166189700Y-104440000D02*
X166189700Y-103997700D01*
X83702800Y-131962200D02*
X86324700Y-131962200D01*
X155290900Y-103714100D02*
X154740000Y-104265000D01*
X154751500Y-132626500D02*
X160595000Y-132626500D01*
X109936100Y-104265000D02*
X103850000Y-104265000D01*
X83184700Y-104299700D02*
X84905700Y-104299700D01*
X165959165Y-132004300D02*
X166599454Y-131364011D01*
X133978300Y-131696100D02*
X133059400Y-132615000D01*
X134351200Y-131696100D02*
X133978300Y-131696100D01*
X145184900Y-103345400D02*
X152702800Y-103345400D01*
X133059400Y-132615000D02*
X130500000Y-132615000D01*
X152702800Y-103345400D02*
X153622400Y-104265000D01*
X128902900Y-103385700D02*
X115934300Y-103385700D01*
%TO.N,A13*%
X98305000Y-92028100D02*
X97911300Y-92028100D01*
X156473500Y-119915000D02*
X154740000Y-119915000D01*
X103850000Y-91565000D02*
X103243200Y-92171800D01*
X154740000Y-91565000D02*
X156692600Y-91565000D01*
X89228500Y-92171800D02*
X88621700Y-91565000D01*
X84962900Y-119259300D02*
X83705700Y-119259300D01*
X128592600Y-91565000D02*
X130500000Y-91565000D01*
X98448700Y-92171800D02*
X98305000Y-92028100D01*
X103243200Y-92171800D02*
X98448700Y-92171800D01*
X83705700Y-119259300D02*
X83150000Y-119815000D01*
X132361200Y-119805500D02*
X130609500Y-119805500D01*
X126749700Y-109520000D02*
X126662700Y-109433000D01*
X128199400Y-91958200D02*
X128592600Y-91565000D01*
X127800000Y-109520000D02*
X126749700Y-109520000D01*
X99850000Y-119815000D02*
X99294300Y-119259300D01*
X97911300Y-92028100D02*
X97767600Y-92171800D01*
X88621700Y-91565000D02*
X83150000Y-91565000D01*
X99294300Y-119259300D02*
X84962900Y-119259300D01*
X126662700Y-109433000D02*
X124723800Y-109433000D01*
X97767600Y-92171800D02*
X89228500Y-92171800D01*
X123938500Y-92233700D02*
X104518700Y-92233700D01*
X104518700Y-92233700D02*
X103850000Y-91565000D01*
%TO.N,A8*%
X113094400Y-89739400D02*
X93505600Y-89739400D01*
X109088700Y-117983700D02*
X93511300Y-117983700D01*
X111318900Y-117606300D02*
X110380200Y-118545000D01*
X143546200Y-118410000D02*
X147887000Y-114069200D01*
X111318900Y-116527100D02*
X111318900Y-117606300D01*
X138311400Y-118645000D02*
X131726400Y-112060000D01*
X139671700Y-89666700D02*
X140300000Y-90295000D01*
X93511300Y-117983700D02*
X92950000Y-118545000D01*
X140792300Y-89802700D02*
X143804200Y-89802700D01*
X127800000Y-112060000D02*
X126749700Y-112060000D01*
X113650000Y-90295000D02*
X113094400Y-89739400D01*
X152000000Y-112060000D02*
X156282400Y-112060000D01*
X167675100Y-111009700D02*
X157332700Y-111009700D01*
X168290400Y-117630400D02*
X168290400Y-111625000D01*
X140300000Y-118645000D02*
X138311400Y-118645000D01*
X167510800Y-118410000D02*
X168290400Y-117630400D01*
X114571600Y-113274400D02*
X111318900Y-116527100D01*
X140300000Y-90295000D02*
X140792300Y-89802700D01*
X157332700Y-111009700D02*
X156282400Y-112060000D01*
X168290400Y-111625000D02*
X167675100Y-111009700D01*
X163989000Y-89744000D02*
X164540000Y-90295000D01*
X164540000Y-118645000D02*
X164775000Y-118410000D01*
X109650000Y-118545000D02*
X109088700Y-117983700D01*
X93505600Y-89739400D02*
X92950000Y-90295000D01*
X125535300Y-113274400D02*
X114571600Y-113274400D01*
X140300000Y-118645000D02*
X140535000Y-118410000D01*
X126749700Y-112060000D02*
X125535300Y-113274400D01*
X140535000Y-118410000D02*
X143546200Y-118410000D01*
X143804200Y-89802700D02*
X143862900Y-89744000D01*
X114278300Y-89666700D02*
X139671700Y-89666700D01*
X147887000Y-114069200D02*
X150261200Y-114069200D01*
X131726400Y-112060000D02*
X127800000Y-112060000D01*
X143862900Y-89744000D02*
X163989000Y-89744000D01*
X164775000Y-118410000D02*
X167510800Y-118410000D01*
X113650000Y-90295000D02*
X114278300Y-89666700D01*
%TO.N,A7*%
X149566100Y-114600000D02*
X148402900Y-115763200D01*
X105591200Y-91607400D02*
X113607600Y-91607400D01*
X152459600Y-91565000D02*
X140300000Y-91565000D01*
X142041100Y-118898500D02*
X141024600Y-119915000D01*
X109650000Y-119815000D02*
X109094400Y-120370600D01*
X152459600Y-91565000D02*
X153015200Y-91009400D01*
X126145800Y-91632500D02*
X113717500Y-91632500D01*
X93019400Y-91634400D02*
X101630600Y-91634400D01*
X140300000Y-91565000D02*
X132928500Y-91565000D01*
X152000000Y-114600000D02*
X149566100Y-114600000D01*
X160655900Y-119915000D02*
X155340900Y-114600000D01*
X127800000Y-114600000D02*
X133321500Y-114600000D01*
X164540000Y-119915000D02*
X160655900Y-119915000D01*
X155340900Y-114600000D02*
X152000000Y-114600000D01*
X92950000Y-119815000D02*
X92950000Y-120092800D01*
X138636500Y-119915000D02*
X140300000Y-119915000D01*
X153015200Y-91009400D02*
X163984400Y-91009400D01*
X133321500Y-114600000D02*
X138636500Y-119915000D01*
X163984400Y-91009400D02*
X164540000Y-91565000D01*
X109094400Y-120370600D02*
X93227800Y-120370600D01*
X92950000Y-120092800D02*
X91219600Y-120092800D01*
X93227800Y-120370600D02*
X92950000Y-120092800D01*
%TO.N,A6*%
X149921200Y-117648700D02*
X149642700Y-117927200D01*
X127800000Y-117458800D02*
X126495500Y-116154300D01*
X149642700Y-117927200D02*
X149642700Y-118358400D01*
X164540000Y-92835000D02*
X163910900Y-92205900D01*
X128806600Y-119196900D02*
X136013400Y-119196900D01*
X137884000Y-121067500D02*
X140300000Y-121067500D01*
X126495500Y-116154300D02*
X114614800Y-116154300D01*
X92950000Y-92835000D02*
X97443500Y-92835000D01*
X114614800Y-116154300D02*
X113886700Y-116882400D01*
X150352400Y-117648700D02*
X149921200Y-117648700D01*
X152971200Y-120763400D02*
X151572400Y-120763400D01*
X128674800Y-92284000D02*
X139749000Y-92284000D01*
X150861100Y-117140000D02*
X150352400Y-117648700D01*
X161178800Y-121185000D02*
X160900300Y-120906500D01*
X128123800Y-92835000D02*
X128674800Y-92284000D01*
X156838900Y-120607200D02*
X153127400Y-120607200D01*
X127800000Y-117458800D02*
X127800000Y-118190300D01*
X113886700Y-116882400D02*
X113886700Y-116970700D01*
X136013400Y-119196900D02*
X137884000Y-121067500D01*
X113886700Y-117514000D02*
X110315700Y-121085000D01*
X113886700Y-116970700D02*
X113886700Y-117514000D01*
X106912600Y-92835000D02*
X113650000Y-92835000D01*
X152000000Y-117140000D02*
X150861100Y-117140000D01*
X146933600Y-121067500D02*
X140300000Y-121067500D01*
X92950000Y-121085000D02*
X94730400Y-121085000D01*
X163910900Y-92205900D02*
X140929100Y-92205900D01*
X151572400Y-120763400D02*
X149405100Y-118596000D01*
X113650000Y-92835000D02*
X128123800Y-92835000D01*
X127800000Y-118190300D02*
X128806600Y-119196900D01*
X160900300Y-120906500D02*
X157138200Y-120906500D01*
X164540000Y-121185000D02*
X161178800Y-121185000D01*
X139749000Y-92284000D02*
X140300000Y-92835000D01*
X153127400Y-120607200D02*
X152971200Y-120763400D01*
X157138200Y-120906500D02*
X156838900Y-120607200D01*
X140929100Y-92205900D02*
X140300000Y-92835000D01*
X149642700Y-118358400D02*
X149405100Y-118596000D01*
X149405100Y-118596000D02*
X146933600Y-121067500D01*
%TO.N,A5*%
X110795000Y-106133100D02*
X125835500Y-106133100D01*
X152850600Y-133250000D02*
X163905000Y-133250000D01*
X109650000Y-132515000D02*
X109082000Y-131947000D01*
X152654900Y-133445700D02*
X152850600Y-133250000D01*
X125835500Y-106133100D02*
X126239300Y-105729300D01*
X110694700Y-106032800D02*
X110795000Y-106133100D01*
X93518000Y-131947000D02*
X92950000Y-132515000D01*
X144267500Y-132692000D02*
X145021200Y-133445700D01*
X93224900Y-103990100D02*
X92950000Y-104265000D01*
X145021200Y-133445700D02*
X152654900Y-133445700D01*
X95154100Y-131947000D02*
X93518000Y-131947000D01*
X112120400Y-103565900D02*
X112950900Y-103565900D01*
X136666700Y-104265000D02*
X140300000Y-104265000D01*
X106654600Y-106032800D02*
X106592100Y-105970300D01*
X109082000Y-131947000D02*
X95154100Y-131947000D01*
X95429100Y-103990100D02*
X93224900Y-103990100D01*
X158019100Y-104479200D02*
X158233300Y-104265000D01*
X144267500Y-132215500D02*
X144267500Y-132692000D01*
X97633300Y-103990100D02*
X95429100Y-103990100D01*
X134832100Y-132472500D02*
X140157500Y-132472500D01*
X163905000Y-133250000D02*
X164540000Y-132615000D01*
X110694700Y-106032800D02*
X106654600Y-106032800D01*
X144267500Y-132692000D02*
X143491900Y-133467600D01*
X142123200Y-133467600D02*
X141270600Y-132615000D01*
X143491900Y-133467600D02*
X142123200Y-133467600D01*
X158233300Y-104265000D02*
X164540000Y-104265000D01*
X112950900Y-103565900D02*
X113650000Y-104265000D01*
%TO.N,A4*%
X138985400Y-133885000D02*
X140300000Y-133885000D01*
X109650000Y-133627800D02*
X126684000Y-133627800D01*
X113610000Y-105495000D02*
X106370100Y-105495000D01*
X105695100Y-106170000D02*
X100260500Y-106170000D01*
X128445700Y-133445700D02*
X128614800Y-133276600D01*
X164540000Y-105535000D02*
X160289500Y-105535000D01*
X152000000Y-122220000D02*
X153050300Y-122220000D01*
X93505600Y-133229400D02*
X109251600Y-133229400D01*
X138584300Y-133483900D02*
X138985400Y-133885000D01*
X126684000Y-133627800D02*
X126866100Y-133445700D01*
X162910900Y-134553100D02*
X163871900Y-134553100D01*
X113931100Y-105253900D02*
X113650000Y-105535000D01*
X92950000Y-133785000D02*
X93505600Y-133229400D01*
X128299500Y-105535000D02*
X126717400Y-105535000D01*
X153418600Y-121851700D02*
X159417200Y-121851700D01*
X126436300Y-105253900D02*
X113931100Y-105253900D01*
X100260500Y-106170000D02*
X99910200Y-105819700D01*
X140300000Y-105535000D02*
X139745800Y-106089200D01*
X106370100Y-105495000D02*
X105695100Y-106170000D01*
X128614800Y-133276600D02*
X133069800Y-133276600D01*
X126866100Y-133445700D02*
X128445700Y-133445700D01*
X128853700Y-106089200D02*
X128299500Y-105535000D01*
X139745800Y-106089200D02*
X128853700Y-106089200D01*
X126717400Y-105535000D02*
X126436300Y-105253900D01*
X93234700Y-105819700D02*
X92950000Y-105535000D01*
X140300000Y-105535000D02*
X145897000Y-105535000D01*
X109251600Y-133229400D02*
X109650000Y-133627800D01*
X133069800Y-133276600D02*
X133818700Y-132527700D01*
X99910200Y-105819700D02*
X93234700Y-105819700D01*
X159417200Y-121851700D02*
X160013500Y-122448000D01*
X153050300Y-122220000D02*
X153418600Y-121851700D01*
X163871900Y-134553100D02*
X164540000Y-133885000D01*
%TO.N,A3*%
X146635600Y-105535000D02*
X152790700Y-105535000D01*
X152000000Y-124760000D02*
X153050300Y-124760000D01*
X127800000Y-124760000D02*
X125627700Y-124760000D01*
X92950000Y-135055000D02*
X97343900Y-135055000D01*
X132300000Y-130200000D02*
X138400000Y-130200000D01*
X153050300Y-124760000D02*
X153450300Y-124360000D01*
X158763300Y-104970900D02*
X160488800Y-106696400D01*
X138950000Y-130750000D02*
X141620006Y-130750000D01*
X153450300Y-124360000D02*
X158459900Y-124360000D01*
X113650000Y-106797100D02*
X115875700Y-106797100D01*
X158459900Y-124360000D02*
X160162200Y-126062300D01*
X145735600Y-106068600D02*
X146102000Y-106068600D01*
X137855900Y-135155000D02*
X137535400Y-134834500D01*
X146102000Y-106068600D02*
X146635600Y-105535000D01*
X113383500Y-106530600D02*
X113650000Y-106797100D01*
X142200495Y-131330489D02*
X144530489Y-131330489D01*
X125627700Y-124760000D02*
X125319700Y-124452000D01*
X162788600Y-135276000D02*
X164419000Y-135276000D01*
X144530489Y-131330489D02*
X145150000Y-131950000D01*
X102084900Y-135057400D02*
X109647600Y-135057400D01*
X106006600Y-106530600D02*
X113383500Y-106530600D01*
X138400000Y-130200000D02*
X138950000Y-130750000D01*
X92950000Y-106805000D02*
X95757200Y-106805000D01*
X142193500Y-105885400D02*
X145552400Y-105885400D01*
X153354800Y-104970900D02*
X158763300Y-104970900D01*
X152790700Y-105535000D02*
X153354800Y-104970900D01*
X140300000Y-135155000D02*
X137855900Y-135155000D01*
X160597400Y-106805000D02*
X160488800Y-106696400D01*
X145552400Y-105885400D02*
X145735600Y-106068600D01*
X141620006Y-130750000D02*
X142200495Y-131330489D01*
X141273900Y-106805000D02*
X142193500Y-105885400D01*
X164540000Y-106805000D02*
X160597400Y-106805000D01*
%TO.N,A2*%
X97691800Y-110849700D02*
X94917100Y-108075000D01*
X156569600Y-109923500D02*
X153343300Y-109923500D01*
X136270100Y-137001600D02*
X136846700Y-136425000D01*
X153201800Y-137054100D02*
X152550000Y-136402300D01*
X134178100Y-108075000D02*
X132329000Y-109924100D01*
X125200900Y-108075000D02*
X113650000Y-108075000D01*
X109409400Y-136640000D02*
X121441800Y-136640000D01*
X109094400Y-136880600D02*
X109372200Y-136602800D01*
X121441800Y-136640000D02*
X121698600Y-136383200D01*
X164540000Y-136425000D02*
X163910900Y-137054100D01*
X112431800Y-108075000D02*
X109657100Y-110849700D01*
X93505600Y-136880600D02*
X109094400Y-136880600D01*
X149682500Y-136402300D02*
X149682500Y-136298600D01*
X136846700Y-136425000D02*
X137905600Y-136425000D01*
X121698600Y-136383200D02*
X128310900Y-136383200D01*
X153059400Y-109639600D02*
X153059400Y-109084000D01*
X128874700Y-109055800D02*
X128266500Y-108447600D01*
X128266500Y-108447600D02*
X125573500Y-108447600D01*
X128310900Y-136383200D02*
X128929300Y-137001600D01*
X158418100Y-108075000D02*
X156569600Y-109923500D01*
X109372200Y-136602800D02*
X109409400Y-136640000D01*
X128874700Y-109673600D02*
X128874700Y-109055800D01*
X129125200Y-109924100D02*
X128874700Y-109673600D01*
X152050400Y-108075000D02*
X140300000Y-108075000D01*
X109372200Y-136602800D02*
X109650000Y-136325000D01*
X149682500Y-136402300D02*
X140322700Y-136402300D01*
X128929300Y-137001600D02*
X136270100Y-137001600D01*
X94917100Y-108075000D02*
X92950000Y-108075000D01*
X164540000Y-108075000D02*
X158418100Y-108075000D01*
X163910900Y-137054100D02*
X153201800Y-137054100D01*
X132329000Y-109924100D02*
X129125200Y-109924100D01*
X153059400Y-109084000D02*
X152050400Y-108075000D01*
X109657100Y-110849700D02*
X97691800Y-110849700D01*
X92950000Y-136325000D02*
X93505600Y-136880600D01*
X153343300Y-109923500D02*
X153059400Y-109639600D01*
X125573500Y-108447600D02*
X125200900Y-108075000D01*
X140300000Y-108075000D02*
X134178100Y-108075000D01*
X137905600Y-136425000D02*
X140300000Y-136425000D01*
X152550000Y-136402300D02*
X149682500Y-136402300D01*
%TO.N,A1*%
X139694200Y-137089200D02*
X140300000Y-137695000D01*
X140300000Y-109345000D02*
X139040400Y-110604600D01*
X135856100Y-138517200D02*
X137284100Y-137089200D01*
X156754000Y-110597500D02*
X150811000Y-110597500D01*
X109650000Y-137595000D02*
X109082100Y-138162900D01*
X163687300Y-138547700D02*
X150172400Y-138547700D01*
X125462600Y-110604600D02*
X125223200Y-110365200D01*
X109082100Y-138162900D02*
X93517900Y-138162900D01*
X141152700Y-138547700D02*
X140300000Y-137695000D01*
X158006500Y-109345000D02*
X156754000Y-110597500D01*
X94805100Y-111200100D02*
X92950000Y-109345000D01*
X111794900Y-111200100D02*
X94805100Y-111200100D01*
X142160800Y-108469600D02*
X141285400Y-109345000D01*
X150172400Y-138547700D02*
X141152700Y-138547700D01*
X110572200Y-138517200D02*
X135856100Y-138517200D01*
X93517900Y-138162900D02*
X92950000Y-137595000D01*
X137284100Y-137089200D02*
X139694200Y-137089200D01*
X150811000Y-110597500D02*
X148683100Y-108469600D01*
X148683100Y-108469600D02*
X142160800Y-108469600D01*
X113650000Y-109345000D02*
X111794900Y-111200100D01*
X124983900Y-110365200D02*
X125223200Y-110365200D01*
X139040400Y-110604600D02*
X125462600Y-110604600D01*
X123912600Y-109293900D02*
X124983900Y-110365200D01*
X150172400Y-138547700D02*
X150172400Y-138035900D01*
X164540000Y-137695000D02*
X163687300Y-138547700D01*
X113701100Y-109293900D02*
X123912600Y-109293900D01*
X109650000Y-137595000D02*
X110572200Y-138517200D01*
X164540000Y-109345000D02*
X158006500Y-109345000D01*
%TO.N,D0*%
X145023884Y-131329600D02*
X152750900Y-131329600D01*
X93513500Y-129411500D02*
X109086500Y-129411500D01*
X124716800Y-131939900D02*
X126309600Y-131939900D01*
X153326100Y-131904800D02*
X159374400Y-131904800D01*
X152750900Y-131329600D02*
X153326100Y-131904800D01*
X109086500Y-129411500D02*
X109650000Y-129975000D01*
X109650000Y-129975000D02*
X111651100Y-129975000D01*
X141729200Y-130075000D02*
X140300000Y-130075000D01*
X126309600Y-131939900D02*
X126749700Y-132380000D01*
X142554689Y-130900489D02*
X141729200Y-130075000D01*
X92950000Y-129975000D02*
X93513500Y-129411500D01*
X111651100Y-129975000D02*
X113079800Y-131403700D01*
X159625200Y-131654000D02*
X161804500Y-131654000D01*
X144594773Y-130900489D02*
X142554689Y-130900489D01*
X145023884Y-131329600D02*
X144594773Y-130900489D01*
X159374400Y-131904800D02*
X159625200Y-131654000D01*
X113079800Y-131403700D02*
X121025400Y-131403700D01*
X127274900Y-132380000D02*
X126749700Y-132380000D01*
X161804500Y-131654000D02*
X163383500Y-130075000D01*
%TO.N,D1*%
X144390900Y-128529300D02*
X142614300Y-128529300D01*
X142614300Y-128529300D02*
X142338600Y-128805000D01*
X117397900Y-128989600D02*
X117113300Y-128705000D01*
X109650000Y-128705000D02*
X102364500Y-128705000D01*
X96608700Y-128737900D02*
X92982900Y-128737900D01*
X157775700Y-128237100D02*
X153391000Y-128237100D01*
X122394400Y-134899100D02*
X126728800Y-134899100D01*
X164540000Y-128805000D02*
X160715800Y-128805000D01*
X145995100Y-126925100D02*
X144390900Y-128529300D01*
X149003600Y-128418200D02*
X147510500Y-126925100D01*
X117113300Y-128705000D02*
X109650000Y-128705000D01*
X153391000Y-128237100D02*
X153209900Y-128418200D01*
X127800000Y-134920000D02*
X126749700Y-134920000D01*
X147510500Y-126925100D02*
X145995100Y-126925100D01*
X142338600Y-128805000D02*
X140300000Y-128805000D01*
X126728800Y-134899100D02*
X126749700Y-134920000D01*
X160715800Y-128805000D02*
X159529700Y-129991100D01*
X159529700Y-129991100D02*
X157775700Y-128237100D01*
X153209900Y-128418200D02*
X149003600Y-128418200D01*
%TO.N,D2*%
X152665700Y-123285700D02*
X152777400Y-123174000D01*
X97423300Y-125048100D02*
X93103100Y-125048100D01*
X157994100Y-123174000D02*
X159815100Y-124995000D01*
X112312500Y-124895000D02*
X109650000Y-124895000D01*
X140095000Y-125200000D02*
X140300000Y-124995000D01*
X142034200Y-123245000D02*
X142074900Y-123285700D01*
X159815100Y-124995000D02*
X164540000Y-124995000D01*
X109650000Y-124895000D02*
X102319700Y-124895000D01*
X112660700Y-125243200D02*
X112312500Y-124895000D01*
X142074900Y-123285700D02*
X152665700Y-123285700D01*
X152777400Y-123174000D02*
X157994100Y-123174000D01*
X137202500Y-125200000D02*
X140095000Y-125200000D01*
D21*
%TO.N,GND*%
X155965000Y-127535000D02*
X156400000Y-127100000D01*
X151700000Y-98400000D02*
X150250000Y-98400000D01*
X170199511Y-126150489D02*
X170650000Y-125700000D01*
X164540000Y-126265000D02*
X164654511Y-126150489D01*
X116835000Y-97915000D02*
X119350000Y-95400000D01*
X91215000Y-126165000D02*
X90650000Y-125600000D01*
X130500000Y-99185000D02*
X128635000Y-99185000D01*
X142135000Y-97915000D02*
X142300000Y-97750000D01*
X84635000Y-99185000D02*
X85150000Y-99700000D01*
X97715000Y-127435000D02*
X99850000Y-127435000D01*
X113650000Y-97915000D02*
X116835000Y-97915000D01*
X170050000Y-94550000D02*
X166685000Y-97915000D01*
X83150000Y-99185000D02*
X84635000Y-99185000D01*
X140300000Y-97915000D02*
X142135000Y-97915000D01*
X166685000Y-97915000D02*
X164540000Y-97915000D01*
X137985000Y-126265000D02*
X140300000Y-126265000D01*
X134435000Y-127535000D02*
X130500000Y-127535000D01*
X152485000Y-99185000D02*
X151700000Y-98400000D01*
X154740000Y-127535000D02*
X155965000Y-127535000D01*
X105915000Y-99185000D02*
X103850000Y-99185000D01*
X154740000Y-99185000D02*
X152485000Y-99185000D01*
X84885000Y-127435000D02*
X85000000Y-127550000D01*
X92950000Y-97915000D02*
X95385000Y-97915000D01*
X164654511Y-126150489D02*
X170199511Y-126150489D01*
X83150000Y-127435000D02*
X84885000Y-127435000D01*
X107385000Y-126165000D02*
X109650000Y-126165000D01*
X128635000Y-99185000D02*
X128350000Y-98900000D01*
X92950000Y-126165000D02*
X91215000Y-126165000D01*
D20*
%TO.N,D3*%
X109650000Y-123884900D02*
X109346400Y-124188500D01*
X160655900Y-123725000D02*
X160499200Y-123881700D01*
X109650000Y-123625000D02*
X109650000Y-123884900D01*
X109346400Y-124188500D02*
X94655900Y-124188500D01*
X112073300Y-123884900D02*
X109650000Y-123884900D01*
X140300000Y-123725000D02*
X139731900Y-123156900D01*
X128574500Y-123156900D02*
X128297000Y-123434400D01*
X94655900Y-124188500D02*
X94092400Y-123625000D01*
X139731900Y-123156900D02*
X128574500Y-123156900D01*
X112811100Y-124622700D02*
X112073300Y-123884900D01*
X128297000Y-123434400D02*
X109840600Y-123434400D01*
X164540000Y-123725000D02*
X160655900Y-123725000D01*
%TO.N,D4*%
X84946500Y-125530000D02*
X81859800Y-125530000D01*
X130500000Y-123725000D02*
X131075600Y-124300600D01*
X142346700Y-123676700D02*
X152675000Y-123676700D01*
X152675000Y-123676700D02*
X152985700Y-123987400D01*
X131075600Y-124300600D02*
X141722800Y-124300600D01*
X141722800Y-124300600D02*
X142346700Y-123676700D01*
X81497900Y-124614100D02*
X82487000Y-123625000D01*
X113221700Y-126800000D02*
X86216500Y-126800000D01*
X86216500Y-126800000D02*
X84946500Y-125530000D01*
X99294400Y-123069400D02*
X99850000Y-123625000D01*
X81497900Y-125168100D02*
X81497900Y-124614100D01*
X113420000Y-126601700D02*
X113221700Y-126800000D01*
X154477600Y-123987400D02*
X154740000Y-123725000D01*
X83150000Y-123625000D02*
X83705600Y-123069400D01*
X83705600Y-123069400D02*
X99294400Y-123069400D01*
X81859800Y-125530000D02*
X81497900Y-125168100D01*
X152985700Y-123987400D02*
X154477600Y-123987400D01*
%TO.N,D5*%
X153187500Y-125585800D02*
X152786300Y-125585800D01*
X126019600Y-125824200D02*
X123980100Y-123784700D01*
X152428400Y-125943700D02*
X150181600Y-125943700D01*
X94544800Y-124572800D02*
X94316100Y-124344100D01*
X99850000Y-124895000D02*
X99527800Y-124572800D01*
X83700900Y-124344100D02*
X83150000Y-124895000D01*
X146374700Y-126574700D02*
X145625800Y-125825800D01*
X111181500Y-125614000D02*
X100569000Y-125614000D01*
X152786300Y-125585800D02*
X152428400Y-125943700D01*
X130500000Y-124995000D02*
X129050500Y-124995000D01*
X153778300Y-124995000D02*
X153187500Y-125585800D01*
X128221300Y-125824200D02*
X126019600Y-125824200D01*
X142620300Y-125825800D02*
X142508500Y-125714000D01*
X117604300Y-125899400D02*
X111466900Y-125899400D01*
X145625800Y-125825800D02*
X142620300Y-125825800D01*
X129050500Y-124995000D02*
X128221300Y-125824200D01*
X111466900Y-125899400D02*
X111181500Y-125614000D01*
X99527800Y-124572800D02*
X94544800Y-124572800D01*
X119719000Y-123784700D02*
X117604300Y-125899400D01*
X94316100Y-124344100D02*
X83700900Y-124344100D01*
X123980100Y-123784700D02*
X119719000Y-123784700D01*
X134499500Y-124995000D02*
X130500000Y-124995000D01*
X100569000Y-125614000D02*
X99850000Y-124895000D01*
X150181600Y-125943700D02*
X149550600Y-126574700D01*
X142508500Y-125714000D02*
X135218500Y-125714000D01*
X135218500Y-125714000D02*
X134499500Y-124995000D01*
X149550600Y-126574700D02*
X146374700Y-126574700D01*
%TO.N,D6*%
X123977100Y-126321800D02*
X114372000Y-126321800D01*
X149244300Y-129050400D02*
X149526100Y-128768600D01*
X143948200Y-129050400D02*
X149244300Y-129050400D01*
X112623800Y-128070000D02*
X100485000Y-128070000D01*
X143902400Y-129004600D02*
X143948200Y-129050400D01*
X130411000Y-128716000D02*
X126371300Y-128716000D01*
X141955400Y-128236500D02*
X131068500Y-128236500D01*
X83713400Y-128141600D02*
X83150000Y-128705000D01*
X99286600Y-128141600D02*
X83713400Y-128141600D01*
X99850000Y-128705000D02*
X99286600Y-128141600D01*
X149526100Y-128768600D02*
X154703600Y-128768600D01*
X131068500Y-128236500D02*
X130500000Y-128805000D01*
X100485000Y-128070000D02*
X99850000Y-128705000D01*
X126371300Y-128716000D02*
X123977100Y-126321800D01*
X114372000Y-126321800D02*
X112623800Y-128070000D01*
%TO.N,D7*%
X145140700Y-130890400D02*
X144090300Y-129840000D01*
X141626700Y-129477000D02*
X131098000Y-129477000D01*
X141989700Y-129840000D02*
X141626700Y-129477000D01*
X129318600Y-130075000D02*
X128494600Y-130899000D01*
X152471300Y-130890400D02*
X145140700Y-130890400D01*
X154740000Y-130075000D02*
X153286700Y-130075000D01*
X153286700Y-130075000D02*
X152471300Y-130890400D01*
X83150000Y-129975000D02*
X90582400Y-129975000D01*
X143040000Y-129840000D02*
X144090300Y-129840000D01*
X142514900Y-129840000D02*
X141989700Y-129840000D01*
X107841600Y-129893500D02*
X99931500Y-129893500D01*
X94677400Y-130033600D02*
X99791400Y-130033600D01*
X128494600Y-130899000D02*
X126609000Y-130899000D01*
X131098000Y-129477000D02*
X130500000Y-130075000D01*
%TO.N,ODDRAM0*%
X92950000Y-131245000D02*
X97010000Y-131245000D01*
%TO.N,A11*%
X99850000Y-117275000D02*
X99294400Y-116719400D01*
X84905700Y-89238000D02*
X83363000Y-89238000D01*
X130500000Y-117375000D02*
X131186800Y-118061800D01*
X83705600Y-116719400D02*
X83150000Y-117275000D01*
X99294400Y-116719400D02*
X84763000Y-116719400D01*
X83363000Y-89238000D02*
X83150000Y-89025000D01*
X153062800Y-118213100D02*
X153062800Y-118896600D01*
X129949000Y-88474000D02*
X104401000Y-88474000D01*
X153397500Y-119231300D02*
X156260300Y-119231300D01*
X104401000Y-88474000D02*
X103850000Y-89025000D01*
X150207100Y-118213100D02*
X150140300Y-118146300D01*
X83769400Y-114614200D02*
X82303700Y-114614200D01*
X153062800Y-118896600D02*
X153397500Y-119231300D01*
X84763000Y-115607800D02*
X83769400Y-114614200D01*
X130500000Y-89025000D02*
X129949000Y-88474000D01*
X137960900Y-87780600D02*
X135045500Y-87780600D01*
X135045500Y-87780600D02*
X133801100Y-89025000D01*
X131186800Y-118061800D02*
X134949800Y-118061800D01*
X153900900Y-117375000D02*
X153062800Y-118213100D01*
X133801100Y-89025000D02*
X130500000Y-89025000D01*
X84763000Y-116719400D02*
X83705600Y-116719400D01*
X153062800Y-118213100D02*
X150207100Y-118213100D01*
X154563300Y-89201700D02*
X152985500Y-89201700D01*
X95652400Y-89025000D02*
X103850000Y-89025000D01*
X84763000Y-116719400D02*
X84763000Y-115607800D01*
%TO.N,WR*%
X86414400Y-102995000D02*
X88319400Y-101090000D01*
X142389000Y-103389600D02*
X142208700Y-103569900D01*
X134994800Y-130870500D02*
X130974500Y-130870500D01*
X99848100Y-100573200D02*
X102269900Y-102995000D01*
X102269900Y-102995000D02*
X103850000Y-102995000D01*
X159954500Y-123046400D02*
X159530900Y-123470000D01*
X156487200Y-131345000D02*
X154740000Y-131345000D01*
X159176900Y-102995000D02*
X159271200Y-102900700D01*
X167240000Y-123046400D02*
X159954500Y-123046400D01*
X135299300Y-131175000D02*
X134994800Y-130870500D01*
X103850000Y-102995000D02*
X104479100Y-102365900D01*
X154740000Y-102995000D02*
X159176900Y-102995000D01*
X143885600Y-103389600D02*
X142389000Y-103389600D01*
X144042100Y-103546100D02*
X143885600Y-103389600D01*
X87270900Y-130655800D02*
X83739200Y-130655800D01*
X99850000Y-131245000D02*
X99260800Y-130655800D01*
X95326400Y-100573200D02*
X99848100Y-100573200D01*
X156569900Y-131262300D02*
X156487200Y-131345000D01*
X88319400Y-101090000D02*
X94809600Y-101090000D01*
X142208700Y-103569900D02*
X131074900Y-103569900D01*
X131074900Y-103569900D02*
X130500000Y-102995000D01*
X99260800Y-130655800D02*
X87270900Y-130655800D01*
X104479100Y-102365900D02*
X126263600Y-102365900D01*
X83739200Y-130655800D02*
X83150000Y-131245000D01*
X126263600Y-102365900D02*
X126892700Y-102995000D01*
X94809600Y-101090000D02*
X95326400Y-100573200D01*
X126892700Y-102995000D02*
X130500000Y-102995000D01*
X167240000Y-122220000D02*
X167240000Y-123046400D01*
X86414400Y-102995000D02*
X83150000Y-102995000D01*
X130974500Y-130870500D02*
X130500000Y-131345000D01*
%TO.N,A12*%
X103261800Y-90883200D02*
X89426900Y-90883200D01*
X134384300Y-116824100D02*
X129001100Y-116824100D01*
X143040000Y-119680000D02*
X141989700Y-119680000D01*
X138044300Y-120484100D02*
X134384300Y-116824100D01*
X130272000Y-90891800D02*
X104446800Y-90891800D01*
X156038300Y-116741400D02*
X156340900Y-117044000D01*
X130500000Y-90663800D02*
X130272000Y-90891800D01*
X83738200Y-90883200D02*
X83150000Y-90295000D01*
X153086800Y-116741400D02*
X156038300Y-116741400D01*
X167240000Y-119680000D02*
X166189700Y-119680000D01*
X156340900Y-117044000D02*
X156340900Y-118255600D01*
X95613100Y-118545000D02*
X99850000Y-118545000D01*
X111065000Y-119118700D02*
X100423700Y-119118700D01*
X127964400Y-115787400D02*
X114396300Y-115787400D01*
X89426900Y-90883200D02*
X83738200Y-90883200D01*
X130500000Y-90663800D02*
X130699600Y-90863400D01*
X152435100Y-116089700D02*
X153086800Y-116741400D01*
X145158300Y-119680000D02*
X148748600Y-116089700D01*
X141743700Y-120484100D02*
X138044300Y-120484100D01*
X130500000Y-90295000D02*
X130500000Y-90663800D01*
X89182500Y-118545000D02*
X83150000Y-118545000D01*
X128899100Y-116926100D02*
X129001100Y-116824100D01*
X130699600Y-90863400D02*
X144075200Y-90863400D01*
X166189700Y-120188100D02*
X166189700Y-119680000D01*
X158580700Y-120495400D02*
X165882400Y-120495400D01*
X141989700Y-119680000D02*
X141989700Y-120238100D01*
X155951500Y-118645000D02*
X156340900Y-118255600D01*
X165882400Y-120495400D02*
X166189700Y-120188100D01*
X144075200Y-90863400D02*
X144643600Y-90295000D01*
X103850000Y-90295000D02*
X103261800Y-90883200D01*
X144643600Y-90295000D02*
X154740000Y-90295000D01*
X100423700Y-119118700D02*
X99850000Y-118545000D01*
X129853000Y-118645000D02*
X128899100Y-117691100D01*
X129001100Y-116824100D02*
X127964400Y-115787400D01*
X143040000Y-119680000D02*
X145158300Y-119680000D01*
X148748600Y-116089700D02*
X152435100Y-116089700D01*
X141989700Y-120238100D02*
X141743700Y-120484100D01*
X114396300Y-115787400D02*
X111065000Y-119118700D01*
X104446800Y-90891800D02*
X103850000Y-90295000D01*
X156340900Y-118255600D02*
X158580700Y-120495400D01*
X128899100Y-117691100D02*
X128899100Y-116926100D01*
%TO.N,A10*%
X163147300Y-117950600D02*
X162906300Y-117709600D01*
X114208400Y-87196600D02*
X139741600Y-87196600D01*
X144090300Y-117140000D02*
X147691900Y-113538400D01*
X138667400Y-117045900D02*
X139608300Y-116105000D01*
X138906200Y-117950600D02*
X142229400Y-117950600D01*
X161691900Y-87204100D02*
X140850900Y-87204100D01*
X162906300Y-117045400D02*
X163846700Y-116105000D01*
X93545800Y-115409200D02*
X109054200Y-115409200D01*
X167240000Y-117140000D02*
X166189700Y-117140000D01*
X165950300Y-117950600D02*
X163147300Y-117950600D01*
X162242800Y-87755000D02*
X164540000Y-87755000D01*
X92950000Y-116005000D02*
X93545800Y-115409200D01*
X109054200Y-115409200D02*
X109650000Y-116005000D01*
X112730900Y-112924100D02*
X109650000Y-116005000D01*
X139741600Y-87196600D02*
X140300000Y-87755000D01*
X143040000Y-117140000D02*
X144090300Y-117140000D01*
X162242800Y-87755000D02*
X161691900Y-87204100D01*
X138667400Y-117711800D02*
X138906200Y-117950600D01*
X113091600Y-87196600D02*
X113650000Y-87755000D01*
X124255000Y-110955000D02*
X122285900Y-112924100D01*
X113650000Y-87755000D02*
X114208400Y-87196600D01*
X159399300Y-113538400D02*
X162906300Y-117045400D01*
X93508400Y-87196600D02*
X113091600Y-87196600D01*
X122285900Y-112924100D02*
X112730900Y-112924100D01*
X132576500Y-110955000D02*
X124255000Y-110955000D01*
X92950000Y-87755000D02*
X93508400Y-87196600D01*
X147691900Y-113538400D02*
X159399300Y-113538400D01*
X142229400Y-117950600D02*
X143040000Y-117140000D01*
X162906300Y-117709600D02*
X162906300Y-117045400D01*
X140850900Y-87204100D02*
X140300000Y-87755000D01*
X138667400Y-117045900D02*
X138667400Y-117711800D01*
X166189700Y-117711200D02*
X165950300Y-117950600D01*
X138667400Y-117045900D02*
X132576500Y-110955000D01*
X166189700Y-117140000D02*
X166189700Y-117711200D01*
%TO.N,A9*%
X166714900Y-115858100D02*
X165198000Y-117375000D01*
X91654600Y-89025000D02*
X91167100Y-89512500D01*
X143040000Y-115125100D02*
X144977100Y-113188000D01*
X166298600Y-89292500D02*
X164807500Y-89292500D01*
X166714900Y-114600000D02*
X166714900Y-115858100D01*
X92950000Y-89025000D02*
X91654600Y-89025000D01*
X92817100Y-117484400D02*
X90730800Y-117484400D01*
X92950000Y-117351500D02*
X92817100Y-117484400D01*
X107841600Y-117094600D02*
X109469600Y-117094600D01*
X164807500Y-89292500D02*
X164540000Y-89025000D01*
X113650000Y-89025000D02*
X106505300Y-89025000D01*
X164777700Y-113188000D02*
X166189700Y-114600000D01*
X143040000Y-115125100D02*
X143040000Y-115650300D01*
X140300000Y-89025000D02*
X140300000Y-88395900D01*
X163910900Y-88395900D02*
X140300000Y-88395900D01*
X92950000Y-117351500D02*
X98010300Y-117351500D01*
X140300000Y-88395900D02*
X137511500Y-88395900D01*
X166714900Y-114600000D02*
X166189700Y-114600000D01*
X164540000Y-89025000D02*
X163910900Y-88395900D01*
X113650000Y-89025000D02*
X127808000Y-89025000D01*
X144977100Y-113188000D02*
X164777700Y-113188000D01*
X143040000Y-115650300D02*
X141315300Y-117375000D01*
%TO.N,A14*%
X90662400Y-121008600D02*
X83226400Y-121008600D01*
X167240000Y-112060000D02*
X166189700Y-112060000D01*
X130500000Y-92835000D02*
X132342300Y-92835000D01*
X81531600Y-93746700D02*
X81531600Y-94478600D01*
X152919000Y-121317400D02*
X154607600Y-121317400D01*
X108195700Y-121658700D02*
X107622000Y-121085000D01*
X98108100Y-92503400D02*
X98439700Y-92835000D01*
X137130600Y-121185000D02*
X130500000Y-121185000D01*
X81531600Y-94478600D02*
X81715600Y-94662600D01*
X114726500Y-118657900D02*
X111725700Y-121658700D01*
X81715600Y-94662600D02*
X86825700Y-94662600D01*
X125234800Y-118657900D02*
X114726500Y-118657900D01*
X154740000Y-92835000D02*
X162120000Y-92835000D01*
X99850000Y-121085000D02*
X95768300Y-121085000D01*
X130103500Y-120788500D02*
X127365400Y-120788500D01*
X162120000Y-92835000D02*
X162441100Y-93156100D01*
X82443300Y-92835000D02*
X81531600Y-93746700D01*
X111725700Y-121658700D02*
X108195700Y-121658700D01*
X130500000Y-121185000D02*
X130103500Y-120788500D01*
X107622000Y-121085000D02*
X99850000Y-121085000D01*
X127365400Y-120788500D02*
X125234800Y-118657900D01*
X98439700Y-92835000D02*
X103850000Y-92835000D01*
X165832900Y-111703200D02*
X157311200Y-111703200D01*
X166189700Y-112060000D02*
X165832900Y-111703200D01*
X154863500Y-121308500D02*
X156580400Y-121308500D01*
X154720600Y-92815600D02*
X142175600Y-92815600D01*
X95768300Y-121085000D02*
X95272600Y-121580700D01*
%TO.N,A15*%
X100401000Y-122906000D02*
X112763800Y-122906000D01*
X83705600Y-121799400D02*
X94757600Y-121799400D01*
X103850000Y-93827700D02*
X103494100Y-93471800D01*
X153336800Y-107362200D02*
X153050300Y-107075700D01*
X99420100Y-121925100D02*
X99850000Y-122355000D01*
X95045000Y-122086800D02*
X95877800Y-122086800D01*
X128306600Y-121138900D02*
X129622700Y-122455000D01*
X83783200Y-93471800D02*
X83150000Y-94105000D01*
X153050300Y-107075700D02*
X153050300Y-106980000D01*
X95877800Y-122086800D02*
X96039500Y-121925100D01*
X112763800Y-122906000D02*
X114425200Y-121244600D01*
X157786600Y-107609900D02*
X157538900Y-107362200D01*
X126842300Y-121138900D02*
X128306600Y-121138900D01*
X147131400Y-94105000D02*
X154740000Y-94105000D01*
X103850000Y-93827700D02*
X103850000Y-94105000D01*
X83150000Y-122355000D02*
X83705600Y-121799400D01*
X114425200Y-121244600D02*
X117585400Y-121244600D01*
X117585400Y-121244600D02*
X118262100Y-121921300D01*
X99850000Y-122355000D02*
X100401000Y-122906000D01*
X130336500Y-93941500D02*
X128768700Y-93941500D01*
X103850000Y-93827700D02*
X108487400Y-93827700D01*
X96039500Y-121925100D02*
X99420100Y-121925100D01*
X94757600Y-121799400D02*
X95045000Y-122086800D01*
X119520200Y-121138900D02*
X117686000Y-119304700D01*
X154740000Y-122455000D02*
X156588900Y-122455000D01*
X103494100Y-93471800D02*
X83783200Y-93471800D01*
X126842300Y-121138900D02*
X119520200Y-121138900D01*
X157538900Y-107362200D02*
X153336800Y-107362200D01*
X152000000Y-106980000D02*
X153050300Y-106980000D01*
%TO.N,A18*%
X157967100Y-135782600D02*
X155367600Y-135782600D01*
X131077500Y-107382500D02*
X130500000Y-106805000D01*
X100470500Y-107623700D02*
X101289200Y-106805000D01*
X166189700Y-106980000D02*
X166189700Y-107327500D01*
X155367600Y-135782600D02*
X154740000Y-135155000D01*
X83785000Y-107440000D02*
X83150000Y-106805000D01*
X166820200Y-135985700D02*
X166617100Y-135782600D01*
X149785000Y-106980000D02*
X143040000Y-106980000D01*
X166103900Y-107413300D02*
X166189700Y-107327500D01*
X152715600Y-105902100D02*
X150862900Y-105902100D01*
X88621700Y-107440000D02*
X83785000Y-107440000D01*
X167240000Y-106980000D02*
X166189700Y-106980000D01*
X101289200Y-106805000D02*
X103850000Y-106805000D01*
X121378800Y-136030800D02*
X121378800Y-135985800D01*
X100551200Y-135756200D02*
X121149200Y-135756200D01*
X166533000Y-107327500D02*
X166852900Y-107647400D01*
X153618500Y-106805000D02*
X152715600Y-105902100D01*
X128500000Y-135985800D02*
X129330800Y-135155000D01*
X83705600Y-134499400D02*
X83150000Y-135055000D01*
X159909600Y-107413300D02*
X166103900Y-107413300D01*
X121149200Y-135756200D02*
X121378800Y-135985800D01*
X141989700Y-107080700D02*
X141687900Y-107382500D01*
X143040000Y-106980000D02*
X141989700Y-106980000D01*
X159301300Y-106805000D02*
X159909600Y-107413300D01*
X166189700Y-107327500D02*
X166533000Y-107327500D01*
X169171600Y-135985700D02*
X166820200Y-135985700D01*
X150862900Y-105902100D02*
X149785000Y-106980000D01*
X166617100Y-135782600D02*
X157967100Y-135782600D01*
X141687900Y-107382500D02*
X131077500Y-107382500D01*
X99294400Y-134499400D02*
X89074600Y-134499400D01*
X121378800Y-135985800D02*
X128500000Y-135985800D01*
X154740000Y-106805000D02*
X159301300Y-106805000D01*
X99850000Y-135055000D02*
X99294400Y-134499400D01*
X141989700Y-106980000D02*
X141989700Y-107080700D01*
X166852900Y-107647400D02*
X170046500Y-107647400D01*
X99850000Y-135055000D02*
X100551200Y-135756200D01*
X121244900Y-136164700D02*
X121378800Y-136030800D01*
X89074600Y-134499400D02*
X83705600Y-134499400D01*
D21*
%TO.N,VCC*%
X90865000Y-127435000D02*
X92950000Y-127435000D01*
X103850000Y-97915000D02*
X102135000Y-97915000D01*
X154740000Y-126265000D02*
X156035000Y-126265000D01*
X132485000Y-126265000D02*
X132900000Y-125850000D01*
X154740000Y-97915000D02*
X152965000Y-97915000D01*
X130500000Y-97915000D02*
X132065000Y-97915000D01*
X83150000Y-126165000D02*
X84515000Y-126165000D01*
X83150000Y-97915000D02*
X84665000Y-97915000D01*
X113585000Y-99250000D02*
X111750000Y-99250000D01*
X130500000Y-126265000D02*
X132485000Y-126265000D01*
X152965000Y-97915000D02*
X152900000Y-97850000D01*
X84515000Y-126165000D02*
X84900000Y-126550000D01*
X138315000Y-127535000D02*
X140300000Y-127535000D01*
X95485000Y-99185000D02*
X92950000Y-99185000D01*
X102135000Y-97915000D02*
X101750000Y-98300000D01*
X84665000Y-97915000D02*
X85200000Y-98450000D01*
X166763856Y-128449511D02*
X170400489Y-128449511D01*
X142415000Y-99185000D02*
X140300000Y-99185000D01*
X107615000Y-127435000D02*
X109650000Y-127435000D01*
X156035000Y-126265000D02*
X156450000Y-125850000D01*
X95500000Y-99200000D02*
X95485000Y-99185000D01*
X97515000Y-126165000D02*
X97350000Y-126000000D01*
X132065000Y-97915000D02*
X132450000Y-98300000D01*
X164540000Y-99185000D02*
X167915000Y-99185000D01*
X165849345Y-127535000D02*
X166763856Y-128449511D01*
X164540000Y-127535000D02*
X165849345Y-127535000D01*
X99850000Y-126165000D02*
X97515000Y-126165000D01*
X167915000Y-99185000D02*
X170050000Y-97050000D01*
D20*
%TO.N,D8*%
X96778500Y-101725000D02*
X96828600Y-101674900D01*
X164540000Y-101725000D02*
X163839600Y-102425400D01*
X92950000Y-101725000D02*
X96778500Y-101725000D01*
X113650000Y-101725000D02*
X122391000Y-101725000D01*
X153094700Y-102776400D02*
X152876100Y-102995000D01*
X163839600Y-102425400D02*
X157196300Y-102425400D01*
X157177700Y-102444000D02*
X153354100Y-102444000D01*
X106292200Y-101767600D02*
X113607400Y-101767600D01*
X142634800Y-102995000D02*
X141364800Y-101725000D01*
X153354100Y-102444000D02*
X153094700Y-102703400D01*
X152876100Y-102995000D02*
X142634800Y-102995000D01*
X153094700Y-102703400D02*
X153094700Y-102776400D01*
X157196300Y-102425400D02*
X157177700Y-102444000D01*
%TO.N,D9*%
X93255900Y-100149100D02*
X99366800Y-100149100D01*
X149888700Y-100455000D02*
X140300000Y-100455000D01*
X150112700Y-100231000D02*
X149888700Y-100455000D01*
X99366800Y-100149100D02*
X99787400Y-99728500D01*
X160323200Y-100540700D02*
X164454300Y-100540700D01*
X92950000Y-100455000D02*
X93255900Y-100149100D01*
X113613400Y-100491600D02*
X106292200Y-100491600D01*
X127892000Y-100292400D02*
X113812600Y-100292400D01*
%TO.N,D10*%
X92950000Y-96645000D02*
X96981800Y-96645000D01*
X127666500Y-97337200D02*
X125618300Y-99385400D01*
X113351100Y-96346100D02*
X113650000Y-96645000D01*
X106197400Y-96346100D02*
X113351100Y-96346100D01*
X140659000Y-97004000D02*
X140300000Y-96645000D01*
X116362800Y-96310800D02*
X113984200Y-96310800D01*
X117435600Y-99385400D02*
X117374600Y-99324400D01*
X133553600Y-97337200D02*
X127666500Y-97337200D01*
X153189100Y-97213700D02*
X153139000Y-97163600D01*
X158704000Y-97213700D02*
X153189100Y-97213700D01*
X125618300Y-99385400D02*
X117435600Y-99385400D01*
X158704000Y-97192600D02*
X158704000Y-97213700D01*
X113984200Y-96310800D02*
X113650000Y-96645000D01*
X164540000Y-96645000D02*
X163992400Y-97192600D01*
X153139000Y-97163600D02*
X149071500Y-97163600D01*
X143625300Y-97004000D02*
X140659000Y-97004000D01*
X163992400Y-97192600D02*
X158704000Y-97192600D01*
%TO.N,D11*%
X122610100Y-94688500D02*
X121921000Y-93999400D01*
X164971500Y-94943500D02*
X164540000Y-95375000D01*
X113078700Y-94803700D02*
X100628500Y-94803700D01*
X140666200Y-95741200D02*
X140300000Y-95375000D01*
X113650000Y-95375000D02*
X113078700Y-94803700D01*
X99826600Y-95605600D02*
X93180600Y-95605600D01*
X166435700Y-94943500D02*
X164971500Y-94943500D01*
X160503100Y-94802000D02*
X149967400Y-94802000D01*
X93180600Y-95605600D02*
X92950000Y-95375000D01*
X118002000Y-93999400D02*
X116626400Y-95375000D01*
X140300000Y-95375000D02*
X139613500Y-94688500D01*
X149967400Y-94802000D02*
X149028200Y-95741200D01*
X149028200Y-95741200D02*
X140666200Y-95741200D01*
X121921000Y-93999400D02*
X118002000Y-93999400D01*
X100628500Y-94803700D02*
X99826600Y-95605600D01*
X139613500Y-94688500D02*
X122610100Y-94688500D01*
X164540000Y-95375000D02*
X161076100Y-95375000D01*
X116626400Y-95375000D02*
X113650000Y-95375000D01*
X161076100Y-95375000D02*
X160503100Y-94802000D01*
%TO.N,D12*%
X155106200Y-95741200D02*
X159691200Y-95741200D01*
X131219100Y-96094100D02*
X130500000Y-95375000D01*
X118915100Y-94349700D02*
X116838100Y-96426700D01*
X103850000Y-95375000D02*
X103269000Y-95956000D01*
X116123300Y-97222500D02*
X106295300Y-97222500D01*
X106295300Y-97222500D02*
X105482100Y-96409300D01*
X83731000Y-95956000D02*
X83150000Y-95375000D01*
X154020900Y-96094100D02*
X131219100Y-96094100D01*
X159691200Y-95741200D02*
X159950000Y-96000000D01*
X105482100Y-96409300D02*
X105482100Y-96293000D01*
X154740000Y-95375000D02*
X154020900Y-96094100D01*
X154740000Y-95375000D02*
X155106200Y-95741200D01*
X130500000Y-95375000D02*
X122325700Y-95375000D01*
X116838100Y-96426700D02*
X116838100Y-96507700D01*
X121300400Y-94349700D02*
X118915100Y-94349700D01*
X105482100Y-96293000D02*
X104564100Y-95375000D01*
X103269000Y-95956000D02*
X83731000Y-95956000D01*
X122325700Y-95375000D02*
X121300400Y-94349700D01*
X116838100Y-96507700D02*
X116123300Y-97222500D01*
%TO.N,D13*%
X133533600Y-96645000D02*
X130500000Y-96645000D01*
X154740000Y-96645000D02*
X148547300Y-96645000D01*
X155038800Y-96346200D02*
X159196200Y-96346200D01*
X124381200Y-98983400D02*
X118787700Y-98983400D01*
X106566800Y-98466100D02*
X104745700Y-96645000D01*
X118787700Y-98983400D02*
X118270400Y-98466100D01*
X103850000Y-96645000D02*
X101000200Y-96645000D01*
X154740000Y-96645000D02*
X155038800Y-96346200D01*
X101000200Y-96645000D02*
X99543100Y-98102100D01*
X95975100Y-97364000D02*
X83869000Y-97364000D01*
X159650000Y-96800000D02*
X161600000Y-96800000D01*
X126719600Y-96645000D02*
X124381200Y-98983400D01*
X83869000Y-97364000D02*
X83150000Y-96645000D01*
X135354600Y-98466000D02*
X133533600Y-96645000D01*
X148547300Y-96645000D02*
X146726300Y-98466000D01*
X99543100Y-98102100D02*
X96713200Y-98102100D01*
X159196200Y-96346200D02*
X159650000Y-96800000D01*
X146726300Y-98466000D02*
X135354600Y-98466000D01*
X96713200Y-98102100D02*
X95975100Y-97364000D01*
X161600000Y-96800000D02*
X161900000Y-96500000D01*
X130500000Y-96645000D02*
X126719600Y-96645000D01*
X118270400Y-98466100D02*
X106566800Y-98466100D01*
%TO.N,D14*%
X88435400Y-98587700D02*
X86568100Y-100455000D01*
X103850000Y-100455000D02*
X103850000Y-99930900D01*
X130500000Y-100455000D02*
X129862100Y-99817100D01*
X166132200Y-101123100D02*
X155408100Y-101123100D01*
X99969100Y-98587700D02*
X88435400Y-98587700D01*
X86568100Y-100455000D02*
X83150000Y-100455000D01*
X103850000Y-99930900D02*
X101312300Y-99930900D01*
X154040700Y-99755700D02*
X131199300Y-99755700D01*
X154740000Y-100455000D02*
X154040700Y-99755700D01*
X103963800Y-99817100D02*
X103850000Y-99930900D01*
X131199300Y-99755700D02*
X130500000Y-100455000D01*
X101312300Y-99930900D02*
X99969100Y-98587700D01*
X129862100Y-99817100D02*
X103963800Y-99817100D01*
X155408100Y-101123100D02*
X154740000Y-100455000D01*
%TO.N,D15*%
X130500000Y-101725000D02*
X130500000Y-101349300D01*
X88242200Y-99798700D02*
X98952100Y-99798700D01*
X129398700Y-101349300D02*
X130500000Y-101349300D01*
X142160800Y-100849600D02*
X152907000Y-100849600D01*
X86315900Y-101725000D02*
X88242200Y-99798700D01*
X102111100Y-101349300D02*
X103850000Y-101349300D01*
X99524800Y-99226000D02*
X99987800Y-99226000D01*
X130675300Y-101174000D02*
X141836400Y-101174000D01*
X83150000Y-101725000D02*
X86315900Y-101725000D01*
X98952100Y-99798700D02*
X99524800Y-99226000D01*
X103850000Y-101349300D02*
X104193300Y-101006000D01*
X103850000Y-101349300D02*
X103850000Y-101725000D01*
X141836400Y-101174000D02*
X142160800Y-100849600D01*
X128899000Y-100849600D02*
X129398700Y-101349300D01*
X120958500Y-101006000D02*
X121114900Y-100849600D01*
X104193300Y-101006000D02*
X120958500Y-101006000D01*
X121114900Y-100849600D02*
X128899000Y-100849600D01*
X154740000Y-101725000D02*
X161996800Y-101725000D01*
X152907000Y-100849600D02*
X153782400Y-101725000D01*
X130500000Y-101349300D02*
X130675300Y-101174000D01*
X99987800Y-99226000D02*
X102111100Y-101349300D01*
%TO.N,ODDRAMSEL*%
X124559600Y-126174600D02*
X128445800Y-126174600D01*
X129171200Y-126900000D02*
X141589700Y-126900000D01*
X124264300Y-125879300D02*
X124559600Y-126174600D01*
X119617900Y-121716900D02*
X121469500Y-121716900D01*
X141589700Y-126900000D02*
X141989700Y-127300000D01*
X128445800Y-126174600D02*
X129171200Y-126900000D01*
X143040000Y-127300000D02*
X141989700Y-127300000D01*
%TO.N,RW*%
X166189700Y-109520000D02*
X166189700Y-109651300D01*
X114300000Y-93455000D02*
X139650000Y-93455000D01*
X139774000Y-121929000D02*
X135010900Y-121929000D01*
X140300000Y-122455000D02*
X139774000Y-121929000D01*
X143040000Y-109520000D02*
X144090300Y-109520000D01*
X108219800Y-122355000D02*
X109650000Y-122355000D01*
X113650000Y-94105000D02*
X114300000Y-93455000D01*
X164540000Y-122455000D02*
X163942300Y-121857300D01*
X140867000Y-93538000D02*
X160911600Y-93538000D01*
X96582900Y-94105000D02*
X96676100Y-94198200D01*
X165596200Y-110244800D02*
X161381600Y-110244800D01*
X167240000Y-109520000D02*
X166189700Y-109520000D01*
X139650000Y-93455000D02*
X140300000Y-94105000D01*
X166189700Y-109651300D02*
X165596200Y-110244800D01*
X93032100Y-122437100D02*
X96960900Y-122437100D01*
X106463600Y-94303000D02*
X113452000Y-94303000D01*
X161381600Y-110244800D02*
X157602100Y-110244800D01*
X157602100Y-110244800D02*
X156899000Y-110947900D01*
X160911600Y-93538000D02*
X161478600Y-94105000D01*
X163942300Y-121857300D02*
X161989400Y-121857300D01*
X140867000Y-93538000D02*
X140300000Y-94105000D01*
X107912500Y-122047700D02*
X108219800Y-122355000D01*
X92950000Y-94105000D02*
X96582900Y-94105000D01*
X156899000Y-110947900D02*
X145518200Y-110947900D01*
X164540000Y-94105000D02*
X161478600Y-94105000D01*
X145518200Y-110947900D02*
X144090300Y-109520000D01*
%TO.N,EVENRAM0*%
X93288400Y-103333400D02*
X92950000Y-102995000D01*
X99038800Y-103333400D02*
X93288400Y-103333400D01*
%TO.N,ODDRAM1*%
X111399500Y-131136200D02*
X109758800Y-131136200D01*
%TO.N,EVENRAM1*%
X114350400Y-102995000D02*
X115377400Y-104022000D01*
%TO.N,ODDRAM2*%
X128544000Y-131311900D02*
X126868400Y-131311900D01*
X117681800Y-127375000D02*
X115525000Y-127375000D01*
X134548100Y-131220800D02*
X133958100Y-131220800D01*
X139977400Y-131667600D02*
X134994900Y-131667600D01*
X133234300Y-131944600D02*
X129176700Y-131944600D01*
X140300000Y-131345000D02*
X139977400Y-131667600D01*
X129176700Y-131944600D02*
X128544000Y-131311900D01*
X126868400Y-131311900D02*
X126805900Y-131374400D01*
X121681200Y-131374400D02*
X117681800Y-127375000D01*
X134994900Y-131667600D02*
X134548100Y-131220800D01*
X133958100Y-131220800D02*
X133234300Y-131944600D01*
X126805900Y-131374400D02*
X121681200Y-131374400D01*
%TO.N,EVENRAM2*%
X121694700Y-129915000D02*
X121694700Y-127652900D01*
X130090800Y-113330000D02*
X130683200Y-112737600D01*
X121694700Y-127652900D02*
X121204800Y-127163000D01*
X120335400Y-115063400D02*
X121774100Y-113624700D01*
X126625600Y-113330000D02*
X130090800Y-113330000D01*
X126330900Y-113624700D02*
X126625600Y-113330000D01*
X132861000Y-102886200D02*
X140191200Y-102886200D01*
X121774100Y-113624700D02*
X126330900Y-113624700D01*
X123145000Y-129915000D02*
X121694700Y-129915000D01*
%TO.N,ODDRAM3*%
X169652400Y-132047600D02*
X169652400Y-136533500D01*
X165201000Y-131345000D02*
X165656489Y-130889511D01*
X165656489Y-130889511D02*
X168494311Y-130889511D01*
X131147200Y-138949600D02*
X131073900Y-139022900D01*
X169652400Y-136533500D02*
X167236300Y-138949600D01*
X167236300Y-138949600D02*
X131147200Y-138949600D01*
X168494311Y-130889511D02*
X169652400Y-132047600D01*
%TO.N,EVENRAM3*%
X164540000Y-102995000D02*
X160049200Y-102995000D01*
%TD*%
%TA.AperFunction,Conductor*%
%TO.N,GND*%
G36*
X172934121Y-84978002D02*
G01*
X172980614Y-85031658D01*
X172992000Y-85084000D01*
X172992000Y-141966000D01*
X172971998Y-142034121D01*
X172918342Y-142080614D01*
X172866000Y-142092000D01*
X102022145Y-142092000D01*
X101954024Y-142071998D01*
X101907531Y-142018342D01*
X101897427Y-141948068D01*
X101926921Y-141883488D01*
X101968895Y-141851805D01*
X102101762Y-141789849D01*
X102101767Y-141789846D01*
X102106749Y-141787523D01*
X102211611Y-141714098D01*
X102289789Y-141659357D01*
X102289792Y-141659355D01*
X102294300Y-141656198D01*
X102456198Y-141494300D01*
X102587523Y-141306749D01*
X102589846Y-141301767D01*
X102589849Y-141301762D01*
X102681961Y-141104225D01*
X102681961Y-141104224D01*
X102684284Y-141099243D01*
X102687281Y-141088060D01*
X102742119Y-140883402D01*
X102742119Y-140883400D01*
X102743543Y-140878087D01*
X102763498Y-140650000D01*
X102743543Y-140421913D01*
X102706981Y-140285461D01*
X102701906Y-140266522D01*
X126517273Y-140266522D01*
X126564764Y-140443761D01*
X126568510Y-140454053D01*
X126660586Y-140651511D01*
X126666069Y-140661007D01*
X126791028Y-140839467D01*
X126798084Y-140847875D01*
X126952125Y-141001916D01*
X126960533Y-141008972D01*
X127138993Y-141133931D01*
X127148489Y-141139414D01*
X127345947Y-141231490D01*
X127356239Y-141235236D01*
X127528503Y-141281394D01*
X127542599Y-141281058D01*
X127546000Y-141273116D01*
X127546000Y-141267967D01*
X128054000Y-141267967D01*
X128057973Y-141281498D01*
X128066522Y-141282727D01*
X128243761Y-141235236D01*
X128254053Y-141231490D01*
X128451511Y-141139414D01*
X128461007Y-141133931D01*
X128639467Y-141008972D01*
X128647875Y-141001916D01*
X128801916Y-140847875D01*
X128808972Y-140839467D01*
X128933931Y-140661007D01*
X128939414Y-140651511D01*
X129031490Y-140454053D01*
X129035236Y-140443761D01*
X129081394Y-140271497D01*
X129081058Y-140257401D01*
X129073116Y-140254000D01*
X128072115Y-140254000D01*
X128056876Y-140258475D01*
X128055671Y-140259865D01*
X128054000Y-140267548D01*
X128054000Y-141267967D01*
X127546000Y-141267967D01*
X127546000Y-140272115D01*
X127541525Y-140256876D01*
X127540135Y-140255671D01*
X127532452Y-140254000D01*
X126532033Y-140254000D01*
X126518502Y-140257973D01*
X126517273Y-140266522D01*
X102701906Y-140266522D01*
X102685707Y-140206067D01*
X102685706Y-140206065D01*
X102684284Y-140200757D01*
X102680440Y-140192514D01*
X102589849Y-139998238D01*
X102589846Y-139998233D01*
X102587523Y-139993251D01*
X102456198Y-139805700D01*
X102294300Y-139643802D01*
X102289792Y-139640645D01*
X102289789Y-139640643D01*
X102178886Y-139562988D01*
X102106749Y-139512477D01*
X102101767Y-139510154D01*
X102101762Y-139510151D01*
X101904225Y-139418039D01*
X101904224Y-139418039D01*
X101899243Y-139415716D01*
X101893935Y-139414294D01*
X101893933Y-139414293D01*
X101683402Y-139357881D01*
X101683400Y-139357881D01*
X101678087Y-139356457D01*
X101450000Y-139336502D01*
X101221913Y-139356457D01*
X101216600Y-139357881D01*
X101216598Y-139357881D01*
X101006067Y-139414293D01*
X101006065Y-139414294D01*
X101000757Y-139415716D01*
X100995776Y-139418039D01*
X100995775Y-139418039D01*
X100798238Y-139510151D01*
X100798233Y-139510154D01*
X100793251Y-139512477D01*
X100721114Y-139562988D01*
X100610211Y-139640643D01*
X100610208Y-139640645D01*
X100605700Y-139643802D01*
X100443802Y-139805700D01*
X100312477Y-139993251D01*
X100310153Y-139998235D01*
X100308829Y-140000528D01*
X100257447Y-140049521D01*
X100187733Y-140062957D01*
X100121822Y-140036571D01*
X100090591Y-140000528D01*
X100083934Y-139988998D01*
X100047491Y-139936952D01*
X100037012Y-139928576D01*
X100023566Y-139935644D01*
X99322022Y-140637188D01*
X99314408Y-140651132D01*
X99314539Y-140652965D01*
X99318790Y-140659580D01*
X100024287Y-141365077D01*
X100036062Y-141371507D01*
X100048077Y-141362211D01*
X100083934Y-141311002D01*
X100090591Y-141299472D01*
X100141973Y-141250479D01*
X100211687Y-141237042D01*
X100277598Y-141263429D01*
X100308829Y-141299472D01*
X100310153Y-141301765D01*
X100312477Y-141306749D01*
X100443802Y-141494300D01*
X100605700Y-141656198D01*
X100610208Y-141659355D01*
X100610211Y-141659357D01*
X100688389Y-141714098D01*
X100793251Y-141787523D01*
X100798233Y-141789846D01*
X100798238Y-141789849D01*
X100931105Y-141851805D01*
X100984390Y-141898722D01*
X101003851Y-141966999D01*
X100983309Y-142034959D01*
X100929287Y-142081025D01*
X100877855Y-142092000D01*
X99520962Y-142092000D01*
X99452841Y-142071998D01*
X99406348Y-142018342D01*
X99396244Y-141948068D01*
X99425738Y-141883488D01*
X99467712Y-141851805D01*
X99601511Y-141789414D01*
X99611006Y-141783931D01*
X99663048Y-141747491D01*
X99671424Y-141737012D01*
X99664356Y-141723566D01*
X98962812Y-141022022D01*
X98948868Y-141014408D01*
X98947035Y-141014539D01*
X98940420Y-141018790D01*
X98234923Y-141724287D01*
X98228493Y-141736062D01*
X98237789Y-141748077D01*
X98288994Y-141783931D01*
X98298489Y-141789414D01*
X98432288Y-141851805D01*
X98485573Y-141898722D01*
X98505034Y-141967000D01*
X98484492Y-142034960D01*
X98430469Y-142081025D01*
X98379038Y-142092000D01*
X86022145Y-142092000D01*
X85954024Y-142071998D01*
X85907531Y-142018342D01*
X85897427Y-141948068D01*
X85926921Y-141883488D01*
X85968895Y-141851805D01*
X86101762Y-141789849D01*
X86101767Y-141789846D01*
X86106749Y-141787523D01*
X86211611Y-141714098D01*
X86289789Y-141659357D01*
X86289792Y-141659355D01*
X86294300Y-141656198D01*
X86456198Y-141494300D01*
X86587523Y-141306749D01*
X86589846Y-141301767D01*
X86589849Y-141301762D01*
X86681961Y-141104225D01*
X86681961Y-141104224D01*
X86684284Y-141099243D01*
X86687281Y-141088060D01*
X86742119Y-140883402D01*
X86742119Y-140883400D01*
X86743543Y-140878087D01*
X86763019Y-140655475D01*
X97637483Y-140655475D01*
X97656472Y-140872519D01*
X97658375Y-140883312D01*
X97714764Y-141093761D01*
X97718510Y-141104053D01*
X97810586Y-141301511D01*
X97816069Y-141311006D01*
X97852509Y-141363048D01*
X97862988Y-141371424D01*
X97876434Y-141364356D01*
X98577978Y-140662812D01*
X98585592Y-140648868D01*
X98585461Y-140647035D01*
X98581210Y-140640420D01*
X97875713Y-139934923D01*
X97863938Y-139928493D01*
X97851923Y-139937789D01*
X97816069Y-139988994D01*
X97810586Y-139998489D01*
X97718510Y-140195947D01*
X97714764Y-140206239D01*
X97658375Y-140416688D01*
X97656472Y-140427481D01*
X97637483Y-140644525D01*
X97637483Y-140655475D01*
X86763019Y-140655475D01*
X86763498Y-140650000D01*
X86743543Y-140421913D01*
X86706981Y-140285461D01*
X86685707Y-140206067D01*
X86685706Y-140206065D01*
X86684284Y-140200757D01*
X86680440Y-140192514D01*
X86589849Y-139998238D01*
X86589846Y-139998233D01*
X86587523Y-139993251D01*
X86456198Y-139805700D01*
X86294300Y-139643802D01*
X86289792Y-139640645D01*
X86289789Y-139640643D01*
X86178886Y-139562988D01*
X98228576Y-139562988D01*
X98235644Y-139576434D01*
X98937188Y-140277978D01*
X98951132Y-140285592D01*
X98952965Y-140285461D01*
X98959580Y-140281210D01*
X99665077Y-139575713D01*
X99671507Y-139563938D01*
X99662211Y-139551923D01*
X99611006Y-139516069D01*
X99601511Y-139510586D01*
X99404053Y-139418510D01*
X99393761Y-139414764D01*
X99183312Y-139358375D01*
X99172519Y-139356472D01*
X98955475Y-139337483D01*
X98944525Y-139337483D01*
X98727481Y-139356472D01*
X98716688Y-139358375D01*
X98506239Y-139414764D01*
X98495947Y-139418510D01*
X98298489Y-139510586D01*
X98288994Y-139516069D01*
X98236952Y-139552509D01*
X98228576Y-139562988D01*
X86178886Y-139562988D01*
X86106749Y-139512477D01*
X86101767Y-139510154D01*
X86101762Y-139510151D01*
X85904225Y-139418039D01*
X85904224Y-139418039D01*
X85899243Y-139415716D01*
X85893935Y-139414294D01*
X85893933Y-139414293D01*
X85683402Y-139357881D01*
X85683400Y-139357881D01*
X85678087Y-139356457D01*
X85450000Y-139336502D01*
X85221913Y-139356457D01*
X85216600Y-139357881D01*
X85216598Y-139357881D01*
X85006067Y-139414293D01*
X85006065Y-139414294D01*
X85000757Y-139415716D01*
X84995776Y-139418039D01*
X84995775Y-139418039D01*
X84798238Y-139510151D01*
X84798233Y-139510154D01*
X84793251Y-139512477D01*
X84721114Y-139562988D01*
X84610211Y-139640643D01*
X84610208Y-139640645D01*
X84605700Y-139643802D01*
X84443802Y-139805700D01*
X84312477Y-139993251D01*
X84310153Y-139998235D01*
X84308829Y-140000528D01*
X84257447Y-140049521D01*
X84187733Y-140062957D01*
X84121822Y-140036571D01*
X84090591Y-140000528D01*
X84083934Y-139988998D01*
X84047491Y-139936952D01*
X84037012Y-139928576D01*
X84023566Y-139935644D01*
X83322022Y-140637188D01*
X83314408Y-140651132D01*
X83314539Y-140652965D01*
X83318790Y-140659580D01*
X84024287Y-141365077D01*
X84036062Y-141371507D01*
X84048077Y-141362211D01*
X84083934Y-141311002D01*
X84090591Y-141299472D01*
X84141973Y-141250479D01*
X84211687Y-141237042D01*
X84277598Y-141263429D01*
X84308829Y-141299472D01*
X84310153Y-141301765D01*
X84312477Y-141306749D01*
X84443802Y-141494300D01*
X84605700Y-141656198D01*
X84610208Y-141659355D01*
X84610211Y-141659357D01*
X84688389Y-141714098D01*
X84793251Y-141787523D01*
X84798233Y-141789846D01*
X84798238Y-141789849D01*
X84931105Y-141851805D01*
X84984390Y-141898722D01*
X85003851Y-141966999D01*
X84983309Y-142034959D01*
X84929287Y-142081025D01*
X84877855Y-142092000D01*
X83520962Y-142092000D01*
X83452841Y-142071998D01*
X83406348Y-142018342D01*
X83396244Y-141948068D01*
X83425738Y-141883488D01*
X83467712Y-141851805D01*
X83601511Y-141789414D01*
X83611006Y-141783931D01*
X83663048Y-141747491D01*
X83671424Y-141737012D01*
X83664356Y-141723566D01*
X82962812Y-141022022D01*
X82948868Y-141014408D01*
X82947035Y-141014539D01*
X82940420Y-141018790D01*
X82234923Y-141724287D01*
X82228493Y-141736062D01*
X82237789Y-141748077D01*
X82288994Y-141783931D01*
X82298489Y-141789414D01*
X82432288Y-141851805D01*
X82485573Y-141898722D01*
X82505034Y-141967000D01*
X82484492Y-142034960D01*
X82430469Y-142081025D01*
X82379038Y-142092000D01*
X81630132Y-142092000D01*
X81562011Y-142071998D01*
X81515518Y-142018342D01*
X81504132Y-141965991D01*
X81504183Y-141212767D01*
X81524190Y-141144648D01*
X81577848Y-141098159D01*
X81648123Y-141088060D01*
X81712702Y-141117557D01*
X81744378Y-141159526D01*
X81810586Y-141301511D01*
X81816069Y-141311006D01*
X81852509Y-141363048D01*
X81862988Y-141371424D01*
X81876434Y-141364356D01*
X82577978Y-140662812D01*
X82585592Y-140648868D01*
X82585461Y-140647035D01*
X82581210Y-140640420D01*
X81875713Y-139934923D01*
X81863938Y-139928493D01*
X81851923Y-139937789D01*
X81816069Y-139988994D01*
X81810586Y-139998489D01*
X81744454Y-140140310D01*
X81697537Y-140193595D01*
X81629259Y-140213056D01*
X81561299Y-140192514D01*
X81515234Y-140138491D01*
X81504259Y-140087051D01*
X81504263Y-140036571D01*
X81504295Y-139562988D01*
X82228576Y-139562988D01*
X82235644Y-139576434D01*
X82937188Y-140277978D01*
X82951132Y-140285592D01*
X82952965Y-140285461D01*
X82959580Y-140281210D01*
X83665077Y-139575713D01*
X83671507Y-139563938D01*
X83662211Y-139551923D01*
X83611006Y-139516069D01*
X83601511Y-139510586D01*
X83404053Y-139418510D01*
X83393761Y-139414764D01*
X83183312Y-139358375D01*
X83172519Y-139356472D01*
X82955475Y-139337483D01*
X82944525Y-139337483D01*
X82727481Y-139356472D01*
X82716688Y-139358375D01*
X82506239Y-139414764D01*
X82495947Y-139418510D01*
X82298489Y-139510586D01*
X82288994Y-139516069D01*
X82236952Y-139552509D01*
X82228576Y-139562988D01*
X81504295Y-139562988D01*
X81504369Y-138466098D01*
X81524376Y-138397979D01*
X81578034Y-138351490D01*
X81648309Y-138341391D01*
X81679979Y-138350348D01*
X81686399Y-138354145D01*
X81694012Y-138356357D01*
X81694015Y-138356358D01*
X81761207Y-138375879D01*
X81846169Y-138400562D01*
X81852574Y-138401066D01*
X81852579Y-138401067D01*
X81881042Y-138403307D01*
X81881050Y-138403307D01*
X81883498Y-138403500D01*
X84416502Y-138403500D01*
X84418950Y-138403307D01*
X84418958Y-138403307D01*
X84447421Y-138401067D01*
X84447426Y-138401066D01*
X84453831Y-138400562D01*
X84553769Y-138371528D01*
X84605988Y-138356357D01*
X84605990Y-138356356D01*
X84613601Y-138354145D01*
X84651761Y-138331577D01*
X84749980Y-138273491D01*
X84749983Y-138273489D01*
X84756807Y-138269453D01*
X84874453Y-138151807D01*
X84878489Y-138144983D01*
X84878491Y-138144980D01*
X84955108Y-138015427D01*
X84959145Y-138008601D01*
X85005562Y-137848831D01*
X85006648Y-137835042D01*
X85008307Y-137813958D01*
X85008307Y-137813950D01*
X85008500Y-137811502D01*
X85008500Y-137378498D01*
X85005562Y-137341169D01*
X84973821Y-137231913D01*
X84961357Y-137189012D01*
X84961356Y-137189010D01*
X84959145Y-137181399D01*
X84874453Y-137038193D01*
X84871771Y-137035511D01*
X84846498Y-136971139D01*
X84860400Y-136901516D01*
X84870572Y-136885688D01*
X84874453Y-136881807D01*
X84959145Y-136738601D01*
X85005562Y-136578831D01*
X85008500Y-136541502D01*
X85008500Y-136503900D01*
X85028502Y-136435779D01*
X85082158Y-136389286D01*
X85134500Y-136377900D01*
X86453278Y-136377900D01*
X86522271Y-136398468D01*
X86567789Y-136428254D01*
X86722028Y-136485615D01*
X86729009Y-136486546D01*
X86729011Y-136486547D01*
X86878161Y-136506448D01*
X86878165Y-136506448D01*
X86885142Y-136507379D01*
X86892153Y-136506741D01*
X86892157Y-136506741D01*
X87042003Y-136493104D01*
X87042004Y-136493104D01*
X87049024Y-136492465D01*
X87077662Y-136483160D01*
X87198830Y-136443790D01*
X87198833Y-136443789D01*
X87205529Y-136441613D01*
X87282597Y-136395671D01*
X87347115Y-136377900D01*
X90965500Y-136377900D01*
X91033621Y-136397902D01*
X91080114Y-136451558D01*
X91091500Y-136503900D01*
X91091500Y-136541502D01*
X91094438Y-136578831D01*
X91140855Y-136738601D01*
X91225547Y-136881807D01*
X91228229Y-136884489D01*
X91253502Y-136948861D01*
X91239600Y-137018484D01*
X91229428Y-137034312D01*
X91225547Y-137038193D01*
X91140855Y-137181399D01*
X91138644Y-137189010D01*
X91138643Y-137189012D01*
X91126179Y-137231913D01*
X91094438Y-137341169D01*
X91091500Y-137378498D01*
X91091500Y-137811502D01*
X91091693Y-137813950D01*
X91091693Y-137813958D01*
X91093353Y-137835042D01*
X91094438Y-137848831D01*
X91140855Y-138008601D01*
X91144892Y-138015427D01*
X91221509Y-138144980D01*
X91221511Y-138144983D01*
X91225547Y-138151807D01*
X91343193Y-138269453D01*
X91350017Y-138273489D01*
X91350020Y-138273491D01*
X91448239Y-138331577D01*
X91486399Y-138354145D01*
X91494010Y-138356356D01*
X91494012Y-138356357D01*
X91546231Y-138371528D01*
X91646169Y-138400562D01*
X91652574Y-138401066D01*
X91652579Y-138401067D01*
X91681042Y-138403307D01*
X91681050Y-138403307D01*
X91683498Y-138403500D01*
X92845761Y-138403500D01*
X92913882Y-138423502D01*
X92934856Y-138440405D01*
X93053585Y-138559134D01*
X93064452Y-138571525D01*
X93083913Y-138596887D01*
X93090463Y-138601913D01*
X93115821Y-138621371D01*
X93115837Y-138621385D01*
X93165205Y-138659266D01*
X93211024Y-138694424D01*
X93359049Y-138755738D01*
X93367236Y-138756816D01*
X93367237Y-138756816D01*
X93378442Y-138758291D01*
X93409638Y-138762398D01*
X93478015Y-138771400D01*
X93478018Y-138771400D01*
X93478026Y-138771401D01*
X93509711Y-138775572D01*
X93517900Y-138776650D01*
X93549593Y-138772478D01*
X93566036Y-138771400D01*
X109033964Y-138771400D01*
X109050407Y-138772478D01*
X109082100Y-138776650D01*
X109090289Y-138775572D01*
X109121974Y-138771401D01*
X109121984Y-138771400D01*
X109121985Y-138771400D01*
X109122001Y-138771398D01*
X109221557Y-138758291D01*
X109232764Y-138756816D01*
X109232766Y-138756815D01*
X109240951Y-138755738D01*
X109388976Y-138694424D01*
X109484162Y-138621385D01*
X109484169Y-138621380D01*
X109484175Y-138621374D01*
X109509534Y-138601915D01*
X109516087Y-138596887D01*
X109521117Y-138590332D01*
X109535552Y-138571521D01*
X109546419Y-138559130D01*
X109560905Y-138544644D01*
X109623217Y-138510618D01*
X109694032Y-138515683D01*
X109739095Y-138544644D01*
X110107885Y-138913434D01*
X110118752Y-138925825D01*
X110138213Y-138951187D01*
X110144763Y-138956213D01*
X110170121Y-138975671D01*
X110170137Y-138975685D01*
X110208028Y-139004759D01*
X110265324Y-139048724D01*
X110413349Y-139110038D01*
X110421536Y-139111116D01*
X110421537Y-139111116D01*
X110432742Y-139112591D01*
X110463938Y-139116698D01*
X110532315Y-139125700D01*
X110532318Y-139125700D01*
X110532326Y-139125701D01*
X110564011Y-139129872D01*
X110572200Y-139130950D01*
X110580389Y-139129872D01*
X110603893Y-139126778D01*
X110620338Y-139125700D01*
X126573375Y-139125700D01*
X126641496Y-139145702D01*
X126687989Y-139199358D01*
X126698093Y-139269632D01*
X126676588Y-139323972D01*
X126666065Y-139339000D01*
X126660586Y-139348489D01*
X126568510Y-139545947D01*
X126564764Y-139556239D01*
X126518606Y-139728503D01*
X126518942Y-139742599D01*
X126526884Y-139746000D01*
X129067967Y-139746000D01*
X129081498Y-139742027D01*
X129082727Y-139733478D01*
X129035236Y-139556239D01*
X129031490Y-139545947D01*
X128939414Y-139348489D01*
X128933935Y-139339000D01*
X128923412Y-139323972D01*
X128900724Y-139256698D01*
X128918008Y-139187837D01*
X128969778Y-139139253D01*
X129026625Y-139125700D01*
X130244160Y-139125700D01*
X130312281Y-139145702D01*
X130358774Y-139199358D01*
X130363718Y-139211928D01*
X130403832Y-139332515D01*
X130489079Y-139473273D01*
X130493970Y-139478338D01*
X130493971Y-139478339D01*
X130525112Y-139510586D01*
X130603391Y-139591647D01*
X130741089Y-139681754D01*
X130895328Y-139739115D01*
X130902309Y-139740046D01*
X130902311Y-139740047D01*
X131051461Y-139759948D01*
X131051465Y-139759948D01*
X131058442Y-139760879D01*
X131065453Y-139760241D01*
X131065457Y-139760241D01*
X131215303Y-139746604D01*
X131215304Y-139746604D01*
X131222324Y-139745965D01*
X131312358Y-139716711D01*
X131372130Y-139697290D01*
X131372133Y-139697289D01*
X131378829Y-139695113D01*
X131407714Y-139677894D01*
X131514129Y-139614458D01*
X131514132Y-139614456D01*
X131520179Y-139610851D01*
X131539078Y-139592854D01*
X131602203Y-139560362D01*
X131625969Y-139558100D01*
X141639541Y-139558100D01*
X141707662Y-139578102D01*
X141754155Y-139631758D01*
X141764259Y-139702032D01*
X141761248Y-139716711D01*
X141747881Y-139766598D01*
X141746457Y-139771913D01*
X141726502Y-140000000D01*
X141746457Y-140228087D01*
X141747881Y-140233400D01*
X141747881Y-140233402D01*
X141761866Y-140285592D01*
X141805716Y-140449243D01*
X141808039Y-140454224D01*
X141808039Y-140454225D01*
X141900151Y-140651762D01*
X141900154Y-140651767D01*
X141902477Y-140656749D01*
X142033802Y-140844300D01*
X142195700Y-141006198D01*
X142200208Y-141009355D01*
X142200211Y-141009357D01*
X142207425Y-141014408D01*
X142383251Y-141137523D01*
X142388233Y-141139846D01*
X142388238Y-141139849D01*
X142544613Y-141212767D01*
X142590757Y-141234284D01*
X142596065Y-141235706D01*
X142596067Y-141235707D01*
X142806598Y-141292119D01*
X142806600Y-141292119D01*
X142811913Y-141293543D01*
X143040000Y-141313498D01*
X143268087Y-141293543D01*
X143273400Y-141292119D01*
X143273402Y-141292119D01*
X143483933Y-141235707D01*
X143483935Y-141235706D01*
X143489243Y-141234284D01*
X143535387Y-141212767D01*
X143691762Y-141139849D01*
X143691767Y-141139846D01*
X143696749Y-141137523D01*
X143872575Y-141014408D01*
X143879789Y-141009357D01*
X143879792Y-141009355D01*
X143884300Y-141006198D01*
X144046198Y-140844300D01*
X144177523Y-140656749D01*
X144179846Y-140651767D01*
X144179849Y-140651762D01*
X144271961Y-140454225D01*
X144271961Y-140454224D01*
X144274284Y-140449243D01*
X144318135Y-140285592D01*
X144323245Y-140266522D01*
X150717273Y-140266522D01*
X150764764Y-140443761D01*
X150768510Y-140454053D01*
X150860586Y-140651511D01*
X150866069Y-140661007D01*
X150991028Y-140839467D01*
X150998084Y-140847875D01*
X151152125Y-141001916D01*
X151160533Y-141008972D01*
X151338993Y-141133931D01*
X151348489Y-141139414D01*
X151545947Y-141231490D01*
X151556239Y-141235236D01*
X151728503Y-141281394D01*
X151742599Y-141281058D01*
X151746000Y-141273116D01*
X151746000Y-141267967D01*
X152254000Y-141267967D01*
X152257973Y-141281498D01*
X152266522Y-141282727D01*
X152443761Y-141235236D01*
X152454053Y-141231490D01*
X152651511Y-141139414D01*
X152661007Y-141133931D01*
X152839467Y-141008972D01*
X152847875Y-141001916D01*
X153001916Y-140847875D01*
X153008972Y-140839467D01*
X153133931Y-140661007D01*
X153139414Y-140651511D01*
X153231490Y-140454053D01*
X153235236Y-140443761D01*
X153281394Y-140271497D01*
X153281058Y-140257401D01*
X153273116Y-140254000D01*
X152272115Y-140254000D01*
X152256876Y-140258475D01*
X152255671Y-140259865D01*
X152254000Y-140267548D01*
X152254000Y-141267967D01*
X151746000Y-141267967D01*
X151746000Y-140272115D01*
X151741525Y-140256876D01*
X151740135Y-140255671D01*
X151732452Y-140254000D01*
X150732033Y-140254000D01*
X150718502Y-140257973D01*
X150717273Y-140266522D01*
X144323245Y-140266522D01*
X144332119Y-140233402D01*
X144332119Y-140233400D01*
X144333543Y-140228087D01*
X144353498Y-140000000D01*
X144333543Y-139771913D01*
X144332119Y-139766598D01*
X144318752Y-139716711D01*
X144320442Y-139645734D01*
X144360237Y-139586938D01*
X144425501Y-139558991D01*
X144440459Y-139558100D01*
X150600059Y-139558100D01*
X150668180Y-139578102D01*
X150714673Y-139631758D01*
X150724777Y-139702032D01*
X150721766Y-139716711D01*
X150718606Y-139728503D01*
X150718942Y-139742599D01*
X150726884Y-139746000D01*
X153267967Y-139746000D01*
X153281498Y-139742027D01*
X153282727Y-139733478D01*
X153278234Y-139716711D01*
X153279924Y-139645735D01*
X153319718Y-139586939D01*
X153384982Y-139558991D01*
X153399941Y-139558100D01*
X165839541Y-139558100D01*
X165907662Y-139578102D01*
X165954155Y-139631758D01*
X165964259Y-139702032D01*
X165961248Y-139716711D01*
X165947881Y-139766598D01*
X165946457Y-139771913D01*
X165926502Y-140000000D01*
X165946457Y-140228087D01*
X165947881Y-140233400D01*
X165947881Y-140233402D01*
X165961866Y-140285592D01*
X166005716Y-140449243D01*
X166008039Y-140454224D01*
X166008039Y-140454225D01*
X166100151Y-140651762D01*
X166100154Y-140651767D01*
X166102477Y-140656749D01*
X166233802Y-140844300D01*
X166395700Y-141006198D01*
X166400208Y-141009355D01*
X166400211Y-141009357D01*
X166407425Y-141014408D01*
X166583251Y-141137523D01*
X166588233Y-141139846D01*
X166588238Y-141139849D01*
X166744613Y-141212767D01*
X166790757Y-141234284D01*
X166796065Y-141235706D01*
X166796067Y-141235707D01*
X167006598Y-141292119D01*
X167006600Y-141292119D01*
X167011913Y-141293543D01*
X167240000Y-141313498D01*
X167468087Y-141293543D01*
X167473400Y-141292119D01*
X167473402Y-141292119D01*
X167683933Y-141235707D01*
X167683935Y-141235706D01*
X167689243Y-141234284D01*
X167735387Y-141212767D01*
X167891762Y-141139849D01*
X167891767Y-141139846D01*
X167896749Y-141137523D01*
X168072575Y-141014408D01*
X168079789Y-141009357D01*
X168079792Y-141009355D01*
X168084300Y-141006198D01*
X168246198Y-140844300D01*
X168377523Y-140656749D01*
X168379846Y-140651767D01*
X168379849Y-140651762D01*
X168471961Y-140454225D01*
X168471961Y-140454224D01*
X168474284Y-140449243D01*
X168518135Y-140285592D01*
X168532119Y-140233402D01*
X168532119Y-140233400D01*
X168533543Y-140228087D01*
X168553498Y-140000000D01*
X168533543Y-139771913D01*
X168532119Y-139766598D01*
X168475707Y-139556067D01*
X168475706Y-139556065D01*
X168474284Y-139550757D01*
X168438153Y-139473273D01*
X168379849Y-139348238D01*
X168379846Y-139348233D01*
X168377523Y-139343251D01*
X168304098Y-139238389D01*
X168249357Y-139160211D01*
X168249355Y-139160208D01*
X168246198Y-139155700D01*
X168157569Y-139067071D01*
X168123543Y-139004759D01*
X168128608Y-138933944D01*
X168157569Y-138888881D01*
X170048634Y-136997815D01*
X170061025Y-136986948D01*
X170079837Y-136972513D01*
X170086387Y-136967487D01*
X170110874Y-136935575D01*
X170110877Y-136935572D01*
X170178908Y-136846912D01*
X170183924Y-136840375D01*
X170245238Y-136692350D01*
X170260900Y-136573385D01*
X170260900Y-136573378D01*
X170266150Y-136533500D01*
X170261978Y-136501807D01*
X170260900Y-136485364D01*
X170260900Y-132095736D01*
X170261978Y-132079290D01*
X170265072Y-132055788D01*
X170266150Y-132047600D01*
X170260900Y-132007722D01*
X170260900Y-132007715D01*
X170245238Y-131888750D01*
X170211962Y-131808413D01*
X170206428Y-131795054D01*
X170187084Y-131748354D01*
X170183924Y-131740724D01*
X170173973Y-131727755D01*
X170110883Y-131645536D01*
X170110877Y-131645528D01*
X170110874Y-131645525D01*
X170086387Y-131613613D01*
X170074898Y-131604797D01*
X170061021Y-131594148D01*
X170048630Y-131583281D01*
X168958626Y-130493277D01*
X168947759Y-130480886D01*
X168933324Y-130462074D01*
X168928298Y-130455524D01*
X168896386Y-130431037D01*
X168896383Y-130431034D01*
X168815833Y-130369225D01*
X168807740Y-130363015D01*
X168807738Y-130363014D01*
X168801187Y-130357987D01*
X168653162Y-130296673D01*
X168644975Y-130295595D01*
X168644974Y-130295595D01*
X168633769Y-130294120D01*
X168633768Y-130294120D01*
X168620900Y-130292426D01*
X168555973Y-130263702D01*
X168516883Y-130204436D01*
X168515643Y-130134892D01*
X168532118Y-130073409D01*
X168532120Y-130073398D01*
X168533543Y-130068087D01*
X168553498Y-129840000D01*
X168533543Y-129611913D01*
X168526354Y-129585084D01*
X168475707Y-129396067D01*
X168475706Y-129396065D01*
X168474284Y-129390757D01*
X168471959Y-129385770D01*
X168449339Y-129337260D01*
X168438678Y-129267068D01*
X168467659Y-129202256D01*
X168527079Y-129163400D01*
X168563534Y-129158011D01*
X169705323Y-129158011D01*
X169773444Y-129178013D01*
X169794418Y-129194916D01*
X169805700Y-129206198D01*
X169810208Y-129209355D01*
X169810211Y-129209357D01*
X169876149Y-129255527D01*
X169993251Y-129337523D01*
X169998233Y-129339846D01*
X169998238Y-129339849D01*
X170195775Y-129431961D01*
X170200757Y-129434284D01*
X170206065Y-129435706D01*
X170206067Y-129435707D01*
X170416598Y-129492119D01*
X170416600Y-129492119D01*
X170421913Y-129493543D01*
X170650000Y-129513498D01*
X170878087Y-129493543D01*
X170883400Y-129492119D01*
X170883402Y-129492119D01*
X171093933Y-129435707D01*
X171093935Y-129435706D01*
X171099243Y-129434284D01*
X171104225Y-129431961D01*
X171301762Y-129339849D01*
X171301767Y-129339846D01*
X171306749Y-129337523D01*
X171423851Y-129255527D01*
X171489789Y-129209357D01*
X171489792Y-129209355D01*
X171494300Y-129206198D01*
X171656198Y-129044300D01*
X171672162Y-129021502D01*
X171740197Y-128924337D01*
X171787523Y-128856749D01*
X171789846Y-128851767D01*
X171789849Y-128851762D01*
X171881961Y-128654225D01*
X171881961Y-128654224D01*
X171884284Y-128649243D01*
X171943543Y-128428087D01*
X171963498Y-128200000D01*
X171943543Y-127971913D01*
X171939124Y-127955420D01*
X171885707Y-127756067D01*
X171885706Y-127756065D01*
X171884284Y-127750757D01*
X171881961Y-127745775D01*
X171789849Y-127548238D01*
X171789846Y-127548233D01*
X171787523Y-127543251D01*
X171687378Y-127400229D01*
X171659357Y-127360211D01*
X171659355Y-127360208D01*
X171656198Y-127355700D01*
X171494300Y-127193802D01*
X171489792Y-127190645D01*
X171489789Y-127190643D01*
X171322491Y-127073500D01*
X171306749Y-127062477D01*
X171301765Y-127060153D01*
X171299472Y-127058829D01*
X171250479Y-127007447D01*
X171237043Y-126937733D01*
X171263429Y-126871822D01*
X171299472Y-126840591D01*
X171311002Y-126833934D01*
X171363048Y-126797491D01*
X171371424Y-126787012D01*
X171364356Y-126773566D01*
X170662812Y-126072022D01*
X170648868Y-126064408D01*
X170647035Y-126064539D01*
X170640420Y-126068790D01*
X169934923Y-126774287D01*
X169928493Y-126786062D01*
X169937789Y-126798077D01*
X169988998Y-126833934D01*
X170000528Y-126840591D01*
X170049521Y-126891973D01*
X170062958Y-126961687D01*
X170036571Y-127027598D01*
X170000528Y-127058829D01*
X169998235Y-127060153D01*
X169993251Y-127062477D01*
X169977509Y-127073500D01*
X169810211Y-127190643D01*
X169810208Y-127190645D01*
X169805700Y-127193802D01*
X169643802Y-127355700D01*
X169640645Y-127360208D01*
X169640643Y-127360211D01*
X169612622Y-127400229D01*
X169512477Y-127543251D01*
X169482006Y-127608598D01*
X169454185Y-127668260D01*
X169407268Y-127721546D01*
X169339990Y-127741011D01*
X168640697Y-127741011D01*
X168572576Y-127721009D01*
X168526083Y-127667353D01*
X168515979Y-127597079D01*
X168518990Y-127582400D01*
X168532119Y-127533402D01*
X168532120Y-127533399D01*
X168533543Y-127528087D01*
X168553498Y-127300000D01*
X168533543Y-127071913D01*
X168516269Y-127007447D01*
X168475707Y-126856067D01*
X168475706Y-126856065D01*
X168474284Y-126850757D01*
X168468527Y-126838411D01*
X168379849Y-126648238D01*
X168379846Y-126648233D01*
X168377523Y-126643251D01*
X168254800Y-126467985D01*
X168249357Y-126460211D01*
X168249355Y-126460208D01*
X168246198Y-126455700D01*
X168084300Y-126293802D01*
X168079792Y-126290645D01*
X168079789Y-126290643D01*
X167981616Y-126221902D01*
X167896749Y-126162477D01*
X167891767Y-126160154D01*
X167891762Y-126160151D01*
X167857543Y-126144195D01*
X167804258Y-126097278D01*
X167784797Y-126029001D01*
X167805339Y-125961041D01*
X167857543Y-125915805D01*
X167891762Y-125899849D01*
X167891767Y-125899846D01*
X167896749Y-125897523D01*
X168013644Y-125815672D01*
X168079789Y-125769357D01*
X168079792Y-125769355D01*
X168084300Y-125766198D01*
X168145023Y-125705475D01*
X169337483Y-125705475D01*
X169356472Y-125922519D01*
X169358375Y-125933312D01*
X169414764Y-126143761D01*
X169418510Y-126154053D01*
X169510586Y-126351511D01*
X169516069Y-126361006D01*
X169552509Y-126413048D01*
X169562988Y-126421424D01*
X169576434Y-126414356D01*
X170277978Y-125712812D01*
X170284356Y-125701132D01*
X171014408Y-125701132D01*
X171014539Y-125702965D01*
X171018790Y-125709580D01*
X171724287Y-126415077D01*
X171736062Y-126421507D01*
X171748077Y-126412211D01*
X171783931Y-126361006D01*
X171789414Y-126351511D01*
X171881490Y-126154053D01*
X171885236Y-126143761D01*
X171941625Y-125933312D01*
X171943528Y-125922519D01*
X171962517Y-125705475D01*
X171962517Y-125694525D01*
X171943528Y-125477481D01*
X171941625Y-125466688D01*
X171885236Y-125256239D01*
X171881490Y-125245947D01*
X171789414Y-125048489D01*
X171783931Y-125038994D01*
X171747491Y-124986952D01*
X171737012Y-124978576D01*
X171723566Y-124985644D01*
X171022022Y-125687188D01*
X171014408Y-125701132D01*
X170284356Y-125701132D01*
X170285592Y-125698868D01*
X170285461Y-125697035D01*
X170281210Y-125690420D01*
X169575713Y-124984923D01*
X169563938Y-124978493D01*
X169551923Y-124987789D01*
X169516069Y-125038994D01*
X169510586Y-125048489D01*
X169418510Y-125245947D01*
X169414764Y-125256239D01*
X169358375Y-125466688D01*
X169356472Y-125477481D01*
X169337483Y-125694525D01*
X169337483Y-125705475D01*
X168145023Y-125705475D01*
X168246198Y-125604300D01*
X168377523Y-125416749D01*
X168379846Y-125411767D01*
X168379849Y-125411762D01*
X168471961Y-125214225D01*
X168471961Y-125214224D01*
X168474284Y-125209243D01*
X168488817Y-125155008D01*
X168532119Y-124993402D01*
X168532120Y-124993399D01*
X168533543Y-124988087D01*
X168553498Y-124760000D01*
X168540636Y-124612988D01*
X169928576Y-124612988D01*
X169935644Y-124626434D01*
X170637188Y-125327978D01*
X170651132Y-125335592D01*
X170652965Y-125335461D01*
X170659580Y-125331210D01*
X171365077Y-124625713D01*
X171371507Y-124613938D01*
X171362211Y-124601923D01*
X171311006Y-124566069D01*
X171301511Y-124560586D01*
X171104053Y-124468510D01*
X171093761Y-124464764D01*
X170883312Y-124408375D01*
X170872519Y-124406472D01*
X170655475Y-124387483D01*
X170644525Y-124387483D01*
X170427481Y-124406472D01*
X170416688Y-124408375D01*
X170206239Y-124464764D01*
X170195947Y-124468510D01*
X169998489Y-124560586D01*
X169988994Y-124566069D01*
X169936952Y-124602509D01*
X169928576Y-124612988D01*
X168540636Y-124612988D01*
X168533543Y-124531913D01*
X168516554Y-124468510D01*
X168475707Y-124316067D01*
X168475706Y-124316065D01*
X168474284Y-124310757D01*
X168469553Y-124300612D01*
X168379849Y-124108238D01*
X168379846Y-124108233D01*
X168377523Y-124103251D01*
X168246198Y-123915700D01*
X168084300Y-123753802D01*
X168079792Y-123750645D01*
X168079789Y-123750643D01*
X167975901Y-123677900D01*
X167896749Y-123622477D01*
X167891767Y-123620154D01*
X167891762Y-123620151D01*
X167857543Y-123604195D01*
X167804258Y-123557278D01*
X167784797Y-123489001D01*
X167805339Y-123421041D01*
X167857543Y-123375805D01*
X167891762Y-123359849D01*
X167891767Y-123359846D01*
X167896749Y-123357523D01*
X168001611Y-123284098D01*
X168079789Y-123229357D01*
X168079792Y-123229355D01*
X168084300Y-123226198D01*
X168246198Y-123064300D01*
X168377523Y-122876749D01*
X168379846Y-122871767D01*
X168379849Y-122871762D01*
X168471961Y-122674225D01*
X168471961Y-122674224D01*
X168474284Y-122669243D01*
X168476295Y-122661740D01*
X168532119Y-122453402D01*
X168532119Y-122453400D01*
X168533543Y-122448087D01*
X168553498Y-122220000D01*
X168533543Y-121991913D01*
X168503857Y-121881124D01*
X168475707Y-121776067D01*
X168475706Y-121776065D01*
X168474284Y-121770757D01*
X168450616Y-121720000D01*
X168379849Y-121568238D01*
X168379846Y-121568233D01*
X168377523Y-121563251D01*
X168246198Y-121375700D01*
X168084300Y-121213802D01*
X168079792Y-121210645D01*
X168079789Y-121210643D01*
X167952381Y-121121431D01*
X167896749Y-121082477D01*
X167891767Y-121080154D01*
X167891762Y-121080151D01*
X167857543Y-121064195D01*
X167804258Y-121017278D01*
X167784797Y-120949001D01*
X167805339Y-120881041D01*
X167857543Y-120835805D01*
X167891762Y-120819849D01*
X167891767Y-120819846D01*
X167896749Y-120817523D01*
X168017634Y-120732878D01*
X168079789Y-120689357D01*
X168079792Y-120689355D01*
X168084300Y-120686198D01*
X168246198Y-120524300D01*
X168249543Y-120519524D01*
X168334475Y-120398228D01*
X168377523Y-120336749D01*
X168379846Y-120331767D01*
X168379849Y-120331762D01*
X168471961Y-120134225D01*
X168471961Y-120134224D01*
X168474284Y-120129243D01*
X168482504Y-120098568D01*
X168532119Y-119913402D01*
X168532119Y-119913400D01*
X168533543Y-119908087D01*
X168553498Y-119680000D01*
X168533543Y-119451913D01*
X168494596Y-119306562D01*
X168475707Y-119236067D01*
X168475706Y-119236065D01*
X168474284Y-119230757D01*
X168471961Y-119225775D01*
X168379849Y-119028238D01*
X168379846Y-119028233D01*
X168377523Y-119023251D01*
X168246198Y-118835700D01*
X168185019Y-118774521D01*
X168150993Y-118712209D01*
X168156058Y-118641394D01*
X168185019Y-118596331D01*
X168686638Y-118094712D01*
X168699029Y-118083845D01*
X168717837Y-118069413D01*
X168724387Y-118064387D01*
X168748874Y-118032475D01*
X168748878Y-118032471D01*
X168821924Y-117937276D01*
X168883238Y-117789251D01*
X168886411Y-117765150D01*
X168898900Y-117670285D01*
X168898900Y-117670280D01*
X168904150Y-117630400D01*
X168899978Y-117598707D01*
X168898900Y-117582264D01*
X168898900Y-111673144D01*
X168899978Y-111656698D01*
X168903073Y-111633188D01*
X168904151Y-111625000D01*
X168883238Y-111466149D01*
X168821924Y-111318124D01*
X168748878Y-111222929D01*
X168748874Y-111222925D01*
X168748871Y-111222921D01*
X168729416Y-111197566D01*
X168729413Y-111197563D01*
X168724387Y-111191013D01*
X168717832Y-111185983D01*
X168699021Y-111171548D01*
X168686630Y-111160681D01*
X168157319Y-110631370D01*
X168123293Y-110569058D01*
X168128358Y-110498243D01*
X168157318Y-110453180D01*
X168246198Y-110364300D01*
X168252378Y-110355475D01*
X168374366Y-110181257D01*
X168377523Y-110176749D01*
X168379846Y-110171767D01*
X168379849Y-110171762D01*
X168471961Y-109974225D01*
X168471961Y-109974224D01*
X168474284Y-109969243D01*
X168485721Y-109926562D01*
X168532119Y-109753402D01*
X168532119Y-109753400D01*
X168533543Y-109748087D01*
X168553498Y-109520000D01*
X168533543Y-109291913D01*
X168528396Y-109272704D01*
X168475707Y-109076067D01*
X168475706Y-109076065D01*
X168474284Y-109070757D01*
X168467847Y-109056953D01*
X168379849Y-108868238D01*
X168379846Y-108868233D01*
X168377523Y-108863251D01*
X168282428Y-108727441D01*
X168249357Y-108680211D01*
X168249355Y-108680208D01*
X168246198Y-108675700D01*
X168084300Y-108513802D01*
X168079792Y-108510645D01*
X168079789Y-108510643D01*
X168043328Y-108485113D01*
X167999000Y-108429656D01*
X167991691Y-108359036D01*
X168023722Y-108295676D01*
X168084923Y-108259691D01*
X168115599Y-108255900D01*
X169599178Y-108255900D01*
X169668171Y-108276468D01*
X169713689Y-108306254D01*
X169867928Y-108363615D01*
X169874909Y-108364546D01*
X169874911Y-108364547D01*
X170024061Y-108384448D01*
X170024065Y-108384448D01*
X170031042Y-108385379D01*
X170038053Y-108384741D01*
X170038057Y-108384741D01*
X170187903Y-108371104D01*
X170187904Y-108371104D01*
X170194924Y-108370465D01*
X170230099Y-108359036D01*
X170344730Y-108321790D01*
X170344733Y-108321789D01*
X170351429Y-108319613D01*
X170492779Y-108235351D01*
X170611949Y-108121868D01*
X170615850Y-108115997D01*
X170699114Y-107990675D01*
X170699115Y-107990673D01*
X170703015Y-107984803D01*
X170761451Y-107830968D01*
X170770007Y-107770089D01*
X170783802Y-107671934D01*
X170783803Y-107671927D01*
X170784353Y-107668010D01*
X170784641Y-107647400D01*
X170766298Y-107483866D01*
X170758200Y-107460610D01*
X170714498Y-107335117D01*
X170712180Y-107328460D01*
X170679691Y-107276466D01*
X170628709Y-107194879D01*
X170624976Y-107188905D01*
X170557603Y-107121060D01*
X170513986Y-107077137D01*
X170513982Y-107077134D01*
X170509022Y-107072139D01*
X170370080Y-106983963D01*
X170317505Y-106965242D01*
X170221689Y-106931123D01*
X170221687Y-106931122D01*
X170215055Y-106928761D01*
X170208069Y-106927928D01*
X170208065Y-106927927D01*
X170093571Y-106914275D01*
X170051653Y-106909277D01*
X170044650Y-106910013D01*
X170044649Y-106910013D01*
X170001435Y-106914555D01*
X169887995Y-106926478D01*
X169881327Y-106928748D01*
X169738882Y-106977240D01*
X169738879Y-106977241D01*
X169732215Y-106979510D01*
X169682500Y-107010095D01*
X169666045Y-107020218D01*
X169600023Y-107038900D01*
X168674109Y-107038900D01*
X168605988Y-107018898D01*
X168559495Y-106965242D01*
X168548588Y-106923881D01*
X168547384Y-106910111D01*
X168539991Y-106825610D01*
X168534023Y-106757394D01*
X168534022Y-106757389D01*
X168533543Y-106751913D01*
X168526583Y-106725938D01*
X168475707Y-106536067D01*
X168475706Y-106536065D01*
X168474284Y-106530757D01*
X168445990Y-106470080D01*
X168379849Y-106328238D01*
X168379846Y-106328233D01*
X168377523Y-106323251D01*
X168246198Y-106135700D01*
X168084300Y-105973802D01*
X168079792Y-105970645D01*
X168079789Y-105970643D01*
X168001611Y-105915902D01*
X167896749Y-105842477D01*
X167891767Y-105840154D01*
X167891762Y-105840151D01*
X167857543Y-105824195D01*
X167804258Y-105777278D01*
X167784797Y-105709001D01*
X167805339Y-105641041D01*
X167857543Y-105595805D01*
X167891762Y-105579849D01*
X167891767Y-105579846D01*
X167896749Y-105577523D01*
X168035026Y-105480700D01*
X168079789Y-105449357D01*
X168079792Y-105449355D01*
X168084300Y-105446198D01*
X168246198Y-105284300D01*
X168377523Y-105096749D01*
X168379846Y-105091767D01*
X168379849Y-105091762D01*
X168471961Y-104894225D01*
X168471961Y-104894224D01*
X168474284Y-104889243D01*
X168478503Y-104873500D01*
X168532119Y-104673402D01*
X168532119Y-104673400D01*
X168533543Y-104668087D01*
X168553498Y-104440000D01*
X168533543Y-104211913D01*
X168531843Y-104205568D01*
X168475707Y-103996067D01*
X168475706Y-103996065D01*
X168474284Y-103990757D01*
X168471961Y-103985775D01*
X168379849Y-103788238D01*
X168379846Y-103788233D01*
X168377523Y-103783251D01*
X168286918Y-103653854D01*
X168249357Y-103600211D01*
X168249355Y-103600208D01*
X168246198Y-103595700D01*
X168084300Y-103433802D01*
X168079792Y-103430645D01*
X168079789Y-103430643D01*
X168001611Y-103375902D01*
X167896749Y-103302477D01*
X167891767Y-103300154D01*
X167891762Y-103300151D01*
X167857543Y-103284195D01*
X167804258Y-103237278D01*
X167784797Y-103169001D01*
X167805339Y-103101041D01*
X167857543Y-103055805D01*
X167891762Y-103039849D01*
X167891767Y-103039846D01*
X167896749Y-103037523D01*
X168020978Y-102950537D01*
X168079789Y-102909357D01*
X168079792Y-102909355D01*
X168084300Y-102906198D01*
X168246198Y-102744300D01*
X168292815Y-102677725D01*
X168374366Y-102561257D01*
X168377523Y-102556749D01*
X168379846Y-102551767D01*
X168379849Y-102551762D01*
X168471961Y-102354225D01*
X168471961Y-102354224D01*
X168474284Y-102349243D01*
X168478503Y-102333500D01*
X168532119Y-102133402D01*
X168532119Y-102133400D01*
X168533543Y-102128087D01*
X168553498Y-101900000D01*
X168533543Y-101671913D01*
X168510486Y-101585863D01*
X168475707Y-101456067D01*
X168475706Y-101456065D01*
X168474284Y-101450757D01*
X168471961Y-101445775D01*
X168379849Y-101248238D01*
X168379846Y-101248233D01*
X168377523Y-101243251D01*
X168246198Y-101055700D01*
X168084300Y-100893802D01*
X168079792Y-100890645D01*
X168079789Y-100890643D01*
X168001611Y-100835902D01*
X167896749Y-100762477D01*
X167891767Y-100760154D01*
X167891762Y-100760151D01*
X167694225Y-100668039D01*
X167694224Y-100668039D01*
X167689243Y-100665716D01*
X167683935Y-100664294D01*
X167683933Y-100664293D01*
X167473402Y-100607881D01*
X167473400Y-100607881D01*
X167468087Y-100606457D01*
X167240000Y-100586502D01*
X167011913Y-100606457D01*
X166798927Y-100663527D01*
X166727952Y-100661837D01*
X166676911Y-100630604D01*
X166652457Y-100605978D01*
X166594722Y-100547839D01*
X166588773Y-100544064D01*
X166588771Y-100544062D01*
X166456986Y-100460428D01*
X166410187Y-100407039D01*
X166398500Y-100354043D01*
X166398500Y-100238498D01*
X166395562Y-100201169D01*
X166393768Y-100194993D01*
X166393767Y-100194989D01*
X166352996Y-100054652D01*
X166353199Y-99983656D01*
X166391753Y-99924040D01*
X166456418Y-99894732D01*
X166473993Y-99893500D01*
X167886088Y-99893500D01*
X167894658Y-99893792D01*
X167944776Y-99897209D01*
X167944780Y-99897209D01*
X167952352Y-99897725D01*
X167959829Y-99896420D01*
X167959830Y-99896420D01*
X167986308Y-99891799D01*
X168015303Y-99886738D01*
X168021821Y-99885777D01*
X168085242Y-99878102D01*
X168092343Y-99875419D01*
X168094952Y-99874778D01*
X168111262Y-99870315D01*
X168113798Y-99869550D01*
X168121284Y-99868243D01*
X168179800Y-99842556D01*
X168185904Y-99840065D01*
X168238548Y-99820173D01*
X168238549Y-99820172D01*
X168245656Y-99817487D01*
X168251919Y-99813183D01*
X168254285Y-99811946D01*
X168269097Y-99803701D01*
X168271351Y-99802368D01*
X168278305Y-99799315D01*
X168329002Y-99760413D01*
X168334332Y-99756541D01*
X168380720Y-99724661D01*
X168380725Y-99724656D01*
X168386981Y-99720357D01*
X168402831Y-99702568D01*
X168428435Y-99673830D01*
X168433416Y-99668554D01*
X169721988Y-98379982D01*
X169784300Y-98345956D01*
X169822063Y-98343556D01*
X170050000Y-98363498D01*
X170278087Y-98343543D01*
X170283400Y-98342119D01*
X170283402Y-98342119D01*
X170493933Y-98285707D01*
X170493935Y-98285706D01*
X170499243Y-98284284D01*
X170504225Y-98281961D01*
X170701762Y-98189849D01*
X170701767Y-98189846D01*
X170706749Y-98187523D01*
X170849071Y-98087868D01*
X170889789Y-98059357D01*
X170889792Y-98059355D01*
X170894300Y-98056198D01*
X171056198Y-97894300D01*
X171062147Y-97885805D01*
X171121457Y-97801101D01*
X171187523Y-97706749D01*
X171189846Y-97701767D01*
X171189849Y-97701762D01*
X171281961Y-97504225D01*
X171281961Y-97504224D01*
X171284284Y-97499243D01*
X171311565Y-97397432D01*
X171342119Y-97283402D01*
X171342119Y-97283400D01*
X171343543Y-97278087D01*
X171363498Y-97050000D01*
X171343543Y-96821913D01*
X171335055Y-96790235D01*
X171285707Y-96606067D01*
X171285706Y-96606065D01*
X171284284Y-96600757D01*
X171276517Y-96584100D01*
X171189849Y-96398238D01*
X171189846Y-96398233D01*
X171187523Y-96393251D01*
X171082264Y-96242926D01*
X171059357Y-96210211D01*
X171059355Y-96210208D01*
X171056198Y-96205700D01*
X170894300Y-96043802D01*
X170889792Y-96040645D01*
X170889789Y-96040643D01*
X170711253Y-95915631D01*
X170706749Y-95912477D01*
X170701765Y-95910153D01*
X170699472Y-95908829D01*
X170650479Y-95857447D01*
X170637043Y-95787733D01*
X170663429Y-95721822D01*
X170699472Y-95690591D01*
X170711002Y-95683934D01*
X170763048Y-95647491D01*
X170771424Y-95637012D01*
X170764356Y-95623566D01*
X170062812Y-94922022D01*
X170048868Y-94914408D01*
X170047035Y-94914539D01*
X170040420Y-94918790D01*
X169334923Y-95624287D01*
X169328493Y-95636062D01*
X169337789Y-95648077D01*
X169388998Y-95683934D01*
X169400528Y-95690591D01*
X169449521Y-95741973D01*
X169462958Y-95811687D01*
X169436571Y-95877598D01*
X169400528Y-95908829D01*
X169398235Y-95910153D01*
X169393251Y-95912477D01*
X169388747Y-95915631D01*
X169210211Y-96040643D01*
X169210208Y-96040645D01*
X169205700Y-96043802D01*
X169043802Y-96205700D01*
X169040645Y-96210208D01*
X169040643Y-96210211D01*
X169017736Y-96242926D01*
X168912477Y-96393251D01*
X168910154Y-96398233D01*
X168910151Y-96398238D01*
X168823483Y-96584100D01*
X168815716Y-96600757D01*
X168814294Y-96606065D01*
X168814293Y-96606067D01*
X168764945Y-96790235D01*
X168756457Y-96821913D01*
X168736502Y-97050000D01*
X168755686Y-97269266D01*
X168756444Y-97277935D01*
X168742455Y-97347540D01*
X168720018Y-97378012D01*
X167658435Y-98439595D01*
X167596123Y-98473621D01*
X167569340Y-98476500D01*
X166473472Y-98476500D01*
X166405351Y-98456498D01*
X166358858Y-98402842D01*
X166348754Y-98332568D01*
X166352475Y-98315347D01*
X166389939Y-98186396D01*
X166389899Y-98172294D01*
X166382630Y-98169000D01*
X162703122Y-98169000D01*
X162689591Y-98172973D01*
X162688456Y-98180871D01*
X162729107Y-98320790D01*
X162735352Y-98335221D01*
X162811911Y-98464677D01*
X162817871Y-98472360D01*
X162843820Y-98538444D01*
X162829922Y-98608067D01*
X162819579Y-98624161D01*
X162815547Y-98628193D01*
X162730855Y-98771399D01*
X162728644Y-98779010D01*
X162728643Y-98779012D01*
X162719925Y-98809019D01*
X162684438Y-98931169D01*
X162683934Y-98937574D01*
X162683933Y-98937579D01*
X162682048Y-98961533D01*
X162681500Y-98968498D01*
X162681500Y-99401502D01*
X162681693Y-99403950D01*
X162681693Y-99403958D01*
X162683927Y-99432333D01*
X162684438Y-99438831D01*
X162686233Y-99445008D01*
X162728586Y-99590790D01*
X162730855Y-99598601D01*
X162760920Y-99649438D01*
X162815547Y-99741807D01*
X162812580Y-99743562D01*
X162832798Y-99795066D01*
X162818894Y-99864688D01*
X162769556Y-99915740D01*
X162707291Y-99932200D01*
X160769953Y-99932200D01*
X160702438Y-99912585D01*
X160679760Y-99898193D01*
X160646780Y-99877263D01*
X160560388Y-99846500D01*
X160498389Y-99824423D01*
X160498387Y-99824422D01*
X160491755Y-99822061D01*
X160484769Y-99821228D01*
X160484765Y-99821227D01*
X160364264Y-99806859D01*
X160328353Y-99802577D01*
X160321350Y-99803313D01*
X160321349Y-99803313D01*
X160287612Y-99806859D01*
X160164695Y-99819778D01*
X160158027Y-99822048D01*
X160015582Y-99870540D01*
X160015579Y-99870541D01*
X160008915Y-99872810D01*
X159868755Y-99959037D01*
X159863722Y-99963966D01*
X159776876Y-100049012D01*
X159751182Y-100074173D01*
X159662038Y-100212497D01*
X159659627Y-100219120D01*
X159659626Y-100219123D01*
X159608166Y-100360509D01*
X159608165Y-100360514D01*
X159605756Y-100367132D01*
X159604873Y-100374124D01*
X159601049Y-100404392D01*
X159572667Y-100469469D01*
X159513608Y-100508870D01*
X159476043Y-100514600D01*
X156724500Y-100514600D01*
X156656379Y-100494598D01*
X156609886Y-100440942D01*
X156598500Y-100388600D01*
X156598500Y-100238498D01*
X156595562Y-100201169D01*
X156566528Y-100101231D01*
X156551357Y-100049012D01*
X156551356Y-100049010D01*
X156549145Y-100041399D01*
X156474830Y-99915740D01*
X156468493Y-99905024D01*
X156468492Y-99905023D01*
X156464453Y-99898193D01*
X156461513Y-99895253D01*
X156436180Y-99830734D01*
X156450079Y-99761111D01*
X156462126Y-99742364D01*
X156468090Y-99734676D01*
X156544648Y-99605221D01*
X156550893Y-99590790D01*
X156589939Y-99456395D01*
X156589899Y-99442294D01*
X156582630Y-99439000D01*
X154636739Y-99439000D01*
X154568618Y-99418998D01*
X154547644Y-99402095D01*
X154522905Y-99377356D01*
X154488879Y-99315044D01*
X154486000Y-99288261D01*
X154486000Y-99057000D01*
X154506002Y-98988879D01*
X154559658Y-98942386D01*
X154612000Y-98931000D01*
X156576878Y-98931000D01*
X156590409Y-98927027D01*
X156591544Y-98919129D01*
X156550893Y-98779210D01*
X156544648Y-98764779D01*
X156468089Y-98635323D01*
X156462129Y-98627640D01*
X156436180Y-98561556D01*
X156450078Y-98491933D01*
X156460421Y-98475839D01*
X156464453Y-98471807D01*
X156549145Y-98328601D01*
X156551415Y-98320790D01*
X156580407Y-98220995D01*
X156595562Y-98168831D01*
X156598500Y-98131502D01*
X156598500Y-97948200D01*
X156618502Y-97880079D01*
X156672158Y-97833586D01*
X156724500Y-97822200D01*
X158288922Y-97822200D01*
X158357914Y-97842767D01*
X158371189Y-97851454D01*
X158525428Y-97908815D01*
X158532409Y-97909746D01*
X158532411Y-97909747D01*
X158681561Y-97929648D01*
X158681565Y-97929648D01*
X158688542Y-97930579D01*
X158695553Y-97929941D01*
X158695557Y-97929941D01*
X158845403Y-97916304D01*
X158845404Y-97916304D01*
X158852424Y-97915665D01*
X158895776Y-97901579D01*
X159002230Y-97866990D01*
X159002233Y-97866989D01*
X159008929Y-97864813D01*
X159085997Y-97818871D01*
X159150515Y-97801100D01*
X163944264Y-97801100D01*
X163960707Y-97802178D01*
X163992400Y-97806350D01*
X164000589Y-97805272D01*
X164032274Y-97801101D01*
X164032284Y-97801100D01*
X164032285Y-97801100D01*
X164032293Y-97801099D01*
X164143059Y-97786517D01*
X164143063Y-97786516D01*
X164148721Y-97785771D01*
X164151251Y-97785438D01*
X164158878Y-97782279D01*
X164158881Y-97782278D01*
X164256170Y-97741979D01*
X164299276Y-97724124D01*
X164312903Y-97713668D01*
X164347607Y-97687038D01*
X164413827Y-97661437D01*
X164424311Y-97661000D01*
X166376878Y-97661000D01*
X166390409Y-97657027D01*
X166391544Y-97649129D01*
X166350893Y-97509210D01*
X166344648Y-97494779D01*
X166268089Y-97365323D01*
X166262129Y-97357640D01*
X166236180Y-97291556D01*
X166250078Y-97221933D01*
X166260421Y-97205839D01*
X166264453Y-97201807D01*
X166349145Y-97058601D01*
X166353235Y-97044525D01*
X166388856Y-96921913D01*
X166395562Y-96898831D01*
X166396207Y-96890643D01*
X166398307Y-96863958D01*
X166398307Y-96863950D01*
X166398500Y-96861502D01*
X166398500Y-96428498D01*
X166398307Y-96426042D01*
X166396067Y-96397579D01*
X166396066Y-96397574D01*
X166395562Y-96391169D01*
X166349145Y-96231399D01*
X166264453Y-96088193D01*
X166261771Y-96085511D01*
X166236498Y-96021139D01*
X166250400Y-95951516D01*
X166260572Y-95935688D01*
X166264453Y-95931807D01*
X166349145Y-95788601D01*
X166355202Y-95767753D01*
X166393413Y-95707920D01*
X166464779Y-95677426D01*
X166577103Y-95667204D01*
X166577104Y-95667204D01*
X166584124Y-95666565D01*
X166641024Y-95648077D01*
X166733930Y-95617890D01*
X166733933Y-95617889D01*
X166740629Y-95615713D01*
X166881979Y-95531451D01*
X167001149Y-95417968D01*
X167006111Y-95410500D01*
X167088314Y-95286775D01*
X167088315Y-95286773D01*
X167092215Y-95280903D01*
X167150651Y-95127068D01*
X167162627Y-95041853D01*
X167173002Y-94968034D01*
X167173003Y-94968027D01*
X167173553Y-94964110D01*
X167173841Y-94943500D01*
X167155498Y-94779966D01*
X167151489Y-94768452D01*
X167125158Y-94692842D01*
X167101380Y-94624560D01*
X167062796Y-94562812D01*
X167058211Y-94555475D01*
X168737483Y-94555475D01*
X168756472Y-94772519D01*
X168758375Y-94783312D01*
X168814764Y-94993761D01*
X168818510Y-95004053D01*
X168910586Y-95201511D01*
X168916069Y-95211006D01*
X168952509Y-95263048D01*
X168962988Y-95271424D01*
X168976434Y-95264356D01*
X169677978Y-94562812D01*
X169684356Y-94551132D01*
X170414408Y-94551132D01*
X170414539Y-94552965D01*
X170418790Y-94559580D01*
X171124287Y-95265077D01*
X171136062Y-95271507D01*
X171148077Y-95262211D01*
X171183931Y-95211006D01*
X171189414Y-95201511D01*
X171281490Y-95004053D01*
X171285236Y-94993761D01*
X171341625Y-94783312D01*
X171343528Y-94772519D01*
X171362517Y-94555475D01*
X171362517Y-94544525D01*
X171343528Y-94327481D01*
X171341625Y-94316688D01*
X171285236Y-94106239D01*
X171281490Y-94095947D01*
X171189414Y-93898489D01*
X171183931Y-93888994D01*
X171147491Y-93836952D01*
X171137012Y-93828576D01*
X171123566Y-93835644D01*
X170422022Y-94537188D01*
X170414408Y-94551132D01*
X169684356Y-94551132D01*
X169685592Y-94548868D01*
X169685461Y-94547035D01*
X169681210Y-94540420D01*
X168975713Y-93834923D01*
X168963938Y-93828493D01*
X168951923Y-93837789D01*
X168916069Y-93888994D01*
X168910586Y-93898489D01*
X168818510Y-94095947D01*
X168814764Y-94106239D01*
X168758375Y-94316688D01*
X168756472Y-94327481D01*
X168737483Y-94544525D01*
X168737483Y-94555475D01*
X167058211Y-94555475D01*
X167017909Y-94490979D01*
X167014176Y-94485005D01*
X166946337Y-94416691D01*
X166903186Y-94373237D01*
X166903182Y-94373234D01*
X166898222Y-94368239D01*
X166759280Y-94280063D01*
X166698634Y-94258468D01*
X166610889Y-94227223D01*
X166610887Y-94227222D01*
X166604255Y-94224861D01*
X166597269Y-94224028D01*
X166597265Y-94224027D01*
X166509581Y-94213572D01*
X166444308Y-94185645D01*
X166404495Y-94126862D01*
X166398500Y-94088458D01*
X166398500Y-93888498D01*
X166395562Y-93851169D01*
X166349145Y-93691399D01*
X166264453Y-93548193D01*
X166261771Y-93545511D01*
X166236498Y-93481139D01*
X166240122Y-93462988D01*
X169328576Y-93462988D01*
X169335644Y-93476434D01*
X170037188Y-94177978D01*
X170051132Y-94185592D01*
X170052965Y-94185461D01*
X170059580Y-94181210D01*
X170765077Y-93475713D01*
X170771507Y-93463938D01*
X170762211Y-93451923D01*
X170711006Y-93416069D01*
X170701511Y-93410586D01*
X170504053Y-93318510D01*
X170493761Y-93314764D01*
X170283312Y-93258375D01*
X170272519Y-93256472D01*
X170055475Y-93237483D01*
X170044525Y-93237483D01*
X169827481Y-93256472D01*
X169816688Y-93258375D01*
X169606239Y-93314764D01*
X169595947Y-93318510D01*
X169398489Y-93410586D01*
X169388994Y-93416069D01*
X169336952Y-93452509D01*
X169328576Y-93462988D01*
X166240122Y-93462988D01*
X166250400Y-93411516D01*
X166260572Y-93395688D01*
X166264453Y-93391807D01*
X166349145Y-93248601D01*
X166395562Y-93088831D01*
X166398500Y-93051502D01*
X166398500Y-92618498D01*
X166395562Y-92581169D01*
X166349145Y-92421399D01*
X166264453Y-92278193D01*
X166261771Y-92275511D01*
X166236498Y-92211139D01*
X166250400Y-92141516D01*
X166260572Y-92125688D01*
X166264453Y-92121807D01*
X166349145Y-91978601D01*
X166395562Y-91818831D01*
X166396329Y-91809093D01*
X166398307Y-91783958D01*
X166398307Y-91783950D01*
X166398500Y-91781502D01*
X166398500Y-91348498D01*
X166395562Y-91311169D01*
X166349145Y-91151399D01*
X166264453Y-91008193D01*
X166261771Y-91005511D01*
X166236498Y-90941139D01*
X166250400Y-90871516D01*
X166260572Y-90855688D01*
X166264453Y-90851807D01*
X166349145Y-90708601D01*
X166395562Y-90548831D01*
X166398500Y-90511502D01*
X166398500Y-90122875D01*
X166418502Y-90054754D01*
X166472158Y-90008261D01*
X166485556Y-90003045D01*
X166550706Y-89981876D01*
X166596830Y-89966890D01*
X166596833Y-89966889D01*
X166603529Y-89964713D01*
X166744879Y-89880451D01*
X166864049Y-89766968D01*
X166867950Y-89761097D01*
X166951214Y-89635775D01*
X166951215Y-89635773D01*
X166955115Y-89629903D01*
X167013551Y-89476068D01*
X167022191Y-89414593D01*
X167035902Y-89317034D01*
X167035903Y-89317027D01*
X167036453Y-89313110D01*
X167036741Y-89292500D01*
X167018398Y-89128966D01*
X167002761Y-89084061D01*
X166978604Y-89014694D01*
X166964280Y-88973560D01*
X166930225Y-88919060D01*
X166880809Y-88839979D01*
X166877076Y-88834005D01*
X166804811Y-88761234D01*
X166766086Y-88722237D01*
X166766082Y-88722234D01*
X166761122Y-88717239D01*
X166622180Y-88629063D01*
X166553404Y-88604573D01*
X166473789Y-88576223D01*
X166473787Y-88576222D01*
X166467155Y-88573861D01*
X166460169Y-88573028D01*
X166460165Y-88573027D01*
X166378142Y-88563247D01*
X166312869Y-88535320D01*
X166284608Y-88502273D01*
X166268488Y-88475016D01*
X166264453Y-88468193D01*
X166261774Y-88465514D01*
X166236499Y-88401143D01*
X166250398Y-88331520D01*
X166260572Y-88315688D01*
X166264453Y-88311807D01*
X166349145Y-88168601D01*
X166395562Y-88008831D01*
X166398500Y-87971502D01*
X166398500Y-87538498D01*
X166395562Y-87501169D01*
X166349145Y-87341399D01*
X166332107Y-87312589D01*
X166268491Y-87205020D01*
X166268489Y-87205017D01*
X166264453Y-87198193D01*
X166146807Y-87080547D01*
X166139983Y-87076511D01*
X166139980Y-87076509D01*
X166021957Y-87006711D01*
X166003601Y-86995855D01*
X165995990Y-86993644D01*
X165995988Y-86993643D01*
X165935032Y-86975934D01*
X165843831Y-86949438D01*
X165837426Y-86948934D01*
X165837421Y-86948933D01*
X165808958Y-86946693D01*
X165808950Y-86946693D01*
X165806502Y-86946500D01*
X163273498Y-86946500D01*
X163271050Y-86946693D01*
X163271042Y-86946693D01*
X163242579Y-86948933D01*
X163242574Y-86948934D01*
X163236169Y-86949438D01*
X163144968Y-86975934D01*
X163084012Y-86993643D01*
X163084010Y-86993644D01*
X163076399Y-86995855D01*
X163058043Y-87006711D01*
X162940020Y-87076509D01*
X162940017Y-87076511D01*
X162933193Y-87080547D01*
X162904145Y-87109595D01*
X162841833Y-87143621D01*
X162815050Y-87146500D01*
X162689553Y-87146500D01*
X162622038Y-87126885D01*
X162604705Y-87115885D01*
X162566380Y-87091563D01*
X162411355Y-87036361D01*
X162410382Y-87036245D01*
X162352219Y-87003870D01*
X162156215Y-86807866D01*
X162145348Y-86795475D01*
X162130913Y-86776663D01*
X162125887Y-86770113D01*
X162093975Y-86745626D01*
X162093972Y-86745623D01*
X162084194Y-86738120D01*
X162005329Y-86677604D01*
X162005327Y-86677603D01*
X161998776Y-86672576D01*
X161850751Y-86611262D01*
X161842564Y-86610184D01*
X161842563Y-86610184D01*
X161831358Y-86608709D01*
X161793781Y-86603762D01*
X161731785Y-86595600D01*
X161731782Y-86595600D01*
X161731774Y-86595599D01*
X161700089Y-86591428D01*
X161691900Y-86590350D01*
X161660207Y-86594522D01*
X161643764Y-86595600D01*
X140899036Y-86595600D01*
X140882590Y-86594522D01*
X140859088Y-86591428D01*
X140850900Y-86590350D01*
X140842712Y-86591428D01*
X140811029Y-86595599D01*
X140811020Y-86595600D01*
X140811015Y-86595600D01*
X140692050Y-86611262D01*
X140684423Y-86614421D01*
X140684420Y-86614422D01*
X140605338Y-86647179D01*
X140544024Y-86672576D01*
X140537473Y-86677603D01*
X140537471Y-86677604D01*
X140458606Y-86738120D01*
X140448828Y-86745623D01*
X140448825Y-86745626D01*
X140416913Y-86770113D01*
X140411887Y-86776663D01*
X140411886Y-86776664D01*
X140399631Y-86792635D01*
X140342293Y-86834502D01*
X140271422Y-86838723D01*
X140210574Y-86805025D01*
X140205915Y-86800366D01*
X140195048Y-86787975D01*
X140180613Y-86769163D01*
X140175587Y-86762613D01*
X140143675Y-86738126D01*
X140143669Y-86738120D01*
X140055029Y-86670104D01*
X140055027Y-86670103D01*
X140048476Y-86665076D01*
X139900451Y-86603762D01*
X139892264Y-86602684D01*
X139892263Y-86602684D01*
X139881058Y-86601209D01*
X139838468Y-86595602D01*
X139781485Y-86588100D01*
X139781482Y-86588100D01*
X139781474Y-86588099D01*
X139749789Y-86583928D01*
X139741600Y-86582850D01*
X139709907Y-86587022D01*
X139693464Y-86588100D01*
X114256536Y-86588100D01*
X114240093Y-86587022D01*
X114208400Y-86582850D01*
X114200211Y-86583928D01*
X114168526Y-86588099D01*
X114168517Y-86588100D01*
X114168515Y-86588100D01*
X114168509Y-86588101D01*
X114168507Y-86588101D01*
X114068943Y-86601209D01*
X114057736Y-86602684D01*
X114057734Y-86602685D01*
X114049549Y-86603762D01*
X113901524Y-86665076D01*
X113855705Y-86700234D01*
X113806337Y-86738115D01*
X113806321Y-86738129D01*
X113780966Y-86757584D01*
X113780963Y-86757587D01*
X113774413Y-86762613D01*
X113769383Y-86769168D01*
X113754948Y-86787979D01*
X113744081Y-86800370D01*
X113739095Y-86805356D01*
X113676783Y-86839382D01*
X113605968Y-86834317D01*
X113560905Y-86805356D01*
X113555915Y-86800366D01*
X113545048Y-86787975D01*
X113530613Y-86769163D01*
X113525587Y-86762613D01*
X113493675Y-86738126D01*
X113493669Y-86738120D01*
X113405029Y-86670104D01*
X113405027Y-86670103D01*
X113398476Y-86665076D01*
X113250451Y-86603762D01*
X113242264Y-86602684D01*
X113242263Y-86602684D01*
X113231058Y-86601209D01*
X113188468Y-86595602D01*
X113131485Y-86588100D01*
X113131482Y-86588100D01*
X113131474Y-86588099D01*
X113099789Y-86583928D01*
X113091600Y-86582850D01*
X113059907Y-86587022D01*
X113043464Y-86588100D01*
X93556536Y-86588100D01*
X93540093Y-86587022D01*
X93508400Y-86582850D01*
X93500211Y-86583928D01*
X93468526Y-86588099D01*
X93468517Y-86588100D01*
X93468515Y-86588100D01*
X93468509Y-86588101D01*
X93468507Y-86588101D01*
X93368943Y-86601209D01*
X93357736Y-86602684D01*
X93357734Y-86602685D01*
X93349549Y-86603762D01*
X93201524Y-86665076D01*
X93155705Y-86700234D01*
X93106337Y-86738115D01*
X93106321Y-86738129D01*
X93080966Y-86757584D01*
X93080963Y-86757587D01*
X93074413Y-86762613D01*
X93069383Y-86769168D01*
X93054948Y-86787979D01*
X93044081Y-86800370D01*
X92934856Y-86909595D01*
X92872544Y-86943621D01*
X92845761Y-86946500D01*
X91683498Y-86946500D01*
X91681050Y-86946693D01*
X91681042Y-86946693D01*
X91652579Y-86948933D01*
X91652574Y-86948934D01*
X91646169Y-86949438D01*
X91554968Y-86975934D01*
X91494012Y-86993643D01*
X91494010Y-86993644D01*
X91486399Y-86995855D01*
X91468043Y-87006711D01*
X91350020Y-87076509D01*
X91350017Y-87076511D01*
X91343193Y-87080547D01*
X91225547Y-87198193D01*
X91221511Y-87205017D01*
X91221509Y-87205020D01*
X91157893Y-87312589D01*
X91140855Y-87341399D01*
X91094438Y-87501169D01*
X91091500Y-87538498D01*
X91091500Y-87971502D01*
X91094438Y-88008831D01*
X91140855Y-88168601D01*
X91225547Y-88311807D01*
X91228229Y-88314489D01*
X91253502Y-88378861D01*
X91239600Y-88448484D01*
X91229428Y-88464312D01*
X91225547Y-88468193D01*
X91140855Y-88611399D01*
X91138644Y-88619010D01*
X91138643Y-88619012D01*
X91122527Y-88674484D01*
X91090625Y-88728426D01*
X91057817Y-88761234D01*
X91007619Y-88788710D01*
X91008595Y-88791578D01*
X90859482Y-88842340D01*
X90859479Y-88842341D01*
X90852815Y-88844610D01*
X90755958Y-88904197D01*
X90739588Y-88914268D01*
X90712655Y-88930837D01*
X90675130Y-88967584D01*
X90603022Y-89038198D01*
X90595082Y-89045973D01*
X90505938Y-89184297D01*
X90503527Y-89190920D01*
X90503526Y-89190923D01*
X90452066Y-89332309D01*
X90452065Y-89332314D01*
X90449656Y-89338932D01*
X90429031Y-89502194D01*
X90445089Y-89665968D01*
X90497032Y-89822115D01*
X90500681Y-89828140D01*
X90550387Y-89910213D01*
X90582279Y-89962873D01*
X90587170Y-89967938D01*
X90587171Y-89967939D01*
X90677206Y-90061173D01*
X90710138Y-90124070D01*
X90703838Y-90194786D01*
X90660306Y-90250871D01*
X90586569Y-90274700D01*
X89873653Y-90274700D01*
X89806138Y-90255085D01*
X89764586Y-90228715D01*
X89750480Y-90219763D01*
X89680337Y-90194786D01*
X89602089Y-90166923D01*
X89602087Y-90166922D01*
X89595455Y-90164561D01*
X89588469Y-90163728D01*
X89588465Y-90163727D01*
X89462437Y-90148700D01*
X89432053Y-90145077D01*
X89425050Y-90145813D01*
X89425049Y-90145813D01*
X89397582Y-90148700D01*
X89268395Y-90162278D01*
X89261727Y-90164548D01*
X89119282Y-90213040D01*
X89119279Y-90213041D01*
X89112615Y-90215310D01*
X89068493Y-90242454D01*
X89046445Y-90256018D01*
X88980423Y-90274700D01*
X85134500Y-90274700D01*
X85066379Y-90254698D01*
X85019886Y-90201042D01*
X85008500Y-90148700D01*
X85008500Y-90078498D01*
X85008307Y-90076042D01*
X85008209Y-90073553D01*
X85009259Y-90073512D01*
X85023001Y-90008019D01*
X85072831Y-89957447D01*
X85095094Y-89947753D01*
X85203932Y-89912389D01*
X85210629Y-89910213D01*
X85351979Y-89825951D01*
X85471149Y-89712468D01*
X85502044Y-89665968D01*
X85558314Y-89581275D01*
X85558315Y-89581273D01*
X85562215Y-89575403D01*
X85620651Y-89421568D01*
X85632265Y-89338932D01*
X85643002Y-89262534D01*
X85643003Y-89262527D01*
X85643553Y-89258610D01*
X85643841Y-89238000D01*
X85625498Y-89074466D01*
X85614176Y-89041952D01*
X85587255Y-88964647D01*
X85571380Y-88919060D01*
X85528032Y-88849688D01*
X85487909Y-88785479D01*
X85484176Y-88779505D01*
X85416684Y-88711540D01*
X85373186Y-88667737D01*
X85373182Y-88667734D01*
X85368222Y-88662739D01*
X85229280Y-88574563D01*
X85176795Y-88555874D01*
X85080889Y-88521723D01*
X85080887Y-88521722D01*
X85074255Y-88519361D01*
X85067269Y-88518528D01*
X85067265Y-88518527D01*
X84963990Y-88506213D01*
X84898717Y-88478286D01*
X84858904Y-88419503D01*
X84857192Y-88348527D01*
X84875195Y-88312246D01*
X84874453Y-88311807D01*
X84955108Y-88175427D01*
X84959145Y-88168601D01*
X85005562Y-88008831D01*
X85008500Y-87971502D01*
X85008500Y-87538498D01*
X85005562Y-87501169D01*
X84959145Y-87341399D01*
X84942107Y-87312589D01*
X84878491Y-87205020D01*
X84878489Y-87205017D01*
X84874453Y-87198193D01*
X84756807Y-87080547D01*
X84749983Y-87076511D01*
X84749980Y-87076509D01*
X84631957Y-87006711D01*
X84613601Y-86995855D01*
X84605990Y-86993644D01*
X84605988Y-86993643D01*
X84545032Y-86975934D01*
X84453831Y-86949438D01*
X84447426Y-86948934D01*
X84447421Y-86948933D01*
X84418958Y-86946693D01*
X84418950Y-86946693D01*
X84416502Y-86946500D01*
X81883498Y-86946500D01*
X81881050Y-86946693D01*
X81881042Y-86946693D01*
X81852579Y-86948933D01*
X81852574Y-86948934D01*
X81846169Y-86949438D01*
X81761207Y-86974121D01*
X81694015Y-86993642D01*
X81694012Y-86993643D01*
X81686399Y-86995855D01*
X81682441Y-86998196D01*
X81613451Y-87006711D01*
X81549472Y-86975934D01*
X81512290Y-86915452D01*
X81507871Y-86882368D01*
X81507993Y-85083991D01*
X81528000Y-85015872D01*
X81581658Y-84969383D01*
X81633993Y-84958000D01*
X172866000Y-84958000D01*
X172934121Y-84978002D01*
G37*
%TD.AperFunction*%
%TA.AperFunction,Conductor*%
G36*
X112240617Y-131427570D02*
G01*
X112256755Y-131441204D01*
X112615481Y-131799930D01*
X112626349Y-131812321D01*
X112645813Y-131837687D01*
X112652366Y-131842715D01*
X112683338Y-131866481D01*
X112766371Y-131930196D01*
X112766373Y-131930197D01*
X112772924Y-131935224D01*
X112920949Y-131996538D01*
X112929136Y-131997616D01*
X112929137Y-131997616D01*
X112940342Y-131999091D01*
X112971538Y-132003198D01*
X113039915Y-132012200D01*
X113039918Y-132012200D01*
X113039926Y-132012201D01*
X113071611Y-132016372D01*
X113079800Y-132017450D01*
X113111493Y-132013278D01*
X113127936Y-132012200D01*
X113725300Y-132012200D01*
X113793421Y-132032202D01*
X113839914Y-132085858D01*
X113850018Y-132156132D01*
X113847007Y-132170811D01*
X113843606Y-132183503D01*
X113843942Y-132197599D01*
X113851884Y-132201000D01*
X117192967Y-132201000D01*
X117206498Y-132197027D01*
X117207727Y-132188478D01*
X117202993Y-132170811D01*
X117204683Y-132099834D01*
X117244477Y-132041039D01*
X117309742Y-132013091D01*
X117324700Y-132012200D01*
X120578078Y-132012200D01*
X120647071Y-132032768D01*
X120692589Y-132062554D01*
X120846828Y-132119915D01*
X120853809Y-132120846D01*
X120853811Y-132120847D01*
X121002961Y-132140748D01*
X121002965Y-132140748D01*
X121009942Y-132141679D01*
X121016953Y-132141041D01*
X121016957Y-132141041D01*
X121166803Y-132127404D01*
X121166804Y-132127404D01*
X121173824Y-132126765D01*
X121288144Y-132089620D01*
X121359109Y-132087592D01*
X121419907Y-132124254D01*
X121451232Y-132187966D01*
X121451172Y-132226888D01*
X121451457Y-132226913D01*
X121431502Y-132455000D01*
X121451457Y-132683087D01*
X121499046Y-132860689D01*
X121497356Y-132931665D01*
X121457562Y-132990461D01*
X121392298Y-133018409D01*
X121377339Y-133019300D01*
X117292144Y-133019300D01*
X117224023Y-132999298D01*
X117177530Y-132945642D01*
X117167426Y-132875368D01*
X117170437Y-132860689D01*
X117206394Y-132726497D01*
X117206058Y-132712401D01*
X117198116Y-132709000D01*
X113857033Y-132709000D01*
X113843502Y-132712973D01*
X113842273Y-132721522D01*
X113879563Y-132860689D01*
X113877873Y-132931665D01*
X113838079Y-132990461D01*
X113772815Y-133018409D01*
X113757856Y-133019300D01*
X111600611Y-133019300D01*
X111532490Y-132999298D01*
X111485997Y-132945642D01*
X111475893Y-132875368D01*
X111479614Y-132858148D01*
X111503767Y-132775011D01*
X111503768Y-132775007D01*
X111505562Y-132768831D01*
X111507079Y-132749565D01*
X111508307Y-132733958D01*
X111508307Y-132733950D01*
X111508500Y-132731502D01*
X111508500Y-132298498D01*
X111508307Y-132296042D01*
X111506067Y-132267579D01*
X111506066Y-132267574D01*
X111505562Y-132261169D01*
X111466700Y-132127404D01*
X111461357Y-132109012D01*
X111461356Y-132109010D01*
X111459145Y-132101399D01*
X111429251Y-132050852D01*
X111411793Y-131982038D01*
X111434310Y-131914706D01*
X111489655Y-131870237D01*
X111526287Y-131861234D01*
X111534018Y-131860530D01*
X111540903Y-131859904D01*
X111540904Y-131859904D01*
X111547924Y-131859265D01*
X111614334Y-131837687D01*
X111697730Y-131810590D01*
X111697733Y-131810589D01*
X111704429Y-131808413D01*
X111845779Y-131724151D01*
X111964949Y-131610668D01*
X112035150Y-131505008D01*
X112052114Y-131479475D01*
X112052115Y-131479473D01*
X112056015Y-131473603D01*
X112056864Y-131471369D01*
X112104521Y-131421260D01*
X112173495Y-131404434D01*
X112240617Y-131427570D01*
G37*
%TD.AperFunction*%
%TA.AperFunction,Conductor*%
G36*
X158223782Y-124988502D02*
G01*
X158244756Y-125005405D01*
X159411685Y-126172334D01*
X159442148Y-126221657D01*
X159492132Y-126371915D01*
X159495781Y-126377940D01*
X159570720Y-126501677D01*
X159577379Y-126512673D01*
X159582270Y-126517738D01*
X159582271Y-126517739D01*
X159628195Y-126565295D01*
X159691691Y-126631047D01*
X159829389Y-126721154D01*
X159983628Y-126778515D01*
X159990609Y-126779446D01*
X159990611Y-126779447D01*
X160139761Y-126799348D01*
X160139765Y-126799348D01*
X160146742Y-126800279D01*
X160153753Y-126799641D01*
X160153757Y-126799641D01*
X160303603Y-126786004D01*
X160303604Y-126786004D01*
X160310624Y-126785365D01*
X160346937Y-126773566D01*
X160460430Y-126736690D01*
X160460433Y-126736689D01*
X160467129Y-126734513D01*
X160608479Y-126650251D01*
X160727649Y-126536768D01*
X160731567Y-126530871D01*
X160814814Y-126405575D01*
X160814815Y-126405573D01*
X160818715Y-126399703D01*
X160877151Y-126245868D01*
X160887603Y-126171498D01*
X160899502Y-126086834D01*
X160899503Y-126086827D01*
X160900053Y-126082910D01*
X160900205Y-126072022D01*
X160900286Y-126066262D01*
X160900286Y-126066256D01*
X160900341Y-126062300D01*
X160881998Y-125898766D01*
X160875753Y-125880831D01*
X160853062Y-125815672D01*
X160837483Y-125770936D01*
X160833969Y-125700028D01*
X160869350Y-125638475D01*
X160932393Y-125605823D01*
X160956474Y-125603500D01*
X162657142Y-125603500D01*
X162725263Y-125623502D01*
X162771756Y-125677158D01*
X162781860Y-125747432D01*
X162765596Y-125793639D01*
X162735352Y-125844779D01*
X162729107Y-125859210D01*
X162690061Y-125993605D01*
X162690101Y-126007706D01*
X162697370Y-126011000D01*
X164668000Y-126011000D01*
X164736121Y-126031002D01*
X164782614Y-126084658D01*
X164794000Y-126137000D01*
X164794000Y-126393000D01*
X164773998Y-126461121D01*
X164720342Y-126507614D01*
X164668000Y-126519000D01*
X162703122Y-126519000D01*
X162689591Y-126522973D01*
X162688456Y-126530871D01*
X162729107Y-126670790D01*
X162735352Y-126685221D01*
X162811911Y-126814677D01*
X162817871Y-126822360D01*
X162843820Y-126888444D01*
X162829922Y-126958067D01*
X162819579Y-126974161D01*
X162815547Y-126978193D01*
X162730855Y-127121399D01*
X162728644Y-127129010D01*
X162728643Y-127129012D01*
X162717137Y-127168616D01*
X162684438Y-127281169D01*
X162683934Y-127287574D01*
X162683933Y-127287579D01*
X162682525Y-127305475D01*
X162681500Y-127318498D01*
X162681500Y-127751502D01*
X162681693Y-127753950D01*
X162681693Y-127753958D01*
X162683811Y-127780861D01*
X162684438Y-127788831D01*
X162730855Y-127948601D01*
X162765016Y-128006363D01*
X162782474Y-128075177D01*
X162759957Y-128142509D01*
X162704613Y-128186978D01*
X162656561Y-128196500D01*
X160763944Y-128196500D01*
X160747498Y-128195422D01*
X160723988Y-128192327D01*
X160715800Y-128191249D01*
X160556949Y-128212162D01*
X160408924Y-128273476D01*
X160377006Y-128297968D01*
X160313737Y-128346515D01*
X160313721Y-128346529D01*
X160288366Y-128365984D01*
X160288363Y-128365987D01*
X160281813Y-128371013D01*
X160276783Y-128377568D01*
X160262348Y-128396379D01*
X160251481Y-128408770D01*
X159618795Y-129041456D01*
X159556483Y-129075482D01*
X159485668Y-129070417D01*
X159440605Y-129041456D01*
X158240015Y-127840866D01*
X158229148Y-127828475D01*
X158214713Y-127809663D01*
X158209687Y-127803113D01*
X158177775Y-127778626D01*
X158177772Y-127778623D01*
X158145628Y-127753958D01*
X158089129Y-127710604D01*
X158089127Y-127710603D01*
X158082576Y-127705576D01*
X157934551Y-127644262D01*
X157926364Y-127643184D01*
X157926363Y-127643184D01*
X157915158Y-127641709D01*
X157871892Y-127636013D01*
X157815585Y-127628600D01*
X157815582Y-127628600D01*
X157815574Y-127628599D01*
X157783889Y-127624428D01*
X157775700Y-127623350D01*
X157744007Y-127627522D01*
X157727564Y-127628600D01*
X154612000Y-127628600D01*
X154543879Y-127608598D01*
X154497386Y-127554942D01*
X154486000Y-127502600D01*
X154486000Y-127407000D01*
X154506002Y-127338879D01*
X154559658Y-127292386D01*
X154612000Y-127281000D01*
X156576878Y-127281000D01*
X156590409Y-127277027D01*
X156591544Y-127269129D01*
X156550893Y-127129210D01*
X156544648Y-127114779D01*
X156464055Y-126978502D01*
X156465856Y-126977437D01*
X156443890Y-126921495D01*
X156457788Y-126851872D01*
X156495116Y-126809793D01*
X156495021Y-126809685D01*
X156495899Y-126808911D01*
X156498028Y-126806511D01*
X156500719Y-126804662D01*
X156500726Y-126804656D01*
X156506981Y-126800357D01*
X156519718Y-126786062D01*
X156548435Y-126753830D01*
X156553416Y-126748554D01*
X156653493Y-126648477D01*
X156703651Y-126617739D01*
X156779411Y-126593123D01*
X156786108Y-126590947D01*
X156906800Y-126519000D01*
X156935860Y-126501677D01*
X156935862Y-126501676D01*
X156941912Y-126498069D01*
X157073266Y-126372982D01*
X157173643Y-126221902D01*
X157226442Y-126082910D01*
X157235555Y-126058920D01*
X157235556Y-126058918D01*
X157238055Y-126052338D01*
X157241054Y-126030999D01*
X157262748Y-125876639D01*
X157262748Y-125876636D01*
X157263299Y-125872717D01*
X157263452Y-125861738D01*
X157263561Y-125853962D01*
X157263561Y-125853957D01*
X157263616Y-125850000D01*
X157243397Y-125669745D01*
X157241080Y-125663091D01*
X157186064Y-125505106D01*
X157186062Y-125505103D01*
X157183745Y-125498448D01*
X157175476Y-125485215D01*
X157091359Y-125350598D01*
X157087626Y-125344624D01*
X157077197Y-125334122D01*
X156964778Y-125220915D01*
X156964774Y-125220912D01*
X156959815Y-125215918D01*
X156936125Y-125200884D01*
X156889328Y-125147496D01*
X156878823Y-125077280D01*
X156907947Y-125012532D01*
X156967453Y-124973808D01*
X157003641Y-124968500D01*
X158155661Y-124968500D01*
X158223782Y-124988502D01*
G37*
%TD.AperFunction*%
%TA.AperFunction,Conductor*%
G36*
X85622145Y-127080536D02*
G01*
X85664336Y-127108385D01*
X85752185Y-127196234D01*
X85763052Y-127208625D01*
X85782513Y-127233987D01*
X85814425Y-127258474D01*
X85814428Y-127258477D01*
X85868542Y-127300000D01*
X85877844Y-127307138D01*
X85919711Y-127364476D01*
X85923933Y-127435347D01*
X85889169Y-127497250D01*
X85826456Y-127530531D01*
X85801140Y-127533100D01*
X85283157Y-127533100D01*
X85215036Y-127513098D01*
X85168543Y-127459442D01*
X85158439Y-127389168D01*
X85187933Y-127324588D01*
X85230587Y-127292741D01*
X85236108Y-127290947D01*
X85242159Y-127287340D01*
X85242161Y-127287339D01*
X85385860Y-127201677D01*
X85385862Y-127201676D01*
X85391912Y-127198069D01*
X85432196Y-127159707D01*
X85488349Y-127106234D01*
X85551474Y-127073742D01*
X85622145Y-127080536D01*
G37*
%TD.AperFunction*%
%TA.AperFunction,Conductor*%
G36*
X91033621Y-124972602D02*
G01*
X91080114Y-125026258D01*
X91091500Y-125078600D01*
X91091500Y-125111502D01*
X91091693Y-125113950D01*
X91091693Y-125113958D01*
X91093386Y-125135461D01*
X91094438Y-125148831D01*
X91114017Y-125216222D01*
X91135454Y-125290009D01*
X91140855Y-125308601D01*
X91225547Y-125451807D01*
X91228487Y-125454747D01*
X91253820Y-125519266D01*
X91239921Y-125588889D01*
X91227874Y-125607636D01*
X91221910Y-125615324D01*
X91145352Y-125744779D01*
X91139107Y-125759210D01*
X91096731Y-125905065D01*
X91094430Y-125917667D01*
X91092193Y-125946085D01*
X91092000Y-125951014D01*
X91092000Y-126065500D01*
X91071998Y-126133621D01*
X91018342Y-126180114D01*
X90966000Y-126191500D01*
X86520739Y-126191500D01*
X86452618Y-126171498D01*
X86431644Y-126154595D01*
X85444744Y-125167695D01*
X85410718Y-125105383D01*
X85415783Y-125034568D01*
X85458330Y-124977732D01*
X85524850Y-124952921D01*
X85533839Y-124952600D01*
X90965500Y-124952600D01*
X91033621Y-124972602D01*
G37*
%TD.AperFunction*%
%TA.AperFunction,Conductor*%
G36*
X146318866Y-124305202D02*
G01*
X146365359Y-124358858D01*
X146372274Y-124400998D01*
X146385644Y-124426434D01*
X147087188Y-125127978D01*
X147101132Y-125135592D01*
X147102965Y-125135461D01*
X147109580Y-125131210D01*
X147815077Y-124425713D01*
X147826737Y-124404359D01*
X147838386Y-124350814D01*
X147888588Y-124300612D01*
X147948973Y-124285200D01*
X150608357Y-124285200D01*
X150676478Y-124305202D01*
X150722971Y-124358858D01*
X150733075Y-124429132D01*
X150730064Y-124443811D01*
X150723889Y-124466858D01*
X150706457Y-124531913D01*
X150686502Y-124760000D01*
X150706457Y-124988087D01*
X150707880Y-124993399D01*
X150707881Y-124993402D01*
X150756966Y-125176589D01*
X150755276Y-125247565D01*
X150715482Y-125306361D01*
X150650218Y-125334309D01*
X150635259Y-125335200D01*
X150229736Y-125335200D01*
X150213293Y-125334122D01*
X150181600Y-125329950D01*
X150173411Y-125331028D01*
X150141726Y-125335199D01*
X150141717Y-125335200D01*
X150141715Y-125335200D01*
X150141709Y-125335201D01*
X150141707Y-125335201D01*
X150052374Y-125346962D01*
X150030937Y-125349784D01*
X150030936Y-125349784D01*
X150022749Y-125350862D01*
X149874724Y-125412176D01*
X149831978Y-125444976D01*
X149779537Y-125485215D01*
X149779521Y-125485229D01*
X149754166Y-125504684D01*
X149754163Y-125504687D01*
X149747613Y-125509713D01*
X149742583Y-125516268D01*
X149728148Y-125535079D01*
X149717281Y-125547470D01*
X149335456Y-125929295D01*
X149273144Y-125963321D01*
X149246361Y-125966200D01*
X148493430Y-125966200D01*
X148425309Y-125946198D01*
X148378816Y-125892542D01*
X148368712Y-125822268D01*
X148371723Y-125807589D01*
X148391625Y-125733312D01*
X148393528Y-125722519D01*
X148412517Y-125505475D01*
X148412517Y-125494525D01*
X148393528Y-125277481D01*
X148391625Y-125266688D01*
X148335236Y-125056239D01*
X148331490Y-125045947D01*
X148239414Y-124848489D01*
X148233931Y-124838994D01*
X148197491Y-124786952D01*
X148187012Y-124778576D01*
X148173566Y-124785644D01*
X147189095Y-125770115D01*
X147126783Y-125804141D01*
X147055968Y-125799076D01*
X147010905Y-125770115D01*
X146025713Y-124784923D01*
X146013938Y-124778493D01*
X146001923Y-124787789D01*
X145966069Y-124838994D01*
X145960586Y-124848489D01*
X145868510Y-125045947D01*
X145864761Y-125056247D01*
X145844893Y-125130395D01*
X145807942Y-125191017D01*
X145744081Y-125222039D01*
X145706741Y-125222705D01*
X145665693Y-125217301D01*
X145665691Y-125217301D01*
X145665685Y-125217300D01*
X145665683Y-125217300D01*
X145665674Y-125217299D01*
X145633989Y-125213128D01*
X145625800Y-125212050D01*
X145594107Y-125216222D01*
X145577664Y-125217300D01*
X144436332Y-125217300D01*
X144368211Y-125197298D01*
X144321718Y-125143642D01*
X144311614Y-125073368D01*
X144314625Y-125058688D01*
X144333543Y-124988087D01*
X144353498Y-124760000D01*
X144333543Y-124531913D01*
X144316112Y-124466858D01*
X144309936Y-124443811D01*
X144311626Y-124372835D01*
X144351420Y-124314039D01*
X144416684Y-124286091D01*
X144431643Y-124285200D01*
X146250745Y-124285200D01*
X146318866Y-124305202D01*
G37*
%TD.AperFunction*%
%TA.AperFunction,Conductor*%
G36*
X91079116Y-108895575D02*
G01*
X91115345Y-108956633D01*
X91114257Y-109022948D01*
X91096233Y-109084989D01*
X91096232Y-109084993D01*
X91094438Y-109091169D01*
X91093934Y-109097574D01*
X91093933Y-109097579D01*
X91092562Y-109115005D01*
X91091500Y-109128498D01*
X91091500Y-109561502D01*
X91091693Y-109563950D01*
X91091693Y-109563958D01*
X91092547Y-109574802D01*
X91094438Y-109598831D01*
X91096233Y-109605008D01*
X91135605Y-109740529D01*
X91140855Y-109758601D01*
X91144890Y-109765423D01*
X91144892Y-109765427D01*
X91221509Y-109894980D01*
X91221511Y-109894983D01*
X91225547Y-109901807D01*
X91343193Y-110019453D01*
X91350017Y-110023489D01*
X91350020Y-110023491D01*
X91445378Y-110079885D01*
X91486399Y-110104145D01*
X91494010Y-110106356D01*
X91494012Y-110106357D01*
X91529569Y-110116687D01*
X91646169Y-110150562D01*
X91652574Y-110151066D01*
X91652579Y-110151067D01*
X91681042Y-110153307D01*
X91681050Y-110153307D01*
X91683498Y-110153500D01*
X92845761Y-110153500D01*
X92913882Y-110173502D01*
X92934856Y-110190405D01*
X94340785Y-111596334D01*
X94351652Y-111608725D01*
X94371113Y-111634087D01*
X94377663Y-111639113D01*
X94403021Y-111658571D01*
X94403037Y-111658585D01*
X94452405Y-111696466D01*
X94498224Y-111731624D01*
X94646249Y-111792938D01*
X94805100Y-111813851D01*
X94836799Y-111809678D01*
X94853244Y-111808600D01*
X111746764Y-111808600D01*
X111763207Y-111809678D01*
X111794900Y-111813850D01*
X111803089Y-111812772D01*
X111834774Y-111808601D01*
X111834784Y-111808600D01*
X111834785Y-111808600D01*
X111934357Y-111795491D01*
X111945564Y-111794016D01*
X111945566Y-111794015D01*
X111953751Y-111792938D01*
X112101776Y-111731624D01*
X112108330Y-111726595D01*
X112196969Y-111658580D01*
X112196975Y-111658574D01*
X112199420Y-111656698D01*
X112228887Y-111634087D01*
X112233917Y-111627532D01*
X112248352Y-111608721D01*
X112259219Y-111596330D01*
X112419487Y-111436062D01*
X119928493Y-111436062D01*
X119937789Y-111448077D01*
X119988994Y-111483931D01*
X119998489Y-111489414D01*
X120195947Y-111581490D01*
X120206239Y-111585236D01*
X120416688Y-111641625D01*
X120427481Y-111643528D01*
X120644525Y-111662517D01*
X120655475Y-111662517D01*
X120872519Y-111643528D01*
X120883312Y-111641625D01*
X121093761Y-111585236D01*
X121104053Y-111581490D01*
X121301511Y-111489414D01*
X121311006Y-111483931D01*
X121363048Y-111447491D01*
X121371424Y-111437012D01*
X121364356Y-111423566D01*
X120662812Y-110722022D01*
X120648868Y-110714408D01*
X120647035Y-110714539D01*
X120640420Y-110718790D01*
X119934923Y-111424287D01*
X119928493Y-111436062D01*
X112419487Y-111436062D01*
X113665144Y-110190405D01*
X113727456Y-110156379D01*
X113754239Y-110153500D01*
X114916502Y-110153500D01*
X114918950Y-110153307D01*
X114918958Y-110153307D01*
X114947421Y-110151067D01*
X114947426Y-110151066D01*
X114953831Y-110150562D01*
X115070431Y-110116687D01*
X115105988Y-110106357D01*
X115105990Y-110106356D01*
X115113601Y-110104145D01*
X115154622Y-110079885D01*
X115249980Y-110023491D01*
X115249983Y-110023489D01*
X115256807Y-110019453D01*
X115336955Y-109939305D01*
X115399267Y-109905279D01*
X115426050Y-109902400D01*
X119251586Y-109902400D01*
X119319707Y-109922402D01*
X119366200Y-109976058D01*
X119376304Y-110046332D01*
X119373293Y-110061011D01*
X119358375Y-110116687D01*
X119356472Y-110127481D01*
X119337483Y-110344525D01*
X119337483Y-110355475D01*
X119356472Y-110572519D01*
X119358375Y-110583312D01*
X119414764Y-110793761D01*
X119418510Y-110804053D01*
X119510586Y-111001511D01*
X119516069Y-111011006D01*
X119552509Y-111063048D01*
X119562988Y-111071424D01*
X119576434Y-111064356D01*
X120560905Y-110079885D01*
X120623217Y-110045859D01*
X120694032Y-110050924D01*
X120739095Y-110079885D01*
X121724287Y-111065077D01*
X121736062Y-111071507D01*
X121748077Y-111062211D01*
X121783934Y-111011002D01*
X121790591Y-110999472D01*
X121841973Y-110950479D01*
X121911687Y-110937042D01*
X121977598Y-110963429D01*
X122008829Y-110999472D01*
X122010153Y-111001765D01*
X122012477Y-111006749D01*
X122034770Y-111038587D01*
X122124354Y-111166525D01*
X122143802Y-111194300D01*
X122305700Y-111356198D01*
X122310208Y-111359355D01*
X122310211Y-111359357D01*
X122377364Y-111406378D01*
X122493251Y-111487523D01*
X122498236Y-111489847D01*
X122498242Y-111489851D01*
X122581596Y-111528719D01*
X122634882Y-111575636D01*
X122654343Y-111643913D01*
X122633801Y-111711873D01*
X122617442Y-111732010D01*
X122070755Y-112278696D01*
X122008443Y-112312721D01*
X121981660Y-112315600D01*
X112779044Y-112315600D01*
X112762598Y-112314522D01*
X112739088Y-112311427D01*
X112730900Y-112310349D01*
X112572049Y-112331262D01*
X112424024Y-112392576D01*
X112389047Y-112419415D01*
X112328837Y-112465615D01*
X112328821Y-112465629D01*
X112303466Y-112485084D01*
X112303463Y-112485087D01*
X112296913Y-112490113D01*
X112291883Y-112496668D01*
X112277448Y-112515479D01*
X112266581Y-112527870D01*
X109739095Y-115055356D01*
X109676783Y-115089382D01*
X109605968Y-115084317D01*
X109560905Y-115055356D01*
X109518515Y-115012966D01*
X109507648Y-115000575D01*
X109493213Y-114981763D01*
X109488187Y-114975213D01*
X109456275Y-114950726D01*
X109456272Y-114950723D01*
X109394192Y-114903087D01*
X109367629Y-114882704D01*
X109367627Y-114882703D01*
X109361076Y-114877676D01*
X109213051Y-114816362D01*
X109204864Y-114815284D01*
X109204863Y-114815284D01*
X109193658Y-114813809D01*
X109162462Y-114809702D01*
X109094085Y-114800700D01*
X109094082Y-114800700D01*
X109094074Y-114800699D01*
X109062389Y-114796528D01*
X109054200Y-114795450D01*
X109022507Y-114799622D01*
X109006064Y-114800700D01*
X93593936Y-114800700D01*
X93577490Y-114799622D01*
X93553988Y-114796528D01*
X93545800Y-114795450D01*
X93537612Y-114796528D01*
X93505929Y-114800699D01*
X93505920Y-114800700D01*
X93505915Y-114800700D01*
X93386950Y-114816362D01*
X93238925Y-114877676D01*
X93238923Y-114877677D01*
X93238924Y-114877677D01*
X93143728Y-114950723D01*
X93143725Y-114950726D01*
X93111813Y-114975213D01*
X93106783Y-114981768D01*
X93092348Y-115000579D01*
X93081481Y-115012970D01*
X92934856Y-115159595D01*
X92872544Y-115193621D01*
X92845761Y-115196500D01*
X91683498Y-115196500D01*
X91681050Y-115196693D01*
X91681042Y-115196693D01*
X91652579Y-115198933D01*
X91652574Y-115198934D01*
X91646169Y-115199438D01*
X91567955Y-115222161D01*
X91494012Y-115243643D01*
X91494010Y-115243644D01*
X91486399Y-115245855D01*
X91479572Y-115249892D01*
X91479573Y-115249892D01*
X91350020Y-115326509D01*
X91350017Y-115326511D01*
X91343193Y-115330547D01*
X91225547Y-115448193D01*
X91221511Y-115455017D01*
X91221509Y-115455020D01*
X91157893Y-115562589D01*
X91140855Y-115591399D01*
X91138644Y-115599010D01*
X91138643Y-115599012D01*
X91136489Y-115606426D01*
X91094438Y-115751169D01*
X91093934Y-115757574D01*
X91093933Y-115757579D01*
X91091693Y-115786042D01*
X91091500Y-115788498D01*
X91091500Y-115984900D01*
X91071498Y-116053021D01*
X91017842Y-116099514D01*
X90965500Y-116110900D01*
X85497500Y-116110900D01*
X85429379Y-116090898D01*
X85382886Y-116037242D01*
X85371500Y-115984900D01*
X85371500Y-115655944D01*
X85372578Y-115639498D01*
X85375673Y-115615988D01*
X85376751Y-115607800D01*
X85355838Y-115448949D01*
X85294524Y-115300924D01*
X85221478Y-115205729D01*
X85221474Y-115205725D01*
X85216650Y-115199438D01*
X85202016Y-115180366D01*
X85202013Y-115180363D01*
X85196987Y-115173813D01*
X85190432Y-115168783D01*
X85171621Y-115154348D01*
X85159230Y-115143481D01*
X84233715Y-114217966D01*
X84222848Y-114205575D01*
X84208413Y-114186763D01*
X84203387Y-114180213D01*
X84171475Y-114155726D01*
X84171472Y-114155723D01*
X84096240Y-114097995D01*
X84082829Y-114087704D01*
X84082827Y-114087703D01*
X84076276Y-114082676D01*
X83928251Y-114021362D01*
X83920064Y-114020284D01*
X83920063Y-114020284D01*
X83908858Y-114018809D01*
X83877662Y-114014702D01*
X83809285Y-114005700D01*
X83809282Y-114005700D01*
X83809274Y-114005699D01*
X83777589Y-114001528D01*
X83769400Y-114000450D01*
X83737707Y-114004622D01*
X83721264Y-114005700D01*
X82750453Y-114005700D01*
X82682938Y-113986085D01*
X82636411Y-113956558D01*
X82627280Y-113950763D01*
X82548858Y-113922838D01*
X82478889Y-113897923D01*
X82478887Y-113897922D01*
X82472255Y-113895561D01*
X82465269Y-113894728D01*
X82465265Y-113894727D01*
X82350771Y-113881075D01*
X82308853Y-113876077D01*
X82301850Y-113876813D01*
X82301849Y-113876813D01*
X82286113Y-113878467D01*
X82145195Y-113893278D01*
X82138527Y-113895548D01*
X81996082Y-113944040D01*
X81996079Y-113944041D01*
X81989415Y-113946310D01*
X81915960Y-113991500D01*
X81871570Y-114018809D01*
X81849255Y-114032537D01*
X81731682Y-114147673D01*
X81728992Y-114151847D01*
X81671117Y-114191531D01*
X81600152Y-114193651D01*
X81539306Y-114157067D01*
X81507898Y-114093396D01*
X81506025Y-114071740D01*
X81506029Y-114021362D01*
X81506287Y-110216928D01*
X81526294Y-110148809D01*
X81579952Y-110102320D01*
X81650227Y-110092221D01*
X81680911Y-110100899D01*
X81686399Y-110104145D01*
X81694015Y-110106358D01*
X81694016Y-110106358D01*
X81698315Y-110107607D01*
X81846169Y-110150562D01*
X81852574Y-110151066D01*
X81852579Y-110151067D01*
X81881042Y-110153307D01*
X81881050Y-110153307D01*
X81883498Y-110153500D01*
X84416502Y-110153500D01*
X84418950Y-110153307D01*
X84418958Y-110153307D01*
X84447421Y-110151067D01*
X84447426Y-110151066D01*
X84453831Y-110150562D01*
X84570431Y-110116687D01*
X84605988Y-110106357D01*
X84605990Y-110106356D01*
X84613601Y-110104145D01*
X84654622Y-110079885D01*
X84749980Y-110023491D01*
X84749983Y-110023489D01*
X84756807Y-110019453D01*
X84874453Y-109901807D01*
X84878489Y-109894983D01*
X84878491Y-109894980D01*
X84955108Y-109765427D01*
X84955110Y-109765423D01*
X84959145Y-109758601D01*
X84964396Y-109740529D01*
X85003767Y-109605008D01*
X85005562Y-109598831D01*
X85007454Y-109574802D01*
X85008307Y-109563958D01*
X85008307Y-109563950D01*
X85008500Y-109561502D01*
X85008500Y-109128498D01*
X85008307Y-109126042D01*
X85008298Y-109125805D01*
X85025616Y-109056953D01*
X85077410Y-109008394D01*
X85095264Y-109001037D01*
X85215132Y-108962089D01*
X85221829Y-108959913D01*
X85298897Y-108913971D01*
X85363415Y-108896200D01*
X90715964Y-108896200D01*
X90732407Y-108897278D01*
X90764100Y-108901450D01*
X90772289Y-108900372D01*
X90803974Y-108896201D01*
X90803984Y-108896200D01*
X90803985Y-108896200D01*
X90808733Y-108895575D01*
X90903557Y-108883091D01*
X90914764Y-108881616D01*
X90914766Y-108881615D01*
X90922951Y-108880538D01*
X90945042Y-108871388D01*
X91015629Y-108863797D01*
X91079116Y-108895575D01*
G37*
%TD.AperFunction*%
%TA.AperFunction,Conductor*%
G36*
X87953080Y-97992502D02*
G01*
X87999573Y-98046158D01*
X88009677Y-98116432D01*
X87984926Y-98175198D01*
X87981953Y-98179073D01*
X87971081Y-98191470D01*
X86352956Y-99809595D01*
X86290644Y-99843621D01*
X86263861Y-99846500D01*
X85032858Y-99846500D01*
X84964737Y-99826498D01*
X84918244Y-99772842D01*
X84908140Y-99702568D01*
X84924404Y-99656361D01*
X84954648Y-99605221D01*
X84960893Y-99590790D01*
X85003269Y-99444935D01*
X85005570Y-99432333D01*
X85007807Y-99403916D01*
X85008000Y-99398986D01*
X85008000Y-99384022D01*
X85028002Y-99315901D01*
X85081658Y-99269408D01*
X85150663Y-99259129D01*
X85168186Y-99261467D01*
X85182961Y-99263438D01*
X85189972Y-99262800D01*
X85189976Y-99262800D01*
X85332459Y-99249832D01*
X85363600Y-99246998D01*
X85370302Y-99244820D01*
X85370304Y-99244820D01*
X85529409Y-99193124D01*
X85529412Y-99193123D01*
X85536108Y-99190947D01*
X85652663Y-99121466D01*
X85685860Y-99101677D01*
X85685862Y-99101676D01*
X85691912Y-99098069D01*
X85823266Y-98972982D01*
X85923643Y-98821902D01*
X85968529Y-98703739D01*
X85985555Y-98658920D01*
X85985556Y-98658918D01*
X85988055Y-98652338D01*
X85991214Y-98629859D01*
X86012748Y-98476639D01*
X86012748Y-98476636D01*
X86013299Y-98472717D01*
X86013502Y-98458160D01*
X86013561Y-98453962D01*
X86013561Y-98453957D01*
X86013616Y-98450000D01*
X85993397Y-98269745D01*
X85979894Y-98230968D01*
X85948193Y-98139937D01*
X85944679Y-98069028D01*
X85980061Y-98007475D01*
X86043103Y-97974823D01*
X86067184Y-97972500D01*
X87884959Y-97972500D01*
X87953080Y-97992502D01*
G37*
%TD.AperFunction*%
%TA.AperFunction,Conductor*%
G36*
X128583621Y-97965702D02*
G01*
X128630114Y-98019358D01*
X128641500Y-98071700D01*
X128641500Y-98131502D01*
X128644438Y-98168831D01*
X128659593Y-98220995D01*
X128688586Y-98320790D01*
X128690855Y-98328601D01*
X128775547Y-98471807D01*
X128778487Y-98474747D01*
X128803820Y-98539266D01*
X128789921Y-98608889D01*
X128777874Y-98627636D01*
X128771910Y-98635324D01*
X128695352Y-98764779D01*
X128689107Y-98779210D01*
X128646731Y-98925065D01*
X128644430Y-98937667D01*
X128642193Y-98966085D01*
X128642000Y-98971014D01*
X128642000Y-99082600D01*
X128621998Y-99150721D01*
X128568342Y-99197214D01*
X128516000Y-99208600D01*
X126959839Y-99208600D01*
X126891718Y-99188598D01*
X126845225Y-99134942D01*
X126835121Y-99064668D01*
X126864615Y-99000088D01*
X126870744Y-98993505D01*
X127881644Y-97982605D01*
X127943956Y-97948579D01*
X127970739Y-97945700D01*
X128515500Y-97945700D01*
X128583621Y-97965702D01*
G37*
%TD.AperFunction*%
%TA.AperFunction,Conductor*%
G36*
X105852922Y-98612771D02*
G01*
X106102485Y-98862334D01*
X106113352Y-98874725D01*
X106132813Y-98900087D01*
X106164725Y-98924574D01*
X106164728Y-98924577D01*
X106164736Y-98924583D01*
X106221967Y-98968498D01*
X106221968Y-98968499D01*
X106240394Y-98982638D01*
X106282261Y-99039976D01*
X106286482Y-99110847D01*
X106251717Y-99172750D01*
X106189004Y-99206031D01*
X106163689Y-99208600D01*
X105833999Y-99208600D01*
X105765878Y-99188598D01*
X105719385Y-99134942D01*
X105707999Y-99082600D01*
X105707999Y-98971017D01*
X105707805Y-98966080D01*
X105705570Y-98937664D01*
X105703270Y-98925069D01*
X105660893Y-98779210D01*
X105651499Y-98757502D01*
X105653047Y-98756832D01*
X105637914Y-98697191D01*
X105660430Y-98629859D01*
X105715773Y-98585389D01*
X105786374Y-98577900D01*
X105852922Y-98612771D01*
G37*
%TD.AperFunction*%
%TA.AperFunction,Conductor*%
G36*
X148505657Y-97651358D02*
G01*
X148552262Y-97681887D01*
X148576271Y-97706749D01*
X148600991Y-97732347D01*
X148738689Y-97822454D01*
X148892928Y-97879815D01*
X148899909Y-97880746D01*
X148899911Y-97880747D01*
X149049061Y-97900648D01*
X149049065Y-97900648D01*
X149056042Y-97901579D01*
X149063053Y-97900941D01*
X149063057Y-97900941D01*
X149212903Y-97887304D01*
X149212904Y-97887304D01*
X149219924Y-97886665D01*
X149298275Y-97861207D01*
X149369730Y-97837990D01*
X149369733Y-97837989D01*
X149376429Y-97835813D01*
X149453497Y-97789871D01*
X149518015Y-97772100D01*
X151965689Y-97772100D01*
X152033810Y-97792102D01*
X152080303Y-97845758D01*
X152091087Y-97885802D01*
X152095415Y-97929941D01*
X152103421Y-98011590D01*
X152104163Y-98019160D01*
X152161418Y-98191273D01*
X152165065Y-98197295D01*
X152165066Y-98197297D01*
X152246989Y-98332568D01*
X152255380Y-98346424D01*
X152260269Y-98351487D01*
X152260270Y-98351488D01*
X152309863Y-98402842D01*
X152381382Y-98476902D01*
X152422074Y-98503530D01*
X152482672Y-98543184D01*
X152533159Y-98576222D01*
X152539763Y-98578678D01*
X152539765Y-98578679D01*
X152696558Y-98636990D01*
X152696560Y-98636990D01*
X152703168Y-98639448D01*
X152761653Y-98647252D01*
X152814563Y-98654312D01*
X152879440Y-98683148D01*
X152918428Y-98742482D01*
X152918895Y-98814358D01*
X152886732Y-98925062D01*
X152884430Y-98937667D01*
X152882193Y-98966084D01*
X152882000Y-98971014D01*
X152882000Y-99021200D01*
X152861998Y-99089321D01*
X152808342Y-99135814D01*
X152756000Y-99147200D01*
X151729306Y-99147200D01*
X151661185Y-99127198D01*
X151614692Y-99073542D01*
X151610315Y-99062637D01*
X151595885Y-99021200D01*
X151575107Y-98961533D01*
X151556134Y-98931169D01*
X151491636Y-98827952D01*
X151487903Y-98821978D01*
X151388406Y-98721784D01*
X151376913Y-98710210D01*
X151376909Y-98710207D01*
X151371949Y-98705212D01*
X151233007Y-98617036D01*
X151144132Y-98585389D01*
X151084616Y-98564196D01*
X151084614Y-98564195D01*
X151077982Y-98561834D01*
X151070996Y-98561001D01*
X151070992Y-98561000D01*
X150956498Y-98547348D01*
X150914580Y-98542350D01*
X150907577Y-98543086D01*
X150907576Y-98543086D01*
X150864362Y-98547628D01*
X150750922Y-98559551D01*
X150744254Y-98561821D01*
X150601809Y-98610313D01*
X150601806Y-98610314D01*
X150595142Y-98612583D01*
X150519822Y-98658920D01*
X150461130Y-98695028D01*
X150454982Y-98698810D01*
X150410386Y-98742482D01*
X150380857Y-98771399D01*
X150337409Y-98813946D01*
X150248265Y-98952270D01*
X150245854Y-98958893D01*
X150245853Y-98958896D01*
X150207492Y-99064294D01*
X150165398Y-99121466D01*
X150099077Y-99146804D01*
X150089091Y-99147200D01*
X147209296Y-99147200D01*
X147141175Y-99127198D01*
X147094682Y-99073542D01*
X147084578Y-99003268D01*
X147114072Y-98938688D01*
X147132585Y-98921243D01*
X147160287Y-98899987D01*
X147165317Y-98893432D01*
X147179752Y-98874621D01*
X147190619Y-98862230D01*
X148372530Y-97680319D01*
X148434842Y-97646293D01*
X148505657Y-97651358D01*
G37*
%TD.AperFunction*%
%TA.AperFunction,Conductor*%
G36*
X121064282Y-94978202D02*
G01*
X121085256Y-94995105D01*
X121861385Y-95771234D01*
X121872252Y-95783625D01*
X121891713Y-95808987D01*
X121923625Y-95833474D01*
X121923628Y-95833477D01*
X122018824Y-95906524D01*
X122166849Y-95967838D01*
X122175036Y-95968916D01*
X122175037Y-95968916D01*
X122186242Y-95970391D01*
X122217438Y-95974498D01*
X122285815Y-95983500D01*
X122285818Y-95983500D01*
X122285826Y-95983501D01*
X122317511Y-95987672D01*
X122325700Y-95988750D01*
X122357393Y-95984578D01*
X122373836Y-95983500D01*
X126210930Y-95983500D01*
X126279051Y-96003502D01*
X126325544Y-96057158D01*
X126335648Y-96127432D01*
X126306154Y-96192012D01*
X126297769Y-96199914D01*
X126298003Y-96200148D01*
X126292167Y-96205984D01*
X126285613Y-96211013D01*
X126280583Y-96217568D01*
X126266148Y-96236379D01*
X126255281Y-96248770D01*
X124166056Y-98337995D01*
X124103744Y-98372021D01*
X124076961Y-98374900D01*
X120741616Y-98374900D01*
X120673495Y-98354898D01*
X120627002Y-98301242D01*
X120616898Y-98230968D01*
X120619909Y-98216288D01*
X120626612Y-98191273D01*
X120643543Y-98128087D01*
X120663498Y-97900000D01*
X120643543Y-97671913D01*
X120631398Y-97626587D01*
X120585707Y-97456067D01*
X120585706Y-97456065D01*
X120584284Y-97450757D01*
X120562549Y-97404145D01*
X120489849Y-97248238D01*
X120489846Y-97248233D01*
X120487523Y-97243251D01*
X120356198Y-97055700D01*
X120194300Y-96893802D01*
X120189792Y-96890645D01*
X120189789Y-96890643D01*
X120011253Y-96765631D01*
X120006749Y-96762477D01*
X120001765Y-96760153D01*
X119999472Y-96758829D01*
X119950479Y-96707447D01*
X119937043Y-96637733D01*
X119963429Y-96571822D01*
X119999472Y-96540591D01*
X120011002Y-96533934D01*
X120063048Y-96497491D01*
X120071424Y-96487012D01*
X120064356Y-96473566D01*
X119362812Y-95772022D01*
X119348868Y-95764408D01*
X119347035Y-95764539D01*
X119340420Y-95768790D01*
X118634923Y-96474287D01*
X118628493Y-96486062D01*
X118637789Y-96498077D01*
X118688998Y-96533934D01*
X118700528Y-96540591D01*
X118749521Y-96591973D01*
X118762958Y-96661687D01*
X118736571Y-96727598D01*
X118700528Y-96758829D01*
X118698235Y-96760153D01*
X118693251Y-96762477D01*
X118688747Y-96765631D01*
X118510211Y-96890643D01*
X118510208Y-96890645D01*
X118505700Y-96893802D01*
X118343802Y-97055700D01*
X118212477Y-97243251D01*
X118210154Y-97248233D01*
X118210151Y-97248238D01*
X118137451Y-97404145D01*
X118115716Y-97450757D01*
X118056457Y-97671913D01*
X118050275Y-97742580D01*
X118024412Y-97808699D01*
X117966909Y-97850339D01*
X117924754Y-97857600D01*
X116658471Y-97857600D01*
X116590350Y-97837598D01*
X116543857Y-97783942D01*
X116533753Y-97713668D01*
X116558508Y-97654897D01*
X116576751Y-97631122D01*
X116587619Y-97618730D01*
X117234334Y-96972015D01*
X117246725Y-96961148D01*
X117265537Y-96946713D01*
X117272087Y-96941687D01*
X117296574Y-96909775D01*
X117296578Y-96909771D01*
X117369624Y-96814576D01*
X117401648Y-96737264D01*
X117428961Y-96696388D01*
X118047403Y-96077946D01*
X118109715Y-96043920D01*
X118180530Y-96048985D01*
X118239711Y-96094771D01*
X118252508Y-96113047D01*
X118262988Y-96121424D01*
X118276434Y-96114356D01*
X119260905Y-95129885D01*
X119323217Y-95095859D01*
X119394032Y-95100924D01*
X119439095Y-95129885D01*
X120424287Y-96115077D01*
X120436062Y-96121507D01*
X120448077Y-96112211D01*
X120483932Y-96061005D01*
X120489414Y-96051511D01*
X120581490Y-95854053D01*
X120585236Y-95843761D01*
X120641625Y-95633312D01*
X120643528Y-95622519D01*
X120662517Y-95405475D01*
X120662517Y-95394525D01*
X120643528Y-95177481D01*
X120641625Y-95166688D01*
X120628261Y-95116811D01*
X120629951Y-95045834D01*
X120669745Y-94987039D01*
X120735010Y-94959091D01*
X120749968Y-94958200D01*
X120996161Y-94958200D01*
X121064282Y-94978202D01*
G37*
%TD.AperFunction*%
%TD*%
M02*
