M48
; DRILL file {KiCad (6.0.2)} date Sun Jul 24 16:40:57 2022
; FORMAT={-:-/ absolute / inch / decimal}
; #@! TF.CreationDate,2022-07-24T16:40:57+01:00
; #@! TF.GenerationSoftware,Kicad,Pcbnew,(6.0.2)
; #@! TF.FileFunction,Plated,1,4,PTH
FMAT,2
INCH
; #@! TA.AperFunction,Plated,PTH,ViaDrill
T1C0.0098
; #@! TA.AperFunction,Plated,PTH,ViaDrill
T2C0.0118
; #@! TA.AperFunction,Plated,PTH,ComponentDrill
T3C0.0315
; #@! TA.AperFunction,Plated,PTH,ComponentDrill
T4C0.0394
%
G90
G05
T1
X3.2048Y-5.2256
X3.2049Y-4.1546
X3.2403Y-4.5124
X3.3427Y-3.5133
X3.3427Y-4.1063
X3.3432Y-4.2633
X3.345Y-4.6952
X3.3986Y-5.1954
X3.4021Y-4.0549
X3.4183Y-3.7269
X3.4213Y-5.3453
X3.4359Y-5.1439
X3.489Y-3.6049
X3.489Y-4.2299
X3.5069Y-5.2953
X3.5111Y-4.6671
X3.5207Y-3.5781
X3.5662Y-5.1171
X3.5694Y-4.7641
X3.5721Y-4.6254
X3.5893Y-3.5241
X3.5913Y-4.7281
X3.7275Y-5.1194
X3.7295Y-4.7671
X3.7313Y-3.7348
X3.7446Y-5.22
X3.7462Y-5.1948
X3.7509Y-4.7866
X3.7571Y-4.0941
X3.763Y-5.2741
X3.7643Y-4.6671
X3.7658Y-3.5049
X3.77Y-4.2049
X3.8035Y-5.0684
X3.8061Y-3.7086
X3.8121Y-4.0029
X3.8128Y-4.2049
X3.8174Y-4.8204
X3.8177Y-4.2516
X3.8182Y-3.8049
X3.8193Y-5.1671
X3.8318Y-4.1322
X3.8324Y-5.3171
X3.8356Y-4.9232
X3.8364Y-3.6549
X3.8438Y-4.0941
X3.8587Y-4.6201
X3.8625Y-3.6419
X3.8992Y-4.0682
X3.9286Y-3.9263
X3.9555Y-4.2372
X3.9656Y-4.1548
X4.0012Y-3.6077
X4.0191Y-5.3172
X4.0283Y-4.9171
X4.0301Y-5.0671
X4.1571Y-3.6066
X4.1735Y-4.1941
X4.181Y-3.7932
X4.1847Y-3.9564
X4.1847Y-4.0066
X4.1915Y-3.7127
X4.1931Y-3.5049
X4.1965Y-4.1721
X4.2092Y-3.6549
X4.2457Y-4.61
X4.2457Y-5.1139
X4.2485Y-4.805
X4.269Y-4.328
X4.2712Y-3.694
X4.3282Y-4.1049
X4.3581Y-4.1745
X4.3858Y-5.1628
X4.4142Y-4.0774
X4.4355Y-4.9308
X4.4414Y-4.9064
X4.4654Y-4.9843
X4.4837Y-4.6051
X4.5424Y-4.0954
X4.562Y-4.2046
X4.5643Y-4.0703
X4.5812Y-3.7918
X4.621Y-3.9104
X4.622Y-5.0783
X4.6333Y-4.697
X4.656Y-4.8001
X4.7057Y-4.65
X4.7094Y-4.792
X4.7376Y-4.5301
X4.7648Y-5.1734
X4.7718Y-5.0064
X4.7734Y-5.3608
X4.7823Y-4.792
X4.8185Y-4.0049
X4.8187Y-5.311
X4.8795Y-3.6312
X4.8923Y-4.9559
X4.9101Y-5.1945
X4.9104Y-4.3084
X4.9281Y-4.0003
X4.93Y-4.3451
X4.9338Y-4.8997
X4.9438Y-4.2696
X4.9664Y-3.6076
X4.9682Y-5.1104
X4.9701Y-4.1626
X4.9846Y-5.1535
X4.9914Y-4.2387
X4.9938Y-4.7692
X5.0318Y-3.5049
X5.0351Y-3.9485
X5.0472Y-3.6204
X5.0696Y-3.6985
X5.145Y-4.4385
X5.1604Y-5.4733
X5.2087Y-5.126
X5.2103Y-3.6549
X5.2111Y-4.7168
X5.2307Y-4.0506
X5.2334Y-3.6049
X5.258Y-3.8322
X5.2685Y-5.2176
X5.2894Y-5.1849
X5.3084Y-5.2155
X5.313Y-4.6481
X5.3154Y-4.8004
X5.3267Y-5.1644
X5.3657Y-5.3494
X5.3751Y-5.0787
X5.3806Y-4.1049
X5.3988Y-4.7711
X5.4017Y-4.9291
X5.4049Y-5.3972
X5.4138Y-3.4802
X5.4148Y-5.3084
X5.4294Y-5.3711
X5.4315Y-3.4559
X5.4561Y-5.2553
X5.5888Y-5.0487
X5.5919Y-4.8522
X5.5922Y-4.681
X5.5975Y-3.6542
X5.6545Y-3.8191
X5.6616Y-3.5355
X5.6654Y-5.0789
X5.6709Y-4.0766
X5.6798Y-5.2053
X5.7147Y-5.197
X5.744Y-4.1549
X5.7926Y-3.7049
X5.7933Y-5.1723
X5.8426Y-4.5576
X5.869Y-3.8253
X5.893Y-5.3661
X5.9099Y-3.9461
X5.911Y-4.6514
X5.9123Y-5.4345
X5.9158Y-4.4909
X5.9413Y-3.9087
X6.0023Y-3.6049
X6.0204Y-4.7763
X6.0231Y-3.5119
X6.0231Y-4.8814
X6.0241Y-4.2549
X6.031Y-4.9443
X6.1508Y-4.1799
X6.152Y-4.6941
X6.1604Y-4.7211
X6.1642Y-5.1678
X6.1646Y-4.7759
X6.1649Y-4.8211
X6.169Y-3.6049
X6.1881Y-4.0332
X6.1934Y-4.3978
X6.2121Y-4.2366
X6.2192Y-5.3458
X6.2212Y-4.1134
X6.2482Y-3.8265
X6.2705Y-4.0512
X6.2807Y-5.1178
X6.2807Y-4.861
X6.2972Y-3.7795
X6.2997Y-4.8208
X6.3011Y-4.0549
X6.3056Y-4.9631
X6.3076Y-3.6826
X6.3106Y-4.1549
X6.3119Y-3.9583
X6.3185Y-4.2006
X6.3189Y-4.8772
X6.3536Y-4.3403
X6.374Y-3.7992
X6.3775Y-4.7975
X6.3778Y-4.0049
X6.3875Y-3.4549
X6.3953Y-3.6676
X6.409Y-5.3258
X6.4138Y-5.2974
X6.415Y-4.6941
X6.5406Y-3.9812
X6.5472Y-3.5155
X6.5526Y-3.7379
X6.559Y-5.1718
X6.6603Y-5.3538
X6.6947Y-4.2381
T2
X3.3425Y-4.9823
X3.3465Y-5.0217
X3.3524Y-3.9252
X3.3543Y-3.876
X3.5689Y-4.9449
X3.5774Y-5.0171
X3.7553Y-3.8549
X3.7598Y-3.9055
X3.8327Y-4.9606
X3.847Y-5.0171
X4.0059Y-3.8701
X4.1699Y-3.9049
X4.2278Y-4.9671
X4.2368Y-5.0171
X4.3996Y-3.9075
X5.0531Y-3.8937
X5.2146Y-3.8701
X5.2323Y-4.9547
X5.2927Y-5.0211
X5.4325Y-4.9711
X5.4455Y-5.0211
X5.6024Y-3.8484
X5.6069Y-3.9049
X5.9154Y-3.874
X6.0197Y-3.8524
X6.1575Y-5.0039
X6.1594Y-4.9547
T3
X3.2657Y-5.5374
X3.3642Y-5.5374
X3.8799Y-3.7224
X3.8799Y-3.8209
X3.8957Y-5.5374
X3.9941Y-5.5374
X4.5482Y-4.5148
X4.5482Y-4.6148
X4.5482Y-4.7148
X4.5482Y-4.8148
X4.5482Y-4.9148
X4.5482Y-5.0148
X4.5482Y-5.1148
X4.5482Y-5.2148
X4.6988Y-3.7559
X4.6988Y-3.8543
X4.75Y-4.3445
X4.8482Y-4.5148
X4.8482Y-4.6148
X4.8482Y-4.7148
X4.8482Y-4.8148
X4.8482Y-4.9148
X4.8482Y-5.0148
X4.8482Y-5.1148
X4.8482Y-5.2148
X4.8484Y-4.3445
X5.0315Y-4.0118
X5.0315Y-4.1118
X5.0315Y-4.2118
X5.0315Y-4.3118
X5.0315Y-4.4118
X5.0315Y-4.5118
X5.0315Y-4.6118
X5.0315Y-4.7118
X5.0315Y-4.8118
X5.0315Y-4.9118
X5.0315Y-5.0118
X5.0315Y-5.1118
X5.0315Y-5.2118
X5.0315Y-5.3118
X5.0315Y-5.4118
X5.0315Y-5.5118
X5.6315Y-4.0118
X5.6315Y-4.1118
X5.6315Y-4.2118
X5.6315Y-4.3118
X5.6315Y-4.4118
X5.6315Y-4.5118
X5.6315Y-4.6118
X5.6315Y-4.7118
X5.6315Y-4.8118
X5.6315Y-4.9118
X5.6315Y-5.0118
X5.6315Y-5.1118
X5.6315Y-5.2118
X5.6315Y-5.3118
X5.6315Y-5.4118
X5.6315Y-5.5118
X5.7224Y-3.7264
X5.7224Y-3.8248
X5.7913Y-4.9409
X5.7913Y-5.0394
X5.9843Y-4.0118
X5.9843Y-4.1118
X5.9843Y-4.2118
X5.9843Y-4.3118
X5.9843Y-4.4118
X5.9843Y-4.5118
X5.9843Y-4.6118
X5.9843Y-4.7118
X5.9843Y-4.8118
X5.9843Y-4.9118
X5.9843Y-5.0118
X5.9843Y-5.1118
X5.9843Y-5.2118
X5.9843Y-5.3118
X5.9843Y-5.4118
X5.9843Y-5.5118
X6.5843Y-4.0118
X6.5843Y-4.1118
X6.5843Y-4.2118
X6.5843Y-4.3118
X6.5843Y-4.4118
X6.5843Y-4.5118
X6.5843Y-4.6118
X6.5843Y-4.7118
X6.5843Y-4.8118
X6.5843Y-4.9118
X6.5843Y-5.0118
X6.5843Y-5.1118
X6.5843Y-5.2118
X6.5843Y-5.3118
X6.5843Y-5.4118
X6.5843Y-5.5118
X6.6949Y-3.7224
X6.6949Y-3.8209
X6.7185Y-4.9488
X6.7185Y-5.0472
T4
X3.9044Y-4.0182
X3.9044Y-4.1182
X3.9044Y-4.2182
X3.9044Y-4.3182
T0
M30
