%TF.GenerationSoftware,KiCad,Pcbnew,(6.0.2)*%
%TF.CreationDate,2022-07-24T16:40:57+01:00*%
%TF.ProjectId,Rosco_Hat_RAM,526f7363-6f5f-4486-9174-5f52414d2e6b,rev?*%
%TF.SameCoordinates,Original*%
%TF.FileFunction,Soldermask,Bot*%
%TF.FilePolarity,Negative*%
%FSLAX46Y46*%
G04 Gerber Fmt 4.6, Leading zero omitted, Abs format (unit mm)*
G04 Created by KiCad (PCBNEW (6.0.2)) date 2022-07-24 16:40:57*
%MOMM*%
%LPD*%
G01*
G04 APERTURE LIST*
%ADD10C,1.600000*%
%ADD11R,1.600000X1.600000*%
%ADD12O,1.600000X1.600000*%
%ADD13R,1.700000X1.700000*%
%ADD14O,1.700000X1.700000*%
%ADD15R,2.400000X1.600000*%
%ADD16O,2.400000X1.600000*%
G04 APERTURE END LIST*
D10*
%TO.C,C3*%
X123150000Y-110350000D03*
X120650000Y-110350000D03*
%TD*%
%TO.C,C7*%
X145350000Y-97150000D03*
X145350000Y-94650000D03*
%TD*%
%TO.C,C10*%
X170650000Y-128200000D03*
X170650000Y-125700000D03*
%TD*%
%TO.C,C12*%
X101450000Y-140650000D03*
X98950000Y-140650000D03*
%TD*%
%TO.C,C8*%
X170050000Y-97050000D03*
X170050000Y-94550000D03*
%TD*%
D11*
%TO.C,U4*%
X152000000Y-101900000D03*
D12*
X152000000Y-104440000D03*
X152000000Y-106980000D03*
X152000000Y-109520000D03*
X152000000Y-112060000D03*
X152000000Y-114600000D03*
X152000000Y-117140000D03*
X152000000Y-119680000D03*
X152000000Y-122220000D03*
X152000000Y-124760000D03*
X152000000Y-127300000D03*
X152000000Y-129840000D03*
X152000000Y-132380000D03*
X152000000Y-134920000D03*
X152000000Y-137460000D03*
X152000000Y-140000000D03*
X167240000Y-140000000D03*
X167240000Y-137460000D03*
X167240000Y-134920000D03*
X167240000Y-132380000D03*
X167240000Y-129840000D03*
X167240000Y-127300000D03*
X167240000Y-124760000D03*
X167240000Y-122220000D03*
X167240000Y-119680000D03*
X167240000Y-117140000D03*
X167240000Y-114600000D03*
X167240000Y-112060000D03*
X167240000Y-109520000D03*
X167240000Y-106980000D03*
X167240000Y-104440000D03*
X167240000Y-101900000D03*
%TD*%
D10*
%TO.C,C2*%
X85450000Y-140650000D03*
X82950000Y-140650000D03*
%TD*%
D13*
%TO.C,J1*%
X99171000Y-109683400D03*
D14*
X99171000Y-107143400D03*
X99171000Y-104603400D03*
X99171000Y-102063400D03*
%TD*%
D10*
%TO.C,C11*%
X147100000Y-128000000D03*
X147100000Y-125500000D03*
%TD*%
%TO.C,C9*%
X119350000Y-97900000D03*
X119350000Y-95400000D03*
%TD*%
D11*
%TO.C,U3*%
X127800000Y-101900000D03*
D12*
X127800000Y-104440000D03*
X127800000Y-106980000D03*
X127800000Y-109520000D03*
X127800000Y-112060000D03*
X127800000Y-114600000D03*
X127800000Y-117140000D03*
X127800000Y-119680000D03*
X127800000Y-122220000D03*
X127800000Y-124760000D03*
X127800000Y-127300000D03*
X127800000Y-129840000D03*
X127800000Y-132380000D03*
X127800000Y-134920000D03*
X127800000Y-137460000D03*
X127800000Y-140000000D03*
X143040000Y-140000000D03*
X143040000Y-137460000D03*
X143040000Y-134920000D03*
X143040000Y-132380000D03*
X143040000Y-129840000D03*
X143040000Y-127300000D03*
X143040000Y-124760000D03*
X143040000Y-122220000D03*
X143040000Y-119680000D03*
X143040000Y-117140000D03*
X143040000Y-114600000D03*
X143040000Y-112060000D03*
X143040000Y-109520000D03*
X143040000Y-106980000D03*
X143040000Y-104440000D03*
X143040000Y-101900000D03*
%TD*%
D10*
%TO.C,C1*%
X98550000Y-94550000D03*
X98550000Y-97050000D03*
%TD*%
D15*
%TO.C,U1*%
X115525000Y-114675000D03*
D16*
X115525000Y-117215000D03*
X115525000Y-119755000D03*
X115525000Y-122295000D03*
X115525000Y-124835000D03*
X115525000Y-127375000D03*
X115525000Y-129915000D03*
X115525000Y-132455000D03*
X123145000Y-132455000D03*
X123145000Y-129915000D03*
X123145000Y-127375000D03*
X123145000Y-124835000D03*
X123145000Y-122295000D03*
X123145000Y-119755000D03*
X123145000Y-117215000D03*
X123145000Y-114675000D03*
%TD*%
M02*
