%TF.GenerationSoftware,KiCad,Pcbnew,(6.0.2)*%
%TF.CreationDate,2022-07-24T16:40:57+01:00*%
%TF.ProjectId,Rosco_Hat_RAM,526f7363-6f5f-4486-9174-5f52414d2e6b,rev?*%
%TF.SameCoordinates,Original*%
%TF.FileFunction,Paste,Top*%
%TF.FilePolarity,Positive*%
%FSLAX46Y46*%
G04 Gerber Fmt 4.6, Leading zero omitted, Abs format (unit mm)*
G04 Created by KiCad (PCBNEW (6.0.2)) date 2022-07-24 16:40:57*
%MOMM*%
%LPD*%
G01*
G04 APERTURE LIST*
G04 Aperture macros list*
%AMRoundRect*
0 Rectangle with rounded corners*
0 $1 Rounding radius*
0 $2 $3 $4 $5 $6 $7 $8 $9 X,Y pos of 4 corners*
0 Add a 4 corners polygon primitive as box body*
4,1,4,$2,$3,$4,$5,$6,$7,$8,$9,$2,$3,0*
0 Add four circle primitives for the rounded corners*
1,1,$1+$1,$2,$3*
1,1,$1+$1,$4,$5*
1,1,$1+$1,$6,$7*
1,1,$1+$1,$8,$9*
0 Add four rect primitives between the rounded corners*
20,1,$1+$1,$2,$3,$4,$5,0*
20,1,$1+$1,$4,$5,$6,$7,0*
20,1,$1+$1,$6,$7,$8,$9,0*
20,1,$1+$1,$8,$9,$2,$3,0*%
G04 Aperture macros list end*
%ADD10RoundRect,0.150000X1.200000X0.150000X-1.200000X0.150000X-1.200000X-0.150000X1.200000X-0.150000X0*%
G04 APERTURE END LIST*
D10*
%TO.C,U11*%
X164540000Y-137695000D03*
X164540000Y-136425000D03*
X164540000Y-135155000D03*
X164540000Y-133885000D03*
X164540000Y-132615000D03*
X164540000Y-131345000D03*
X164540000Y-130075000D03*
X164540000Y-128805000D03*
X164540000Y-127535000D03*
X164540000Y-126265000D03*
X164540000Y-124995000D03*
X164540000Y-123725000D03*
X164540000Y-122455000D03*
X164540000Y-121185000D03*
X164540000Y-119915000D03*
X164540000Y-118645000D03*
X164540000Y-117375000D03*
X164540000Y-116105000D03*
X154740000Y-116105000D03*
X154740000Y-117375000D03*
X154740000Y-118645000D03*
X154740000Y-119915000D03*
X154740000Y-121185000D03*
X154740000Y-122455000D03*
X154740000Y-123725000D03*
X154740000Y-124995000D03*
X154740000Y-126265000D03*
X154740000Y-127535000D03*
X154740000Y-128805000D03*
X154740000Y-130075000D03*
X154740000Y-131345000D03*
X154740000Y-132615000D03*
X154740000Y-133885000D03*
X154740000Y-135155000D03*
X154740000Y-136425000D03*
X154740000Y-137695000D03*
%TD*%
%TO.C,U7*%
X109650000Y-137595000D03*
X109650000Y-136325000D03*
X109650000Y-135055000D03*
X109650000Y-133785000D03*
X109650000Y-132515000D03*
X109650000Y-131245000D03*
X109650000Y-129975000D03*
X109650000Y-128705000D03*
X109650000Y-127435000D03*
X109650000Y-126165000D03*
X109650000Y-124895000D03*
X109650000Y-123625000D03*
X109650000Y-122355000D03*
X109650000Y-121085000D03*
X109650000Y-119815000D03*
X109650000Y-118545000D03*
X109650000Y-117275000D03*
X109650000Y-116005000D03*
X99850000Y-116005000D03*
X99850000Y-117275000D03*
X99850000Y-118545000D03*
X99850000Y-119815000D03*
X99850000Y-121085000D03*
X99850000Y-122355000D03*
X99850000Y-123625000D03*
X99850000Y-124895000D03*
X99850000Y-126165000D03*
X99850000Y-127435000D03*
X99850000Y-128705000D03*
X99850000Y-129975000D03*
X99850000Y-131245000D03*
X99850000Y-132515000D03*
X99850000Y-133785000D03*
X99850000Y-135055000D03*
X99850000Y-136325000D03*
X99850000Y-137595000D03*
%TD*%
%TO.C,U12*%
X164540000Y-109345000D03*
X164540000Y-108075000D03*
X164540000Y-106805000D03*
X164540000Y-105535000D03*
X164540000Y-104265000D03*
X164540000Y-102995000D03*
X164540000Y-101725000D03*
X164540000Y-100455000D03*
X164540000Y-99185000D03*
X164540000Y-97915000D03*
X164540000Y-96645000D03*
X164540000Y-95375000D03*
X164540000Y-94105000D03*
X164540000Y-92835000D03*
X164540000Y-91565000D03*
X164540000Y-90295000D03*
X164540000Y-89025000D03*
X164540000Y-87755000D03*
X154740000Y-87755000D03*
X154740000Y-89025000D03*
X154740000Y-90295000D03*
X154740000Y-91565000D03*
X154740000Y-92835000D03*
X154740000Y-94105000D03*
X154740000Y-95375000D03*
X154740000Y-96645000D03*
X154740000Y-97915000D03*
X154740000Y-99185000D03*
X154740000Y-100455000D03*
X154740000Y-101725000D03*
X154740000Y-102995000D03*
X154740000Y-104265000D03*
X154740000Y-105535000D03*
X154740000Y-106805000D03*
X154740000Y-108075000D03*
X154740000Y-109345000D03*
%TD*%
%TO.C,U6*%
X92950000Y-109345000D03*
X92950000Y-108075000D03*
X92950000Y-106805000D03*
X92950000Y-105535000D03*
X92950000Y-104265000D03*
X92950000Y-102995000D03*
X92950000Y-101725000D03*
X92950000Y-100455000D03*
X92950000Y-99185000D03*
X92950000Y-97915000D03*
X92950000Y-96645000D03*
X92950000Y-95375000D03*
X92950000Y-94105000D03*
X92950000Y-92835000D03*
X92950000Y-91565000D03*
X92950000Y-90295000D03*
X92950000Y-89025000D03*
X92950000Y-87755000D03*
X83150000Y-87755000D03*
X83150000Y-89025000D03*
X83150000Y-90295000D03*
X83150000Y-91565000D03*
X83150000Y-92835000D03*
X83150000Y-94105000D03*
X83150000Y-95375000D03*
X83150000Y-96645000D03*
X83150000Y-97915000D03*
X83150000Y-99185000D03*
X83150000Y-100455000D03*
X83150000Y-101725000D03*
X83150000Y-102995000D03*
X83150000Y-104265000D03*
X83150000Y-105535000D03*
X83150000Y-106805000D03*
X83150000Y-108075000D03*
X83150000Y-109345000D03*
%TD*%
%TO.C,U9*%
X140300000Y-137695000D03*
X140300000Y-136425000D03*
X140300000Y-135155000D03*
X140300000Y-133885000D03*
X140300000Y-132615000D03*
X140300000Y-131345000D03*
X140300000Y-130075000D03*
X140300000Y-128805000D03*
X140300000Y-127535000D03*
X140300000Y-126265000D03*
X140300000Y-124995000D03*
X140300000Y-123725000D03*
X140300000Y-122455000D03*
X140300000Y-121185000D03*
X140300000Y-119915000D03*
X140300000Y-118645000D03*
X140300000Y-117375000D03*
X140300000Y-116105000D03*
X130500000Y-116105000D03*
X130500000Y-117375000D03*
X130500000Y-118645000D03*
X130500000Y-119915000D03*
X130500000Y-121185000D03*
X130500000Y-122455000D03*
X130500000Y-123725000D03*
X130500000Y-124995000D03*
X130500000Y-126265000D03*
X130500000Y-127535000D03*
X130500000Y-128805000D03*
X130500000Y-130075000D03*
X130500000Y-131345000D03*
X130500000Y-132615000D03*
X130500000Y-133885000D03*
X130500000Y-135155000D03*
X130500000Y-136425000D03*
X130500000Y-137695000D03*
%TD*%
%TO.C,U10*%
X140300000Y-109345000D03*
X140300000Y-108075000D03*
X140300000Y-106805000D03*
X140300000Y-105535000D03*
X140300000Y-104265000D03*
X140300000Y-102995000D03*
X140300000Y-101725000D03*
X140300000Y-100455000D03*
X140300000Y-99185000D03*
X140300000Y-97915000D03*
X140300000Y-96645000D03*
X140300000Y-95375000D03*
X140300000Y-94105000D03*
X140300000Y-92835000D03*
X140300000Y-91565000D03*
X140300000Y-90295000D03*
X140300000Y-89025000D03*
X140300000Y-87755000D03*
X130500000Y-87755000D03*
X130500000Y-89025000D03*
X130500000Y-90295000D03*
X130500000Y-91565000D03*
X130500000Y-92835000D03*
X130500000Y-94105000D03*
X130500000Y-95375000D03*
X130500000Y-96645000D03*
X130500000Y-97915000D03*
X130500000Y-99185000D03*
X130500000Y-100455000D03*
X130500000Y-101725000D03*
X130500000Y-102995000D03*
X130500000Y-104265000D03*
X130500000Y-105535000D03*
X130500000Y-106805000D03*
X130500000Y-108075000D03*
X130500000Y-109345000D03*
%TD*%
%TO.C,U8*%
X113650000Y-109345000D03*
X113650000Y-108075000D03*
X113650000Y-106805000D03*
X113650000Y-105535000D03*
X113650000Y-104265000D03*
X113650000Y-102995000D03*
X113650000Y-101725000D03*
X113650000Y-100455000D03*
X113650000Y-99185000D03*
X113650000Y-97915000D03*
X113650000Y-96645000D03*
X113650000Y-95375000D03*
X113650000Y-94105000D03*
X113650000Y-92835000D03*
X113650000Y-91565000D03*
X113650000Y-90295000D03*
X113650000Y-89025000D03*
X113650000Y-87755000D03*
X103850000Y-87755000D03*
X103850000Y-89025000D03*
X103850000Y-90295000D03*
X103850000Y-91565000D03*
X103850000Y-92835000D03*
X103850000Y-94105000D03*
X103850000Y-95375000D03*
X103850000Y-96645000D03*
X103850000Y-97915000D03*
X103850000Y-99185000D03*
X103850000Y-100455000D03*
X103850000Y-101725000D03*
X103850000Y-102995000D03*
X103850000Y-104265000D03*
X103850000Y-105535000D03*
X103850000Y-106805000D03*
X103850000Y-108075000D03*
X103850000Y-109345000D03*
%TD*%
%TO.C,U2*%
X92950000Y-137595000D03*
X92950000Y-136325000D03*
X92950000Y-135055000D03*
X92950000Y-133785000D03*
X92950000Y-132515000D03*
X92950000Y-131245000D03*
X92950000Y-129975000D03*
X92950000Y-128705000D03*
X92950000Y-127435000D03*
X92950000Y-126165000D03*
X92950000Y-124895000D03*
X92950000Y-123625000D03*
X92950000Y-122355000D03*
X92950000Y-121085000D03*
X92950000Y-119815000D03*
X92950000Y-118545000D03*
X92950000Y-117275000D03*
X92950000Y-116005000D03*
X83150000Y-116005000D03*
X83150000Y-117275000D03*
X83150000Y-118545000D03*
X83150000Y-119815000D03*
X83150000Y-121085000D03*
X83150000Y-122355000D03*
X83150000Y-123625000D03*
X83150000Y-124895000D03*
X83150000Y-126165000D03*
X83150000Y-127435000D03*
X83150000Y-128705000D03*
X83150000Y-129975000D03*
X83150000Y-131245000D03*
X83150000Y-132515000D03*
X83150000Y-133785000D03*
X83150000Y-135055000D03*
X83150000Y-136325000D03*
X83150000Y-137595000D03*
%TD*%
M02*
