%TF.GenerationSoftware,KiCad,Pcbnew,(6.0.2)*%
%TF.CreationDate,2022-07-24T16:40:57+01:00*%
%TF.ProjectId,Rosco_Hat_RAM,526f7363-6f5f-4486-9174-5f52414d2e6b,rev?*%
%TF.SameCoordinates,Original*%
%TF.FileFunction,Soldermask,Top*%
%TF.FilePolarity,Negative*%
%FSLAX46Y46*%
G04 Gerber Fmt 4.6, Leading zero omitted, Abs format (unit mm)*
G04 Created by KiCad (PCBNEW (6.0.2)) date 2022-07-24 16:40:57*
%MOMM*%
%LPD*%
G01*
G04 APERTURE LIST*
G04 Aperture macros list*
%AMRoundRect*
0 Rectangle with rounded corners*
0 $1 Rounding radius*
0 $2 $3 $4 $5 $6 $7 $8 $9 X,Y pos of 4 corners*
0 Add a 4 corners polygon primitive as box body*
4,1,4,$2,$3,$4,$5,$6,$7,$8,$9,$2,$3,0*
0 Add four circle primitives for the rounded corners*
1,1,$1+$1,$2,$3*
1,1,$1+$1,$4,$5*
1,1,$1+$1,$6,$7*
1,1,$1+$1,$8,$9*
0 Add four rect primitives between the rounded corners*
20,1,$1+$1,$2,$3,$4,$5,0*
20,1,$1+$1,$4,$5,$6,$7,0*
20,1,$1+$1,$6,$7,$8,$9,0*
20,1,$1+$1,$8,$9,$2,$3,0*%
G04 Aperture macros list end*
%ADD10RoundRect,0.150000X1.200000X0.150000X-1.200000X0.150000X-1.200000X-0.150000X1.200000X-0.150000X0*%
%ADD11C,1.600000*%
%ADD12R,1.600000X1.600000*%
%ADD13O,1.600000X1.600000*%
%ADD14R,1.700000X1.700000*%
%ADD15O,1.700000X1.700000*%
%ADD16R,2.400000X1.600000*%
%ADD17O,2.400000X1.600000*%
G04 APERTURE END LIST*
D10*
%TO.C,U11*%
X164540000Y-137695000D03*
X164540000Y-136425000D03*
X164540000Y-135155000D03*
X164540000Y-133885000D03*
X164540000Y-132615000D03*
X164540000Y-131345000D03*
X164540000Y-130075000D03*
X164540000Y-128805000D03*
X164540000Y-127535000D03*
X164540000Y-126265000D03*
X164540000Y-124995000D03*
X164540000Y-123725000D03*
X164540000Y-122455000D03*
X164540000Y-121185000D03*
X164540000Y-119915000D03*
X164540000Y-118645000D03*
X164540000Y-117375000D03*
X164540000Y-116105000D03*
X154740000Y-116105000D03*
X154740000Y-117375000D03*
X154740000Y-118645000D03*
X154740000Y-119915000D03*
X154740000Y-121185000D03*
X154740000Y-122455000D03*
X154740000Y-123725000D03*
X154740000Y-124995000D03*
X154740000Y-126265000D03*
X154740000Y-127535000D03*
X154740000Y-128805000D03*
X154740000Y-130075000D03*
X154740000Y-131345000D03*
X154740000Y-132615000D03*
X154740000Y-133885000D03*
X154740000Y-135155000D03*
X154740000Y-136425000D03*
X154740000Y-137695000D03*
%TD*%
%TO.C,U7*%
X109650000Y-137595000D03*
X109650000Y-136325000D03*
X109650000Y-135055000D03*
X109650000Y-133785000D03*
X109650000Y-132515000D03*
X109650000Y-131245000D03*
X109650000Y-129975000D03*
X109650000Y-128705000D03*
X109650000Y-127435000D03*
X109650000Y-126165000D03*
X109650000Y-124895000D03*
X109650000Y-123625000D03*
X109650000Y-122355000D03*
X109650000Y-121085000D03*
X109650000Y-119815000D03*
X109650000Y-118545000D03*
X109650000Y-117275000D03*
X109650000Y-116005000D03*
X99850000Y-116005000D03*
X99850000Y-117275000D03*
X99850000Y-118545000D03*
X99850000Y-119815000D03*
X99850000Y-121085000D03*
X99850000Y-122355000D03*
X99850000Y-123625000D03*
X99850000Y-124895000D03*
X99850000Y-126165000D03*
X99850000Y-127435000D03*
X99850000Y-128705000D03*
X99850000Y-129975000D03*
X99850000Y-131245000D03*
X99850000Y-132515000D03*
X99850000Y-133785000D03*
X99850000Y-135055000D03*
X99850000Y-136325000D03*
X99850000Y-137595000D03*
%TD*%
%TO.C,U12*%
X164540000Y-109345000D03*
X164540000Y-108075000D03*
X164540000Y-106805000D03*
X164540000Y-105535000D03*
X164540000Y-104265000D03*
X164540000Y-102995000D03*
X164540000Y-101725000D03*
X164540000Y-100455000D03*
X164540000Y-99185000D03*
X164540000Y-97915000D03*
X164540000Y-96645000D03*
X164540000Y-95375000D03*
X164540000Y-94105000D03*
X164540000Y-92835000D03*
X164540000Y-91565000D03*
X164540000Y-90295000D03*
X164540000Y-89025000D03*
X164540000Y-87755000D03*
X154740000Y-87755000D03*
X154740000Y-89025000D03*
X154740000Y-90295000D03*
X154740000Y-91565000D03*
X154740000Y-92835000D03*
X154740000Y-94105000D03*
X154740000Y-95375000D03*
X154740000Y-96645000D03*
X154740000Y-97915000D03*
X154740000Y-99185000D03*
X154740000Y-100455000D03*
X154740000Y-101725000D03*
X154740000Y-102995000D03*
X154740000Y-104265000D03*
X154740000Y-105535000D03*
X154740000Y-106805000D03*
X154740000Y-108075000D03*
X154740000Y-109345000D03*
%TD*%
D11*
%TO.C,C3*%
X123150000Y-110350000D03*
X120650000Y-110350000D03*
%TD*%
%TO.C,C7*%
X145350000Y-97150000D03*
X145350000Y-94650000D03*
%TD*%
%TO.C,C10*%
X170650000Y-128200000D03*
X170650000Y-125700000D03*
%TD*%
%TO.C,C12*%
X101450000Y-140650000D03*
X98950000Y-140650000D03*
%TD*%
D10*
%TO.C,U6*%
X92950000Y-109345000D03*
X92950000Y-108075000D03*
X92950000Y-106805000D03*
X92950000Y-105535000D03*
X92950000Y-104265000D03*
X92950000Y-102995000D03*
X92950000Y-101725000D03*
X92950000Y-100455000D03*
X92950000Y-99185000D03*
X92950000Y-97915000D03*
X92950000Y-96645000D03*
X92950000Y-95375000D03*
X92950000Y-94105000D03*
X92950000Y-92835000D03*
X92950000Y-91565000D03*
X92950000Y-90295000D03*
X92950000Y-89025000D03*
X92950000Y-87755000D03*
X83150000Y-87755000D03*
X83150000Y-89025000D03*
X83150000Y-90295000D03*
X83150000Y-91565000D03*
X83150000Y-92835000D03*
X83150000Y-94105000D03*
X83150000Y-95375000D03*
X83150000Y-96645000D03*
X83150000Y-97915000D03*
X83150000Y-99185000D03*
X83150000Y-100455000D03*
X83150000Y-101725000D03*
X83150000Y-102995000D03*
X83150000Y-104265000D03*
X83150000Y-105535000D03*
X83150000Y-106805000D03*
X83150000Y-108075000D03*
X83150000Y-109345000D03*
%TD*%
D11*
%TO.C,C8*%
X170050000Y-97050000D03*
X170050000Y-94550000D03*
%TD*%
D12*
%TO.C,U4*%
X152000000Y-101900000D03*
D13*
X152000000Y-104440000D03*
X152000000Y-106980000D03*
X152000000Y-109520000D03*
X152000000Y-112060000D03*
X152000000Y-114600000D03*
X152000000Y-117140000D03*
X152000000Y-119680000D03*
X152000000Y-122220000D03*
X152000000Y-124760000D03*
X152000000Y-127300000D03*
X152000000Y-129840000D03*
X152000000Y-132380000D03*
X152000000Y-134920000D03*
X152000000Y-137460000D03*
X152000000Y-140000000D03*
X167240000Y-140000000D03*
X167240000Y-137460000D03*
X167240000Y-134920000D03*
X167240000Y-132380000D03*
X167240000Y-129840000D03*
X167240000Y-127300000D03*
X167240000Y-124760000D03*
X167240000Y-122220000D03*
X167240000Y-119680000D03*
X167240000Y-117140000D03*
X167240000Y-114600000D03*
X167240000Y-112060000D03*
X167240000Y-109520000D03*
X167240000Y-106980000D03*
X167240000Y-104440000D03*
X167240000Y-101900000D03*
%TD*%
D11*
%TO.C,C2*%
X85450000Y-140650000D03*
X82950000Y-140650000D03*
%TD*%
D10*
%TO.C,U9*%
X140300000Y-137695000D03*
X140300000Y-136425000D03*
X140300000Y-135155000D03*
X140300000Y-133885000D03*
X140300000Y-132615000D03*
X140300000Y-131345000D03*
X140300000Y-130075000D03*
X140300000Y-128805000D03*
X140300000Y-127535000D03*
X140300000Y-126265000D03*
X140300000Y-124995000D03*
X140300000Y-123725000D03*
X140300000Y-122455000D03*
X140300000Y-121185000D03*
X140300000Y-119915000D03*
X140300000Y-118645000D03*
X140300000Y-117375000D03*
X140300000Y-116105000D03*
X130500000Y-116105000D03*
X130500000Y-117375000D03*
X130500000Y-118645000D03*
X130500000Y-119915000D03*
X130500000Y-121185000D03*
X130500000Y-122455000D03*
X130500000Y-123725000D03*
X130500000Y-124995000D03*
X130500000Y-126265000D03*
X130500000Y-127535000D03*
X130500000Y-128805000D03*
X130500000Y-130075000D03*
X130500000Y-131345000D03*
X130500000Y-132615000D03*
X130500000Y-133885000D03*
X130500000Y-135155000D03*
X130500000Y-136425000D03*
X130500000Y-137695000D03*
%TD*%
D14*
%TO.C,J1*%
X99171000Y-109683400D03*
D15*
X99171000Y-107143400D03*
X99171000Y-104603400D03*
X99171000Y-102063400D03*
%TD*%
D10*
%TO.C,U10*%
X140300000Y-109345000D03*
X140300000Y-108075000D03*
X140300000Y-106805000D03*
X140300000Y-105535000D03*
X140300000Y-104265000D03*
X140300000Y-102995000D03*
X140300000Y-101725000D03*
X140300000Y-100455000D03*
X140300000Y-99185000D03*
X140300000Y-97915000D03*
X140300000Y-96645000D03*
X140300000Y-95375000D03*
X140300000Y-94105000D03*
X140300000Y-92835000D03*
X140300000Y-91565000D03*
X140300000Y-90295000D03*
X140300000Y-89025000D03*
X140300000Y-87755000D03*
X130500000Y-87755000D03*
X130500000Y-89025000D03*
X130500000Y-90295000D03*
X130500000Y-91565000D03*
X130500000Y-92835000D03*
X130500000Y-94105000D03*
X130500000Y-95375000D03*
X130500000Y-96645000D03*
X130500000Y-97915000D03*
X130500000Y-99185000D03*
X130500000Y-100455000D03*
X130500000Y-101725000D03*
X130500000Y-102995000D03*
X130500000Y-104265000D03*
X130500000Y-105535000D03*
X130500000Y-106805000D03*
X130500000Y-108075000D03*
X130500000Y-109345000D03*
%TD*%
%TO.C,U8*%
X113650000Y-109345000D03*
X113650000Y-108075000D03*
X113650000Y-106805000D03*
X113650000Y-105535000D03*
X113650000Y-104265000D03*
X113650000Y-102995000D03*
X113650000Y-101725000D03*
X113650000Y-100455000D03*
X113650000Y-99185000D03*
X113650000Y-97915000D03*
X113650000Y-96645000D03*
X113650000Y-95375000D03*
X113650000Y-94105000D03*
X113650000Y-92835000D03*
X113650000Y-91565000D03*
X113650000Y-90295000D03*
X113650000Y-89025000D03*
X113650000Y-87755000D03*
X103850000Y-87755000D03*
X103850000Y-89025000D03*
X103850000Y-90295000D03*
X103850000Y-91565000D03*
X103850000Y-92835000D03*
X103850000Y-94105000D03*
X103850000Y-95375000D03*
X103850000Y-96645000D03*
X103850000Y-97915000D03*
X103850000Y-99185000D03*
X103850000Y-100455000D03*
X103850000Y-101725000D03*
X103850000Y-102995000D03*
X103850000Y-104265000D03*
X103850000Y-105535000D03*
X103850000Y-106805000D03*
X103850000Y-108075000D03*
X103850000Y-109345000D03*
%TD*%
D11*
%TO.C,C11*%
X147100000Y-128000000D03*
X147100000Y-125500000D03*
%TD*%
%TO.C,C9*%
X119350000Y-97900000D03*
X119350000Y-95400000D03*
%TD*%
D12*
%TO.C,U3*%
X127800000Y-101900000D03*
D13*
X127800000Y-104440000D03*
X127800000Y-106980000D03*
X127800000Y-109520000D03*
X127800000Y-112060000D03*
X127800000Y-114600000D03*
X127800000Y-117140000D03*
X127800000Y-119680000D03*
X127800000Y-122220000D03*
X127800000Y-124760000D03*
X127800000Y-127300000D03*
X127800000Y-129840000D03*
X127800000Y-132380000D03*
X127800000Y-134920000D03*
X127800000Y-137460000D03*
X127800000Y-140000000D03*
X143040000Y-140000000D03*
X143040000Y-137460000D03*
X143040000Y-134920000D03*
X143040000Y-132380000D03*
X143040000Y-129840000D03*
X143040000Y-127300000D03*
X143040000Y-124760000D03*
X143040000Y-122220000D03*
X143040000Y-119680000D03*
X143040000Y-117140000D03*
X143040000Y-114600000D03*
X143040000Y-112060000D03*
X143040000Y-109520000D03*
X143040000Y-106980000D03*
X143040000Y-104440000D03*
X143040000Y-101900000D03*
%TD*%
D10*
%TO.C,U2*%
X92950000Y-137595000D03*
X92950000Y-136325000D03*
X92950000Y-135055000D03*
X92950000Y-133785000D03*
X92950000Y-132515000D03*
X92950000Y-131245000D03*
X92950000Y-129975000D03*
X92950000Y-128705000D03*
X92950000Y-127435000D03*
X92950000Y-126165000D03*
X92950000Y-124895000D03*
X92950000Y-123625000D03*
X92950000Y-122355000D03*
X92950000Y-121085000D03*
X92950000Y-119815000D03*
X92950000Y-118545000D03*
X92950000Y-117275000D03*
X92950000Y-116005000D03*
X83150000Y-116005000D03*
X83150000Y-117275000D03*
X83150000Y-118545000D03*
X83150000Y-119815000D03*
X83150000Y-121085000D03*
X83150000Y-122355000D03*
X83150000Y-123625000D03*
X83150000Y-124895000D03*
X83150000Y-126165000D03*
X83150000Y-127435000D03*
X83150000Y-128705000D03*
X83150000Y-129975000D03*
X83150000Y-131245000D03*
X83150000Y-132515000D03*
X83150000Y-133785000D03*
X83150000Y-135055000D03*
X83150000Y-136325000D03*
X83150000Y-137595000D03*
%TD*%
D11*
%TO.C,C1*%
X98550000Y-94550000D03*
X98550000Y-97050000D03*
%TD*%
D16*
%TO.C,U1*%
X115525000Y-114675000D03*
D17*
X115525000Y-117215000D03*
X115525000Y-119755000D03*
X115525000Y-122295000D03*
X115525000Y-124835000D03*
X115525000Y-127375000D03*
X115525000Y-129915000D03*
X115525000Y-132455000D03*
X123145000Y-132455000D03*
X123145000Y-129915000D03*
X123145000Y-127375000D03*
X123145000Y-124835000D03*
X123145000Y-122295000D03*
X123145000Y-119755000D03*
X123145000Y-117215000D03*
X123145000Y-114675000D03*
%TD*%
M02*
