%TF.GenerationSoftware,KiCad,Pcbnew,(6.0.2)*%
%TF.CreationDate,2022-07-24T16:40:57+01:00*%
%TF.ProjectId,Rosco_Hat_RAM,526f7363-6f5f-4486-9174-5f52414d2e6b,rev?*%
%TF.SameCoordinates,Original*%
%TF.FileFunction,Copper,L4,Bot*%
%TF.FilePolarity,Positive*%
%FSLAX46Y46*%
G04 Gerber Fmt 4.6, Leading zero omitted, Abs format (unit mm)*
G04 Created by KiCad (PCBNEW (6.0.2)) date 2022-07-24 16:40:57*
%MOMM*%
%LPD*%
G01*
G04 APERTURE LIST*
%TA.AperFunction,ComponentPad*%
%ADD10C,1.600000*%
%TD*%
%TA.AperFunction,ComponentPad*%
%ADD11R,1.600000X1.600000*%
%TD*%
%TA.AperFunction,ComponentPad*%
%ADD12O,1.600000X1.600000*%
%TD*%
%TA.AperFunction,ComponentPad*%
%ADD13R,1.700000X1.700000*%
%TD*%
%TA.AperFunction,ComponentPad*%
%ADD14O,1.700000X1.700000*%
%TD*%
%TA.AperFunction,ComponentPad*%
%ADD15R,2.400000X1.600000*%
%TD*%
%TA.AperFunction,ComponentPad*%
%ADD16O,2.400000X1.600000*%
%TD*%
%TA.AperFunction,ViaPad*%
%ADD17C,0.450000*%
%TD*%
%TA.AperFunction,ViaPad*%
%ADD18C,0.600000*%
%TD*%
%TA.AperFunction,Conductor*%
%ADD19C,0.200000*%
%TD*%
%TA.AperFunction,Conductor*%
%ADD20C,0.400000*%
%TD*%
G04 APERTURE END LIST*
D10*
%TO.P,C3,1,1*%
%TO.N,VCC*%
X123150000Y-110350000D03*
%TO.P,C3,2,2*%
%TO.N,GND*%
X120650000Y-110350000D03*
%TD*%
%TO.P,C7,1,1*%
%TO.N,VCC*%
X145350000Y-97150000D03*
%TO.P,C7,2,2*%
%TO.N,GND*%
X145350000Y-94650000D03*
%TD*%
%TO.P,C10,1,1*%
%TO.N,VCC*%
X170650000Y-128200000D03*
%TO.P,C10,2,2*%
%TO.N,GND*%
X170650000Y-125700000D03*
%TD*%
%TO.P,C12,1,1*%
%TO.N,VCC*%
X101450000Y-140650000D03*
%TO.P,C12,2,2*%
%TO.N,GND*%
X98950000Y-140650000D03*
%TD*%
%TO.P,C8,1,1*%
%TO.N,VCC*%
X170050000Y-97050000D03*
%TO.P,C8,2,2*%
%TO.N,GND*%
X170050000Y-94550000D03*
%TD*%
D11*
%TO.P,U4,1,A18*%
%TO.N,A19*%
X152000000Y-101900000D03*
D12*
%TO.P,U4,2,A16*%
%TO.N,A17*%
X152000000Y-104440000D03*
%TO.P,U4,3,A14*%
%TO.N,A15*%
X152000000Y-106980000D03*
%TO.P,U4,4,A12*%
%TO.N,A13*%
X152000000Y-109520000D03*
%TO.P,U4,5,A7*%
%TO.N,A8*%
X152000000Y-112060000D03*
%TO.P,U4,6,A6*%
%TO.N,A7*%
X152000000Y-114600000D03*
%TO.P,U4,7,A5*%
%TO.N,A6*%
X152000000Y-117140000D03*
%TO.P,U4,8,A4*%
%TO.N,A5*%
X152000000Y-119680000D03*
%TO.P,U4,9,A3*%
%TO.N,A4*%
X152000000Y-122220000D03*
%TO.P,U4,10,A2*%
%TO.N,A3*%
X152000000Y-124760000D03*
%TO.P,U4,11,A1*%
%TO.N,A2*%
X152000000Y-127300000D03*
%TO.P,U4,12,A0*%
%TO.N,A1*%
X152000000Y-129840000D03*
%TO.P,U4,13,DQ0*%
%TO.N,D8*%
X152000000Y-132380000D03*
%TO.P,U4,14,DQ1*%
%TO.N,D9*%
X152000000Y-134920000D03*
%TO.P,U4,15,DQ2*%
%TO.N,D10*%
X152000000Y-137460000D03*
%TO.P,U4,16,VSS*%
%TO.N,GND*%
X152000000Y-140000000D03*
%TO.P,U4,17,DQ3*%
%TO.N,D11*%
X167240000Y-140000000D03*
%TO.P,U4,18,DQ4*%
%TO.N,D12*%
X167240000Y-137460000D03*
%TO.P,U4,19,DQ5*%
%TO.N,D13*%
X167240000Y-134920000D03*
%TO.P,U4,20,DQ6*%
%TO.N,D14*%
X167240000Y-132380000D03*
%TO.P,U4,21,DQ7*%
%TO.N,D15*%
X167240000Y-129840000D03*
%TO.P,U4,22,CE*%
%TO.N,EVENRAMSEL*%
X167240000Y-127300000D03*
%TO.P,U4,23,A10*%
%TO.N,A11*%
X167240000Y-124760000D03*
%TO.P,U4,24,OE*%
%TO.N,WR*%
X167240000Y-122220000D03*
%TO.P,U4,25,A11*%
%TO.N,A12*%
X167240000Y-119680000D03*
%TO.P,U4,26,A9*%
%TO.N,A10*%
X167240000Y-117140000D03*
%TO.P,U4,27,A8*%
%TO.N,A9*%
X167240000Y-114600000D03*
%TO.P,U4,28,A13*%
%TO.N,A14*%
X167240000Y-112060000D03*
%TO.P,U4,29,WE*%
%TO.N,RW*%
X167240000Y-109520000D03*
%TO.P,U4,30,A17*%
%TO.N,A18*%
X167240000Y-106980000D03*
%TO.P,U4,31,A15*%
%TO.N,A16*%
X167240000Y-104440000D03*
%TO.P,U4,32,VCC*%
%TO.N,VCC*%
X167240000Y-101900000D03*
%TD*%
D10*
%TO.P,C2,1,1*%
%TO.N,VCC*%
X85450000Y-140650000D03*
%TO.P,C2,2,2*%
%TO.N,GND*%
X82950000Y-140650000D03*
%TD*%
D13*
%TO.P,J1,1,Pin_1*%
%TO.N,A20*%
X99171000Y-109683400D03*
D14*
%TO.P,J1,2,Pin_2*%
%TO.N,A21*%
X99171000Y-107143400D03*
%TO.P,J1,3,Pin_3*%
%TO.N,A22*%
X99171000Y-104603400D03*
%TO.P,J1,4,Pin_4*%
%TO.N,A23*%
X99171000Y-102063400D03*
%TD*%
D10*
%TO.P,C11,1,1*%
%TO.N,VCC*%
X147100000Y-128000000D03*
%TO.P,C11,2,2*%
%TO.N,GND*%
X147100000Y-125500000D03*
%TD*%
%TO.P,C9,1,1*%
%TO.N,VCC*%
X119350000Y-97900000D03*
%TO.P,C9,2,2*%
%TO.N,GND*%
X119350000Y-95400000D03*
%TD*%
D11*
%TO.P,U3,1,A18*%
%TO.N,A19*%
X127800000Y-101900000D03*
D12*
%TO.P,U3,2,A16*%
%TO.N,A17*%
X127800000Y-104440000D03*
%TO.P,U3,3,A14*%
%TO.N,A15*%
X127800000Y-106980000D03*
%TO.P,U3,4,A12*%
%TO.N,A13*%
X127800000Y-109520000D03*
%TO.P,U3,5,A7*%
%TO.N,A8*%
X127800000Y-112060000D03*
%TO.P,U3,6,A6*%
%TO.N,A7*%
X127800000Y-114600000D03*
%TO.P,U3,7,A5*%
%TO.N,A6*%
X127800000Y-117140000D03*
%TO.P,U3,8,A4*%
%TO.N,A5*%
X127800000Y-119680000D03*
%TO.P,U3,9,A3*%
%TO.N,A4*%
X127800000Y-122220000D03*
%TO.P,U3,10,A2*%
%TO.N,A3*%
X127800000Y-124760000D03*
%TO.P,U3,11,A1*%
%TO.N,A2*%
X127800000Y-127300000D03*
%TO.P,U3,12,A0*%
%TO.N,A1*%
X127800000Y-129840000D03*
%TO.P,U3,13,DQ0*%
%TO.N,D0*%
X127800000Y-132380000D03*
%TO.P,U3,14,DQ1*%
%TO.N,D1*%
X127800000Y-134920000D03*
%TO.P,U3,15,DQ2*%
%TO.N,D2*%
X127800000Y-137460000D03*
%TO.P,U3,16,VSS*%
%TO.N,GND*%
X127800000Y-140000000D03*
%TO.P,U3,17,DQ3*%
%TO.N,D3*%
X143040000Y-140000000D03*
%TO.P,U3,18,DQ4*%
%TO.N,D4*%
X143040000Y-137460000D03*
%TO.P,U3,19,DQ5*%
%TO.N,D5*%
X143040000Y-134920000D03*
%TO.P,U3,20,DQ6*%
%TO.N,D6*%
X143040000Y-132380000D03*
%TO.P,U3,21,DQ7*%
%TO.N,D7*%
X143040000Y-129840000D03*
%TO.P,U3,22,CE*%
%TO.N,ODDRAMSEL*%
X143040000Y-127300000D03*
%TO.P,U3,23,A10*%
%TO.N,A11*%
X143040000Y-124760000D03*
%TO.P,U3,24,OE*%
%TO.N,WR*%
X143040000Y-122220000D03*
%TO.P,U3,25,A11*%
%TO.N,A12*%
X143040000Y-119680000D03*
%TO.P,U3,26,A9*%
%TO.N,A10*%
X143040000Y-117140000D03*
%TO.P,U3,27,A8*%
%TO.N,A9*%
X143040000Y-114600000D03*
%TO.P,U3,28,A13*%
%TO.N,A14*%
X143040000Y-112060000D03*
%TO.P,U3,29,WE*%
%TO.N,RW*%
X143040000Y-109520000D03*
%TO.P,U3,30,A17*%
%TO.N,A18*%
X143040000Y-106980000D03*
%TO.P,U3,31,A15*%
%TO.N,A16*%
X143040000Y-104440000D03*
%TO.P,U3,32,VCC*%
%TO.N,VCC*%
X143040000Y-101900000D03*
%TD*%
D10*
%TO.P,C1,1,1*%
%TO.N,VCC*%
X98550000Y-94550000D03*
%TO.P,C1,2,2*%
%TO.N,GND*%
X98550000Y-97050000D03*
%TD*%
D15*
%TO.P,U1,1,E*%
%TO.N,ODDRAMSEL*%
X115525000Y-114675000D03*
D16*
%TO.P,U1,2,A0*%
%TO.N,A20*%
X115525000Y-117215000D03*
%TO.P,U1,3,A1*%
%TO.N,A21*%
X115525000Y-119755000D03*
%TO.P,U1,4,O0*%
%TO.N,ODDRAM0*%
X115525000Y-122295000D03*
%TO.P,U1,5,O1*%
%TO.N,ODDRAM1*%
X115525000Y-124835000D03*
%TO.P,U1,6,O2*%
%TO.N,ODDRAM2*%
X115525000Y-127375000D03*
%TO.P,U1,7,O3*%
%TO.N,ODDRAM3*%
X115525000Y-129915000D03*
%TO.P,U1,8,GND*%
%TO.N,GND*%
X115525000Y-132455000D03*
%TO.P,U1,9,O3*%
%TO.N,EVENRAM3*%
X123145000Y-132455000D03*
%TO.P,U1,10,O2*%
%TO.N,EVENRAM2*%
X123145000Y-129915000D03*
%TO.P,U1,11,O1*%
%TO.N,EVENRAM1*%
X123145000Y-127375000D03*
%TO.P,U1,12,O0*%
%TO.N,EVENRAM0*%
X123145000Y-124835000D03*
%TO.P,U1,13,A1*%
%TO.N,A21*%
X123145000Y-122295000D03*
%TO.P,U1,14,A0*%
%TO.N,A20*%
X123145000Y-119755000D03*
%TO.P,U1,15,E*%
%TO.N,EVENRAMSEL*%
X123145000Y-117215000D03*
%TO.P,U1,16,VCC*%
%TO.N,VCC*%
X123145000Y-114675000D03*
%TD*%
D17*
%TO.N,A20*%
X108433800Y-109930500D03*
X119523900Y-118109400D03*
%TO.N,A19*%
X125175000Y-101607700D03*
X126780300Y-107663300D03*
X153011900Y-108074300D03*
X86900600Y-135769400D03*
X136287600Y-135874000D03*
X84916900Y-108287700D03*
%TO.N,A17*%
X97327000Y-104958300D03*
X81404000Y-105525600D03*
X95579200Y-133961200D03*
X81403100Y-132729600D03*
X156231100Y-106170000D03*
X100727000Y-105531700D03*
%TO.N,A16*%
X86324700Y-131962200D03*
X166599454Y-131364011D03*
X84905700Y-104299700D03*
X115934300Y-103385700D03*
X95112800Y-132588200D03*
X134351200Y-131696100D03*
X109936100Y-104265000D03*
%TO.N,A13*%
X156473500Y-119915000D03*
X123938500Y-92233700D03*
X132361200Y-119805500D03*
X84962900Y-119259300D03*
X88621700Y-91565000D03*
X156692600Y-91565000D03*
X124723800Y-109433000D03*
X128199400Y-91958200D03*
%TO.N,A8*%
X150261200Y-114069200D03*
X143804200Y-89802700D03*
%TO.N,A7*%
X142041100Y-118898500D03*
X91219600Y-120092800D03*
X132928500Y-91565000D03*
X148402900Y-115763200D03*
X126145800Y-91632500D03*
X105591200Y-91607400D03*
X152459600Y-91565000D03*
X101630600Y-91634400D03*
%TO.N,A6*%
X94730400Y-121085000D03*
X113886700Y-116970700D03*
X106912600Y-92835000D03*
X97443500Y-92835000D03*
%TO.N,A5*%
X134832100Y-132472500D03*
X136666700Y-104265000D03*
X97633300Y-103990100D03*
X112120400Y-103565900D03*
X95154100Y-131947000D03*
X158019100Y-104479200D03*
X144267500Y-132215500D03*
X106592100Y-105970300D03*
X126239300Y-105729300D03*
X110694700Y-106032800D03*
X95429100Y-103990100D03*
%TO.N,A4*%
X138584300Y-133483900D03*
X145897000Y-105535000D03*
X160289500Y-105535000D03*
X133818700Y-132527700D03*
X162910900Y-134553100D03*
X160013500Y-122448000D03*
%TO.N,A3*%
X115875700Y-106797100D03*
X132300000Y-130200000D03*
X96845600Y-106805000D03*
X160488800Y-106696400D03*
X145153650Y-132003650D03*
X106006600Y-106530600D03*
X125319700Y-124452000D03*
X137535400Y-134834500D03*
X102084900Y-135057400D03*
X95757200Y-106805000D03*
X162788600Y-135276000D03*
X160162200Y-126062300D03*
X97343900Y-135055000D03*
%TO.N,A2*%
X149682500Y-136298600D03*
X125573500Y-108447600D03*
X137905600Y-136425000D03*
%TO.N,A1*%
X125223200Y-110365200D03*
X137284100Y-137089200D03*
X150172400Y-138035900D03*
%TO.N,D0*%
X124716800Y-131939900D03*
X147150000Y-131376700D03*
X126192400Y-129804500D03*
X121025400Y-131403700D03*
%TO.N,D1*%
X96608700Y-128737900D03*
X117397900Y-128989600D03*
X159529700Y-129991100D03*
X122394400Y-134899100D03*
X102364500Y-128705000D03*
%TO.N,D2*%
X97423300Y-125048100D03*
X142034200Y-123245000D03*
X102319700Y-124895000D03*
X112660700Y-125243200D03*
X137202500Y-125200000D03*
X136527800Y-128998900D03*
D18*
%TO.N,GND*%
X97715000Y-127435000D03*
X90650000Y-125600000D03*
X85000000Y-127550000D03*
X107385000Y-126165000D03*
X85150000Y-99700000D03*
X150250000Y-98400000D03*
X142300000Y-97750000D03*
X134435000Y-127535000D03*
X156400000Y-127100000D03*
X128350000Y-98900000D03*
X95385000Y-97915000D03*
X137985000Y-126265000D03*
X105915000Y-99185000D03*
D17*
%TO.N,D3*%
X112811100Y-124622700D03*
X160499200Y-123881700D03*
%TO.N,D4*%
X152985700Y-123987400D03*
X113420000Y-126601700D03*
%TO.N,D5*%
X153187500Y-125585800D03*
%TO.N,D6*%
X141955400Y-128236500D03*
X143902400Y-129004600D03*
%TO.N,D7*%
X90582400Y-129975000D03*
X126609000Y-130899000D03*
X94677400Y-130033600D03*
X107841600Y-129893500D03*
%TO.N,ODDRAM0*%
X97010000Y-131245000D03*
%TO.N,A11*%
X137960900Y-87780600D03*
X162940100Y-119231300D03*
X152985500Y-89201700D03*
X84905700Y-89238000D03*
X134949800Y-118061800D03*
X82303700Y-114614200D03*
X156260300Y-119231300D03*
X150140300Y-118146300D03*
X95652400Y-89025000D03*
%TO.N,WR*%
X159530900Y-123470000D03*
X86414400Y-102995000D03*
X159271200Y-102900700D03*
X144042100Y-103546100D03*
X135299300Y-131175000D03*
X156569900Y-131262300D03*
X87270900Y-130655800D03*
%TO.N,A12*%
X95613100Y-118545000D03*
X89182500Y-118545000D03*
X89426900Y-90883200D03*
%TO.N,A10*%
X162242800Y-87755000D03*
%TO.N,A9*%
X90730800Y-117484400D03*
X98010300Y-117351500D03*
X166298600Y-89292500D03*
X91167100Y-89512500D03*
X106505300Y-89025000D03*
X127808000Y-89025000D03*
X107841600Y-117094600D03*
X137511500Y-88395900D03*
%TO.N,A14*%
X152919000Y-121317400D03*
X98108100Y-92503400D03*
X94774900Y-94864700D03*
X137130600Y-121185000D03*
X157311200Y-111703200D03*
X132342300Y-92835000D03*
X86825700Y-94662600D03*
X95272600Y-121580700D03*
X90662400Y-121008600D03*
X162441100Y-93156100D03*
X156580400Y-121308500D03*
X142175600Y-92815600D03*
%TO.N,A15*%
X118262100Y-121921300D03*
X156588900Y-122455000D03*
X157786600Y-107609900D03*
X128768700Y-93941500D03*
X108487400Y-93827700D03*
X147131400Y-94105000D03*
X126842300Y-121138900D03*
X117686000Y-119304700D03*
%TO.N,A18*%
X170046500Y-107647400D03*
X89074600Y-134499400D03*
X96970600Y-107990100D03*
X157967100Y-135782600D03*
X169171600Y-135985700D03*
X88621700Y-107440000D03*
X121244900Y-136164700D03*
X100470500Y-107623700D03*
D18*
%TO.N,VCC*%
X142415000Y-99185000D03*
X156450000Y-125850000D03*
X97350000Y-126000000D03*
X95500000Y-99200000D03*
X107615000Y-127435000D03*
X84900000Y-126550000D03*
X90865000Y-127435000D03*
X152900000Y-97850000D03*
X132900000Y-125850000D03*
X101750000Y-98300000D03*
X85200000Y-98450000D03*
X111750000Y-99250000D03*
X132450000Y-98300000D03*
X138315000Y-127535000D03*
D17*
%TO.N,D8*%
X122391000Y-101725000D03*
X157177700Y-102444000D03*
X96828600Y-101674900D03*
X106292200Y-101767600D03*
%TO.N,D9*%
X160323200Y-100540700D03*
X106292200Y-100491600D03*
X150909427Y-99280473D03*
X127892000Y-100292400D03*
X150112700Y-100231000D03*
X99787400Y-99728500D03*
%TO.N,D10*%
X149071500Y-97163600D03*
X158704000Y-97192600D03*
X117374600Y-99324400D03*
X143625300Y-97004000D03*
X106197400Y-96346100D03*
X96981800Y-96645000D03*
X133553600Y-97337200D03*
X116362800Y-96310800D03*
%TO.N,D11*%
X166435700Y-94943500D03*
%TO.N,D12*%
X159950000Y-96000000D03*
%TO.N,D13*%
X161900000Y-96500000D03*
%TO.N,D14*%
X166132200Y-101123100D03*
%TO.N,D15*%
X161996800Y-101725000D03*
%TO.N,ODDRAMSEL*%
X121469500Y-121716900D03*
X119617900Y-121716900D03*
X124264300Y-125879300D03*
%TO.N,RW*%
X107912500Y-122047700D03*
X96960900Y-122437100D03*
X161381600Y-110244800D03*
X161989400Y-121857300D03*
X160212000Y-93538000D03*
X106463600Y-94303000D03*
X135010900Y-121929000D03*
X96676100Y-94198200D03*
%TO.N,EVENRAM0*%
X99038800Y-103333400D03*
%TO.N,ODDRAM1*%
X111399500Y-131136200D03*
%TO.N,EVENRAM1*%
X115377400Y-104022000D03*
%TO.N,EVENRAM2*%
X121204800Y-127163000D03*
X132861000Y-102886200D03*
X120335400Y-115063400D03*
X130683200Y-112737600D03*
%TO.N,ODDRAM3*%
X131073900Y-139022900D03*
%TO.N,EVENRAM3*%
X160049200Y-102995000D03*
%TD*%
D19*
%TO.N,A20*%
X108433800Y-109930500D02*
X108433800Y-110495400D01*
X108433800Y-110495400D02*
X115153400Y-117215000D01*
%TO.N,A21*%
X115525000Y-119755000D02*
X114074700Y-119755000D01*
X101463100Y-107143400D02*
X99171000Y-107143400D01*
X114074700Y-119755000D02*
X101463100Y-107143400D01*
%TO.N,A19*%
X129528000Y-127128000D02*
X129528000Y-129114300D01*
X128250000Y-125850000D02*
X129528000Y-127128000D01*
X127405766Y-125850000D02*
X128250000Y-125850000D01*
X153050400Y-104000700D02*
X153050400Y-108035800D01*
X127800000Y-101900000D02*
X128850300Y-101900000D01*
X126497400Y-123471300D02*
X126497400Y-124902600D01*
X126497400Y-124941634D02*
X127405766Y-125850000D01*
X126048900Y-123022800D02*
X126497400Y-123471300D01*
X152000000Y-102425100D02*
X152000000Y-102950300D01*
X130290500Y-100459800D02*
X149669400Y-100459800D01*
X152000000Y-102950300D02*
X153050400Y-104000700D01*
X136287600Y-135873900D02*
X136287600Y-135874000D01*
X126497400Y-124902600D02*
X126497400Y-124947100D01*
X125175000Y-101607700D02*
X125175000Y-106058000D01*
X129528000Y-129114300D02*
X136287600Y-135873900D01*
X126048900Y-108394700D02*
X126048900Y-123022800D01*
X149669400Y-100459800D02*
X151634700Y-102425100D01*
X126780300Y-107663300D02*
X126048900Y-108394700D01*
X85822000Y-109192800D02*
X85822000Y-134690800D01*
X125175000Y-106058000D02*
X126780300Y-107663300D01*
X84916900Y-108287700D02*
X85822000Y-109192800D01*
X85822000Y-134690800D02*
X86900600Y-135769400D01*
X128850300Y-101900000D02*
X130290500Y-100459800D01*
X153050400Y-108035800D02*
X153011900Y-108074300D01*
%TO.N,A17*%
X81404000Y-132728700D02*
X81403100Y-132729600D01*
X132457400Y-100832900D02*
X147342600Y-100832900D01*
X152000000Y-104440000D02*
X150949700Y-104440000D01*
X81404000Y-105525600D02*
X81404000Y-132728700D01*
X147342600Y-100832900D02*
X150949700Y-104440000D01*
X100509300Y-105749400D02*
X100727000Y-105531700D01*
X81404000Y-132728700D02*
X84956900Y-136281600D01*
X127800000Y-104440000D02*
X128850300Y-104440000D01*
X84956900Y-136281600D02*
X93258800Y-136281600D01*
X98118100Y-105749400D02*
X100509300Y-105749400D01*
X93258800Y-136281600D02*
X95579200Y-133961200D01*
X128850300Y-104440000D02*
X132457400Y-100832900D01*
X97327000Y-104958300D02*
X98118100Y-105749400D01*
%TO.N,A16*%
X84905700Y-104299700D02*
X86324700Y-105718700D01*
X169043700Y-132112100D02*
X167725400Y-133430400D01*
X86324700Y-131962200D02*
X86324700Y-132473800D01*
X88885500Y-135034600D02*
X92666400Y-135034600D01*
X166189600Y-131773865D02*
X166599454Y-131364011D01*
X111112600Y-103088500D02*
X115637100Y-103088500D01*
X167725400Y-133430400D02*
X166762400Y-133430400D01*
X166189600Y-132857600D02*
X166189600Y-131773865D01*
X109936100Y-104265000D02*
X111112600Y-103088500D01*
X115637100Y-103088500D02*
X115934300Y-103385700D01*
X167240000Y-104440000D02*
X169043700Y-106243700D01*
X166762400Y-133430400D02*
X166189600Y-132857600D01*
X86324700Y-132473800D02*
X88885500Y-135034600D01*
X92666400Y-135034600D02*
X95112800Y-132588200D01*
X143040000Y-104965100D02*
X133773300Y-114231800D01*
X133773300Y-131118200D02*
X134351200Y-131696100D01*
X169043700Y-106243700D02*
X169043700Y-132112100D01*
X133773300Y-114231800D02*
X133773300Y-131118200D01*
X86324700Y-105718700D02*
X86324700Y-131962200D01*
%TO.N,A13*%
X142922200Y-103037100D02*
X132361300Y-113598000D01*
X124631800Y-109341000D02*
X124631800Y-92835000D01*
X84423100Y-118719500D02*
X84962900Y-119259300D01*
X156735700Y-119652800D02*
X156473500Y-119915000D01*
X152096300Y-115739400D02*
X156271900Y-119915000D01*
X132361300Y-113598000D02*
X132361300Y-119805500D01*
X150949700Y-109520000D02*
X149763000Y-110706700D01*
X150949700Y-109520000D02*
X144466800Y-103037100D01*
X128199400Y-91958200D02*
X127322600Y-92835000D01*
X84423100Y-95763600D02*
X84423100Y-118719500D01*
X127800000Y-109520000D02*
X127800000Y-110570300D01*
X156485600Y-107743400D02*
X156485600Y-112045100D01*
X88621700Y-91565000D02*
X84423100Y-95763600D01*
X157060300Y-107168700D02*
X156485600Y-107743400D01*
X132361200Y-115131500D02*
X127800000Y-110570300D01*
X151187700Y-115739400D02*
X152096300Y-115739400D01*
X127322600Y-92835000D02*
X124631800Y-92835000D01*
X157060300Y-104453000D02*
X157060300Y-107168700D01*
X149763000Y-114314700D02*
X151187700Y-115739400D01*
X156735700Y-112295200D02*
X156735700Y-119652800D01*
X156485600Y-112045100D02*
X156735700Y-112295200D01*
X132361200Y-119805500D02*
X132361200Y-115131500D01*
X156702400Y-104095100D02*
X157060300Y-104453000D01*
X124723800Y-109433000D02*
X124631800Y-109341000D01*
X156702400Y-91574800D02*
X156702400Y-104095100D01*
X156271900Y-119915000D02*
X156473500Y-119915000D01*
X152000000Y-109520000D02*
X150949700Y-109520000D01*
X144466800Y-103037100D02*
X142922200Y-103037100D01*
X156692600Y-91565000D02*
X156702400Y-91574800D01*
X132361300Y-119805500D02*
X132361200Y-119805500D01*
X124539800Y-92835000D02*
X123938500Y-92233700D01*
X124631800Y-92835000D02*
X124539800Y-92835000D01*
X149763000Y-110706700D02*
X149763000Y-114314700D01*
%TO.N,A8*%
X150261200Y-114069200D02*
X152000000Y-112330400D01*
X153877500Y-109132200D02*
X153877500Y-99876000D01*
X152000000Y-111009700D02*
X153877500Y-109132200D01*
X152000000Y-112060000D02*
X152000000Y-111009700D01*
X153877500Y-99876000D02*
X143804200Y-89802700D01*
%TO.N,A7*%
X152000000Y-113549700D02*
X154227800Y-111321900D01*
X91219600Y-97723800D02*
X91219600Y-120092800D01*
X142470300Y-118469300D02*
X145696800Y-118469300D01*
X154227800Y-111321900D02*
X154227800Y-93333200D01*
X101630600Y-91634400D02*
X101547200Y-91717800D01*
X145696800Y-118469300D02*
X148402900Y-115763200D01*
X97225600Y-91717800D02*
X91219600Y-97723800D01*
X132846400Y-91482900D02*
X126295400Y-91482900D01*
X101547200Y-91717800D02*
X97225600Y-91717800D01*
X152000000Y-114600000D02*
X152000000Y-113549700D01*
X132928500Y-91565000D02*
X132846400Y-91482900D01*
X101657600Y-91607400D02*
X101630600Y-91634400D01*
X142041100Y-118898500D02*
X142470300Y-118469300D01*
X126295400Y-91482900D02*
X126145800Y-91632500D01*
X154227800Y-93333200D02*
X152459600Y-91565000D01*
X105591200Y-91607400D02*
X101657600Y-91607400D01*
%TO.N,A6*%
X94730400Y-95648400D02*
X95283700Y-95095100D01*
X107067400Y-110151400D02*
X107067400Y-92989800D01*
X95283700Y-95095100D02*
X95283700Y-94857400D01*
X107067400Y-92989800D02*
X106912600Y-92835000D01*
X113886700Y-116970700D02*
X107067400Y-110151400D01*
X97587200Y-92978700D02*
X106768900Y-92978700D01*
X97306100Y-92835000D02*
X97443500Y-92835000D01*
X106768900Y-92978700D02*
X106912600Y-92835000D01*
X94730400Y-121085000D02*
X94730400Y-95648400D01*
X95283700Y-94857400D02*
X97306100Y-92835000D01*
X97443500Y-92835000D02*
X97587200Y-92978700D01*
%TO.N,A5*%
X153418600Y-121098600D02*
X155973600Y-121098600D01*
X127360700Y-108469600D02*
X127835200Y-108469600D01*
X146665000Y-126949700D02*
X147844500Y-126949700D01*
X157786600Y-106937900D02*
X157786600Y-104711700D01*
X106592100Y-105970300D02*
X106592100Y-106632500D01*
X147844500Y-126949700D02*
X151304200Y-123490000D01*
X156835900Y-111900000D02*
X156835900Y-107888600D01*
X155973600Y-121098600D02*
X157086000Y-119986200D01*
X136666700Y-104265000D02*
X134401300Y-106530400D01*
X112120400Y-105649200D02*
X111078300Y-105649200D01*
X133212500Y-127714700D02*
X132035400Y-126537600D01*
X127800000Y-119680000D02*
X127800000Y-120730300D01*
X153418600Y-122317000D02*
X153418600Y-121098600D01*
X96107500Y-121969300D02*
X96107500Y-116561800D01*
X95250300Y-104168900D02*
X95429100Y-103990100D01*
X98766700Y-100904500D02*
X97633300Y-102037900D01*
X134455200Y-132472500D02*
X133212500Y-131229800D01*
X96107500Y-116561800D02*
X95250300Y-115704600D01*
X95250300Y-115704600D02*
X95250300Y-104168900D01*
X153050300Y-120730300D02*
X152000000Y-120730300D01*
X106202300Y-107022300D02*
X105760500Y-107022300D01*
X157086000Y-119986200D02*
X157086000Y-112150100D01*
X127800000Y-118629700D02*
X126749600Y-117579300D01*
X132035400Y-126537600D02*
X132035400Y-124965700D01*
X157786600Y-104711700D02*
X158019100Y-104479200D01*
X126749600Y-109080700D02*
X127360700Y-108469600D01*
X156835900Y-107888600D02*
X157786600Y-106937900D01*
X152000000Y-119680000D02*
X152000000Y-120730300D01*
X105760500Y-107022300D02*
X99642700Y-100904500D01*
X106592100Y-106632500D02*
X106202300Y-107022300D01*
X157086000Y-112150100D02*
X156835900Y-111900000D01*
X144267600Y-132215500D02*
X144267600Y-129347100D01*
X151304200Y-123490000D02*
X152245600Y-123490000D01*
X152245600Y-123490000D02*
X153418600Y-122317000D01*
X144267500Y-132215500D02*
X144267600Y-132215500D01*
X111078300Y-105649200D02*
X110694700Y-106032800D01*
X132035400Y-124965700D02*
X127800000Y-120730300D01*
X153418600Y-121098600D02*
X153050300Y-120730300D01*
X97633300Y-102037900D02*
X97633300Y-103990100D01*
X99642700Y-100904500D02*
X98766700Y-100904500D01*
X133212500Y-131229800D02*
X133212500Y-127714700D01*
X127800000Y-119154800D02*
X127800000Y-118629700D01*
X95154100Y-131947000D02*
X95154100Y-122922700D01*
X144267600Y-129347100D02*
X146665000Y-126949700D01*
X134832100Y-132472500D02*
X134455200Y-132472500D01*
X134401300Y-106530400D02*
X128878800Y-106530400D01*
X128878800Y-106530400D02*
X128077700Y-105729300D01*
X127835200Y-108469600D02*
X128878800Y-107426000D01*
X128077700Y-105729300D02*
X126239300Y-105729300D01*
X128878800Y-107426000D02*
X128878800Y-106530400D01*
X112120400Y-103565900D02*
X112120400Y-105649200D01*
X95154100Y-122922700D02*
X96107500Y-121969300D01*
X126749600Y-117579300D02*
X126749600Y-109080700D01*
%TO.N,A4*%
X132862200Y-128332500D02*
X127800000Y-123270300D01*
X132862200Y-131374900D02*
X132862200Y-128332500D01*
X145897000Y-112530600D02*
X145897000Y-105535000D01*
X150633700Y-122220000D02*
X147680500Y-122220000D01*
X160013500Y-105811000D02*
X160013500Y-122448000D01*
X150633700Y-122220000D02*
X150633700Y-117267300D01*
X138584300Y-133483900D02*
X134971200Y-133483900D01*
X134971200Y-133483900D02*
X133916900Y-132429500D01*
X147680500Y-122220000D02*
X143746600Y-126153900D01*
X152000000Y-122220000D02*
X150633700Y-122220000D01*
X160289500Y-105535000D02*
X160013500Y-105811000D01*
X142623100Y-126153900D02*
X138584300Y-130192700D01*
X127800000Y-122220000D02*
X127800000Y-123270300D01*
X133916900Y-132429500D02*
X132862200Y-131374900D01*
X160987900Y-123422400D02*
X160013500Y-122448000D01*
X150633700Y-117267300D02*
X145897000Y-112530600D01*
X133818700Y-132527700D02*
X133916900Y-132429500D01*
X160987900Y-132630100D02*
X160987900Y-123422400D01*
X162910900Y-134553100D02*
X160987900Y-132630100D01*
X138584300Y-130192700D02*
X138584300Y-133483900D01*
X143746600Y-126153900D02*
X142623100Y-126153900D01*
%TO.N,A3*%
X115875700Y-106797100D02*
X115875700Y-107668500D01*
X123787200Y-121025000D02*
X124840700Y-122078500D01*
X122461100Y-121025000D02*
X123787200Y-121025000D01*
X160512600Y-126412700D02*
X160512600Y-132911100D01*
X124840700Y-122078500D02*
X124840700Y-123973000D01*
X160162200Y-126062300D02*
X160512600Y-126412700D01*
X96845600Y-102330200D02*
X96845600Y-106805000D01*
X98621600Y-100554200D02*
X96845600Y-102330200D01*
X127800000Y-124760000D02*
X132170000Y-129130000D01*
X162788600Y-135187100D02*
X163000500Y-135187100D01*
X132170000Y-129130000D02*
X132170000Y-130070000D01*
X160488800Y-122251100D02*
X160488800Y-106696400D01*
X100030200Y-100554200D02*
X98621600Y-100554200D01*
X163386300Y-134801300D02*
X163386300Y-133967500D01*
X96107500Y-122640000D02*
X96457800Y-122289700D01*
X152000000Y-124760000D02*
X145991500Y-130768500D01*
X102084900Y-135057400D02*
X97346300Y-135057400D01*
X139396200Y-133474700D02*
X138036400Y-134834500D01*
X163000500Y-135187100D02*
X163386300Y-134801300D01*
X160512600Y-132911100D02*
X162788600Y-135187100D01*
X138036400Y-134834500D02*
X137535400Y-134834500D01*
X96457800Y-122289700D02*
X96457800Y-116241800D01*
X162788600Y-135276000D02*
X162788600Y-135187100D01*
X95757200Y-115541200D02*
X95757200Y-106805000D01*
X161732600Y-123494900D02*
X160488800Y-122251100D01*
X145153650Y-132003650D02*
X143682600Y-133474700D01*
X96457800Y-116241800D02*
X95757200Y-115541200D01*
X106006600Y-106530600D02*
X100030200Y-100554200D01*
X96107500Y-133818600D02*
X96107500Y-122640000D01*
X143682600Y-133474700D02*
X139396200Y-133474700D01*
X145991500Y-130768500D02*
X145991500Y-131165800D01*
X121161000Y-119724900D02*
X122461100Y-121025000D01*
X161732600Y-132313800D02*
X161732600Y-123494900D01*
X115875700Y-107668500D02*
X121161000Y-112953800D01*
X97343900Y-135055000D02*
X96107500Y-133818600D01*
X132170000Y-130070000D02*
X132300000Y-130200000D01*
X97346300Y-135057400D02*
X97343900Y-135055000D01*
X121161000Y-112953800D02*
X121161000Y-119724900D01*
X163386300Y-133967500D02*
X161732600Y-132313800D01*
X145991500Y-131165800D02*
X145153650Y-132003650D01*
X124840700Y-123973000D02*
X125319700Y-124452000D01*
%TO.N,A2*%
X151504600Y-128350300D02*
X149682600Y-130172300D01*
X126147100Y-125092200D02*
X126902450Y-125847550D01*
X149682600Y-130172300D02*
X149682600Y-136298600D01*
X152000000Y-127300000D02*
X152000000Y-128350300D01*
X136162100Y-136425000D02*
X137905600Y-136425000D01*
X127800000Y-127300000D02*
X127800000Y-128062900D01*
X125698500Y-108572600D02*
X125698500Y-123167800D01*
X126902450Y-125847550D02*
X126902450Y-126402450D01*
X126902450Y-126402450D02*
X127800000Y-127300000D01*
X126147100Y-123616400D02*
X126147100Y-125092200D01*
X125573500Y-108447600D02*
X125698500Y-108572600D01*
X127800000Y-128062900D02*
X136162100Y-136425000D01*
X149682600Y-136298600D02*
X149682500Y-136298600D01*
X125698500Y-123167800D02*
X126147100Y-123616400D01*
X152000000Y-128350300D02*
X151504600Y-128350300D01*
%TO.N,A1*%
X150581800Y-137626500D02*
X150172400Y-138035900D01*
X128972700Y-129840000D02*
X136221900Y-137089200D01*
X127800000Y-129840000D02*
X127800000Y-128789700D01*
X152000000Y-130890300D02*
X150581800Y-132308500D01*
X152000000Y-129840000D02*
X152000000Y-130890300D01*
X127800000Y-129840000D02*
X128972700Y-129840000D01*
X136221900Y-137089200D02*
X137284100Y-137089200D01*
X127800000Y-128789700D02*
X125796800Y-126786500D01*
X125223200Y-123187900D02*
X125223200Y-110365200D01*
X150581800Y-132308500D02*
X150581800Y-137626500D01*
X125796800Y-123761500D02*
X125223200Y-123187900D01*
X125796800Y-126786500D02*
X125796800Y-123761500D01*
%TO.N,D0*%
X127278200Y-130890300D02*
X129527600Y-130890300D01*
X124716800Y-131939900D02*
X124180600Y-131403700D01*
X124180600Y-131403700D02*
X121025400Y-131403700D01*
X126192400Y-129804500D02*
X127278200Y-130890300D01*
X129527600Y-130890300D02*
X136201900Y-137564600D01*
X143038400Y-136409600D02*
X147150000Y-132298000D01*
X136201900Y-137564600D02*
X138030600Y-137564600D01*
X138030600Y-137564600D02*
X139185600Y-136409600D01*
X147150000Y-132298000D02*
X147150000Y-131376700D01*
X139185600Y-136409600D02*
X143038400Y-136409600D01*
%TO.N,D1*%
X117397900Y-128989600D02*
X117397900Y-129902600D01*
X96533300Y-128813300D02*
X96533300Y-131476900D01*
X96850600Y-131794200D02*
X99275300Y-131794200D01*
X96533300Y-131476900D02*
X96850600Y-131794200D01*
X132792700Y-138862400D02*
X152607700Y-138862400D01*
X99275300Y-131794200D02*
X102364500Y-128705000D01*
X127800000Y-134920000D02*
X128850300Y-134920000D01*
X117397900Y-129902600D02*
X122394400Y-134899100D01*
X96608700Y-128737900D02*
X96533300Y-128813300D01*
X152607700Y-138862400D02*
X159529700Y-131940400D01*
X159529700Y-131940400D02*
X159529700Y-129991100D01*
X128850300Y-134920000D02*
X132792700Y-138862400D01*
%TO.N,D2*%
X112660700Y-126592400D02*
X112660700Y-125243200D01*
X136527800Y-125874700D02*
X137202500Y-125200000D01*
X140079200Y-125200000D02*
X142034200Y-123245000D01*
X117910200Y-128789700D02*
X117600900Y-128480400D01*
X117600900Y-128480400D02*
X114548700Y-128480400D01*
X136527800Y-128998900D02*
X136527800Y-125874700D01*
X102166600Y-125048100D02*
X102319700Y-124895000D01*
X126200900Y-137460000D02*
X117910200Y-129169300D01*
X114548700Y-128480400D02*
X112660700Y-126592400D01*
X137202500Y-125200000D02*
X140079200Y-125200000D01*
X127274900Y-137460000D02*
X126200900Y-137460000D01*
X117910200Y-129169300D02*
X117910200Y-128789700D01*
X97423300Y-125048100D02*
X102166600Y-125048100D01*
%TO.N,D3*%
X144090300Y-140000000D02*
X145140600Y-141050300D01*
X159686900Y-124694000D02*
X160499200Y-123881700D01*
X143565200Y-140000000D02*
X144090300Y-140000000D01*
X111399500Y-127758900D02*
X111399500Y-124719600D01*
X130598600Y-140000000D02*
X129548200Y-138949600D01*
X129548200Y-138949600D02*
X124749100Y-138949600D01*
X160037200Y-126609400D02*
X159686900Y-126259100D01*
X124749100Y-138949600D02*
X116984500Y-131185000D01*
X159686900Y-126259100D02*
X159686900Y-124694000D01*
X114825600Y-131185000D02*
X111399500Y-127758900D01*
X143040000Y-140000000D02*
X130598600Y-140000000D01*
X157491800Y-135585800D02*
X160037200Y-133040400D01*
X111719200Y-124399900D02*
X112588300Y-124399900D01*
X116984500Y-131185000D02*
X114825600Y-131185000D01*
X157491800Y-136085300D02*
X157491800Y-135585800D01*
X160037200Y-133040400D02*
X160037200Y-126609400D01*
X145140600Y-141050300D02*
X152526800Y-141050300D01*
X112588300Y-124399900D02*
X112811100Y-124622700D01*
X111399500Y-124719600D02*
X111719200Y-124399900D01*
X152526800Y-141050300D02*
X157491800Y-136085300D01*
%TO.N,D4*%
X143040000Y-137460000D02*
X149193400Y-137460000D01*
X122060000Y-131053300D02*
X125306700Y-131053300D01*
X152100800Y-128789600D02*
X151560700Y-128789600D01*
X151560700Y-128789600D02*
X150231500Y-130118800D01*
X113725100Y-126296600D02*
X117303300Y-126296600D01*
X153704000Y-124705700D02*
X153704000Y-127186400D01*
X150231500Y-136421900D02*
X149193400Y-137460000D01*
X113420000Y-126601700D02*
X113725100Y-126296600D01*
X136056800Y-137914900D02*
X143110300Y-137914900D01*
X125306700Y-131053300D02*
X125648000Y-131394600D01*
X125648000Y-131394600D02*
X127123400Y-131394600D01*
X127201800Y-131316200D02*
X129458100Y-131316200D01*
X153704000Y-127186400D02*
X152100800Y-128789600D01*
X150231500Y-130118800D02*
X150231500Y-136421900D01*
X127123400Y-131394600D02*
X127201800Y-131316200D01*
X129458100Y-131316200D02*
X136056800Y-137914900D01*
X152985700Y-123987400D02*
X153704000Y-124705700D01*
X117303300Y-126296600D02*
X122060000Y-131053300D01*
%TO.N,D5*%
X151667400Y-125854300D02*
X152919000Y-125854300D01*
X146585850Y-130935850D02*
X151667400Y-125854300D01*
X143040000Y-134920000D02*
X146585850Y-131374150D01*
X152919000Y-125854300D02*
X153187500Y-125585800D01*
X146585850Y-131374150D02*
X146585850Y-130935850D01*
%TO.N,D6*%
X142029100Y-128439800D02*
X143337600Y-128439800D01*
X143337600Y-128439800D02*
X143902400Y-129004600D01*
X142029100Y-128310200D02*
X141955400Y-128236500D01*
X142029100Y-128439800D02*
X142029100Y-128310200D01*
X141964200Y-128504700D02*
X142029100Y-128439800D01*
X143040000Y-131329700D02*
X141964200Y-130253900D01*
X143040000Y-132380000D02*
X143040000Y-131329700D01*
X141964200Y-130253900D02*
X141964200Y-128504700D01*
%TO.N,D7*%
X124543200Y-128833200D02*
X126609000Y-130899000D01*
X121673400Y-128833200D02*
X124543200Y-128833200D01*
X107841600Y-129893500D02*
X108554700Y-129180400D01*
X94618800Y-129975000D02*
X90582400Y-129975000D01*
X108554700Y-129180400D02*
X108554700Y-126573600D01*
X108554700Y-126573600D02*
X111429000Y-123699300D01*
X111429000Y-123699300D02*
X116539500Y-123699300D01*
X116539500Y-123699300D02*
X121673400Y-128833200D01*
X94677400Y-130033600D02*
X94618800Y-129975000D01*
%TO.N,ODDRAM0*%
X115525000Y-122295000D02*
X114074700Y-122295000D01*
X113020700Y-123349000D02*
X106433700Y-123349000D01*
X114074700Y-122295000D02*
X113020700Y-123349000D01*
X106433700Y-123349000D02*
X98537700Y-131245000D01*
X98537700Y-131245000D02*
X97010000Y-131245000D01*
%TO.N,A11*%
X156135300Y-119106300D02*
X156260300Y-119231300D01*
X144090300Y-124760000D02*
X144090300Y-121130500D01*
X152985500Y-89201700D02*
X156352100Y-92568300D01*
X162940100Y-119409800D02*
X162940100Y-119231300D01*
X167240000Y-123709700D02*
X162940100Y-119409800D01*
X134949800Y-119684400D02*
X134949800Y-118061800D01*
X144090300Y-121130500D02*
X138086800Y-121130500D01*
X156352100Y-104240200D02*
X156710000Y-104598100D01*
X156710000Y-106718400D02*
X156135300Y-107293100D01*
X82303700Y-91840000D02*
X84905700Y-89238000D01*
X152985500Y-89201700D02*
X139382000Y-89201700D01*
X139382000Y-89201700D02*
X137960900Y-87780600D01*
X95652400Y-89025000D02*
X85118700Y-89025000D01*
X156352100Y-92568300D02*
X156352100Y-104240200D01*
X147074500Y-118146300D02*
X150140300Y-118146300D01*
X143040000Y-124760000D02*
X144090300Y-124760000D01*
X136937400Y-121672000D02*
X134949800Y-119684400D01*
X156135300Y-107293100D02*
X156135300Y-119106300D01*
X85118700Y-89025000D02*
X84905700Y-89238000D01*
X167240000Y-124760000D02*
X167240000Y-123709700D01*
X156710000Y-104598100D02*
X156710000Y-106718400D01*
X144090300Y-121130500D02*
X147074500Y-118146300D01*
X137545300Y-121672000D02*
X136937400Y-121672000D01*
X138086800Y-121130500D02*
X137545300Y-121672000D01*
X82303700Y-114614200D02*
X82303700Y-91840000D01*
%TO.N,WR*%
X143299300Y-105710000D02*
X144090400Y-104918900D01*
X159663100Y-108387200D02*
X159663100Y-105489000D01*
X139466000Y-122220000D02*
X143040000Y-122220000D01*
X134124100Y-121737000D02*
X134124100Y-114410400D01*
X159538100Y-108512200D02*
X159663100Y-108387200D01*
X137036600Y-124649400D02*
X134124100Y-121737000D01*
X144090400Y-104918900D02*
X144090400Y-103594400D01*
X139466000Y-122220000D02*
X137036600Y-124649400D01*
X159530900Y-123470000D02*
X159336600Y-123664300D01*
X159663100Y-105489000D02*
X159895600Y-105256500D01*
X159336600Y-128495600D02*
X156569900Y-131262300D01*
X159895600Y-103525100D02*
X159271200Y-102900700D01*
X87270900Y-103851500D02*
X87270900Y-130655800D01*
X144090400Y-103594400D02*
X144042100Y-103546100D01*
X159538100Y-123462800D02*
X159538100Y-108512200D01*
X142824500Y-105710000D02*
X143299300Y-105710000D01*
X134124100Y-114410400D02*
X142824500Y-105710000D01*
X135299300Y-126386700D02*
X135299300Y-131175000D01*
X159895600Y-105256500D02*
X159895600Y-103525100D01*
X86414400Y-102995000D02*
X87270900Y-103851500D01*
X159336600Y-123664300D02*
X159336600Y-128495600D01*
X137036600Y-124649400D02*
X135299300Y-126386700D01*
X159530900Y-123470000D02*
X159538100Y-123462800D01*
%TO.N,A12*%
X89182500Y-97794800D02*
X86315400Y-94927700D01*
X95757200Y-121768300D02*
X95438700Y-122086800D01*
X95613100Y-118545000D02*
X95757200Y-118689100D01*
X95438700Y-122086800D02*
X90961700Y-122086800D01*
X90961700Y-122086800D02*
X89182500Y-120307600D01*
X95757200Y-118689100D02*
X95757200Y-121768300D01*
X86591100Y-94187200D02*
X86745400Y-94187200D01*
X86315400Y-94927700D02*
X86315400Y-94462900D01*
X86315400Y-94462900D02*
X86591100Y-94187200D01*
X89426900Y-91505700D02*
X89426900Y-90883200D01*
X86745400Y-94187200D02*
X89426900Y-91505700D01*
X89182500Y-120307600D02*
X89182500Y-118545000D01*
X89182500Y-118545000D02*
X89182500Y-97794800D01*
%TO.N,A10*%
X163129900Y-111979600D02*
X163129900Y-94517400D01*
X161963200Y-88034600D02*
X162242800Y-87755000D01*
X163129900Y-94517400D02*
X161963200Y-93350700D01*
X167240000Y-116089700D02*
X163129900Y-111979600D01*
X161963200Y-93350700D02*
X161963200Y-88034600D01*
X167240000Y-117140000D02*
X167240000Y-116089700D01*
%TO.N,A9*%
X165618000Y-89973100D02*
X166298600Y-89292500D01*
X99918300Y-89025000D02*
X106505300Y-89025000D01*
X97606400Y-91336900D02*
X99918300Y-89025000D01*
X167468200Y-108250000D02*
X167022800Y-108250000D01*
X167022800Y-108250000D02*
X165618000Y-106845200D01*
X167240000Y-113549700D02*
X168343000Y-112446700D01*
X168343000Y-109124800D02*
X167468200Y-108250000D01*
X137511500Y-88395900D02*
X128437100Y-88395900D01*
X128437100Y-88395900D02*
X127808000Y-89025000D01*
X165618000Y-106845200D02*
X165618000Y-89973100D01*
X168343000Y-112446700D02*
X168343000Y-109124800D01*
X107584700Y-117351500D02*
X107841600Y-117094600D01*
X92991500Y-91336900D02*
X91167100Y-89512500D01*
X90730800Y-93597600D02*
X90730800Y-117484400D01*
X167240000Y-114600000D02*
X167240000Y-113549700D01*
X92991500Y-91336900D02*
X97606400Y-91336900D01*
X98010300Y-117351500D02*
X107584700Y-117351500D01*
X92991500Y-91336900D02*
X90730800Y-93597600D01*
%TO.N,A14*%
X97191700Y-92347700D02*
X94774900Y-94764500D01*
X142175600Y-92815600D02*
X132361700Y-92815600D01*
X167240000Y-112060000D02*
X167240000Y-111009700D01*
X94774900Y-94764500D02*
X94774900Y-94864700D01*
X157311200Y-111703200D02*
X157436300Y-111828300D01*
X98108100Y-92503400D02*
X97952400Y-92347700D01*
X137130600Y-121185000D02*
X137130600Y-119019700D01*
X97952400Y-92347700D02*
X97191700Y-92347700D01*
X95272600Y-121580700D02*
X91234500Y-121580700D01*
X164267500Y-108037200D02*
X164267500Y-94982500D01*
X89610900Y-97447800D02*
X86825700Y-94662600D01*
X89610900Y-117932100D02*
X89610900Y-97447800D01*
X90662400Y-118983600D02*
X89610900Y-117932100D01*
X137130600Y-119019700D02*
X143040000Y-113110300D01*
X132361700Y-92815600D02*
X132342300Y-92835000D01*
X164267500Y-94982500D02*
X162441100Y-93156100D01*
X167240000Y-111009700D02*
X164267500Y-108037200D01*
X157436300Y-111828300D02*
X157436300Y-120452600D01*
X157436300Y-120452600D02*
X156580400Y-121308500D01*
X91234500Y-121580700D02*
X90662400Y-121008600D01*
X143040000Y-112060000D02*
X143040000Y-113110300D01*
X90662400Y-121008600D02*
X90662400Y-118983600D01*
%TO.N,A15*%
X108930300Y-110496500D02*
X114378800Y-115945000D01*
X127266000Y-107870600D02*
X126399200Y-108737400D01*
X118262100Y-119880800D02*
X117686000Y-119304700D01*
X128768700Y-93941500D02*
X129110600Y-93599600D01*
X153527200Y-100500800D02*
X153527200Y-108242300D01*
X129110600Y-93599600D02*
X146626000Y-93599600D01*
X157786600Y-121257300D02*
X157786600Y-107609900D01*
X118262100Y-121921300D02*
X118262100Y-119880800D01*
X108930300Y-94270600D02*
X108930300Y-110496500D01*
X126399200Y-120695800D02*
X126842300Y-121138900D01*
X126399200Y-108737400D02*
X126399200Y-120695800D01*
X125720600Y-96989600D02*
X128768700Y-93941500D01*
X108487400Y-93827700D02*
X108930300Y-94270600D01*
X153527200Y-108242300D02*
X153215800Y-108553700D01*
X127266000Y-106980000D02*
X127266000Y-107870600D01*
X156588900Y-122455000D02*
X157786600Y-121257300D01*
X117686000Y-117469800D02*
X117686000Y-119304700D01*
X125720600Y-105925100D02*
X125720600Y-96989600D01*
X127266000Y-106980000D02*
X126775500Y-106980000D01*
X153215800Y-108553700D02*
X152523400Y-108553700D01*
X114378800Y-115945000D02*
X116161200Y-115945000D01*
X116161200Y-115945000D02*
X117686000Y-117469800D01*
X147131400Y-94105000D02*
X153527200Y-100500800D01*
X152000000Y-106980000D02*
X152000000Y-108030300D01*
X146626000Y-93599600D02*
X147131400Y-94105000D01*
X126775500Y-106980000D02*
X125720600Y-105925100D01*
X152523400Y-108553700D02*
X152000000Y-108030300D01*
%TO.N,A18*%
X121244900Y-136164700D02*
X126518400Y-141438200D01*
X88621700Y-107440000D02*
X88621700Y-134046500D01*
X99850400Y-108243800D02*
X100470500Y-107623700D01*
X171722000Y-133435300D02*
X169171600Y-135985700D01*
X126518400Y-141438200D02*
X152700600Y-141438200D01*
X170046500Y-107647400D02*
X171722000Y-109322900D01*
X97224300Y-108243800D02*
X99850400Y-108243800D01*
X96970600Y-107990100D02*
X97224300Y-108243800D01*
X88621700Y-134046500D02*
X89074600Y-134499400D01*
X152700600Y-141438200D02*
X157967100Y-136171700D01*
X171722000Y-109322900D02*
X171722000Y-133435300D01*
X157967100Y-136171700D02*
X157967100Y-135782600D01*
D20*
%TO.N,VCC*%
X123145000Y-114675000D02*
X123145000Y-110355000D01*
D19*
%TO.N,D8*%
X157177700Y-91329100D02*
X157177700Y-102444000D01*
X158494400Y-104282400D02*
X157177700Y-102965700D01*
X158136900Y-122077600D02*
X158136900Y-107931800D01*
X106292200Y-101767600D02*
X104728500Y-100203900D01*
X122391000Y-101725000D02*
X122391000Y-93096900D01*
X104728500Y-100203900D02*
X98299600Y-100203900D01*
X128185200Y-87302700D02*
X153151300Y-87302700D01*
X98299600Y-100203900D02*
X96828600Y-101674900D01*
X158261900Y-107806800D02*
X158261900Y-104908600D01*
X152000000Y-132380000D02*
X157064300Y-127315700D01*
X158494400Y-104676100D02*
X158494400Y-104282400D01*
X157064300Y-123150200D02*
X158136900Y-122077600D01*
X122391000Y-93096900D02*
X128185200Y-87302700D01*
X158136900Y-107931800D02*
X158261900Y-107806800D01*
X153151300Y-87302700D02*
X157177700Y-91329100D01*
X157177700Y-102965700D02*
X157177700Y-102444000D01*
X157064300Y-127315700D02*
X157064300Y-123150200D01*
X158261900Y-104908600D02*
X158494400Y-104676100D01*
%TO.N,D9*%
X152000000Y-133869700D02*
X152548600Y-133869700D01*
X152000000Y-134920000D02*
X152000000Y-133869700D01*
X158837500Y-122542800D02*
X158837500Y-108222000D01*
X158837500Y-108222000D02*
X158962500Y-108097000D01*
X150112700Y-100077200D02*
X150909427Y-99280473D01*
X106292200Y-100491600D02*
X105529100Y-99728500D01*
X158353700Y-103150900D02*
X158353700Y-102510200D01*
X158962500Y-105198800D02*
X159195000Y-104966300D01*
X150112700Y-100077200D02*
X128107200Y-100077200D01*
X158487200Y-122893100D02*
X158837500Y-122542800D01*
X159195000Y-103992200D02*
X158353700Y-103150900D01*
X159195000Y-104966300D02*
X159195000Y-103992200D01*
X105529100Y-99728500D02*
X99787400Y-99728500D01*
X152548600Y-133869700D02*
X158487200Y-127931100D01*
X158962500Y-108097000D02*
X158962500Y-105198800D01*
X158353700Y-102510200D02*
X160323200Y-100540700D01*
X128107200Y-100077200D02*
X127892000Y-100292400D01*
X150112700Y-100231000D02*
X150112700Y-100077200D01*
X158487200Y-127931100D02*
X158487200Y-122893100D01*
%TO.N,D10*%
X158003400Y-97893200D02*
X158704000Y-97192600D01*
X158612200Y-105053700D02*
X158844700Y-104821200D01*
X105844300Y-95993000D02*
X106197400Y-96346100D01*
X158844700Y-104137400D02*
X158003400Y-103296100D01*
X158844700Y-104821200D02*
X158844700Y-104137400D01*
X116362800Y-96310800D02*
X116362800Y-98312600D01*
X151843100Y-133519400D02*
X152350300Y-133519400D01*
X158003400Y-103296100D02*
X158003400Y-97893200D01*
X152000000Y-137460000D02*
X152000000Y-136409700D01*
X133886800Y-97004000D02*
X143625300Y-97004000D01*
X144547700Y-96081600D02*
X147989500Y-96081600D01*
X150932100Y-135341800D02*
X150932100Y-134430400D01*
X152350300Y-133519400D02*
X158136900Y-127732800D01*
X158136900Y-122748000D02*
X158487200Y-122397700D01*
X143625300Y-97004000D02*
X144547700Y-96081600D01*
X147989500Y-96081600D02*
X149071500Y-97163600D01*
X158487200Y-108076900D02*
X158612200Y-107951900D01*
X96981800Y-96645000D02*
X97633800Y-95993000D01*
X150932100Y-134430400D02*
X151843100Y-133519400D01*
X133553600Y-97337200D02*
X133886800Y-97004000D01*
X158612200Y-107951900D02*
X158612200Y-105053700D01*
X158136900Y-127732800D02*
X158136900Y-122748000D01*
X158487200Y-122397700D02*
X158487200Y-108076900D01*
X116362800Y-98312600D02*
X117374600Y-99324400D01*
X97633800Y-95993000D02*
X105844300Y-95993000D01*
X152000000Y-136409700D02*
X150932100Y-135341800D01*
%TO.N,D11*%
X167240000Y-139474800D02*
X168290400Y-138424400D01*
X169410200Y-133098600D02*
X169410200Y-97918000D01*
X168290400Y-138424400D02*
X168290400Y-134218400D01*
X168290400Y-134218400D02*
X169410200Y-133098600D01*
X169410200Y-97918000D02*
X166435700Y-94943500D01*
%TO.N,D12*%
X160964100Y-106893300D02*
X160964100Y-106499500D01*
X160813400Y-100886600D02*
X160200000Y-101500000D01*
X160813400Y-100886600D02*
X160813400Y-98336600D01*
X167240000Y-136409700D02*
X162083000Y-131252700D01*
X162083000Y-122682400D02*
X160888700Y-121488100D01*
X159950000Y-97473200D02*
X159950000Y-96000000D01*
X162083000Y-131252700D02*
X162083000Y-122682400D01*
X167240000Y-137460000D02*
X167240000Y-136409700D01*
X160964100Y-106499500D02*
X160813400Y-106348800D01*
X160888700Y-106968700D02*
X160964100Y-106893300D01*
X160888700Y-121488100D02*
X160888700Y-106968700D01*
X160813400Y-98336600D02*
X159950000Y-97473200D01*
X160813400Y-106348800D02*
X160813400Y-103036600D01*
X160200000Y-101500000D02*
X160200000Y-102423200D01*
X160200000Y-102423200D02*
X160813400Y-103036600D01*
%TO.N,D13*%
X166665600Y-133869700D02*
X162464700Y-129668800D01*
X162464700Y-129668800D02*
X162464700Y-120665700D01*
X167240000Y-133869700D02*
X166665600Y-133869700D01*
X167240000Y-134920000D02*
X167240000Y-133869700D01*
X161150000Y-102100000D02*
X161921500Y-102871500D01*
X161900000Y-96500000D02*
X161900000Y-101000000D01*
X161764100Y-110689400D02*
X161921500Y-110532000D01*
X161150000Y-101750000D02*
X161150000Y-102100000D01*
X161900000Y-101000000D02*
X161150000Y-101750000D01*
X161764100Y-119965100D02*
X161764100Y-110689400D01*
X161921500Y-102871500D02*
X161921500Y-110532000D01*
X162464700Y-120665700D02*
X161764100Y-119965100D01*
%TO.N,D14*%
X166132200Y-104938200D02*
X166132200Y-101123100D01*
X168693400Y-130401400D02*
X168693400Y-106943700D01*
X167123600Y-105929600D02*
X166132200Y-104938200D01*
X167679300Y-105929600D02*
X167123600Y-105929600D01*
X167240000Y-131854800D02*
X168693400Y-130401400D01*
X168693400Y-106943700D02*
X167679300Y-105929600D01*
%TO.N,D15*%
X167240000Y-129840000D02*
X166189700Y-129840000D01*
X162271800Y-102000000D02*
X161996800Y-101725000D01*
X162271800Y-110677100D02*
X162271800Y-102000000D01*
X162815000Y-126465300D02*
X162815000Y-120520600D01*
X162114400Y-119820000D02*
X162114400Y-110834500D01*
X162815000Y-120520600D02*
X162114400Y-119820000D01*
X166189700Y-129840000D02*
X162815000Y-126465300D01*
X162114400Y-110834500D02*
X162271800Y-110677100D01*
%TO.N,ODDRAMSEL*%
X115525000Y-114675000D02*
X116975300Y-114675000D01*
X121469500Y-125159900D02*
X121469500Y-121716900D01*
X122194900Y-125885300D02*
X121469500Y-125159900D01*
X124258300Y-125885300D02*
X122194900Y-125885300D01*
X116975300Y-114675000D02*
X118849300Y-116549000D01*
X118849300Y-120948300D02*
X119617900Y-121716900D01*
X124264300Y-125879300D02*
X124258300Y-125885300D01*
X118849300Y-116549000D02*
X118849300Y-120948300D01*
%TO.N,RW*%
X97421200Y-121976800D02*
X97421200Y-116709700D01*
X160550000Y-101650000D02*
X160550000Y-102222600D01*
X107841600Y-121976800D02*
X107912500Y-122047700D01*
X134474400Y-121392500D02*
X134474400Y-117035300D01*
X161163700Y-101036300D02*
X161163700Y-94513700D01*
X161163700Y-106203700D02*
X161163700Y-102836300D01*
X135010900Y-121929000D02*
X134474400Y-121392500D01*
X161381600Y-110244800D02*
X161381600Y-106421600D01*
X160550000Y-102222600D02*
X161163700Y-102836300D01*
X161163700Y-94513700D02*
X160200000Y-93550000D01*
X97421200Y-121976800D02*
X107841600Y-121976800D01*
X96335200Y-94539100D02*
X96676100Y-94198200D01*
X161381600Y-106421600D02*
X161163700Y-106203700D01*
X160550000Y-101650000D02*
X161163700Y-101036300D01*
X96335200Y-115623700D02*
X96335200Y-94539100D01*
X161381600Y-121249500D02*
X161381600Y-110244800D01*
X161989400Y-121857300D02*
X161381600Y-121249500D01*
X143040000Y-109520000D02*
X141989700Y-109520000D01*
X97421200Y-116709700D02*
X96335200Y-115623700D01*
X134474400Y-117035300D02*
X141989700Y-109520000D01*
X97399200Y-93475100D02*
X105635700Y-93475100D01*
X96676100Y-94198200D02*
X97399200Y-93475100D01*
X97421200Y-121976800D02*
X96960900Y-122437100D01*
X105635700Y-93475100D02*
X106463600Y-94303000D01*
%TO.N,EVENRAMSEL*%
X162622100Y-94990900D02*
X154583600Y-86952400D01*
X167240000Y-126249700D02*
X166007400Y-125017100D01*
X166007400Y-125017100D02*
X166007400Y-123042300D01*
X121694700Y-113599100D02*
X121694700Y-117215000D01*
X162464700Y-119499600D02*
X162464700Y-110979600D01*
X162464700Y-110979600D02*
X162622100Y-110822200D01*
X121906400Y-113387400D02*
X121694700Y-113599100D01*
X121906400Y-93086100D02*
X121906400Y-113387400D01*
X166007400Y-123042300D02*
X162464700Y-119499600D01*
X162622100Y-110822200D02*
X162622100Y-94990900D01*
X128040100Y-86952400D02*
X121906400Y-93086100D01*
X167240000Y-127300000D02*
X167240000Y-126249700D01*
X154583600Y-86952400D02*
X128040100Y-86952400D01*
X123145000Y-117215000D02*
X121694700Y-117215000D01*
%TO.N,EVENRAM0*%
X124739600Y-127772900D02*
X124739600Y-124979300D01*
X124739600Y-124979300D02*
X124595300Y-124835000D01*
X123145000Y-124835000D02*
X124595300Y-124835000D01*
X99577300Y-103333400D02*
X114728900Y-118485000D01*
X121820800Y-128451100D02*
X124061400Y-128451100D01*
X117786800Y-124417100D02*
X121820800Y-128451100D01*
X116172900Y-118485000D02*
X117786800Y-120098900D01*
X114728900Y-118485000D02*
X116172900Y-118485000D01*
X117786800Y-120098900D02*
X117786800Y-124417100D01*
X124061400Y-128451100D02*
X124739600Y-127772900D01*
X99038800Y-103333400D02*
X99577300Y-103333400D01*
%TO.N,ODDRAM1*%
X113289300Y-124049600D02*
X111574100Y-124049600D01*
X111049200Y-130785900D02*
X111399500Y-131136200D01*
X111574100Y-124049600D02*
X111049200Y-124574500D01*
X114074700Y-124835000D02*
X113289300Y-124049600D01*
X111049200Y-124574500D02*
X111049200Y-130785900D01*
X115525000Y-124835000D02*
X114074700Y-124835000D01*
%TO.N,EVENRAM1*%
X123145000Y-127375000D02*
X121694700Y-127375000D01*
X115377400Y-104022000D02*
X115151300Y-104248100D01*
X121694700Y-126879500D02*
X121694700Y-127375000D01*
X120810700Y-125995500D02*
X121694700Y-126879500D01*
X120810700Y-113594300D02*
X120810700Y-125995500D01*
X115151300Y-107934900D02*
X120810700Y-113594300D01*
X115151300Y-104248100D02*
X115151300Y-107934900D01*
%TO.N,EVENRAM2*%
X137142100Y-104052600D02*
X137142100Y-106278700D01*
X120335400Y-115063400D02*
X120335400Y-126293600D01*
X135975700Y-102886200D02*
X137142100Y-104052600D01*
X132861000Y-102886200D02*
X135975700Y-102886200D01*
X137142100Y-106278700D02*
X130683200Y-112737600D01*
X120335400Y-126293600D02*
X121204800Y-127163000D01*
%TO.N,ODDRAM3*%
X116975300Y-130186900D02*
X116975300Y-129915000D01*
X125298800Y-138510400D02*
X116975300Y-130186900D01*
X115525000Y-129915000D02*
X116975300Y-129915000D01*
X130561400Y-138510400D02*
X125298800Y-138510400D01*
X131073900Y-139022900D02*
X130561400Y-138510400D01*
%TO.N,EVENRAM3*%
X158837500Y-128322500D02*
X158837500Y-123038200D01*
X123145000Y-132455000D02*
X124595300Y-132455000D01*
X159074400Y-102425400D02*
X159479600Y-102425400D01*
X158704000Y-102795800D02*
X159074400Y-102425400D01*
X159312800Y-105343900D02*
X159545300Y-105111400D01*
X159479600Y-102425400D02*
X160049200Y-102995000D01*
X158837500Y-123038200D02*
X159187800Y-122687900D01*
X124595300Y-132455000D02*
X125790300Y-133650000D01*
X135845400Y-138512100D02*
X152462600Y-138512100D01*
X155610400Y-135364300D02*
X155610400Y-131549600D01*
X155610400Y-131549600D02*
X158837500Y-128322500D01*
X159545300Y-103847100D02*
X158704000Y-103005800D01*
X130983300Y-133650000D02*
X135845400Y-138512100D01*
X159312800Y-108242100D02*
X159312800Y-105343900D01*
X159545300Y-105111400D02*
X159545300Y-103847100D01*
X125790300Y-133650000D02*
X130983300Y-133650000D01*
X158704000Y-103005800D02*
X158704000Y-102795800D01*
X159187800Y-122687900D02*
X159187800Y-108367100D01*
X152462600Y-138512100D02*
X155610400Y-135364300D01*
X159187800Y-108367100D02*
X159312800Y-108242100D01*
%TD*%
%TA.AperFunction,Conductor*%
%TO.N,GND*%
G36*
X110074182Y-123977502D02*
G01*
X110120675Y-124031158D01*
X110130779Y-124101432D01*
X110101285Y-124166012D01*
X110095156Y-124172595D01*
X108158466Y-126109285D01*
X108146075Y-126120152D01*
X108120713Y-126139613D01*
X108096226Y-126171525D01*
X108096223Y-126171528D01*
X108096217Y-126171536D01*
X108033636Y-126253093D01*
X108023176Y-126266724D01*
X107999490Y-126323908D01*
X107970089Y-126394888D01*
X107961862Y-126414749D01*
X107960529Y-126424877D01*
X107946200Y-126533715D01*
X107946198Y-126533715D01*
X107946196Y-126533749D01*
X107945966Y-126535493D01*
X107917229Y-126600414D01*
X107857955Y-126639492D01*
X107800967Y-126641400D01*
X107800790Y-126642881D01*
X107620680Y-126621404D01*
X107613677Y-126622140D01*
X107613676Y-126622140D01*
X107447288Y-126639628D01*
X107447286Y-126639629D01*
X107440288Y-126640364D01*
X107268579Y-126698818D01*
X107262575Y-126702512D01*
X107120095Y-126790166D01*
X107120092Y-126790168D01*
X107114088Y-126793862D01*
X107109053Y-126798793D01*
X107109050Y-126798795D01*
X107006934Y-126898795D01*
X106984493Y-126920771D01*
X106886235Y-127073238D01*
X106883826Y-127079858D01*
X106883824Y-127079861D01*
X106845047Y-127186400D01*
X106824197Y-127243685D01*
X106801463Y-127423640D01*
X106819163Y-127604160D01*
X106876418Y-127776273D01*
X106880065Y-127782295D01*
X106880066Y-127782297D01*
X106959085Y-127912773D01*
X106970380Y-127931424D01*
X106975269Y-127936487D01*
X106975270Y-127936488D01*
X107048150Y-128011957D01*
X107096382Y-128061902D01*
X107134242Y-128086677D01*
X107228255Y-128148197D01*
X107248159Y-128161222D01*
X107254763Y-128163678D01*
X107254765Y-128163679D01*
X107411558Y-128221990D01*
X107411560Y-128221990D01*
X107418168Y-128224448D01*
X107501995Y-128235633D01*
X107590980Y-128247507D01*
X107590984Y-128247507D01*
X107597961Y-128248438D01*
X107604972Y-128247800D01*
X107604976Y-128247800D01*
X107747459Y-128234832D01*
X107778600Y-128231998D01*
X107785305Y-128229819D01*
X107792201Y-128228404D01*
X107792695Y-128230808D01*
X107852214Y-128229100D01*
X107913017Y-128265754D01*
X107944352Y-128329462D01*
X107946200Y-128350965D01*
X107946200Y-128876161D01*
X107926198Y-128944282D01*
X107909295Y-128965256D01*
X107732317Y-129142234D01*
X107682119Y-129169710D01*
X107683095Y-129172578D01*
X107533982Y-129223340D01*
X107533979Y-129223341D01*
X107527315Y-129225610D01*
X107464695Y-129264134D01*
X107394839Y-129307110D01*
X107387155Y-129311837D01*
X107362171Y-129336303D01*
X107298897Y-129398266D01*
X107269582Y-129426973D01*
X107180438Y-129565297D01*
X107178027Y-129571920D01*
X107178026Y-129571923D01*
X107126566Y-129713309D01*
X107126565Y-129713314D01*
X107124156Y-129719932D01*
X107103531Y-129883194D01*
X107119589Y-130046968D01*
X107171532Y-130203115D01*
X107184370Y-130224313D01*
X107252532Y-130336860D01*
X107256779Y-130343873D01*
X107261670Y-130348938D01*
X107261671Y-130348939D01*
X107315386Y-130404563D01*
X107371091Y-130462247D01*
X107508789Y-130552354D01*
X107663028Y-130609715D01*
X107670009Y-130610646D01*
X107670011Y-130610647D01*
X107819161Y-130630548D01*
X107819165Y-130630548D01*
X107826142Y-130631479D01*
X107833153Y-130630841D01*
X107833157Y-130630841D01*
X107983003Y-130617204D01*
X107983004Y-130617204D01*
X107990024Y-130616565D01*
X108023977Y-130605533D01*
X108139830Y-130567890D01*
X108139833Y-130567889D01*
X108146529Y-130565713D01*
X108287879Y-130481451D01*
X108407049Y-130367968D01*
X108424926Y-130341061D01*
X108494214Y-130236775D01*
X108494215Y-130236773D01*
X108498115Y-130230903D01*
X108556551Y-130077068D01*
X108557531Y-130070092D01*
X108559284Y-130063267D01*
X108561753Y-130063901D01*
X108586188Y-130009954D01*
X108592572Y-130003077D01*
X108950934Y-129644715D01*
X108963325Y-129633848D01*
X108982137Y-129619413D01*
X108988687Y-129614387D01*
X109013174Y-129582475D01*
X109013178Y-129582471D01*
X109086224Y-129487276D01*
X109147538Y-129339251D01*
X109151284Y-129310801D01*
X109162013Y-129229301D01*
X109168451Y-129180400D01*
X109164278Y-129148701D01*
X109163200Y-129132256D01*
X109163200Y-126877839D01*
X109183202Y-126809718D01*
X109200105Y-126788744D01*
X110225605Y-125763244D01*
X110287917Y-125729218D01*
X110358732Y-125734283D01*
X110415568Y-125776830D01*
X110440379Y-125843350D01*
X110440700Y-125852339D01*
X110440700Y-130737764D01*
X110439622Y-130754207D01*
X110435450Y-130785900D01*
X110440700Y-130825780D01*
X110440700Y-130825785D01*
X110450339Y-130899000D01*
X110456362Y-130944751D01*
X110517676Y-131092776D01*
X110522703Y-131099327D01*
X110522704Y-131099329D01*
X110590720Y-131187969D01*
X110590726Y-131187975D01*
X110615213Y-131219887D01*
X110621763Y-131224913D01*
X110621764Y-131224914D01*
X110637009Y-131236612D01*
X110679862Y-131296802D01*
X110692520Y-131334852D01*
X110729432Y-131445815D01*
X110733081Y-131451840D01*
X110802737Y-131566854D01*
X110814679Y-131586573D01*
X110819570Y-131591638D01*
X110819571Y-131591639D01*
X110827358Y-131599703D01*
X110928991Y-131704947D01*
X111066689Y-131795054D01*
X111220928Y-131852415D01*
X111227909Y-131853346D01*
X111227911Y-131853347D01*
X111377061Y-131873248D01*
X111377065Y-131873248D01*
X111384042Y-131874179D01*
X111391053Y-131873541D01*
X111391057Y-131873541D01*
X111540903Y-131859904D01*
X111540904Y-131859904D01*
X111547924Y-131859265D01*
X111596114Y-131843607D01*
X111697730Y-131810590D01*
X111697733Y-131810589D01*
X111704429Y-131808413D01*
X111845779Y-131724151D01*
X111964949Y-131610668D01*
X111977592Y-131591639D01*
X112052114Y-131479475D01*
X112052115Y-131479473D01*
X112056015Y-131473603D01*
X112114451Y-131319768D01*
X112130368Y-131206512D01*
X112136802Y-131160734D01*
X112136803Y-131160727D01*
X112137353Y-131156810D01*
X112137641Y-131136200D01*
X112119298Y-130972666D01*
X112103342Y-130926845D01*
X112079252Y-130857669D01*
X112065180Y-130817260D01*
X112054514Y-130800190D01*
X111981709Y-130683679D01*
X111977976Y-130677705D01*
X111903142Y-130602347D01*
X111866986Y-130565937D01*
X111866982Y-130565934D01*
X111862022Y-130560939D01*
X111728166Y-130475990D01*
X111728164Y-130475989D01*
X111723080Y-130472763D01*
X111723647Y-130471870D01*
X111676006Y-130428422D01*
X111657700Y-130363015D01*
X111657700Y-129181839D01*
X111677702Y-129113718D01*
X111731358Y-129067225D01*
X111801632Y-129057121D01*
X111866212Y-129086615D01*
X111872795Y-129092744D01*
X114166035Y-131385984D01*
X114200061Y-131448296D01*
X114194996Y-131519111D01*
X114166035Y-131564174D01*
X114123084Y-131607125D01*
X114116028Y-131615533D01*
X113991069Y-131793993D01*
X113985586Y-131803489D01*
X113893510Y-132000947D01*
X113889764Y-132011239D01*
X113843606Y-132183503D01*
X113843942Y-132197599D01*
X113851884Y-132201000D01*
X115653000Y-132201000D01*
X115721121Y-132221002D01*
X115767614Y-132274658D01*
X115779000Y-132327000D01*
X115779000Y-133744885D01*
X115783475Y-133760124D01*
X115784865Y-133761329D01*
X115792548Y-133763000D01*
X115979365Y-133763000D01*
X115984830Y-133762762D01*
X116147519Y-133748528D01*
X116158312Y-133746625D01*
X116368761Y-133690236D01*
X116379053Y-133686490D01*
X116576511Y-133594414D01*
X116586007Y-133588931D01*
X116764467Y-133463972D01*
X116772875Y-133456916D01*
X116926916Y-133302875D01*
X116933972Y-133294467D01*
X117058931Y-133116007D01*
X117064414Y-133106511D01*
X117156490Y-132909053D01*
X117160236Y-132898761D01*
X117216625Y-132688312D01*
X117218528Y-132677520D01*
X117226993Y-132580771D01*
X117252857Y-132514653D01*
X117310360Y-132473013D01*
X117381248Y-132469073D01*
X117441609Y-132502658D01*
X120586977Y-135648026D01*
X120621003Y-135710338D01*
X120615938Y-135781153D01*
X120603794Y-135805375D01*
X120587557Y-135830570D01*
X120587555Y-135830575D01*
X120583738Y-135836497D01*
X120578298Y-135851443D01*
X120529866Y-135984509D01*
X120529865Y-135984514D01*
X120527456Y-135991132D01*
X120506831Y-136154394D01*
X120522889Y-136318168D01*
X120574832Y-136474315D01*
X120578481Y-136480340D01*
X120655926Y-136608215D01*
X120660079Y-136615073D01*
X120774391Y-136733447D01*
X120912089Y-136823554D01*
X121066328Y-136880915D01*
X121073314Y-136881847D01*
X121076955Y-136882755D01*
X121135569Y-136915918D01*
X126054085Y-141834434D01*
X126064952Y-141846825D01*
X126084413Y-141872187D01*
X126090722Y-141877028D01*
X126124681Y-141939217D01*
X126119616Y-142010032D01*
X126077069Y-142066868D01*
X126010549Y-142091679D01*
X126001560Y-142092000D01*
X102022145Y-142092000D01*
X101954024Y-142071998D01*
X101907531Y-142018342D01*
X101897427Y-141948068D01*
X101926921Y-141883488D01*
X101968895Y-141851805D01*
X102101762Y-141789849D01*
X102101767Y-141789846D01*
X102106749Y-141787523D01*
X102211611Y-141714098D01*
X102289789Y-141659357D01*
X102289792Y-141659355D01*
X102294300Y-141656198D01*
X102456198Y-141494300D01*
X102587523Y-141306749D01*
X102589846Y-141301767D01*
X102589849Y-141301762D01*
X102681961Y-141104225D01*
X102681961Y-141104224D01*
X102684284Y-141099243D01*
X102687281Y-141088060D01*
X102742119Y-140883402D01*
X102742119Y-140883400D01*
X102743543Y-140878087D01*
X102763498Y-140650000D01*
X102743543Y-140421913D01*
X102741145Y-140412962D01*
X102685707Y-140206067D01*
X102685706Y-140206065D01*
X102684284Y-140200757D01*
X102680440Y-140192514D01*
X102589849Y-139998238D01*
X102589846Y-139998233D01*
X102587523Y-139993251D01*
X102456198Y-139805700D01*
X102294300Y-139643802D01*
X102289792Y-139640645D01*
X102289789Y-139640643D01*
X102178886Y-139562988D01*
X102106749Y-139512477D01*
X102101767Y-139510154D01*
X102101762Y-139510151D01*
X101904225Y-139418039D01*
X101904224Y-139418039D01*
X101899243Y-139415716D01*
X101893935Y-139414294D01*
X101893933Y-139414293D01*
X101683402Y-139357881D01*
X101683400Y-139357881D01*
X101678087Y-139356457D01*
X101450000Y-139336502D01*
X101221913Y-139356457D01*
X101216600Y-139357881D01*
X101216598Y-139357881D01*
X101006067Y-139414293D01*
X101006065Y-139414294D01*
X101000757Y-139415716D01*
X100995776Y-139418039D01*
X100995775Y-139418039D01*
X100798238Y-139510151D01*
X100798233Y-139510154D01*
X100793251Y-139512477D01*
X100721114Y-139562988D01*
X100610211Y-139640643D01*
X100610208Y-139640645D01*
X100605700Y-139643802D01*
X100443802Y-139805700D01*
X100312477Y-139993251D01*
X100310153Y-139998235D01*
X100308829Y-140000528D01*
X100257447Y-140049521D01*
X100187733Y-140062957D01*
X100121822Y-140036571D01*
X100090591Y-140000528D01*
X100083934Y-139988998D01*
X100047491Y-139936952D01*
X100037012Y-139928576D01*
X100023566Y-139935644D01*
X99322022Y-140637188D01*
X99314408Y-140651132D01*
X99314539Y-140652965D01*
X99318790Y-140659580D01*
X100024287Y-141365077D01*
X100036062Y-141371507D01*
X100048077Y-141362211D01*
X100083934Y-141311002D01*
X100090591Y-141299472D01*
X100141973Y-141250479D01*
X100211687Y-141237042D01*
X100277598Y-141263429D01*
X100308829Y-141299472D01*
X100310153Y-141301765D01*
X100312477Y-141306749D01*
X100443802Y-141494300D01*
X100605700Y-141656198D01*
X100610208Y-141659355D01*
X100610211Y-141659357D01*
X100688389Y-141714098D01*
X100793251Y-141787523D01*
X100798233Y-141789846D01*
X100798238Y-141789849D01*
X100931105Y-141851805D01*
X100984390Y-141898722D01*
X101003851Y-141966999D01*
X100983309Y-142034959D01*
X100929287Y-142081025D01*
X100877855Y-142092000D01*
X99520962Y-142092000D01*
X99452841Y-142071998D01*
X99406348Y-142018342D01*
X99396244Y-141948068D01*
X99425738Y-141883488D01*
X99467712Y-141851805D01*
X99601511Y-141789414D01*
X99611006Y-141783931D01*
X99663048Y-141747491D01*
X99671424Y-141737012D01*
X99664356Y-141723566D01*
X98962812Y-141022022D01*
X98948868Y-141014408D01*
X98947035Y-141014539D01*
X98940420Y-141018790D01*
X98234923Y-141724287D01*
X98228493Y-141736062D01*
X98237789Y-141748077D01*
X98288994Y-141783931D01*
X98298489Y-141789414D01*
X98432288Y-141851805D01*
X98485573Y-141898722D01*
X98505034Y-141967000D01*
X98484492Y-142034960D01*
X98430469Y-142081025D01*
X98379038Y-142092000D01*
X86022145Y-142092000D01*
X85954024Y-142071998D01*
X85907531Y-142018342D01*
X85897427Y-141948068D01*
X85926921Y-141883488D01*
X85968895Y-141851805D01*
X86101762Y-141789849D01*
X86101767Y-141789846D01*
X86106749Y-141787523D01*
X86211611Y-141714098D01*
X86289789Y-141659357D01*
X86289792Y-141659355D01*
X86294300Y-141656198D01*
X86456198Y-141494300D01*
X86587523Y-141306749D01*
X86589846Y-141301767D01*
X86589849Y-141301762D01*
X86681961Y-141104225D01*
X86681961Y-141104224D01*
X86684284Y-141099243D01*
X86687281Y-141088060D01*
X86742119Y-140883402D01*
X86742119Y-140883400D01*
X86743543Y-140878087D01*
X86763019Y-140655475D01*
X97637483Y-140655475D01*
X97656472Y-140872519D01*
X97658375Y-140883312D01*
X97714764Y-141093761D01*
X97718510Y-141104053D01*
X97810586Y-141301511D01*
X97816069Y-141311006D01*
X97852509Y-141363048D01*
X97862988Y-141371424D01*
X97876434Y-141364356D01*
X98577978Y-140662812D01*
X98585592Y-140648868D01*
X98585461Y-140647035D01*
X98581210Y-140640420D01*
X97875713Y-139934923D01*
X97863938Y-139928493D01*
X97851923Y-139937789D01*
X97816069Y-139988994D01*
X97810586Y-139998489D01*
X97718510Y-140195947D01*
X97714764Y-140206239D01*
X97658375Y-140416688D01*
X97656472Y-140427481D01*
X97637483Y-140644525D01*
X97637483Y-140655475D01*
X86763019Y-140655475D01*
X86763498Y-140650000D01*
X86743543Y-140421913D01*
X86741145Y-140412962D01*
X86685707Y-140206067D01*
X86685706Y-140206065D01*
X86684284Y-140200757D01*
X86680440Y-140192514D01*
X86589849Y-139998238D01*
X86589846Y-139998233D01*
X86587523Y-139993251D01*
X86456198Y-139805700D01*
X86294300Y-139643802D01*
X86289792Y-139640645D01*
X86289789Y-139640643D01*
X86178886Y-139562988D01*
X98228576Y-139562988D01*
X98235644Y-139576434D01*
X98937188Y-140277978D01*
X98951132Y-140285592D01*
X98952965Y-140285461D01*
X98959580Y-140281210D01*
X99665077Y-139575713D01*
X99671507Y-139563938D01*
X99662211Y-139551923D01*
X99611006Y-139516069D01*
X99601511Y-139510586D01*
X99404053Y-139418510D01*
X99393761Y-139414764D01*
X99183312Y-139358375D01*
X99172519Y-139356472D01*
X98955475Y-139337483D01*
X98944525Y-139337483D01*
X98727481Y-139356472D01*
X98716688Y-139358375D01*
X98506239Y-139414764D01*
X98495947Y-139418510D01*
X98298489Y-139510586D01*
X98288994Y-139516069D01*
X98236952Y-139552509D01*
X98228576Y-139562988D01*
X86178886Y-139562988D01*
X86106749Y-139512477D01*
X86101767Y-139510154D01*
X86101762Y-139510151D01*
X85904225Y-139418039D01*
X85904224Y-139418039D01*
X85899243Y-139415716D01*
X85893935Y-139414294D01*
X85893933Y-139414293D01*
X85683402Y-139357881D01*
X85683400Y-139357881D01*
X85678087Y-139356457D01*
X85450000Y-139336502D01*
X85221913Y-139356457D01*
X85216600Y-139357881D01*
X85216598Y-139357881D01*
X85006067Y-139414293D01*
X85006065Y-139414294D01*
X85000757Y-139415716D01*
X84995776Y-139418039D01*
X84995775Y-139418039D01*
X84798238Y-139510151D01*
X84798233Y-139510154D01*
X84793251Y-139512477D01*
X84721114Y-139562988D01*
X84610211Y-139640643D01*
X84610208Y-139640645D01*
X84605700Y-139643802D01*
X84443802Y-139805700D01*
X84312477Y-139993251D01*
X84310153Y-139998235D01*
X84308829Y-140000528D01*
X84257447Y-140049521D01*
X84187733Y-140062957D01*
X84121822Y-140036571D01*
X84090591Y-140000528D01*
X84083934Y-139988998D01*
X84047491Y-139936952D01*
X84037012Y-139928576D01*
X84023566Y-139935644D01*
X83322022Y-140637188D01*
X83314408Y-140651132D01*
X83314539Y-140652965D01*
X83318790Y-140659580D01*
X84024287Y-141365077D01*
X84036062Y-141371507D01*
X84048077Y-141362211D01*
X84083934Y-141311002D01*
X84090591Y-141299472D01*
X84141973Y-141250479D01*
X84211687Y-141237042D01*
X84277598Y-141263429D01*
X84308829Y-141299472D01*
X84310153Y-141301765D01*
X84312477Y-141306749D01*
X84443802Y-141494300D01*
X84605700Y-141656198D01*
X84610208Y-141659355D01*
X84610211Y-141659357D01*
X84688389Y-141714098D01*
X84793251Y-141787523D01*
X84798233Y-141789846D01*
X84798238Y-141789849D01*
X84931105Y-141851805D01*
X84984390Y-141898722D01*
X85003851Y-141966999D01*
X84983309Y-142034959D01*
X84929287Y-142081025D01*
X84877855Y-142092000D01*
X83520962Y-142092000D01*
X83452841Y-142071998D01*
X83406348Y-142018342D01*
X83396244Y-141948068D01*
X83425738Y-141883488D01*
X83467712Y-141851805D01*
X83601511Y-141789414D01*
X83611006Y-141783931D01*
X83663048Y-141747491D01*
X83671424Y-141737012D01*
X83664356Y-141723566D01*
X82962812Y-141022022D01*
X82948868Y-141014408D01*
X82947035Y-141014539D01*
X82940420Y-141018790D01*
X82234923Y-141724287D01*
X82228493Y-141736062D01*
X82237789Y-141748077D01*
X82288994Y-141783931D01*
X82298489Y-141789414D01*
X82432288Y-141851805D01*
X82485573Y-141898722D01*
X82505034Y-141967000D01*
X82484492Y-142034960D01*
X82430469Y-142081025D01*
X82379038Y-142092000D01*
X81630132Y-142092000D01*
X81562011Y-142071998D01*
X81515518Y-142018342D01*
X81504132Y-141965991D01*
X81504183Y-141212767D01*
X81524190Y-141144648D01*
X81577848Y-141098159D01*
X81648123Y-141088060D01*
X81712702Y-141117557D01*
X81744378Y-141159526D01*
X81810586Y-141301511D01*
X81816069Y-141311006D01*
X81852509Y-141363048D01*
X81862988Y-141371424D01*
X81876434Y-141364356D01*
X82577978Y-140662812D01*
X82585592Y-140648868D01*
X82585461Y-140647035D01*
X82581210Y-140640420D01*
X81875713Y-139934923D01*
X81863938Y-139928493D01*
X81851923Y-139937789D01*
X81816069Y-139988994D01*
X81810586Y-139998489D01*
X81744454Y-140140310D01*
X81697537Y-140193595D01*
X81629259Y-140213056D01*
X81561299Y-140192514D01*
X81515234Y-140138491D01*
X81504259Y-140087051D01*
X81504262Y-140049521D01*
X81504295Y-139562988D01*
X82228576Y-139562988D01*
X82235644Y-139576434D01*
X82937188Y-140277978D01*
X82951132Y-140285592D01*
X82952965Y-140285461D01*
X82959580Y-140281210D01*
X83665077Y-139575713D01*
X83671507Y-139563938D01*
X83662211Y-139551923D01*
X83611006Y-139516069D01*
X83601511Y-139510586D01*
X83404053Y-139418510D01*
X83393761Y-139414764D01*
X83183312Y-139358375D01*
X83172519Y-139356472D01*
X82955475Y-139337483D01*
X82944525Y-139337483D01*
X82727481Y-139356472D01*
X82716688Y-139358375D01*
X82506239Y-139414764D01*
X82495947Y-139418510D01*
X82298489Y-139510586D01*
X82288994Y-139516069D01*
X82236952Y-139552509D01*
X82228576Y-139562988D01*
X81504295Y-139562988D01*
X81504672Y-133994101D01*
X81524679Y-133925983D01*
X81578337Y-133879494D01*
X81648612Y-133869395D01*
X81713191Y-133898892D01*
X81719767Y-133905016D01*
X84492585Y-136677834D01*
X84503452Y-136690225D01*
X84522913Y-136715587D01*
X84554825Y-136740074D01*
X84554828Y-136740077D01*
X84597823Y-136773068D01*
X84650025Y-136813124D01*
X84798050Y-136874438D01*
X84917015Y-136890100D01*
X84917020Y-136890100D01*
X84917029Y-136890101D01*
X84948712Y-136894272D01*
X84956900Y-136895350D01*
X84988593Y-136891178D01*
X85005036Y-136890100D01*
X93210664Y-136890100D01*
X93227107Y-136891178D01*
X93258800Y-136895350D01*
X93266989Y-136894272D01*
X93298674Y-136890101D01*
X93298684Y-136890100D01*
X93298685Y-136890100D01*
X93298701Y-136890098D01*
X93398257Y-136876991D01*
X93409464Y-136875516D01*
X93409466Y-136875515D01*
X93417651Y-136874438D01*
X93565676Y-136813124D01*
X93585685Y-136797771D01*
X93660872Y-136740077D01*
X93660875Y-136740074D01*
X93682241Y-136723679D01*
X93692787Y-136715587D01*
X93703278Y-136701915D01*
X93712252Y-136690221D01*
X93723119Y-136677830D01*
X95690028Y-134710921D01*
X95740187Y-134680183D01*
X95877429Y-134635590D01*
X95884129Y-134633413D01*
X95911169Y-134617294D01*
X95979924Y-134599595D01*
X96047333Y-134621878D01*
X96064780Y-134636429D01*
X96593385Y-135165034D01*
X96623848Y-135214357D01*
X96673832Y-135364615D01*
X96677481Y-135370640D01*
X96737849Y-135470318D01*
X96759079Y-135505373D01*
X96873391Y-135623747D01*
X97011089Y-135713854D01*
X97165328Y-135771215D01*
X97172309Y-135772146D01*
X97172311Y-135772147D01*
X97321461Y-135792048D01*
X97321465Y-135792048D01*
X97328442Y-135792979D01*
X97335453Y-135792341D01*
X97335457Y-135792341D01*
X97485303Y-135778704D01*
X97485304Y-135778704D01*
X97492324Y-135778065D01*
X97534688Y-135764300D01*
X97642130Y-135729390D01*
X97642133Y-135729389D01*
X97648829Y-135727213D01*
X97721871Y-135683671D01*
X97786389Y-135665900D01*
X101637578Y-135665900D01*
X101706571Y-135686468D01*
X101752089Y-135716254D01*
X101906328Y-135773615D01*
X101913309Y-135774546D01*
X101913311Y-135774547D01*
X102062461Y-135794448D01*
X102062465Y-135794448D01*
X102069442Y-135795379D01*
X102076453Y-135794741D01*
X102076457Y-135794741D01*
X102226303Y-135781104D01*
X102226304Y-135781104D01*
X102233324Y-135780465D01*
X102279874Y-135765340D01*
X102383130Y-135731790D01*
X102383133Y-135731789D01*
X102389829Y-135729613D01*
X102531179Y-135645351D01*
X102650349Y-135531868D01*
X102654250Y-135525997D01*
X102737514Y-135400675D01*
X102737515Y-135400673D01*
X102741415Y-135394803D01*
X102799851Y-135240968D01*
X102811916Y-135155119D01*
X102822202Y-135081934D01*
X102822203Y-135081927D01*
X102822753Y-135078010D01*
X102823041Y-135057400D01*
X102804698Y-134893866D01*
X102750580Y-134738460D01*
X102745719Y-134730680D01*
X102667109Y-134604879D01*
X102663376Y-134598905D01*
X102588760Y-134523766D01*
X102552386Y-134487137D01*
X102552382Y-134487134D01*
X102547422Y-134482139D01*
X102408480Y-134393963D01*
X102291876Y-134352442D01*
X102260089Y-134341123D01*
X102260087Y-134341122D01*
X102253455Y-134338761D01*
X102246469Y-134337928D01*
X102246465Y-134337927D01*
X102128312Y-134323839D01*
X102090053Y-134319277D01*
X102083050Y-134320013D01*
X102083049Y-134320013D01*
X102046648Y-134323839D01*
X101926395Y-134336478D01*
X101919727Y-134338748D01*
X101777282Y-134387240D01*
X101777279Y-134387241D01*
X101770615Y-134389510D01*
X101715819Y-134423221D01*
X101704445Y-134430218D01*
X101638423Y-134448900D01*
X97794435Y-134448900D01*
X97726921Y-134429285D01*
X97673436Y-134395342D01*
X97673430Y-134395339D01*
X97667480Y-134391563D01*
X97512455Y-134336361D01*
X97511482Y-134336245D01*
X97453319Y-134303870D01*
X96752905Y-133603456D01*
X96718879Y-133541144D01*
X96716000Y-133514361D01*
X96716000Y-132721522D01*
X113842273Y-132721522D01*
X113889764Y-132898761D01*
X113893510Y-132909053D01*
X113985586Y-133106511D01*
X113991069Y-133116007D01*
X114116028Y-133294467D01*
X114123084Y-133302875D01*
X114277125Y-133456916D01*
X114285533Y-133463972D01*
X114463993Y-133588931D01*
X114473489Y-133594414D01*
X114670947Y-133686490D01*
X114681239Y-133690236D01*
X114891688Y-133746625D01*
X114902481Y-133748528D01*
X115065170Y-133762762D01*
X115070635Y-133763000D01*
X115252885Y-133763000D01*
X115268124Y-133758525D01*
X115269329Y-133757135D01*
X115271000Y-133749452D01*
X115271000Y-132727115D01*
X115266525Y-132711876D01*
X115265135Y-132710671D01*
X115257452Y-132709000D01*
X113857033Y-132709000D01*
X113843502Y-132712973D01*
X113842273Y-132721522D01*
X96716000Y-132721522D01*
X96716000Y-132532872D01*
X96736002Y-132464751D01*
X96789658Y-132418258D01*
X96842000Y-132406872D01*
X96842411Y-132406872D01*
X96850600Y-132407950D01*
X96882293Y-132403778D01*
X96898736Y-132402700D01*
X99227164Y-132402700D01*
X99243607Y-132403778D01*
X99275300Y-132407950D01*
X99283489Y-132406872D01*
X99315174Y-132402701D01*
X99315184Y-132402700D01*
X99315185Y-132402700D01*
X99414757Y-132389591D01*
X99425964Y-132388116D01*
X99425966Y-132388115D01*
X99434151Y-132387038D01*
X99582176Y-132325724D01*
X99588862Y-132320594D01*
X99677372Y-132252677D01*
X99677375Y-132252674D01*
X99702734Y-132233215D01*
X99709287Y-132228187D01*
X99714800Y-132221002D01*
X99728752Y-132202821D01*
X99739619Y-132190430D01*
X102475328Y-129454721D01*
X102525487Y-129423983D01*
X102662730Y-129379390D01*
X102662733Y-129379389D01*
X102669429Y-129377213D01*
X102810779Y-129292951D01*
X102929949Y-129179468D01*
X102936000Y-129170361D01*
X103017114Y-129048275D01*
X103017115Y-129048273D01*
X103021015Y-129042403D01*
X103079451Y-128888568D01*
X103097178Y-128762434D01*
X103101802Y-128729534D01*
X103101803Y-128729527D01*
X103102353Y-128725610D01*
X103102641Y-128705000D01*
X103084298Y-128541466D01*
X103030180Y-128386060D01*
X103012158Y-128357218D01*
X102946709Y-128252479D01*
X102942976Y-128246505D01*
X102874493Y-128177542D01*
X102831986Y-128134737D01*
X102831982Y-128134734D01*
X102827022Y-128129739D01*
X102768015Y-128092292D01*
X102721218Y-128038905D01*
X102710713Y-127968690D01*
X102739836Y-127903941D01*
X102746436Y-127896813D01*
X106648844Y-123994405D01*
X106711156Y-123960379D01*
X106737939Y-123957500D01*
X110006061Y-123957500D01*
X110074182Y-123977502D01*
G37*
%TD.AperFunction*%
%TA.AperFunction,Conductor*%
G36*
X172934121Y-84978002D02*
G01*
X172980614Y-85031658D01*
X172992000Y-85084000D01*
X172992000Y-141966000D01*
X172971998Y-142034121D01*
X172918342Y-142080614D01*
X172866000Y-142092000D01*
X153217440Y-142092000D01*
X153149319Y-142071998D01*
X153102826Y-142018342D01*
X153092722Y-141948068D01*
X153122216Y-141883488D01*
X153128109Y-141877158D01*
X153134587Y-141872187D01*
X153139613Y-141865637D01*
X153139618Y-141865632D01*
X153154052Y-141846821D01*
X153164919Y-141834430D01*
X158363334Y-136636015D01*
X158375725Y-136625148D01*
X158394537Y-136610713D01*
X158401087Y-136605687D01*
X158425574Y-136573775D01*
X158425578Y-136573771D01*
X158498624Y-136478576D01*
X158559938Y-136330551D01*
X158568416Y-136266150D01*
X158574959Y-136216453D01*
X158594933Y-136163173D01*
X158619714Y-136125875D01*
X158619715Y-136125873D01*
X158623615Y-136120003D01*
X158682051Y-135966168D01*
X158693725Y-135883105D01*
X158704402Y-135807134D01*
X158704403Y-135807127D01*
X158704953Y-135803210D01*
X158705241Y-135782600D01*
X158686898Y-135619066D01*
X158680064Y-135599442D01*
X158635099Y-135470318D01*
X158635097Y-135470315D01*
X158632780Y-135463660D01*
X158625018Y-135451237D01*
X158605881Y-135382870D01*
X158626745Y-135315009D01*
X158642776Y-135295373D01*
X160250455Y-133687694D01*
X160312767Y-133653668D01*
X160383582Y-133658733D01*
X160428645Y-133687694D01*
X162023400Y-135282449D01*
X162057426Y-135344761D01*
X162059704Y-135359249D01*
X162062020Y-135382870D01*
X162066589Y-135429468D01*
X162118532Y-135585615D01*
X162126906Y-135599442D01*
X162199870Y-135719918D01*
X162203779Y-135726373D01*
X162208670Y-135731438D01*
X162208671Y-135731439D01*
X162241409Y-135765340D01*
X162318091Y-135844747D01*
X162455789Y-135934854D01*
X162610028Y-135992215D01*
X162617009Y-135993146D01*
X162617011Y-135993147D01*
X162766161Y-136013048D01*
X162766165Y-136013048D01*
X162773142Y-136013979D01*
X162780153Y-136013341D01*
X162780157Y-136013341D01*
X162930003Y-135999704D01*
X162930004Y-135999704D01*
X162937024Y-135999065D01*
X162965662Y-135989760D01*
X163086830Y-135950390D01*
X163086833Y-135950389D01*
X163093529Y-135948213D01*
X163234879Y-135863951D01*
X163354049Y-135750468D01*
X163371124Y-135724769D01*
X163441216Y-135619271D01*
X163445115Y-135613403D01*
X163446536Y-135609662D01*
X163468215Y-135579934D01*
X163782534Y-135265615D01*
X163794925Y-135254748D01*
X163813737Y-135240313D01*
X163820287Y-135235287D01*
X163844774Y-135203375D01*
X163844778Y-135203371D01*
X163917824Y-135108176D01*
X163979138Y-134960151D01*
X164000051Y-134801300D01*
X163995878Y-134769601D01*
X163994800Y-134753156D01*
X163994800Y-134329239D01*
X164014802Y-134261118D01*
X164068458Y-134214625D01*
X164138732Y-134204521D01*
X164203312Y-134234015D01*
X164209895Y-134240144D01*
X166320532Y-136350781D01*
X166354558Y-136413093D01*
X166349493Y-136483908D01*
X166320536Y-136528966D01*
X166233802Y-136615700D01*
X166102477Y-136803251D01*
X166100154Y-136808233D01*
X166100151Y-136808238D01*
X166008039Y-137005775D01*
X166005716Y-137010757D01*
X165946457Y-137231913D01*
X165926502Y-137460000D01*
X165946457Y-137688087D01*
X165947881Y-137693400D01*
X165947881Y-137693402D01*
X166003460Y-137900822D01*
X166005716Y-137909243D01*
X166008039Y-137914224D01*
X166008039Y-137914225D01*
X166100151Y-138111762D01*
X166100154Y-138111767D01*
X166102477Y-138116749D01*
X166233802Y-138304300D01*
X166395700Y-138466198D01*
X166400208Y-138469355D01*
X166400211Y-138469357D01*
X166477393Y-138523400D01*
X166583251Y-138597523D01*
X166588233Y-138599846D01*
X166588238Y-138599849D01*
X166622457Y-138615805D01*
X166675742Y-138662722D01*
X166695203Y-138730999D01*
X166674661Y-138798959D01*
X166622457Y-138844195D01*
X166588238Y-138860151D01*
X166588233Y-138860154D01*
X166583251Y-138862477D01*
X166496614Y-138923141D01*
X166400211Y-138990643D01*
X166400208Y-138990645D01*
X166395700Y-138993802D01*
X166233802Y-139155700D01*
X166102477Y-139343251D01*
X166100154Y-139348233D01*
X166100151Y-139348238D01*
X166008039Y-139545775D01*
X166005716Y-139550757D01*
X166004294Y-139556065D01*
X166004293Y-139556067D01*
X165979740Y-139647699D01*
X165946457Y-139771913D01*
X165926502Y-140000000D01*
X165946457Y-140228087D01*
X165947881Y-140233400D01*
X165947881Y-140233402D01*
X166003722Y-140441800D01*
X166005716Y-140449243D01*
X166008039Y-140454224D01*
X166008039Y-140454225D01*
X166100151Y-140651762D01*
X166100154Y-140651767D01*
X166102477Y-140656749D01*
X166132204Y-140699203D01*
X166214247Y-140816372D01*
X166233802Y-140844300D01*
X166395700Y-141006198D01*
X166400208Y-141009355D01*
X166400211Y-141009357D01*
X166407425Y-141014408D01*
X166583251Y-141137523D01*
X166588233Y-141139846D01*
X166588238Y-141139849D01*
X166744613Y-141212767D01*
X166790757Y-141234284D01*
X166796065Y-141235706D01*
X166796067Y-141235707D01*
X167006598Y-141292119D01*
X167006600Y-141292119D01*
X167011913Y-141293543D01*
X167240000Y-141313498D01*
X167468087Y-141293543D01*
X167473400Y-141292119D01*
X167473402Y-141292119D01*
X167683933Y-141235707D01*
X167683935Y-141235706D01*
X167689243Y-141234284D01*
X167735387Y-141212767D01*
X167891762Y-141139849D01*
X167891767Y-141139846D01*
X167896749Y-141137523D01*
X168072575Y-141014408D01*
X168079789Y-141009357D01*
X168079792Y-141009355D01*
X168084300Y-141006198D01*
X168246198Y-140844300D01*
X168265754Y-140816372D01*
X168347796Y-140699203D01*
X168377523Y-140656749D01*
X168379846Y-140651767D01*
X168379849Y-140651762D01*
X168471961Y-140454225D01*
X168471961Y-140454224D01*
X168474284Y-140449243D01*
X168476279Y-140441800D01*
X168532119Y-140233402D01*
X168532119Y-140233400D01*
X168533543Y-140228087D01*
X168553498Y-140000000D01*
X168533543Y-139771913D01*
X168500260Y-139647699D01*
X168475707Y-139556067D01*
X168475706Y-139556065D01*
X168474284Y-139550757D01*
X168471394Y-139544558D01*
X168399872Y-139391179D01*
X168377523Y-139343251D01*
X168374370Y-139338748D01*
X168372284Y-139335135D01*
X168355546Y-139266140D01*
X168378766Y-139199048D01*
X168392308Y-139183040D01*
X168686626Y-138888722D01*
X168699017Y-138877854D01*
X168717836Y-138863414D01*
X168717837Y-138863413D01*
X168724387Y-138858387D01*
X168789525Y-138773498D01*
X168821924Y-138731276D01*
X168883238Y-138583251D01*
X168891117Y-138523400D01*
X168898900Y-138464285D01*
X168898900Y-138464280D01*
X168904150Y-138424400D01*
X168899978Y-138392707D01*
X168898900Y-138376264D01*
X168898900Y-136833284D01*
X168918902Y-136765163D01*
X168972558Y-136718670D01*
X169041564Y-136708391D01*
X169046368Y-136709032D01*
X169149161Y-136722748D01*
X169149165Y-136722748D01*
X169156142Y-136723679D01*
X169163153Y-136723041D01*
X169163157Y-136723041D01*
X169313003Y-136709404D01*
X169313004Y-136709404D01*
X169320024Y-136708765D01*
X169377096Y-136690221D01*
X169469830Y-136660090D01*
X169469833Y-136660089D01*
X169476529Y-136657913D01*
X169617879Y-136573651D01*
X169737049Y-136460168D01*
X169742431Y-136452068D01*
X169824214Y-136328975D01*
X169824215Y-136328973D01*
X169828115Y-136323103D01*
X169886551Y-136169268D01*
X169887531Y-136162292D01*
X169889284Y-136155467D01*
X169891753Y-136156101D01*
X169916188Y-136102154D01*
X169922572Y-136095277D01*
X172118234Y-133899615D01*
X172130625Y-133888748D01*
X172149437Y-133874313D01*
X172155987Y-133869287D01*
X172180474Y-133837375D01*
X172180477Y-133837372D01*
X172238866Y-133761277D01*
X172239751Y-133760124D01*
X172248499Y-133748724D01*
X172248500Y-133748722D01*
X172253524Y-133742175D01*
X172276269Y-133687265D01*
X172311678Y-133601779D01*
X172314838Y-133594150D01*
X172330500Y-133475185D01*
X172330500Y-133475178D01*
X172335750Y-133435300D01*
X172331578Y-133403607D01*
X172330500Y-133387164D01*
X172330500Y-109371036D01*
X172331578Y-109354590D01*
X172331687Y-109353766D01*
X172335750Y-109322900D01*
X172330500Y-109283020D01*
X172330500Y-109283015D01*
X172321961Y-109218153D01*
X172315916Y-109172236D01*
X172315915Y-109172234D01*
X172314838Y-109164050D01*
X172310226Y-109152915D01*
X172253524Y-109016024D01*
X172180478Y-108920829D01*
X172180474Y-108920825D01*
X172180471Y-108920821D01*
X172161016Y-108895466D01*
X172161013Y-108895463D01*
X172155987Y-108888913D01*
X172143269Y-108879154D01*
X172130621Y-108869448D01*
X172118230Y-108858581D01*
X170797670Y-107538021D01*
X170767537Y-107483435D01*
X170766298Y-107483866D01*
X170722377Y-107357743D01*
X170712180Y-107328460D01*
X170700345Y-107309519D01*
X170628709Y-107194879D01*
X170624976Y-107188905D01*
X170541617Y-107104962D01*
X170513986Y-107077137D01*
X170513982Y-107077134D01*
X170509022Y-107072139D01*
X170370080Y-106983963D01*
X170296696Y-106957832D01*
X170221689Y-106931123D01*
X170221687Y-106931122D01*
X170215055Y-106928761D01*
X170208067Y-106927928D01*
X170208064Y-106927927D01*
X170129782Y-106918593D01*
X170064508Y-106890666D01*
X170024695Y-106831883D01*
X170018700Y-106793479D01*
X170018700Y-98481695D01*
X170038702Y-98413574D01*
X170092358Y-98367081D01*
X170133718Y-98356174D01*
X170197013Y-98350636D01*
X170278087Y-98343543D01*
X170283400Y-98342119D01*
X170283402Y-98342119D01*
X170493933Y-98285707D01*
X170493935Y-98285706D01*
X170499243Y-98284284D01*
X170504225Y-98281961D01*
X170701762Y-98189849D01*
X170701767Y-98189846D01*
X170706749Y-98187523D01*
X170842500Y-98092469D01*
X170889789Y-98059357D01*
X170889792Y-98059355D01*
X170894300Y-98056198D01*
X171056198Y-97894300D01*
X171069520Y-97875275D01*
X171114098Y-97811611D01*
X171187523Y-97706749D01*
X171189846Y-97701767D01*
X171189849Y-97701762D01*
X171281961Y-97504225D01*
X171281961Y-97504224D01*
X171284284Y-97499243D01*
X171302310Y-97431972D01*
X171342119Y-97283402D01*
X171342119Y-97283400D01*
X171343543Y-97278087D01*
X171363498Y-97050000D01*
X171343543Y-96821913D01*
X171335111Y-96790444D01*
X171285707Y-96606067D01*
X171285706Y-96606065D01*
X171284284Y-96600757D01*
X171275180Y-96581234D01*
X171189849Y-96398238D01*
X171189846Y-96398233D01*
X171187523Y-96393251D01*
X171056198Y-96205700D01*
X170894300Y-96043802D01*
X170889792Y-96040645D01*
X170889789Y-96040643D01*
X170711253Y-95915631D01*
X170706749Y-95912477D01*
X170701765Y-95910153D01*
X170699472Y-95908829D01*
X170650479Y-95857447D01*
X170637043Y-95787733D01*
X170663429Y-95721822D01*
X170699472Y-95690591D01*
X170711002Y-95683934D01*
X170763048Y-95647491D01*
X170771424Y-95637012D01*
X170764356Y-95623566D01*
X170062812Y-94922022D01*
X170048868Y-94914408D01*
X170047035Y-94914539D01*
X170040420Y-94918790D01*
X169334923Y-95624287D01*
X169328493Y-95636062D01*
X169337789Y-95648077D01*
X169388998Y-95683934D01*
X169400528Y-95690591D01*
X169449521Y-95741973D01*
X169462958Y-95811687D01*
X169436571Y-95877598D01*
X169400528Y-95908829D01*
X169398235Y-95910153D01*
X169393251Y-95912477D01*
X169388747Y-95915631D01*
X169210211Y-96040643D01*
X169210208Y-96040645D01*
X169205700Y-96043802D01*
X169043802Y-96205700D01*
X169040645Y-96210208D01*
X169040643Y-96210211D01*
X168930044Y-96368163D01*
X168874587Y-96412491D01*
X168803968Y-96419800D01*
X168737736Y-96384987D01*
X167186870Y-94834121D01*
X167156737Y-94779535D01*
X167155498Y-94779966D01*
X167149887Y-94763854D01*
X167101380Y-94624560D01*
X167095963Y-94615890D01*
X167058211Y-94555475D01*
X168737483Y-94555475D01*
X168756472Y-94772519D01*
X168758375Y-94783312D01*
X168814764Y-94993761D01*
X168818510Y-95004053D01*
X168910586Y-95201511D01*
X168916069Y-95211006D01*
X168952509Y-95263048D01*
X168962988Y-95271424D01*
X168976434Y-95264356D01*
X169677978Y-94562812D01*
X169684356Y-94551132D01*
X170414408Y-94551132D01*
X170414539Y-94552965D01*
X170418790Y-94559580D01*
X171124287Y-95265077D01*
X171136062Y-95271507D01*
X171148077Y-95262211D01*
X171183931Y-95211006D01*
X171189414Y-95201511D01*
X171281490Y-95004053D01*
X171285236Y-94993761D01*
X171341625Y-94783312D01*
X171343528Y-94772519D01*
X171362517Y-94555475D01*
X171362517Y-94544525D01*
X171343528Y-94327481D01*
X171341625Y-94316688D01*
X171285236Y-94106239D01*
X171281490Y-94095947D01*
X171189414Y-93898489D01*
X171183931Y-93888994D01*
X171147491Y-93836952D01*
X171137012Y-93828576D01*
X171123566Y-93835644D01*
X170422022Y-94537188D01*
X170414408Y-94551132D01*
X169684356Y-94551132D01*
X169685592Y-94548868D01*
X169685461Y-94547035D01*
X169681210Y-94540420D01*
X168975713Y-93834923D01*
X168963938Y-93828493D01*
X168951923Y-93837789D01*
X168916069Y-93888994D01*
X168910586Y-93898489D01*
X168818510Y-94095947D01*
X168814764Y-94106239D01*
X168758375Y-94316688D01*
X168756472Y-94327481D01*
X168737483Y-94544525D01*
X168737483Y-94555475D01*
X167058211Y-94555475D01*
X167017909Y-94490979D01*
X167014176Y-94485005D01*
X166945619Y-94415968D01*
X166903186Y-94373237D01*
X166903182Y-94373234D01*
X166898222Y-94368239D01*
X166759280Y-94280063D01*
X166693669Y-94256700D01*
X166610889Y-94227223D01*
X166610887Y-94227222D01*
X166604255Y-94224861D01*
X166597269Y-94224028D01*
X166597265Y-94224027D01*
X166463689Y-94208100D01*
X166440853Y-94205377D01*
X166365671Y-94213279D01*
X166295832Y-94200507D01*
X166243985Y-94152005D01*
X166226500Y-94087969D01*
X166226500Y-93462988D01*
X169328576Y-93462988D01*
X169335644Y-93476434D01*
X170037188Y-94177978D01*
X170051132Y-94185592D01*
X170052965Y-94185461D01*
X170059580Y-94181210D01*
X170765077Y-93475713D01*
X170771507Y-93463938D01*
X170762211Y-93451923D01*
X170711006Y-93416069D01*
X170701511Y-93410586D01*
X170504053Y-93318510D01*
X170493761Y-93314764D01*
X170283312Y-93258375D01*
X170272519Y-93256472D01*
X170055475Y-93237483D01*
X170044525Y-93237483D01*
X169827481Y-93256472D01*
X169816688Y-93258375D01*
X169606239Y-93314764D01*
X169595947Y-93318510D01*
X169398489Y-93410586D01*
X169388994Y-93416069D01*
X169336952Y-93452509D01*
X169328576Y-93462988D01*
X166226500Y-93462988D01*
X166226500Y-90277339D01*
X166246502Y-90209218D01*
X166263405Y-90188244D01*
X166409428Y-90042221D01*
X166459587Y-90011483D01*
X166596830Y-89966890D01*
X166596833Y-89966889D01*
X166603529Y-89964713D01*
X166744879Y-89880451D01*
X166864049Y-89766968D01*
X166876608Y-89748065D01*
X166951214Y-89635775D01*
X166951215Y-89635773D01*
X166955115Y-89629903D01*
X167013551Y-89476068D01*
X167024976Y-89394776D01*
X167035902Y-89317034D01*
X167035903Y-89317027D01*
X167036453Y-89313110D01*
X167036741Y-89292500D01*
X167018398Y-89128966D01*
X167012855Y-89113047D01*
X166992555Y-89054754D01*
X166964280Y-88973560D01*
X166902232Y-88874262D01*
X166880809Y-88839979D01*
X166877076Y-88834005D01*
X166810086Y-88766546D01*
X166766086Y-88722237D01*
X166766082Y-88722234D01*
X166761122Y-88717239D01*
X166622180Y-88629063D01*
X166533732Y-88597568D01*
X166473789Y-88576223D01*
X166473787Y-88576222D01*
X166467155Y-88573861D01*
X166460169Y-88573028D01*
X166460165Y-88573027D01*
X166345671Y-88559375D01*
X166303753Y-88554377D01*
X166296750Y-88555113D01*
X166296749Y-88555113D01*
X166253535Y-88559655D01*
X166140095Y-88571578D01*
X166133427Y-88573848D01*
X165990982Y-88622340D01*
X165990979Y-88622341D01*
X165984315Y-88624610D01*
X165844155Y-88710837D01*
X165832514Y-88722237D01*
X165750681Y-88802374D01*
X165726582Y-88825973D01*
X165637438Y-88964297D01*
X165635027Y-88970920D01*
X165635026Y-88970923D01*
X165604515Y-89054754D01*
X165581156Y-89118932D01*
X165580486Y-89124239D01*
X165547456Y-89183095D01*
X165221766Y-89508785D01*
X165209375Y-89519652D01*
X165184013Y-89539113D01*
X165159526Y-89571025D01*
X165159523Y-89571028D01*
X165159517Y-89571036D01*
X165092302Y-89658632D01*
X165086476Y-89666224D01*
X165025162Y-89814249D01*
X165023207Y-89829099D01*
X165009500Y-89933215D01*
X165009500Y-89933220D01*
X165004250Y-89973100D01*
X165005328Y-89981288D01*
X165008422Y-90004790D01*
X165009500Y-90021236D01*
X165009500Y-94578738D01*
X164989498Y-94646859D01*
X164935842Y-94693352D01*
X164865568Y-94703456D01*
X164800988Y-94673962D01*
X164783538Y-94655442D01*
X164725978Y-94580429D01*
X164725971Y-94580421D01*
X164706516Y-94555066D01*
X164706513Y-94555063D01*
X164701487Y-94548513D01*
X164690940Y-94540420D01*
X164676121Y-94529048D01*
X164663730Y-94518181D01*
X163192270Y-93046721D01*
X163162137Y-92992135D01*
X163160898Y-92992566D01*
X163130671Y-92905765D01*
X163106780Y-92837160D01*
X163098991Y-92824694D01*
X163023309Y-92703579D01*
X163019576Y-92697605D01*
X162949345Y-92626882D01*
X162908586Y-92585837D01*
X162908582Y-92585834D01*
X162903622Y-92580839D01*
X162764680Y-92492663D01*
X162655433Y-92453762D01*
X162597969Y-92412068D01*
X162572169Y-92345925D01*
X162571700Y-92335063D01*
X162571700Y-88484501D01*
X162591702Y-88416380D01*
X162633181Y-88376273D01*
X162689079Y-88342951D01*
X162808249Y-88229468D01*
X162899315Y-88092403D01*
X162957751Y-87938568D01*
X162980653Y-87775610D01*
X162980941Y-87755000D01*
X162962598Y-87591466D01*
X162956798Y-87574809D01*
X162910798Y-87442717D01*
X162908480Y-87436060D01*
X162821276Y-87296505D01*
X162763299Y-87238122D01*
X162710286Y-87184737D01*
X162710282Y-87184734D01*
X162705322Y-87179739D01*
X162566380Y-87091563D01*
X162517247Y-87074068D01*
X162417989Y-87038723D01*
X162417987Y-87038722D01*
X162411355Y-87036361D01*
X162404369Y-87035528D01*
X162404365Y-87035527D01*
X162289871Y-87021875D01*
X162247953Y-87016877D01*
X162240950Y-87017613D01*
X162240949Y-87017613D01*
X162197735Y-87022155D01*
X162084295Y-87034078D01*
X162077627Y-87036348D01*
X161935182Y-87084840D01*
X161935179Y-87084841D01*
X161928515Y-87087110D01*
X161788355Y-87173337D01*
X161670782Y-87288473D01*
X161581638Y-87426797D01*
X161579227Y-87433420D01*
X161579226Y-87433423D01*
X161527766Y-87574809D01*
X161527765Y-87574814D01*
X161525356Y-87581432D01*
X161524473Y-87588424D01*
X161524254Y-87589328D01*
X161501749Y-87636403D01*
X161431676Y-87727724D01*
X161380434Y-87851433D01*
X161370362Y-87875750D01*
X161369285Y-87883934D01*
X161369284Y-87883936D01*
X161363010Y-87931593D01*
X161354700Y-87994715D01*
X161354700Y-87994720D01*
X161349450Y-88034600D01*
X161350528Y-88042788D01*
X161353622Y-88066290D01*
X161354700Y-88082736D01*
X161354700Y-92558761D01*
X161334698Y-92626882D01*
X161281042Y-92673375D01*
X161210768Y-92683479D01*
X161146188Y-92653985D01*
X161139605Y-92647856D01*
X155047915Y-86556166D01*
X155037048Y-86543775D01*
X155022613Y-86524963D01*
X155017587Y-86518413D01*
X154985675Y-86493926D01*
X154985669Y-86493920D01*
X154897029Y-86425904D01*
X154897027Y-86425903D01*
X154890476Y-86420876D01*
X154742451Y-86359562D01*
X154734264Y-86358484D01*
X154734263Y-86358484D01*
X154723058Y-86357009D01*
X154691862Y-86352902D01*
X154623485Y-86343900D01*
X154623482Y-86343900D01*
X154623474Y-86343899D01*
X154591789Y-86339728D01*
X154583600Y-86338650D01*
X154551907Y-86342822D01*
X154535464Y-86343900D01*
X128088236Y-86343900D01*
X128071793Y-86342822D01*
X128040100Y-86338650D01*
X128031911Y-86339728D01*
X128000226Y-86343899D01*
X128000217Y-86343900D01*
X128000215Y-86343900D01*
X128000209Y-86343901D01*
X128000207Y-86343901D01*
X127900643Y-86357009D01*
X127889436Y-86358484D01*
X127889434Y-86358485D01*
X127881249Y-86359562D01*
X127733224Y-86420876D01*
X127687405Y-86456034D01*
X127638037Y-86493915D01*
X127638021Y-86493929D01*
X127612666Y-86513384D01*
X127612663Y-86513387D01*
X127606113Y-86518413D01*
X127601083Y-86524968D01*
X127586648Y-86543779D01*
X127575781Y-86556170D01*
X121510166Y-92621785D01*
X121497775Y-92632652D01*
X121472413Y-92652113D01*
X121447926Y-92684025D01*
X121447923Y-92684028D01*
X121374876Y-92779224D01*
X121313562Y-92927249D01*
X121313562Y-92927250D01*
X121311814Y-92940526D01*
X121305327Y-92989800D01*
X121297900Y-93046215D01*
X121297900Y-93046220D01*
X121292650Y-93086100D01*
X121293728Y-93094288D01*
X121296822Y-93117790D01*
X121297900Y-93134236D01*
X121297900Y-109011122D01*
X121277898Y-109079243D01*
X121224242Y-109125736D01*
X121153968Y-109135840D01*
X121118649Y-109125316D01*
X121104058Y-109118512D01*
X121093761Y-109114764D01*
X120883312Y-109058375D01*
X120872519Y-109056472D01*
X120655475Y-109037483D01*
X120644525Y-109037483D01*
X120427481Y-109056472D01*
X120416688Y-109058375D01*
X120206239Y-109114764D01*
X120195947Y-109118510D01*
X119998489Y-109210586D01*
X119988994Y-109216069D01*
X119936952Y-109252509D01*
X119928576Y-109262988D01*
X119935644Y-109276434D01*
X120920115Y-110260905D01*
X120954141Y-110323217D01*
X120949076Y-110394032D01*
X120920115Y-110439095D01*
X120739095Y-110620115D01*
X120676783Y-110654141D01*
X120605968Y-110649076D01*
X120560905Y-110620115D01*
X119575713Y-109634923D01*
X119563938Y-109628493D01*
X119551923Y-109637789D01*
X119516069Y-109688994D01*
X119510586Y-109698489D01*
X119418510Y-109895947D01*
X119414765Y-109906236D01*
X119378101Y-110043067D01*
X119341149Y-110103689D01*
X119277288Y-110134711D01*
X119206794Y-110126282D01*
X119167299Y-110099550D01*
X116521105Y-107453356D01*
X116487079Y-107391044D01*
X116484200Y-107364261D01*
X116484200Y-107244813D01*
X116505252Y-107175085D01*
X116520540Y-107152075D01*
X116532215Y-107134503D01*
X116543437Y-107104962D01*
X116585642Y-106993854D01*
X116590651Y-106980668D01*
X116603249Y-106891028D01*
X116613002Y-106821634D01*
X116613003Y-106821627D01*
X116613553Y-106817710D01*
X116613841Y-106797100D01*
X116595498Y-106633566D01*
X116592291Y-106624355D01*
X116561139Y-106534900D01*
X116541380Y-106478160D01*
X116530809Y-106461242D01*
X116457909Y-106344579D01*
X116454176Y-106338605D01*
X116370919Y-106254765D01*
X116343186Y-106226837D01*
X116343182Y-106226834D01*
X116338222Y-106221839D01*
X116199280Y-106133663D01*
X116146287Y-106114793D01*
X116050889Y-106080823D01*
X116050887Y-106080822D01*
X116044255Y-106078461D01*
X116037269Y-106077628D01*
X116037265Y-106077627D01*
X115952767Y-106067552D01*
X115883112Y-106059246D01*
X115883111Y-106059246D01*
X115880853Y-106058977D01*
X115880900Y-106058580D01*
X115816937Y-106039310D01*
X115770822Y-105985329D01*
X115759800Y-105933793D01*
X115759800Y-104719609D01*
X115779802Y-104651488D01*
X115813120Y-104619271D01*
X115812017Y-104617818D01*
X115817632Y-104613556D01*
X115823679Y-104609951D01*
X115942849Y-104496468D01*
X115946750Y-104490597D01*
X116030014Y-104365275D01*
X116030015Y-104365273D01*
X116033915Y-104359403D01*
X116064157Y-104279790D01*
X116089850Y-104212153D01*
X116089851Y-104212150D01*
X116092351Y-104205568D01*
X116096110Y-104178821D01*
X116125399Y-104114147D01*
X116181947Y-104076525D01*
X116232532Y-104060089D01*
X116239229Y-104057913D01*
X116380579Y-103973651D01*
X116499749Y-103860168D01*
X116505508Y-103851500D01*
X116586914Y-103728975D01*
X116586915Y-103728973D01*
X116590815Y-103723103D01*
X116649251Y-103569268D01*
X116660693Y-103487851D01*
X116671602Y-103410234D01*
X116671603Y-103410227D01*
X116672153Y-103406310D01*
X116672441Y-103385700D01*
X116654098Y-103222166D01*
X116647395Y-103202916D01*
X116602298Y-103073417D01*
X116599980Y-103066760D01*
X116593307Y-103056080D01*
X116516509Y-102933179D01*
X116512776Y-102927205D01*
X116417275Y-102831035D01*
X116401786Y-102815437D01*
X116401782Y-102815434D01*
X116396822Y-102810439D01*
X116257880Y-102722263D01*
X116102855Y-102667061D01*
X116103026Y-102666579D01*
X116060644Y-102646500D01*
X116039174Y-102630025D01*
X116039172Y-102630023D01*
X115950529Y-102562004D01*
X115950527Y-102562003D01*
X115943976Y-102556976D01*
X115795951Y-102495662D01*
X115787764Y-102494584D01*
X115787763Y-102494584D01*
X115776558Y-102493109D01*
X115745362Y-102489002D01*
X115676985Y-102480000D01*
X115676982Y-102480000D01*
X115676974Y-102479999D01*
X115645289Y-102475828D01*
X115637100Y-102474750D01*
X115605407Y-102478922D01*
X115588964Y-102480000D01*
X111160736Y-102480000D01*
X111144290Y-102478922D01*
X111120788Y-102475828D01*
X111112600Y-102474750D01*
X111104412Y-102475828D01*
X111072729Y-102479999D01*
X111072720Y-102480000D01*
X111072715Y-102480000D01*
X110953750Y-102495662D01*
X110946123Y-102498821D01*
X110946120Y-102498822D01*
X110886432Y-102523546D01*
X110874537Y-102528473D01*
X110805724Y-102556976D01*
X110799173Y-102562003D01*
X110799171Y-102562004D01*
X110737061Y-102609663D01*
X110710528Y-102630023D01*
X110710525Y-102630026D01*
X110678613Y-102654513D01*
X110673583Y-102661068D01*
X110659148Y-102679879D01*
X110648281Y-102692270D01*
X109826817Y-103513734D01*
X109776618Y-103541211D01*
X109777594Y-103544078D01*
X109705405Y-103568653D01*
X109634473Y-103571671D01*
X109573169Y-103535861D01*
X109540957Y-103472592D01*
X109538800Y-103449375D01*
X109538800Y-99238640D01*
X110936463Y-99238640D01*
X110954163Y-99419160D01*
X111011418Y-99591273D01*
X111015065Y-99597295D01*
X111015066Y-99597297D01*
X111058622Y-99669216D01*
X111105380Y-99746424D01*
X111110269Y-99751487D01*
X111110270Y-99751488D01*
X111125357Y-99767111D01*
X111231382Y-99876902D01*
X111256207Y-99893147D01*
X111356898Y-99959037D01*
X111383159Y-99976222D01*
X111389763Y-99978678D01*
X111389765Y-99978679D01*
X111546558Y-100036990D01*
X111546560Y-100036990D01*
X111553168Y-100039448D01*
X111636995Y-100050633D01*
X111725980Y-100062507D01*
X111725984Y-100062507D01*
X111732961Y-100063438D01*
X111739972Y-100062800D01*
X111739976Y-100062800D01*
X111882459Y-100049832D01*
X111913600Y-100046998D01*
X111920302Y-100044820D01*
X111920304Y-100044820D01*
X112079409Y-99993124D01*
X112079412Y-99993123D01*
X112086108Y-99990947D01*
X112241912Y-99898069D01*
X112373266Y-99772982D01*
X112473643Y-99621902D01*
X112532933Y-99465821D01*
X112535555Y-99458920D01*
X112535556Y-99458918D01*
X112538055Y-99452338D01*
X112540942Y-99431795D01*
X112562748Y-99276639D01*
X112562748Y-99276636D01*
X112563299Y-99272717D01*
X112563616Y-99250000D01*
X112543397Y-99069745D01*
X112540216Y-99060610D01*
X112486064Y-98905106D01*
X112486062Y-98905103D01*
X112483745Y-98898448D01*
X112443129Y-98833448D01*
X112391359Y-98750598D01*
X112387626Y-98744624D01*
X112373941Y-98730843D01*
X112264778Y-98620915D01*
X112264774Y-98620912D01*
X112259815Y-98615918D01*
X112248697Y-98608862D01*
X112158721Y-98551762D01*
X112106666Y-98518727D01*
X112060640Y-98502338D01*
X111942425Y-98460243D01*
X111942420Y-98460242D01*
X111935790Y-98457881D01*
X111928802Y-98457048D01*
X111928799Y-98457047D01*
X111803607Y-98442119D01*
X111755680Y-98436404D01*
X111748677Y-98437140D01*
X111748676Y-98437140D01*
X111582288Y-98454628D01*
X111582286Y-98454629D01*
X111575288Y-98455364D01*
X111403579Y-98513818D01*
X111349410Y-98547143D01*
X111255095Y-98605166D01*
X111255092Y-98605168D01*
X111249088Y-98608862D01*
X111244053Y-98613793D01*
X111244050Y-98613795D01*
X111141035Y-98714675D01*
X111119493Y-98735771D01*
X111021235Y-98888238D01*
X111018826Y-98894858D01*
X111018824Y-98894861D01*
X110961606Y-99052066D01*
X110959197Y-99058685D01*
X110936463Y-99238640D01*
X109538800Y-99238640D01*
X109538800Y-96300494D01*
X115624731Y-96300494D01*
X115640789Y-96464268D01*
X115692732Y-96620415D01*
X115696381Y-96626440D01*
X115736076Y-96691984D01*
X115754300Y-96757256D01*
X115754300Y-98264464D01*
X115753222Y-98280907D01*
X115749050Y-98312600D01*
X115754300Y-98352480D01*
X115754300Y-98352485D01*
X115765349Y-98436404D01*
X115766196Y-98442841D01*
X115766196Y-98442843D01*
X115768738Y-98462151D01*
X115769962Y-98471451D01*
X115831276Y-98619476D01*
X115836303Y-98626027D01*
X115836304Y-98626029D01*
X115904320Y-98714669D01*
X115904326Y-98714675D01*
X115928813Y-98746587D01*
X115935368Y-98751617D01*
X115954179Y-98766052D01*
X115966570Y-98776919D01*
X116624085Y-99434434D01*
X116654548Y-99483757D01*
X116704532Y-99634015D01*
X116708181Y-99640040D01*
X116785139Y-99767111D01*
X116789779Y-99774773D01*
X116794670Y-99779838D01*
X116794671Y-99779839D01*
X116843592Y-99830498D01*
X116904091Y-99893147D01*
X117041789Y-99983254D01*
X117196028Y-100040615D01*
X117203009Y-100041546D01*
X117203011Y-100041547D01*
X117352161Y-100061448D01*
X117352165Y-100061448D01*
X117359142Y-100062379D01*
X117366153Y-100061741D01*
X117366157Y-100061741D01*
X117516003Y-100048104D01*
X117516004Y-100048104D01*
X117523024Y-100047465D01*
X117551662Y-100038160D01*
X117672830Y-99998790D01*
X117672833Y-99998789D01*
X117679529Y-99996613D01*
X117820879Y-99912351D01*
X117940049Y-99798868D01*
X117952692Y-99779839D01*
X118027214Y-99667675D01*
X118027215Y-99667673D01*
X118031115Y-99661803D01*
X118089551Y-99507968D01*
X118104683Y-99400297D01*
X118111902Y-99348934D01*
X118111903Y-99348927D01*
X118112453Y-99345010D01*
X118112741Y-99324400D01*
X118094398Y-99160866D01*
X118086722Y-99138822D01*
X118061036Y-99065063D01*
X118040280Y-99005460D01*
X118035676Y-98998091D01*
X117956809Y-98871879D01*
X117953076Y-98865905D01*
X117864709Y-98776919D01*
X117842086Y-98754137D01*
X117842082Y-98754134D01*
X117837122Y-98749139D01*
X117698180Y-98660963D01*
X117543155Y-98605761D01*
X117542182Y-98605645D01*
X117484019Y-98573270D01*
X117008205Y-98097456D01*
X116974179Y-98035144D01*
X116971300Y-98008361D01*
X116971300Y-97900000D01*
X118036502Y-97900000D01*
X118056457Y-98128087D01*
X118057881Y-98133400D01*
X118057881Y-98133402D01*
X118114189Y-98343543D01*
X118115716Y-98349243D01*
X118118039Y-98354224D01*
X118118039Y-98354225D01*
X118210151Y-98551762D01*
X118210154Y-98551767D01*
X118212477Y-98556749D01*
X118343802Y-98744300D01*
X118505700Y-98906198D01*
X118510208Y-98909355D01*
X118510211Y-98909357D01*
X118571497Y-98952270D01*
X118693251Y-99037523D01*
X118698233Y-99039846D01*
X118698238Y-99039849D01*
X118870129Y-99120002D01*
X118900757Y-99134284D01*
X118906065Y-99135706D01*
X118906067Y-99135707D01*
X119116598Y-99192119D01*
X119116600Y-99192119D01*
X119121913Y-99193543D01*
X119350000Y-99213498D01*
X119578087Y-99193543D01*
X119583400Y-99192119D01*
X119583402Y-99192119D01*
X119793933Y-99135707D01*
X119793935Y-99135706D01*
X119799243Y-99134284D01*
X119829871Y-99120002D01*
X120001762Y-99039849D01*
X120001767Y-99039846D01*
X120006749Y-99037523D01*
X120128503Y-98952270D01*
X120189789Y-98909357D01*
X120189792Y-98909355D01*
X120194300Y-98906198D01*
X120356198Y-98744300D01*
X120487523Y-98556749D01*
X120489846Y-98551767D01*
X120489849Y-98551762D01*
X120581961Y-98354225D01*
X120581961Y-98354224D01*
X120584284Y-98349243D01*
X120585812Y-98343543D01*
X120642119Y-98133402D01*
X120642119Y-98133400D01*
X120643543Y-98128087D01*
X120663498Y-97900000D01*
X120643543Y-97671913D01*
X120640416Y-97660243D01*
X120585707Y-97456067D01*
X120585706Y-97456065D01*
X120584284Y-97450757D01*
X120581961Y-97445775D01*
X120489849Y-97248238D01*
X120489846Y-97248233D01*
X120487523Y-97243251D01*
X120375623Y-97083441D01*
X120359357Y-97060211D01*
X120359355Y-97060208D01*
X120356198Y-97055700D01*
X120194300Y-96893802D01*
X120189792Y-96890645D01*
X120189789Y-96890643D01*
X120011253Y-96765631D01*
X120006749Y-96762477D01*
X120001765Y-96760153D01*
X119999472Y-96758829D01*
X119950479Y-96707447D01*
X119937043Y-96637733D01*
X119963429Y-96571822D01*
X119999472Y-96540591D01*
X120011002Y-96533934D01*
X120063048Y-96497491D01*
X120071424Y-96487012D01*
X120064356Y-96473566D01*
X119362812Y-95772022D01*
X119348868Y-95764408D01*
X119347035Y-95764539D01*
X119340420Y-95768790D01*
X118634923Y-96474287D01*
X118628493Y-96486062D01*
X118637789Y-96498077D01*
X118688998Y-96533934D01*
X118700528Y-96540591D01*
X118749521Y-96591973D01*
X118762958Y-96661687D01*
X118736571Y-96727598D01*
X118700528Y-96758829D01*
X118698235Y-96760153D01*
X118693251Y-96762477D01*
X118688747Y-96765631D01*
X118510211Y-96890643D01*
X118510208Y-96890645D01*
X118505700Y-96893802D01*
X118343802Y-97055700D01*
X118340645Y-97060208D01*
X118340643Y-97060211D01*
X118324377Y-97083441D01*
X118212477Y-97243251D01*
X118210154Y-97248233D01*
X118210151Y-97248238D01*
X118118039Y-97445775D01*
X118115716Y-97450757D01*
X118114294Y-97456065D01*
X118114293Y-97456067D01*
X118059584Y-97660243D01*
X118056457Y-97671913D01*
X118036502Y-97900000D01*
X116971300Y-97900000D01*
X116971300Y-96758513D01*
X116992352Y-96688785D01*
X117005291Y-96669310D01*
X117019315Y-96648203D01*
X117077751Y-96494368D01*
X117091646Y-96395499D01*
X117100102Y-96335334D01*
X117100103Y-96335327D01*
X117100653Y-96331410D01*
X117100795Y-96321230D01*
X117100886Y-96314762D01*
X117100886Y-96314756D01*
X117100941Y-96310800D01*
X117082598Y-96147266D01*
X117076798Y-96130609D01*
X117030798Y-95998517D01*
X117028480Y-95991860D01*
X116941276Y-95852305D01*
X116864318Y-95774808D01*
X116830286Y-95740537D01*
X116830282Y-95740534D01*
X116825322Y-95735539D01*
X116686380Y-95647363D01*
X116618306Y-95623123D01*
X116537989Y-95594523D01*
X116537987Y-95594522D01*
X116531355Y-95592161D01*
X116524369Y-95591328D01*
X116524365Y-95591327D01*
X116409871Y-95577675D01*
X116367953Y-95572677D01*
X116360950Y-95573413D01*
X116360949Y-95573413D01*
X116317735Y-95577955D01*
X116204295Y-95589878D01*
X116197627Y-95592148D01*
X116055182Y-95640640D01*
X116055179Y-95640641D01*
X116048515Y-95642910D01*
X115908355Y-95729137D01*
X115872204Y-95764539D01*
X115801861Y-95833424D01*
X115790782Y-95844273D01*
X115701638Y-95982597D01*
X115699227Y-95989220D01*
X115699226Y-95989223D01*
X115647766Y-96130609D01*
X115647765Y-96130614D01*
X115645356Y-96137232D01*
X115624731Y-96300494D01*
X109538800Y-96300494D01*
X109538800Y-95405475D01*
X118037483Y-95405475D01*
X118056472Y-95622519D01*
X118058375Y-95633312D01*
X118114764Y-95843761D01*
X118118510Y-95854053D01*
X118210586Y-96051511D01*
X118216069Y-96061006D01*
X118252509Y-96113048D01*
X118262988Y-96121424D01*
X118276434Y-96114356D01*
X118977978Y-95412812D01*
X118984356Y-95401132D01*
X119714408Y-95401132D01*
X119714539Y-95402965D01*
X119718790Y-95409580D01*
X120424287Y-96115077D01*
X120436062Y-96121507D01*
X120448077Y-96112211D01*
X120483931Y-96061006D01*
X120489414Y-96051511D01*
X120581490Y-95854053D01*
X120585236Y-95843761D01*
X120641625Y-95633312D01*
X120643528Y-95622519D01*
X120662517Y-95405475D01*
X120662517Y-95394525D01*
X120643528Y-95177481D01*
X120641625Y-95166688D01*
X120585236Y-94956239D01*
X120581490Y-94945947D01*
X120489414Y-94748489D01*
X120483931Y-94738994D01*
X120447491Y-94686952D01*
X120437012Y-94678576D01*
X120423566Y-94685644D01*
X119722022Y-95387188D01*
X119714408Y-95401132D01*
X118984356Y-95401132D01*
X118985592Y-95398868D01*
X118985461Y-95397035D01*
X118981210Y-95390420D01*
X118275713Y-94684923D01*
X118263938Y-94678493D01*
X118251923Y-94687789D01*
X118216069Y-94738994D01*
X118210586Y-94748489D01*
X118118510Y-94945947D01*
X118114764Y-94956239D01*
X118058375Y-95166688D01*
X118056472Y-95177481D01*
X118037483Y-95394525D01*
X118037483Y-95405475D01*
X109538800Y-95405475D01*
X109538800Y-94318736D01*
X109539177Y-94312988D01*
X118628576Y-94312988D01*
X118635644Y-94326434D01*
X119337188Y-95027978D01*
X119351132Y-95035592D01*
X119352965Y-95035461D01*
X119359580Y-95031210D01*
X120065077Y-94325713D01*
X120071507Y-94313938D01*
X120062211Y-94301923D01*
X120011006Y-94266069D01*
X120001511Y-94260586D01*
X119804053Y-94168510D01*
X119793761Y-94164764D01*
X119583312Y-94108375D01*
X119572519Y-94106472D01*
X119355475Y-94087483D01*
X119344525Y-94087483D01*
X119127481Y-94106472D01*
X119116688Y-94108375D01*
X118906239Y-94164764D01*
X118895947Y-94168510D01*
X118698489Y-94260586D01*
X118688994Y-94266069D01*
X118636952Y-94302509D01*
X118628576Y-94312988D01*
X109539177Y-94312988D01*
X109539878Y-94302290D01*
X109542972Y-94278788D01*
X109544050Y-94270600D01*
X109538800Y-94230722D01*
X109538800Y-94230715D01*
X109523138Y-94111750D01*
X109475244Y-93996124D01*
X109461824Y-93963724D01*
X109388777Y-93868528D01*
X109388774Y-93868525D01*
X109364287Y-93836613D01*
X109353705Y-93828493D01*
X109338921Y-93817148D01*
X109326530Y-93806281D01*
X109238570Y-93718321D01*
X109208437Y-93663735D01*
X109207198Y-93664166D01*
X109191791Y-93619923D01*
X109153080Y-93508760D01*
X109132881Y-93476434D01*
X109069609Y-93375179D01*
X109065876Y-93369205D01*
X108987941Y-93290724D01*
X108954886Y-93257437D01*
X108954882Y-93257434D01*
X108949922Y-93252439D01*
X108810980Y-93164263D01*
X108680469Y-93117790D01*
X108662589Y-93111423D01*
X108662587Y-93111422D01*
X108655955Y-93109061D01*
X108648969Y-93108228D01*
X108648965Y-93108227D01*
X108532062Y-93094288D01*
X108492553Y-93089577D01*
X108485550Y-93090313D01*
X108485549Y-93090313D01*
X108447730Y-93094288D01*
X108328895Y-93106778D01*
X108322227Y-93109048D01*
X108179782Y-93157540D01*
X108179779Y-93157541D01*
X108173115Y-93159810D01*
X108100544Y-93204456D01*
X108057019Y-93231233D01*
X108032955Y-93246037D01*
X108004387Y-93274013D01*
X107927865Y-93348949D01*
X107915382Y-93361173D01*
X107907810Y-93372923D01*
X107854097Y-93419346D01*
X107783811Y-93429361D01*
X107719267Y-93399786D01*
X107680959Y-93340011D01*
X107675900Y-93304666D01*
X107675900Y-93037936D01*
X107676978Y-93021490D01*
X107680072Y-92997986D01*
X107681150Y-92989800D01*
X107675900Y-92949922D01*
X107675900Y-92949915D01*
X107660238Y-92830950D01*
X107653412Y-92814471D01*
X107644605Y-92780297D01*
X107633183Y-92678465D01*
X107632398Y-92671466D01*
X107626598Y-92654809D01*
X107580598Y-92522717D01*
X107578280Y-92516060D01*
X107566158Y-92496660D01*
X107494809Y-92382479D01*
X107491076Y-92376505D01*
X107431208Y-92316218D01*
X107380086Y-92264737D01*
X107380082Y-92264734D01*
X107375122Y-92259739D01*
X107236180Y-92171563D01*
X107162818Y-92145440D01*
X107087789Y-92118723D01*
X107087787Y-92118722D01*
X107081155Y-92116361D01*
X107074169Y-92115528D01*
X107074165Y-92115527D01*
X106938266Y-92099323D01*
X106917753Y-92096877D01*
X106910750Y-92097613D01*
X106910749Y-92097613D01*
X106867535Y-92102155D01*
X106754095Y-92114078D01*
X106747427Y-92116348D01*
X106604982Y-92164840D01*
X106604979Y-92164841D01*
X106598315Y-92167110D01*
X106458155Y-92253337D01*
X106375556Y-92334224D01*
X106312891Y-92367594D01*
X106287398Y-92370200D01*
X106168893Y-92370200D01*
X106100772Y-92350198D01*
X106054279Y-92296542D01*
X106044175Y-92226268D01*
X106073669Y-92161688D01*
X106082001Y-92152954D01*
X106120441Y-92116348D01*
X106156649Y-92081868D01*
X106164710Y-92069735D01*
X106243814Y-91950675D01*
X106243815Y-91950673D01*
X106247715Y-91944803D01*
X106306151Y-91790968D01*
X106321585Y-91681149D01*
X106328502Y-91631934D01*
X106328503Y-91631927D01*
X106329053Y-91628010D01*
X106329341Y-91607400D01*
X106310998Y-91443866D01*
X106300097Y-91412561D01*
X106273884Y-91337288D01*
X106256880Y-91288460D01*
X106236466Y-91255790D01*
X106173409Y-91154879D01*
X106169676Y-91148905D01*
X106110484Y-91089298D01*
X106058686Y-91037137D01*
X106058682Y-91037134D01*
X106053722Y-91032139D01*
X105914780Y-90943963D01*
X105833238Y-90914927D01*
X105766389Y-90891123D01*
X105766387Y-90891122D01*
X105759755Y-90888761D01*
X105752769Y-90887928D01*
X105752765Y-90887927D01*
X105630276Y-90873322D01*
X105596353Y-90869277D01*
X105589350Y-90870013D01*
X105589349Y-90870013D01*
X105557867Y-90873322D01*
X105432695Y-90886478D01*
X105426027Y-90888748D01*
X105283582Y-90937240D01*
X105283579Y-90937241D01*
X105276915Y-90939510D01*
X105233027Y-90966510D01*
X105210745Y-90980218D01*
X105144723Y-90998900D01*
X102034808Y-90998900D01*
X101967292Y-90979284D01*
X101960133Y-90974741D01*
X101954180Y-90970963D01*
X101888962Y-90947740D01*
X101805789Y-90918123D01*
X101805787Y-90918122D01*
X101799155Y-90915761D01*
X101792169Y-90914928D01*
X101792165Y-90914927D01*
X101665709Y-90899849D01*
X101635753Y-90896277D01*
X101628750Y-90897013D01*
X101628749Y-90897013D01*
X101585535Y-90901555D01*
X101472095Y-90913478D01*
X101465427Y-90915748D01*
X101322982Y-90964240D01*
X101322979Y-90964241D01*
X101316315Y-90966510D01*
X101270433Y-90994737D01*
X101182154Y-91049046D01*
X101182152Y-91049048D01*
X101176155Y-91052737D01*
X101171124Y-91057663D01*
X101171121Y-91057666D01*
X101155132Y-91073324D01*
X101092467Y-91106694D01*
X101066975Y-91109300D01*
X98998739Y-91109300D01*
X98930618Y-91089298D01*
X98884125Y-91035642D01*
X98874021Y-90965368D01*
X98903515Y-90900788D01*
X98909644Y-90894205D01*
X100133444Y-89670405D01*
X100195756Y-89636379D01*
X100222539Y-89633500D01*
X106057978Y-89633500D01*
X106126971Y-89654068D01*
X106172489Y-89683854D01*
X106326728Y-89741215D01*
X106333709Y-89742146D01*
X106333711Y-89742147D01*
X106482861Y-89762048D01*
X106482865Y-89762048D01*
X106489842Y-89762979D01*
X106496853Y-89762341D01*
X106496857Y-89762341D01*
X106646703Y-89748704D01*
X106646704Y-89748704D01*
X106653724Y-89748065D01*
X106714877Y-89728195D01*
X106803530Y-89699390D01*
X106803533Y-89699389D01*
X106810229Y-89697213D01*
X106951579Y-89612951D01*
X107070749Y-89499468D01*
X107074650Y-89493597D01*
X107157914Y-89368275D01*
X107157915Y-89368273D01*
X107161815Y-89362403D01*
X107220251Y-89208568D01*
X107232844Y-89118965D01*
X107242602Y-89049534D01*
X107242603Y-89049527D01*
X107243153Y-89045610D01*
X107243441Y-89025000D01*
X107225098Y-88861466D01*
X107217616Y-88839979D01*
X107174360Y-88715766D01*
X107170980Y-88706060D01*
X107142990Y-88661266D01*
X107087509Y-88572479D01*
X107083776Y-88566505D01*
X107016545Y-88498803D01*
X106972786Y-88454737D01*
X106972782Y-88454734D01*
X106967822Y-88449739D01*
X106828880Y-88361563D01*
X106743066Y-88331006D01*
X106680489Y-88308723D01*
X106680487Y-88308722D01*
X106673855Y-88306361D01*
X106666869Y-88305528D01*
X106666865Y-88305527D01*
X106552371Y-88291875D01*
X106510453Y-88286877D01*
X106503450Y-88287613D01*
X106503449Y-88287613D01*
X106460235Y-88292155D01*
X106346795Y-88304078D01*
X106340127Y-88306348D01*
X106197682Y-88354840D01*
X106197679Y-88354841D01*
X106191015Y-88357110D01*
X106159868Y-88376272D01*
X106124845Y-88397818D01*
X106058823Y-88416500D01*
X99966436Y-88416500D01*
X99949990Y-88415422D01*
X99926488Y-88412328D01*
X99918300Y-88411250D01*
X99910112Y-88412328D01*
X99878429Y-88416499D01*
X99878420Y-88416500D01*
X99878415Y-88416500D01*
X99759450Y-88432162D01*
X99611425Y-88493476D01*
X99611423Y-88493477D01*
X99611424Y-88493477D01*
X99516228Y-88566523D01*
X99516225Y-88566526D01*
X99484313Y-88591013D01*
X99479283Y-88597568D01*
X99464848Y-88616379D01*
X99453981Y-88628770D01*
X97391256Y-90691495D01*
X97328944Y-90725521D01*
X97302161Y-90728400D01*
X93295739Y-90728400D01*
X93227618Y-90708398D01*
X93206644Y-90691495D01*
X92363744Y-89848595D01*
X92329718Y-89786283D01*
X92334783Y-89715468D01*
X92377330Y-89658632D01*
X92443850Y-89633821D01*
X92452839Y-89633500D01*
X95205078Y-89633500D01*
X95274071Y-89654068D01*
X95319589Y-89683854D01*
X95473828Y-89741215D01*
X95480809Y-89742146D01*
X95480811Y-89742147D01*
X95629961Y-89762048D01*
X95629965Y-89762048D01*
X95636942Y-89762979D01*
X95643953Y-89762341D01*
X95643957Y-89762341D01*
X95793803Y-89748704D01*
X95793804Y-89748704D01*
X95800824Y-89748065D01*
X95861977Y-89728195D01*
X95950630Y-89699390D01*
X95950633Y-89699389D01*
X95957329Y-89697213D01*
X96098679Y-89612951D01*
X96217849Y-89499468D01*
X96221750Y-89493597D01*
X96305014Y-89368275D01*
X96305015Y-89368273D01*
X96308915Y-89362403D01*
X96367351Y-89208568D01*
X96379944Y-89118965D01*
X96389702Y-89049534D01*
X96389703Y-89049527D01*
X96390253Y-89045610D01*
X96390541Y-89025000D01*
X96372198Y-88861466D01*
X96364716Y-88839979D01*
X96321460Y-88715766D01*
X96318080Y-88706060D01*
X96290090Y-88661266D01*
X96234609Y-88572479D01*
X96230876Y-88566505D01*
X96163645Y-88498803D01*
X96119886Y-88454737D01*
X96119882Y-88454734D01*
X96114922Y-88449739D01*
X95975980Y-88361563D01*
X95890166Y-88331006D01*
X95827589Y-88308723D01*
X95827587Y-88308722D01*
X95820955Y-88306361D01*
X95813969Y-88305528D01*
X95813965Y-88305527D01*
X95699471Y-88291875D01*
X95657553Y-88286877D01*
X95650550Y-88287613D01*
X95650549Y-88287613D01*
X95607335Y-88292155D01*
X95493895Y-88304078D01*
X95487227Y-88306348D01*
X95344782Y-88354840D01*
X95344779Y-88354841D01*
X95338115Y-88357110D01*
X95306968Y-88376272D01*
X95271945Y-88397818D01*
X95205923Y-88416500D01*
X85166836Y-88416500D01*
X85150390Y-88415422D01*
X85126888Y-88412328D01*
X85118700Y-88411250D01*
X85110512Y-88412328D01*
X85078829Y-88416499D01*
X85078820Y-88416500D01*
X85078815Y-88416500D01*
X84959850Y-88432162D01*
X84952221Y-88435322D01*
X84825333Y-88487881D01*
X84811825Y-88493476D01*
X84811823Y-88493477D01*
X84811824Y-88493477D01*
X84811547Y-88493690D01*
X84807791Y-88495404D01*
X84807396Y-88494538D01*
X84767204Y-88514634D01*
X84758059Y-88515936D01*
X84747195Y-88517078D01*
X84740529Y-88519347D01*
X84740526Y-88519348D01*
X84598082Y-88567840D01*
X84598079Y-88567841D01*
X84591415Y-88570110D01*
X84451255Y-88656337D01*
X84333682Y-88771473D01*
X84244538Y-88909797D01*
X84188256Y-89064432D01*
X84187586Y-89069739D01*
X84154556Y-89128595D01*
X81907466Y-91375685D01*
X81895075Y-91386552D01*
X81869713Y-91406013D01*
X81845226Y-91437925D01*
X81845223Y-91437928D01*
X81772176Y-91533124D01*
X81757332Y-91568962D01*
X81749964Y-91586749D01*
X81705415Y-91642029D01*
X81638052Y-91664450D01*
X81569261Y-91646892D01*
X81520882Y-91594929D01*
X81507555Y-91538521D01*
X81507560Y-91465813D01*
X81507993Y-85083990D01*
X81528000Y-85015872D01*
X81581658Y-84969383D01*
X81633993Y-84958000D01*
X172866000Y-84958000D01*
X172934121Y-84978002D01*
G37*
%TD.AperFunction*%
%TA.AperFunction,Conductor*%
G36*
X126468180Y-139578102D02*
G01*
X126514673Y-139631758D01*
X126524777Y-139702032D01*
X126521766Y-139716711D01*
X126518606Y-139728503D01*
X126518942Y-139742599D01*
X126526884Y-139746000D01*
X129067967Y-139746000D01*
X129081498Y-139742027D01*
X129082727Y-139733478D01*
X129078234Y-139716711D01*
X129079924Y-139645735D01*
X129119718Y-139586939D01*
X129184982Y-139558991D01*
X129199941Y-139558100D01*
X129243960Y-139558100D01*
X129312081Y-139578102D01*
X129333055Y-139595004D01*
X130134281Y-140396229D01*
X130145149Y-140408621D01*
X130164613Y-140433987D01*
X130171159Y-140439010D01*
X130171162Y-140439013D01*
X130196527Y-140458476D01*
X130196529Y-140458477D01*
X130291724Y-140531524D01*
X130299350Y-140534683D01*
X130299352Y-140534684D01*
X130426357Y-140587291D01*
X130481638Y-140631839D01*
X130504059Y-140699203D01*
X130486501Y-140767994D01*
X130434539Y-140816372D01*
X130378139Y-140829700D01*
X129054103Y-140829700D01*
X128985982Y-140809698D01*
X128939489Y-140756042D01*
X128929385Y-140685768D01*
X128939908Y-140650450D01*
X129031490Y-140454053D01*
X129035236Y-140443761D01*
X129081394Y-140271497D01*
X129081058Y-140257401D01*
X129073116Y-140254000D01*
X126532033Y-140254000D01*
X126518502Y-140257973D01*
X126514127Y-140288403D01*
X126484634Y-140352984D01*
X126424908Y-140391367D01*
X126353911Y-140391367D01*
X126300315Y-140359566D01*
X125713944Y-139773195D01*
X125679918Y-139710883D01*
X125684983Y-139640068D01*
X125727530Y-139583232D01*
X125794050Y-139558421D01*
X125803039Y-139558100D01*
X126400059Y-139558100D01*
X126468180Y-139578102D01*
G37*
%TD.AperFunction*%
%TA.AperFunction,Conductor*%
G36*
X150691545Y-139490902D02*
G01*
X150738038Y-139544558D01*
X150748142Y-139614832D01*
X150745131Y-139629511D01*
X150718606Y-139728503D01*
X150718942Y-139742599D01*
X150726884Y-139746000D01*
X152128000Y-139746000D01*
X152196121Y-139766002D01*
X152242614Y-139819658D01*
X152254000Y-139872000D01*
X152254000Y-140128000D01*
X152233998Y-140196121D01*
X152180342Y-140242614D01*
X152128000Y-140254000D01*
X150732033Y-140254000D01*
X150718502Y-140257973D01*
X150717273Y-140266522D01*
X150721739Y-140283189D01*
X150720049Y-140354166D01*
X150680254Y-140412962D01*
X150614990Y-140440909D01*
X150600032Y-140441800D01*
X145444839Y-140441800D01*
X145376718Y-140421798D01*
X145355744Y-140404895D01*
X144636844Y-139685995D01*
X144602818Y-139623683D01*
X144607883Y-139552868D01*
X144650430Y-139496032D01*
X144716950Y-139471221D01*
X144725939Y-139470900D01*
X150623424Y-139470900D01*
X150691545Y-139490902D01*
G37*
%TD.AperFunction*%
%TA.AperFunction,Conductor*%
G36*
X90411536Y-89653502D02*
G01*
X90458029Y-89707158D01*
X90462966Y-89719710D01*
X90497032Y-89822115D01*
X90505037Y-89835332D01*
X90556166Y-89919755D01*
X90582279Y-89962873D01*
X90696591Y-90081247D01*
X90834289Y-90171354D01*
X90988528Y-90228715D01*
X90995514Y-90229647D01*
X90999155Y-90230555D01*
X91057769Y-90263718D01*
X92041856Y-91247805D01*
X92075882Y-91310117D01*
X92070817Y-91380932D01*
X92041856Y-91425995D01*
X90334566Y-93133285D01*
X90322175Y-93144152D01*
X90296813Y-93163613D01*
X90272326Y-93195525D01*
X90272323Y-93195528D01*
X90253101Y-93220578D01*
X90214151Y-93271339D01*
X90199276Y-93290724D01*
X90137962Y-93438749D01*
X90137962Y-93438750D01*
X90136214Y-93452026D01*
X90129717Y-93501379D01*
X90122300Y-93557715D01*
X90122300Y-93557720D01*
X90117050Y-93597600D01*
X90119117Y-93613297D01*
X90121222Y-93629290D01*
X90122300Y-93645736D01*
X90122300Y-96794461D01*
X90102298Y-96862582D01*
X90048642Y-96909075D01*
X89978368Y-96919179D01*
X89913788Y-96889685D01*
X89907205Y-96883556D01*
X87576870Y-94553221D01*
X87546737Y-94498635D01*
X87545498Y-94499066D01*
X87538861Y-94480007D01*
X87506553Y-94387231D01*
X87503039Y-94316323D01*
X87536449Y-94256700D01*
X89823134Y-91970015D01*
X89835525Y-91959148D01*
X89854337Y-91944713D01*
X89860887Y-91939687D01*
X89885374Y-91907775D01*
X89885378Y-91907771D01*
X89958424Y-91812576D01*
X90019738Y-91664551D01*
X90040651Y-91505700D01*
X90036478Y-91474001D01*
X90035400Y-91457556D01*
X90035400Y-91330913D01*
X90056452Y-91261185D01*
X90083415Y-91220603D01*
X90141851Y-91066768D01*
X90154146Y-90979284D01*
X90164202Y-90907734D01*
X90164203Y-90907727D01*
X90164753Y-90903810D01*
X90164960Y-90888984D01*
X90164986Y-90887162D01*
X90164986Y-90887156D01*
X90165041Y-90883200D01*
X90146698Y-90719666D01*
X90092580Y-90564260D01*
X90062711Y-90516459D01*
X90009109Y-90430679D01*
X90005376Y-90424705D01*
X89947399Y-90366322D01*
X89894386Y-90312937D01*
X89894382Y-90312934D01*
X89889422Y-90307939D01*
X89750480Y-90219763D01*
X89701347Y-90202268D01*
X89602089Y-90166923D01*
X89602087Y-90166922D01*
X89595455Y-90164561D01*
X89588469Y-90163728D01*
X89588465Y-90163727D01*
X89473971Y-90150075D01*
X89432053Y-90145077D01*
X89425050Y-90145813D01*
X89425049Y-90145813D01*
X89381835Y-90150355D01*
X89268395Y-90162278D01*
X89261727Y-90164548D01*
X89119282Y-90213040D01*
X89119279Y-90213041D01*
X89112615Y-90215310D01*
X88972455Y-90301537D01*
X88854882Y-90416673D01*
X88765738Y-90554997D01*
X88763327Y-90561620D01*
X88763326Y-90561623D01*
X88721702Y-90675985D01*
X88709456Y-90709632D01*
X88708573Y-90716625D01*
X88708073Y-90720579D01*
X88707047Y-90722932D01*
X88706917Y-90723468D01*
X88706823Y-90723445D01*
X88679690Y-90785655D01*
X88620630Y-90825056D01*
X88596239Y-90830095D01*
X88463195Y-90844078D01*
X88456527Y-90846348D01*
X88314082Y-90894840D01*
X88314079Y-90894841D01*
X88307415Y-90897110D01*
X88273259Y-90918123D01*
X88181228Y-90974741D01*
X88167255Y-90983337D01*
X88049682Y-91098473D01*
X87960538Y-91236797D01*
X87958127Y-91243420D01*
X87958126Y-91243423D01*
X87928831Y-91323911D01*
X87904256Y-91391432D01*
X87903586Y-91396739D01*
X87870556Y-91455595D01*
X84026866Y-95299285D01*
X84014475Y-95310152D01*
X83989113Y-95329613D01*
X83964626Y-95361525D01*
X83964623Y-95361528D01*
X83964617Y-95361536D01*
X83898295Y-95447968D01*
X83891576Y-95456724D01*
X83830303Y-95604650D01*
X83830262Y-95604750D01*
X83814600Y-95723715D01*
X83814600Y-95723720D01*
X83809350Y-95763600D01*
X83810826Y-95774808D01*
X83813522Y-95795290D01*
X83814600Y-95811736D01*
X83814600Y-118671364D01*
X83813522Y-118687807D01*
X83809350Y-118719500D01*
X83814600Y-118759380D01*
X83814600Y-118759385D01*
X83823795Y-118829229D01*
X83830262Y-118878351D01*
X83891576Y-119026376D01*
X83896603Y-119032927D01*
X83896604Y-119032929D01*
X83964620Y-119121569D01*
X83964626Y-119121575D01*
X83989113Y-119153487D01*
X83995668Y-119158517D01*
X84014479Y-119172952D01*
X84026870Y-119183819D01*
X84212385Y-119369334D01*
X84242848Y-119418657D01*
X84292832Y-119568915D01*
X84314487Y-119604671D01*
X84356791Y-119674522D01*
X84378079Y-119709673D01*
X84492391Y-119828047D01*
X84630089Y-119918154D01*
X84784328Y-119975515D01*
X84791309Y-119976446D01*
X84791311Y-119976447D01*
X84940461Y-119996348D01*
X84940465Y-119996348D01*
X84947442Y-119997279D01*
X84954453Y-119996641D01*
X84954456Y-119996641D01*
X85010070Y-119991580D01*
X85076081Y-119985572D01*
X85145734Y-119999317D01*
X85196898Y-120048538D01*
X85213500Y-120111053D01*
X85213500Y-125631192D01*
X85193498Y-125699313D01*
X85139842Y-125745806D01*
X85072581Y-125756306D01*
X84905680Y-125736404D01*
X84898677Y-125737140D01*
X84898676Y-125737140D01*
X84732288Y-125754628D01*
X84732286Y-125754629D01*
X84725288Y-125755364D01*
X84553579Y-125813818D01*
X84533337Y-125826271D01*
X84405095Y-125905166D01*
X84405092Y-125905168D01*
X84399088Y-125908862D01*
X84394053Y-125913793D01*
X84394050Y-125913795D01*
X84282823Y-126022717D01*
X84269493Y-126035771D01*
X84171235Y-126188238D01*
X84168826Y-126194858D01*
X84168824Y-126194861D01*
X84111606Y-126352066D01*
X84109197Y-126358685D01*
X84086463Y-126538640D01*
X84104163Y-126719160D01*
X84161418Y-126891273D01*
X84165065Y-126897295D01*
X84165066Y-126897297D01*
X84248824Y-127035598D01*
X84255380Y-127046424D01*
X84260269Y-127051487D01*
X84260270Y-127051488D01*
X84307655Y-127100556D01*
X84381382Y-127176902D01*
X84401560Y-127190106D01*
X84500339Y-127254745D01*
X84533159Y-127276222D01*
X84539763Y-127278678D01*
X84539765Y-127278679D01*
X84696558Y-127336990D01*
X84696560Y-127336990D01*
X84703168Y-127339448D01*
X84786995Y-127350633D01*
X84875980Y-127362507D01*
X84875984Y-127362507D01*
X84882961Y-127363438D01*
X84889972Y-127362800D01*
X84889976Y-127362800D01*
X85056580Y-127347637D01*
X85056581Y-127347637D01*
X85063600Y-127346998D01*
X85064548Y-127346690D01*
X85132914Y-127352386D01*
X85189247Y-127395596D01*
X85213276Y-127462402D01*
X85213500Y-127469917D01*
X85213500Y-134642664D01*
X85212422Y-134659107D01*
X85208250Y-134690800D01*
X85213500Y-134730680D01*
X85213500Y-134730685D01*
X85222397Y-134798262D01*
X85229162Y-134849651D01*
X85290476Y-134997676D01*
X85295503Y-135004227D01*
X85295504Y-135004229D01*
X85363520Y-135092869D01*
X85363526Y-135092875D01*
X85388013Y-135124787D01*
X85394568Y-135129817D01*
X85413379Y-135144252D01*
X85425770Y-135155119D01*
X85728656Y-135458005D01*
X85762682Y-135520317D01*
X85757617Y-135591132D01*
X85715070Y-135647968D01*
X85648550Y-135672779D01*
X85639561Y-135673100D01*
X85261139Y-135673100D01*
X85193018Y-135653098D01*
X85172044Y-135636195D01*
X82153741Y-132617892D01*
X82124771Y-132565414D01*
X82122898Y-132566066D01*
X82100817Y-132502658D01*
X82068780Y-132410660D01*
X82063806Y-132402699D01*
X82031646Y-132351234D01*
X82012500Y-132284464D01*
X82012500Y-115459316D01*
X82032502Y-115391195D01*
X82086158Y-115344702D01*
X82155164Y-115334423D01*
X82205029Y-115341076D01*
X82288242Y-115352179D01*
X82295253Y-115351541D01*
X82295257Y-115351541D01*
X82445103Y-115337904D01*
X82445104Y-115337904D01*
X82452124Y-115337265D01*
X82523978Y-115313918D01*
X82601930Y-115288590D01*
X82601933Y-115288589D01*
X82608629Y-115286413D01*
X82749979Y-115202151D01*
X82869149Y-115088668D01*
X82892033Y-115054225D01*
X82956314Y-114957475D01*
X82956315Y-114957473D01*
X82960215Y-114951603D01*
X83018651Y-114797768D01*
X83041553Y-114634810D01*
X83041841Y-114614200D01*
X83023498Y-114450666D01*
X82969380Y-114295260D01*
X82961726Y-114283010D01*
X82931346Y-114234393D01*
X82912200Y-114167623D01*
X82912200Y-92144239D01*
X82932202Y-92076118D01*
X82949105Y-92055144D01*
X85016528Y-89987721D01*
X85066687Y-89956983D01*
X85203930Y-89912390D01*
X85203933Y-89912389D01*
X85210629Y-89910213D01*
X85351979Y-89825951D01*
X85471149Y-89712468D01*
X85486228Y-89689772D01*
X85540583Y-89644103D01*
X85591175Y-89633500D01*
X90343415Y-89633500D01*
X90411536Y-89653502D01*
G37*
%TD.AperFunction*%
%TA.AperFunction,Conductor*%
G36*
X89438712Y-121424815D02*
G01*
X89445295Y-121430944D01*
X90497385Y-122483034D01*
X90508252Y-122495425D01*
X90527713Y-122520787D01*
X90534263Y-122525813D01*
X90559621Y-122545271D01*
X90559637Y-122545285D01*
X90604995Y-122580089D01*
X90654824Y-122618324D01*
X90802849Y-122679638D01*
X90811036Y-122680716D01*
X90811037Y-122680716D01*
X90822242Y-122682191D01*
X90853438Y-122686298D01*
X90921815Y-122695300D01*
X90921818Y-122695300D01*
X90921826Y-122695301D01*
X90953511Y-122699472D01*
X90961700Y-122700550D01*
X90993393Y-122696378D01*
X91009836Y-122695300D01*
X94426611Y-122695300D01*
X94494732Y-122715302D01*
X94541225Y-122768958D01*
X94551533Y-122837745D01*
X94545677Y-122882229D01*
X94545600Y-122882815D01*
X94545600Y-122882820D01*
X94540350Y-122922700D01*
X94541428Y-122930888D01*
X94544522Y-122954390D01*
X94545600Y-122970836D01*
X94545600Y-129213379D01*
X94525598Y-129281500D01*
X94471942Y-129327993D01*
X94460206Y-129332657D01*
X94380540Y-129359778D01*
X94339934Y-129366500D01*
X91029153Y-129366500D01*
X90961638Y-129346885D01*
X90949609Y-129339251D01*
X90905980Y-129311563D01*
X90837241Y-129287086D01*
X90757589Y-129258723D01*
X90757587Y-129258722D01*
X90750955Y-129256361D01*
X90743969Y-129255528D01*
X90743965Y-129255527D01*
X90629471Y-129241875D01*
X90587553Y-129236877D01*
X90580550Y-129237613D01*
X90580549Y-129237613D01*
X90537335Y-129242155D01*
X90423895Y-129254078D01*
X90417227Y-129256348D01*
X90274782Y-129304840D01*
X90274779Y-129304841D01*
X90268115Y-129307110D01*
X90203470Y-129346880D01*
X90150626Y-129379390D01*
X90127955Y-129393337D01*
X90094562Y-129426038D01*
X90032028Y-129487276D01*
X90010382Y-129508473D01*
X89921238Y-129646797D01*
X89918827Y-129653420D01*
X89918826Y-129653423D01*
X89867366Y-129794809D01*
X89867365Y-129794814D01*
X89864956Y-129801432D01*
X89844331Y-129964694D01*
X89860389Y-130128468D01*
X89912332Y-130284615D01*
X89915981Y-130290640D01*
X89989935Y-130412751D01*
X89997579Y-130425373D01*
X90002470Y-130430438D01*
X90002471Y-130430439D01*
X90032586Y-130461624D01*
X90111891Y-130543747D01*
X90249589Y-130633854D01*
X90403828Y-130691215D01*
X90410809Y-130692146D01*
X90410811Y-130692147D01*
X90559961Y-130712048D01*
X90559965Y-130712048D01*
X90566942Y-130712979D01*
X90573953Y-130712341D01*
X90573957Y-130712341D01*
X90723803Y-130698704D01*
X90723804Y-130698704D01*
X90730824Y-130698065D01*
X90759462Y-130688760D01*
X90880630Y-130649390D01*
X90880633Y-130649389D01*
X90887329Y-130647213D01*
X90964397Y-130601271D01*
X91028915Y-130583500D01*
X94140528Y-130583500D01*
X94209521Y-130604068D01*
X94344589Y-130692454D01*
X94441837Y-130728620D01*
X94463520Y-130736684D01*
X94520396Y-130779177D01*
X94545270Y-130845674D01*
X94545600Y-130854782D01*
X94545600Y-131499999D01*
X94525512Y-131568253D01*
X94492938Y-131618797D01*
X94490527Y-131625420D01*
X94490526Y-131625423D01*
X94439066Y-131766809D01*
X94439065Y-131766814D01*
X94436656Y-131773432D01*
X94416031Y-131936694D01*
X94432089Y-132100468D01*
X94451023Y-132157386D01*
X94455667Y-132171345D01*
X94458190Y-132242296D01*
X94451622Y-132259991D01*
X94451638Y-132259997D01*
X94395356Y-132414632D01*
X94394686Y-132419939D01*
X94361656Y-132478795D01*
X92451256Y-134389195D01*
X92388944Y-134423221D01*
X92362161Y-134426100D01*
X89914678Y-134426100D01*
X89846557Y-134406098D01*
X89800064Y-134352442D01*
X89794455Y-134335846D01*
X89794398Y-134335866D01*
X89780308Y-134295405D01*
X89740280Y-134180460D01*
X89736474Y-134174368D01*
X89656809Y-134046879D01*
X89653076Y-134040905D01*
X89586286Y-133973647D01*
X89542086Y-133929137D01*
X89542082Y-133929134D01*
X89537122Y-133924139D01*
X89398180Y-133835963D01*
X89313933Y-133805964D01*
X89256469Y-133764270D01*
X89230669Y-133698127D01*
X89230200Y-133687265D01*
X89230200Y-127423640D01*
X90051463Y-127423640D01*
X90069163Y-127604160D01*
X90126418Y-127776273D01*
X90130065Y-127782295D01*
X90130066Y-127782297D01*
X90209085Y-127912773D01*
X90220380Y-127931424D01*
X90225269Y-127936487D01*
X90225270Y-127936488D01*
X90298150Y-128011957D01*
X90346382Y-128061902D01*
X90384242Y-128086677D01*
X90478255Y-128148197D01*
X90498159Y-128161222D01*
X90504763Y-128163678D01*
X90504765Y-128163679D01*
X90661558Y-128221990D01*
X90661560Y-128221990D01*
X90668168Y-128224448D01*
X90751995Y-128235633D01*
X90840980Y-128247507D01*
X90840984Y-128247507D01*
X90847961Y-128248438D01*
X90854972Y-128247800D01*
X90854976Y-128247800D01*
X90997459Y-128234832D01*
X91028600Y-128231998D01*
X91035302Y-128229820D01*
X91035304Y-128229820D01*
X91194409Y-128178124D01*
X91194412Y-128178123D01*
X91201108Y-128175947D01*
X91356912Y-128083069D01*
X91488266Y-127957982D01*
X91588643Y-127806902D01*
X91647974Y-127650715D01*
X91650555Y-127643920D01*
X91650556Y-127643918D01*
X91653055Y-127637338D01*
X91656358Y-127613837D01*
X91677748Y-127461639D01*
X91677748Y-127461636D01*
X91678299Y-127457717D01*
X91678616Y-127435000D01*
X91658397Y-127254745D01*
X91654995Y-127244975D01*
X91601064Y-127090106D01*
X91601062Y-127090103D01*
X91598745Y-127083448D01*
X91595009Y-127077469D01*
X91506359Y-126935598D01*
X91502626Y-126929624D01*
X91472489Y-126899276D01*
X91379778Y-126805915D01*
X91379774Y-126805912D01*
X91374815Y-126800918D01*
X91368639Y-126796998D01*
X91282049Y-126742047D01*
X91221666Y-126703727D01*
X91192463Y-126693328D01*
X91057425Y-126645243D01*
X91057420Y-126645242D01*
X91050790Y-126642881D01*
X91043802Y-126642048D01*
X91043799Y-126642047D01*
X90916787Y-126626902D01*
X90870680Y-126621404D01*
X90863677Y-126622140D01*
X90863676Y-126622140D01*
X90697288Y-126639628D01*
X90697286Y-126639629D01*
X90690288Y-126640364D01*
X90518579Y-126698818D01*
X90512575Y-126702512D01*
X90370095Y-126790166D01*
X90370092Y-126790168D01*
X90364088Y-126793862D01*
X90359053Y-126798793D01*
X90359050Y-126798795D01*
X90256934Y-126898795D01*
X90234493Y-126920771D01*
X90136235Y-127073238D01*
X90133826Y-127079858D01*
X90133824Y-127079861D01*
X90095047Y-127186400D01*
X90074197Y-127243685D01*
X90051463Y-127423640D01*
X89230200Y-127423640D01*
X89230200Y-121520039D01*
X89250202Y-121451918D01*
X89303858Y-121405425D01*
X89374132Y-121395321D01*
X89438712Y-121424815D01*
G37*
%TD.AperFunction*%
%TA.AperFunction,Conductor*%
G36*
X141648087Y-124595828D02*
G01*
X141704923Y-124638375D01*
X141729734Y-124704895D01*
X141729575Y-124724866D01*
X141726981Y-124754514D01*
X141726981Y-124754525D01*
X141726502Y-124760000D01*
X141746457Y-124988087D01*
X141747881Y-124993400D01*
X141747881Y-124993402D01*
X141803706Y-125201740D01*
X141805716Y-125209243D01*
X141808039Y-125214224D01*
X141808039Y-125214225D01*
X141900151Y-125411762D01*
X141900154Y-125411767D01*
X141902477Y-125416749D01*
X141957172Y-125494861D01*
X142009358Y-125569390D01*
X142033802Y-125604300D01*
X142083882Y-125654380D01*
X142117908Y-125716692D01*
X142112843Y-125787507D01*
X142083884Y-125832567D01*
X138188066Y-129728385D01*
X138175675Y-129739252D01*
X138150313Y-129758713D01*
X138125826Y-129790625D01*
X138125823Y-129790628D01*
X138125817Y-129790636D01*
X138060161Y-129876200D01*
X138052776Y-129885824D01*
X138023004Y-129957700D01*
X137999912Y-130013450D01*
X137991462Y-130033849D01*
X137990812Y-130038787D01*
X137990385Y-130042034D01*
X137990384Y-130042036D01*
X137986703Y-130070000D01*
X137975800Y-130152815D01*
X137975800Y-130152820D01*
X137970550Y-130192700D01*
X137973115Y-130212180D01*
X137974722Y-130224390D01*
X137975800Y-130240836D01*
X137975800Y-132749400D01*
X137955798Y-132817521D01*
X137902142Y-132864014D01*
X137849800Y-132875400D01*
X135646382Y-132875400D01*
X135578261Y-132855398D01*
X135531768Y-132801742D01*
X135521664Y-132731468D01*
X135528594Y-132704657D01*
X135544549Y-132662654D01*
X135547051Y-132656068D01*
X135556378Y-132589700D01*
X135569402Y-132497034D01*
X135569403Y-132497027D01*
X135569953Y-132493110D01*
X135570241Y-132472500D01*
X135551898Y-132308966D01*
X135497780Y-132153560D01*
X135490594Y-132142059D01*
X135461612Y-132095680D01*
X135442086Y-132064431D01*
X135422950Y-131996063D01*
X135443815Y-131928202D01*
X135498056Y-131882393D01*
X135510003Y-131877829D01*
X135597532Y-131849389D01*
X135604229Y-131847213D01*
X135745579Y-131762951D01*
X135864749Y-131649468D01*
X135868650Y-131643597D01*
X135951914Y-131518275D01*
X135951915Y-131518273D01*
X135955815Y-131512403D01*
X136014251Y-131358568D01*
X136023934Y-131289668D01*
X136036602Y-131199534D01*
X136036603Y-131199527D01*
X136037153Y-131195610D01*
X136037441Y-131175000D01*
X136019098Y-131011466D01*
X136016365Y-131003616D01*
X135989630Y-130926845D01*
X135964980Y-130856060D01*
X135955492Y-130840875D01*
X135930234Y-130800455D01*
X135926946Y-130795193D01*
X135907800Y-130728423D01*
X135907800Y-129702855D01*
X135927802Y-129634734D01*
X135981458Y-129588241D01*
X136051732Y-129578137D01*
X136102793Y-129597423D01*
X136128717Y-129614387D01*
X136194989Y-129657754D01*
X136349228Y-129715115D01*
X136356209Y-129716046D01*
X136356211Y-129716047D01*
X136505361Y-129735948D01*
X136505365Y-129735948D01*
X136512342Y-129736879D01*
X136519353Y-129736241D01*
X136519357Y-129736241D01*
X136669203Y-129722604D01*
X136669204Y-129722604D01*
X136676224Y-129721965D01*
X136735038Y-129702855D01*
X136826030Y-129673290D01*
X136826033Y-129673289D01*
X136832729Y-129671113D01*
X136974079Y-129586851D01*
X137093249Y-129473368D01*
X137118271Y-129435707D01*
X137180414Y-129342175D01*
X137180415Y-129342173D01*
X137184315Y-129336303D01*
X137242751Y-129182468D01*
X137256649Y-129083578D01*
X137265102Y-129023434D01*
X137265103Y-129023427D01*
X137265653Y-129019510D01*
X137265941Y-128998900D01*
X137247598Y-128835366D01*
X137231696Y-128789700D01*
X137217806Y-128749815D01*
X137193480Y-128679960D01*
X137155446Y-128619093D01*
X137136300Y-128552323D01*
X137136300Y-127523640D01*
X137501463Y-127523640D01*
X137519163Y-127704160D01*
X137576418Y-127876273D01*
X137580065Y-127882295D01*
X137580066Y-127882297D01*
X137664628Y-128021926D01*
X137670380Y-128031424D01*
X137675269Y-128036487D01*
X137675270Y-128036488D01*
X137729162Y-128092294D01*
X137796382Y-128161902D01*
X137821172Y-128178124D01*
X137904477Y-128232637D01*
X137948159Y-128261222D01*
X137954763Y-128263678D01*
X137954765Y-128263679D01*
X138111558Y-128321990D01*
X138111560Y-128321990D01*
X138118168Y-128324448D01*
X138201995Y-128335633D01*
X138290980Y-128347507D01*
X138290984Y-128347507D01*
X138297961Y-128348438D01*
X138304972Y-128347800D01*
X138304976Y-128347800D01*
X138447459Y-128334832D01*
X138478600Y-128331998D01*
X138485302Y-128329820D01*
X138485304Y-128329820D01*
X138644409Y-128278124D01*
X138644412Y-128278123D01*
X138651108Y-128275947D01*
X138806912Y-128183069D01*
X138938266Y-128057982D01*
X139038643Y-127906902D01*
X139084578Y-127785978D01*
X139100555Y-127743920D01*
X139100556Y-127743918D01*
X139103055Y-127737338D01*
X139106435Y-127713288D01*
X139127748Y-127561639D01*
X139127748Y-127561636D01*
X139128299Y-127557717D01*
X139128616Y-127535000D01*
X139108397Y-127354745D01*
X139105523Y-127346491D01*
X139051064Y-127190106D01*
X139051062Y-127190103D01*
X139048745Y-127183448D01*
X139020511Y-127138264D01*
X138956359Y-127035598D01*
X138952626Y-127029624D01*
X138947664Y-127024627D01*
X138829778Y-126905915D01*
X138829774Y-126905912D01*
X138824815Y-126900918D01*
X138813697Y-126893862D01*
X138754141Y-126856067D01*
X138671666Y-126803727D01*
X138596018Y-126776790D01*
X138507425Y-126745243D01*
X138507420Y-126745242D01*
X138500790Y-126742881D01*
X138493802Y-126742048D01*
X138493799Y-126742047D01*
X138370698Y-126727368D01*
X138320680Y-126721404D01*
X138313677Y-126722140D01*
X138313676Y-126722140D01*
X138147288Y-126739628D01*
X138147286Y-126739629D01*
X138140288Y-126740364D01*
X137968579Y-126798818D01*
X137946328Y-126812507D01*
X137820095Y-126890166D01*
X137820092Y-126890168D01*
X137814088Y-126893862D01*
X137809053Y-126898793D01*
X137809050Y-126898795D01*
X137689525Y-127015843D01*
X137684493Y-127020771D01*
X137586235Y-127173238D01*
X137583826Y-127179858D01*
X137583824Y-127179861D01*
X137526606Y-127337066D01*
X137524197Y-127343685D01*
X137501463Y-127523640D01*
X137136300Y-127523640D01*
X137136300Y-126178939D01*
X137156302Y-126110818D01*
X137173205Y-126089844D01*
X137313328Y-125949721D01*
X137363487Y-125918983D01*
X137500730Y-125874390D01*
X137500733Y-125874389D01*
X137507429Y-125872213D01*
X137584497Y-125826271D01*
X137649015Y-125808500D01*
X140031064Y-125808500D01*
X140047507Y-125809578D01*
X140079200Y-125813750D01*
X140087389Y-125812672D01*
X140119074Y-125808501D01*
X140119084Y-125808500D01*
X140119085Y-125808500D01*
X140158158Y-125803356D01*
X140218657Y-125795391D01*
X140229864Y-125793916D01*
X140229866Y-125793915D01*
X140238051Y-125792838D01*
X140386076Y-125731524D01*
X140397812Y-125722519D01*
X140481272Y-125658477D01*
X140481275Y-125658474D01*
X140506634Y-125639015D01*
X140513187Y-125633987D01*
X140525405Y-125618065D01*
X140532652Y-125608621D01*
X140543519Y-125596230D01*
X141514960Y-124624789D01*
X141577272Y-124590763D01*
X141648087Y-124595828D01*
G37*
%TD.AperFunction*%
%TA.AperFunction,Conductor*%
G36*
X134590312Y-123064185D02*
G01*
X134596894Y-123070312D01*
X135732032Y-124205410D01*
X136073483Y-124546849D01*
X136086946Y-124560312D01*
X136120972Y-124622624D01*
X136115908Y-124693439D01*
X136086947Y-124738504D01*
X134903066Y-125922385D01*
X134890675Y-125933252D01*
X134865313Y-125952713D01*
X134840826Y-125984625D01*
X134840823Y-125984628D01*
X134767776Y-126079824D01*
X134706462Y-126227849D01*
X134704797Y-126240494D01*
X134690800Y-126346815D01*
X134690800Y-126346820D01*
X134685550Y-126386700D01*
X134686628Y-126394888D01*
X134689722Y-126418390D01*
X134690800Y-126434836D01*
X134690800Y-130727999D01*
X134670712Y-130796253D01*
X134638138Y-130846797D01*
X134635727Y-130853420D01*
X134635727Y-130853421D01*
X134632214Y-130863073D01*
X134590118Y-130920243D01*
X134523796Y-130945579D01*
X134454305Y-130931037D01*
X134424719Y-130909070D01*
X134418705Y-130903056D01*
X134384679Y-130840744D01*
X134381800Y-130813961D01*
X134381800Y-123159409D01*
X134401802Y-123091288D01*
X134455458Y-123044795D01*
X134525732Y-123034691D01*
X134590312Y-123064185D01*
G37*
%TD.AperFunction*%
%TA.AperFunction,Conductor*%
G36*
X106129004Y-122605302D02*
G01*
X106175497Y-122658958D01*
X106185601Y-122729232D01*
X106156107Y-122793812D01*
X106128075Y-122816958D01*
X106126825Y-122817476D01*
X106120271Y-122822505D01*
X106112458Y-122828500D01*
X106031628Y-122890523D01*
X106031621Y-122890529D01*
X106006266Y-122909984D01*
X106006263Y-122909987D01*
X105999713Y-122915013D01*
X105994683Y-122921568D01*
X105980248Y-122940379D01*
X105969381Y-122952770D01*
X98322556Y-130599595D01*
X98260244Y-130633621D01*
X98233461Y-130636500D01*
X97456753Y-130636500D01*
X97389238Y-130616885D01*
X97385302Y-130614387D01*
X97333580Y-130581563D01*
X97238215Y-130547605D01*
X97225533Y-130543089D01*
X97168069Y-130501395D01*
X97142269Y-130435252D01*
X97141800Y-130424390D01*
X97141800Y-129295558D01*
X97161802Y-129227437D01*
X97169961Y-129216356D01*
X97174149Y-129212368D01*
X97194015Y-129182468D01*
X97261314Y-129081175D01*
X97261315Y-129081173D01*
X97265215Y-129075303D01*
X97323651Y-128921468D01*
X97332207Y-128860589D01*
X97346002Y-128762434D01*
X97346003Y-128762427D01*
X97346553Y-128758510D01*
X97346841Y-128737900D01*
X97328498Y-128574366D01*
X97324099Y-128561732D01*
X97287211Y-128455805D01*
X97274380Y-128418960D01*
X97261132Y-128397758D01*
X97190909Y-128285379D01*
X97187176Y-128279405D01*
X97086686Y-128178211D01*
X97076186Y-128167637D01*
X97076182Y-128167634D01*
X97071222Y-128162639D01*
X96932280Y-128074463D01*
X96799733Y-128027265D01*
X96742269Y-127985571D01*
X96716469Y-127919428D01*
X96716000Y-127908566D01*
X96716000Y-126784430D01*
X96736002Y-126716309D01*
X96789658Y-126669816D01*
X96859932Y-126659712D01*
X96910993Y-126678998D01*
X96977071Y-126722238D01*
X96983159Y-126726222D01*
X96989763Y-126728678D01*
X96989765Y-126728679D01*
X97146558Y-126786990D01*
X97146560Y-126786990D01*
X97153168Y-126789448D01*
X97236995Y-126800633D01*
X97325980Y-126812507D01*
X97325984Y-126812507D01*
X97332961Y-126813438D01*
X97339972Y-126812800D01*
X97339976Y-126812800D01*
X97493855Y-126798795D01*
X97513600Y-126796998D01*
X97520302Y-126794820D01*
X97520304Y-126794820D01*
X97679409Y-126743124D01*
X97679412Y-126743123D01*
X97686108Y-126740947D01*
X97805431Y-126669816D01*
X97835860Y-126651677D01*
X97835862Y-126651676D01*
X97841912Y-126648069D01*
X97973266Y-126522982D01*
X98073643Y-126371902D01*
X98118775Y-126253093D01*
X98135555Y-126208920D01*
X98135556Y-126208918D01*
X98138055Y-126202338D01*
X98140549Y-126184590D01*
X98162748Y-126026639D01*
X98162748Y-126026636D01*
X98163299Y-126022717D01*
X98163616Y-126000000D01*
X98143397Y-125819745D01*
X98141079Y-125813087D01*
X98140495Y-125810519D01*
X98144906Y-125739660D01*
X98186926Y-125682433D01*
X98253214Y-125657009D01*
X98263363Y-125656600D01*
X102118464Y-125656600D01*
X102134907Y-125657678D01*
X102166600Y-125661850D01*
X102174789Y-125660772D01*
X102206474Y-125656601D01*
X102206484Y-125656600D01*
X102206485Y-125656600D01*
X102223348Y-125654380D01*
X102306057Y-125643491D01*
X102317265Y-125642016D01*
X102317268Y-125642015D01*
X102325451Y-125640938D01*
X102338337Y-125635600D01*
X102375135Y-125626527D01*
X102468124Y-125618065D01*
X102546376Y-125592639D01*
X102617930Y-125569390D01*
X102617933Y-125569389D01*
X102624629Y-125567213D01*
X102765979Y-125482951D01*
X102885149Y-125369468D01*
X102889050Y-125363597D01*
X102972314Y-125238275D01*
X102972315Y-125238273D01*
X102976215Y-125232403D01*
X103034651Y-125078568D01*
X103047389Y-124987929D01*
X103057002Y-124919534D01*
X103057003Y-124919527D01*
X103057553Y-124915610D01*
X103057841Y-124895000D01*
X103039498Y-124731466D01*
X102985380Y-124576060D01*
X102972244Y-124555037D01*
X102901909Y-124442479D01*
X102898176Y-124436505D01*
X102815630Y-124353381D01*
X102787186Y-124324737D01*
X102787182Y-124324734D01*
X102782222Y-124319739D01*
X102643280Y-124231563D01*
X102574162Y-124206951D01*
X102494889Y-124178723D01*
X102494887Y-124178722D01*
X102488255Y-124176361D01*
X102481269Y-124175528D01*
X102481265Y-124175527D01*
X102366771Y-124161875D01*
X102324853Y-124156877D01*
X102317850Y-124157613D01*
X102317849Y-124157613D01*
X102294359Y-124160082D01*
X102161195Y-124174078D01*
X102154527Y-124176348D01*
X102012082Y-124224840D01*
X102012079Y-124224841D01*
X102005415Y-124227110D01*
X101941090Y-124266683D01*
X101881042Y-124303625D01*
X101865255Y-124313337D01*
X101792419Y-124384663D01*
X101773057Y-124403624D01*
X101710391Y-124436994D01*
X101684899Y-124439600D01*
X97870053Y-124439600D01*
X97802538Y-124419985D01*
X97746880Y-124384663D01*
X97628622Y-124342553D01*
X97598489Y-124331823D01*
X97598487Y-124331822D01*
X97591855Y-124329461D01*
X97584869Y-124328628D01*
X97584865Y-124328627D01*
X97470371Y-124314975D01*
X97428453Y-124309977D01*
X97421450Y-124310713D01*
X97421449Y-124310713D01*
X97396484Y-124313337D01*
X97264795Y-124327178D01*
X97258127Y-124329448D01*
X97115682Y-124377940D01*
X97115679Y-124377941D01*
X97109015Y-124380210D01*
X97030565Y-124428473D01*
X96996786Y-124449254D01*
X96968855Y-124466437D01*
X96963825Y-124471363D01*
X96963817Y-124471369D01*
X96930158Y-124504331D01*
X96867493Y-124537702D01*
X96796734Y-124531896D01*
X96740347Y-124488757D01*
X96716234Y-124421980D01*
X96716000Y-124414308D01*
X96716000Y-123288393D01*
X96736002Y-123220272D01*
X96789658Y-123173779D01*
X96858663Y-123163500D01*
X96907012Y-123169951D01*
X96938462Y-123174148D01*
X96938465Y-123174148D01*
X96945442Y-123175079D01*
X96952453Y-123174441D01*
X96952457Y-123174441D01*
X97102303Y-123160804D01*
X97102304Y-123160804D01*
X97109324Y-123160165D01*
X97137438Y-123151030D01*
X97259130Y-123111490D01*
X97259133Y-123111489D01*
X97265829Y-123109313D01*
X97407179Y-123025051D01*
X97526349Y-122911568D01*
X97536919Y-122895659D01*
X97613514Y-122780375D01*
X97613515Y-122780373D01*
X97617415Y-122774503D01*
X97658420Y-122666556D01*
X97701309Y-122609978D01*
X97767977Y-122585569D01*
X97776208Y-122585300D01*
X106060883Y-122585300D01*
X106129004Y-122605302D01*
G37*
%TD.AperFunction*%
%TA.AperFunction,Conductor*%
G36*
X155962820Y-121727102D02*
G01*
X155993278Y-121755074D01*
X155995579Y-121758873D01*
X156000467Y-121763935D01*
X156000468Y-121763936D01*
X156008705Y-121772465D01*
X156032972Y-121797595D01*
X156065904Y-121860490D01*
X156059605Y-121931206D01*
X156030493Y-121975144D01*
X156016882Y-121988473D01*
X155927738Y-122126797D01*
X155925327Y-122133420D01*
X155925326Y-122133423D01*
X155873866Y-122274809D01*
X155873865Y-122274814D01*
X155871456Y-122281432D01*
X155850831Y-122444694D01*
X155866889Y-122608468D01*
X155918832Y-122764615D01*
X155925409Y-122775474D01*
X155990417Y-122882814D01*
X156004079Y-122905373D01*
X156118391Y-123023747D01*
X156256089Y-123113854D01*
X156262693Y-123116310D01*
X156262701Y-123116314D01*
X156373720Y-123157602D01*
X156430597Y-123200094D01*
X156455470Y-123266591D01*
X156455800Y-123275699D01*
X156455800Y-124922940D01*
X156435798Y-124991061D01*
X156382142Y-125037554D01*
X156342971Y-125048250D01*
X156282288Y-125054628D01*
X156282286Y-125054629D01*
X156275288Y-125055364D01*
X156103579Y-125113818D01*
X156070772Y-125134001D01*
X155955095Y-125205166D01*
X155955092Y-125205168D01*
X155949088Y-125208862D01*
X155944053Y-125213793D01*
X155944050Y-125213795D01*
X155824846Y-125330529D01*
X155819493Y-125335771D01*
X155721235Y-125488238D01*
X155718826Y-125494858D01*
X155718824Y-125494861D01*
X155666356Y-125639015D01*
X155659197Y-125658685D01*
X155636463Y-125838640D01*
X155654163Y-126019160D01*
X155711418Y-126191273D01*
X155715065Y-126197295D01*
X155715066Y-126197297D01*
X155773875Y-126294402D01*
X155805380Y-126346424D01*
X155810269Y-126351487D01*
X155810270Y-126351488D01*
X155836366Y-126378511D01*
X155931382Y-126476902D01*
X155992828Y-126517111D01*
X156046939Y-126552520D01*
X156083159Y-126576222D01*
X156089763Y-126578678D01*
X156089765Y-126578679D01*
X156246558Y-126636990D01*
X156246560Y-126636990D01*
X156253168Y-126639448D01*
X156312784Y-126647403D01*
X156346465Y-126651897D01*
X156411342Y-126680733D01*
X156450330Y-126740067D01*
X156455800Y-126776790D01*
X156455800Y-127011461D01*
X156435798Y-127079582D01*
X156418895Y-127100556D01*
X153523199Y-129996252D01*
X153460887Y-130030278D01*
X153390072Y-130025213D01*
X153333236Y-129982666D01*
X153308425Y-129916146D01*
X153308584Y-129896175D01*
X153313019Y-129845486D01*
X153313019Y-129845475D01*
X153313498Y-129840000D01*
X153293543Y-129611913D01*
X153290123Y-129599149D01*
X153235707Y-129396067D01*
X153235706Y-129396065D01*
X153234284Y-129390757D01*
X153231961Y-129385775D01*
X153139849Y-129188238D01*
X153139846Y-129188233D01*
X153137523Y-129183251D01*
X153057322Y-129068713D01*
X153009357Y-129000211D01*
X153009355Y-129000208D01*
X153006198Y-128995700D01*
X152969819Y-128959321D01*
X152935793Y-128897009D01*
X152940858Y-128826194D01*
X152969819Y-128781131D01*
X154100234Y-127650715D01*
X154112625Y-127639848D01*
X154131437Y-127625413D01*
X154137987Y-127620387D01*
X154162474Y-127588475D01*
X154162480Y-127588469D01*
X154230496Y-127499829D01*
X154230497Y-127499827D01*
X154235524Y-127493276D01*
X154267994Y-127414885D01*
X154289304Y-127363438D01*
X154293678Y-127352879D01*
X154296838Y-127345250D01*
X154312500Y-127226285D01*
X154312500Y-127226278D01*
X154317750Y-127186400D01*
X154313578Y-127154707D01*
X154312500Y-127138264D01*
X154312500Y-124753844D01*
X154313578Y-124737398D01*
X154316673Y-124713888D01*
X154317751Y-124705700D01*
X154296838Y-124546849D01*
X154235524Y-124398824D01*
X154162478Y-124303629D01*
X154162474Y-124303625D01*
X154162471Y-124303621D01*
X154143016Y-124278266D01*
X154143013Y-124278263D01*
X154137987Y-124271713D01*
X154128931Y-124264764D01*
X154112621Y-124252248D01*
X154100230Y-124241381D01*
X153736870Y-123878021D01*
X153706737Y-123823435D01*
X153705498Y-123823866D01*
X153653698Y-123675117D01*
X153651380Y-123668460D01*
X153638990Y-123648631D01*
X153567909Y-123534879D01*
X153564176Y-123528905D01*
X153492054Y-123456278D01*
X153453186Y-123417137D01*
X153453182Y-123417134D01*
X153448222Y-123412139D01*
X153419376Y-123393832D01*
X153372579Y-123340445D01*
X153362073Y-123270230D01*
X153391196Y-123205481D01*
X153397796Y-123198353D01*
X153814834Y-122781315D01*
X153827225Y-122770448D01*
X153846037Y-122756013D01*
X153852587Y-122750987D01*
X153877074Y-122719075D01*
X153877078Y-122719071D01*
X153950124Y-122623876D01*
X153992825Y-122520787D01*
X154008278Y-122483480D01*
X154008279Y-122483477D01*
X154011438Y-122475850D01*
X154014617Y-122451707D01*
X154031273Y-122325188D01*
X154032351Y-122317000D01*
X154028178Y-122285301D01*
X154027100Y-122268856D01*
X154027100Y-121833100D01*
X154047102Y-121764979D01*
X154100758Y-121718486D01*
X154153100Y-121707100D01*
X155894699Y-121707100D01*
X155962820Y-121727102D01*
G37*
%TD.AperFunction*%
%TA.AperFunction,Conductor*%
G36*
X150602003Y-122829578D02*
G01*
X150633700Y-122833751D01*
X150641888Y-122832673D01*
X150665397Y-122829578D01*
X150681843Y-122828500D01*
X150763101Y-122828500D01*
X150831222Y-122848502D01*
X150866314Y-122882229D01*
X150879476Y-122901026D01*
X150902164Y-122968299D01*
X150884879Y-123037160D01*
X150870409Y-123055863D01*
X150870213Y-123056013D01*
X150865183Y-123062568D01*
X150865180Y-123062571D01*
X150850748Y-123081379D01*
X150839881Y-123093770D01*
X148604048Y-125329603D01*
X148541736Y-125363629D01*
X148470921Y-125358564D01*
X148414085Y-125316017D01*
X148394826Y-125271525D01*
X148393049Y-125272001D01*
X148335236Y-125056239D01*
X148331490Y-125045947D01*
X148239414Y-124848489D01*
X148233931Y-124838994D01*
X148197491Y-124786952D01*
X148187012Y-124778576D01*
X148173566Y-124785644D01*
X146647177Y-126312033D01*
X146584865Y-126346059D01*
X146574533Y-126347859D01*
X146506149Y-126356862D01*
X146358124Y-126418176D01*
X146329907Y-126439828D01*
X146262937Y-126491215D01*
X146262921Y-126491229D01*
X146237566Y-126510684D01*
X146237563Y-126510687D01*
X146231013Y-126515713D01*
X146225983Y-126522268D01*
X146211548Y-126541079D01*
X146200681Y-126553470D01*
X144411764Y-128342387D01*
X144349452Y-128376413D01*
X144278637Y-128371348D01*
X144255156Y-128359678D01*
X144231934Y-128344941D01*
X144231930Y-128344939D01*
X144225980Y-128341163D01*
X144193120Y-128329462D01*
X144127558Y-128306116D01*
X144070094Y-128264421D01*
X144044294Y-128198279D01*
X144058349Y-128128687D01*
X144066612Y-128115146D01*
X144092474Y-128078211D01*
X144177523Y-127956749D01*
X144179846Y-127951767D01*
X144179849Y-127951762D01*
X144271961Y-127754225D01*
X144271961Y-127754224D01*
X144274284Y-127749243D01*
X144327469Y-127550757D01*
X144332119Y-127533402D01*
X144332119Y-127533400D01*
X144333543Y-127528087D01*
X144353498Y-127300000D01*
X144333543Y-127071913D01*
X144326560Y-127045852D01*
X144275707Y-126856067D01*
X144275706Y-126856065D01*
X144274284Y-126850757D01*
X144256585Y-126812800D01*
X144195815Y-126682479D01*
X144185154Y-126612287D01*
X144214134Y-126547474D01*
X144220915Y-126540134D01*
X145593022Y-125168027D01*
X145655334Y-125134001D01*
X145726149Y-125139066D01*
X145782985Y-125181613D01*
X145807796Y-125248133D01*
X145806567Y-125271967D01*
X145806951Y-125272001D01*
X145787483Y-125494525D01*
X145787483Y-125505475D01*
X145806472Y-125722519D01*
X145808375Y-125733312D01*
X145864764Y-125943761D01*
X145868510Y-125954053D01*
X145960586Y-126151511D01*
X145966069Y-126161006D01*
X146002509Y-126213048D01*
X146012988Y-126221424D01*
X146026434Y-126214356D01*
X147815077Y-124425713D01*
X147821507Y-124413938D01*
X147812211Y-124401923D01*
X147761006Y-124366069D01*
X147751511Y-124360586D01*
X147554053Y-124268510D01*
X147543761Y-124264764D01*
X147333312Y-124208375D01*
X147322519Y-124206472D01*
X147105475Y-124187483D01*
X147094525Y-124187483D01*
X146872001Y-124206951D01*
X146871866Y-124205410D01*
X146808433Y-124198330D01*
X146753333Y-124153558D01*
X146731185Y-124086105D01*
X146749021Y-124017385D01*
X146768027Y-123993022D01*
X147895644Y-122865405D01*
X147957956Y-122831379D01*
X147984739Y-122828500D01*
X150585557Y-122828500D01*
X150602003Y-122829578D01*
G37*
%TD.AperFunction*%
%TA.AperFunction,Conductor*%
G36*
X85828281Y-95323134D02*
G01*
X85873344Y-95352095D01*
X85876390Y-95355141D01*
X85881413Y-95361687D01*
X85887959Y-95366710D01*
X85887962Y-95366713D01*
X85906779Y-95381152D01*
X85919170Y-95392019D01*
X88537095Y-98009944D01*
X88571121Y-98072256D01*
X88574000Y-98099039D01*
X88574000Y-106594213D01*
X88553998Y-106662334D01*
X88500342Y-106708827D01*
X88475057Y-106717274D01*
X88470200Y-106718342D01*
X88463195Y-106719078D01*
X88456529Y-106721347D01*
X88456526Y-106721348D01*
X88314082Y-106769840D01*
X88314079Y-106769841D01*
X88307415Y-106772110D01*
X88167255Y-106858337D01*
X88162220Y-106863268D01*
X88162217Y-106863270D01*
X88093557Y-106930506D01*
X88030892Y-106963876D01*
X87960133Y-106958070D01*
X87903746Y-106914930D01*
X87879634Y-106848154D01*
X87879400Y-106840482D01*
X87879400Y-103899636D01*
X87880478Y-103883190D01*
X87881489Y-103875515D01*
X87884650Y-103851500D01*
X87879400Y-103811620D01*
X87879400Y-103811615D01*
X87865609Y-103706862D01*
X87863738Y-103692649D01*
X87824364Y-103597592D01*
X87805584Y-103552252D01*
X87805583Y-103552250D01*
X87802424Y-103544624D01*
X87794336Y-103534083D01*
X87733614Y-103454951D01*
X87733613Y-103454949D01*
X87709917Y-103424067D01*
X87709913Y-103424063D01*
X87704887Y-103417513D01*
X87698337Y-103412487D01*
X87698334Y-103412484D01*
X87679520Y-103398048D01*
X87667129Y-103387181D01*
X87165570Y-102885622D01*
X87135437Y-102831035D01*
X87134198Y-102831466D01*
X87129409Y-102817715D01*
X87080080Y-102676060D01*
X87075934Y-102669424D01*
X86996609Y-102542479D01*
X86992876Y-102536505D01*
X86915675Y-102458763D01*
X86881886Y-102424737D01*
X86881882Y-102424734D01*
X86876922Y-102419739D01*
X86737980Y-102331563D01*
X86675925Y-102309466D01*
X86589589Y-102278723D01*
X86589587Y-102278722D01*
X86582955Y-102276361D01*
X86575969Y-102275528D01*
X86575965Y-102275527D01*
X86461471Y-102261875D01*
X86419553Y-102256877D01*
X86412550Y-102257613D01*
X86412549Y-102257613D01*
X86369335Y-102262155D01*
X86255895Y-102274078D01*
X86245250Y-102277702D01*
X86106782Y-102324840D01*
X86106779Y-102324841D01*
X86100115Y-102327110D01*
X86033885Y-102367855D01*
X85982626Y-102399390D01*
X85959955Y-102413337D01*
X85925389Y-102447187D01*
X85865761Y-102505579D01*
X85842382Y-102528473D01*
X85753238Y-102666797D01*
X85750827Y-102673420D01*
X85750826Y-102673423D01*
X85699366Y-102814809D01*
X85699365Y-102814814D01*
X85696956Y-102821432D01*
X85676331Y-102984694D01*
X85692389Y-103148468D01*
X85744332Y-103304615D01*
X85747981Y-103310640D01*
X85800918Y-103398048D01*
X85829579Y-103445373D01*
X85943891Y-103563747D01*
X86081589Y-103653854D01*
X86088193Y-103656310D01*
X86229231Y-103708762D01*
X86229234Y-103708763D01*
X86235828Y-103711215D01*
X86242804Y-103712146D01*
X86246455Y-103713056D01*
X86305068Y-103746217D01*
X86468017Y-103909165D01*
X86625495Y-104066643D01*
X86659520Y-104128956D01*
X86662400Y-104155739D01*
X86662400Y-104891661D01*
X86642398Y-104959782D01*
X86588742Y-105006275D01*
X86518468Y-105016379D01*
X86453888Y-104986885D01*
X86447305Y-104980756D01*
X85656870Y-104190321D01*
X85626737Y-104135735D01*
X85625498Y-104136166D01*
X85613163Y-104100744D01*
X85571380Y-103980760D01*
X85540207Y-103930872D01*
X85487909Y-103847179D01*
X85484176Y-103841205D01*
X85389849Y-103746217D01*
X85373186Y-103729437D01*
X85373182Y-103729434D01*
X85368222Y-103724439D01*
X85229280Y-103636263D01*
X85161372Y-103612082D01*
X85115333Y-103595688D01*
X85057869Y-103553994D01*
X85032069Y-103487851D01*
X85031600Y-103476989D01*
X85031600Y-99387171D01*
X85051602Y-99319050D01*
X85105258Y-99272557D01*
X85168920Y-99263072D01*
X85168935Y-99262359D01*
X85173120Y-99262447D01*
X85174258Y-99262277D01*
X85174874Y-99262359D01*
X85182961Y-99263438D01*
X85189972Y-99262800D01*
X85189976Y-99262800D01*
X85332459Y-99249832D01*
X85363600Y-99246998D01*
X85370302Y-99244820D01*
X85370304Y-99244820D01*
X85529409Y-99193124D01*
X85529412Y-99193123D01*
X85536108Y-99190947D01*
X85655119Y-99120002D01*
X85685860Y-99101677D01*
X85685862Y-99101676D01*
X85691912Y-99098069D01*
X85823266Y-98972982D01*
X85923643Y-98821902D01*
X85978393Y-98677773D01*
X85985555Y-98658920D01*
X85985556Y-98658918D01*
X85988055Y-98652338D01*
X85991705Y-98626369D01*
X86012748Y-98476639D01*
X86012748Y-98476636D01*
X86013299Y-98472717D01*
X86013506Y-98457881D01*
X86013561Y-98453962D01*
X86013561Y-98453957D01*
X86013616Y-98450000D01*
X85993397Y-98269745D01*
X85976854Y-98222239D01*
X85936064Y-98105106D01*
X85936062Y-98105103D01*
X85933745Y-98098448D01*
X85909886Y-98060265D01*
X85841359Y-97950598D01*
X85837626Y-97944624D01*
X85832664Y-97939627D01*
X85714778Y-97820915D01*
X85714774Y-97820912D01*
X85709815Y-97815918D01*
X85703119Y-97811668D01*
X85646437Y-97775697D01*
X85556666Y-97718727D01*
X85508318Y-97701511D01*
X85392425Y-97660243D01*
X85392420Y-97660242D01*
X85385790Y-97657881D01*
X85378802Y-97657048D01*
X85378799Y-97657047D01*
X85247720Y-97641417D01*
X85205680Y-97636404D01*
X85198677Y-97637140D01*
X85198675Y-97637140D01*
X85170770Y-97640073D01*
X85100932Y-97627301D01*
X85049085Y-97578799D01*
X85031600Y-97514763D01*
X85031600Y-96067839D01*
X85051602Y-95999718D01*
X85068505Y-95978744D01*
X85695154Y-95352095D01*
X85757466Y-95318069D01*
X85828281Y-95323134D01*
G37*
%TD.AperFunction*%
%TA.AperFunction,Conductor*%
G36*
X144018180Y-94228102D02*
G01*
X144064673Y-94281758D01*
X144074777Y-94352032D01*
X144071766Y-94366711D01*
X144058375Y-94416688D01*
X144056472Y-94427481D01*
X144037483Y-94644525D01*
X144037483Y-94655475D01*
X144056472Y-94872519D01*
X144058375Y-94883312D01*
X144114764Y-95093761D01*
X144118510Y-95104053D01*
X144210586Y-95301511D01*
X144216069Y-95311007D01*
X144264429Y-95380072D01*
X144287117Y-95447346D01*
X144269832Y-95516207D01*
X144237925Y-95552301D01*
X144145629Y-95623122D01*
X144145625Y-95623126D01*
X144145621Y-95623129D01*
X144120266Y-95642584D01*
X144120263Y-95642587D01*
X144113713Y-95647613D01*
X144108683Y-95654168D01*
X144094248Y-95672979D01*
X144083381Y-95685370D01*
X143516017Y-96252734D01*
X143465819Y-96280210D01*
X143466795Y-96283078D01*
X143317682Y-96333840D01*
X143317679Y-96333841D01*
X143311015Y-96336110D01*
X143258914Y-96368163D01*
X143244845Y-96376818D01*
X143178823Y-96395500D01*
X133934936Y-96395500D01*
X133918493Y-96394422D01*
X133886800Y-96390250D01*
X133878611Y-96391328D01*
X133846926Y-96395499D01*
X133846917Y-96395500D01*
X133846915Y-96395500D01*
X133846909Y-96395501D01*
X133846907Y-96395501D01*
X133747343Y-96408609D01*
X133736136Y-96410084D01*
X133736134Y-96410085D01*
X133727949Y-96411162D01*
X133579924Y-96472476D01*
X133537603Y-96504951D01*
X133452813Y-96570013D01*
X133447787Y-96576563D01*
X133441946Y-96582404D01*
X133440776Y-96581234D01*
X133389044Y-96618338D01*
X133245982Y-96667040D01*
X133245979Y-96667041D01*
X133239315Y-96669310D01*
X133099155Y-96755537D01*
X132981582Y-96870673D01*
X132892438Y-97008997D01*
X132890027Y-97015620D01*
X132890026Y-97015623D01*
X132838566Y-97157009D01*
X132838565Y-97157014D01*
X132836156Y-97163632D01*
X132815531Y-97326894D01*
X132820675Y-97379356D01*
X132821047Y-97383151D01*
X132807787Y-97452898D01*
X132758925Y-97504405D01*
X132689972Y-97521318D01*
X132653383Y-97514146D01*
X132635790Y-97507881D01*
X132628802Y-97507048D01*
X132628799Y-97507047D01*
X132505698Y-97492368D01*
X132455680Y-97486404D01*
X132448677Y-97487140D01*
X132448676Y-97487140D01*
X132282288Y-97504628D01*
X132282286Y-97504629D01*
X132275288Y-97505364D01*
X132103579Y-97563818D01*
X132097575Y-97567512D01*
X131955095Y-97655166D01*
X131955092Y-97655168D01*
X131949088Y-97658862D01*
X131944053Y-97663793D01*
X131944050Y-97663795D01*
X131824823Y-97780551D01*
X131819493Y-97785771D01*
X131721235Y-97938238D01*
X131718826Y-97944858D01*
X131718824Y-97944861D01*
X131676716Y-98060551D01*
X131659197Y-98108685D01*
X131636463Y-98288640D01*
X131654163Y-98469160D01*
X131711418Y-98641273D01*
X131715065Y-98647295D01*
X131715066Y-98647297D01*
X131770983Y-98739627D01*
X131805380Y-98796424D01*
X131810269Y-98801487D01*
X131810270Y-98801488D01*
X131867651Y-98860907D01*
X131931382Y-98926902D01*
X131980274Y-98958896D01*
X132058157Y-99009861D01*
X132083159Y-99026222D01*
X132089763Y-99028678D01*
X132089765Y-99028679D01*
X132246558Y-99086990D01*
X132246560Y-99086990D01*
X132253168Y-99089448D01*
X132332235Y-99099998D01*
X132425980Y-99112507D01*
X132425984Y-99112507D01*
X132432961Y-99113438D01*
X132439972Y-99112800D01*
X132439976Y-99112800D01*
X132582459Y-99099832D01*
X132613600Y-99096998D01*
X132620302Y-99094820D01*
X132620304Y-99094820D01*
X132779409Y-99043124D01*
X132779412Y-99043123D01*
X132786108Y-99040947D01*
X132941912Y-98948069D01*
X133073266Y-98822982D01*
X133173643Y-98671902D01*
X133219601Y-98550918D01*
X133235555Y-98508920D01*
X133235556Y-98508918D01*
X133238055Y-98502338D01*
X133241667Y-98476639D01*
X133262748Y-98326639D01*
X133262748Y-98326636D01*
X133263299Y-98322717D01*
X133263452Y-98311738D01*
X133263561Y-98303962D01*
X133263561Y-98303957D01*
X133263616Y-98300000D01*
X133252112Y-98197439D01*
X133251821Y-98194844D01*
X133264105Y-98124918D01*
X133312244Y-98072734D01*
X133380954Y-98054860D01*
X133393691Y-98055905D01*
X133476914Y-98067009D01*
X133531162Y-98074248D01*
X133531165Y-98074248D01*
X133538142Y-98075179D01*
X133545153Y-98074541D01*
X133545157Y-98074541D01*
X133695003Y-98060904D01*
X133695004Y-98060904D01*
X133702024Y-98060265D01*
X133801205Y-98028039D01*
X133851830Y-98011590D01*
X133851833Y-98011589D01*
X133858529Y-98009413D01*
X133999879Y-97925151D01*
X134119049Y-97811668D01*
X134132321Y-97791693D01*
X134210115Y-97674603D01*
X134211263Y-97675366D01*
X134254917Y-97629463D01*
X134318059Y-97612500D01*
X143177978Y-97612500D01*
X143246971Y-97633068D01*
X143292489Y-97662854D01*
X143446728Y-97720215D01*
X143453709Y-97721146D01*
X143453711Y-97721147D01*
X143602861Y-97741048D01*
X143602865Y-97741048D01*
X143609842Y-97741979D01*
X143616853Y-97741341D01*
X143616857Y-97741341D01*
X143766703Y-97727704D01*
X143766704Y-97727704D01*
X143773724Y-97727065D01*
X143851598Y-97701762D01*
X143923530Y-97678390D01*
X143923533Y-97678389D01*
X143930229Y-97676213D01*
X143936280Y-97672606D01*
X143936282Y-97672605D01*
X143983676Y-97644353D01*
X144052431Y-97626653D01*
X144119840Y-97648935D01*
X144162388Y-97699332D01*
X144210151Y-97801762D01*
X144210154Y-97801767D01*
X144212477Y-97806749D01*
X144343802Y-97994300D01*
X144505700Y-98156198D01*
X144510208Y-98159355D01*
X144510211Y-98159357D01*
X144553137Y-98189414D01*
X144693251Y-98287523D01*
X144698233Y-98289846D01*
X144698238Y-98289849D01*
X144884137Y-98376534D01*
X144900757Y-98384284D01*
X144906065Y-98385706D01*
X144906067Y-98385707D01*
X145116598Y-98442119D01*
X145116600Y-98442119D01*
X145121913Y-98443543D01*
X145350000Y-98463498D01*
X145578087Y-98443543D01*
X145583400Y-98442119D01*
X145583402Y-98442119D01*
X145793933Y-98385707D01*
X145793935Y-98385706D01*
X145799243Y-98384284D01*
X145815863Y-98376534D01*
X146001762Y-98289849D01*
X146001767Y-98289846D01*
X146006749Y-98287523D01*
X146146863Y-98189414D01*
X146189789Y-98159357D01*
X146189792Y-98159355D01*
X146194300Y-98156198D01*
X146356198Y-97994300D01*
X146487523Y-97806749D01*
X146489846Y-97801767D01*
X146489849Y-97801762D01*
X146581961Y-97604225D01*
X146581961Y-97604224D01*
X146584284Y-97599243D01*
X146592787Y-97567512D01*
X146642119Y-97383402D01*
X146642119Y-97383400D01*
X146643543Y-97378087D01*
X146663498Y-97150000D01*
X146643543Y-96921913D01*
X146642120Y-96916602D01*
X146642118Y-96916591D01*
X146623929Y-96848712D01*
X146625618Y-96777736D01*
X146665411Y-96718940D01*
X146730675Y-96690991D01*
X146745635Y-96690100D01*
X147685261Y-96690100D01*
X147753382Y-96710102D01*
X147774356Y-96727005D01*
X148320985Y-97273634D01*
X148351448Y-97322957D01*
X148401432Y-97473215D01*
X148405081Y-97479240D01*
X148465377Y-97578799D01*
X148486679Y-97613973D01*
X148491570Y-97619038D01*
X148491571Y-97619039D01*
X148537498Y-97666598D01*
X148600991Y-97732347D01*
X148738689Y-97822454D01*
X148892928Y-97879815D01*
X148899909Y-97880746D01*
X148899911Y-97880747D01*
X149049061Y-97900648D01*
X149049065Y-97900648D01*
X149056042Y-97901579D01*
X149063053Y-97900941D01*
X149063057Y-97900941D01*
X149212903Y-97887304D01*
X149212904Y-97887304D01*
X149219924Y-97886665D01*
X149298275Y-97861207D01*
X149369730Y-97837990D01*
X149369733Y-97837989D01*
X149376429Y-97835813D01*
X149517779Y-97751551D01*
X149633432Y-97641417D01*
X149696557Y-97608925D01*
X149767228Y-97615719D01*
X149809419Y-97643568D01*
X150595807Y-98429956D01*
X150629833Y-98492268D01*
X150624768Y-98563083D01*
X150582221Y-98619919D01*
X150572742Y-98626364D01*
X150454982Y-98698810D01*
X150411191Y-98741693D01*
X150350126Y-98801493D01*
X150337409Y-98813946D01*
X150248265Y-98952270D01*
X150245854Y-98958893D01*
X150245853Y-98958896D01*
X150215197Y-99043124D01*
X150191983Y-99106905D01*
X150191313Y-99112212D01*
X150158283Y-99171068D01*
X149897556Y-99431795D01*
X149835244Y-99465821D01*
X149808461Y-99468700D01*
X143336567Y-99468700D01*
X143268446Y-99448698D01*
X143221953Y-99395042D01*
X143211793Y-99325164D01*
X143227748Y-99211640D01*
X143227748Y-99211635D01*
X143228299Y-99207717D01*
X143228616Y-99185000D01*
X143208397Y-99004745D01*
X143206080Y-98998091D01*
X143151064Y-98840106D01*
X143151062Y-98840103D01*
X143148745Y-98833448D01*
X143133480Y-98809019D01*
X143056359Y-98685598D01*
X143052626Y-98679624D01*
X143032066Y-98658920D01*
X142929778Y-98555915D01*
X142929774Y-98555912D01*
X142924815Y-98550918D01*
X142913697Y-98543862D01*
X142862776Y-98511547D01*
X142771666Y-98453727D01*
X142739067Y-98442119D01*
X142607425Y-98395243D01*
X142607420Y-98395242D01*
X142600790Y-98392881D01*
X142593802Y-98392048D01*
X142593799Y-98392047D01*
X142463701Y-98376534D01*
X142420680Y-98371404D01*
X142413677Y-98372140D01*
X142413676Y-98372140D01*
X142247288Y-98389628D01*
X142247286Y-98389629D01*
X142240288Y-98390364D01*
X142068579Y-98448818D01*
X142006109Y-98487250D01*
X141920095Y-98540166D01*
X141920092Y-98540168D01*
X141914088Y-98543862D01*
X141909053Y-98548793D01*
X141909050Y-98548795D01*
X141790065Y-98665314D01*
X141784493Y-98670771D01*
X141686235Y-98823238D01*
X141683826Y-98829858D01*
X141683824Y-98829861D01*
X141654890Y-98909357D01*
X141624197Y-98993685D01*
X141601463Y-99173640D01*
X141615859Y-99320462D01*
X141616834Y-99330405D01*
X141603574Y-99400152D01*
X141554712Y-99451659D01*
X141491435Y-99468700D01*
X128155336Y-99468700D01*
X128138893Y-99467622D01*
X128107200Y-99463450D01*
X128099011Y-99464528D01*
X128067326Y-99468699D01*
X128067317Y-99468700D01*
X128067315Y-99468700D01*
X128067309Y-99468701D01*
X128067307Y-99468701D01*
X127967743Y-99481809D01*
X127956536Y-99483284D01*
X127956534Y-99483285D01*
X127948349Y-99484362D01*
X127800324Y-99545676D01*
X127793769Y-99550706D01*
X127786622Y-99554832D01*
X127784911Y-99551868D01*
X127746900Y-99567043D01*
X127747381Y-99569228D01*
X127740494Y-99570742D01*
X127733495Y-99571478D01*
X127726832Y-99573746D01*
X127726833Y-99573746D01*
X127584382Y-99622240D01*
X127584379Y-99622241D01*
X127577715Y-99624510D01*
X127437555Y-99710737D01*
X127392415Y-99754941D01*
X127347559Y-99798868D01*
X127319982Y-99825873D01*
X127230838Y-99964197D01*
X127228427Y-99970820D01*
X127228426Y-99970823D01*
X127176966Y-100112209D01*
X127176965Y-100112214D01*
X127174556Y-100118832D01*
X127153931Y-100282094D01*
X127154619Y-100289107D01*
X127169288Y-100438717D01*
X127169373Y-100439585D01*
X127169989Y-100445868D01*
X127168886Y-100445976D01*
X127163997Y-100510087D01*
X127121184Y-100566722D01*
X127054548Y-100591220D01*
X127046150Y-100591500D01*
X126951866Y-100591500D01*
X126889684Y-100598255D01*
X126753295Y-100649385D01*
X126636739Y-100736739D01*
X126631358Y-100743919D01*
X126631357Y-100743920D01*
X126555926Y-100844567D01*
X126499067Y-100887082D01*
X126428248Y-100892108D01*
X126365955Y-100858048D01*
X126331965Y-100795716D01*
X126329100Y-100769002D01*
X126329100Y-97293839D01*
X126349102Y-97225718D01*
X126366005Y-97204744D01*
X128879528Y-94691221D01*
X128929687Y-94660483D01*
X129066930Y-94615890D01*
X129066933Y-94615889D01*
X129073629Y-94613713D01*
X129214979Y-94529451D01*
X129334149Y-94415968D01*
X129344556Y-94400305D01*
X129382190Y-94343660D01*
X129425215Y-94278903D01*
X129426499Y-94275523D01*
X129474489Y-94225062D01*
X129537630Y-94208100D01*
X143950059Y-94208100D01*
X144018180Y-94228102D01*
G37*
%TD.AperFunction*%
%TA.AperFunction,Conductor*%
G36*
X105491621Y-96621502D02*
G01*
X105531275Y-96662228D01*
X105608926Y-96790444D01*
X105608934Y-96790454D01*
X105612579Y-96796473D01*
X105726891Y-96914847D01*
X105864589Y-97004954D01*
X106018828Y-97062315D01*
X106025809Y-97063246D01*
X106025811Y-97063247D01*
X106174961Y-97083148D01*
X106174965Y-97083148D01*
X106181942Y-97084079D01*
X106188953Y-97083441D01*
X106188956Y-97083441D01*
X106245264Y-97078316D01*
X106321481Y-97071380D01*
X106391134Y-97085125D01*
X106442298Y-97134346D01*
X106458900Y-97196861D01*
X106458900Y-99493561D01*
X106438898Y-99561682D01*
X106385242Y-99608175D01*
X106314968Y-99618279D01*
X106250388Y-99588785D01*
X106243805Y-99582656D01*
X105993415Y-99332266D01*
X105982548Y-99319875D01*
X105968113Y-99301063D01*
X105963087Y-99294513D01*
X105931175Y-99270026D01*
X105931172Y-99270023D01*
X105901998Y-99247637D01*
X105842529Y-99202004D01*
X105842527Y-99202003D01*
X105835976Y-99196976D01*
X105687951Y-99135662D01*
X105679764Y-99134584D01*
X105679763Y-99134584D01*
X105668558Y-99133109D01*
X105637362Y-99129002D01*
X105568985Y-99120000D01*
X105568982Y-99120000D01*
X105568974Y-99119999D01*
X105537289Y-99115828D01*
X105529100Y-99114750D01*
X105497407Y-99118922D01*
X105480964Y-99120000D01*
X102376389Y-99120000D01*
X102308268Y-99099998D01*
X102261775Y-99046342D01*
X102251671Y-98976068D01*
X102281165Y-98911488D01*
X102289497Y-98902754D01*
X102294019Y-98898448D01*
X102373266Y-98822982D01*
X102473643Y-98671902D01*
X102519601Y-98550918D01*
X102535555Y-98508920D01*
X102535556Y-98508918D01*
X102538055Y-98502338D01*
X102541667Y-98476639D01*
X102562748Y-98326639D01*
X102562748Y-98326636D01*
X102563299Y-98322717D01*
X102563452Y-98311738D01*
X102563561Y-98303962D01*
X102563561Y-98303957D01*
X102563616Y-98300000D01*
X102543397Y-98119745D01*
X102541080Y-98113091D01*
X102486064Y-97955106D01*
X102486062Y-97955103D01*
X102483745Y-97948448D01*
X102480009Y-97942469D01*
X102391359Y-97800598D01*
X102387626Y-97794624D01*
X102368831Y-97775697D01*
X102264778Y-97670915D01*
X102264774Y-97670912D01*
X102259815Y-97665918D01*
X102248905Y-97658994D01*
X102180714Y-97615719D01*
X102106666Y-97568727D01*
X102057141Y-97551092D01*
X101942425Y-97510243D01*
X101942420Y-97510242D01*
X101935790Y-97507881D01*
X101928802Y-97507048D01*
X101928799Y-97507047D01*
X101805698Y-97492368D01*
X101755680Y-97486404D01*
X101748677Y-97487140D01*
X101748676Y-97487140D01*
X101582288Y-97504628D01*
X101582286Y-97504629D01*
X101575288Y-97505364D01*
X101403579Y-97563818D01*
X101397575Y-97567512D01*
X101255095Y-97655166D01*
X101255092Y-97655168D01*
X101249088Y-97658862D01*
X101244053Y-97663793D01*
X101244050Y-97663795D01*
X101124823Y-97780551D01*
X101119493Y-97785771D01*
X101021235Y-97938238D01*
X101018826Y-97944858D01*
X101018824Y-97944861D01*
X100976716Y-98060551D01*
X100959197Y-98108685D01*
X100936463Y-98288640D01*
X100954163Y-98469160D01*
X101011418Y-98641273D01*
X101015065Y-98647295D01*
X101015066Y-98647297D01*
X101070983Y-98739627D01*
X101105380Y-98796424D01*
X101110270Y-98801487D01*
X101110274Y-98801493D01*
X101211653Y-98906473D01*
X101244586Y-98969369D01*
X101238286Y-99040086D01*
X101194755Y-99096170D01*
X101121017Y-99120000D01*
X100234153Y-99120000D01*
X100166638Y-99100385D01*
X100129386Y-99076744D01*
X100110980Y-99065063D01*
X100001902Y-99026222D01*
X99962589Y-99012223D01*
X99962587Y-99012222D01*
X99955955Y-99009861D01*
X99948969Y-99009028D01*
X99948965Y-99009027D01*
X99820295Y-98993685D01*
X99792553Y-98990377D01*
X99785550Y-98991113D01*
X99785549Y-98991113D01*
X99761079Y-98993685D01*
X99628895Y-99007578D01*
X99615562Y-99012117D01*
X99479782Y-99058340D01*
X99479779Y-99058341D01*
X99473115Y-99060610D01*
X99409091Y-99099998D01*
X99351047Y-99135707D01*
X99332955Y-99146837D01*
X99327922Y-99151766D01*
X99223563Y-99253962D01*
X99215382Y-99261973D01*
X99126238Y-99400297D01*
X99123827Y-99406920D01*
X99123826Y-99406923D01*
X99085402Y-99512494D01*
X99043308Y-99569666D01*
X98976987Y-99595004D01*
X98967001Y-99595400D01*
X98347736Y-99595400D01*
X98331293Y-99594322D01*
X98299600Y-99590150D01*
X98291411Y-99591228D01*
X98259726Y-99595399D01*
X98259717Y-99595400D01*
X98259715Y-99595400D01*
X98259709Y-99595401D01*
X98259707Y-99595401D01*
X98160143Y-99608509D01*
X98148936Y-99609984D01*
X98148934Y-99609985D01*
X98140749Y-99611062D01*
X97992724Y-99672376D01*
X97897528Y-99745423D01*
X97897525Y-99745426D01*
X97865613Y-99769913D01*
X97860583Y-99776468D01*
X97846148Y-99795279D01*
X97835281Y-99807670D01*
X97158795Y-100484156D01*
X97096483Y-100518182D01*
X97025668Y-100513117D01*
X96968832Y-100470570D01*
X96944021Y-100404050D01*
X96943700Y-100395061D01*
X96943700Y-98136062D01*
X97828493Y-98136062D01*
X97837789Y-98148077D01*
X97888994Y-98183931D01*
X97898489Y-98189414D01*
X98095947Y-98281490D01*
X98106239Y-98285236D01*
X98316688Y-98341625D01*
X98327481Y-98343528D01*
X98544525Y-98362517D01*
X98555475Y-98362517D01*
X98772519Y-98343528D01*
X98783312Y-98341625D01*
X98993761Y-98285236D01*
X99004053Y-98281490D01*
X99201511Y-98189414D01*
X99211006Y-98183931D01*
X99263048Y-98147491D01*
X99271424Y-98137012D01*
X99264356Y-98123566D01*
X98562812Y-97422022D01*
X98548868Y-97414408D01*
X98547035Y-97414539D01*
X98540420Y-97418790D01*
X97834923Y-98124287D01*
X97828493Y-98136062D01*
X96943700Y-98136062D01*
X96943700Y-97500093D01*
X96963702Y-97431972D01*
X97017358Y-97385479D01*
X97058280Y-97374612D01*
X97104035Y-97370448D01*
X97123203Y-97368704D01*
X97123204Y-97368704D01*
X97130224Y-97368065D01*
X97142729Y-97364002D01*
X97213696Y-97361978D01*
X97274492Y-97398642D01*
X97303367Y-97451226D01*
X97314764Y-97493761D01*
X97318510Y-97504053D01*
X97410586Y-97701511D01*
X97416069Y-97711006D01*
X97452509Y-97763048D01*
X97462988Y-97771424D01*
X97476434Y-97764356D01*
X98460905Y-96779885D01*
X98523217Y-96745859D01*
X98594032Y-96750924D01*
X98639095Y-96779885D01*
X99624287Y-97765077D01*
X99636062Y-97771507D01*
X99648077Y-97762211D01*
X99683931Y-97711006D01*
X99689414Y-97701511D01*
X99781490Y-97504053D01*
X99785236Y-97493761D01*
X99841625Y-97283312D01*
X99843528Y-97272519D01*
X99862517Y-97055475D01*
X99862517Y-97044525D01*
X99843528Y-96827481D01*
X99841625Y-96816687D01*
X99826466Y-96760111D01*
X99828156Y-96689134D01*
X99867951Y-96630338D01*
X99933215Y-96602391D01*
X99948173Y-96601500D01*
X105423500Y-96601500D01*
X105491621Y-96621502D01*
G37*
%TD.AperFunction*%
%TA.AperFunction,Conductor*%
G36*
X95644732Y-95698783D02*
G01*
X95701568Y-95741330D01*
X95726379Y-95807850D01*
X95726700Y-95816839D01*
X95726700Y-98270842D01*
X95706698Y-98338963D01*
X95653042Y-98385456D01*
X95585782Y-98395956D01*
X95505680Y-98386404D01*
X95478070Y-98389306D01*
X95408233Y-98376534D01*
X95356386Y-98328032D01*
X95338900Y-98263996D01*
X95338900Y-95952639D01*
X95358902Y-95884518D01*
X95375805Y-95863544D01*
X95511605Y-95727744D01*
X95573917Y-95693718D01*
X95644732Y-95698783D01*
G37*
%TD.AperFunction*%
%TD*%
M02*
