G04 #@! TF.GenerationSoftware,KiCad,Pcbnew,(5.1.5-0-10_14)*
G04 #@! TF.CreationDate,2020-11-11T10:53:56+00:00*
G04 #@! TF.ProjectId,rosco_m68k_r1_020,726f7363-6f5f-46d3-9638-6b5f72315f30,rev?*
G04 #@! TF.SameCoordinates,Original*
G04 #@! TF.FileFunction,Copper,L1,Top*
G04 #@! TF.FilePolarity,Positive*
%FSLAX46Y46*%
G04 Gerber Fmt 4.6, Leading zero omitted, Abs format (unit mm)*
G04 Created by KiCad (PCBNEW (5.1.5-0-10_14)) date 2020-11-11 10:53:56*
%MOMM*%
%LPD*%
G04 APERTURE LIST*
%ADD10O,1.320800X2.641600*%
%ADD11C,1.524000*%
%ADD12R,1.524000X1.524000*%
%ADD13O,1.600000X1.600000*%
%ADD14R,1.600000X1.600000*%
%ADD15C,1.320800*%
%ADD16C,1.600000*%
%ADD17O,1.700000X1.700000*%
%ADD18R,1.700000X1.700000*%
%ADD19C,1.600200*%
%ADD20C,0.800000*%
%ADD21C,0.120000*%
%ADD22C,0.152400*%
G04 APERTURE END LIST*
D10*
X115457000Y-35370599D03*
X112917000Y-35370599D03*
X110377000Y-35370599D03*
X107837000Y-35370599D03*
X105297000Y-35370599D03*
X102757000Y-35370599D03*
X100217000Y-35370599D03*
X97677000Y-35370599D03*
X95137000Y-35370599D03*
X92597000Y-35370599D03*
X90057000Y-35370599D03*
X87517000Y-35370599D03*
X115457000Y-58230599D03*
X112917000Y-58230599D03*
X110377000Y-58230599D03*
X107837000Y-58230599D03*
X105297000Y-58230599D03*
X102757000Y-58230599D03*
X100217000Y-58230599D03*
X97677000Y-58230599D03*
X95137000Y-58230599D03*
X92597000Y-58230599D03*
X90057000Y-58230599D03*
X87517000Y-58230599D03*
X39257000Y-35370599D03*
X41797000Y-35370599D03*
X44337000Y-35370599D03*
X46877000Y-35370599D03*
X49417000Y-35370599D03*
X51957000Y-35370599D03*
X54497000Y-35370599D03*
X57037000Y-35370599D03*
X59577000Y-35370599D03*
X62117000Y-35370599D03*
X64657000Y-35370599D03*
X67197000Y-35370599D03*
X69737000Y-35370599D03*
X72277000Y-35370599D03*
X74817000Y-35370599D03*
X77357000Y-35370599D03*
X79897000Y-35370599D03*
X82437000Y-35370599D03*
X84977000Y-35370599D03*
X117997000Y-35370599D03*
X117997000Y-58230599D03*
X84977000Y-58230599D03*
X82437000Y-58230599D03*
X79897000Y-58230599D03*
X77357000Y-58230599D03*
X74817000Y-58230599D03*
X72277000Y-58230599D03*
X69737000Y-58230599D03*
X67197000Y-58230599D03*
X64657000Y-58230599D03*
X62117000Y-58230599D03*
X59577000Y-58230599D03*
X57037000Y-58230599D03*
X54497000Y-58230599D03*
X51957000Y-58230599D03*
X49417000Y-58230599D03*
X46877000Y-58230599D03*
X44337000Y-58230599D03*
X41797000Y-58230599D03*
X39257000Y-58230599D03*
X43770000Y-42418000D03*
X46310000Y-42418000D03*
X48850000Y-42418000D03*
X51390000Y-42418000D03*
X53930000Y-42418000D03*
X56470000Y-42418000D03*
X59010000Y-42418000D03*
X61550000Y-42418000D03*
X64090000Y-42418000D03*
X66630000Y-42418000D03*
X66630000Y-50038000D03*
X64090000Y-50038000D03*
X61550000Y-50038000D03*
X59010000Y-50038000D03*
X56470000Y-50038000D03*
X53930000Y-50038000D03*
X51390000Y-50038000D03*
X48850000Y-50038000D03*
X46310000Y-50038000D03*
X43770000Y-50038000D03*
D11*
X109153200Y-63640000D03*
X106613200Y-63640000D03*
X104073200Y-63640000D03*
X116773200Y-63640000D03*
X114233200Y-63640000D03*
X93913200Y-63640000D03*
X96453200Y-63640000D03*
D12*
X86293200Y-63640000D03*
D11*
X101533200Y-63640000D03*
X88833200Y-63640000D03*
X91373200Y-63640000D03*
X98993200Y-63640000D03*
X111693200Y-63640000D03*
X109153200Y-66180000D03*
X106613200Y-66180000D03*
X104073200Y-66180000D03*
X116773200Y-66180000D03*
X114233200Y-66180000D03*
X93913200Y-66180000D03*
X96453200Y-66180000D03*
X86293200Y-66180000D03*
X101533200Y-66180000D03*
X88833200Y-66180000D03*
X91373200Y-66180000D03*
X98993200Y-66180000D03*
X111693200Y-66180000D03*
X109153200Y-68720000D03*
X106613200Y-68720000D03*
X104073200Y-68720000D03*
X116773200Y-68720000D03*
X114233200Y-68720000D03*
X93913200Y-68720000D03*
X96453200Y-68720000D03*
X86293200Y-68720000D03*
X101533200Y-68720000D03*
X88833200Y-68720000D03*
X91373200Y-68720000D03*
X98993200Y-68720000D03*
X111693200Y-68720000D03*
X116773200Y-71260000D03*
X114233200Y-71260000D03*
X86293200Y-71260000D03*
X88833200Y-71260000D03*
X91373200Y-71260000D03*
X116773200Y-73800000D03*
X114233200Y-73800000D03*
X86293200Y-73800000D03*
X88833200Y-73800000D03*
X91373200Y-73800000D03*
X116773200Y-76340000D03*
X114233200Y-76340000D03*
X86293200Y-76340000D03*
X88833200Y-76340000D03*
X91373200Y-76340000D03*
X116773200Y-78880000D03*
X114233200Y-78880000D03*
X86293200Y-78880000D03*
X88833200Y-78880000D03*
X91373200Y-78880000D03*
X111693200Y-78880000D03*
X116773200Y-81420000D03*
X114233200Y-81420000D03*
X86293200Y-81420000D03*
X88833200Y-81420000D03*
X91373200Y-81420000D03*
X116773200Y-83960000D03*
X114233200Y-83960000D03*
X86293200Y-83960000D03*
X88833200Y-83960000D03*
X91373200Y-83960000D03*
X116773200Y-86500000D03*
X114233200Y-86500000D03*
X86293200Y-86500000D03*
X88833200Y-86500000D03*
X91373200Y-86500000D03*
X109153200Y-89040000D03*
X106613200Y-89040000D03*
X104073200Y-89040000D03*
X116773200Y-89040000D03*
X114233200Y-89040000D03*
X93913200Y-89040000D03*
X96453200Y-89040000D03*
X86293200Y-89040000D03*
X101533200Y-89040000D03*
X88833200Y-89040000D03*
X91373200Y-89040000D03*
X98993200Y-89040000D03*
X111693200Y-89040000D03*
X109153200Y-91580000D03*
X106613200Y-91580000D03*
X104073200Y-91580000D03*
X116773200Y-91580000D03*
X114233200Y-91580000D03*
X93913200Y-91580000D03*
X96453200Y-91580000D03*
X86293200Y-91580000D03*
X101533200Y-91580000D03*
X88833200Y-91580000D03*
X91373200Y-91580000D03*
X98993200Y-91580000D03*
X111693200Y-91580000D03*
X86293200Y-94120000D03*
X88833200Y-94120000D03*
X91373200Y-94120000D03*
X93913200Y-94120000D03*
X96453200Y-94120000D03*
X98993200Y-94120000D03*
X101533200Y-94120000D03*
X104073200Y-94120000D03*
X106613200Y-94120000D03*
X109153200Y-94120000D03*
X111693200Y-94120000D03*
X114233200Y-94120000D03*
X116773200Y-94120000D03*
D13*
X97298200Y-103700000D03*
X99838200Y-103700000D03*
X102378200Y-103700000D03*
X104918200Y-103700000D03*
X107458200Y-103700000D03*
X109998200Y-103700000D03*
X112538200Y-103700000D03*
X115078200Y-103700000D03*
D14*
X117618200Y-103700000D03*
D13*
X97298200Y-99900000D03*
X99838200Y-99900000D03*
X102378200Y-99900000D03*
X104918200Y-99900000D03*
X107458200Y-99900000D03*
X109998200Y-99900000D03*
X112538200Y-99900000D03*
X115078200Y-99900000D03*
D14*
X117618200Y-99900000D03*
D15*
X76151199Y-84250000D03*
X65991199Y-84250000D03*
X76151199Y-79449000D03*
X65991199Y-79449000D03*
X80000000Y-51880599D03*
X80000000Y-41720599D03*
D16*
X97552718Y-50610599D03*
X97552718Y-42990599D03*
X89932718Y-42990599D03*
D14*
X89932718Y-50610599D03*
D17*
X71540000Y-67540000D03*
X69000000Y-67540000D03*
X71540000Y-65000000D03*
D18*
X69000000Y-65000000D03*
D17*
X125390000Y-103570000D03*
X122850000Y-103570000D03*
X125390000Y-101030000D03*
X122850000Y-101030000D03*
X125390000Y-98490000D03*
X122850000Y-98490000D03*
X125390000Y-95950000D03*
D18*
X122850000Y-95950000D03*
D17*
X125390000Y-89780000D03*
X122850000Y-89780000D03*
X125390000Y-87240000D03*
X122850000Y-87240000D03*
X125390000Y-84700000D03*
X122850000Y-84700000D03*
X125390000Y-82160000D03*
X122850000Y-82160000D03*
X125390000Y-79620000D03*
X122850000Y-79620000D03*
X125390000Y-77080000D03*
X122850000Y-77080000D03*
X125390000Y-74540000D03*
X122850000Y-74540000D03*
X125390000Y-72000000D03*
D18*
X122850000Y-72000000D03*
D19*
X56270000Y-71000000D03*
X53730000Y-71000000D03*
X124784200Y-43000000D03*
X122244200Y-43000000D03*
X124784200Y-35650000D03*
X122244200Y-35650000D03*
X93670000Y-99650000D03*
X91130000Y-99650000D03*
X87720000Y-99650000D03*
X85180000Y-99650000D03*
X81720000Y-95089800D03*
X79180000Y-95089800D03*
X81720000Y-88605880D03*
X79180000Y-88605880D03*
X81720000Y-82121960D03*
X79180000Y-82121960D03*
X81720000Y-75638040D03*
X79180000Y-75638040D03*
X81720000Y-69154120D03*
X79180000Y-69154120D03*
X81720000Y-62670200D03*
X79180000Y-62670200D03*
X108730000Y-46800599D03*
X111270000Y-46800599D03*
X71000000Y-45212000D03*
X71000000Y-47752000D03*
D20*
X74520059Y-61311354D03*
X75181330Y-61936513D03*
X75190000Y-60695496D03*
X75096296Y-66935865D03*
X100280000Y-74450000D03*
X121470000Y-56754071D03*
X99550040Y-75090000D03*
X99550040Y-77270000D03*
X51940000Y-61380000D03*
X100342099Y-75792607D03*
X122665783Y-55614070D03*
X100308835Y-76702001D03*
X123519990Y-56285224D03*
X99550040Y-78210734D03*
X99550040Y-80730003D03*
X51206974Y-61924883D03*
X99550040Y-79820000D03*
X126210000Y-60740000D03*
X125462975Y-60170000D03*
X124584495Y-59932565D03*
X67800000Y-85530000D03*
X62080000Y-67960000D03*
X87991009Y-61971443D03*
X56510000Y-52840000D03*
X67083621Y-86091164D03*
X61150000Y-67960000D03*
X61242986Y-52816884D03*
X58478590Y-52882488D03*
X87540000Y-51294399D03*
X75280000Y-46190000D03*
X76000000Y-66220000D03*
X114065560Y-38722405D03*
X110250000Y-61301020D03*
X102670000Y-61531030D03*
X109020000Y-33680000D03*
X113487000Y-38020000D03*
X108329899Y-40240000D03*
X92352206Y-53565968D03*
X95985186Y-54489940D03*
X89613119Y-52849880D03*
X99627805Y-54825586D03*
X95092580Y-54259930D03*
X97802986Y-54949960D03*
X101930000Y-56440000D03*
X90530861Y-53109880D03*
X93231623Y-53799910D03*
X100385430Y-55329677D03*
X88714576Y-52619870D03*
X91423833Y-53339890D03*
X94182577Y-54029920D03*
X96895189Y-54719950D03*
X98712855Y-54934433D03*
X101132642Y-55870000D03*
D21*
X86293200Y-62758000D02*
X86293200Y-63640000D01*
X84846554Y-61311354D02*
X86293200Y-62758000D01*
X74520059Y-61311354D02*
X84846554Y-61311354D01*
X75747015Y-61936513D02*
X78820502Y-65010000D01*
X75181330Y-61936513D02*
X75747015Y-61936513D01*
X87663200Y-65010000D02*
X88833200Y-66180000D01*
X78820502Y-65010000D02*
X87663200Y-65010000D01*
X89943200Y-64750000D02*
X91373200Y-66180000D01*
X88090000Y-64750000D02*
X89943200Y-64750000D01*
X87540000Y-64200000D02*
X88090000Y-64750000D01*
X75190000Y-60695496D02*
X85915496Y-60695496D01*
X87540000Y-62320000D02*
X87540000Y-64200000D01*
X85915496Y-60695496D02*
X87540000Y-62320000D01*
X75470421Y-67309990D02*
X75096296Y-66935865D01*
X92503190Y-67309990D02*
X75470421Y-67309990D01*
X93913200Y-68720000D02*
X92503190Y-67309990D01*
D22*
X75584037Y-67771799D02*
X87884999Y-67771799D01*
X88071201Y-67958001D02*
X88833200Y-68720000D01*
X87884999Y-67771799D02*
X88071201Y-67958001D01*
X75352238Y-67540000D02*
X75584037Y-67771799D01*
X71540000Y-67540000D02*
X75352238Y-67540000D01*
D21*
X118573200Y-72000000D02*
X116773200Y-73800000D01*
X122850000Y-72000000D02*
X118573200Y-72000000D01*
X98697999Y-72867999D02*
X100280000Y-74450000D01*
X87225201Y-72867999D02*
X98697999Y-72867999D01*
X86293200Y-73800000D02*
X87225201Y-72867999D01*
X108067010Y-56559789D02*
X107837000Y-56789799D01*
X120710033Y-56559789D02*
X108067010Y-56559789D01*
X107837000Y-56789799D02*
X107837000Y-58230599D01*
X120904315Y-56754071D02*
X120710033Y-56559789D01*
X121470000Y-56754071D02*
X120904315Y-56754071D01*
X90113200Y-75080000D02*
X88833200Y-73800000D01*
X99540040Y-75080000D02*
X99550040Y-75090000D01*
X90113200Y-75080000D02*
X99540040Y-75080000D01*
X117513200Y-77080000D02*
X116773200Y-76340000D01*
X122850000Y-77080000D02*
X117513200Y-77080000D01*
X86293200Y-76340000D02*
X87225201Y-77272001D01*
X99548039Y-77272001D02*
X99550040Y-77270000D01*
X87225201Y-77272001D02*
X99548039Y-77272001D01*
X86293200Y-75262370D02*
X81830830Y-70800000D01*
X86293200Y-76340000D02*
X86293200Y-75262370D01*
X61360000Y-70800000D02*
X51940000Y-61380000D01*
X81830830Y-70800000D02*
X61360000Y-70800000D01*
X91820561Y-75407999D02*
X92205169Y-75792607D01*
X89765201Y-75407999D02*
X91820561Y-75407999D01*
X92205169Y-75792607D02*
X100342099Y-75792607D01*
X88833200Y-76340000D02*
X89765201Y-75407999D01*
X105373529Y-55614070D02*
X102757000Y-58230599D01*
X122665783Y-55614070D02*
X105373529Y-55614070D01*
X99946834Y-76340000D02*
X100308835Y-76702001D01*
X91373200Y-76340000D02*
X99946834Y-76340000D01*
X105297000Y-56789799D02*
X105297000Y-58230599D01*
X123418837Y-56184071D02*
X105902728Y-56184071D01*
X105902728Y-56184071D02*
X105297000Y-56789799D01*
X123519990Y-56285224D02*
X123418837Y-56184071D01*
X99287305Y-77947999D02*
X99550040Y-78210734D01*
X87225201Y-77947999D02*
X99287305Y-77947999D01*
X86293200Y-78880000D02*
X87225201Y-77947999D01*
X88833200Y-78880000D02*
X90093200Y-80140000D01*
X90093200Y-80140000D02*
X90120000Y-80140000D01*
X90120000Y-80140000D02*
X90330000Y-80350000D01*
X99170037Y-80350000D02*
X99550040Y-80730003D01*
X90330000Y-80350000D02*
X99170037Y-80350000D01*
X88833200Y-78880000D02*
X87763200Y-79950000D01*
X85171392Y-79950000D02*
X82501392Y-77280000D01*
X87763200Y-79950000D02*
X85171392Y-79950000D01*
X82501392Y-77280000D02*
X67514718Y-77280000D01*
X66562091Y-77280000D02*
X51206974Y-61924883D01*
X67514718Y-77280000D02*
X66562091Y-77280000D01*
X91373200Y-78880000D02*
X92305201Y-79812001D01*
X99542041Y-79812001D02*
X99550040Y-79820000D01*
X92305201Y-79812001D02*
X99542041Y-79812001D01*
X126210000Y-60740000D02*
X117127417Y-60740000D01*
X117127417Y-60740000D02*
X117118437Y-60731020D01*
X95137000Y-59671399D02*
X95137000Y-58230599D01*
X96196621Y-60731020D02*
X95137000Y-59671399D01*
X117118437Y-60731020D02*
X96196621Y-60731020D01*
D22*
X84322200Y-79449000D02*
X76151199Y-79449000D01*
X86293200Y-81420000D02*
X84322200Y-79449000D01*
X76151199Y-84250000D02*
X83310000Y-84250000D01*
X83310000Y-84250000D02*
X85030000Y-82530000D01*
X90263200Y-82530000D02*
X91373200Y-81420000D01*
X85030000Y-82530000D02*
X90263200Y-82530000D01*
D21*
X98506611Y-60501010D02*
X97677000Y-59671399D01*
X125270010Y-60509990D02*
X117222690Y-60509990D01*
X97677000Y-59671399D02*
X97677000Y-58230599D01*
X117213710Y-60501010D02*
X98506611Y-60501010D01*
X125462975Y-60317025D02*
X125270010Y-60509990D01*
X117222690Y-60509990D02*
X117213710Y-60501010D01*
X125462975Y-60170000D02*
X125462975Y-60317025D01*
X124584495Y-59932565D02*
X124018810Y-59932565D01*
X117308983Y-60271000D02*
X100816601Y-60271000D01*
X100217000Y-59671399D02*
X100217000Y-58230599D01*
X117317963Y-60279980D02*
X117308983Y-60271000D01*
X100816601Y-60271000D02*
X100217000Y-59671399D01*
X123671395Y-60279980D02*
X117317963Y-60279980D01*
X124018810Y-59932565D02*
X123671395Y-60279980D01*
X86293200Y-83960000D02*
X84763200Y-85490000D01*
X67840000Y-85490000D02*
X67800000Y-85530000D01*
X84763200Y-85490000D02*
X67840000Y-85490000D01*
X62080000Y-58267599D02*
X62117000Y-58230599D01*
X62080000Y-67960000D02*
X62080000Y-58267599D01*
X92597000Y-58230599D02*
X92597000Y-58890999D01*
X89516556Y-61971443D02*
X87991009Y-61971443D01*
X92597000Y-58890999D02*
X89516556Y-61971443D01*
X56470000Y-52800000D02*
X56510000Y-52840000D01*
X56470000Y-50038000D02*
X56470000Y-52800000D01*
X88833200Y-89040000D02*
X87453200Y-87660000D01*
X87428979Y-87635779D02*
X83045779Y-87635779D01*
X87453200Y-87660000D02*
X87428979Y-87635779D01*
X67092458Y-86100001D02*
X67083621Y-86091164D01*
X81510001Y-86100001D02*
X67092458Y-86100001D01*
X83045779Y-87635779D02*
X81510001Y-86100001D01*
X59577000Y-66387000D02*
X59577000Y-58230599D01*
X61150000Y-67960000D02*
X59577000Y-66387000D01*
X61550000Y-42418000D02*
X61550000Y-45060010D01*
X61550000Y-45060010D02*
X60450010Y-46160000D01*
X60450010Y-52023908D02*
X61242986Y-52816884D01*
X60450010Y-46160000D02*
X60450010Y-52023908D01*
X59010000Y-42418000D02*
X59010000Y-44830010D01*
X59010000Y-44830010D02*
X57980010Y-45860000D01*
X57980010Y-52383908D02*
X58478590Y-52882488D01*
X57980010Y-45860000D02*
X57980010Y-52383908D01*
X82965601Y-46720000D02*
X87540000Y-51294399D01*
X82435601Y-46190000D02*
X82965601Y-46720000D01*
X75280000Y-46190000D02*
X82435601Y-46190000D01*
D22*
X74817000Y-59703799D02*
X74817000Y-58230599D01*
X70002400Y-65000000D02*
X74817000Y-60185400D01*
X74817000Y-60185400D02*
X74817000Y-59703799D01*
X69000000Y-65000000D02*
X70002400Y-65000000D01*
X70320000Y-66220000D02*
X76000000Y-66220000D01*
X69000000Y-67540000D02*
X70320000Y-66220000D01*
X89932718Y-51562999D02*
X89932718Y-50610599D01*
X89615118Y-51880599D02*
X89932718Y-51562999D01*
X80000000Y-51880599D02*
X89615118Y-51880599D01*
D21*
X104668006Y-38722405D02*
X114065560Y-38722405D01*
X102757000Y-36811399D02*
X104668006Y-38722405D01*
X102757000Y-35370599D02*
X102757000Y-36811399D01*
X95430000Y-65156800D02*
X93913200Y-63640000D01*
X95430000Y-66536162D02*
X95430000Y-65156800D01*
X107891445Y-80042011D02*
X97601179Y-69751745D01*
X96183838Y-67290000D02*
X95430000Y-66536162D01*
X120162011Y-80042011D02*
X107891445Y-80042011D01*
X97160000Y-67290000D02*
X96183838Y-67290000D01*
X97601179Y-67731179D02*
X97160000Y-67290000D01*
X125390000Y-82160000D02*
X124540001Y-81310001D01*
X121110000Y-80990000D02*
X120162011Y-80042011D01*
X97601179Y-69751745D02*
X97601179Y-67731179D01*
X124530001Y-81310001D02*
X124210000Y-80990000D01*
X124210000Y-80990000D02*
X121110000Y-80990000D01*
X124540001Y-81310001D02*
X124530001Y-81310001D01*
X117372563Y-75560001D02*
X116544563Y-74732001D01*
X123870001Y-75560001D02*
X117372563Y-75560001D01*
X125390000Y-77080000D02*
X123870001Y-75560001D01*
X97215199Y-64401999D02*
X97221999Y-64401999D01*
X96453200Y-63640000D02*
X97215199Y-64401999D01*
X97221999Y-64401999D02*
X98061199Y-65241199D01*
X98061199Y-65241199D02*
X98061199Y-69561199D01*
X103232001Y-74732001D02*
X116544563Y-74732001D01*
X98061199Y-69561199D02*
X103232001Y-74732001D01*
X109684315Y-61301020D02*
X109344325Y-60961030D01*
X110250000Y-61301020D02*
X109684315Y-61301020D01*
X96046038Y-60961030D02*
X96045008Y-60960000D01*
X109344325Y-60961030D02*
X96046038Y-60961030D01*
X91513200Y-60960000D02*
X88833200Y-63640000D01*
X96045008Y-60960000D02*
X91513200Y-60960000D01*
X122130000Y-88490000D02*
X124100000Y-88490000D01*
X92981199Y-65247999D02*
X92981199Y-66627361D01*
X118810000Y-85170000D02*
X122130000Y-88490000D01*
X97913608Y-71040020D02*
X112043588Y-85170000D01*
X124100000Y-88490000D02*
X125390000Y-89780000D01*
X97045024Y-71040020D02*
X97913608Y-71040020D01*
X94300000Y-67330000D02*
X94949990Y-67979990D01*
X93683838Y-67330000D02*
X94300000Y-67330000D01*
X94949990Y-67979990D02*
X94949991Y-68944985D01*
X112043588Y-85170000D02*
X118810000Y-85170000D01*
X92981199Y-66627361D02*
X93683838Y-67330000D01*
X94949991Y-68944985D02*
X97045024Y-71040020D01*
X91373200Y-63640000D02*
X92981199Y-65247999D01*
X101102170Y-61531030D02*
X98993200Y-63640000D01*
X102670000Y-61531030D02*
X101102170Y-61531030D01*
X95386799Y-33680000D02*
X109020000Y-33680000D01*
X95137000Y-33929799D02*
X95386799Y-33680000D01*
X95137000Y-35370599D02*
X95137000Y-33929799D01*
X106505601Y-38020000D02*
X113487000Y-38020000D01*
X105297000Y-36811399D02*
X106505601Y-38020000D01*
X105297000Y-35370599D02*
X105297000Y-36811399D01*
X124130000Y-85980000D02*
X125390000Y-87240000D01*
X121890000Y-85980000D02*
X124130000Y-85980000D01*
X121890000Y-85157438D02*
X121890000Y-85980000D01*
X119122562Y-82390000D02*
X121890000Y-85157438D01*
X109588870Y-82390000D02*
X119122562Y-82390000D01*
X97140297Y-70810010D02*
X98008880Y-70810010D01*
X93913200Y-66180000D02*
X95180000Y-67446800D01*
X95180000Y-68849712D02*
X97140297Y-70810010D01*
X95180000Y-67446800D02*
X95180000Y-68849712D01*
X98008880Y-70810010D02*
X109588870Y-82390000D01*
X122360399Y-78599999D02*
X124369999Y-78599999D01*
X121148397Y-79812001D02*
X122360399Y-78599999D01*
X107986718Y-79812001D02*
X121148397Y-79812001D01*
X97831189Y-69656472D02*
X107986718Y-79812001D01*
X124369999Y-78599999D02*
X125390000Y-79620000D01*
X97831189Y-66480359D02*
X97831189Y-69656472D01*
X97530830Y-66180000D02*
X97831189Y-66480359D01*
X96453200Y-66180000D02*
X97530830Y-66180000D01*
X99755199Y-65418001D02*
X98993200Y-66180000D01*
X99925201Y-65247999D02*
X99755199Y-65418001D01*
X119840080Y-65247999D02*
X99925201Y-65247999D01*
X125390000Y-70797919D02*
X119840080Y-65247999D01*
X125390000Y-72000000D02*
X125390000Y-70797919D01*
X101105601Y-40240000D02*
X108329899Y-40240000D01*
X97677000Y-36811399D02*
X101105601Y-40240000D01*
X97677000Y-35370599D02*
X97677000Y-36811399D01*
X107661435Y-80137283D02*
X98104152Y-70580000D01*
X107796172Y-80272021D02*
X107661435Y-80137283D01*
X98104152Y-70580000D02*
X97235570Y-70580000D01*
X118882021Y-80272021D02*
X107796172Y-80272021D01*
X124140000Y-83460000D02*
X122070000Y-83460000D01*
X97235570Y-70580000D02*
X96453200Y-69797630D01*
X124530001Y-83850001D02*
X124140000Y-83460000D01*
X96453200Y-69797630D02*
X96453200Y-68720000D01*
X125390000Y-84700000D02*
X124540001Y-83850001D01*
X124540001Y-83850001D02*
X124530001Y-83850001D01*
X122070000Y-83460000D02*
X118882021Y-80272021D01*
X124369999Y-73519999D02*
X124369999Y-71259999D01*
X125390000Y-74540000D02*
X124369999Y-73519999D01*
X99925201Y-67787999D02*
X99755199Y-67958001D01*
X120897999Y-67787999D02*
X99925201Y-67787999D01*
X99755199Y-67958001D02*
X98993200Y-68720000D01*
X124369999Y-71259999D02*
X120897999Y-67787999D01*
X92214032Y-53565968D02*
X91870110Y-53909890D01*
X92352206Y-53565968D02*
X92214032Y-53565968D01*
X91870110Y-53909890D02*
X89870000Y-53909890D01*
X89870000Y-53909890D02*
X89660546Y-53909890D01*
X87110110Y-53909890D02*
X56199890Y-53909890D01*
X89660546Y-53909890D02*
X87110110Y-53909890D01*
X87110110Y-53909890D02*
X86990000Y-53909890D01*
X56199890Y-53909890D02*
X55150000Y-52860000D01*
X54497000Y-36811399D02*
X54497000Y-35370599D01*
X55150000Y-37464399D02*
X54497000Y-36811399D01*
X55150000Y-52860000D02*
X55150000Y-37464399D01*
X44337000Y-36811399D02*
X44337000Y-35370599D01*
X44990000Y-37464399D02*
X44337000Y-36811399D01*
X46219930Y-54829930D02*
X44990000Y-53600000D01*
X44990000Y-53600000D02*
X44990000Y-37464399D01*
X95630070Y-54829930D02*
X46219930Y-54829930D01*
X95970060Y-54489940D02*
X95630070Y-54829930D01*
X95985186Y-54489940D02*
X95970060Y-54489940D01*
X89613119Y-52849880D02*
X89243139Y-53219860D01*
X89243139Y-53219860D02*
X63219860Y-53219860D01*
X63219860Y-53219860D02*
X62790000Y-52790000D01*
X62117000Y-36811399D02*
X62117000Y-35370599D01*
X62790000Y-37484399D02*
X62117000Y-36811399D01*
X62790000Y-52790000D02*
X62790000Y-37484399D01*
X41797000Y-56789799D02*
X41797000Y-58230599D01*
X98703421Y-55749970D02*
X42836829Y-55749970D01*
X42836829Y-55749970D02*
X41797000Y-56789799D01*
X99627805Y-54825586D02*
X98703421Y-55749970D01*
X95092580Y-54322580D02*
X94815240Y-54599920D01*
X95092580Y-54259930D02*
X95092580Y-54322580D01*
X94815240Y-54599920D02*
X93120000Y-54599920D01*
X93120000Y-54599920D02*
X92746911Y-54599920D01*
X92746911Y-54599920D02*
X89340000Y-54599920D01*
X89340000Y-54599920D02*
X88696911Y-54599920D01*
X86970080Y-54599920D02*
X48789920Y-54599920D01*
X88696911Y-54599920D02*
X86970080Y-54599920D01*
X86970080Y-54599920D02*
X86850000Y-54599920D01*
X48789920Y-54599920D02*
X47470000Y-53280000D01*
X46877000Y-36811399D02*
X46877000Y-35370599D01*
X47470000Y-37404399D02*
X46877000Y-36811399D01*
X47470000Y-53280000D02*
X47470000Y-37404399D01*
X39257000Y-53817000D02*
X39257000Y-35370599D01*
X40729950Y-55289950D02*
X39257000Y-53817000D01*
X97390050Y-55289950D02*
X40729950Y-55289950D01*
X97730040Y-54949960D02*
X97390050Y-55289950D01*
X97802986Y-54949960D02*
X97730040Y-54949960D01*
D22*
X49417000Y-58230599D02*
X49417000Y-57570199D01*
D21*
X49417000Y-56789799D02*
X49417000Y-58230599D01*
X49766799Y-56440000D02*
X49417000Y-56789799D01*
X101930000Y-56440000D02*
X49766799Y-56440000D01*
X59577000Y-36811399D02*
X59577000Y-35370599D01*
X60220000Y-37454399D02*
X59577000Y-36811399D01*
X90530861Y-53109880D02*
X90320120Y-53109880D01*
X61069870Y-53449870D02*
X60220000Y-52600000D01*
X89980130Y-53449870D02*
X61069870Y-53449870D01*
X90320120Y-53109880D02*
X89980130Y-53449870D01*
X60220000Y-52600000D02*
X60220000Y-37454399D01*
X51957000Y-36811399D02*
X51957000Y-35370599D01*
X93231623Y-53799910D02*
X93020090Y-53799910D01*
X52670000Y-52880000D02*
X52670000Y-37524399D01*
X52670000Y-37524399D02*
X51957000Y-36811399D01*
X53929900Y-54139900D02*
X52670000Y-52880000D01*
X92680100Y-54139900D02*
X53929900Y-54139900D01*
X93020090Y-53799910D02*
X92680100Y-54139900D01*
X44337000Y-56789799D02*
X44337000Y-58230599D01*
X100385430Y-55329677D02*
X99985431Y-55729676D01*
X45146819Y-55979980D02*
X44337000Y-56789799D01*
X99960324Y-55729676D02*
X99710020Y-55979980D01*
X99985431Y-55729676D02*
X99960324Y-55729676D01*
X99710020Y-55979980D02*
X45146819Y-55979980D01*
X88694576Y-52879870D02*
X88694576Y-52894576D01*
X64657000Y-36811399D02*
X64657000Y-35370599D01*
X65719850Y-52989850D02*
X65390000Y-52660000D01*
X65390000Y-37544399D02*
X64657000Y-36811399D01*
X87778911Y-52989850D02*
X65719850Y-52989850D01*
X88148891Y-52619870D02*
X87778911Y-52989850D01*
X65390000Y-52660000D02*
X65390000Y-37544399D01*
X88714576Y-52619870D02*
X88148891Y-52619870D01*
X57037000Y-36811399D02*
X57037000Y-35370599D01*
X57750000Y-37524399D02*
X57037000Y-36811399D01*
X58469880Y-53679880D02*
X57750000Y-52960000D01*
X91230110Y-53339890D02*
X90890120Y-53679880D01*
X57750000Y-52960000D02*
X57750000Y-37524399D01*
X90890120Y-53679880D02*
X58469880Y-53679880D01*
X91423833Y-53339890D02*
X91230110Y-53339890D01*
X49417000Y-36811399D02*
X49417000Y-35370599D01*
X93660090Y-54369910D02*
X51489910Y-54369910D01*
X51489910Y-54369910D02*
X50070000Y-52950000D01*
X94000080Y-54029920D02*
X93660090Y-54369910D01*
X50070000Y-52950000D02*
X50070000Y-37464399D01*
X50070000Y-37464399D02*
X49417000Y-36811399D01*
X94182577Y-54029920D02*
X94000080Y-54029920D01*
X43049940Y-55059940D02*
X41797000Y-53807000D01*
X96510060Y-55059940D02*
X43049940Y-55059940D01*
X41797000Y-53807000D02*
X41797000Y-35370599D01*
X96850050Y-54719950D02*
X96510060Y-55059940D01*
X96895189Y-54719950D02*
X96850050Y-54719950D01*
X40526839Y-55519960D02*
X39257000Y-56789799D01*
X98127328Y-55519960D02*
X40526839Y-55519960D01*
X39257000Y-56789799D02*
X39257000Y-58230599D01*
X98712855Y-54934433D02*
X98127328Y-55519960D01*
X46877000Y-56789799D02*
X46877000Y-58230599D01*
X47456809Y-56209990D02*
X46877000Y-56789799D01*
X100226967Y-56209990D02*
X47456809Y-56209990D01*
X100566957Y-55870000D02*
X100226967Y-56209990D01*
X101132642Y-55870000D02*
X100566957Y-55870000D01*
M02*
