G04 #@! TF.GenerationSoftware,KiCad,Pcbnew,(5.1.5-0-10_14)*
G04 #@! TF.CreationDate,2020-05-23T17:47:01+01:00*
G04 #@! TF.ProjectId,v9958video,76393935-3876-4696-9465-6f2e6b696361,rev?*
G04 #@! TF.SameCoordinates,Original*
G04 #@! TF.FileFunction,Legend,Top*
G04 #@! TF.FilePolarity,Positive*
%FSLAX46Y46*%
G04 Gerber Fmt 4.6, Leading zero omitted, Abs format (unit mm)*
G04 Created by KiCad (PCBNEW (5.1.5-0-10_14)) date 2020-05-23 17:47:01*
%MOMM*%
%LPD*%
G04 APERTURE LIST*
%ADD10C,0.150000*%
%ADD11C,0.300000*%
%ADD12C,0.120000*%
%ADD13C,0.152400*%
%ADD14C,0.100000*%
%ADD15C,0.406400*%
%ADD16C,0.120650*%
G04 APERTURE END LIST*
D10*
X143700476Y-113997619D02*
X144033809Y-114473809D01*
X144271904Y-113997619D02*
X144271904Y-114997619D01*
X143890952Y-114997619D01*
X143795714Y-114950000D01*
X143748095Y-114902380D01*
X143700476Y-114807142D01*
X143700476Y-114664285D01*
X143748095Y-114569047D01*
X143795714Y-114521428D01*
X143890952Y-114473809D01*
X144271904Y-114473809D01*
X142890952Y-114045238D02*
X142986190Y-113997619D01*
X143176666Y-113997619D01*
X143271904Y-114045238D01*
X143319523Y-114140476D01*
X143319523Y-114521428D01*
X143271904Y-114616666D01*
X143176666Y-114664285D01*
X142986190Y-114664285D01*
X142890952Y-114616666D01*
X142843333Y-114521428D01*
X142843333Y-114426190D01*
X143319523Y-114330952D01*
X142510000Y-114664285D02*
X142271904Y-113997619D01*
X142033809Y-114664285D01*
X141652857Y-113997619D02*
X141652857Y-114664285D01*
X141652857Y-114997619D02*
X141700476Y-114950000D01*
X141652857Y-114902380D01*
X141605238Y-114950000D01*
X141652857Y-114997619D01*
X141652857Y-114902380D01*
X141224285Y-114045238D02*
X141129047Y-113997619D01*
X140938571Y-113997619D01*
X140843333Y-114045238D01*
X140795714Y-114140476D01*
X140795714Y-114188095D01*
X140843333Y-114283333D01*
X140938571Y-114330952D01*
X141081428Y-114330952D01*
X141176666Y-114378571D01*
X141224285Y-114473809D01*
X141224285Y-114521428D01*
X141176666Y-114616666D01*
X141081428Y-114664285D01*
X140938571Y-114664285D01*
X140843333Y-114616666D01*
X140367142Y-113997619D02*
X140367142Y-114664285D01*
X140367142Y-114997619D02*
X140414761Y-114950000D01*
X140367142Y-114902380D01*
X140319523Y-114950000D01*
X140367142Y-114997619D01*
X140367142Y-114902380D01*
X139748095Y-113997619D02*
X139843333Y-114045238D01*
X139890952Y-114092857D01*
X139938571Y-114188095D01*
X139938571Y-114473809D01*
X139890952Y-114569047D01*
X139843333Y-114616666D01*
X139748095Y-114664285D01*
X139605238Y-114664285D01*
X139510000Y-114616666D01*
X139462380Y-114569047D01*
X139414761Y-114473809D01*
X139414761Y-114188095D01*
X139462380Y-114092857D01*
X139510000Y-114045238D01*
X139605238Y-113997619D01*
X139748095Y-113997619D01*
X138986190Y-114664285D02*
X138986190Y-113997619D01*
X138986190Y-114569047D02*
X138938571Y-114616666D01*
X138843333Y-114664285D01*
X138700476Y-114664285D01*
X138605238Y-114616666D01*
X138557619Y-114521428D01*
X138557619Y-113997619D01*
X136795714Y-113997619D02*
X137367142Y-113997619D01*
X137081428Y-113997619D02*
X137081428Y-114997619D01*
X137176666Y-114854761D01*
X137271904Y-114759523D01*
X137367142Y-114711904D01*
X135319523Y-113616666D02*
X135367142Y-113664285D01*
X135462380Y-113807142D01*
X135510000Y-113902380D01*
X135557619Y-114045238D01*
X135605238Y-114283333D01*
X135605238Y-114473809D01*
X135557619Y-114711904D01*
X135510000Y-114854761D01*
X135462380Y-114950000D01*
X135367142Y-115092857D01*
X135319523Y-115140476D01*
X134652857Y-114997619D02*
X134652857Y-114283333D01*
X134700476Y-114140476D01*
X134795714Y-114045238D01*
X134938571Y-113997619D01*
X135033809Y-113997619D01*
X133748095Y-114664285D02*
X133748095Y-113997619D01*
X134176666Y-114664285D02*
X134176666Y-114140476D01*
X134129047Y-114045238D01*
X134033809Y-113997619D01*
X133890952Y-113997619D01*
X133795714Y-114045238D01*
X133748095Y-114092857D01*
X133271904Y-114664285D02*
X133271904Y-113997619D01*
X133271904Y-114569047D02*
X133224285Y-114616666D01*
X133129047Y-114664285D01*
X132986190Y-114664285D01*
X132890952Y-114616666D01*
X132843333Y-114521428D01*
X132843333Y-113997619D01*
X131986190Y-114045238D02*
X132081428Y-113997619D01*
X132271904Y-113997619D01*
X132367142Y-114045238D01*
X132414761Y-114140476D01*
X132414761Y-114521428D01*
X132367142Y-114616666D01*
X132271904Y-114664285D01*
X132081428Y-114664285D01*
X131986190Y-114616666D01*
X131938571Y-114521428D01*
X131938571Y-114426190D01*
X132414761Y-114330952D01*
X130795714Y-114902380D02*
X130748095Y-114950000D01*
X130652857Y-114997619D01*
X130414761Y-114997619D01*
X130319523Y-114950000D01*
X130271904Y-114902380D01*
X130224285Y-114807142D01*
X130224285Y-114711904D01*
X130271904Y-114569047D01*
X130843333Y-113997619D01*
X130224285Y-113997619D01*
X129605238Y-114997619D02*
X129510000Y-114997619D01*
X129414761Y-114950000D01*
X129367142Y-114902380D01*
X129319523Y-114807142D01*
X129271904Y-114616666D01*
X129271904Y-114378571D01*
X129319523Y-114188095D01*
X129367142Y-114092857D01*
X129414761Y-114045238D01*
X129510000Y-113997619D01*
X129605238Y-113997619D01*
X129700476Y-114045238D01*
X129748095Y-114092857D01*
X129795714Y-114188095D01*
X129843333Y-114378571D01*
X129843333Y-114616666D01*
X129795714Y-114807142D01*
X129748095Y-114902380D01*
X129700476Y-114950000D01*
X129605238Y-114997619D01*
X128890952Y-114902380D02*
X128843333Y-114950000D01*
X128748095Y-114997619D01*
X128510000Y-114997619D01*
X128414761Y-114950000D01*
X128367142Y-114902380D01*
X128319523Y-114807142D01*
X128319523Y-114711904D01*
X128367142Y-114569047D01*
X128938571Y-113997619D01*
X128319523Y-113997619D01*
X127700476Y-114997619D02*
X127605238Y-114997619D01*
X127510000Y-114950000D01*
X127462380Y-114902380D01*
X127414761Y-114807142D01*
X127367142Y-114616666D01*
X127367142Y-114378571D01*
X127414761Y-114188095D01*
X127462380Y-114092857D01*
X127510000Y-114045238D01*
X127605238Y-113997619D01*
X127700476Y-113997619D01*
X127795714Y-114045238D01*
X127843333Y-114092857D01*
X127890952Y-114188095D01*
X127938571Y-114378571D01*
X127938571Y-114616666D01*
X127890952Y-114807142D01*
X127843333Y-114902380D01*
X127795714Y-114950000D01*
X127700476Y-114997619D01*
X127033809Y-113616666D02*
X126986190Y-113664285D01*
X126890952Y-113807142D01*
X126843333Y-113902380D01*
X126795714Y-114045238D01*
X126748095Y-114283333D01*
X126748095Y-114473809D01*
X126795714Y-114711904D01*
X126843333Y-114854761D01*
X126890952Y-114950000D01*
X126986190Y-115092857D01*
X127033809Y-115140476D01*
D11*
X150488571Y-117731428D02*
X149988571Y-116231428D01*
X149488571Y-117731428D01*
X148917142Y-116231428D02*
X148631428Y-116231428D01*
X148488571Y-116302857D01*
X148417142Y-116374285D01*
X148274285Y-116588571D01*
X148202857Y-116874285D01*
X148202857Y-117445714D01*
X148274285Y-117588571D01*
X148345714Y-117660000D01*
X148488571Y-117731428D01*
X148774285Y-117731428D01*
X148917142Y-117660000D01*
X148988571Y-117588571D01*
X149060000Y-117445714D01*
X149060000Y-117088571D01*
X148988571Y-116945714D01*
X148917142Y-116874285D01*
X148774285Y-116802857D01*
X148488571Y-116802857D01*
X148345714Y-116874285D01*
X148274285Y-116945714D01*
X148202857Y-117088571D01*
X147488571Y-116231428D02*
X147202857Y-116231428D01*
X147060000Y-116302857D01*
X146988571Y-116374285D01*
X146845714Y-116588571D01*
X146774285Y-116874285D01*
X146774285Y-117445714D01*
X146845714Y-117588571D01*
X146917142Y-117660000D01*
X147060000Y-117731428D01*
X147345714Y-117731428D01*
X147488571Y-117660000D01*
X147560000Y-117588571D01*
X147631428Y-117445714D01*
X147631428Y-117088571D01*
X147560000Y-116945714D01*
X147488571Y-116874285D01*
X147345714Y-116802857D01*
X147060000Y-116802857D01*
X146917142Y-116874285D01*
X146845714Y-116945714D01*
X146774285Y-117088571D01*
X145417142Y-117731428D02*
X146131428Y-117731428D01*
X146202857Y-117017142D01*
X146131428Y-117088571D01*
X145988571Y-117160000D01*
X145631428Y-117160000D01*
X145488571Y-117088571D01*
X145417142Y-117017142D01*
X145345714Y-116874285D01*
X145345714Y-116517142D01*
X145417142Y-116374285D01*
X145488571Y-116302857D01*
X145631428Y-116231428D01*
X145988571Y-116231428D01*
X146131428Y-116302857D01*
X146202857Y-116374285D01*
X144488571Y-117088571D02*
X144631428Y-117160000D01*
X144702857Y-117231428D01*
X144774285Y-117374285D01*
X144774285Y-117445714D01*
X144702857Y-117588571D01*
X144631428Y-117660000D01*
X144488571Y-117731428D01*
X144202857Y-117731428D01*
X144060000Y-117660000D01*
X143988571Y-117588571D01*
X143917142Y-117445714D01*
X143917142Y-117374285D01*
X143988571Y-117231428D01*
X144060000Y-117160000D01*
X144202857Y-117088571D01*
X144488571Y-117088571D01*
X144631428Y-117017142D01*
X144702857Y-116945714D01*
X144774285Y-116802857D01*
X144774285Y-116517142D01*
X144702857Y-116374285D01*
X144631428Y-116302857D01*
X144488571Y-116231428D01*
X144202857Y-116231428D01*
X144060000Y-116302857D01*
X143988571Y-116374285D01*
X143917142Y-116517142D01*
X143917142Y-116802857D01*
X143988571Y-116945714D01*
X144060000Y-117017142D01*
X144202857Y-117088571D01*
X142345714Y-117731428D02*
X141845714Y-116231428D01*
X141345714Y-117731428D01*
X140845714Y-116231428D02*
X140845714Y-117231428D01*
X140845714Y-117731428D02*
X140917142Y-117660000D01*
X140845714Y-117588571D01*
X140774285Y-117660000D01*
X140845714Y-117731428D01*
X140845714Y-117588571D01*
X139488571Y-116231428D02*
X139488571Y-117731428D01*
X139488571Y-116302857D02*
X139631428Y-116231428D01*
X139917142Y-116231428D01*
X140060000Y-116302857D01*
X140131428Y-116374285D01*
X140202857Y-116517142D01*
X140202857Y-116945714D01*
X140131428Y-117088571D01*
X140060000Y-117160000D01*
X139917142Y-117231428D01*
X139631428Y-117231428D01*
X139488571Y-117160000D01*
X138202857Y-116302857D02*
X138345714Y-116231428D01*
X138631428Y-116231428D01*
X138774285Y-116302857D01*
X138845714Y-116445714D01*
X138845714Y-117017142D01*
X138774285Y-117160000D01*
X138631428Y-117231428D01*
X138345714Y-117231428D01*
X138202857Y-117160000D01*
X138131428Y-117017142D01*
X138131428Y-116874285D01*
X138845714Y-116731428D01*
X137274285Y-116231428D02*
X137417142Y-116302857D01*
X137488571Y-116374285D01*
X137560000Y-116517142D01*
X137560000Y-116945714D01*
X137488571Y-117088571D01*
X137417142Y-117160000D01*
X137274285Y-117231428D01*
X137060000Y-117231428D01*
X136917142Y-117160000D01*
X136845714Y-117088571D01*
X136774285Y-116945714D01*
X136774285Y-116517142D01*
X136845714Y-116374285D01*
X136917142Y-116302857D01*
X137060000Y-116231428D01*
X137274285Y-116231428D01*
X134988571Y-116231428D02*
X134988571Y-117731428D01*
X134631428Y-117731428D01*
X134417142Y-117660000D01*
X134274285Y-117517142D01*
X134202857Y-117374285D01*
X134131428Y-117088571D01*
X134131428Y-116874285D01*
X134202857Y-116588571D01*
X134274285Y-116445714D01*
X134417142Y-116302857D01*
X134631428Y-116231428D01*
X134988571Y-116231428D01*
X133488571Y-116231428D02*
X133488571Y-117231428D01*
X133488571Y-117731428D02*
X133560000Y-117660000D01*
X133488571Y-117588571D01*
X133417142Y-117660000D01*
X133488571Y-117731428D01*
X133488571Y-117588571D01*
X132845714Y-116302857D02*
X132702857Y-116231428D01*
X132417142Y-116231428D01*
X132274285Y-116302857D01*
X132202857Y-116445714D01*
X132202857Y-116517142D01*
X132274285Y-116660000D01*
X132417142Y-116731428D01*
X132631428Y-116731428D01*
X132774285Y-116802857D01*
X132845714Y-116945714D01*
X132845714Y-117017142D01*
X132774285Y-117160000D01*
X132631428Y-117231428D01*
X132417142Y-117231428D01*
X132274285Y-117160000D01*
X131560000Y-117231428D02*
X131560000Y-115731428D01*
X131560000Y-117160000D02*
X131417142Y-117231428D01*
X131131428Y-117231428D01*
X130988571Y-117160000D01*
X130917142Y-117088571D01*
X130845714Y-116945714D01*
X130845714Y-116517142D01*
X130917142Y-116374285D01*
X130988571Y-116302857D01*
X131131428Y-116231428D01*
X131417142Y-116231428D01*
X131560000Y-116302857D01*
X129988571Y-116231428D02*
X130131428Y-116302857D01*
X130202857Y-116445714D01*
X130202857Y-117731428D01*
X128774285Y-116231428D02*
X128774285Y-117017142D01*
X128845714Y-117160000D01*
X128988571Y-117231428D01*
X129274285Y-117231428D01*
X129417142Y-117160000D01*
X128774285Y-116302857D02*
X128917142Y-116231428D01*
X129274285Y-116231428D01*
X129417142Y-116302857D01*
X129488571Y-116445714D01*
X129488571Y-116588571D01*
X129417142Y-116731428D01*
X129274285Y-116802857D01*
X128917142Y-116802857D01*
X128774285Y-116874285D01*
X128202857Y-117231428D02*
X127845714Y-116231428D01*
X127488571Y-117231428D02*
X127845714Y-116231428D01*
X127988571Y-115874285D01*
X128060000Y-115802857D01*
X128202857Y-115731428D01*
X125274285Y-117017142D02*
X125060000Y-116945714D01*
X124988571Y-116874285D01*
X124917142Y-116731428D01*
X124917142Y-116517142D01*
X124988571Y-116374285D01*
X125060000Y-116302857D01*
X125202857Y-116231428D01*
X125774285Y-116231428D01*
X125774285Y-117731428D01*
X125274285Y-117731428D01*
X125131428Y-117660000D01*
X125060000Y-117588571D01*
X124988571Y-117445714D01*
X124988571Y-117302857D01*
X125060000Y-117160000D01*
X125131428Y-117088571D01*
X125274285Y-117017142D01*
X125774285Y-117017142D01*
X124060000Y-116231428D02*
X124202857Y-116302857D01*
X124274285Y-116374285D01*
X124345714Y-116517142D01*
X124345714Y-116945714D01*
X124274285Y-117088571D01*
X124202857Y-117160000D01*
X124060000Y-117231428D01*
X123845714Y-117231428D01*
X123702857Y-117160000D01*
X123631428Y-117088571D01*
X123560000Y-116945714D01*
X123560000Y-116517142D01*
X123631428Y-116374285D01*
X123702857Y-116302857D01*
X123845714Y-116231428D01*
X124060000Y-116231428D01*
X122274285Y-116231428D02*
X122274285Y-117017142D01*
X122345714Y-117160000D01*
X122488571Y-117231428D01*
X122774285Y-117231428D01*
X122917142Y-117160000D01*
X122274285Y-116302857D02*
X122417142Y-116231428D01*
X122774285Y-116231428D01*
X122917142Y-116302857D01*
X122988571Y-116445714D01*
X122988571Y-116588571D01*
X122917142Y-116731428D01*
X122774285Y-116802857D01*
X122417142Y-116802857D01*
X122274285Y-116874285D01*
X121560000Y-116231428D02*
X121560000Y-117231428D01*
X121560000Y-116945714D02*
X121488571Y-117088571D01*
X121417142Y-117160000D01*
X121274285Y-117231428D01*
X121131428Y-117231428D01*
X119988571Y-116231428D02*
X119988571Y-117731428D01*
X119988571Y-116302857D02*
X120131428Y-116231428D01*
X120417142Y-116231428D01*
X120560000Y-116302857D01*
X120631428Y-116374285D01*
X120702857Y-116517142D01*
X120702857Y-116945714D01*
X120631428Y-117088571D01*
X120560000Y-117160000D01*
X120417142Y-117231428D01*
X120131428Y-117231428D01*
X119988571Y-117160000D01*
D12*
X113240000Y-90780000D02*
X115980000Y-90780000D01*
X113240000Y-98020000D02*
X115980000Y-98020000D01*
X115980000Y-98020000D02*
X115980000Y-90780000D01*
X113240000Y-98020000D02*
X113240000Y-90780000D01*
X112570000Y-61230000D02*
X115310000Y-61230000D01*
X112570000Y-68470000D02*
X115310000Y-68470000D01*
X115310000Y-68470000D02*
X115310000Y-61230000D01*
X112570000Y-68470000D02*
X112570000Y-61230000D01*
X112135225Y-109285000D02*
X112135225Y-109785000D01*
X111885225Y-109535000D02*
X112385225Y-109535000D01*
X117291000Y-110726000D02*
X117291000Y-111294000D01*
X117251000Y-110492000D02*
X117251000Y-111528000D01*
X117211000Y-110333000D02*
X117211000Y-111687000D01*
X117171000Y-110205000D02*
X117171000Y-111815000D01*
X117131000Y-110095000D02*
X117131000Y-111925000D01*
X117091000Y-109999000D02*
X117091000Y-112021000D01*
X117051000Y-109912000D02*
X117051000Y-112108000D01*
X117011000Y-109832000D02*
X117011000Y-112188000D01*
X116971000Y-112050000D02*
X116971000Y-112261000D01*
X116971000Y-109759000D02*
X116971000Y-109970000D01*
X116931000Y-112050000D02*
X116931000Y-112329000D01*
X116931000Y-109691000D02*
X116931000Y-109970000D01*
X116891000Y-112050000D02*
X116891000Y-112393000D01*
X116891000Y-109627000D02*
X116891000Y-109970000D01*
X116851000Y-112050000D02*
X116851000Y-112453000D01*
X116851000Y-109567000D02*
X116851000Y-109970000D01*
X116811000Y-112050000D02*
X116811000Y-112510000D01*
X116811000Y-109510000D02*
X116811000Y-109970000D01*
X116771000Y-112050000D02*
X116771000Y-112564000D01*
X116771000Y-109456000D02*
X116771000Y-109970000D01*
X116731000Y-112050000D02*
X116731000Y-112615000D01*
X116731000Y-109405000D02*
X116731000Y-109970000D01*
X116691000Y-112050000D02*
X116691000Y-112663000D01*
X116691000Y-109357000D02*
X116691000Y-109970000D01*
X116651000Y-112050000D02*
X116651000Y-112709000D01*
X116651000Y-109311000D02*
X116651000Y-109970000D01*
X116611000Y-112050000D02*
X116611000Y-112753000D01*
X116611000Y-109267000D02*
X116611000Y-109970000D01*
X116571000Y-112050000D02*
X116571000Y-112795000D01*
X116571000Y-109225000D02*
X116571000Y-109970000D01*
X116531000Y-112050000D02*
X116531000Y-112836000D01*
X116531000Y-109184000D02*
X116531000Y-109970000D01*
X116491000Y-112050000D02*
X116491000Y-112874000D01*
X116491000Y-109146000D02*
X116491000Y-109970000D01*
X116451000Y-112050000D02*
X116451000Y-112911000D01*
X116451000Y-109109000D02*
X116451000Y-109970000D01*
X116411000Y-112050000D02*
X116411000Y-112947000D01*
X116411000Y-109073000D02*
X116411000Y-109970000D01*
X116371000Y-112050000D02*
X116371000Y-112981000D01*
X116371000Y-109039000D02*
X116371000Y-109970000D01*
X116331000Y-112050000D02*
X116331000Y-113014000D01*
X116331000Y-109006000D02*
X116331000Y-109970000D01*
X116291000Y-112050000D02*
X116291000Y-113045000D01*
X116291000Y-108975000D02*
X116291000Y-109970000D01*
X116251000Y-112050000D02*
X116251000Y-113075000D01*
X116251000Y-108945000D02*
X116251000Y-109970000D01*
X116211000Y-112050000D02*
X116211000Y-113105000D01*
X116211000Y-108915000D02*
X116211000Y-109970000D01*
X116171000Y-112050000D02*
X116171000Y-113132000D01*
X116171000Y-108888000D02*
X116171000Y-109970000D01*
X116131000Y-112050000D02*
X116131000Y-113159000D01*
X116131000Y-108861000D02*
X116131000Y-109970000D01*
X116091000Y-112050000D02*
X116091000Y-113185000D01*
X116091000Y-108835000D02*
X116091000Y-109970000D01*
X116051000Y-112050000D02*
X116051000Y-113210000D01*
X116051000Y-108810000D02*
X116051000Y-109970000D01*
X116011000Y-112050000D02*
X116011000Y-113234000D01*
X116011000Y-108786000D02*
X116011000Y-109970000D01*
X115971000Y-112050000D02*
X115971000Y-113257000D01*
X115971000Y-108763000D02*
X115971000Y-109970000D01*
X115931000Y-112050000D02*
X115931000Y-113278000D01*
X115931000Y-108742000D02*
X115931000Y-109970000D01*
X115891000Y-112050000D02*
X115891000Y-113300000D01*
X115891000Y-108720000D02*
X115891000Y-109970000D01*
X115851000Y-112050000D02*
X115851000Y-113320000D01*
X115851000Y-108700000D02*
X115851000Y-109970000D01*
X115811000Y-112050000D02*
X115811000Y-113339000D01*
X115811000Y-108681000D02*
X115811000Y-109970000D01*
X115771000Y-112050000D02*
X115771000Y-113358000D01*
X115771000Y-108662000D02*
X115771000Y-109970000D01*
X115731000Y-112050000D02*
X115731000Y-113375000D01*
X115731000Y-108645000D02*
X115731000Y-109970000D01*
X115691000Y-112050000D02*
X115691000Y-113392000D01*
X115691000Y-108628000D02*
X115691000Y-109970000D01*
X115651000Y-112050000D02*
X115651000Y-113408000D01*
X115651000Y-108612000D02*
X115651000Y-109970000D01*
X115611000Y-112050000D02*
X115611000Y-113424000D01*
X115611000Y-108596000D02*
X115611000Y-109970000D01*
X115571000Y-112050000D02*
X115571000Y-113438000D01*
X115571000Y-108582000D02*
X115571000Y-109970000D01*
X115531000Y-112050000D02*
X115531000Y-113452000D01*
X115531000Y-108568000D02*
X115531000Y-109970000D01*
X115491000Y-112050000D02*
X115491000Y-113465000D01*
X115491000Y-108555000D02*
X115491000Y-109970000D01*
X115451000Y-112050000D02*
X115451000Y-113478000D01*
X115451000Y-108542000D02*
X115451000Y-109970000D01*
X115411000Y-112050000D02*
X115411000Y-113490000D01*
X115411000Y-108530000D02*
X115411000Y-109970000D01*
X115370000Y-112050000D02*
X115370000Y-113501000D01*
X115370000Y-108519000D02*
X115370000Y-109970000D01*
X115330000Y-112050000D02*
X115330000Y-113511000D01*
X115330000Y-108509000D02*
X115330000Y-109970000D01*
X115290000Y-112050000D02*
X115290000Y-113521000D01*
X115290000Y-108499000D02*
X115290000Y-109970000D01*
X115250000Y-112050000D02*
X115250000Y-113530000D01*
X115250000Y-108490000D02*
X115250000Y-109970000D01*
X115210000Y-112050000D02*
X115210000Y-113538000D01*
X115210000Y-108482000D02*
X115210000Y-109970000D01*
X115170000Y-112050000D02*
X115170000Y-113546000D01*
X115170000Y-108474000D02*
X115170000Y-109970000D01*
X115130000Y-112050000D02*
X115130000Y-113553000D01*
X115130000Y-108467000D02*
X115130000Y-109970000D01*
X115090000Y-112050000D02*
X115090000Y-113560000D01*
X115090000Y-108460000D02*
X115090000Y-109970000D01*
X115050000Y-112050000D02*
X115050000Y-113566000D01*
X115050000Y-108454000D02*
X115050000Y-109970000D01*
X115010000Y-112050000D02*
X115010000Y-113571000D01*
X115010000Y-108449000D02*
X115010000Y-109970000D01*
X114970000Y-112050000D02*
X114970000Y-113575000D01*
X114970000Y-108445000D02*
X114970000Y-109970000D01*
X114930000Y-112050000D02*
X114930000Y-113579000D01*
X114930000Y-108441000D02*
X114930000Y-109970000D01*
X114890000Y-108437000D02*
X114890000Y-113583000D01*
X114850000Y-108434000D02*
X114850000Y-113586000D01*
X114810000Y-108432000D02*
X114810000Y-113588000D01*
X114770000Y-108431000D02*
X114770000Y-113589000D01*
X114730000Y-108430000D02*
X114730000Y-113590000D01*
X114690000Y-108430000D02*
X114690000Y-113590000D01*
X117310000Y-111010000D02*
G75*
G03X117310000Y-111010000I-2620000J0D01*
G01*
X112135225Y-101425000D02*
X112135225Y-101925000D01*
X111885225Y-101675000D02*
X112385225Y-101675000D01*
X117291000Y-102866000D02*
X117291000Y-103434000D01*
X117251000Y-102632000D02*
X117251000Y-103668000D01*
X117211000Y-102473000D02*
X117211000Y-103827000D01*
X117171000Y-102345000D02*
X117171000Y-103955000D01*
X117131000Y-102235000D02*
X117131000Y-104065000D01*
X117091000Y-102139000D02*
X117091000Y-104161000D01*
X117051000Y-102052000D02*
X117051000Y-104248000D01*
X117011000Y-101972000D02*
X117011000Y-104328000D01*
X116971000Y-104190000D02*
X116971000Y-104401000D01*
X116971000Y-101899000D02*
X116971000Y-102110000D01*
X116931000Y-104190000D02*
X116931000Y-104469000D01*
X116931000Y-101831000D02*
X116931000Y-102110000D01*
X116891000Y-104190000D02*
X116891000Y-104533000D01*
X116891000Y-101767000D02*
X116891000Y-102110000D01*
X116851000Y-104190000D02*
X116851000Y-104593000D01*
X116851000Y-101707000D02*
X116851000Y-102110000D01*
X116811000Y-104190000D02*
X116811000Y-104650000D01*
X116811000Y-101650000D02*
X116811000Y-102110000D01*
X116771000Y-104190000D02*
X116771000Y-104704000D01*
X116771000Y-101596000D02*
X116771000Y-102110000D01*
X116731000Y-104190000D02*
X116731000Y-104755000D01*
X116731000Y-101545000D02*
X116731000Y-102110000D01*
X116691000Y-104190000D02*
X116691000Y-104803000D01*
X116691000Y-101497000D02*
X116691000Y-102110000D01*
X116651000Y-104190000D02*
X116651000Y-104849000D01*
X116651000Y-101451000D02*
X116651000Y-102110000D01*
X116611000Y-104190000D02*
X116611000Y-104893000D01*
X116611000Y-101407000D02*
X116611000Y-102110000D01*
X116571000Y-104190000D02*
X116571000Y-104935000D01*
X116571000Y-101365000D02*
X116571000Y-102110000D01*
X116531000Y-104190000D02*
X116531000Y-104976000D01*
X116531000Y-101324000D02*
X116531000Y-102110000D01*
X116491000Y-104190000D02*
X116491000Y-105014000D01*
X116491000Y-101286000D02*
X116491000Y-102110000D01*
X116451000Y-104190000D02*
X116451000Y-105051000D01*
X116451000Y-101249000D02*
X116451000Y-102110000D01*
X116411000Y-104190000D02*
X116411000Y-105087000D01*
X116411000Y-101213000D02*
X116411000Y-102110000D01*
X116371000Y-104190000D02*
X116371000Y-105121000D01*
X116371000Y-101179000D02*
X116371000Y-102110000D01*
X116331000Y-104190000D02*
X116331000Y-105154000D01*
X116331000Y-101146000D02*
X116331000Y-102110000D01*
X116291000Y-104190000D02*
X116291000Y-105185000D01*
X116291000Y-101115000D02*
X116291000Y-102110000D01*
X116251000Y-104190000D02*
X116251000Y-105215000D01*
X116251000Y-101085000D02*
X116251000Y-102110000D01*
X116211000Y-104190000D02*
X116211000Y-105245000D01*
X116211000Y-101055000D02*
X116211000Y-102110000D01*
X116171000Y-104190000D02*
X116171000Y-105272000D01*
X116171000Y-101028000D02*
X116171000Y-102110000D01*
X116131000Y-104190000D02*
X116131000Y-105299000D01*
X116131000Y-101001000D02*
X116131000Y-102110000D01*
X116091000Y-104190000D02*
X116091000Y-105325000D01*
X116091000Y-100975000D02*
X116091000Y-102110000D01*
X116051000Y-104190000D02*
X116051000Y-105350000D01*
X116051000Y-100950000D02*
X116051000Y-102110000D01*
X116011000Y-104190000D02*
X116011000Y-105374000D01*
X116011000Y-100926000D02*
X116011000Y-102110000D01*
X115971000Y-104190000D02*
X115971000Y-105397000D01*
X115971000Y-100903000D02*
X115971000Y-102110000D01*
X115931000Y-104190000D02*
X115931000Y-105418000D01*
X115931000Y-100882000D02*
X115931000Y-102110000D01*
X115891000Y-104190000D02*
X115891000Y-105440000D01*
X115891000Y-100860000D02*
X115891000Y-102110000D01*
X115851000Y-104190000D02*
X115851000Y-105460000D01*
X115851000Y-100840000D02*
X115851000Y-102110000D01*
X115811000Y-104190000D02*
X115811000Y-105479000D01*
X115811000Y-100821000D02*
X115811000Y-102110000D01*
X115771000Y-104190000D02*
X115771000Y-105498000D01*
X115771000Y-100802000D02*
X115771000Y-102110000D01*
X115731000Y-104190000D02*
X115731000Y-105515000D01*
X115731000Y-100785000D02*
X115731000Y-102110000D01*
X115691000Y-104190000D02*
X115691000Y-105532000D01*
X115691000Y-100768000D02*
X115691000Y-102110000D01*
X115651000Y-104190000D02*
X115651000Y-105548000D01*
X115651000Y-100752000D02*
X115651000Y-102110000D01*
X115611000Y-104190000D02*
X115611000Y-105564000D01*
X115611000Y-100736000D02*
X115611000Y-102110000D01*
X115571000Y-104190000D02*
X115571000Y-105578000D01*
X115571000Y-100722000D02*
X115571000Y-102110000D01*
X115531000Y-104190000D02*
X115531000Y-105592000D01*
X115531000Y-100708000D02*
X115531000Y-102110000D01*
X115491000Y-104190000D02*
X115491000Y-105605000D01*
X115491000Y-100695000D02*
X115491000Y-102110000D01*
X115451000Y-104190000D02*
X115451000Y-105618000D01*
X115451000Y-100682000D02*
X115451000Y-102110000D01*
X115411000Y-104190000D02*
X115411000Y-105630000D01*
X115411000Y-100670000D02*
X115411000Y-102110000D01*
X115370000Y-104190000D02*
X115370000Y-105641000D01*
X115370000Y-100659000D02*
X115370000Y-102110000D01*
X115330000Y-104190000D02*
X115330000Y-105651000D01*
X115330000Y-100649000D02*
X115330000Y-102110000D01*
X115290000Y-104190000D02*
X115290000Y-105661000D01*
X115290000Y-100639000D02*
X115290000Y-102110000D01*
X115250000Y-104190000D02*
X115250000Y-105670000D01*
X115250000Y-100630000D02*
X115250000Y-102110000D01*
X115210000Y-104190000D02*
X115210000Y-105678000D01*
X115210000Y-100622000D02*
X115210000Y-102110000D01*
X115170000Y-104190000D02*
X115170000Y-105686000D01*
X115170000Y-100614000D02*
X115170000Y-102110000D01*
X115130000Y-104190000D02*
X115130000Y-105693000D01*
X115130000Y-100607000D02*
X115130000Y-102110000D01*
X115090000Y-104190000D02*
X115090000Y-105700000D01*
X115090000Y-100600000D02*
X115090000Y-102110000D01*
X115050000Y-104190000D02*
X115050000Y-105706000D01*
X115050000Y-100594000D02*
X115050000Y-102110000D01*
X115010000Y-104190000D02*
X115010000Y-105711000D01*
X115010000Y-100589000D02*
X115010000Y-102110000D01*
X114970000Y-104190000D02*
X114970000Y-105715000D01*
X114970000Y-100585000D02*
X114970000Y-102110000D01*
X114930000Y-104190000D02*
X114930000Y-105719000D01*
X114930000Y-100581000D02*
X114930000Y-102110000D01*
X114890000Y-100577000D02*
X114890000Y-105723000D01*
X114850000Y-100574000D02*
X114850000Y-105726000D01*
X114810000Y-100572000D02*
X114810000Y-105728000D01*
X114770000Y-100571000D02*
X114770000Y-105729000D01*
X114730000Y-100570000D02*
X114730000Y-105730000D01*
X114690000Y-100570000D02*
X114690000Y-105730000D01*
X117310000Y-103150000D02*
G75*
G03X117310000Y-103150000I-2620000J0D01*
G01*
X120064759Y-54596000D02*
X120064759Y-55226000D01*
X119749759Y-54911000D02*
X120379759Y-54911000D01*
X126491000Y-56348000D02*
X126491000Y-57152000D01*
X126451000Y-56117000D02*
X126451000Y-57383000D01*
X126411000Y-55948000D02*
X126411000Y-57552000D01*
X126371000Y-55810000D02*
X126371000Y-57690000D01*
X126331000Y-55691000D02*
X126331000Y-57809000D01*
X126291000Y-55585000D02*
X126291000Y-57915000D01*
X126251000Y-55488000D02*
X126251000Y-58012000D01*
X126211000Y-55400000D02*
X126211000Y-58100000D01*
X126171000Y-55318000D02*
X126171000Y-58182000D01*
X126131000Y-55241000D02*
X126131000Y-58259000D01*
X126091000Y-55169000D02*
X126091000Y-58331000D01*
X126051000Y-55100000D02*
X126051000Y-58400000D01*
X126011000Y-55036000D02*
X126011000Y-58464000D01*
X125971000Y-54974000D02*
X125971000Y-58526000D01*
X125931000Y-54916000D02*
X125931000Y-58584000D01*
X125891000Y-54860000D02*
X125891000Y-58640000D01*
X125851000Y-54806000D02*
X125851000Y-58694000D01*
X125811000Y-54755000D02*
X125811000Y-58745000D01*
X125771000Y-54706000D02*
X125771000Y-58794000D01*
X125731000Y-54658000D02*
X125731000Y-58842000D01*
X125691000Y-54613000D02*
X125691000Y-58887000D01*
X125651000Y-54568000D02*
X125651000Y-58932000D01*
X125611000Y-54526000D02*
X125611000Y-58974000D01*
X125571000Y-54485000D02*
X125571000Y-59015000D01*
X125531000Y-57790000D02*
X125531000Y-59055000D01*
X125531000Y-54445000D02*
X125531000Y-55710000D01*
X125491000Y-57790000D02*
X125491000Y-59093000D01*
X125491000Y-54407000D02*
X125491000Y-55710000D01*
X125451000Y-57790000D02*
X125451000Y-59130000D01*
X125451000Y-54370000D02*
X125451000Y-55710000D01*
X125411000Y-57790000D02*
X125411000Y-59166000D01*
X125411000Y-54334000D02*
X125411000Y-55710000D01*
X125371000Y-57790000D02*
X125371000Y-59200000D01*
X125371000Y-54300000D02*
X125371000Y-55710000D01*
X125331000Y-57790000D02*
X125331000Y-59234000D01*
X125331000Y-54266000D02*
X125331000Y-55710000D01*
X125291000Y-57790000D02*
X125291000Y-59266000D01*
X125291000Y-54234000D02*
X125291000Y-55710000D01*
X125251000Y-57790000D02*
X125251000Y-59298000D01*
X125251000Y-54202000D02*
X125251000Y-55710000D01*
X125211000Y-57790000D02*
X125211000Y-59328000D01*
X125211000Y-54172000D02*
X125211000Y-55710000D01*
X125171000Y-57790000D02*
X125171000Y-59357000D01*
X125171000Y-54143000D02*
X125171000Y-55710000D01*
X125131000Y-57790000D02*
X125131000Y-59386000D01*
X125131000Y-54114000D02*
X125131000Y-55710000D01*
X125091000Y-57790000D02*
X125091000Y-59414000D01*
X125091000Y-54086000D02*
X125091000Y-55710000D01*
X125051000Y-57790000D02*
X125051000Y-59440000D01*
X125051000Y-54060000D02*
X125051000Y-55710000D01*
X125011000Y-57790000D02*
X125011000Y-59466000D01*
X125011000Y-54034000D02*
X125011000Y-55710000D01*
X124971000Y-57790000D02*
X124971000Y-59492000D01*
X124971000Y-54008000D02*
X124971000Y-55710000D01*
X124931000Y-57790000D02*
X124931000Y-59516000D01*
X124931000Y-53984000D02*
X124931000Y-55710000D01*
X124891000Y-57790000D02*
X124891000Y-59540000D01*
X124891000Y-53960000D02*
X124891000Y-55710000D01*
X124851000Y-57790000D02*
X124851000Y-59562000D01*
X124851000Y-53938000D02*
X124851000Y-55710000D01*
X124811000Y-57790000D02*
X124811000Y-59584000D01*
X124811000Y-53916000D02*
X124811000Y-55710000D01*
X124771000Y-57790000D02*
X124771000Y-59606000D01*
X124771000Y-53894000D02*
X124771000Y-55710000D01*
X124731000Y-57790000D02*
X124731000Y-59626000D01*
X124731000Y-53874000D02*
X124731000Y-55710000D01*
X124691000Y-57790000D02*
X124691000Y-59646000D01*
X124691000Y-53854000D02*
X124691000Y-55710000D01*
X124651000Y-57790000D02*
X124651000Y-59666000D01*
X124651000Y-53834000D02*
X124651000Y-55710000D01*
X124611000Y-57790000D02*
X124611000Y-59684000D01*
X124611000Y-53816000D02*
X124611000Y-55710000D01*
X124571000Y-57790000D02*
X124571000Y-59702000D01*
X124571000Y-53798000D02*
X124571000Y-55710000D01*
X124531000Y-57790000D02*
X124531000Y-59720000D01*
X124531000Y-53780000D02*
X124531000Y-55710000D01*
X124491000Y-57790000D02*
X124491000Y-59736000D01*
X124491000Y-53764000D02*
X124491000Y-55710000D01*
X124451000Y-57790000D02*
X124451000Y-59752000D01*
X124451000Y-53748000D02*
X124451000Y-55710000D01*
X124411000Y-57790000D02*
X124411000Y-59768000D01*
X124411000Y-53732000D02*
X124411000Y-55710000D01*
X124371000Y-57790000D02*
X124371000Y-59783000D01*
X124371000Y-53717000D02*
X124371000Y-55710000D01*
X124331000Y-57790000D02*
X124331000Y-59797000D01*
X124331000Y-53703000D02*
X124331000Y-55710000D01*
X124291000Y-57790000D02*
X124291000Y-59811000D01*
X124291000Y-53689000D02*
X124291000Y-55710000D01*
X124251000Y-57790000D02*
X124251000Y-59824000D01*
X124251000Y-53676000D02*
X124251000Y-55710000D01*
X124211000Y-57790000D02*
X124211000Y-59836000D01*
X124211000Y-53664000D02*
X124211000Y-55710000D01*
X124171000Y-57790000D02*
X124171000Y-59848000D01*
X124171000Y-53652000D02*
X124171000Y-55710000D01*
X124131000Y-57790000D02*
X124131000Y-59860000D01*
X124131000Y-53640000D02*
X124131000Y-55710000D01*
X124091000Y-57790000D02*
X124091000Y-59871000D01*
X124091000Y-53629000D02*
X124091000Y-55710000D01*
X124051000Y-57790000D02*
X124051000Y-59881000D01*
X124051000Y-53619000D02*
X124051000Y-55710000D01*
X124011000Y-57790000D02*
X124011000Y-59891000D01*
X124011000Y-53609000D02*
X124011000Y-55710000D01*
X123971000Y-57790000D02*
X123971000Y-59900000D01*
X123971000Y-53600000D02*
X123971000Y-55710000D01*
X123930000Y-57790000D02*
X123930000Y-59909000D01*
X123930000Y-53591000D02*
X123930000Y-55710000D01*
X123890000Y-57790000D02*
X123890000Y-59917000D01*
X123890000Y-53583000D02*
X123890000Y-55710000D01*
X123850000Y-57790000D02*
X123850000Y-59925000D01*
X123850000Y-53575000D02*
X123850000Y-55710000D01*
X123810000Y-57790000D02*
X123810000Y-59932000D01*
X123810000Y-53568000D02*
X123810000Y-55710000D01*
X123770000Y-57790000D02*
X123770000Y-59939000D01*
X123770000Y-53561000D02*
X123770000Y-55710000D01*
X123730000Y-57790000D02*
X123730000Y-59945000D01*
X123730000Y-53555000D02*
X123730000Y-55710000D01*
X123690000Y-57790000D02*
X123690000Y-59951000D01*
X123690000Y-53549000D02*
X123690000Y-55710000D01*
X123650000Y-57790000D02*
X123650000Y-59956000D01*
X123650000Y-53544000D02*
X123650000Y-55710000D01*
X123610000Y-57790000D02*
X123610000Y-59961000D01*
X123610000Y-53539000D02*
X123610000Y-55710000D01*
X123570000Y-57790000D02*
X123570000Y-59965000D01*
X123570000Y-53535000D02*
X123570000Y-55710000D01*
X123530000Y-57790000D02*
X123530000Y-59968000D01*
X123530000Y-53532000D02*
X123530000Y-55710000D01*
X123490000Y-57790000D02*
X123490000Y-59972000D01*
X123490000Y-53528000D02*
X123490000Y-55710000D01*
X123450000Y-53526000D02*
X123450000Y-59974000D01*
X123410000Y-53523000D02*
X123410000Y-59977000D01*
X123370000Y-53522000D02*
X123370000Y-59978000D01*
X123330000Y-53520000D02*
X123330000Y-59980000D01*
X123290000Y-53520000D02*
X123290000Y-59980000D01*
X123250000Y-53520000D02*
X123250000Y-59980000D01*
X126520000Y-56750000D02*
G75*
G03X126520000Y-56750000I-3270000J0D01*
G01*
X134695225Y-71250000D02*
X134695225Y-71750000D01*
X134445225Y-71500000D02*
X134945225Y-71500000D01*
X139851000Y-72691000D02*
X139851000Y-73259000D01*
X139811000Y-72457000D02*
X139811000Y-73493000D01*
X139771000Y-72298000D02*
X139771000Y-73652000D01*
X139731000Y-72170000D02*
X139731000Y-73780000D01*
X139691000Y-72060000D02*
X139691000Y-73890000D01*
X139651000Y-71964000D02*
X139651000Y-73986000D01*
X139611000Y-71877000D02*
X139611000Y-74073000D01*
X139571000Y-71797000D02*
X139571000Y-74153000D01*
X139531000Y-74015000D02*
X139531000Y-74226000D01*
X139531000Y-71724000D02*
X139531000Y-71935000D01*
X139491000Y-74015000D02*
X139491000Y-74294000D01*
X139491000Y-71656000D02*
X139491000Y-71935000D01*
X139451000Y-74015000D02*
X139451000Y-74358000D01*
X139451000Y-71592000D02*
X139451000Y-71935000D01*
X139411000Y-74015000D02*
X139411000Y-74418000D01*
X139411000Y-71532000D02*
X139411000Y-71935000D01*
X139371000Y-74015000D02*
X139371000Y-74475000D01*
X139371000Y-71475000D02*
X139371000Y-71935000D01*
X139331000Y-74015000D02*
X139331000Y-74529000D01*
X139331000Y-71421000D02*
X139331000Y-71935000D01*
X139291000Y-74015000D02*
X139291000Y-74580000D01*
X139291000Y-71370000D02*
X139291000Y-71935000D01*
X139251000Y-74015000D02*
X139251000Y-74628000D01*
X139251000Y-71322000D02*
X139251000Y-71935000D01*
X139211000Y-74015000D02*
X139211000Y-74674000D01*
X139211000Y-71276000D02*
X139211000Y-71935000D01*
X139171000Y-74015000D02*
X139171000Y-74718000D01*
X139171000Y-71232000D02*
X139171000Y-71935000D01*
X139131000Y-74015000D02*
X139131000Y-74760000D01*
X139131000Y-71190000D02*
X139131000Y-71935000D01*
X139091000Y-74015000D02*
X139091000Y-74801000D01*
X139091000Y-71149000D02*
X139091000Y-71935000D01*
X139051000Y-74015000D02*
X139051000Y-74839000D01*
X139051000Y-71111000D02*
X139051000Y-71935000D01*
X139011000Y-74015000D02*
X139011000Y-74876000D01*
X139011000Y-71074000D02*
X139011000Y-71935000D01*
X138971000Y-74015000D02*
X138971000Y-74912000D01*
X138971000Y-71038000D02*
X138971000Y-71935000D01*
X138931000Y-74015000D02*
X138931000Y-74946000D01*
X138931000Y-71004000D02*
X138931000Y-71935000D01*
X138891000Y-74015000D02*
X138891000Y-74979000D01*
X138891000Y-70971000D02*
X138891000Y-71935000D01*
X138851000Y-74015000D02*
X138851000Y-75010000D01*
X138851000Y-70940000D02*
X138851000Y-71935000D01*
X138811000Y-74015000D02*
X138811000Y-75040000D01*
X138811000Y-70910000D02*
X138811000Y-71935000D01*
X138771000Y-74015000D02*
X138771000Y-75070000D01*
X138771000Y-70880000D02*
X138771000Y-71935000D01*
X138731000Y-74015000D02*
X138731000Y-75097000D01*
X138731000Y-70853000D02*
X138731000Y-71935000D01*
X138691000Y-74015000D02*
X138691000Y-75124000D01*
X138691000Y-70826000D02*
X138691000Y-71935000D01*
X138651000Y-74015000D02*
X138651000Y-75150000D01*
X138651000Y-70800000D02*
X138651000Y-71935000D01*
X138611000Y-74015000D02*
X138611000Y-75175000D01*
X138611000Y-70775000D02*
X138611000Y-71935000D01*
X138571000Y-74015000D02*
X138571000Y-75199000D01*
X138571000Y-70751000D02*
X138571000Y-71935000D01*
X138531000Y-74015000D02*
X138531000Y-75222000D01*
X138531000Y-70728000D02*
X138531000Y-71935000D01*
X138491000Y-74015000D02*
X138491000Y-75243000D01*
X138491000Y-70707000D02*
X138491000Y-71935000D01*
X138451000Y-74015000D02*
X138451000Y-75265000D01*
X138451000Y-70685000D02*
X138451000Y-71935000D01*
X138411000Y-74015000D02*
X138411000Y-75285000D01*
X138411000Y-70665000D02*
X138411000Y-71935000D01*
X138371000Y-74015000D02*
X138371000Y-75304000D01*
X138371000Y-70646000D02*
X138371000Y-71935000D01*
X138331000Y-74015000D02*
X138331000Y-75323000D01*
X138331000Y-70627000D02*
X138331000Y-71935000D01*
X138291000Y-74015000D02*
X138291000Y-75340000D01*
X138291000Y-70610000D02*
X138291000Y-71935000D01*
X138251000Y-74015000D02*
X138251000Y-75357000D01*
X138251000Y-70593000D02*
X138251000Y-71935000D01*
X138211000Y-74015000D02*
X138211000Y-75373000D01*
X138211000Y-70577000D02*
X138211000Y-71935000D01*
X138171000Y-74015000D02*
X138171000Y-75389000D01*
X138171000Y-70561000D02*
X138171000Y-71935000D01*
X138131000Y-74015000D02*
X138131000Y-75403000D01*
X138131000Y-70547000D02*
X138131000Y-71935000D01*
X138091000Y-74015000D02*
X138091000Y-75417000D01*
X138091000Y-70533000D02*
X138091000Y-71935000D01*
X138051000Y-74015000D02*
X138051000Y-75430000D01*
X138051000Y-70520000D02*
X138051000Y-71935000D01*
X138011000Y-74015000D02*
X138011000Y-75443000D01*
X138011000Y-70507000D02*
X138011000Y-71935000D01*
X137971000Y-74015000D02*
X137971000Y-75455000D01*
X137971000Y-70495000D02*
X137971000Y-71935000D01*
X137930000Y-74015000D02*
X137930000Y-75466000D01*
X137930000Y-70484000D02*
X137930000Y-71935000D01*
X137890000Y-74015000D02*
X137890000Y-75476000D01*
X137890000Y-70474000D02*
X137890000Y-71935000D01*
X137850000Y-74015000D02*
X137850000Y-75486000D01*
X137850000Y-70464000D02*
X137850000Y-71935000D01*
X137810000Y-74015000D02*
X137810000Y-75495000D01*
X137810000Y-70455000D02*
X137810000Y-71935000D01*
X137770000Y-74015000D02*
X137770000Y-75503000D01*
X137770000Y-70447000D02*
X137770000Y-71935000D01*
X137730000Y-74015000D02*
X137730000Y-75511000D01*
X137730000Y-70439000D02*
X137730000Y-71935000D01*
X137690000Y-74015000D02*
X137690000Y-75518000D01*
X137690000Y-70432000D02*
X137690000Y-71935000D01*
X137650000Y-74015000D02*
X137650000Y-75525000D01*
X137650000Y-70425000D02*
X137650000Y-71935000D01*
X137610000Y-74015000D02*
X137610000Y-75531000D01*
X137610000Y-70419000D02*
X137610000Y-71935000D01*
X137570000Y-74015000D02*
X137570000Y-75536000D01*
X137570000Y-70414000D02*
X137570000Y-71935000D01*
X137530000Y-74015000D02*
X137530000Y-75540000D01*
X137530000Y-70410000D02*
X137530000Y-71935000D01*
X137490000Y-74015000D02*
X137490000Y-75544000D01*
X137490000Y-70406000D02*
X137490000Y-71935000D01*
X137450000Y-70402000D02*
X137450000Y-75548000D01*
X137410000Y-70399000D02*
X137410000Y-75551000D01*
X137370000Y-70397000D02*
X137370000Y-75553000D01*
X137330000Y-70396000D02*
X137330000Y-75554000D01*
X137290000Y-70395000D02*
X137290000Y-75555000D01*
X137250000Y-70395000D02*
X137250000Y-75555000D01*
X139870000Y-72975000D02*
G75*
G03X139870000Y-72975000I-2620000J0D01*
G01*
X138863478Y-66638478D02*
G75*
G03X137025000Y-62200000I-1838478J1838478D01*
G01*
X135186522Y-66638478D02*
G75*
G02X137025000Y-62200000I1838478J1838478D01*
G01*
X135225000Y-66650000D02*
X138825000Y-66650000D01*
X168970000Y-104540000D02*
X168970000Y-105790000D01*
X194490000Y-104540000D02*
X168970000Y-104540000D01*
X194490000Y-109040000D02*
X194490000Y-104540000D01*
X168970000Y-109040000D02*
X194490000Y-109040000D01*
X168970000Y-107790000D02*
X168970000Y-109040000D01*
X168970000Y-105790000D02*
G75*
G02X168970000Y-107790000I0J-1000000D01*
G01*
X114695225Y-71250000D02*
X114695225Y-71750000D01*
X114445225Y-71500000D02*
X114945225Y-71500000D01*
X119851000Y-72691000D02*
X119851000Y-73259000D01*
X119811000Y-72457000D02*
X119811000Y-73493000D01*
X119771000Y-72298000D02*
X119771000Y-73652000D01*
X119731000Y-72170000D02*
X119731000Y-73780000D01*
X119691000Y-72060000D02*
X119691000Y-73890000D01*
X119651000Y-71964000D02*
X119651000Y-73986000D01*
X119611000Y-71877000D02*
X119611000Y-74073000D01*
X119571000Y-71797000D02*
X119571000Y-74153000D01*
X119531000Y-74015000D02*
X119531000Y-74226000D01*
X119531000Y-71724000D02*
X119531000Y-71935000D01*
X119491000Y-74015000D02*
X119491000Y-74294000D01*
X119491000Y-71656000D02*
X119491000Y-71935000D01*
X119451000Y-74015000D02*
X119451000Y-74358000D01*
X119451000Y-71592000D02*
X119451000Y-71935000D01*
X119411000Y-74015000D02*
X119411000Y-74418000D01*
X119411000Y-71532000D02*
X119411000Y-71935000D01*
X119371000Y-74015000D02*
X119371000Y-74475000D01*
X119371000Y-71475000D02*
X119371000Y-71935000D01*
X119331000Y-74015000D02*
X119331000Y-74529000D01*
X119331000Y-71421000D02*
X119331000Y-71935000D01*
X119291000Y-74015000D02*
X119291000Y-74580000D01*
X119291000Y-71370000D02*
X119291000Y-71935000D01*
X119251000Y-74015000D02*
X119251000Y-74628000D01*
X119251000Y-71322000D02*
X119251000Y-71935000D01*
X119211000Y-74015000D02*
X119211000Y-74674000D01*
X119211000Y-71276000D02*
X119211000Y-71935000D01*
X119171000Y-74015000D02*
X119171000Y-74718000D01*
X119171000Y-71232000D02*
X119171000Y-71935000D01*
X119131000Y-74015000D02*
X119131000Y-74760000D01*
X119131000Y-71190000D02*
X119131000Y-71935000D01*
X119091000Y-74015000D02*
X119091000Y-74801000D01*
X119091000Y-71149000D02*
X119091000Y-71935000D01*
X119051000Y-74015000D02*
X119051000Y-74839000D01*
X119051000Y-71111000D02*
X119051000Y-71935000D01*
X119011000Y-74015000D02*
X119011000Y-74876000D01*
X119011000Y-71074000D02*
X119011000Y-71935000D01*
X118971000Y-74015000D02*
X118971000Y-74912000D01*
X118971000Y-71038000D02*
X118971000Y-71935000D01*
X118931000Y-74015000D02*
X118931000Y-74946000D01*
X118931000Y-71004000D02*
X118931000Y-71935000D01*
X118891000Y-74015000D02*
X118891000Y-74979000D01*
X118891000Y-70971000D02*
X118891000Y-71935000D01*
X118851000Y-74015000D02*
X118851000Y-75010000D01*
X118851000Y-70940000D02*
X118851000Y-71935000D01*
X118811000Y-74015000D02*
X118811000Y-75040000D01*
X118811000Y-70910000D02*
X118811000Y-71935000D01*
X118771000Y-74015000D02*
X118771000Y-75070000D01*
X118771000Y-70880000D02*
X118771000Y-71935000D01*
X118731000Y-74015000D02*
X118731000Y-75097000D01*
X118731000Y-70853000D02*
X118731000Y-71935000D01*
X118691000Y-74015000D02*
X118691000Y-75124000D01*
X118691000Y-70826000D02*
X118691000Y-71935000D01*
X118651000Y-74015000D02*
X118651000Y-75150000D01*
X118651000Y-70800000D02*
X118651000Y-71935000D01*
X118611000Y-74015000D02*
X118611000Y-75175000D01*
X118611000Y-70775000D02*
X118611000Y-71935000D01*
X118571000Y-74015000D02*
X118571000Y-75199000D01*
X118571000Y-70751000D02*
X118571000Y-71935000D01*
X118531000Y-74015000D02*
X118531000Y-75222000D01*
X118531000Y-70728000D02*
X118531000Y-71935000D01*
X118491000Y-74015000D02*
X118491000Y-75243000D01*
X118491000Y-70707000D02*
X118491000Y-71935000D01*
X118451000Y-74015000D02*
X118451000Y-75265000D01*
X118451000Y-70685000D02*
X118451000Y-71935000D01*
X118411000Y-74015000D02*
X118411000Y-75285000D01*
X118411000Y-70665000D02*
X118411000Y-71935000D01*
X118371000Y-74015000D02*
X118371000Y-75304000D01*
X118371000Y-70646000D02*
X118371000Y-71935000D01*
X118331000Y-74015000D02*
X118331000Y-75323000D01*
X118331000Y-70627000D02*
X118331000Y-71935000D01*
X118291000Y-74015000D02*
X118291000Y-75340000D01*
X118291000Y-70610000D02*
X118291000Y-71935000D01*
X118251000Y-74015000D02*
X118251000Y-75357000D01*
X118251000Y-70593000D02*
X118251000Y-71935000D01*
X118211000Y-74015000D02*
X118211000Y-75373000D01*
X118211000Y-70577000D02*
X118211000Y-71935000D01*
X118171000Y-74015000D02*
X118171000Y-75389000D01*
X118171000Y-70561000D02*
X118171000Y-71935000D01*
X118131000Y-74015000D02*
X118131000Y-75403000D01*
X118131000Y-70547000D02*
X118131000Y-71935000D01*
X118091000Y-74015000D02*
X118091000Y-75417000D01*
X118091000Y-70533000D02*
X118091000Y-71935000D01*
X118051000Y-74015000D02*
X118051000Y-75430000D01*
X118051000Y-70520000D02*
X118051000Y-71935000D01*
X118011000Y-74015000D02*
X118011000Y-75443000D01*
X118011000Y-70507000D02*
X118011000Y-71935000D01*
X117971000Y-74015000D02*
X117971000Y-75455000D01*
X117971000Y-70495000D02*
X117971000Y-71935000D01*
X117930000Y-74015000D02*
X117930000Y-75466000D01*
X117930000Y-70484000D02*
X117930000Y-71935000D01*
X117890000Y-74015000D02*
X117890000Y-75476000D01*
X117890000Y-70474000D02*
X117890000Y-71935000D01*
X117850000Y-74015000D02*
X117850000Y-75486000D01*
X117850000Y-70464000D02*
X117850000Y-71935000D01*
X117810000Y-74015000D02*
X117810000Y-75495000D01*
X117810000Y-70455000D02*
X117810000Y-71935000D01*
X117770000Y-74015000D02*
X117770000Y-75503000D01*
X117770000Y-70447000D02*
X117770000Y-71935000D01*
X117730000Y-74015000D02*
X117730000Y-75511000D01*
X117730000Y-70439000D02*
X117730000Y-71935000D01*
X117690000Y-74015000D02*
X117690000Y-75518000D01*
X117690000Y-70432000D02*
X117690000Y-71935000D01*
X117650000Y-74015000D02*
X117650000Y-75525000D01*
X117650000Y-70425000D02*
X117650000Y-71935000D01*
X117610000Y-74015000D02*
X117610000Y-75531000D01*
X117610000Y-70419000D02*
X117610000Y-71935000D01*
X117570000Y-74015000D02*
X117570000Y-75536000D01*
X117570000Y-70414000D02*
X117570000Y-71935000D01*
X117530000Y-74015000D02*
X117530000Y-75540000D01*
X117530000Y-70410000D02*
X117530000Y-71935000D01*
X117490000Y-74015000D02*
X117490000Y-75544000D01*
X117490000Y-70406000D02*
X117490000Y-71935000D01*
X117450000Y-70402000D02*
X117450000Y-75548000D01*
X117410000Y-70399000D02*
X117410000Y-75551000D01*
X117370000Y-70397000D02*
X117370000Y-75553000D01*
X117330000Y-70396000D02*
X117330000Y-75554000D01*
X117290000Y-70395000D02*
X117290000Y-75555000D01*
X117250000Y-70395000D02*
X117250000Y-75555000D01*
X119870000Y-72975000D02*
G75*
G03X119870000Y-72975000I-2620000J0D01*
G01*
X128028557Y-71250000D02*
X128028557Y-71750000D01*
X127778557Y-71500000D02*
X128278557Y-71500000D01*
X133184332Y-72691000D02*
X133184332Y-73259000D01*
X133144332Y-72457000D02*
X133144332Y-73493000D01*
X133104332Y-72298000D02*
X133104332Y-73652000D01*
X133064332Y-72170000D02*
X133064332Y-73780000D01*
X133024332Y-72060000D02*
X133024332Y-73890000D01*
X132984332Y-71964000D02*
X132984332Y-73986000D01*
X132944332Y-71877000D02*
X132944332Y-74073000D01*
X132904332Y-71797000D02*
X132904332Y-74153000D01*
X132864332Y-74015000D02*
X132864332Y-74226000D01*
X132864332Y-71724000D02*
X132864332Y-71935000D01*
X132824332Y-74015000D02*
X132824332Y-74294000D01*
X132824332Y-71656000D02*
X132824332Y-71935000D01*
X132784332Y-74015000D02*
X132784332Y-74358000D01*
X132784332Y-71592000D02*
X132784332Y-71935000D01*
X132744332Y-74015000D02*
X132744332Y-74418000D01*
X132744332Y-71532000D02*
X132744332Y-71935000D01*
X132704332Y-74015000D02*
X132704332Y-74475000D01*
X132704332Y-71475000D02*
X132704332Y-71935000D01*
X132664332Y-74015000D02*
X132664332Y-74529000D01*
X132664332Y-71421000D02*
X132664332Y-71935000D01*
X132624332Y-74015000D02*
X132624332Y-74580000D01*
X132624332Y-71370000D02*
X132624332Y-71935000D01*
X132584332Y-74015000D02*
X132584332Y-74628000D01*
X132584332Y-71322000D02*
X132584332Y-71935000D01*
X132544332Y-74015000D02*
X132544332Y-74674000D01*
X132544332Y-71276000D02*
X132544332Y-71935000D01*
X132504332Y-74015000D02*
X132504332Y-74718000D01*
X132504332Y-71232000D02*
X132504332Y-71935000D01*
X132464332Y-74015000D02*
X132464332Y-74760000D01*
X132464332Y-71190000D02*
X132464332Y-71935000D01*
X132424332Y-74015000D02*
X132424332Y-74801000D01*
X132424332Y-71149000D02*
X132424332Y-71935000D01*
X132384332Y-74015000D02*
X132384332Y-74839000D01*
X132384332Y-71111000D02*
X132384332Y-71935000D01*
X132344332Y-74015000D02*
X132344332Y-74876000D01*
X132344332Y-71074000D02*
X132344332Y-71935000D01*
X132304332Y-74015000D02*
X132304332Y-74912000D01*
X132304332Y-71038000D02*
X132304332Y-71935000D01*
X132264332Y-74015000D02*
X132264332Y-74946000D01*
X132264332Y-71004000D02*
X132264332Y-71935000D01*
X132224332Y-74015000D02*
X132224332Y-74979000D01*
X132224332Y-70971000D02*
X132224332Y-71935000D01*
X132184332Y-74015000D02*
X132184332Y-75010000D01*
X132184332Y-70940000D02*
X132184332Y-71935000D01*
X132144332Y-74015000D02*
X132144332Y-75040000D01*
X132144332Y-70910000D02*
X132144332Y-71935000D01*
X132104332Y-74015000D02*
X132104332Y-75070000D01*
X132104332Y-70880000D02*
X132104332Y-71935000D01*
X132064332Y-74015000D02*
X132064332Y-75097000D01*
X132064332Y-70853000D02*
X132064332Y-71935000D01*
X132024332Y-74015000D02*
X132024332Y-75124000D01*
X132024332Y-70826000D02*
X132024332Y-71935000D01*
X131984332Y-74015000D02*
X131984332Y-75150000D01*
X131984332Y-70800000D02*
X131984332Y-71935000D01*
X131944332Y-74015000D02*
X131944332Y-75175000D01*
X131944332Y-70775000D02*
X131944332Y-71935000D01*
X131904332Y-74015000D02*
X131904332Y-75199000D01*
X131904332Y-70751000D02*
X131904332Y-71935000D01*
X131864332Y-74015000D02*
X131864332Y-75222000D01*
X131864332Y-70728000D02*
X131864332Y-71935000D01*
X131824332Y-74015000D02*
X131824332Y-75243000D01*
X131824332Y-70707000D02*
X131824332Y-71935000D01*
X131784332Y-74015000D02*
X131784332Y-75265000D01*
X131784332Y-70685000D02*
X131784332Y-71935000D01*
X131744332Y-74015000D02*
X131744332Y-75285000D01*
X131744332Y-70665000D02*
X131744332Y-71935000D01*
X131704332Y-74015000D02*
X131704332Y-75304000D01*
X131704332Y-70646000D02*
X131704332Y-71935000D01*
X131664332Y-74015000D02*
X131664332Y-75323000D01*
X131664332Y-70627000D02*
X131664332Y-71935000D01*
X131624332Y-74015000D02*
X131624332Y-75340000D01*
X131624332Y-70610000D02*
X131624332Y-71935000D01*
X131584332Y-74015000D02*
X131584332Y-75357000D01*
X131584332Y-70593000D02*
X131584332Y-71935000D01*
X131544332Y-74015000D02*
X131544332Y-75373000D01*
X131544332Y-70577000D02*
X131544332Y-71935000D01*
X131504332Y-74015000D02*
X131504332Y-75389000D01*
X131504332Y-70561000D02*
X131504332Y-71935000D01*
X131464332Y-74015000D02*
X131464332Y-75403000D01*
X131464332Y-70547000D02*
X131464332Y-71935000D01*
X131424332Y-74015000D02*
X131424332Y-75417000D01*
X131424332Y-70533000D02*
X131424332Y-71935000D01*
X131384332Y-74015000D02*
X131384332Y-75430000D01*
X131384332Y-70520000D02*
X131384332Y-71935000D01*
X131344332Y-74015000D02*
X131344332Y-75443000D01*
X131344332Y-70507000D02*
X131344332Y-71935000D01*
X131304332Y-74015000D02*
X131304332Y-75455000D01*
X131304332Y-70495000D02*
X131304332Y-71935000D01*
X131263332Y-74015000D02*
X131263332Y-75466000D01*
X131263332Y-70484000D02*
X131263332Y-71935000D01*
X131223332Y-74015000D02*
X131223332Y-75476000D01*
X131223332Y-70474000D02*
X131223332Y-71935000D01*
X131183332Y-74015000D02*
X131183332Y-75486000D01*
X131183332Y-70464000D02*
X131183332Y-71935000D01*
X131143332Y-74015000D02*
X131143332Y-75495000D01*
X131143332Y-70455000D02*
X131143332Y-71935000D01*
X131103332Y-74015000D02*
X131103332Y-75503000D01*
X131103332Y-70447000D02*
X131103332Y-71935000D01*
X131063332Y-74015000D02*
X131063332Y-75511000D01*
X131063332Y-70439000D02*
X131063332Y-71935000D01*
X131023332Y-74015000D02*
X131023332Y-75518000D01*
X131023332Y-70432000D02*
X131023332Y-71935000D01*
X130983332Y-74015000D02*
X130983332Y-75525000D01*
X130983332Y-70425000D02*
X130983332Y-71935000D01*
X130943332Y-74015000D02*
X130943332Y-75531000D01*
X130943332Y-70419000D02*
X130943332Y-71935000D01*
X130903332Y-74015000D02*
X130903332Y-75536000D01*
X130903332Y-70414000D02*
X130903332Y-71935000D01*
X130863332Y-74015000D02*
X130863332Y-75540000D01*
X130863332Y-70410000D02*
X130863332Y-71935000D01*
X130823332Y-74015000D02*
X130823332Y-75544000D01*
X130823332Y-70406000D02*
X130823332Y-71935000D01*
X130783332Y-70402000D02*
X130783332Y-75548000D01*
X130743332Y-70399000D02*
X130743332Y-75551000D01*
X130703332Y-70397000D02*
X130703332Y-75553000D01*
X130663332Y-70396000D02*
X130663332Y-75554000D01*
X130623332Y-70395000D02*
X130623332Y-75555000D01*
X130583332Y-70395000D02*
X130583332Y-75555000D01*
X133203332Y-72975000D02*
G75*
G03X133203332Y-72975000I-2620000J0D01*
G01*
X121361891Y-71275000D02*
X121361891Y-71775000D01*
X121111891Y-71525000D02*
X121611891Y-71525000D01*
X126517666Y-72716000D02*
X126517666Y-73284000D01*
X126477666Y-72482000D02*
X126477666Y-73518000D01*
X126437666Y-72323000D02*
X126437666Y-73677000D01*
X126397666Y-72195000D02*
X126397666Y-73805000D01*
X126357666Y-72085000D02*
X126357666Y-73915000D01*
X126317666Y-71989000D02*
X126317666Y-74011000D01*
X126277666Y-71902000D02*
X126277666Y-74098000D01*
X126237666Y-71822000D02*
X126237666Y-74178000D01*
X126197666Y-74040000D02*
X126197666Y-74251000D01*
X126197666Y-71749000D02*
X126197666Y-71960000D01*
X126157666Y-74040000D02*
X126157666Y-74319000D01*
X126157666Y-71681000D02*
X126157666Y-71960000D01*
X126117666Y-74040000D02*
X126117666Y-74383000D01*
X126117666Y-71617000D02*
X126117666Y-71960000D01*
X126077666Y-74040000D02*
X126077666Y-74443000D01*
X126077666Y-71557000D02*
X126077666Y-71960000D01*
X126037666Y-74040000D02*
X126037666Y-74500000D01*
X126037666Y-71500000D02*
X126037666Y-71960000D01*
X125997666Y-74040000D02*
X125997666Y-74554000D01*
X125997666Y-71446000D02*
X125997666Y-71960000D01*
X125957666Y-74040000D02*
X125957666Y-74605000D01*
X125957666Y-71395000D02*
X125957666Y-71960000D01*
X125917666Y-74040000D02*
X125917666Y-74653000D01*
X125917666Y-71347000D02*
X125917666Y-71960000D01*
X125877666Y-74040000D02*
X125877666Y-74699000D01*
X125877666Y-71301000D02*
X125877666Y-71960000D01*
X125837666Y-74040000D02*
X125837666Y-74743000D01*
X125837666Y-71257000D02*
X125837666Y-71960000D01*
X125797666Y-74040000D02*
X125797666Y-74785000D01*
X125797666Y-71215000D02*
X125797666Y-71960000D01*
X125757666Y-74040000D02*
X125757666Y-74826000D01*
X125757666Y-71174000D02*
X125757666Y-71960000D01*
X125717666Y-74040000D02*
X125717666Y-74864000D01*
X125717666Y-71136000D02*
X125717666Y-71960000D01*
X125677666Y-74040000D02*
X125677666Y-74901000D01*
X125677666Y-71099000D02*
X125677666Y-71960000D01*
X125637666Y-74040000D02*
X125637666Y-74937000D01*
X125637666Y-71063000D02*
X125637666Y-71960000D01*
X125597666Y-74040000D02*
X125597666Y-74971000D01*
X125597666Y-71029000D02*
X125597666Y-71960000D01*
X125557666Y-74040000D02*
X125557666Y-75004000D01*
X125557666Y-70996000D02*
X125557666Y-71960000D01*
X125517666Y-74040000D02*
X125517666Y-75035000D01*
X125517666Y-70965000D02*
X125517666Y-71960000D01*
X125477666Y-74040000D02*
X125477666Y-75065000D01*
X125477666Y-70935000D02*
X125477666Y-71960000D01*
X125437666Y-74040000D02*
X125437666Y-75095000D01*
X125437666Y-70905000D02*
X125437666Y-71960000D01*
X125397666Y-74040000D02*
X125397666Y-75122000D01*
X125397666Y-70878000D02*
X125397666Y-71960000D01*
X125357666Y-74040000D02*
X125357666Y-75149000D01*
X125357666Y-70851000D02*
X125357666Y-71960000D01*
X125317666Y-74040000D02*
X125317666Y-75175000D01*
X125317666Y-70825000D02*
X125317666Y-71960000D01*
X125277666Y-74040000D02*
X125277666Y-75200000D01*
X125277666Y-70800000D02*
X125277666Y-71960000D01*
X125237666Y-74040000D02*
X125237666Y-75224000D01*
X125237666Y-70776000D02*
X125237666Y-71960000D01*
X125197666Y-74040000D02*
X125197666Y-75247000D01*
X125197666Y-70753000D02*
X125197666Y-71960000D01*
X125157666Y-74040000D02*
X125157666Y-75268000D01*
X125157666Y-70732000D02*
X125157666Y-71960000D01*
X125117666Y-74040000D02*
X125117666Y-75290000D01*
X125117666Y-70710000D02*
X125117666Y-71960000D01*
X125077666Y-74040000D02*
X125077666Y-75310000D01*
X125077666Y-70690000D02*
X125077666Y-71960000D01*
X125037666Y-74040000D02*
X125037666Y-75329000D01*
X125037666Y-70671000D02*
X125037666Y-71960000D01*
X124997666Y-74040000D02*
X124997666Y-75348000D01*
X124997666Y-70652000D02*
X124997666Y-71960000D01*
X124957666Y-74040000D02*
X124957666Y-75365000D01*
X124957666Y-70635000D02*
X124957666Y-71960000D01*
X124917666Y-74040000D02*
X124917666Y-75382000D01*
X124917666Y-70618000D02*
X124917666Y-71960000D01*
X124877666Y-74040000D02*
X124877666Y-75398000D01*
X124877666Y-70602000D02*
X124877666Y-71960000D01*
X124837666Y-74040000D02*
X124837666Y-75414000D01*
X124837666Y-70586000D02*
X124837666Y-71960000D01*
X124797666Y-74040000D02*
X124797666Y-75428000D01*
X124797666Y-70572000D02*
X124797666Y-71960000D01*
X124757666Y-74040000D02*
X124757666Y-75442000D01*
X124757666Y-70558000D02*
X124757666Y-71960000D01*
X124717666Y-74040000D02*
X124717666Y-75455000D01*
X124717666Y-70545000D02*
X124717666Y-71960000D01*
X124677666Y-74040000D02*
X124677666Y-75468000D01*
X124677666Y-70532000D02*
X124677666Y-71960000D01*
X124637666Y-74040000D02*
X124637666Y-75480000D01*
X124637666Y-70520000D02*
X124637666Y-71960000D01*
X124596666Y-74040000D02*
X124596666Y-75491000D01*
X124596666Y-70509000D02*
X124596666Y-71960000D01*
X124556666Y-74040000D02*
X124556666Y-75501000D01*
X124556666Y-70499000D02*
X124556666Y-71960000D01*
X124516666Y-74040000D02*
X124516666Y-75511000D01*
X124516666Y-70489000D02*
X124516666Y-71960000D01*
X124476666Y-74040000D02*
X124476666Y-75520000D01*
X124476666Y-70480000D02*
X124476666Y-71960000D01*
X124436666Y-74040000D02*
X124436666Y-75528000D01*
X124436666Y-70472000D02*
X124436666Y-71960000D01*
X124396666Y-74040000D02*
X124396666Y-75536000D01*
X124396666Y-70464000D02*
X124396666Y-71960000D01*
X124356666Y-74040000D02*
X124356666Y-75543000D01*
X124356666Y-70457000D02*
X124356666Y-71960000D01*
X124316666Y-74040000D02*
X124316666Y-75550000D01*
X124316666Y-70450000D02*
X124316666Y-71960000D01*
X124276666Y-74040000D02*
X124276666Y-75556000D01*
X124276666Y-70444000D02*
X124276666Y-71960000D01*
X124236666Y-74040000D02*
X124236666Y-75561000D01*
X124236666Y-70439000D02*
X124236666Y-71960000D01*
X124196666Y-74040000D02*
X124196666Y-75565000D01*
X124196666Y-70435000D02*
X124196666Y-71960000D01*
X124156666Y-74040000D02*
X124156666Y-75569000D01*
X124156666Y-70431000D02*
X124156666Y-71960000D01*
X124116666Y-70427000D02*
X124116666Y-75573000D01*
X124076666Y-70424000D02*
X124076666Y-75576000D01*
X124036666Y-70422000D02*
X124036666Y-75578000D01*
X123996666Y-70421000D02*
X123996666Y-75579000D01*
X123956666Y-70420000D02*
X123956666Y-75580000D01*
X123916666Y-70420000D02*
X123916666Y-75580000D01*
X126536666Y-73000000D02*
G75*
G03X126536666Y-73000000I-2620000J0D01*
G01*
X113064759Y-54596000D02*
X113064759Y-55226000D01*
X112749759Y-54911000D02*
X113379759Y-54911000D01*
X119491000Y-56348000D02*
X119491000Y-57152000D01*
X119451000Y-56117000D02*
X119451000Y-57383000D01*
X119411000Y-55948000D02*
X119411000Y-57552000D01*
X119371000Y-55810000D02*
X119371000Y-57690000D01*
X119331000Y-55691000D02*
X119331000Y-57809000D01*
X119291000Y-55585000D02*
X119291000Y-57915000D01*
X119251000Y-55488000D02*
X119251000Y-58012000D01*
X119211000Y-55400000D02*
X119211000Y-58100000D01*
X119171000Y-55318000D02*
X119171000Y-58182000D01*
X119131000Y-55241000D02*
X119131000Y-58259000D01*
X119091000Y-55169000D02*
X119091000Y-58331000D01*
X119051000Y-55100000D02*
X119051000Y-58400000D01*
X119011000Y-55036000D02*
X119011000Y-58464000D01*
X118971000Y-54974000D02*
X118971000Y-58526000D01*
X118931000Y-54916000D02*
X118931000Y-58584000D01*
X118891000Y-54860000D02*
X118891000Y-58640000D01*
X118851000Y-54806000D02*
X118851000Y-58694000D01*
X118811000Y-54755000D02*
X118811000Y-58745000D01*
X118771000Y-54706000D02*
X118771000Y-58794000D01*
X118731000Y-54658000D02*
X118731000Y-58842000D01*
X118691000Y-54613000D02*
X118691000Y-58887000D01*
X118651000Y-54568000D02*
X118651000Y-58932000D01*
X118611000Y-54526000D02*
X118611000Y-58974000D01*
X118571000Y-54485000D02*
X118571000Y-59015000D01*
X118531000Y-57790000D02*
X118531000Y-59055000D01*
X118531000Y-54445000D02*
X118531000Y-55710000D01*
X118491000Y-57790000D02*
X118491000Y-59093000D01*
X118491000Y-54407000D02*
X118491000Y-55710000D01*
X118451000Y-57790000D02*
X118451000Y-59130000D01*
X118451000Y-54370000D02*
X118451000Y-55710000D01*
X118411000Y-57790000D02*
X118411000Y-59166000D01*
X118411000Y-54334000D02*
X118411000Y-55710000D01*
X118371000Y-57790000D02*
X118371000Y-59200000D01*
X118371000Y-54300000D02*
X118371000Y-55710000D01*
X118331000Y-57790000D02*
X118331000Y-59234000D01*
X118331000Y-54266000D02*
X118331000Y-55710000D01*
X118291000Y-57790000D02*
X118291000Y-59266000D01*
X118291000Y-54234000D02*
X118291000Y-55710000D01*
X118251000Y-57790000D02*
X118251000Y-59298000D01*
X118251000Y-54202000D02*
X118251000Y-55710000D01*
X118211000Y-57790000D02*
X118211000Y-59328000D01*
X118211000Y-54172000D02*
X118211000Y-55710000D01*
X118171000Y-57790000D02*
X118171000Y-59357000D01*
X118171000Y-54143000D02*
X118171000Y-55710000D01*
X118131000Y-57790000D02*
X118131000Y-59386000D01*
X118131000Y-54114000D02*
X118131000Y-55710000D01*
X118091000Y-57790000D02*
X118091000Y-59414000D01*
X118091000Y-54086000D02*
X118091000Y-55710000D01*
X118051000Y-57790000D02*
X118051000Y-59440000D01*
X118051000Y-54060000D02*
X118051000Y-55710000D01*
X118011000Y-57790000D02*
X118011000Y-59466000D01*
X118011000Y-54034000D02*
X118011000Y-55710000D01*
X117971000Y-57790000D02*
X117971000Y-59492000D01*
X117971000Y-54008000D02*
X117971000Y-55710000D01*
X117931000Y-57790000D02*
X117931000Y-59516000D01*
X117931000Y-53984000D02*
X117931000Y-55710000D01*
X117891000Y-57790000D02*
X117891000Y-59540000D01*
X117891000Y-53960000D02*
X117891000Y-55710000D01*
X117851000Y-57790000D02*
X117851000Y-59562000D01*
X117851000Y-53938000D02*
X117851000Y-55710000D01*
X117811000Y-57790000D02*
X117811000Y-59584000D01*
X117811000Y-53916000D02*
X117811000Y-55710000D01*
X117771000Y-57790000D02*
X117771000Y-59606000D01*
X117771000Y-53894000D02*
X117771000Y-55710000D01*
X117731000Y-57790000D02*
X117731000Y-59626000D01*
X117731000Y-53874000D02*
X117731000Y-55710000D01*
X117691000Y-57790000D02*
X117691000Y-59646000D01*
X117691000Y-53854000D02*
X117691000Y-55710000D01*
X117651000Y-57790000D02*
X117651000Y-59666000D01*
X117651000Y-53834000D02*
X117651000Y-55710000D01*
X117611000Y-57790000D02*
X117611000Y-59684000D01*
X117611000Y-53816000D02*
X117611000Y-55710000D01*
X117571000Y-57790000D02*
X117571000Y-59702000D01*
X117571000Y-53798000D02*
X117571000Y-55710000D01*
X117531000Y-57790000D02*
X117531000Y-59720000D01*
X117531000Y-53780000D02*
X117531000Y-55710000D01*
X117491000Y-57790000D02*
X117491000Y-59736000D01*
X117491000Y-53764000D02*
X117491000Y-55710000D01*
X117451000Y-57790000D02*
X117451000Y-59752000D01*
X117451000Y-53748000D02*
X117451000Y-55710000D01*
X117411000Y-57790000D02*
X117411000Y-59768000D01*
X117411000Y-53732000D02*
X117411000Y-55710000D01*
X117371000Y-57790000D02*
X117371000Y-59783000D01*
X117371000Y-53717000D02*
X117371000Y-55710000D01*
X117331000Y-57790000D02*
X117331000Y-59797000D01*
X117331000Y-53703000D02*
X117331000Y-55710000D01*
X117291000Y-57790000D02*
X117291000Y-59811000D01*
X117291000Y-53689000D02*
X117291000Y-55710000D01*
X117251000Y-57790000D02*
X117251000Y-59824000D01*
X117251000Y-53676000D02*
X117251000Y-55710000D01*
X117211000Y-57790000D02*
X117211000Y-59836000D01*
X117211000Y-53664000D02*
X117211000Y-55710000D01*
X117171000Y-57790000D02*
X117171000Y-59848000D01*
X117171000Y-53652000D02*
X117171000Y-55710000D01*
X117131000Y-57790000D02*
X117131000Y-59860000D01*
X117131000Y-53640000D02*
X117131000Y-55710000D01*
X117091000Y-57790000D02*
X117091000Y-59871000D01*
X117091000Y-53629000D02*
X117091000Y-55710000D01*
X117051000Y-57790000D02*
X117051000Y-59881000D01*
X117051000Y-53619000D02*
X117051000Y-55710000D01*
X117011000Y-57790000D02*
X117011000Y-59891000D01*
X117011000Y-53609000D02*
X117011000Y-55710000D01*
X116971000Y-57790000D02*
X116971000Y-59900000D01*
X116971000Y-53600000D02*
X116971000Y-55710000D01*
X116930000Y-57790000D02*
X116930000Y-59909000D01*
X116930000Y-53591000D02*
X116930000Y-55710000D01*
X116890000Y-57790000D02*
X116890000Y-59917000D01*
X116890000Y-53583000D02*
X116890000Y-55710000D01*
X116850000Y-57790000D02*
X116850000Y-59925000D01*
X116850000Y-53575000D02*
X116850000Y-55710000D01*
X116810000Y-57790000D02*
X116810000Y-59932000D01*
X116810000Y-53568000D02*
X116810000Y-55710000D01*
X116770000Y-57790000D02*
X116770000Y-59939000D01*
X116770000Y-53561000D02*
X116770000Y-55710000D01*
X116730000Y-57790000D02*
X116730000Y-59945000D01*
X116730000Y-53555000D02*
X116730000Y-55710000D01*
X116690000Y-57790000D02*
X116690000Y-59951000D01*
X116690000Y-53549000D02*
X116690000Y-55710000D01*
X116650000Y-57790000D02*
X116650000Y-59956000D01*
X116650000Y-53544000D02*
X116650000Y-55710000D01*
X116610000Y-57790000D02*
X116610000Y-59961000D01*
X116610000Y-53539000D02*
X116610000Y-55710000D01*
X116570000Y-57790000D02*
X116570000Y-59965000D01*
X116570000Y-53535000D02*
X116570000Y-55710000D01*
X116530000Y-57790000D02*
X116530000Y-59968000D01*
X116530000Y-53532000D02*
X116530000Y-55710000D01*
X116490000Y-57790000D02*
X116490000Y-59972000D01*
X116490000Y-53528000D02*
X116490000Y-55710000D01*
X116450000Y-53526000D02*
X116450000Y-59974000D01*
X116410000Y-53523000D02*
X116410000Y-59977000D01*
X116370000Y-53522000D02*
X116370000Y-59978000D01*
X116330000Y-53520000D02*
X116330000Y-59980000D01*
X116290000Y-53520000D02*
X116290000Y-59980000D01*
X116250000Y-53520000D02*
X116250000Y-59980000D01*
X119520000Y-56750000D02*
G75*
G03X119520000Y-56750000I-3270000J0D01*
G01*
X127064759Y-54596000D02*
X127064759Y-55226000D01*
X126749759Y-54911000D02*
X127379759Y-54911000D01*
X133491000Y-56348000D02*
X133491000Y-57152000D01*
X133451000Y-56117000D02*
X133451000Y-57383000D01*
X133411000Y-55948000D02*
X133411000Y-57552000D01*
X133371000Y-55810000D02*
X133371000Y-57690000D01*
X133331000Y-55691000D02*
X133331000Y-57809000D01*
X133291000Y-55585000D02*
X133291000Y-57915000D01*
X133251000Y-55488000D02*
X133251000Y-58012000D01*
X133211000Y-55400000D02*
X133211000Y-58100000D01*
X133171000Y-55318000D02*
X133171000Y-58182000D01*
X133131000Y-55241000D02*
X133131000Y-58259000D01*
X133091000Y-55169000D02*
X133091000Y-58331000D01*
X133051000Y-55100000D02*
X133051000Y-58400000D01*
X133011000Y-55036000D02*
X133011000Y-58464000D01*
X132971000Y-54974000D02*
X132971000Y-58526000D01*
X132931000Y-54916000D02*
X132931000Y-58584000D01*
X132891000Y-54860000D02*
X132891000Y-58640000D01*
X132851000Y-54806000D02*
X132851000Y-58694000D01*
X132811000Y-54755000D02*
X132811000Y-58745000D01*
X132771000Y-54706000D02*
X132771000Y-58794000D01*
X132731000Y-54658000D02*
X132731000Y-58842000D01*
X132691000Y-54613000D02*
X132691000Y-58887000D01*
X132651000Y-54568000D02*
X132651000Y-58932000D01*
X132611000Y-54526000D02*
X132611000Y-58974000D01*
X132571000Y-54485000D02*
X132571000Y-59015000D01*
X132531000Y-57790000D02*
X132531000Y-59055000D01*
X132531000Y-54445000D02*
X132531000Y-55710000D01*
X132491000Y-57790000D02*
X132491000Y-59093000D01*
X132491000Y-54407000D02*
X132491000Y-55710000D01*
X132451000Y-57790000D02*
X132451000Y-59130000D01*
X132451000Y-54370000D02*
X132451000Y-55710000D01*
X132411000Y-57790000D02*
X132411000Y-59166000D01*
X132411000Y-54334000D02*
X132411000Y-55710000D01*
X132371000Y-57790000D02*
X132371000Y-59200000D01*
X132371000Y-54300000D02*
X132371000Y-55710000D01*
X132331000Y-57790000D02*
X132331000Y-59234000D01*
X132331000Y-54266000D02*
X132331000Y-55710000D01*
X132291000Y-57790000D02*
X132291000Y-59266000D01*
X132291000Y-54234000D02*
X132291000Y-55710000D01*
X132251000Y-57790000D02*
X132251000Y-59298000D01*
X132251000Y-54202000D02*
X132251000Y-55710000D01*
X132211000Y-57790000D02*
X132211000Y-59328000D01*
X132211000Y-54172000D02*
X132211000Y-55710000D01*
X132171000Y-57790000D02*
X132171000Y-59357000D01*
X132171000Y-54143000D02*
X132171000Y-55710000D01*
X132131000Y-57790000D02*
X132131000Y-59386000D01*
X132131000Y-54114000D02*
X132131000Y-55710000D01*
X132091000Y-57790000D02*
X132091000Y-59414000D01*
X132091000Y-54086000D02*
X132091000Y-55710000D01*
X132051000Y-57790000D02*
X132051000Y-59440000D01*
X132051000Y-54060000D02*
X132051000Y-55710000D01*
X132011000Y-57790000D02*
X132011000Y-59466000D01*
X132011000Y-54034000D02*
X132011000Y-55710000D01*
X131971000Y-57790000D02*
X131971000Y-59492000D01*
X131971000Y-54008000D02*
X131971000Y-55710000D01*
X131931000Y-57790000D02*
X131931000Y-59516000D01*
X131931000Y-53984000D02*
X131931000Y-55710000D01*
X131891000Y-57790000D02*
X131891000Y-59540000D01*
X131891000Y-53960000D02*
X131891000Y-55710000D01*
X131851000Y-57790000D02*
X131851000Y-59562000D01*
X131851000Y-53938000D02*
X131851000Y-55710000D01*
X131811000Y-57790000D02*
X131811000Y-59584000D01*
X131811000Y-53916000D02*
X131811000Y-55710000D01*
X131771000Y-57790000D02*
X131771000Y-59606000D01*
X131771000Y-53894000D02*
X131771000Y-55710000D01*
X131731000Y-57790000D02*
X131731000Y-59626000D01*
X131731000Y-53874000D02*
X131731000Y-55710000D01*
X131691000Y-57790000D02*
X131691000Y-59646000D01*
X131691000Y-53854000D02*
X131691000Y-55710000D01*
X131651000Y-57790000D02*
X131651000Y-59666000D01*
X131651000Y-53834000D02*
X131651000Y-55710000D01*
X131611000Y-57790000D02*
X131611000Y-59684000D01*
X131611000Y-53816000D02*
X131611000Y-55710000D01*
X131571000Y-57790000D02*
X131571000Y-59702000D01*
X131571000Y-53798000D02*
X131571000Y-55710000D01*
X131531000Y-57790000D02*
X131531000Y-59720000D01*
X131531000Y-53780000D02*
X131531000Y-55710000D01*
X131491000Y-57790000D02*
X131491000Y-59736000D01*
X131491000Y-53764000D02*
X131491000Y-55710000D01*
X131451000Y-57790000D02*
X131451000Y-59752000D01*
X131451000Y-53748000D02*
X131451000Y-55710000D01*
X131411000Y-57790000D02*
X131411000Y-59768000D01*
X131411000Y-53732000D02*
X131411000Y-55710000D01*
X131371000Y-57790000D02*
X131371000Y-59783000D01*
X131371000Y-53717000D02*
X131371000Y-55710000D01*
X131331000Y-57790000D02*
X131331000Y-59797000D01*
X131331000Y-53703000D02*
X131331000Y-55710000D01*
X131291000Y-57790000D02*
X131291000Y-59811000D01*
X131291000Y-53689000D02*
X131291000Y-55710000D01*
X131251000Y-57790000D02*
X131251000Y-59824000D01*
X131251000Y-53676000D02*
X131251000Y-55710000D01*
X131211000Y-57790000D02*
X131211000Y-59836000D01*
X131211000Y-53664000D02*
X131211000Y-55710000D01*
X131171000Y-57790000D02*
X131171000Y-59848000D01*
X131171000Y-53652000D02*
X131171000Y-55710000D01*
X131131000Y-57790000D02*
X131131000Y-59860000D01*
X131131000Y-53640000D02*
X131131000Y-55710000D01*
X131091000Y-57790000D02*
X131091000Y-59871000D01*
X131091000Y-53629000D02*
X131091000Y-55710000D01*
X131051000Y-57790000D02*
X131051000Y-59881000D01*
X131051000Y-53619000D02*
X131051000Y-55710000D01*
X131011000Y-57790000D02*
X131011000Y-59891000D01*
X131011000Y-53609000D02*
X131011000Y-55710000D01*
X130971000Y-57790000D02*
X130971000Y-59900000D01*
X130971000Y-53600000D02*
X130971000Y-55710000D01*
X130930000Y-57790000D02*
X130930000Y-59909000D01*
X130930000Y-53591000D02*
X130930000Y-55710000D01*
X130890000Y-57790000D02*
X130890000Y-59917000D01*
X130890000Y-53583000D02*
X130890000Y-55710000D01*
X130850000Y-57790000D02*
X130850000Y-59925000D01*
X130850000Y-53575000D02*
X130850000Y-55710000D01*
X130810000Y-57790000D02*
X130810000Y-59932000D01*
X130810000Y-53568000D02*
X130810000Y-55710000D01*
X130770000Y-57790000D02*
X130770000Y-59939000D01*
X130770000Y-53561000D02*
X130770000Y-55710000D01*
X130730000Y-57790000D02*
X130730000Y-59945000D01*
X130730000Y-53555000D02*
X130730000Y-55710000D01*
X130690000Y-57790000D02*
X130690000Y-59951000D01*
X130690000Y-53549000D02*
X130690000Y-55710000D01*
X130650000Y-57790000D02*
X130650000Y-59956000D01*
X130650000Y-53544000D02*
X130650000Y-55710000D01*
X130610000Y-57790000D02*
X130610000Y-59961000D01*
X130610000Y-53539000D02*
X130610000Y-55710000D01*
X130570000Y-57790000D02*
X130570000Y-59965000D01*
X130570000Y-53535000D02*
X130570000Y-55710000D01*
X130530000Y-57790000D02*
X130530000Y-59968000D01*
X130530000Y-53532000D02*
X130530000Y-55710000D01*
X130490000Y-57790000D02*
X130490000Y-59972000D01*
X130490000Y-53528000D02*
X130490000Y-55710000D01*
X130450000Y-53526000D02*
X130450000Y-59974000D01*
X130410000Y-53523000D02*
X130410000Y-59977000D01*
X130370000Y-53522000D02*
X130370000Y-59978000D01*
X130330000Y-53520000D02*
X130330000Y-59980000D01*
X130290000Y-53520000D02*
X130290000Y-59980000D01*
X130250000Y-53520000D02*
X130250000Y-59980000D01*
X133520000Y-56750000D02*
G75*
G03X133520000Y-56750000I-3270000J0D01*
G01*
X134064759Y-54596000D02*
X134064759Y-55226000D01*
X133749759Y-54911000D02*
X134379759Y-54911000D01*
X140491000Y-56348000D02*
X140491000Y-57152000D01*
X140451000Y-56117000D02*
X140451000Y-57383000D01*
X140411000Y-55948000D02*
X140411000Y-57552000D01*
X140371000Y-55810000D02*
X140371000Y-57690000D01*
X140331000Y-55691000D02*
X140331000Y-57809000D01*
X140291000Y-55585000D02*
X140291000Y-57915000D01*
X140251000Y-55488000D02*
X140251000Y-58012000D01*
X140211000Y-55400000D02*
X140211000Y-58100000D01*
X140171000Y-55318000D02*
X140171000Y-58182000D01*
X140131000Y-55241000D02*
X140131000Y-58259000D01*
X140091000Y-55169000D02*
X140091000Y-58331000D01*
X140051000Y-55100000D02*
X140051000Y-58400000D01*
X140011000Y-55036000D02*
X140011000Y-58464000D01*
X139971000Y-54974000D02*
X139971000Y-58526000D01*
X139931000Y-54916000D02*
X139931000Y-58584000D01*
X139891000Y-54860000D02*
X139891000Y-58640000D01*
X139851000Y-54806000D02*
X139851000Y-58694000D01*
X139811000Y-54755000D02*
X139811000Y-58745000D01*
X139771000Y-54706000D02*
X139771000Y-58794000D01*
X139731000Y-54658000D02*
X139731000Y-58842000D01*
X139691000Y-54613000D02*
X139691000Y-58887000D01*
X139651000Y-54568000D02*
X139651000Y-58932000D01*
X139611000Y-54526000D02*
X139611000Y-58974000D01*
X139571000Y-54485000D02*
X139571000Y-59015000D01*
X139531000Y-57790000D02*
X139531000Y-59055000D01*
X139531000Y-54445000D02*
X139531000Y-55710000D01*
X139491000Y-57790000D02*
X139491000Y-59093000D01*
X139491000Y-54407000D02*
X139491000Y-55710000D01*
X139451000Y-57790000D02*
X139451000Y-59130000D01*
X139451000Y-54370000D02*
X139451000Y-55710000D01*
X139411000Y-57790000D02*
X139411000Y-59166000D01*
X139411000Y-54334000D02*
X139411000Y-55710000D01*
X139371000Y-57790000D02*
X139371000Y-59200000D01*
X139371000Y-54300000D02*
X139371000Y-55710000D01*
X139331000Y-57790000D02*
X139331000Y-59234000D01*
X139331000Y-54266000D02*
X139331000Y-55710000D01*
X139291000Y-57790000D02*
X139291000Y-59266000D01*
X139291000Y-54234000D02*
X139291000Y-55710000D01*
X139251000Y-57790000D02*
X139251000Y-59298000D01*
X139251000Y-54202000D02*
X139251000Y-55710000D01*
X139211000Y-57790000D02*
X139211000Y-59328000D01*
X139211000Y-54172000D02*
X139211000Y-55710000D01*
X139171000Y-57790000D02*
X139171000Y-59357000D01*
X139171000Y-54143000D02*
X139171000Y-55710000D01*
X139131000Y-57790000D02*
X139131000Y-59386000D01*
X139131000Y-54114000D02*
X139131000Y-55710000D01*
X139091000Y-57790000D02*
X139091000Y-59414000D01*
X139091000Y-54086000D02*
X139091000Y-55710000D01*
X139051000Y-57790000D02*
X139051000Y-59440000D01*
X139051000Y-54060000D02*
X139051000Y-55710000D01*
X139011000Y-57790000D02*
X139011000Y-59466000D01*
X139011000Y-54034000D02*
X139011000Y-55710000D01*
X138971000Y-57790000D02*
X138971000Y-59492000D01*
X138971000Y-54008000D02*
X138971000Y-55710000D01*
X138931000Y-57790000D02*
X138931000Y-59516000D01*
X138931000Y-53984000D02*
X138931000Y-55710000D01*
X138891000Y-57790000D02*
X138891000Y-59540000D01*
X138891000Y-53960000D02*
X138891000Y-55710000D01*
X138851000Y-57790000D02*
X138851000Y-59562000D01*
X138851000Y-53938000D02*
X138851000Y-55710000D01*
X138811000Y-57790000D02*
X138811000Y-59584000D01*
X138811000Y-53916000D02*
X138811000Y-55710000D01*
X138771000Y-57790000D02*
X138771000Y-59606000D01*
X138771000Y-53894000D02*
X138771000Y-55710000D01*
X138731000Y-57790000D02*
X138731000Y-59626000D01*
X138731000Y-53874000D02*
X138731000Y-55710000D01*
X138691000Y-57790000D02*
X138691000Y-59646000D01*
X138691000Y-53854000D02*
X138691000Y-55710000D01*
X138651000Y-57790000D02*
X138651000Y-59666000D01*
X138651000Y-53834000D02*
X138651000Y-55710000D01*
X138611000Y-57790000D02*
X138611000Y-59684000D01*
X138611000Y-53816000D02*
X138611000Y-55710000D01*
X138571000Y-57790000D02*
X138571000Y-59702000D01*
X138571000Y-53798000D02*
X138571000Y-55710000D01*
X138531000Y-57790000D02*
X138531000Y-59720000D01*
X138531000Y-53780000D02*
X138531000Y-55710000D01*
X138491000Y-57790000D02*
X138491000Y-59736000D01*
X138491000Y-53764000D02*
X138491000Y-55710000D01*
X138451000Y-57790000D02*
X138451000Y-59752000D01*
X138451000Y-53748000D02*
X138451000Y-55710000D01*
X138411000Y-57790000D02*
X138411000Y-59768000D01*
X138411000Y-53732000D02*
X138411000Y-55710000D01*
X138371000Y-57790000D02*
X138371000Y-59783000D01*
X138371000Y-53717000D02*
X138371000Y-55710000D01*
X138331000Y-57790000D02*
X138331000Y-59797000D01*
X138331000Y-53703000D02*
X138331000Y-55710000D01*
X138291000Y-57790000D02*
X138291000Y-59811000D01*
X138291000Y-53689000D02*
X138291000Y-55710000D01*
X138251000Y-57790000D02*
X138251000Y-59824000D01*
X138251000Y-53676000D02*
X138251000Y-55710000D01*
X138211000Y-57790000D02*
X138211000Y-59836000D01*
X138211000Y-53664000D02*
X138211000Y-55710000D01*
X138171000Y-57790000D02*
X138171000Y-59848000D01*
X138171000Y-53652000D02*
X138171000Y-55710000D01*
X138131000Y-57790000D02*
X138131000Y-59860000D01*
X138131000Y-53640000D02*
X138131000Y-55710000D01*
X138091000Y-57790000D02*
X138091000Y-59871000D01*
X138091000Y-53629000D02*
X138091000Y-55710000D01*
X138051000Y-57790000D02*
X138051000Y-59881000D01*
X138051000Y-53619000D02*
X138051000Y-55710000D01*
X138011000Y-57790000D02*
X138011000Y-59891000D01*
X138011000Y-53609000D02*
X138011000Y-55710000D01*
X137971000Y-57790000D02*
X137971000Y-59900000D01*
X137971000Y-53600000D02*
X137971000Y-55710000D01*
X137930000Y-57790000D02*
X137930000Y-59909000D01*
X137930000Y-53591000D02*
X137930000Y-55710000D01*
X137890000Y-57790000D02*
X137890000Y-59917000D01*
X137890000Y-53583000D02*
X137890000Y-55710000D01*
X137850000Y-57790000D02*
X137850000Y-59925000D01*
X137850000Y-53575000D02*
X137850000Y-55710000D01*
X137810000Y-57790000D02*
X137810000Y-59932000D01*
X137810000Y-53568000D02*
X137810000Y-55710000D01*
X137770000Y-57790000D02*
X137770000Y-59939000D01*
X137770000Y-53561000D02*
X137770000Y-55710000D01*
X137730000Y-57790000D02*
X137730000Y-59945000D01*
X137730000Y-53555000D02*
X137730000Y-55710000D01*
X137690000Y-57790000D02*
X137690000Y-59951000D01*
X137690000Y-53549000D02*
X137690000Y-55710000D01*
X137650000Y-57790000D02*
X137650000Y-59956000D01*
X137650000Y-53544000D02*
X137650000Y-55710000D01*
X137610000Y-57790000D02*
X137610000Y-59961000D01*
X137610000Y-53539000D02*
X137610000Y-55710000D01*
X137570000Y-57790000D02*
X137570000Y-59965000D01*
X137570000Y-53535000D02*
X137570000Y-55710000D01*
X137530000Y-57790000D02*
X137530000Y-59968000D01*
X137530000Y-53532000D02*
X137530000Y-55710000D01*
X137490000Y-57790000D02*
X137490000Y-59972000D01*
X137490000Y-53528000D02*
X137490000Y-55710000D01*
X137450000Y-53526000D02*
X137450000Y-59974000D01*
X137410000Y-53523000D02*
X137410000Y-59977000D01*
X137370000Y-53522000D02*
X137370000Y-59978000D01*
X137330000Y-53520000D02*
X137330000Y-59980000D01*
X137290000Y-53520000D02*
X137290000Y-59980000D01*
X137250000Y-53520000D02*
X137250000Y-59980000D01*
X140520000Y-56750000D02*
G75*
G03X140520000Y-56750000I-3270000J0D01*
G01*
X169045000Y-92765000D02*
X169045000Y-94015000D01*
X194565000Y-92765000D02*
X169045000Y-92765000D01*
X194565000Y-97265000D02*
X194565000Y-92765000D01*
X169045000Y-97265000D02*
X194565000Y-97265000D01*
X169045000Y-96015000D02*
X169045000Y-97265000D01*
X169045000Y-94015000D02*
G75*
G02X169045000Y-96015000I0J-1000000D01*
G01*
X120488478Y-66638478D02*
G75*
G03X118650000Y-62200000I-1838478J1838478D01*
G01*
X116811522Y-66638478D02*
G75*
G02X118650000Y-62200000I1838478J1838478D01*
G01*
X116850000Y-66650000D02*
X120450000Y-66650000D01*
X174660000Y-64410000D02*
X164160000Y-64410000D01*
X174660000Y-87510000D02*
X174660000Y-64410000D01*
X164160000Y-87510000D02*
X174660000Y-87510000D01*
X164160000Y-64410000D02*
X164160000Y-87510000D01*
X171660000Y-64470000D02*
X170410000Y-64470000D01*
X171660000Y-87450000D02*
X171660000Y-64470000D01*
X167160000Y-87450000D02*
X171660000Y-87450000D01*
X167160000Y-64470000D02*
X167160000Y-87450000D01*
X168410000Y-64470000D02*
X167160000Y-64470000D01*
X170410000Y-64470000D02*
G75*
G02X168410000Y-64470000I-1000000J0D01*
G01*
X174660000Y-38810000D02*
X164160000Y-38810000D01*
X174660000Y-61910000D02*
X174660000Y-38810000D01*
X164160000Y-61910000D02*
X174660000Y-61910000D01*
X164160000Y-38810000D02*
X164160000Y-61910000D01*
X171660000Y-38870000D02*
X170410000Y-38870000D01*
X171660000Y-61850000D02*
X171660000Y-38870000D01*
X167160000Y-61850000D02*
X171660000Y-61850000D01*
X167160000Y-38870000D02*
X167160000Y-61850000D01*
X168410000Y-38870000D02*
X167160000Y-38870000D01*
X170410000Y-38870000D02*
G75*
G02X168410000Y-38870000I-1000000J0D01*
G01*
X186460000Y-64410000D02*
X175960000Y-64410000D01*
X186460000Y-87510000D02*
X186460000Y-64410000D01*
X175960000Y-87510000D02*
X186460000Y-87510000D01*
X175960000Y-64410000D02*
X175960000Y-87510000D01*
X183460000Y-64470000D02*
X182210000Y-64470000D01*
X183460000Y-87450000D02*
X183460000Y-64470000D01*
X178960000Y-87450000D02*
X183460000Y-87450000D01*
X178960000Y-64470000D02*
X178960000Y-87450000D01*
X180210000Y-64470000D02*
X178960000Y-64470000D01*
X182210000Y-64470000D02*
G75*
G02X180210000Y-64470000I-1000000J0D01*
G01*
X186460000Y-38810000D02*
X175960000Y-38810000D01*
X186460000Y-61910000D02*
X186460000Y-38810000D01*
X175960000Y-61910000D02*
X186460000Y-61910000D01*
X175960000Y-38810000D02*
X175960000Y-61910000D01*
X183460000Y-38870000D02*
X182210000Y-38870000D01*
X183460000Y-61850000D02*
X183460000Y-38870000D01*
X178960000Y-61850000D02*
X183460000Y-61850000D01*
X178960000Y-38870000D02*
X178960000Y-61850000D01*
X180210000Y-38870000D02*
X178960000Y-38870000D01*
X182210000Y-38870000D02*
G75*
G02X180210000Y-38870000I-1000000J0D01*
G01*
X198660000Y-64210000D02*
X188160000Y-64210000D01*
X198660000Y-87310000D02*
X198660000Y-64210000D01*
X188160000Y-87310000D02*
X198660000Y-87310000D01*
X188160000Y-64210000D02*
X188160000Y-87310000D01*
X195660000Y-64270000D02*
X194410000Y-64270000D01*
X195660000Y-87250000D02*
X195660000Y-64270000D01*
X191160000Y-87250000D02*
X195660000Y-87250000D01*
X191160000Y-64270000D02*
X191160000Y-87250000D01*
X192410000Y-64270000D02*
X191160000Y-64270000D01*
X194410000Y-64270000D02*
G75*
G02X192410000Y-64270000I-1000000J0D01*
G01*
X198660000Y-38810000D02*
X188160000Y-38810000D01*
X198660000Y-61910000D02*
X198660000Y-38810000D01*
X188160000Y-61910000D02*
X198660000Y-61910000D01*
X188160000Y-38810000D02*
X188160000Y-61910000D01*
X195660000Y-38870000D02*
X194410000Y-38870000D01*
X195660000Y-61850000D02*
X195660000Y-38870000D01*
X191160000Y-61850000D02*
X195660000Y-61850000D01*
X191160000Y-38870000D02*
X191160000Y-61850000D01*
X192410000Y-38870000D02*
X191160000Y-38870000D01*
X194410000Y-38870000D02*
G75*
G02X192410000Y-38870000I-1000000J0D01*
G01*
D13*
X135857000Y-87046000D02*
G75*
G03X136111000Y-87300000I254000J0D01*
G01*
X138143000Y-87046000D02*
G75*
G02X137889000Y-87300000I-254000J0D01*
G01*
X137889000Y-80950000D02*
G75*
G02X138143000Y-81204000I0J-254000D01*
G01*
X136111000Y-80950000D02*
G75*
G03X135857000Y-81204000I0J-254000D01*
G01*
X137889000Y-87300000D02*
X136111000Y-87300000D01*
X135857000Y-87046000D02*
X135857000Y-86665000D01*
X135984000Y-86538000D02*
X135857000Y-86665000D01*
X138143000Y-87046000D02*
X138143000Y-86665000D01*
X138016000Y-86538000D02*
X138143000Y-86665000D01*
X135984000Y-81712000D02*
X135857000Y-81585000D01*
X135984000Y-81712000D02*
X135984000Y-86538000D01*
X138016000Y-81712000D02*
X138143000Y-81585000D01*
X138016000Y-81712000D02*
X138016000Y-86538000D01*
X135857000Y-81204000D02*
X135857000Y-81585000D01*
X138143000Y-81204000D02*
X138143000Y-81585000D01*
X137889000Y-80950000D02*
X136111000Y-80950000D01*
D14*
G36*
X137304800Y-80950000D02*
G01*
X137304800Y-80086400D01*
X136695200Y-80086400D01*
X136695200Y-80950000D01*
X137304800Y-80950000D01*
G37*
G36*
X137304800Y-88163600D02*
G01*
X137304800Y-87300000D01*
X136695200Y-87300000D01*
X136695200Y-88163600D01*
X137304800Y-88163600D01*
G37*
D13*
X123083384Y-93879000D02*
G75*
G03X122829384Y-93625000I-254000J0D01*
G01*
X120797384Y-93879000D02*
G75*
G02X121051384Y-93625000I254000J0D01*
G01*
X121051384Y-99975000D02*
G75*
G02X120797384Y-99721000I0J254000D01*
G01*
X122829384Y-99975000D02*
G75*
G03X123083384Y-99721000I0J254000D01*
G01*
X121051384Y-93625000D02*
X122829384Y-93625000D01*
X123083384Y-93879000D02*
X123083384Y-94260000D01*
X122956384Y-94387000D02*
X123083384Y-94260000D01*
X120797384Y-93879000D02*
X120797384Y-94260000D01*
X120924384Y-94387000D02*
X120797384Y-94260000D01*
X122956384Y-99213000D02*
X123083384Y-99340000D01*
X122956384Y-99213000D02*
X122956384Y-94387000D01*
X120924384Y-99213000D02*
X120797384Y-99340000D01*
X120924384Y-99213000D02*
X120924384Y-94387000D01*
X123083384Y-99721000D02*
X123083384Y-99340000D01*
X120797384Y-99721000D02*
X120797384Y-99340000D01*
X121051384Y-99975000D02*
X122829384Y-99975000D01*
D14*
G36*
X121635584Y-99975000D02*
G01*
X121635584Y-100838600D01*
X122245184Y-100838600D01*
X122245184Y-99975000D01*
X121635584Y-99975000D01*
G37*
G36*
X121635584Y-92761400D02*
G01*
X121635584Y-93625000D01*
X122245184Y-93625000D01*
X122245184Y-92761400D01*
X121635584Y-92761400D01*
G37*
D13*
X123562768Y-99771000D02*
G75*
G03X123816768Y-100025000I254000J0D01*
G01*
X125848768Y-99771000D02*
G75*
G02X125594768Y-100025000I-254000J0D01*
G01*
X125594768Y-93675000D02*
G75*
G02X125848768Y-93929000I0J-254000D01*
G01*
X123816768Y-93675000D02*
G75*
G03X123562768Y-93929000I0J-254000D01*
G01*
X125594768Y-100025000D02*
X123816768Y-100025000D01*
X123562768Y-99771000D02*
X123562768Y-99390000D01*
X123689768Y-99263000D02*
X123562768Y-99390000D01*
X125848768Y-99771000D02*
X125848768Y-99390000D01*
X125721768Y-99263000D02*
X125848768Y-99390000D01*
X123689768Y-94437000D02*
X123562768Y-94310000D01*
X123689768Y-94437000D02*
X123689768Y-99263000D01*
X125721768Y-94437000D02*
X125848768Y-94310000D01*
X125721768Y-94437000D02*
X125721768Y-99263000D01*
X123562768Y-93929000D02*
X123562768Y-94310000D01*
X125848768Y-93929000D02*
X125848768Y-94310000D01*
X125594768Y-93675000D02*
X123816768Y-93675000D01*
D14*
G36*
X125010568Y-93675000D02*
G01*
X125010568Y-92811400D01*
X124400968Y-92811400D01*
X124400968Y-93675000D01*
X125010568Y-93675000D01*
G37*
G36*
X125010568Y-100888600D02*
G01*
X125010568Y-100025000D01*
X124400968Y-100025000D01*
X124400968Y-100888600D01*
X125010568Y-100888600D01*
G37*
D13*
X118032000Y-99771000D02*
G75*
G03X118286000Y-100025000I254000J0D01*
G01*
X120318000Y-99771000D02*
G75*
G02X120064000Y-100025000I-254000J0D01*
G01*
X120064000Y-93675000D02*
G75*
G02X120318000Y-93929000I0J-254000D01*
G01*
X118286000Y-93675000D02*
G75*
G03X118032000Y-93929000I0J-254000D01*
G01*
X120064000Y-100025000D02*
X118286000Y-100025000D01*
X118032000Y-99771000D02*
X118032000Y-99390000D01*
X118159000Y-99263000D02*
X118032000Y-99390000D01*
X120318000Y-99771000D02*
X120318000Y-99390000D01*
X120191000Y-99263000D02*
X120318000Y-99390000D01*
X118159000Y-94437000D02*
X118032000Y-94310000D01*
X118159000Y-94437000D02*
X118159000Y-99263000D01*
X120191000Y-94437000D02*
X120318000Y-94310000D01*
X120191000Y-94437000D02*
X120191000Y-99263000D01*
X118032000Y-93929000D02*
X118032000Y-94310000D01*
X120318000Y-93929000D02*
X120318000Y-94310000D01*
X120064000Y-93675000D02*
X118286000Y-93675000D01*
D14*
G36*
X119479800Y-93675000D02*
G01*
X119479800Y-92811400D01*
X118870200Y-92811400D01*
X118870200Y-93675000D01*
X119479800Y-93675000D01*
G37*
G36*
X119479800Y-100888600D02*
G01*
X119479800Y-100025000D01*
X118870200Y-100025000D01*
X118870200Y-100888600D01*
X119479800Y-100888600D01*
G37*
D13*
X133091608Y-86996000D02*
G75*
G03X133345608Y-87250000I254000J0D01*
G01*
X135377608Y-86996000D02*
G75*
G02X135123608Y-87250000I-254000J0D01*
G01*
X135123608Y-80900000D02*
G75*
G02X135377608Y-81154000I0J-254000D01*
G01*
X133345608Y-80900000D02*
G75*
G03X133091608Y-81154000I0J-254000D01*
G01*
X135123608Y-87250000D02*
X133345608Y-87250000D01*
X133091608Y-86996000D02*
X133091608Y-86615000D01*
X133218608Y-86488000D02*
X133091608Y-86615000D01*
X135377608Y-86996000D02*
X135377608Y-86615000D01*
X135250608Y-86488000D02*
X135377608Y-86615000D01*
X133218608Y-81662000D02*
X133091608Y-81535000D01*
X133218608Y-81662000D02*
X133218608Y-86488000D01*
X135250608Y-81662000D02*
X135377608Y-81535000D01*
X135250608Y-81662000D02*
X135250608Y-86488000D01*
X133091608Y-81154000D02*
X133091608Y-81535000D01*
X135377608Y-81154000D02*
X135377608Y-81535000D01*
X135123608Y-80900000D02*
X133345608Y-80900000D01*
D14*
G36*
X134539408Y-80900000D02*
G01*
X134539408Y-80036400D01*
X133929808Y-80036400D01*
X133929808Y-80900000D01*
X134539408Y-80900000D01*
G37*
G36*
X134539408Y-88113600D02*
G01*
X134539408Y-87250000D01*
X133929808Y-87250000D01*
X133929808Y-88113600D01*
X134539408Y-88113600D01*
G37*
D13*
X136910304Y-93829000D02*
G75*
G03X136656304Y-93575000I-254000J0D01*
G01*
X134624304Y-93829000D02*
G75*
G02X134878304Y-93575000I254000J0D01*
G01*
X134878304Y-99925000D02*
G75*
G02X134624304Y-99671000I0J254000D01*
G01*
X136656304Y-99925000D02*
G75*
G03X136910304Y-99671000I0J254000D01*
G01*
X134878304Y-93575000D02*
X136656304Y-93575000D01*
X136910304Y-93829000D02*
X136910304Y-94210000D01*
X136783304Y-94337000D02*
X136910304Y-94210000D01*
X134624304Y-93829000D02*
X134624304Y-94210000D01*
X134751304Y-94337000D02*
X134624304Y-94210000D01*
X136783304Y-99163000D02*
X136910304Y-99290000D01*
X136783304Y-99163000D02*
X136783304Y-94337000D01*
X134751304Y-99163000D02*
X134624304Y-99290000D01*
X134751304Y-99163000D02*
X134751304Y-94337000D01*
X136910304Y-99671000D02*
X136910304Y-99290000D01*
X134624304Y-99671000D02*
X134624304Y-99290000D01*
X134878304Y-99925000D02*
X136656304Y-99925000D01*
D14*
G36*
X135462504Y-99925000D02*
G01*
X135462504Y-100788600D01*
X136072104Y-100788600D01*
X136072104Y-99925000D01*
X135462504Y-99925000D01*
G37*
G36*
X135462504Y-92711400D02*
G01*
X135462504Y-93575000D01*
X136072104Y-93575000D01*
X136072104Y-92711400D01*
X135462504Y-92711400D01*
G37*
D13*
X131858920Y-99671000D02*
G75*
G03X132112920Y-99925000I254000J0D01*
G01*
X134144920Y-99671000D02*
G75*
G02X133890920Y-99925000I-254000J0D01*
G01*
X133890920Y-93575000D02*
G75*
G02X134144920Y-93829000I0J-254000D01*
G01*
X132112920Y-93575000D02*
G75*
G03X131858920Y-93829000I0J-254000D01*
G01*
X133890920Y-99925000D02*
X132112920Y-99925000D01*
X131858920Y-99671000D02*
X131858920Y-99290000D01*
X131985920Y-99163000D02*
X131858920Y-99290000D01*
X134144920Y-99671000D02*
X134144920Y-99290000D01*
X134017920Y-99163000D02*
X134144920Y-99290000D01*
X131985920Y-94337000D02*
X131858920Y-94210000D01*
X131985920Y-94337000D02*
X131985920Y-99163000D01*
X134017920Y-94337000D02*
X134144920Y-94210000D01*
X134017920Y-94337000D02*
X134017920Y-99163000D01*
X131858920Y-93829000D02*
X131858920Y-94210000D01*
X134144920Y-93829000D02*
X134144920Y-94210000D01*
X133890920Y-93575000D02*
X132112920Y-93575000D01*
D14*
G36*
X133306720Y-93575000D02*
G01*
X133306720Y-92711400D01*
X132697120Y-92711400D01*
X132697120Y-93575000D01*
X133306720Y-93575000D01*
G37*
G36*
X133306720Y-100788600D02*
G01*
X133306720Y-99925000D01*
X132697120Y-99925000D01*
X132697120Y-100788600D01*
X133306720Y-100788600D01*
G37*
D13*
X119264688Y-87071000D02*
G75*
G03X119518688Y-87325000I254000J0D01*
G01*
X121550688Y-87071000D02*
G75*
G02X121296688Y-87325000I-254000J0D01*
G01*
X121296688Y-80975000D02*
G75*
G02X121550688Y-81229000I0J-254000D01*
G01*
X119518688Y-80975000D02*
G75*
G03X119264688Y-81229000I0J-254000D01*
G01*
X121296688Y-87325000D02*
X119518688Y-87325000D01*
X119264688Y-87071000D02*
X119264688Y-86690000D01*
X119391688Y-86563000D02*
X119264688Y-86690000D01*
X121550688Y-87071000D02*
X121550688Y-86690000D01*
X121423688Y-86563000D02*
X121550688Y-86690000D01*
X119391688Y-81737000D02*
X119264688Y-81610000D01*
X119391688Y-81737000D02*
X119391688Y-86563000D01*
X121423688Y-81737000D02*
X121550688Y-81610000D01*
X121423688Y-81737000D02*
X121423688Y-86563000D01*
X119264688Y-81229000D02*
X119264688Y-81610000D01*
X121550688Y-81229000D02*
X121550688Y-81610000D01*
X121296688Y-80975000D02*
X119518688Y-80975000D01*
D14*
G36*
X120712488Y-80975000D02*
G01*
X120712488Y-80111400D01*
X120102888Y-80111400D01*
X120102888Y-80975000D01*
X120712488Y-80975000D01*
G37*
G36*
X120712488Y-88188600D02*
G01*
X120712488Y-87325000D01*
X120102888Y-87325000D01*
X120102888Y-88188600D01*
X120712488Y-88188600D01*
G37*
D13*
X122030072Y-87121000D02*
G75*
G03X122284072Y-87375000I254000J0D01*
G01*
X124316072Y-87121000D02*
G75*
G02X124062072Y-87375000I-254000J0D01*
G01*
X124062072Y-81025000D02*
G75*
G02X124316072Y-81279000I0J-254000D01*
G01*
X122284072Y-81025000D02*
G75*
G03X122030072Y-81279000I0J-254000D01*
G01*
X124062072Y-87375000D02*
X122284072Y-87375000D01*
X122030072Y-87121000D02*
X122030072Y-86740000D01*
X122157072Y-86613000D02*
X122030072Y-86740000D01*
X124316072Y-87121000D02*
X124316072Y-86740000D01*
X124189072Y-86613000D02*
X124316072Y-86740000D01*
X122157072Y-81787000D02*
X122030072Y-81660000D01*
X122157072Y-81787000D02*
X122157072Y-86613000D01*
X124189072Y-81787000D02*
X124316072Y-81660000D01*
X124189072Y-81787000D02*
X124189072Y-86613000D01*
X122030072Y-81279000D02*
X122030072Y-81660000D01*
X124316072Y-81279000D02*
X124316072Y-81660000D01*
X124062072Y-81025000D02*
X122284072Y-81025000D01*
D14*
G36*
X123477872Y-81025000D02*
G01*
X123477872Y-80161400D01*
X122868272Y-80161400D01*
X122868272Y-81025000D01*
X123477872Y-81025000D01*
G37*
G36*
X123477872Y-88238600D02*
G01*
X123477872Y-87375000D01*
X122868272Y-87375000D01*
X122868272Y-88238600D01*
X123477872Y-88238600D01*
G37*
D13*
X132612224Y-81154000D02*
G75*
G03X132358224Y-80900000I-254000J0D01*
G01*
X130326224Y-81154000D02*
G75*
G02X130580224Y-80900000I254000J0D01*
G01*
X130580224Y-87250000D02*
G75*
G02X130326224Y-86996000I0J254000D01*
G01*
X132358224Y-87250000D02*
G75*
G03X132612224Y-86996000I0J254000D01*
G01*
X130580224Y-80900000D02*
X132358224Y-80900000D01*
X132612224Y-81154000D02*
X132612224Y-81535000D01*
X132485224Y-81662000D02*
X132612224Y-81535000D01*
X130326224Y-81154000D02*
X130326224Y-81535000D01*
X130453224Y-81662000D02*
X130326224Y-81535000D01*
X132485224Y-86488000D02*
X132612224Y-86615000D01*
X132485224Y-86488000D02*
X132485224Y-81662000D01*
X130453224Y-86488000D02*
X130326224Y-86615000D01*
X130453224Y-86488000D02*
X130453224Y-81662000D01*
X132612224Y-86996000D02*
X132612224Y-86615000D01*
X130326224Y-86996000D02*
X130326224Y-86615000D01*
X130580224Y-87250000D02*
X132358224Y-87250000D01*
D14*
G36*
X131164424Y-87250000D02*
G01*
X131164424Y-88113600D01*
X131774024Y-88113600D01*
X131774024Y-87250000D01*
X131164424Y-87250000D01*
G37*
G36*
X131164424Y-80036400D02*
G01*
X131164424Y-80900000D01*
X131774024Y-80900000D01*
X131774024Y-80036400D01*
X131164424Y-80036400D01*
G37*
D13*
X127560840Y-87071000D02*
G75*
G03X127814840Y-87325000I254000J0D01*
G01*
X129846840Y-87071000D02*
G75*
G02X129592840Y-87325000I-254000J0D01*
G01*
X129592840Y-80975000D02*
G75*
G02X129846840Y-81229000I0J-254000D01*
G01*
X127814840Y-80975000D02*
G75*
G03X127560840Y-81229000I0J-254000D01*
G01*
X129592840Y-87325000D02*
X127814840Y-87325000D01*
X127560840Y-87071000D02*
X127560840Y-86690000D01*
X127687840Y-86563000D02*
X127560840Y-86690000D01*
X129846840Y-87071000D02*
X129846840Y-86690000D01*
X129719840Y-86563000D02*
X129846840Y-86690000D01*
X127687840Y-81737000D02*
X127560840Y-81610000D01*
X127687840Y-81737000D02*
X127687840Y-86563000D01*
X129719840Y-81737000D02*
X129846840Y-81610000D01*
X129719840Y-81737000D02*
X129719840Y-86563000D01*
X127560840Y-81229000D02*
X127560840Y-81610000D01*
X129846840Y-81229000D02*
X129846840Y-81610000D01*
X129592840Y-80975000D02*
X127814840Y-80975000D01*
D14*
G36*
X129008640Y-80975000D02*
G01*
X129008640Y-80111400D01*
X128399040Y-80111400D01*
X128399040Y-80975000D01*
X129008640Y-80975000D01*
G37*
G36*
X129008640Y-88188600D02*
G01*
X129008640Y-87325000D01*
X128399040Y-87325000D01*
X128399040Y-88188600D01*
X129008640Y-88188600D01*
G37*
D13*
X124795456Y-87121000D02*
G75*
G03X125049456Y-87375000I254000J0D01*
G01*
X127081456Y-87121000D02*
G75*
G02X126827456Y-87375000I-254000J0D01*
G01*
X126827456Y-81025000D02*
G75*
G02X127081456Y-81279000I0J-254000D01*
G01*
X125049456Y-81025000D02*
G75*
G03X124795456Y-81279000I0J-254000D01*
G01*
X126827456Y-87375000D02*
X125049456Y-87375000D01*
X124795456Y-87121000D02*
X124795456Y-86740000D01*
X124922456Y-86613000D02*
X124795456Y-86740000D01*
X127081456Y-87121000D02*
X127081456Y-86740000D01*
X126954456Y-86613000D02*
X127081456Y-86740000D01*
X124922456Y-81787000D02*
X124795456Y-81660000D01*
X124922456Y-81787000D02*
X124922456Y-86613000D01*
X126954456Y-81787000D02*
X127081456Y-81660000D01*
X126954456Y-81787000D02*
X126954456Y-86613000D01*
X124795456Y-81279000D02*
X124795456Y-81660000D01*
X127081456Y-81279000D02*
X127081456Y-81660000D01*
X126827456Y-81025000D02*
X125049456Y-81025000D01*
D14*
G36*
X126243256Y-81025000D02*
G01*
X126243256Y-80161400D01*
X125633656Y-80161400D01*
X125633656Y-81025000D01*
X126243256Y-81025000D01*
G37*
G36*
X126243256Y-88238600D02*
G01*
X126243256Y-87375000D01*
X125633656Y-87375000D01*
X125633656Y-88238600D01*
X126243256Y-88238600D01*
G37*
D13*
X128614152Y-93879000D02*
G75*
G03X128360152Y-93625000I-254000J0D01*
G01*
X126328152Y-93879000D02*
G75*
G02X126582152Y-93625000I254000J0D01*
G01*
X126582152Y-99975000D02*
G75*
G02X126328152Y-99721000I0J254000D01*
G01*
X128360152Y-99975000D02*
G75*
G03X128614152Y-99721000I0J254000D01*
G01*
X126582152Y-93625000D02*
X128360152Y-93625000D01*
X128614152Y-93879000D02*
X128614152Y-94260000D01*
X128487152Y-94387000D02*
X128614152Y-94260000D01*
X126328152Y-93879000D02*
X126328152Y-94260000D01*
X126455152Y-94387000D02*
X126328152Y-94260000D01*
X128487152Y-99213000D02*
X128614152Y-99340000D01*
X128487152Y-99213000D02*
X128487152Y-94387000D01*
X126455152Y-99213000D02*
X126328152Y-99340000D01*
X126455152Y-99213000D02*
X126455152Y-94387000D01*
X128614152Y-99721000D02*
X128614152Y-99340000D01*
X126328152Y-99721000D02*
X126328152Y-99340000D01*
X126582152Y-99975000D02*
X128360152Y-99975000D01*
D14*
G36*
X127166352Y-99975000D02*
G01*
X127166352Y-100838600D01*
X127775952Y-100838600D01*
X127775952Y-99975000D01*
X127166352Y-99975000D01*
G37*
G36*
X127166352Y-92761400D02*
G01*
X127166352Y-93625000D01*
X127775952Y-93625000D01*
X127775952Y-92761400D01*
X127166352Y-92761400D01*
G37*
D13*
X131379536Y-93879000D02*
G75*
G03X131125536Y-93625000I-254000J0D01*
G01*
X129093536Y-93879000D02*
G75*
G02X129347536Y-93625000I254000J0D01*
G01*
X129347536Y-99975000D02*
G75*
G02X129093536Y-99721000I0J254000D01*
G01*
X131125536Y-99975000D02*
G75*
G03X131379536Y-99721000I0J254000D01*
G01*
X129347536Y-93625000D02*
X131125536Y-93625000D01*
X131379536Y-93879000D02*
X131379536Y-94260000D01*
X131252536Y-94387000D02*
X131379536Y-94260000D01*
X129093536Y-93879000D02*
X129093536Y-94260000D01*
X129220536Y-94387000D02*
X129093536Y-94260000D01*
X131252536Y-99213000D02*
X131379536Y-99340000D01*
X131252536Y-99213000D02*
X131252536Y-94387000D01*
X129220536Y-99213000D02*
X129093536Y-99340000D01*
X129220536Y-99213000D02*
X129220536Y-94387000D01*
X131379536Y-99721000D02*
X131379536Y-99340000D01*
X129093536Y-99721000D02*
X129093536Y-99340000D01*
X129347536Y-99975000D02*
X131125536Y-99975000D01*
D14*
G36*
X129931736Y-99975000D02*
G01*
X129931736Y-100838600D01*
X130541336Y-100838600D01*
X130541336Y-99975000D01*
X129931736Y-99975000D01*
G37*
G36*
X129931736Y-92761400D02*
G01*
X129931736Y-93625000D01*
X130541336Y-93625000D01*
X130541336Y-92761400D01*
X129931736Y-92761400D01*
G37*
D13*
X140143000Y-36454000D02*
G75*
G03X139889000Y-36200000I-254000J0D01*
G01*
X137857000Y-36454000D02*
G75*
G02X138111000Y-36200000I254000J0D01*
G01*
X138111000Y-42550000D02*
G75*
G02X137857000Y-42296000I0J254000D01*
G01*
X139889000Y-42550000D02*
G75*
G03X140143000Y-42296000I0J254000D01*
G01*
X138111000Y-36200000D02*
X139889000Y-36200000D01*
X140143000Y-36454000D02*
X140143000Y-36835000D01*
X140016000Y-36962000D02*
X140143000Y-36835000D01*
X137857000Y-36454000D02*
X137857000Y-36835000D01*
X137984000Y-36962000D02*
X137857000Y-36835000D01*
X140016000Y-41788000D02*
X140143000Y-41915000D01*
X140016000Y-41788000D02*
X140016000Y-36962000D01*
X137984000Y-41788000D02*
X137857000Y-41915000D01*
X137984000Y-41788000D02*
X137984000Y-36962000D01*
X140143000Y-42296000D02*
X140143000Y-41915000D01*
X137857000Y-42296000D02*
X137857000Y-41915000D01*
X138111000Y-42550000D02*
X139889000Y-42550000D01*
D14*
G36*
X138695200Y-42550000D02*
G01*
X138695200Y-43413600D01*
X139304800Y-43413600D01*
X139304800Y-42550000D01*
X138695200Y-42550000D01*
G37*
G36*
X138695200Y-35336400D02*
G01*
X138695200Y-36200000D01*
X139304800Y-36200000D01*
X139304800Y-35336400D01*
X138695200Y-35336400D01*
G37*
D12*
X132813478Y-66638478D02*
G75*
G03X130975000Y-62200000I-1838478J1838478D01*
G01*
X129136522Y-66638478D02*
G75*
G02X130975000Y-62200000I1838478J1838478D01*
G01*
X129175000Y-66650000D02*
X132775000Y-66650000D01*
X126658478Y-66638478D02*
G75*
G03X124820000Y-62200000I-1838478J1838478D01*
G01*
X122981522Y-66638478D02*
G75*
G02X124820000Y-62200000I1838478J1838478D01*
G01*
X123020000Y-66650000D02*
X126620000Y-66650000D01*
D15*
X159359000Y-40848000D02*
X159359000Y-34752000D01*
X155041000Y-40848000D02*
X155041000Y-34752000D01*
D13*
X158851000Y-40848000D02*
X158851000Y-34752000D01*
X155549000Y-34752000D02*
X155549000Y-40848000D01*
X156438000Y-38054000D02*
X156438000Y-37546000D01*
X156438000Y-37546000D02*
X157962000Y-37546000D01*
X157962000Y-37546000D02*
X157962000Y-38054000D01*
X157962000Y-38054000D02*
X156438000Y-38054000D01*
X156438000Y-37165000D02*
X157200000Y-37165000D01*
X157200000Y-37165000D02*
X157962000Y-37165000D01*
X156438000Y-38435000D02*
X157200000Y-38435000D01*
X157200000Y-38435000D02*
X157962000Y-38435000D01*
X157200000Y-37165000D02*
X157200000Y-36530000D01*
X157200000Y-38435000D02*
X157200000Y-39070000D01*
D15*
X159359000Y-40848000D02*
G75*
G02X155041000Y-40848000I-2159000J0D01*
G01*
X155041000Y-34752000D02*
G75*
G02X159359000Y-34752000I2159000J0D01*
G01*
D13*
X158851000Y-40848000D02*
G75*
G02X155549000Y-40848000I-1651000J0D01*
G01*
X155549000Y-34752000D02*
G75*
G02X158851000Y-34752000I1651000J0D01*
G01*
D12*
X125250000Y-35452840D02*
X133921560Y-35452840D01*
X133901240Y-51470080D02*
X131198680Y-51470080D01*
X131198680Y-51470080D02*
X131198680Y-49138360D01*
X131198680Y-49138360D02*
X127683320Y-49138360D01*
X127683320Y-49138360D02*
X127683320Y-51185600D01*
X127683320Y-51185600D02*
X127683320Y-51470080D01*
X127683320Y-51470080D02*
X123837760Y-51470080D01*
X123837760Y-51470080D02*
X123837760Y-49509200D01*
X123837760Y-49509200D02*
X123837760Y-49285680D01*
X123837760Y-49285680D02*
X119504520Y-49285680D01*
X119504520Y-49285680D02*
X119504520Y-51454840D01*
X119504520Y-51454840D02*
X116720680Y-51454840D01*
X125244920Y-35452840D02*
X116715600Y-35452840D01*
X133499920Y-35356320D02*
X133499920Y-34655280D01*
X133499920Y-34655280D02*
X133901240Y-34655280D01*
X133901240Y-34655280D02*
X133901240Y-33273520D01*
X133911400Y-32821400D02*
X116654640Y-32821400D01*
X116644480Y-33273520D02*
X116644480Y-34563840D01*
X116644480Y-34563840D02*
X117122000Y-34563840D01*
X117122000Y-34563840D02*
X117122000Y-35305520D01*
X133891080Y-32821400D02*
X133891080Y-33309080D01*
X116629240Y-32821400D02*
X116629240Y-33309080D01*
X116705440Y-35447760D02*
X116705440Y-51500560D01*
X133896160Y-35457920D02*
X133896160Y-51388800D01*
X120670000Y-112330000D02*
X120670000Y-111000000D01*
X122000000Y-112330000D02*
X120670000Y-112330000D01*
X120670000Y-109730000D02*
X120670000Y-107130000D01*
X123270000Y-109730000D02*
X120670000Y-109730000D01*
X123270000Y-112330000D02*
X123270000Y-109730000D01*
X120670000Y-107130000D02*
X136030000Y-107130000D01*
X123270000Y-112330000D02*
X136030000Y-112330000D01*
X136030000Y-112330000D02*
X136030000Y-107130000D01*
D13*
X206825000Y-115190000D02*
X203015000Y-115190000D01*
X203015000Y-112650000D02*
X202380000Y-113285000D01*
X202380000Y-114555000D02*
X202380000Y-113285000D01*
X203015000Y-115190000D02*
X202380000Y-114555000D01*
X207460000Y-114555000D02*
X206825000Y-115190000D01*
X207460000Y-114555000D02*
X207460000Y-113285000D01*
X206825000Y-112650000D02*
X207460000Y-113285000D01*
X206825000Y-112650000D02*
X203015000Y-112650000D01*
X206825000Y-112650000D02*
X203015000Y-112650000D01*
X203015000Y-110110000D02*
X202380000Y-110745000D01*
X202380000Y-112015000D02*
X202380000Y-110745000D01*
X203015000Y-112650000D02*
X202380000Y-112015000D01*
X207460000Y-112015000D02*
X206825000Y-112650000D01*
X207460000Y-112015000D02*
X207460000Y-110745000D01*
X206825000Y-110110000D02*
X207460000Y-110745000D01*
X206825000Y-110110000D02*
X203015000Y-110110000D01*
X203015000Y-33910000D02*
X202380000Y-34545000D01*
X202380000Y-34545000D02*
X202380000Y-35815000D01*
X202380000Y-35815000D02*
X203015000Y-36450000D01*
X203015000Y-36450000D02*
X202380000Y-37085000D01*
X202380000Y-37085000D02*
X202380000Y-38355000D01*
X202380000Y-38355000D02*
X203015000Y-38990000D01*
X203015000Y-38990000D02*
X202380000Y-39625000D01*
X202380000Y-39625000D02*
X202380000Y-40895000D01*
X202380000Y-40895000D02*
X203015000Y-41530000D01*
X203015000Y-41530000D02*
X202380000Y-42165000D01*
X202380000Y-42165000D02*
X202380000Y-43435000D01*
X202380000Y-43435000D02*
X203015000Y-44070000D01*
X203015000Y-44070000D02*
X202380000Y-44705000D01*
X202380000Y-44705000D02*
X202380000Y-45975000D01*
X202380000Y-45975000D02*
X203015000Y-46610000D01*
X203015000Y-46610000D02*
X202380000Y-47245000D01*
X202380000Y-47245000D02*
X202380000Y-48515000D01*
X202380000Y-48515000D02*
X203015000Y-49150000D01*
X203015000Y-33910000D02*
X206825000Y-33910000D01*
X206825000Y-33910000D02*
X207460000Y-34545000D01*
X207460000Y-34545000D02*
X207460000Y-35815000D01*
X207460000Y-35815000D02*
X206825000Y-36450000D01*
X206825000Y-36450000D02*
X207460000Y-37085000D01*
X207460000Y-37085000D02*
X207460000Y-38355000D01*
X207460000Y-38355000D02*
X206825000Y-38990000D01*
X206825000Y-38990000D02*
X207460000Y-39625000D01*
X207460000Y-39625000D02*
X207460000Y-40895000D01*
X207460000Y-40895000D02*
X206825000Y-41530000D01*
X206825000Y-41530000D02*
X207460000Y-42165000D01*
X207460000Y-42165000D02*
X207460000Y-43435000D01*
X207460000Y-43435000D02*
X206825000Y-44070000D01*
X206825000Y-44070000D02*
X207460000Y-44705000D01*
X207460000Y-44705000D02*
X207460000Y-45975000D01*
X207460000Y-45975000D02*
X206825000Y-46610000D01*
X206825000Y-46610000D02*
X207460000Y-47245000D01*
X207460000Y-47245000D02*
X207460000Y-48515000D01*
X207460000Y-48515000D02*
X206825000Y-49150000D01*
X206825000Y-49150000D02*
X207460000Y-49785000D01*
X207460000Y-49785000D02*
X207460000Y-51055000D01*
X207460000Y-51055000D02*
X206825000Y-51690000D01*
X206825000Y-51690000D02*
X207460000Y-52325000D01*
X207460000Y-52325000D02*
X207460000Y-53595000D01*
X207460000Y-53595000D02*
X206825000Y-54230000D01*
X206825000Y-54230000D02*
X207460000Y-54865000D01*
X207460000Y-54865000D02*
X207460000Y-56135000D01*
X207460000Y-56135000D02*
X206825000Y-56770000D01*
X206825000Y-56770000D02*
X207460000Y-57405000D01*
X207460000Y-57405000D02*
X207460000Y-58675000D01*
X207460000Y-58675000D02*
X206825000Y-59310000D01*
X206825000Y-59310000D02*
X207460000Y-59945000D01*
X207460000Y-59945000D02*
X207460000Y-61215000D01*
X207460000Y-61215000D02*
X206825000Y-61850000D01*
X206825000Y-61850000D02*
X207460000Y-62485000D01*
X207460000Y-62485000D02*
X207460000Y-63755000D01*
X206825000Y-64390000D02*
X207460000Y-63755000D01*
X206825000Y-64390000D02*
X207460000Y-65025000D01*
X207460000Y-66295000D02*
X207460000Y-65025000D01*
X207460000Y-66295000D02*
X206825000Y-66930000D01*
X206825000Y-66930000D02*
X207460000Y-67565000D01*
X207460000Y-68835000D02*
X207460000Y-67565000D01*
X207460000Y-68835000D02*
X206825000Y-69470000D01*
X206825000Y-69470000D02*
X207460000Y-70105000D01*
X207460000Y-71375000D02*
X207460000Y-70105000D01*
X207460000Y-71375000D02*
X206825000Y-72010000D01*
X206825000Y-72010000D02*
X207460000Y-72645000D01*
X207460000Y-73915000D02*
X207460000Y-72645000D01*
X207460000Y-73915000D02*
X206825000Y-74550000D01*
X206825000Y-74550000D02*
X207460000Y-75185000D01*
X207460000Y-76455000D02*
X207460000Y-75185000D01*
X207460000Y-76455000D02*
X206825000Y-77090000D01*
X206825000Y-77090000D02*
X207460000Y-77725000D01*
X207460000Y-78995000D02*
X207460000Y-77725000D01*
X207460000Y-78995000D02*
X206825000Y-79630000D01*
X206825000Y-79630000D02*
X207460000Y-80265000D01*
X207460000Y-81535000D02*
X207460000Y-80265000D01*
X207460000Y-81535000D02*
X206825000Y-82170000D01*
X203015000Y-82170000D02*
X202380000Y-81535000D01*
X202380000Y-81535000D02*
X202380000Y-80265000D01*
X203015000Y-79630000D02*
X202380000Y-80265000D01*
X203015000Y-79630000D02*
X202380000Y-78995000D01*
X202380000Y-78995000D02*
X202380000Y-77725000D01*
X203015000Y-77090000D02*
X202380000Y-77725000D01*
X203015000Y-77090000D02*
X202380000Y-76455000D01*
X202380000Y-76455000D02*
X202380000Y-75185000D01*
X203015000Y-74550000D02*
X202380000Y-75185000D01*
X203015000Y-74550000D02*
X202380000Y-73915000D01*
X202380000Y-72645000D02*
X202380000Y-73915000D01*
X202380000Y-72645000D02*
X203015000Y-72010000D01*
X203015000Y-72010000D02*
X202380000Y-71375000D01*
X202380000Y-70105000D02*
X202380000Y-71375000D01*
X202380000Y-70105000D02*
X203015000Y-69470000D01*
X203015000Y-69470000D02*
X202380000Y-68835000D01*
X202380000Y-68835000D02*
X202380000Y-67565000D01*
X203015000Y-66930000D02*
X202380000Y-67565000D01*
X203015000Y-66930000D02*
X202380000Y-66295000D01*
X202380000Y-66295000D02*
X202380000Y-65025000D01*
X203015000Y-64390000D02*
X202380000Y-65025000D01*
X203015000Y-64390000D02*
X202380000Y-63755000D01*
X202380000Y-63755000D02*
X202380000Y-62485000D01*
X203015000Y-61850000D02*
X202380000Y-62485000D01*
X203015000Y-61850000D02*
X202380000Y-61215000D01*
X202380000Y-61215000D02*
X202380000Y-59945000D01*
X203015000Y-59310000D02*
X202380000Y-59945000D01*
X203015000Y-59310000D02*
X202380000Y-58675000D01*
X202380000Y-58675000D02*
X202380000Y-57405000D01*
X203015000Y-56770000D02*
X202380000Y-57405000D01*
X203015000Y-56770000D02*
X202380000Y-56135000D01*
X202380000Y-56135000D02*
X202380000Y-54865000D01*
X203015000Y-54230000D02*
X202380000Y-54865000D01*
X203015000Y-54230000D02*
X202380000Y-53595000D01*
X202380000Y-53595000D02*
X202380000Y-52325000D01*
X203015000Y-51690000D02*
X202380000Y-52325000D01*
X203015000Y-51690000D02*
X202380000Y-51055000D01*
X202380000Y-51055000D02*
X202380000Y-49785000D01*
X203015000Y-49150000D02*
X202380000Y-49785000D01*
X206825000Y-36450000D02*
X203015000Y-36450000D01*
X206825000Y-38990000D02*
X203015000Y-38990000D01*
X206825000Y-41530000D02*
X203015000Y-41530000D01*
X206825000Y-44070000D02*
X203015000Y-44070000D01*
X206825000Y-46610000D02*
X203015000Y-46610000D01*
X206825000Y-49150000D02*
X203015000Y-49150000D01*
X206825000Y-51690000D02*
X203015000Y-51690000D01*
X206825000Y-54230000D02*
X203015000Y-54230000D01*
X206825000Y-56770000D02*
X203015000Y-56770000D01*
X206825000Y-59310000D02*
X203015000Y-59310000D01*
X206825000Y-61850000D02*
X203015000Y-61850000D01*
X206825000Y-64390000D02*
X203015000Y-64390000D01*
X206825000Y-66930000D02*
X203015000Y-66930000D01*
X206825000Y-69470000D02*
X203015000Y-69470000D01*
X206825000Y-72010000D02*
X203015000Y-72010000D01*
X206825000Y-74550000D02*
X203015000Y-74550000D01*
X206825000Y-77090000D02*
X203015000Y-77090000D01*
X206825000Y-79630000D02*
X203015000Y-79630000D01*
X206825000Y-82170000D02*
X203015000Y-82170000D01*
X206825000Y-82170000D02*
X207460000Y-82805000D01*
X207460000Y-84075000D02*
X207460000Y-82805000D01*
X207460000Y-84075000D02*
X206825000Y-84710000D01*
X203015000Y-84710000D02*
X202380000Y-84075000D01*
X202380000Y-84075000D02*
X202380000Y-82805000D01*
X203015000Y-82170000D02*
X202380000Y-82805000D01*
X206825000Y-84710000D02*
X203015000Y-84710000D01*
X206825000Y-84710000D02*
X207460000Y-85345000D01*
X207460000Y-86615000D02*
X207460000Y-85345000D01*
X207460000Y-86615000D02*
X206825000Y-87250000D01*
X203015000Y-87250000D02*
X202380000Y-86615000D01*
X202380000Y-86615000D02*
X202380000Y-85345000D01*
X203015000Y-84710000D02*
X202380000Y-85345000D01*
X206825000Y-87250000D02*
X203015000Y-87250000D01*
X206825000Y-87250000D02*
X207460000Y-87885000D01*
X207460000Y-89155000D02*
X207460000Y-87885000D01*
X207460000Y-89155000D02*
X206825000Y-89790000D01*
X203015000Y-89790000D02*
X202380000Y-89155000D01*
X202380000Y-89155000D02*
X202380000Y-87885000D01*
X203015000Y-87250000D02*
X202380000Y-87885000D01*
X206825000Y-89790000D02*
X203015000Y-89790000D01*
X206825000Y-89790000D02*
X207460000Y-90425000D01*
X207460000Y-91695000D02*
X207460000Y-90425000D01*
X207460000Y-91695000D02*
X206825000Y-92330000D01*
X203015000Y-92330000D02*
X202380000Y-91695000D01*
X202380000Y-91695000D02*
X202380000Y-90425000D01*
X203015000Y-89790000D02*
X202380000Y-90425000D01*
X206825000Y-92330000D02*
X203015000Y-92330000D01*
X206825000Y-92330000D02*
X207460000Y-92965000D01*
X207460000Y-94235000D02*
X207460000Y-92965000D01*
X207460000Y-94235000D02*
X206825000Y-94870000D01*
X203015000Y-94870000D02*
X202380000Y-94235000D01*
X202380000Y-94235000D02*
X202380000Y-92965000D01*
X203015000Y-92330000D02*
X202380000Y-92965000D01*
X206825000Y-94870000D02*
X203015000Y-94870000D01*
X206825000Y-94870000D02*
X207460000Y-95505000D01*
X207460000Y-96775000D02*
X207460000Y-95505000D01*
X207460000Y-96775000D02*
X206825000Y-97410000D01*
X203015000Y-97410000D02*
X202380000Y-96775000D01*
X202380000Y-96775000D02*
X202380000Y-95505000D01*
X203015000Y-94870000D02*
X202380000Y-95505000D01*
X206825000Y-97410000D02*
X203015000Y-97410000D01*
X206825000Y-97410000D02*
X207460000Y-98045000D01*
X207460000Y-99315000D02*
X207460000Y-98045000D01*
X207460000Y-99315000D02*
X206825000Y-99950000D01*
X203015000Y-99950000D02*
X202380000Y-99315000D01*
X202380000Y-99315000D02*
X202380000Y-98045000D01*
X203015000Y-97410000D02*
X202380000Y-98045000D01*
X206825000Y-99950000D02*
X203015000Y-99950000D01*
X206825000Y-99950000D02*
X207460000Y-100585000D01*
X207460000Y-101855000D02*
X207460000Y-100585000D01*
X207460000Y-101855000D02*
X206825000Y-102490000D01*
X203015000Y-102490000D02*
X202380000Y-101855000D01*
X202380000Y-101855000D02*
X202380000Y-100585000D01*
X203015000Y-99950000D02*
X202380000Y-100585000D01*
X206825000Y-102490000D02*
X203015000Y-102490000D01*
X206825000Y-102490000D02*
X207460000Y-103125000D01*
X207460000Y-104395000D02*
X207460000Y-103125000D01*
X207460000Y-104395000D02*
X206825000Y-105030000D01*
X203015000Y-105030000D02*
X202380000Y-104395000D01*
X202380000Y-104395000D02*
X202380000Y-103125000D01*
X203015000Y-102490000D02*
X202380000Y-103125000D01*
X206825000Y-105030000D02*
X203015000Y-105030000D01*
X206825000Y-105030000D02*
X207460000Y-105665000D01*
X207460000Y-106935000D02*
X207460000Y-105665000D01*
X207460000Y-106935000D02*
X206825000Y-107570000D01*
X203015000Y-107570000D02*
X202380000Y-106935000D01*
X202380000Y-106935000D02*
X202380000Y-105665000D01*
X203015000Y-105030000D02*
X202380000Y-105665000D01*
X206825000Y-107570000D02*
X203015000Y-107570000D01*
X206825000Y-107570000D02*
X207460000Y-108205000D01*
X207460000Y-109475000D02*
X207460000Y-108205000D01*
X207460000Y-109475000D02*
X206825000Y-110110000D01*
X203015000Y-110110000D02*
X202380000Y-109475000D01*
X202380000Y-109475000D02*
X202380000Y-108205000D01*
X203015000Y-107570000D02*
X202380000Y-108205000D01*
X206825000Y-110110000D02*
X203015000Y-110110000D01*
D11*
X159400000Y-104600000D02*
X159400000Y-46600000D01*
X143400000Y-104600000D02*
X159400000Y-104600000D01*
X143400000Y-46600000D02*
X143400000Y-104600000D01*
X150400000Y-46600000D02*
G75*
G03X151400000Y-47600000I1000000J0D01*
G01*
X151400000Y-47600000D02*
G75*
G03X152400000Y-46600000I0J1000000D01*
G01*
X159400000Y-46600000D02*
X152400000Y-46600000D01*
X150400000Y-46600000D02*
X143400000Y-46600000D01*
D12*
X166120000Y-108630000D02*
X166120000Y-111370000D01*
X158880000Y-108630000D02*
X158880000Y-111370000D01*
X158880000Y-111370000D02*
X166120000Y-111370000D01*
X158880000Y-108630000D02*
X166120000Y-108630000D01*
X163630000Y-97880000D02*
X166370000Y-97880000D01*
X163630000Y-105120000D02*
X166370000Y-105120000D01*
X166370000Y-105120000D02*
X166370000Y-97880000D01*
X163630000Y-105120000D02*
X163630000Y-97880000D01*
X196930000Y-106930000D02*
X199670000Y-106930000D01*
X196930000Y-114170000D02*
X199670000Y-114170000D01*
X199670000Y-114170000D02*
X199670000Y-106930000D01*
X196930000Y-114170000D02*
X196930000Y-106930000D01*
X185120000Y-32630000D02*
X185120000Y-35370000D01*
X177880000Y-32630000D02*
X177880000Y-35370000D01*
X177880000Y-35370000D02*
X185120000Y-35370000D01*
X177880000Y-32630000D02*
X185120000Y-32630000D01*
X156320000Y-108630000D02*
X156320000Y-111370000D01*
X149080000Y-108630000D02*
X149080000Y-111370000D01*
X149080000Y-111370000D02*
X156320000Y-111370000D01*
X149080000Y-108630000D02*
X156320000Y-108630000D01*
X197120000Y-32630000D02*
X197120000Y-35370000D01*
X189880000Y-32630000D02*
X189880000Y-35370000D01*
X189880000Y-35370000D02*
X197120000Y-35370000D01*
X189880000Y-32630000D02*
X197120000Y-32630000D01*
X196930000Y-97930000D02*
X199670000Y-97930000D01*
X196930000Y-105170000D02*
X199670000Y-105170000D01*
X199670000Y-105170000D02*
X199670000Y-97930000D01*
X196930000Y-105170000D02*
X196930000Y-97930000D01*
X163630000Y-88880000D02*
X166370000Y-88880000D01*
X163630000Y-96120000D02*
X166370000Y-96120000D01*
X166370000Y-96120000D02*
X166370000Y-88880000D01*
X163630000Y-96120000D02*
X163630000Y-88880000D01*
X173520000Y-32630000D02*
X173520000Y-35370000D01*
X166280000Y-32630000D02*
X166280000Y-35370000D01*
X166280000Y-35370000D02*
X173520000Y-35370000D01*
X166280000Y-32630000D02*
X173520000Y-32630000D01*
X197080000Y-88930000D02*
X199820000Y-88930000D01*
X197080000Y-96170000D02*
X199820000Y-96170000D01*
X199820000Y-96170000D02*
X199820000Y-88930000D01*
X197080000Y-96170000D02*
X197080000Y-88930000D01*
X146520000Y-108630000D02*
X146520000Y-111370000D01*
X139280000Y-108630000D02*
X139280000Y-111370000D01*
X139280000Y-111370000D02*
X146520000Y-111370000D01*
X139280000Y-108630000D02*
X146520000Y-108630000D01*
X142855000Y-41570000D02*
X142855000Y-38830000D01*
X150095000Y-41570000D02*
X150095000Y-38830000D01*
X150095000Y-38830000D02*
X142855000Y-38830000D01*
X150095000Y-41570000D02*
X142855000Y-41570000D01*
X142855000Y-36795000D02*
X142855000Y-34055000D01*
X150095000Y-36795000D02*
X150095000Y-34055000D01*
X150095000Y-34055000D02*
X142855000Y-34055000D01*
X150095000Y-36795000D02*
X142855000Y-36795000D01*
D10*
X112467142Y-95042857D02*
X112514761Y-95090476D01*
X112562380Y-95233333D01*
X112562380Y-95328571D01*
X112514761Y-95471428D01*
X112419523Y-95566666D01*
X112324285Y-95614285D01*
X112133809Y-95661904D01*
X111990952Y-95661904D01*
X111800476Y-95614285D01*
X111705238Y-95566666D01*
X111610000Y-95471428D01*
X111562380Y-95328571D01*
X111562380Y-95233333D01*
X111610000Y-95090476D01*
X111657619Y-95042857D01*
X111657619Y-94661904D02*
X111610000Y-94614285D01*
X111562380Y-94519047D01*
X111562380Y-94280952D01*
X111610000Y-94185714D01*
X111657619Y-94138095D01*
X111752857Y-94090476D01*
X111848095Y-94090476D01*
X111990952Y-94138095D01*
X112562380Y-94709523D01*
X112562380Y-94090476D01*
X111562380Y-93185714D02*
X111562380Y-93661904D01*
X112038571Y-93709523D01*
X111990952Y-93661904D01*
X111943333Y-93566666D01*
X111943333Y-93328571D01*
X111990952Y-93233333D01*
X112038571Y-93185714D01*
X112133809Y-93138095D01*
X112371904Y-93138095D01*
X112467142Y-93185714D01*
X112514761Y-93233333D01*
X112562380Y-93328571D01*
X112562380Y-93566666D01*
X112514761Y-93661904D01*
X112467142Y-93709523D01*
X111797142Y-65492857D02*
X111844761Y-65540476D01*
X111892380Y-65683333D01*
X111892380Y-65778571D01*
X111844761Y-65921428D01*
X111749523Y-66016666D01*
X111654285Y-66064285D01*
X111463809Y-66111904D01*
X111320952Y-66111904D01*
X111130476Y-66064285D01*
X111035238Y-66016666D01*
X110940000Y-65921428D01*
X110892380Y-65778571D01*
X110892380Y-65683333D01*
X110940000Y-65540476D01*
X110987619Y-65492857D01*
X110987619Y-65111904D02*
X110940000Y-65064285D01*
X110892380Y-64969047D01*
X110892380Y-64730952D01*
X110940000Y-64635714D01*
X110987619Y-64588095D01*
X111082857Y-64540476D01*
X111178095Y-64540476D01*
X111320952Y-64588095D01*
X111892380Y-65159523D01*
X111892380Y-64540476D01*
X111225714Y-63683333D02*
X111892380Y-63683333D01*
X110844761Y-63921428D02*
X111559047Y-64159523D01*
X111559047Y-63540476D01*
X114047142Y-107617142D02*
X113999523Y-107664761D01*
X113856666Y-107712380D01*
X113761428Y-107712380D01*
X113618571Y-107664761D01*
X113523333Y-107569523D01*
X113475714Y-107474285D01*
X113428095Y-107283809D01*
X113428095Y-107140952D01*
X113475714Y-106950476D01*
X113523333Y-106855238D01*
X113618571Y-106760000D01*
X113761428Y-106712380D01*
X113856666Y-106712380D01*
X113999523Y-106760000D01*
X114047142Y-106807619D01*
X114999523Y-107712380D02*
X114428095Y-107712380D01*
X114713809Y-107712380D02*
X114713809Y-106712380D01*
X114618571Y-106855238D01*
X114523333Y-106950476D01*
X114428095Y-106998095D01*
X115904285Y-106712380D02*
X115428095Y-106712380D01*
X115380476Y-107188571D01*
X115428095Y-107140952D01*
X115523333Y-107093333D01*
X115761428Y-107093333D01*
X115856666Y-107140952D01*
X115904285Y-107188571D01*
X115951904Y-107283809D01*
X115951904Y-107521904D01*
X115904285Y-107617142D01*
X115856666Y-107664761D01*
X115761428Y-107712380D01*
X115523333Y-107712380D01*
X115428095Y-107664761D01*
X115380476Y-107617142D01*
X114047142Y-99757142D02*
X113999523Y-99804761D01*
X113856666Y-99852380D01*
X113761428Y-99852380D01*
X113618571Y-99804761D01*
X113523333Y-99709523D01*
X113475714Y-99614285D01*
X113428095Y-99423809D01*
X113428095Y-99280952D01*
X113475714Y-99090476D01*
X113523333Y-98995238D01*
X113618571Y-98900000D01*
X113761428Y-98852380D01*
X113856666Y-98852380D01*
X113999523Y-98900000D01*
X114047142Y-98947619D01*
X114999523Y-99852380D02*
X114428095Y-99852380D01*
X114713809Y-99852380D02*
X114713809Y-98852380D01*
X114618571Y-98995238D01*
X114523333Y-99090476D01*
X114428095Y-99138095D01*
X115856666Y-99185714D02*
X115856666Y-99852380D01*
X115618571Y-98804761D02*
X115380476Y-99519047D01*
X115999523Y-99519047D01*
X122607142Y-52707142D02*
X122559523Y-52754761D01*
X122416666Y-52802380D01*
X122321428Y-52802380D01*
X122178571Y-52754761D01*
X122083333Y-52659523D01*
X122035714Y-52564285D01*
X121988095Y-52373809D01*
X121988095Y-52230952D01*
X122035714Y-52040476D01*
X122083333Y-51945238D01*
X122178571Y-51850000D01*
X122321428Y-51802380D01*
X122416666Y-51802380D01*
X122559523Y-51850000D01*
X122607142Y-51897619D01*
X123559523Y-52802380D02*
X122988095Y-52802380D01*
X123273809Y-52802380D02*
X123273809Y-51802380D01*
X123178571Y-51945238D01*
X123083333Y-52040476D01*
X122988095Y-52088095D01*
X124416666Y-51802380D02*
X124226190Y-51802380D01*
X124130952Y-51850000D01*
X124083333Y-51897619D01*
X123988095Y-52040476D01*
X123940476Y-52230952D01*
X123940476Y-52611904D01*
X123988095Y-52707142D01*
X124035714Y-52754761D01*
X124130952Y-52802380D01*
X124321428Y-52802380D01*
X124416666Y-52754761D01*
X124464285Y-52707142D01*
X124511904Y-52611904D01*
X124511904Y-52373809D01*
X124464285Y-52278571D01*
X124416666Y-52230952D01*
X124321428Y-52183333D01*
X124130952Y-52183333D01*
X124035714Y-52230952D01*
X123988095Y-52278571D01*
X123940476Y-52373809D01*
X136607142Y-69582142D02*
X136559523Y-69629761D01*
X136416666Y-69677380D01*
X136321428Y-69677380D01*
X136178571Y-69629761D01*
X136083333Y-69534523D01*
X136035714Y-69439285D01*
X135988095Y-69248809D01*
X135988095Y-69105952D01*
X136035714Y-68915476D01*
X136083333Y-68820238D01*
X136178571Y-68725000D01*
X136321428Y-68677380D01*
X136416666Y-68677380D01*
X136559523Y-68725000D01*
X136607142Y-68772619D01*
X136988095Y-68772619D02*
X137035714Y-68725000D01*
X137130952Y-68677380D01*
X137369047Y-68677380D01*
X137464285Y-68725000D01*
X137511904Y-68772619D01*
X137559523Y-68867857D01*
X137559523Y-68963095D01*
X137511904Y-69105952D01*
X136940476Y-69677380D01*
X137559523Y-69677380D01*
X138178571Y-68677380D02*
X138273809Y-68677380D01*
X138369047Y-68725000D01*
X138416666Y-68772619D01*
X138464285Y-68867857D01*
X138511904Y-69058333D01*
X138511904Y-69296428D01*
X138464285Y-69486904D01*
X138416666Y-69582142D01*
X138369047Y-69629761D01*
X138273809Y-69677380D01*
X138178571Y-69677380D01*
X138083333Y-69629761D01*
X138035714Y-69582142D01*
X137988095Y-69486904D01*
X137940476Y-69296428D01*
X137940476Y-69058333D01*
X137988095Y-68867857D01*
X138035714Y-68772619D01*
X138083333Y-68725000D01*
X138178571Y-68677380D01*
X136929761Y-61787619D02*
X136834523Y-61740000D01*
X136739285Y-61644761D01*
X136596428Y-61501904D01*
X136501190Y-61454285D01*
X136405952Y-61454285D01*
X136453571Y-61692380D02*
X136358333Y-61644761D01*
X136263095Y-61549523D01*
X136215476Y-61359047D01*
X136215476Y-61025714D01*
X136263095Y-60835238D01*
X136358333Y-60740000D01*
X136453571Y-60692380D01*
X136644047Y-60692380D01*
X136739285Y-60740000D01*
X136834523Y-60835238D01*
X136882142Y-61025714D01*
X136882142Y-61359047D01*
X136834523Y-61549523D01*
X136739285Y-61644761D01*
X136644047Y-61692380D01*
X136453571Y-61692380D01*
X137215476Y-60692380D02*
X137834523Y-60692380D01*
X137501190Y-61073333D01*
X137644047Y-61073333D01*
X137739285Y-61120952D01*
X137786904Y-61168571D01*
X137834523Y-61263809D01*
X137834523Y-61501904D01*
X137786904Y-61597142D01*
X137739285Y-61644761D01*
X137644047Y-61692380D01*
X137358333Y-61692380D01*
X137263095Y-61644761D01*
X137215476Y-61597142D01*
X168422380Y-107766190D02*
X167422380Y-107766190D01*
X168327142Y-106718571D02*
X168374761Y-106766190D01*
X168422380Y-106909047D01*
X168422380Y-107004285D01*
X168374761Y-107147142D01*
X168279523Y-107242380D01*
X168184285Y-107290000D01*
X167993809Y-107337619D01*
X167850952Y-107337619D01*
X167660476Y-107290000D01*
X167565238Y-107242380D01*
X167470000Y-107147142D01*
X167422380Y-107004285D01*
X167422380Y-106909047D01*
X167470000Y-106766190D01*
X167517619Y-106718571D01*
X167517619Y-106337619D02*
X167470000Y-106290000D01*
X167422380Y-106194761D01*
X167422380Y-105956666D01*
X167470000Y-105861428D01*
X167517619Y-105813809D01*
X167612857Y-105766190D01*
X167708095Y-105766190D01*
X167850952Y-105813809D01*
X168422380Y-106385238D01*
X168422380Y-105766190D01*
X116607142Y-69582142D02*
X116559523Y-69629761D01*
X116416666Y-69677380D01*
X116321428Y-69677380D01*
X116178571Y-69629761D01*
X116083333Y-69534523D01*
X116035714Y-69439285D01*
X115988095Y-69248809D01*
X115988095Y-69105952D01*
X116035714Y-68915476D01*
X116083333Y-68820238D01*
X116178571Y-68725000D01*
X116321428Y-68677380D01*
X116416666Y-68677380D01*
X116559523Y-68725000D01*
X116607142Y-68772619D01*
X116988095Y-68772619D02*
X117035714Y-68725000D01*
X117130952Y-68677380D01*
X117369047Y-68677380D01*
X117464285Y-68725000D01*
X117511904Y-68772619D01*
X117559523Y-68867857D01*
X117559523Y-68963095D01*
X117511904Y-69105952D01*
X116940476Y-69677380D01*
X117559523Y-69677380D01*
X117940476Y-68772619D02*
X117988095Y-68725000D01*
X118083333Y-68677380D01*
X118321428Y-68677380D01*
X118416666Y-68725000D01*
X118464285Y-68772619D01*
X118511904Y-68867857D01*
X118511904Y-68963095D01*
X118464285Y-69105952D01*
X117892857Y-69677380D01*
X118511904Y-69677380D01*
X129940474Y-69582142D02*
X129892855Y-69629761D01*
X129749998Y-69677380D01*
X129654760Y-69677380D01*
X129511903Y-69629761D01*
X129416665Y-69534523D01*
X129369046Y-69439285D01*
X129321427Y-69248809D01*
X129321427Y-69105952D01*
X129369046Y-68915476D01*
X129416665Y-68820238D01*
X129511903Y-68725000D01*
X129654760Y-68677380D01*
X129749998Y-68677380D01*
X129892855Y-68725000D01*
X129940474Y-68772619D01*
X130321427Y-68772619D02*
X130369046Y-68725000D01*
X130464284Y-68677380D01*
X130702379Y-68677380D01*
X130797617Y-68725000D01*
X130845236Y-68772619D01*
X130892855Y-68867857D01*
X130892855Y-68963095D01*
X130845236Y-69105952D01*
X130273808Y-69677380D01*
X130892855Y-69677380D01*
X131845236Y-69677380D02*
X131273808Y-69677380D01*
X131559522Y-69677380D02*
X131559522Y-68677380D01*
X131464284Y-68820238D01*
X131369046Y-68915476D01*
X131273808Y-68963095D01*
X123273808Y-69607142D02*
X123226189Y-69654761D01*
X123083332Y-69702380D01*
X122988094Y-69702380D01*
X122845237Y-69654761D01*
X122749999Y-69559523D01*
X122702380Y-69464285D01*
X122654761Y-69273809D01*
X122654761Y-69130952D01*
X122702380Y-68940476D01*
X122749999Y-68845238D01*
X122845237Y-68750000D01*
X122988094Y-68702380D01*
X123083332Y-68702380D01*
X123226189Y-68750000D01*
X123273808Y-68797619D01*
X123654761Y-68797619D02*
X123702380Y-68750000D01*
X123797618Y-68702380D01*
X124035713Y-68702380D01*
X124130951Y-68750000D01*
X124178570Y-68797619D01*
X124226189Y-68892857D01*
X124226189Y-68988095D01*
X124178570Y-69130952D01*
X123607142Y-69702380D01*
X124226189Y-69702380D01*
X124559523Y-68702380D02*
X125178570Y-68702380D01*
X124845237Y-69083333D01*
X124988094Y-69083333D01*
X125083332Y-69130952D01*
X125130951Y-69178571D01*
X125178570Y-69273809D01*
X125178570Y-69511904D01*
X125130951Y-69607142D01*
X125083332Y-69654761D01*
X124988094Y-69702380D01*
X124702380Y-69702380D01*
X124607142Y-69654761D01*
X124559523Y-69607142D01*
X115607142Y-52707142D02*
X115559523Y-52754761D01*
X115416666Y-52802380D01*
X115321428Y-52802380D01*
X115178571Y-52754761D01*
X115083333Y-52659523D01*
X115035714Y-52564285D01*
X114988095Y-52373809D01*
X114988095Y-52230952D01*
X115035714Y-52040476D01*
X115083333Y-51945238D01*
X115178571Y-51850000D01*
X115321428Y-51802380D01*
X115416666Y-51802380D01*
X115559523Y-51850000D01*
X115607142Y-51897619D01*
X116559523Y-52802380D02*
X115988095Y-52802380D01*
X116273809Y-52802380D02*
X116273809Y-51802380D01*
X116178571Y-51945238D01*
X116083333Y-52040476D01*
X115988095Y-52088095D01*
X117035714Y-52802380D02*
X117226190Y-52802380D01*
X117321428Y-52754761D01*
X117369047Y-52707142D01*
X117464285Y-52564285D01*
X117511904Y-52373809D01*
X117511904Y-51992857D01*
X117464285Y-51897619D01*
X117416666Y-51850000D01*
X117321428Y-51802380D01*
X117130952Y-51802380D01*
X117035714Y-51850000D01*
X116988095Y-51897619D01*
X116940476Y-51992857D01*
X116940476Y-52230952D01*
X116988095Y-52326190D01*
X117035714Y-52373809D01*
X117130952Y-52421428D01*
X117321428Y-52421428D01*
X117416666Y-52373809D01*
X117464285Y-52326190D01*
X117511904Y-52230952D01*
X129607142Y-52707142D02*
X129559523Y-52754761D01*
X129416666Y-52802380D01*
X129321428Y-52802380D01*
X129178571Y-52754761D01*
X129083333Y-52659523D01*
X129035714Y-52564285D01*
X128988095Y-52373809D01*
X128988095Y-52230952D01*
X129035714Y-52040476D01*
X129083333Y-51945238D01*
X129178571Y-51850000D01*
X129321428Y-51802380D01*
X129416666Y-51802380D01*
X129559523Y-51850000D01*
X129607142Y-51897619D01*
X130559523Y-52802380D02*
X129988095Y-52802380D01*
X130273809Y-52802380D02*
X130273809Y-51802380D01*
X130178571Y-51945238D01*
X130083333Y-52040476D01*
X129988095Y-52088095D01*
X131130952Y-52230952D02*
X131035714Y-52183333D01*
X130988095Y-52135714D01*
X130940476Y-52040476D01*
X130940476Y-51992857D01*
X130988095Y-51897619D01*
X131035714Y-51850000D01*
X131130952Y-51802380D01*
X131321428Y-51802380D01*
X131416666Y-51850000D01*
X131464285Y-51897619D01*
X131511904Y-51992857D01*
X131511904Y-52040476D01*
X131464285Y-52135714D01*
X131416666Y-52183333D01*
X131321428Y-52230952D01*
X131130952Y-52230952D01*
X131035714Y-52278571D01*
X130988095Y-52326190D01*
X130940476Y-52421428D01*
X130940476Y-52611904D01*
X130988095Y-52707142D01*
X131035714Y-52754761D01*
X131130952Y-52802380D01*
X131321428Y-52802380D01*
X131416666Y-52754761D01*
X131464285Y-52707142D01*
X131511904Y-52611904D01*
X131511904Y-52421428D01*
X131464285Y-52326190D01*
X131416666Y-52278571D01*
X131321428Y-52230952D01*
X136607142Y-52707142D02*
X136559523Y-52754761D01*
X136416666Y-52802380D01*
X136321428Y-52802380D01*
X136178571Y-52754761D01*
X136083333Y-52659523D01*
X136035714Y-52564285D01*
X135988095Y-52373809D01*
X135988095Y-52230952D01*
X136035714Y-52040476D01*
X136083333Y-51945238D01*
X136178571Y-51850000D01*
X136321428Y-51802380D01*
X136416666Y-51802380D01*
X136559523Y-51850000D01*
X136607142Y-51897619D01*
X137559523Y-52802380D02*
X136988095Y-52802380D01*
X137273809Y-52802380D02*
X137273809Y-51802380D01*
X137178571Y-51945238D01*
X137083333Y-52040476D01*
X136988095Y-52088095D01*
X137892857Y-51802380D02*
X138559523Y-51802380D01*
X138130952Y-52802380D01*
X168497380Y-95991190D02*
X167497380Y-95991190D01*
X168402142Y-94943571D02*
X168449761Y-94991190D01*
X168497380Y-95134047D01*
X168497380Y-95229285D01*
X168449761Y-95372142D01*
X168354523Y-95467380D01*
X168259285Y-95515000D01*
X168068809Y-95562619D01*
X167925952Y-95562619D01*
X167735476Y-95515000D01*
X167640238Y-95467380D01*
X167545000Y-95372142D01*
X167497380Y-95229285D01*
X167497380Y-95134047D01*
X167545000Y-94991190D01*
X167592619Y-94943571D01*
X168497380Y-93991190D02*
X168497380Y-94562619D01*
X168497380Y-94276904D02*
X167497380Y-94276904D01*
X167640238Y-94372142D01*
X167735476Y-94467380D01*
X167783095Y-94562619D01*
X118554761Y-61787619D02*
X118459523Y-61740000D01*
X118364285Y-61644761D01*
X118221428Y-61501904D01*
X118126190Y-61454285D01*
X118030952Y-61454285D01*
X118078571Y-61692380D02*
X117983333Y-61644761D01*
X117888095Y-61549523D01*
X117840476Y-61359047D01*
X117840476Y-61025714D01*
X117888095Y-60835238D01*
X117983333Y-60740000D01*
X118078571Y-60692380D01*
X118269047Y-60692380D01*
X118364285Y-60740000D01*
X118459523Y-60835238D01*
X118507142Y-61025714D01*
X118507142Y-61359047D01*
X118459523Y-61549523D01*
X118364285Y-61644761D01*
X118269047Y-61692380D01*
X118078571Y-61692380D01*
X119411904Y-60692380D02*
X118935714Y-60692380D01*
X118888095Y-61168571D01*
X118935714Y-61120952D01*
X119030952Y-61073333D01*
X119269047Y-61073333D01*
X119364285Y-61120952D01*
X119411904Y-61168571D01*
X119459523Y-61263809D01*
X119459523Y-61501904D01*
X119411904Y-61597142D01*
X119364285Y-61644761D01*
X119269047Y-61692380D01*
X119030952Y-61692380D01*
X118935714Y-61644761D01*
X118888095Y-61597142D01*
X168648095Y-62922380D02*
X168648095Y-63731904D01*
X168695714Y-63827142D01*
X168743333Y-63874761D01*
X168838571Y-63922380D01*
X169029047Y-63922380D01*
X169124285Y-63874761D01*
X169171904Y-63827142D01*
X169219523Y-63731904D01*
X169219523Y-62922380D01*
X170124285Y-62922380D02*
X169933809Y-62922380D01*
X169838571Y-62970000D01*
X169790952Y-63017619D01*
X169695714Y-63160476D01*
X169648095Y-63350952D01*
X169648095Y-63731904D01*
X169695714Y-63827142D01*
X169743333Y-63874761D01*
X169838571Y-63922380D01*
X170029047Y-63922380D01*
X170124285Y-63874761D01*
X170171904Y-63827142D01*
X170219523Y-63731904D01*
X170219523Y-63493809D01*
X170171904Y-63398571D01*
X170124285Y-63350952D01*
X170029047Y-63303333D01*
X169838571Y-63303333D01*
X169743333Y-63350952D01*
X169695714Y-63398571D01*
X169648095Y-63493809D01*
X168648095Y-37322380D02*
X168648095Y-38131904D01*
X168695714Y-38227142D01*
X168743333Y-38274761D01*
X168838571Y-38322380D01*
X169029047Y-38322380D01*
X169124285Y-38274761D01*
X169171904Y-38227142D01*
X169219523Y-38131904D01*
X169219523Y-37322380D01*
X170171904Y-37322380D02*
X169695714Y-37322380D01*
X169648095Y-37798571D01*
X169695714Y-37750952D01*
X169790952Y-37703333D01*
X170029047Y-37703333D01*
X170124285Y-37750952D01*
X170171904Y-37798571D01*
X170219523Y-37893809D01*
X170219523Y-38131904D01*
X170171904Y-38227142D01*
X170124285Y-38274761D01*
X170029047Y-38322380D01*
X169790952Y-38322380D01*
X169695714Y-38274761D01*
X169648095Y-38227142D01*
X180448095Y-62922380D02*
X180448095Y-63731904D01*
X180495714Y-63827142D01*
X180543333Y-63874761D01*
X180638571Y-63922380D01*
X180829047Y-63922380D01*
X180924285Y-63874761D01*
X180971904Y-63827142D01*
X181019523Y-63731904D01*
X181019523Y-62922380D01*
X181924285Y-63255714D02*
X181924285Y-63922380D01*
X181686190Y-62874761D02*
X181448095Y-63589047D01*
X182067142Y-63589047D01*
X180448095Y-37322380D02*
X180448095Y-38131904D01*
X180495714Y-38227142D01*
X180543333Y-38274761D01*
X180638571Y-38322380D01*
X180829047Y-38322380D01*
X180924285Y-38274761D01*
X180971904Y-38227142D01*
X181019523Y-38131904D01*
X181019523Y-37322380D01*
X181400476Y-37322380D02*
X182019523Y-37322380D01*
X181686190Y-37703333D01*
X181829047Y-37703333D01*
X181924285Y-37750952D01*
X181971904Y-37798571D01*
X182019523Y-37893809D01*
X182019523Y-38131904D01*
X181971904Y-38227142D01*
X181924285Y-38274761D01*
X181829047Y-38322380D01*
X181543333Y-38322380D01*
X181448095Y-38274761D01*
X181400476Y-38227142D01*
X192648095Y-62722380D02*
X192648095Y-63531904D01*
X192695714Y-63627142D01*
X192743333Y-63674761D01*
X192838571Y-63722380D01*
X193029047Y-63722380D01*
X193124285Y-63674761D01*
X193171904Y-63627142D01*
X193219523Y-63531904D01*
X193219523Y-62722380D01*
X193648095Y-62817619D02*
X193695714Y-62770000D01*
X193790952Y-62722380D01*
X194029047Y-62722380D01*
X194124285Y-62770000D01*
X194171904Y-62817619D01*
X194219523Y-62912857D01*
X194219523Y-63008095D01*
X194171904Y-63150952D01*
X193600476Y-63722380D01*
X194219523Y-63722380D01*
X192648095Y-37322380D02*
X192648095Y-38131904D01*
X192695714Y-38227142D01*
X192743333Y-38274761D01*
X192838571Y-38322380D01*
X193029047Y-38322380D01*
X193124285Y-38274761D01*
X193171904Y-38227142D01*
X193219523Y-38131904D01*
X193219523Y-37322380D01*
X194219523Y-38322380D02*
X193648095Y-38322380D01*
X193933809Y-38322380D02*
X193933809Y-37322380D01*
X193838571Y-37465238D01*
X193743333Y-37560476D01*
X193648095Y-37608095D01*
D16*
X137517547Y-86044887D02*
X136943023Y-86447053D01*
X137517547Y-86734315D02*
X136311047Y-86734315D01*
X136311047Y-86274696D01*
X136368500Y-86159791D01*
X136425952Y-86102339D01*
X136540857Y-86044887D01*
X136713214Y-86044887D01*
X136828119Y-86102339D01*
X136885571Y-86159791D01*
X136943023Y-86274696D01*
X136943023Y-86734315D01*
X137517547Y-84895839D02*
X137517547Y-85585267D01*
X137517547Y-85240553D02*
X136311047Y-85240553D01*
X136483404Y-85355458D01*
X136598309Y-85470363D01*
X136655761Y-85585267D01*
X136311047Y-83804244D02*
X136311047Y-84378767D01*
X136885571Y-84436220D01*
X136828119Y-84378767D01*
X136770666Y-84263863D01*
X136770666Y-83976601D01*
X136828119Y-83861696D01*
X136885571Y-83804244D01*
X137000476Y-83746791D01*
X137287738Y-83746791D01*
X137402642Y-83804244D01*
X137460095Y-83861696D01*
X137517547Y-83976601D01*
X137517547Y-84263863D01*
X137460095Y-84378767D01*
X137402642Y-84436220D01*
X122507931Y-98456327D02*
X121933407Y-98858493D01*
X122507931Y-99145755D02*
X121301431Y-99145755D01*
X121301431Y-98686136D01*
X121358884Y-98571232D01*
X121416336Y-98513779D01*
X121531241Y-98456327D01*
X121703598Y-98456327D01*
X121818503Y-98513779D01*
X121875955Y-98571232D01*
X121933407Y-98686136D01*
X121933407Y-99145755D01*
X122507931Y-97307279D02*
X122507931Y-97996708D01*
X122507931Y-97651993D02*
X121301431Y-97651993D01*
X121473788Y-97766898D01*
X121588693Y-97881803D01*
X121646145Y-97996708D01*
X121416336Y-96847660D02*
X121358884Y-96790208D01*
X121301431Y-96675303D01*
X121301431Y-96388041D01*
X121358884Y-96273136D01*
X121416336Y-96215684D01*
X121531241Y-96158232D01*
X121646145Y-96158232D01*
X121818503Y-96215684D01*
X122507931Y-96905112D01*
X122507931Y-96158232D01*
X125323315Y-98294887D02*
X124748791Y-98697053D01*
X125323315Y-98984315D02*
X124116815Y-98984315D01*
X124116815Y-98524696D01*
X124174268Y-98409791D01*
X124231720Y-98352339D01*
X124346625Y-98294887D01*
X124518982Y-98294887D01*
X124633887Y-98352339D01*
X124691339Y-98409791D01*
X124748791Y-98524696D01*
X124748791Y-98984315D01*
X125323315Y-97145839D02*
X125323315Y-97835267D01*
X125323315Y-97490553D02*
X124116815Y-97490553D01*
X124289172Y-97605458D01*
X124404077Y-97720363D01*
X124461529Y-97835267D01*
X125323315Y-95996791D02*
X125323315Y-96686220D01*
X125323315Y-96341506D02*
X124116815Y-96341506D01*
X124289172Y-96456410D01*
X124404077Y-96571315D01*
X124461529Y-96686220D01*
X119667547Y-98169887D02*
X119093023Y-98572053D01*
X119667547Y-98859315D02*
X118461047Y-98859315D01*
X118461047Y-98399696D01*
X118518500Y-98284791D01*
X118575952Y-98227339D01*
X118690857Y-98169887D01*
X118863214Y-98169887D01*
X118978119Y-98227339D01*
X119035571Y-98284791D01*
X119093023Y-98399696D01*
X119093023Y-98859315D01*
X118461047Y-97135744D02*
X118461047Y-97365553D01*
X118518500Y-97480458D01*
X118575952Y-97537910D01*
X118748309Y-97652815D01*
X118978119Y-97710267D01*
X119437738Y-97710267D01*
X119552642Y-97652815D01*
X119610095Y-97595363D01*
X119667547Y-97480458D01*
X119667547Y-97250648D01*
X119610095Y-97135744D01*
X119552642Y-97078291D01*
X119437738Y-97020839D01*
X119150476Y-97020839D01*
X119035571Y-97078291D01*
X118978119Y-97135744D01*
X118920666Y-97250648D01*
X118920666Y-97480458D01*
X118978119Y-97595363D01*
X119035571Y-97652815D01*
X119150476Y-97710267D01*
X134827155Y-85594887D02*
X134252631Y-85997053D01*
X134827155Y-86284315D02*
X133620655Y-86284315D01*
X133620655Y-85824696D01*
X133678108Y-85709791D01*
X133735560Y-85652339D01*
X133850465Y-85594887D01*
X134022822Y-85594887D01*
X134137727Y-85652339D01*
X134195179Y-85709791D01*
X134252631Y-85824696D01*
X134252631Y-86284315D01*
X134827155Y-84445839D02*
X134827155Y-85135267D01*
X134827155Y-84790553D02*
X133620655Y-84790553D01*
X133793012Y-84905458D01*
X133907917Y-85020363D01*
X133965369Y-85135267D01*
X134022822Y-83411696D02*
X134827155Y-83411696D01*
X133563203Y-83698958D02*
X134424988Y-83986220D01*
X134424988Y-83239339D01*
X136334851Y-98406327D02*
X135760327Y-98808493D01*
X136334851Y-99095755D02*
X135128351Y-99095755D01*
X135128351Y-98636136D01*
X135185804Y-98521232D01*
X135243256Y-98463779D01*
X135358161Y-98406327D01*
X135530518Y-98406327D01*
X135645423Y-98463779D01*
X135702875Y-98521232D01*
X135760327Y-98636136D01*
X135760327Y-99095755D01*
X136334851Y-97257279D02*
X136334851Y-97946708D01*
X136334851Y-97601993D02*
X135128351Y-97601993D01*
X135300708Y-97716898D01*
X135415613Y-97831803D01*
X135473065Y-97946708D01*
X135128351Y-96510398D02*
X135128351Y-96395493D01*
X135185804Y-96280589D01*
X135243256Y-96223136D01*
X135358161Y-96165684D01*
X135587970Y-96108232D01*
X135875232Y-96108232D01*
X136105042Y-96165684D01*
X136219946Y-96223136D01*
X136277399Y-96280589D01*
X136334851Y-96395493D01*
X136334851Y-96510398D01*
X136277399Y-96625303D01*
X136219946Y-96682755D01*
X136105042Y-96740208D01*
X135875232Y-96797660D01*
X135587970Y-96797660D01*
X135358161Y-96740208D01*
X135243256Y-96682755D01*
X135185804Y-96625303D01*
X135128351Y-96510398D01*
X133519467Y-98294887D02*
X132944943Y-98697053D01*
X133519467Y-98984315D02*
X132312967Y-98984315D01*
X132312967Y-98524696D01*
X132370420Y-98409791D01*
X132427872Y-98352339D01*
X132542777Y-98294887D01*
X132715134Y-98294887D01*
X132830039Y-98352339D01*
X132887491Y-98409791D01*
X132944943Y-98524696D01*
X132944943Y-98984315D01*
X133519467Y-97720363D02*
X133519467Y-97490553D01*
X133462015Y-97375648D01*
X133404562Y-97318196D01*
X133232205Y-97203291D01*
X133002396Y-97145839D01*
X132542777Y-97145839D01*
X132427872Y-97203291D01*
X132370420Y-97260744D01*
X132312967Y-97375648D01*
X132312967Y-97605458D01*
X132370420Y-97720363D01*
X132427872Y-97777815D01*
X132542777Y-97835267D01*
X132830039Y-97835267D01*
X132944943Y-97777815D01*
X133002396Y-97720363D01*
X133059848Y-97605458D01*
X133059848Y-97375648D01*
X133002396Y-97260744D01*
X132944943Y-97203291D01*
X132830039Y-97145839D01*
X121100235Y-85719887D02*
X120525711Y-86122053D01*
X121100235Y-86409315D02*
X119893735Y-86409315D01*
X119893735Y-85949696D01*
X119951188Y-85834791D01*
X120008640Y-85777339D01*
X120123545Y-85719887D01*
X120295902Y-85719887D01*
X120410807Y-85777339D01*
X120468259Y-85834791D01*
X120525711Y-85949696D01*
X120525711Y-86409315D01*
X119893735Y-84628291D02*
X119893735Y-85202815D01*
X120468259Y-85260267D01*
X120410807Y-85202815D01*
X120353354Y-85087910D01*
X120353354Y-84800648D01*
X120410807Y-84685744D01*
X120468259Y-84628291D01*
X120583164Y-84570839D01*
X120870426Y-84570839D01*
X120985330Y-84628291D01*
X121042783Y-84685744D01*
X121100235Y-84800648D01*
X121100235Y-85087910D01*
X121042783Y-85202815D01*
X120985330Y-85260267D01*
X123715619Y-85844887D02*
X123141095Y-86247053D01*
X123715619Y-86534315D02*
X122509119Y-86534315D01*
X122509119Y-86074696D01*
X122566572Y-85959791D01*
X122624024Y-85902339D01*
X122738929Y-85844887D01*
X122911286Y-85844887D01*
X123026191Y-85902339D01*
X123083643Y-85959791D01*
X123141095Y-86074696D01*
X123141095Y-86534315D01*
X123715619Y-84695839D02*
X123715619Y-85385267D01*
X123715619Y-85040553D02*
X122509119Y-85040553D01*
X122681476Y-85155458D01*
X122796381Y-85270363D01*
X122853833Y-85385267D01*
X122509119Y-84293672D02*
X122509119Y-83546791D01*
X122968738Y-83948958D01*
X122968738Y-83776601D01*
X123026191Y-83661696D01*
X123083643Y-83604244D01*
X123198548Y-83546791D01*
X123485810Y-83546791D01*
X123600714Y-83604244D01*
X123658167Y-83661696D01*
X123715619Y-83776601D01*
X123715619Y-84121315D01*
X123658167Y-84236220D01*
X123600714Y-84293672D01*
X132061771Y-85657279D02*
X131487247Y-86059446D01*
X132061771Y-86346708D02*
X130855271Y-86346708D01*
X130855271Y-85887089D01*
X130912724Y-85772184D01*
X130970176Y-85714732D01*
X131085081Y-85657279D01*
X131257438Y-85657279D01*
X131372343Y-85714732D01*
X131429795Y-85772184D01*
X131487247Y-85887089D01*
X131487247Y-86346708D01*
X131372343Y-84967851D02*
X131314890Y-85082755D01*
X131257438Y-85140208D01*
X131142533Y-85197660D01*
X131085081Y-85197660D01*
X130970176Y-85140208D01*
X130912724Y-85082755D01*
X130855271Y-84967851D01*
X130855271Y-84738041D01*
X130912724Y-84623136D01*
X130970176Y-84565684D01*
X131085081Y-84508232D01*
X131142533Y-84508232D01*
X131257438Y-84565684D01*
X131314890Y-84623136D01*
X131372343Y-84738041D01*
X131372343Y-84967851D01*
X131429795Y-85082755D01*
X131487247Y-85140208D01*
X131602152Y-85197660D01*
X131831962Y-85197660D01*
X131946866Y-85140208D01*
X132004319Y-85082755D01*
X132061771Y-84967851D01*
X132061771Y-84738041D01*
X132004319Y-84623136D01*
X131946866Y-84565684D01*
X131831962Y-84508232D01*
X131602152Y-84508232D01*
X131487247Y-84565684D01*
X131429795Y-84623136D01*
X131372343Y-84738041D01*
X129271387Y-85869887D02*
X128696863Y-86272053D01*
X129271387Y-86559315D02*
X128064887Y-86559315D01*
X128064887Y-86099696D01*
X128122340Y-85984791D01*
X128179792Y-85927339D01*
X128294697Y-85869887D01*
X128467054Y-85869887D01*
X128581959Y-85927339D01*
X128639411Y-85984791D01*
X128696863Y-86099696D01*
X128696863Y-86559315D01*
X128064887Y-85467720D02*
X128064887Y-84663387D01*
X129271387Y-85180458D01*
X126531003Y-85694887D02*
X125956479Y-86097053D01*
X126531003Y-86384315D02*
X125324503Y-86384315D01*
X125324503Y-85924696D01*
X125381956Y-85809791D01*
X125439408Y-85752339D01*
X125554313Y-85694887D01*
X125726670Y-85694887D01*
X125841575Y-85752339D01*
X125899027Y-85809791D01*
X125956479Y-85924696D01*
X125956479Y-86384315D01*
X125726670Y-84660744D02*
X126531003Y-84660744D01*
X125267051Y-84948006D02*
X126128836Y-85235267D01*
X126128836Y-84488387D01*
X128038699Y-98482279D02*
X127464175Y-98884446D01*
X128038699Y-99171708D02*
X126832199Y-99171708D01*
X126832199Y-98712089D01*
X126889652Y-98597184D01*
X126947104Y-98539732D01*
X127062009Y-98482279D01*
X127234366Y-98482279D01*
X127349271Y-98539732D01*
X127406723Y-98597184D01*
X127464175Y-98712089D01*
X127464175Y-99171708D01*
X126832199Y-98080112D02*
X126832199Y-97333232D01*
X127291818Y-97735398D01*
X127291818Y-97563041D01*
X127349271Y-97448136D01*
X127406723Y-97390684D01*
X127521628Y-97333232D01*
X127808890Y-97333232D01*
X127923794Y-97390684D01*
X127981247Y-97448136D01*
X128038699Y-97563041D01*
X128038699Y-97907755D01*
X127981247Y-98022660D01*
X127923794Y-98080112D01*
X130902547Y-98497279D02*
X130328023Y-98899446D01*
X130902547Y-99186708D02*
X129696047Y-99186708D01*
X129696047Y-98727089D01*
X129753500Y-98612184D01*
X129810952Y-98554732D01*
X129925857Y-98497279D01*
X130098214Y-98497279D01*
X130213119Y-98554732D01*
X130270571Y-98612184D01*
X130328023Y-98727089D01*
X130328023Y-99186708D01*
X129810952Y-98037660D02*
X129753500Y-97980208D01*
X129696047Y-97865303D01*
X129696047Y-97578041D01*
X129753500Y-97463136D01*
X129810952Y-97405684D01*
X129925857Y-97348232D01*
X130040761Y-97348232D01*
X130213119Y-97405684D01*
X130902547Y-98095112D01*
X130902547Y-97348232D01*
X139542547Y-40682279D02*
X138968023Y-41084446D01*
X139542547Y-41371708D02*
X138336047Y-41371708D01*
X138336047Y-40912089D01*
X138393500Y-40797184D01*
X138450952Y-40739732D01*
X138565857Y-40682279D01*
X138738214Y-40682279D01*
X138853119Y-40739732D01*
X138910571Y-40797184D01*
X138968023Y-40912089D01*
X138968023Y-41371708D01*
X139542547Y-39533232D02*
X139542547Y-40222660D01*
X139542547Y-39877946D02*
X138336047Y-39877946D01*
X138508404Y-39992851D01*
X138623309Y-40107755D01*
X138680761Y-40222660D01*
D10*
X130879761Y-61787619D02*
X130784523Y-61740000D01*
X130689285Y-61644761D01*
X130546428Y-61501904D01*
X130451190Y-61454285D01*
X130355952Y-61454285D01*
X130403571Y-61692380D02*
X130308333Y-61644761D01*
X130213095Y-61549523D01*
X130165476Y-61359047D01*
X130165476Y-61025714D01*
X130213095Y-60835238D01*
X130308333Y-60740000D01*
X130403571Y-60692380D01*
X130594047Y-60692380D01*
X130689285Y-60740000D01*
X130784523Y-60835238D01*
X130832142Y-61025714D01*
X130832142Y-61359047D01*
X130784523Y-61549523D01*
X130689285Y-61644761D01*
X130594047Y-61692380D01*
X130403571Y-61692380D01*
X131689285Y-61025714D02*
X131689285Y-61692380D01*
X131451190Y-60644761D02*
X131213095Y-61359047D01*
X131832142Y-61359047D01*
X124724761Y-61787619D02*
X124629523Y-61740000D01*
X124534285Y-61644761D01*
X124391428Y-61501904D01*
X124296190Y-61454285D01*
X124200952Y-61454285D01*
X124248571Y-61692380D02*
X124153333Y-61644761D01*
X124058095Y-61549523D01*
X124010476Y-61359047D01*
X124010476Y-61025714D01*
X124058095Y-60835238D01*
X124153333Y-60740000D01*
X124248571Y-60692380D01*
X124439047Y-60692380D01*
X124534285Y-60740000D01*
X124629523Y-60835238D01*
X124677142Y-61025714D01*
X124677142Y-61359047D01*
X124629523Y-61549523D01*
X124534285Y-61644761D01*
X124439047Y-61692380D01*
X124248571Y-61692380D01*
X125058095Y-60787619D02*
X125105714Y-60740000D01*
X125200952Y-60692380D01*
X125439047Y-60692380D01*
X125534285Y-60740000D01*
X125581904Y-60787619D01*
X125629523Y-60882857D01*
X125629523Y-60978095D01*
X125581904Y-61120952D01*
X125010476Y-61692380D01*
X125629523Y-61692380D01*
D16*
X154590452Y-41709982D02*
X154533000Y-41824887D01*
X154418095Y-41939791D01*
X154245738Y-42112148D01*
X154188285Y-42227053D01*
X154188285Y-42341958D01*
X154475547Y-42284506D02*
X154418095Y-42399410D01*
X154303190Y-42514315D01*
X154073380Y-42571767D01*
X153671214Y-42571767D01*
X153441404Y-42514315D01*
X153326500Y-42399410D01*
X153269047Y-42284506D01*
X153269047Y-42054696D01*
X153326500Y-41939791D01*
X153441404Y-41824887D01*
X153671214Y-41767434D01*
X154073380Y-41767434D01*
X154303190Y-41824887D01*
X154418095Y-41939791D01*
X154475547Y-42054696D01*
X154475547Y-42284506D01*
X154475547Y-40618387D02*
X154475547Y-41307815D01*
X154475547Y-40963101D02*
X153269047Y-40963101D01*
X153441404Y-41078006D01*
X153556309Y-41192910D01*
X153613761Y-41307815D01*
D10*
X125677740Y-40784893D02*
X126392026Y-40784893D01*
X126534883Y-40832512D01*
X126630121Y-40927750D01*
X126677740Y-41070607D01*
X126677740Y-41165845D01*
X125677740Y-40403940D02*
X125677740Y-39784893D01*
X126058693Y-40118226D01*
X126058693Y-39975369D01*
X126106312Y-39880131D01*
X126153931Y-39832512D01*
X126249169Y-39784893D01*
X126487264Y-39784893D01*
X126582502Y-39832512D01*
X126630121Y-39880131D01*
X126677740Y-39975369D01*
X126677740Y-40261083D01*
X126630121Y-40356321D01*
X126582502Y-40403940D01*
X119122380Y-110063333D02*
X119836666Y-110063333D01*
X119979523Y-110110952D01*
X120074761Y-110206190D01*
X120122380Y-110349047D01*
X120122380Y-110444285D01*
X119217619Y-109634761D02*
X119170000Y-109587142D01*
X119122380Y-109491904D01*
X119122380Y-109253809D01*
X119170000Y-109158571D01*
X119217619Y-109110952D01*
X119312857Y-109063333D01*
X119408095Y-109063333D01*
X119550952Y-109110952D01*
X120122380Y-109682380D01*
X120122380Y-109063333D01*
X204586666Y-32092380D02*
X204586666Y-32806666D01*
X204539047Y-32949523D01*
X204443809Y-33044761D01*
X204300952Y-33092380D01*
X204205714Y-33092380D01*
X205586666Y-33092380D02*
X205015238Y-33092380D01*
X205300952Y-33092380D02*
X205300952Y-32092380D01*
X205205714Y-32235238D01*
X205110476Y-32330476D01*
X205015238Y-32378095D01*
D11*
X150269211Y-45601897D02*
X150269211Y-44401897D01*
X151526354Y-45487611D02*
X151469211Y-45544754D01*
X151297782Y-45601897D01*
X151183497Y-45601897D01*
X151012068Y-45544754D01*
X150897782Y-45430468D01*
X150840640Y-45316182D01*
X150783497Y-45087611D01*
X150783497Y-44916182D01*
X150840640Y-44687611D01*
X150897782Y-44573325D01*
X151012068Y-44459040D01*
X151183497Y-44401897D01*
X151297782Y-44401897D01*
X151469211Y-44459040D01*
X151526354Y-44516182D01*
X151926354Y-44401897D02*
X152669211Y-44401897D01*
X152269211Y-44859040D01*
X152440640Y-44859040D01*
X152554925Y-44916182D01*
X152612068Y-44973325D01*
X152669211Y-45087611D01*
X152669211Y-45373325D01*
X152612068Y-45487611D01*
X152554925Y-45544754D01*
X152440640Y-45601897D01*
X152097782Y-45601897D01*
X151983497Y-45544754D01*
X151926354Y-45487611D01*
D10*
X161857142Y-107857142D02*
X161809523Y-107904761D01*
X161666666Y-107952380D01*
X161571428Y-107952380D01*
X161428571Y-107904761D01*
X161333333Y-107809523D01*
X161285714Y-107714285D01*
X161238095Y-107523809D01*
X161238095Y-107380952D01*
X161285714Y-107190476D01*
X161333333Y-107095238D01*
X161428571Y-107000000D01*
X161571428Y-106952380D01*
X161666666Y-106952380D01*
X161809523Y-107000000D01*
X161857142Y-107047619D01*
X162809523Y-107952380D02*
X162238095Y-107952380D01*
X162523809Y-107952380D02*
X162523809Y-106952380D01*
X162428571Y-107095238D01*
X162333333Y-107190476D01*
X162238095Y-107238095D01*
X163761904Y-107952380D02*
X163190476Y-107952380D01*
X163476190Y-107952380D02*
X163476190Y-106952380D01*
X163380952Y-107095238D01*
X163285714Y-107190476D01*
X163190476Y-107238095D01*
X162857142Y-102142857D02*
X162904761Y-102190476D01*
X162952380Y-102333333D01*
X162952380Y-102428571D01*
X162904761Y-102571428D01*
X162809523Y-102666666D01*
X162714285Y-102714285D01*
X162523809Y-102761904D01*
X162380952Y-102761904D01*
X162190476Y-102714285D01*
X162095238Y-102666666D01*
X162000000Y-102571428D01*
X161952380Y-102428571D01*
X161952380Y-102333333D01*
X162000000Y-102190476D01*
X162047619Y-102142857D01*
X162952380Y-101190476D02*
X162952380Y-101761904D01*
X162952380Y-101476190D02*
X161952380Y-101476190D01*
X162095238Y-101571428D01*
X162190476Y-101666666D01*
X162238095Y-101761904D01*
X161952380Y-100571428D02*
X161952380Y-100476190D01*
X162000000Y-100380952D01*
X162047619Y-100333333D01*
X162142857Y-100285714D01*
X162333333Y-100238095D01*
X162571428Y-100238095D01*
X162761904Y-100285714D01*
X162857142Y-100333333D01*
X162904761Y-100380952D01*
X162952380Y-100476190D01*
X162952380Y-100571428D01*
X162904761Y-100666666D01*
X162857142Y-100714285D01*
X162761904Y-100761904D01*
X162571428Y-100809523D01*
X162333333Y-100809523D01*
X162142857Y-100761904D01*
X162047619Y-100714285D01*
X162000000Y-100666666D01*
X161952380Y-100571428D01*
X196157142Y-110716666D02*
X196204761Y-110764285D01*
X196252380Y-110907142D01*
X196252380Y-111002380D01*
X196204761Y-111145238D01*
X196109523Y-111240476D01*
X196014285Y-111288095D01*
X195823809Y-111335714D01*
X195680952Y-111335714D01*
X195490476Y-111288095D01*
X195395238Y-111240476D01*
X195300000Y-111145238D01*
X195252380Y-111002380D01*
X195252380Y-110907142D01*
X195300000Y-110764285D01*
X195347619Y-110716666D01*
X196252380Y-110240476D02*
X196252380Y-110050000D01*
X196204761Y-109954761D01*
X196157142Y-109907142D01*
X196014285Y-109811904D01*
X195823809Y-109764285D01*
X195442857Y-109764285D01*
X195347619Y-109811904D01*
X195300000Y-109859523D01*
X195252380Y-109954761D01*
X195252380Y-110145238D01*
X195300000Y-110240476D01*
X195347619Y-110288095D01*
X195442857Y-110335714D01*
X195680952Y-110335714D01*
X195776190Y-110288095D01*
X195823809Y-110240476D01*
X195871428Y-110145238D01*
X195871428Y-109954761D01*
X195823809Y-109859523D01*
X195776190Y-109811904D01*
X195680952Y-109764285D01*
X181333333Y-31857142D02*
X181285714Y-31904761D01*
X181142857Y-31952380D01*
X181047619Y-31952380D01*
X180904761Y-31904761D01*
X180809523Y-31809523D01*
X180761904Y-31714285D01*
X180714285Y-31523809D01*
X180714285Y-31380952D01*
X180761904Y-31190476D01*
X180809523Y-31095238D01*
X180904761Y-31000000D01*
X181047619Y-30952380D01*
X181142857Y-30952380D01*
X181285714Y-31000000D01*
X181333333Y-31047619D01*
X182190476Y-30952380D02*
X182000000Y-30952380D01*
X181904761Y-31000000D01*
X181857142Y-31047619D01*
X181761904Y-31190476D01*
X181714285Y-31380952D01*
X181714285Y-31761904D01*
X181761904Y-31857142D01*
X181809523Y-31904761D01*
X181904761Y-31952380D01*
X182095238Y-31952380D01*
X182190476Y-31904761D01*
X182238095Y-31857142D01*
X182285714Y-31761904D01*
X182285714Y-31523809D01*
X182238095Y-31428571D01*
X182190476Y-31380952D01*
X182095238Y-31333333D01*
X181904761Y-31333333D01*
X181809523Y-31380952D01*
X181761904Y-31428571D01*
X181714285Y-31523809D01*
X152533333Y-107857142D02*
X152485714Y-107904761D01*
X152342857Y-107952380D01*
X152247619Y-107952380D01*
X152104761Y-107904761D01*
X152009523Y-107809523D01*
X151961904Y-107714285D01*
X151914285Y-107523809D01*
X151914285Y-107380952D01*
X151961904Y-107190476D01*
X152009523Y-107095238D01*
X152104761Y-107000000D01*
X152247619Y-106952380D01*
X152342857Y-106952380D01*
X152485714Y-107000000D01*
X152533333Y-107047619D01*
X153438095Y-106952380D02*
X152961904Y-106952380D01*
X152914285Y-107428571D01*
X152961904Y-107380952D01*
X153057142Y-107333333D01*
X153295238Y-107333333D01*
X153390476Y-107380952D01*
X153438095Y-107428571D01*
X153485714Y-107523809D01*
X153485714Y-107761904D01*
X153438095Y-107857142D01*
X153390476Y-107904761D01*
X153295238Y-107952380D01*
X153057142Y-107952380D01*
X152961904Y-107904761D01*
X152914285Y-107857142D01*
X193333333Y-31857142D02*
X193285714Y-31904761D01*
X193142857Y-31952380D01*
X193047619Y-31952380D01*
X192904761Y-31904761D01*
X192809523Y-31809523D01*
X192761904Y-31714285D01*
X192714285Y-31523809D01*
X192714285Y-31380952D01*
X192761904Y-31190476D01*
X192809523Y-31095238D01*
X192904761Y-31000000D01*
X193047619Y-30952380D01*
X193142857Y-30952380D01*
X193285714Y-31000000D01*
X193333333Y-31047619D01*
X194190476Y-31285714D02*
X194190476Y-31952380D01*
X193952380Y-30904761D02*
X193714285Y-31619047D01*
X194333333Y-31619047D01*
X196157142Y-101716666D02*
X196204761Y-101764285D01*
X196252380Y-101907142D01*
X196252380Y-102002380D01*
X196204761Y-102145238D01*
X196109523Y-102240476D01*
X196014285Y-102288095D01*
X195823809Y-102335714D01*
X195680952Y-102335714D01*
X195490476Y-102288095D01*
X195395238Y-102240476D01*
X195300000Y-102145238D01*
X195252380Y-102002380D01*
X195252380Y-101907142D01*
X195300000Y-101764285D01*
X195347619Y-101716666D01*
X195252380Y-101383333D02*
X195252380Y-100764285D01*
X195633333Y-101097619D01*
X195633333Y-100954761D01*
X195680952Y-100859523D01*
X195728571Y-100811904D01*
X195823809Y-100764285D01*
X196061904Y-100764285D01*
X196157142Y-100811904D01*
X196204761Y-100859523D01*
X196252380Y-100954761D01*
X196252380Y-101240476D01*
X196204761Y-101335714D01*
X196157142Y-101383333D01*
X162857142Y-92666666D02*
X162904761Y-92714285D01*
X162952380Y-92857142D01*
X162952380Y-92952380D01*
X162904761Y-93095238D01*
X162809523Y-93190476D01*
X162714285Y-93238095D01*
X162523809Y-93285714D01*
X162380952Y-93285714D01*
X162190476Y-93238095D01*
X162095238Y-93190476D01*
X162000000Y-93095238D01*
X161952380Y-92952380D01*
X161952380Y-92857142D01*
X162000000Y-92714285D01*
X162047619Y-92666666D01*
X162047619Y-92285714D02*
X162000000Y-92238095D01*
X161952380Y-92142857D01*
X161952380Y-91904761D01*
X162000000Y-91809523D01*
X162047619Y-91761904D01*
X162142857Y-91714285D01*
X162238095Y-91714285D01*
X162380952Y-91761904D01*
X162952380Y-92333333D01*
X162952380Y-91714285D01*
X169733333Y-31857142D02*
X169685714Y-31904761D01*
X169542857Y-31952380D01*
X169447619Y-31952380D01*
X169304761Y-31904761D01*
X169209523Y-31809523D01*
X169161904Y-31714285D01*
X169114285Y-31523809D01*
X169114285Y-31380952D01*
X169161904Y-31190476D01*
X169209523Y-31095238D01*
X169304761Y-31000000D01*
X169447619Y-30952380D01*
X169542857Y-30952380D01*
X169685714Y-31000000D01*
X169733333Y-31047619D01*
X170685714Y-31952380D02*
X170114285Y-31952380D01*
X170400000Y-31952380D02*
X170400000Y-30952380D01*
X170304761Y-31095238D01*
X170209523Y-31190476D01*
X170114285Y-31238095D01*
X196307142Y-92716666D02*
X196354761Y-92764285D01*
X196402380Y-92907142D01*
X196402380Y-93002380D01*
X196354761Y-93145238D01*
X196259523Y-93240476D01*
X196164285Y-93288095D01*
X195973809Y-93335714D01*
X195830952Y-93335714D01*
X195640476Y-93288095D01*
X195545238Y-93240476D01*
X195450000Y-93145238D01*
X195402380Y-93002380D01*
X195402380Y-92907142D01*
X195450000Y-92764285D01*
X195497619Y-92716666D01*
X195830952Y-92145238D02*
X195783333Y-92240476D01*
X195735714Y-92288095D01*
X195640476Y-92335714D01*
X195592857Y-92335714D01*
X195497619Y-92288095D01*
X195450000Y-92240476D01*
X195402380Y-92145238D01*
X195402380Y-91954761D01*
X195450000Y-91859523D01*
X195497619Y-91811904D01*
X195592857Y-91764285D01*
X195640476Y-91764285D01*
X195735714Y-91811904D01*
X195783333Y-91859523D01*
X195830952Y-91954761D01*
X195830952Y-92145238D01*
X195878571Y-92240476D01*
X195926190Y-92288095D01*
X196021428Y-92335714D01*
X196211904Y-92335714D01*
X196307142Y-92288095D01*
X196354761Y-92240476D01*
X196402380Y-92145238D01*
X196402380Y-91954761D01*
X196354761Y-91859523D01*
X196307142Y-91811904D01*
X196211904Y-91764285D01*
X196021428Y-91764285D01*
X195926190Y-91811904D01*
X195878571Y-91859523D01*
X195830952Y-91954761D01*
X142733333Y-107857142D02*
X142685714Y-107904761D01*
X142542857Y-107952380D01*
X142447619Y-107952380D01*
X142304761Y-107904761D01*
X142209523Y-107809523D01*
X142161904Y-107714285D01*
X142114285Y-107523809D01*
X142114285Y-107380952D01*
X142161904Y-107190476D01*
X142209523Y-107095238D01*
X142304761Y-107000000D01*
X142447619Y-106952380D01*
X142542857Y-106952380D01*
X142685714Y-107000000D01*
X142733333Y-107047619D01*
X143066666Y-106952380D02*
X143733333Y-106952380D01*
X143304761Y-107952380D01*
X145832142Y-38232142D02*
X145784523Y-38279761D01*
X145641666Y-38327380D01*
X145546428Y-38327380D01*
X145403571Y-38279761D01*
X145308333Y-38184523D01*
X145260714Y-38089285D01*
X145213095Y-37898809D01*
X145213095Y-37755952D01*
X145260714Y-37565476D01*
X145308333Y-37470238D01*
X145403571Y-37375000D01*
X145546428Y-37327380D01*
X145641666Y-37327380D01*
X145784523Y-37375000D01*
X145832142Y-37422619D01*
X146784523Y-38327380D02*
X146213095Y-38327380D01*
X146498809Y-38327380D02*
X146498809Y-37327380D01*
X146403571Y-37470238D01*
X146308333Y-37565476D01*
X146213095Y-37613095D01*
X147117857Y-37327380D02*
X147736904Y-37327380D01*
X147403571Y-37708333D01*
X147546428Y-37708333D01*
X147641666Y-37755952D01*
X147689285Y-37803571D01*
X147736904Y-37898809D01*
X147736904Y-38136904D01*
X147689285Y-38232142D01*
X147641666Y-38279761D01*
X147546428Y-38327380D01*
X147260714Y-38327380D01*
X147165476Y-38279761D01*
X147117857Y-38232142D01*
X145882142Y-33407142D02*
X145834523Y-33454761D01*
X145691666Y-33502380D01*
X145596428Y-33502380D01*
X145453571Y-33454761D01*
X145358333Y-33359523D01*
X145310714Y-33264285D01*
X145263095Y-33073809D01*
X145263095Y-32930952D01*
X145310714Y-32740476D01*
X145358333Y-32645238D01*
X145453571Y-32550000D01*
X145596428Y-32502380D01*
X145691666Y-32502380D01*
X145834523Y-32550000D01*
X145882142Y-32597619D01*
X146834523Y-33502380D02*
X146263095Y-33502380D01*
X146548809Y-33502380D02*
X146548809Y-32502380D01*
X146453571Y-32645238D01*
X146358333Y-32740476D01*
X146263095Y-32788095D01*
X147215476Y-32597619D02*
X147263095Y-32550000D01*
X147358333Y-32502380D01*
X147596428Y-32502380D01*
X147691666Y-32550000D01*
X147739285Y-32597619D01*
X147786904Y-32692857D01*
X147786904Y-32788095D01*
X147739285Y-32930952D01*
X147167857Y-33502380D01*
X147786904Y-33502380D01*
M02*
