M48
; DRILL file {KiCad (5.1.5-0-10_14)} date Friday, 05 June 2020 at 18:14:11
; FORMAT={-:-/ absolute / inch / decimal}
; #@! TF.CreationDate,2020-06-05T18:14:11+01:00
; #@! TF.GenerationSoftware,Kicad,Pcbnew,(5.1.5-0-10_14)
; #@! TF.FileFunction,Plated,1,4,PTH
FMAT,2
INCH
T1C0.0157
T2C0.0276
T3C0.0295
T4C0.0315
T5C0.0320
T6C0.0394
T7C0.0400
T8C0.0591
%
G90
G05
T1
X4.9606Y-3.4154
X5.0689Y-3.4154
X5.0787Y-4.0551
X5.187Y-3.4154
X5.3547Y-4.0597
X5.3804Y-4.0869
X5.4097Y-4.1115
X5.4342Y-4.1398
X5.4606Y-4.1663
X5.4871Y-4.1927
X5.5135Y-4.2192
X5.54Y-4.2456
X6.0496Y-2.0425
X6.0528Y-2.9693
X6.0791Y-2.8906
X6.0795Y-2.3823
X6.0803Y-1.8819
X6.1213Y-1.6823
X6.1459Y-1.7827
X6.1705Y-1.9272
X6.2012Y-1.6441
X6.2339Y-2.7685
X6.2388Y-2.2012
X6.2634Y-2.0685
X6.3909Y-1.5398
X6.4036Y-3.1898
X6.408Y-1.4632
X6.4091Y-3.2906
X6.4098Y-1.5067
X6.4282Y-3.0909
X6.6Y-2.4504
X6.6404Y-2.6232
X6.6404Y-3.0555
X6.6631Y-2.3854
X6.6644Y-2.8906
X6.6644Y-3.085
X6.6878Y-2.2823
X6.689Y-2.7063
X6.702Y-2.0874
X6.7055Y-2.1835
X6.724Y-2.8256
X6.7508Y-2.9291
X6.7616Y-4.4732
X6.7866Y-4.5528
X6.8699Y-4.4732
X6.8921Y-1.6177
X6.8984Y-3.1382
X6.9278Y-4.4732
X6.9857Y-4.4732
X7.0436Y-4.4732
X7.0512Y-3.7119
X7.0911Y-3.7119
X7.0913Y-2.4559
X7.1015Y-4.4732
X7.1169Y-2.5697
X7.1194Y-2.4829
X7.131Y-3.7119
X7.1476Y-2.5075
X7.1594Y-4.4732
X7.171Y-3.7119
X7.1807Y-2.5374
X7.1894Y-2.4303
X7.2109Y-3.7119
X7.2173Y-4.4732
X7.2508Y-3.7119
X7.261Y-3.8373
X7.2908Y-3.7119
X7.3307Y-3.7119
X7.3622Y-1.6177
X7.4537Y-3.9631
X7.6457Y-1.9803
X7.6457Y-2.9409
X7.7319Y-4.2874
X7.8807Y-2.7823
T2
X5.5846Y-1.8902
X5.5846Y-1.9602
X5.5846Y-2.0303
X5.5846Y-2.1004
X5.5846Y-2.1705
X5.5846Y-2.2406
X5.5846Y-2.3106
X5.5846Y-2.3807
X5.5846Y-2.4508
X5.5846Y-2.5209
X5.5846Y-2.5909
X5.5846Y-2.661
X5.5846Y-2.7311
X5.5846Y-2.8012
X5.5846Y-2.8713
X5.5846Y-2.9413
X5.5846Y-3.0114
X5.5846Y-3.0815
X5.5846Y-3.1516
X5.5846Y-3.2217
X5.5846Y-3.2917
X5.5846Y-3.3618
X5.5846Y-3.4319
X5.5846Y-3.502
X5.5846Y-3.572
X5.5846Y-3.6421
X5.5846Y-3.7122
X5.5846Y-3.7823
X5.5846Y-3.8524
X5.5846Y-3.9224
X5.5846Y-3.9925
X5.5846Y-4.0626
X6.3366Y-1.8902
X6.3366Y-1.9602
X6.3366Y-2.0303
X6.3366Y-2.1004
X6.3366Y-2.1705
X6.3366Y-2.2406
X6.3366Y-2.3106
X6.3366Y-2.3807
X6.3366Y-2.4508
X6.3366Y-2.5209
X6.3366Y-2.5909
X6.3366Y-2.661
X6.3366Y-2.7311
X6.3366Y-2.8012
X6.3366Y-2.8713
X6.3366Y-2.9413
X6.3366Y-3.0114
X6.3366Y-3.0815
X6.3366Y-3.1516
X6.3366Y-3.2217
X6.3366Y-3.2917
X6.3366Y-3.3618
X6.3366Y-3.4319
X6.3366Y-3.502
X6.3366Y-3.572
X6.3366Y-3.6421
X6.3366Y-3.7122
X6.3366Y-3.7823
X6.3366Y-3.8524
X6.3366Y-3.9224
X6.3366Y-3.9925
X6.3366Y-4.0626
T3
X4.6213Y-2.5512
X4.6713Y-2.5512
X4.7213Y-2.5512
X5.1065Y-2.5512
X5.1565Y-2.5512
X5.2065Y-2.5512
X5.3447Y-2.5512
X5.3947Y-2.5512
X5.4447Y-2.5512
X4.8642Y-2.5512
X4.9142Y-2.5512
X4.9642Y-2.5512
T4
X6.2992Y-4.3307
X6.4961Y-4.3307
X6.7047Y-4.0543
X6.7047Y-4.3543
X6.8047Y-4.0543
X6.8047Y-4.3543
X6.9047Y-4.0543
X6.9047Y-4.3543
X7.0047Y-4.0543
X7.0047Y-4.3543
X7.1047Y-4.0543
X7.1047Y-4.3543
X7.2047Y-4.0543
X7.2047Y-4.3543
X7.3047Y-4.0543
X7.3047Y-4.3543
X7.4047Y-4.0543
X7.4047Y-4.3543
X7.5047Y-4.0543
X7.5047Y-4.3543
X7.6047Y-4.0543
X7.6047Y-4.3543
X6.4961Y-3.5433
X6.4961Y-3.7402
X5.9134Y-4.3307
X6.1102Y-4.3307
X7.813Y-3.5453
X7.813Y-3.7421
X7.5197Y-1.3386
X7.7165Y-1.3386
X6.5197Y-1.5827
X6.5197Y-1.6827
X6.5197Y-1.7827
X6.5197Y-1.8827
X6.5197Y-1.9827
X6.5197Y-2.0827
X6.5197Y-2.1827
X6.5197Y-2.2827
X6.5197Y-2.3827
X6.8197Y-1.5827
X6.8197Y-1.6827
X6.8197Y-1.7827
X6.8197Y-1.8827
X6.8197Y-1.9827
X6.8197Y-2.0827
X6.8197Y-2.1827
X6.8197Y-2.2827
X6.8197Y-2.3827
X6.4961Y-3.8976
X6.4961Y-4.0945
X4.4661Y-4.061
X4.5646Y-4.061
X7.4646Y-2.5906
X7.4646Y-2.6906
X7.4646Y-2.7906
X7.4646Y-2.8906
X7.4646Y-2.9906
X7.4646Y-3.0906
X7.4646Y-3.1906
X7.4646Y-3.2906
X7.4646Y-3.3906
X7.7646Y-2.5906
X7.7646Y-2.6906
X7.7646Y-2.7906
X7.7646Y-2.8906
X7.7646Y-2.9906
X7.7646Y-3.0906
X7.7646Y-3.1906
X7.7646Y-3.2906
X7.7646Y-3.3906
X5.4232Y-1.7618
X5.4232Y-1.9587
X7.4646Y-1.5827
X7.4646Y-1.6827
X7.4646Y-1.7827
X7.4646Y-1.8827
X7.4646Y-1.9827
X7.4646Y-2.0827
X7.4646Y-2.1827
X7.4646Y-2.2827
X7.4646Y-2.3827
X7.7646Y-1.5827
X7.7646Y-1.6827
X7.7646Y-1.7827
X7.7646Y-1.8827
X7.7646Y-1.9827
X7.7646Y-2.0827
X7.7646Y-2.1827
X7.7646Y-2.2827
X7.7646Y-2.3827
X7.0472Y-1.3386
X7.2441Y-1.3386
X6.5906Y-1.3386
X6.7874Y-1.3386
X4.8031Y-2.2343
X4.9016Y-2.2343
X4.4882Y-2.4409
X4.4882Y-2.6378
X4.4661Y-4.3705
X4.5646Y-4.3705
X4.4882Y-3.5827
X4.4882Y-3.7795
X6.9843Y-2.5906
X6.9843Y-2.6906
X6.9843Y-2.7906
X6.9843Y-2.8906
X6.9843Y-2.9906
X6.9843Y-3.0906
X6.9843Y-3.1906
X6.9843Y-3.2906
X6.9843Y-3.3906
X7.2843Y-2.5906
X7.2843Y-2.6906
X7.2843Y-2.7906
X7.2843Y-2.8906
X7.2843Y-2.9906
X7.2843Y-3.0906
X7.2843Y-3.1906
X7.2843Y-3.2906
X7.2843Y-3.3906
X6.9843Y-1.5827
X6.9843Y-1.6827
X6.9843Y-1.7827
X6.9843Y-1.8827
X6.9843Y-1.9827
X6.9843Y-2.0827
X6.9843Y-2.1827
X6.9843Y-2.2827
X6.9843Y-2.3827
X7.2843Y-1.5827
X7.2843Y-1.6827
X7.2843Y-1.7827
X7.2843Y-1.8827
X7.2843Y-1.9827
X7.2843Y-2.0827
X7.2843Y-2.1827
X7.2843Y-2.2827
X7.2843Y-2.3827
X5.6683Y-1.3848
X5.8652Y-1.3848
X5.0787Y-2.2343
X5.1772Y-2.2343
X7.8071Y-3.8996
X7.8071Y-4.0965
X7.8071Y-4.2539
X7.8071Y-4.4508
X6.7077Y-3.5907
X6.7077Y-3.8907
X6.8077Y-3.5907
X6.8077Y-3.8907
X6.9077Y-3.5907
X6.9077Y-3.8907
X7.0077Y-3.5907
X7.0077Y-3.8907
X7.1077Y-3.5907
X7.1077Y-3.8907
X7.2077Y-3.5907
X7.2077Y-3.8907
X7.3077Y-3.5907
X7.3077Y-3.8907
X7.4077Y-3.5907
X7.4077Y-3.8907
X7.5077Y-3.5907
X7.5077Y-3.8907
X7.6077Y-3.5907
X7.6077Y-3.8907
X6.5197Y-2.5906
X6.5197Y-2.6906
X6.5197Y-2.7906
X6.5197Y-2.8906
X6.5197Y-2.9906
X6.5197Y-3.0906
X6.5197Y-3.1906
X6.5197Y-3.2906
X6.5197Y-3.3906
X6.8197Y-2.5906
X6.8197Y-2.6906
X6.8197Y-2.7906
X6.8197Y-2.8906
X6.8197Y-2.9906
X6.8197Y-3.0906
X6.8197Y-3.1906
X6.8197Y-3.2906
X6.8197Y-3.3906
X4.4882Y-3.1496
X4.4882Y-3.3465
X5.6683Y-1.5728
X5.8652Y-1.5728
X5.4626Y-3.1004
X5.4626Y-3.2972
X5.0919Y-2.873
X5.1903Y-2.873
X4.8294Y-2.874
X4.9278Y-2.874
X4.5669Y-2.873
X4.6654Y-2.873
X5.3543Y-2.873
X5.4528Y-2.873
X4.5276Y-2.2343
X4.626Y-2.2343
X5.5276Y-4.3307
X5.7244Y-4.3307
X5.3543Y-2.2343
X5.4528Y-2.2343
T5
X4.6919Y-3.113
X4.6919Y-3.513
X5.3452Y-3.112
X5.3452Y-3.512
X5.1274Y-3.611
X5.1274Y-4.011
X4.6919Y-3.613
X4.6919Y-4.013
X5.2363Y-3.6091
X5.2363Y-4.0091
X5.0185Y-3.611
X5.0185Y-4.011
X4.9097Y-3.613
X4.9097Y-4.013
X5.3452Y-3.6091
X5.3452Y-4.0091
X4.9097Y-3.115
X4.9097Y-3.515
X5.1274Y-3.11
X5.1274Y-3.51
X4.8008Y-3.611
X4.8008Y-4.011
X5.5217Y-1.3059
X5.5217Y-1.7059
X5.0185Y-3.113
X5.0185Y-3.513
X4.8008Y-3.115
X4.8008Y-3.515
X6.189Y-1.3833
X6.189Y-1.5733
X5.2363Y-3.11
X5.2363Y-3.51
T6
X4.8031Y-4.2701
X4.8031Y-4.3701
X4.9031Y-4.2701
X4.9031Y-4.3701
X5.0031Y-4.2701
X5.0031Y-4.3701
X5.1031Y-4.2701
X5.1031Y-4.3701
X5.2031Y-4.2701
X5.2031Y-4.3701
X5.3031Y-4.2701
X5.3031Y-4.3701
T7
X8.0177Y-1.385
X8.0177Y-1.485
X8.0177Y-1.585
X8.0177Y-1.685
X8.0177Y-1.785
X8.0177Y-1.885
X8.0177Y-1.985
X8.0177Y-2.085
X8.0177Y-2.185
X8.0177Y-2.285
X8.0177Y-2.385
X8.0177Y-2.485
X8.0177Y-2.585
X8.0177Y-2.685
X8.0177Y-2.785
X8.0177Y-2.885
X8.0177Y-2.985
X8.0177Y-3.085
X8.0177Y-3.185
X8.0177Y-3.285
X8.0177Y-3.385
X8.0177Y-3.485
X8.0177Y-3.585
X8.0177Y-3.685
X8.0177Y-3.785
X8.0177Y-3.885
X8.0177Y-3.985
X8.0177Y-4.085
X8.0177Y-4.185
X8.0177Y-4.285
X8.0177Y-4.385
X8.0177Y-4.485
X8.1177Y-1.385
X8.1177Y-1.485
X8.1177Y-1.585
X8.1177Y-1.685
X8.1177Y-1.785
X8.1177Y-1.885
X8.1177Y-1.985
X8.1177Y-2.085
X8.1177Y-2.185
X8.1177Y-2.285
X8.1177Y-2.385
X8.1177Y-2.485
X8.1177Y-2.585
X8.1177Y-2.685
X8.1177Y-2.785
X8.1177Y-2.885
X8.1177Y-2.985
X8.1177Y-3.085
X8.1177Y-3.185
X8.1177Y-3.285
X8.1177Y-3.385
X8.1177Y-3.485
X8.1177Y-3.585
X8.1177Y-3.685
X8.1177Y-3.785
X8.1177Y-3.885
X8.1177Y-3.985
X8.1177Y-4.085
X8.1177Y-4.185
X8.1177Y-4.285
X8.1177Y-4.385
X8.1177Y-4.485
T8
X4.6386Y-1.7852
X4.737Y-1.8836
X4.9338Y-1.7852
X4.9338Y-1.982
X5.1307Y-1.8836
X5.2291Y-1.7852
T8
G00X4.8354Y-1.3954
M15
G01X4.8354Y-1.3954
M16
G05
G00X5.0323Y-1.3954
M15
G01X5.0323Y-1.3954
M16
G05
T0
M30
