G04 #@! TF.GenerationSoftware,KiCad,Pcbnew,(5.1.5-0-10_14)*
G04 #@! TF.CreationDate,2020-06-05T18:14:08+01:00*
G04 #@! TF.ProjectId,v9958video,76393935-3876-4696-9465-6f2e6b696361,rev?*
G04 #@! TF.SameCoordinates,Original*
G04 #@! TF.FileFunction,Copper,L4,Bot*
G04 #@! TF.FilePolarity,Positive*
%FSLAX46Y46*%
G04 Gerber Fmt 4.6, Leading zero omitted, Abs format (unit mm)*
G04 Created by KiCad (PCBNEW (5.1.5-0-10_14)) date 2020-06-05 18:14:08*
%MOMM*%
%LPD*%
G04 APERTURE LIST*
%ADD10O,2.400000X1.600000*%
%ADD11R,2.400000X1.600000*%
%ADD12C,1.320800*%
%ADD13O,1.700000X1.200000*%
%ADD14R,1.700000X1.200000*%
%ADD15C,1.600000*%
%ADD16R,1.600000X1.600000*%
%ADD17R,1.050000X1.500000*%
%ADD18O,1.050000X1.500000*%
%ADD19O,1.600000X2.400000*%
%ADD20R,1.600000X2.400000*%
%ADD21O,2.000000X3.000000*%
%ADD22O,1.700000X1.700000*%
%ADD23R,1.700000X1.700000*%
%ADD24C,1.524000*%
%ADD25C,0.800000*%
%ADD26C,0.400000*%
%ADD27C,0.150000*%
G04 APERTURE END LIST*
D10*
X197220000Y-65800000D03*
X189600000Y-86120000D03*
X197220000Y-68340000D03*
X189600000Y-83580000D03*
X197220000Y-70880000D03*
X189600000Y-81040000D03*
X197220000Y-73420000D03*
X189600000Y-78500000D03*
X197220000Y-75960000D03*
X189600000Y-75960000D03*
X197220000Y-78500000D03*
X189600000Y-73420000D03*
X197220000Y-81040000D03*
X189600000Y-70880000D03*
X197220000Y-83580000D03*
X189600000Y-68340000D03*
X197220000Y-86120000D03*
D11*
X189600000Y-65800000D03*
D12*
X124705768Y-89280000D03*
X124705768Y-79120000D03*
D13*
X160950400Y-48010000D03*
X160950400Y-49790000D03*
X160950400Y-51570000D03*
X160950400Y-53350000D03*
X160950400Y-55130000D03*
X160950400Y-56910000D03*
X160950400Y-58690000D03*
X160950400Y-60470000D03*
X160950400Y-62250000D03*
X160950400Y-64030000D03*
X160950400Y-65810000D03*
X160950400Y-67590000D03*
X160950400Y-69370000D03*
X160950400Y-71150000D03*
X160950400Y-72930000D03*
X160950400Y-74710000D03*
X160950400Y-76490000D03*
X160950400Y-78270000D03*
X160950400Y-80050000D03*
X160950400Y-81830000D03*
X160950400Y-83610000D03*
X160950400Y-85390000D03*
X160950400Y-87170000D03*
X160950400Y-88950000D03*
X160950400Y-90730000D03*
X160950400Y-92510000D03*
X160950400Y-94290000D03*
X160950400Y-96070000D03*
X160950400Y-97850000D03*
X160950400Y-99630000D03*
X160950400Y-101410000D03*
X160950400Y-103190000D03*
X141849600Y-103190000D03*
X141849600Y-101410000D03*
X141849600Y-99630000D03*
X141849600Y-97850000D03*
X141849600Y-96070000D03*
X141849600Y-94290000D03*
X141849600Y-92510000D03*
X141849600Y-90730000D03*
X141849600Y-88950000D03*
X141849600Y-87170000D03*
X141849600Y-85390000D03*
X141849600Y-83610000D03*
X141849600Y-81830000D03*
X141849600Y-80050000D03*
X141849600Y-78270000D03*
X141849600Y-76490000D03*
X141849600Y-74710000D03*
X141849600Y-72930000D03*
X141849600Y-71150000D03*
X141849600Y-69370000D03*
X141849600Y-67590000D03*
X141849600Y-65810000D03*
X141849600Y-64030000D03*
X141849600Y-62250000D03*
X141849600Y-60470000D03*
X141849600Y-58690000D03*
X141849600Y-56910000D03*
X141849600Y-55130000D03*
X141849600Y-53350000D03*
X141849600Y-51570000D03*
X141849600Y-49790000D03*
D14*
X141849600Y-48010000D03*
D15*
X137750000Y-44750000D03*
X137750000Y-49750000D03*
X138750000Y-78750000D03*
X138750000Y-83750000D03*
X114000000Y-62000000D03*
X114000000Y-67000000D03*
X115940000Y-111010000D03*
D16*
X113440000Y-111010000D03*
D15*
X114000000Y-80000000D03*
X114000000Y-85000000D03*
X114000000Y-91000000D03*
X114000000Y-96000000D03*
X115940000Y-103150000D03*
D16*
X113440000Y-103150000D03*
D15*
X124500000Y-56750000D03*
D16*
X122000000Y-56750000D03*
D15*
X138500000Y-72975000D03*
D16*
X136000000Y-72975000D03*
D17*
X135755000Y-64800000D03*
D18*
X138295000Y-64800000D03*
X137025000Y-64800000D03*
D19*
X170300000Y-102980000D03*
X193160000Y-110600000D03*
X172840000Y-102980000D03*
X190620000Y-110600000D03*
X175380000Y-102980000D03*
X188080000Y-110600000D03*
X177920000Y-102980000D03*
X185540000Y-110600000D03*
X180460000Y-102980000D03*
X183000000Y-110600000D03*
X183000000Y-102980000D03*
X180460000Y-110600000D03*
X185540000Y-102980000D03*
X177920000Y-110600000D03*
X188080000Y-102980000D03*
X175380000Y-110600000D03*
X190620000Y-102980000D03*
X172840000Y-110600000D03*
X193160000Y-102980000D03*
D20*
X170300000Y-110600000D03*
D15*
X118500000Y-72975000D03*
D16*
X116000000Y-72975000D03*
D15*
X131833332Y-72975000D03*
D16*
X129333332Y-72975000D03*
D15*
X125166666Y-73000000D03*
D16*
X122666666Y-73000000D03*
D15*
X117500000Y-56750000D03*
D16*
X115000000Y-56750000D03*
D15*
X131500000Y-56750000D03*
D16*
X129000000Y-56750000D03*
D15*
X138500000Y-56750000D03*
D16*
X136000000Y-56750000D03*
D19*
X170375000Y-91205000D03*
X193235000Y-98825000D03*
X172915000Y-91205000D03*
X190695000Y-98825000D03*
X175455000Y-91205000D03*
X188155000Y-98825000D03*
X177995000Y-91205000D03*
X185615000Y-98825000D03*
X180535000Y-91205000D03*
X183075000Y-98825000D03*
X183075000Y-91205000D03*
X180535000Y-98825000D03*
X185615000Y-91205000D03*
X177995000Y-98825000D03*
X188155000Y-91205000D03*
X175455000Y-98825000D03*
X190695000Y-91205000D03*
X172915000Y-98825000D03*
X193235000Y-91205000D03*
D20*
X170375000Y-98825000D03*
D17*
X117380000Y-64800000D03*
D18*
X119920000Y-64800000D03*
X118650000Y-64800000D03*
D10*
X173220000Y-65800000D03*
X165600000Y-86120000D03*
X173220000Y-68340000D03*
X165600000Y-83580000D03*
X173220000Y-70880000D03*
X165600000Y-81040000D03*
X173220000Y-73420000D03*
X165600000Y-78500000D03*
X173220000Y-75960000D03*
X165600000Y-75960000D03*
X173220000Y-78500000D03*
X165600000Y-73420000D03*
X173220000Y-81040000D03*
X165600000Y-70880000D03*
X173220000Y-83580000D03*
X165600000Y-68340000D03*
X173220000Y-86120000D03*
D11*
X165600000Y-65800000D03*
D10*
X173220000Y-40200000D03*
X165600000Y-60520000D03*
X173220000Y-42740000D03*
X165600000Y-57980000D03*
X173220000Y-45280000D03*
X165600000Y-55440000D03*
X173220000Y-47820000D03*
X165600000Y-52900000D03*
X173220000Y-50360000D03*
X165600000Y-50360000D03*
X173220000Y-52900000D03*
X165600000Y-47820000D03*
X173220000Y-55440000D03*
X165600000Y-45280000D03*
X173220000Y-57980000D03*
X165600000Y-42740000D03*
X173220000Y-60520000D03*
D11*
X165600000Y-40200000D03*
D10*
X185020000Y-65800000D03*
X177400000Y-86120000D03*
X185020000Y-68340000D03*
X177400000Y-83580000D03*
X185020000Y-70880000D03*
X177400000Y-81040000D03*
X185020000Y-73420000D03*
X177400000Y-78500000D03*
X185020000Y-75960000D03*
X177400000Y-75960000D03*
X185020000Y-78500000D03*
X177400000Y-73420000D03*
X185020000Y-81040000D03*
X177400000Y-70880000D03*
X185020000Y-83580000D03*
X177400000Y-68340000D03*
X185020000Y-86120000D03*
D11*
X177400000Y-65800000D03*
D10*
X185020000Y-40200000D03*
X177400000Y-60520000D03*
X185020000Y-42740000D03*
X177400000Y-57980000D03*
X185020000Y-45280000D03*
X177400000Y-55440000D03*
X185020000Y-47820000D03*
X177400000Y-52900000D03*
X185020000Y-50360000D03*
X177400000Y-50360000D03*
X185020000Y-52900000D03*
X177400000Y-47820000D03*
X185020000Y-55440000D03*
X177400000Y-45280000D03*
X185020000Y-57980000D03*
X177400000Y-42740000D03*
X185020000Y-60520000D03*
D11*
X177400000Y-40200000D03*
D10*
X197220000Y-40200000D03*
X189600000Y-60520000D03*
X197220000Y-42740000D03*
X189600000Y-57980000D03*
X197220000Y-45280000D03*
X189600000Y-55440000D03*
X197220000Y-47820000D03*
X189600000Y-52900000D03*
X197220000Y-50360000D03*
X189600000Y-50360000D03*
X197220000Y-52900000D03*
X189600000Y-47820000D03*
X197220000Y-55440000D03*
X189600000Y-45280000D03*
X197220000Y-57980000D03*
X189600000Y-42740000D03*
X197220000Y-60520000D03*
D11*
X189600000Y-40200000D03*
D12*
X135767304Y-89205000D03*
X135767304Y-79045000D03*
X121940384Y-91720000D03*
X121940384Y-101880000D03*
X124705768Y-101930000D03*
X124705768Y-91770000D03*
X119175000Y-101930000D03*
X119175000Y-91770000D03*
X133001920Y-89155000D03*
X133001920Y-78995000D03*
X135767304Y-91670000D03*
X135767304Y-101830000D03*
X133001920Y-101830000D03*
X133001920Y-91670000D03*
X119175000Y-89230000D03*
X119175000Y-79070000D03*
X121940384Y-89280000D03*
X121940384Y-79120000D03*
X130236536Y-78995000D03*
X130236536Y-89155000D03*
X127471152Y-89230000D03*
X127471152Y-79070000D03*
X127471152Y-91720000D03*
X127471152Y-101880000D03*
X130236536Y-91720000D03*
X130236536Y-101880000D03*
X140250000Y-33170000D03*
X140250000Y-43330000D03*
D17*
X129705000Y-64800000D03*
D18*
X132245000Y-64800000D03*
X130975000Y-64800000D03*
D17*
X123550000Y-64800000D03*
D18*
X126090000Y-64800000D03*
X124820000Y-64800000D03*
D12*
X157200000Y-39963000D03*
X157200000Y-35137000D03*
D21*
X132819200Y-45343600D03*
X125319200Y-45343600D03*
X117819200Y-45343600D03*
X130319200Y-47843600D03*
X120319200Y-47843600D03*
X125319200Y-50343600D03*
X122819200Y-35443600D03*
X127819200Y-35443600D03*
D22*
X134700000Y-108460000D03*
X134700000Y-111000000D03*
X132160000Y-108460000D03*
X132160000Y-111000000D03*
X129620000Y-108460000D03*
X129620000Y-111000000D03*
X127080000Y-108460000D03*
X127080000Y-111000000D03*
X124540000Y-108460000D03*
X124540000Y-111000000D03*
X122000000Y-108460000D03*
D23*
X122000000Y-111000000D03*
D24*
X206190000Y-113920000D03*
X203650000Y-113920000D03*
X206190000Y-111380000D03*
X203650000Y-111380000D03*
X203650000Y-35180000D03*
X206190000Y-35180000D03*
X203650000Y-37720000D03*
X206190000Y-37720000D03*
X203650000Y-40260000D03*
X206190000Y-40260000D03*
X203650000Y-42800000D03*
X206190000Y-42800000D03*
X203650000Y-45340000D03*
X206190000Y-45340000D03*
X203650000Y-47880000D03*
X206190000Y-47880000D03*
X203650000Y-50420000D03*
X206190000Y-50420000D03*
X203650000Y-52960000D03*
X206190000Y-52960000D03*
X203650000Y-55500000D03*
X206190000Y-55500000D03*
X203650000Y-58040000D03*
X206190000Y-58040000D03*
X203650000Y-60580000D03*
X206190000Y-60580000D03*
X203650000Y-63120000D03*
X206190000Y-63120000D03*
X203650000Y-65660000D03*
X206190000Y-65660000D03*
X203650000Y-68200000D03*
X206190000Y-68200000D03*
X203650000Y-70740000D03*
X206190000Y-70740000D03*
X203650000Y-73280000D03*
X206190000Y-73280000D03*
X203650000Y-75820000D03*
X206190000Y-75820000D03*
X203650000Y-78360000D03*
X206190000Y-78360000D03*
X203650000Y-80900000D03*
X206190000Y-80900000D03*
X203650000Y-83440000D03*
X206190000Y-83440000D03*
X203650000Y-85980000D03*
X206190000Y-85980000D03*
X203650000Y-88520000D03*
X206190000Y-88520000D03*
X203650000Y-91060000D03*
X206190000Y-91060000D03*
X203650000Y-93600000D03*
X206190000Y-93600000D03*
X203650000Y-96140000D03*
X206190000Y-96140000D03*
X203650000Y-98680000D03*
X206190000Y-98680000D03*
X203650000Y-101220000D03*
X206190000Y-101220000D03*
X203650000Y-103760000D03*
X206190000Y-103760000D03*
X203650000Y-106300000D03*
X206190000Y-106300000D03*
X203650000Y-108840000D03*
X206190000Y-108840000D03*
D15*
X165000000Y-110000000D03*
X160000000Y-110000000D03*
X165000000Y-99000000D03*
X165000000Y-104000000D03*
X198300000Y-108050000D03*
X198300000Y-113050000D03*
X184000000Y-34000000D03*
X179000000Y-34000000D03*
X155200000Y-110000000D03*
X150200000Y-110000000D03*
X196000000Y-34000000D03*
X191000000Y-34000000D03*
X198300000Y-99050000D03*
X198300000Y-104050000D03*
X165000000Y-90000000D03*
X165000000Y-95000000D03*
X172400000Y-34000000D03*
X167400000Y-34000000D03*
X198450000Y-90050000D03*
X198450000Y-95050000D03*
X145400000Y-110000000D03*
X140400000Y-110000000D03*
X143975000Y-39950000D03*
X148975000Y-39950000D03*
X143975000Y-35175000D03*
X148975000Y-35175000D03*
D25*
X136009071Y-103117428D03*
X126000000Y-86750000D03*
X137407616Y-104431597D03*
X136662943Y-103806597D03*
X153660000Y-51880000D03*
X153740000Y-75420000D03*
X162330000Y-39110000D03*
X175060000Y-41089990D03*
X162810000Y-38270000D03*
X187000000Y-41089990D03*
X162763521Y-37165604D03*
X200170000Y-70670000D03*
X154420000Y-60510000D03*
X154440000Y-47800000D03*
X154410000Y-73420000D03*
X169241937Y-60588063D03*
X167640000Y-62240000D03*
X163275410Y-78510000D03*
X159090000Y-52540000D03*
X162650410Y-81020000D03*
X158465000Y-55910000D03*
X162790000Y-83580000D03*
X169870000Y-57970000D03*
X169900000Y-68740000D03*
X170790000Y-71769990D03*
X170320000Y-55460000D03*
X171470000Y-74400000D03*
X170230000Y-53020000D03*
X194200000Y-74700000D03*
X194200000Y-50300000D03*
X168664999Y-66630000D03*
X168664999Y-77610010D03*
X169275000Y-73420000D03*
X169275000Y-78360000D03*
X158340000Y-70320000D03*
X175220000Y-79710000D03*
X157510000Y-41760000D03*
X156730000Y-48950000D03*
X156105000Y-45280000D03*
X155480000Y-42730000D03*
X179100000Y-94281978D03*
X180114285Y-94281978D03*
X181128570Y-94281978D03*
X182142855Y-94281978D03*
X183157140Y-94281978D03*
X184171425Y-94281978D03*
X185185710Y-94281978D03*
X186200000Y-94281978D03*
X172380000Y-115640000D03*
X138027840Y-105151198D03*
X138699593Y-105822951D03*
X139371346Y-106494704D03*
X129000000Y-103000000D03*
X140043098Y-107166456D03*
X140714851Y-107838208D03*
X171745000Y-113620000D03*
X182390000Y-64450000D03*
X182610000Y-61730000D03*
X181550000Y-63690000D03*
X180833046Y-63065000D03*
X196390000Y-108900000D03*
X184430000Y-97467066D03*
X180770000Y-65270000D03*
X189323058Y-100663058D03*
X180120000Y-62380000D03*
X183320000Y-113620000D03*
X181849165Y-113620000D03*
X180378332Y-113620000D03*
X178907499Y-113620000D03*
X177436666Y-113620000D03*
X175965833Y-113620000D03*
X174495000Y-113620000D03*
X128750000Y-86750000D03*
X131750000Y-86750000D03*
D26*
X126090000Y-69576666D02*
X122666666Y-73000000D01*
X126090000Y-64800000D02*
X126090000Y-69576666D01*
X138500000Y-55618630D02*
X138500000Y-56750000D01*
X138500000Y-53615198D02*
X138500000Y-55618630D01*
X130228402Y-45343600D02*
X138500000Y-53615198D01*
X125319200Y-45343600D02*
X130228402Y-45343600D01*
D27*
X122000000Y-108460000D02*
X125150000Y-105310000D01*
X128744145Y-103831577D02*
X130859867Y-103831577D01*
X127265722Y-105310000D02*
X128744145Y-103831577D01*
X125150000Y-105310000D02*
X127265722Y-105310000D01*
X130859867Y-103831577D02*
X134820000Y-103831577D01*
X135294922Y-103831577D02*
X136009071Y-103117428D01*
X134820000Y-103831577D02*
X135294922Y-103831577D01*
D26*
X120319200Y-49743600D02*
X124900600Y-54325000D01*
X120319200Y-47843600D02*
X120319200Y-49743600D01*
X129075000Y-54325000D02*
X131500000Y-56750000D01*
X124900600Y-54325000D02*
X129075000Y-54325000D01*
X126000000Y-90248848D02*
X127471152Y-91720000D01*
X126000000Y-86750000D02*
X126000000Y-90248848D01*
D27*
X131108403Y-104431597D02*
X137407616Y-104431597D01*
X127080000Y-108460000D02*
X131108403Y-104431597D01*
D26*
X136766920Y-85390000D02*
X141849600Y-85390000D01*
X133001920Y-89155000D02*
X136766920Y-85390000D01*
D27*
X117819200Y-46421230D02*
X117819200Y-45343600D01*
D26*
X128780000Y-64800000D02*
X127500000Y-66080000D01*
X129705000Y-64800000D02*
X128780000Y-64800000D01*
X127500000Y-66080000D02*
X127500000Y-75000000D01*
X127500000Y-75000000D02*
X125500000Y-77000000D01*
X121245000Y-77000000D02*
X119175000Y-79070000D01*
X125500000Y-77000000D02*
X121245000Y-77000000D01*
D27*
X124540000Y-108460000D02*
X128868413Y-104131587D01*
X128868413Y-104131587D02*
X130984135Y-104131587D01*
X130984135Y-104131587D02*
X135638413Y-104131587D01*
X135963403Y-103806597D02*
X136662943Y-103806597D01*
X135638413Y-104131587D02*
X135963403Y-103806597D01*
D26*
X135767304Y-89205000D02*
X138045000Y-89205000D01*
X140080000Y-87170000D02*
X141849600Y-87170000D01*
X138045000Y-89205000D02*
X140080000Y-87170000D01*
D27*
X166950000Y-50360000D02*
X167975010Y-49334990D01*
X165600000Y-50360000D02*
X166950000Y-50360000D01*
X178750000Y-50360000D02*
X179775010Y-49334990D01*
X177400000Y-50360000D02*
X178750000Y-50360000D01*
X161950400Y-51570000D02*
X160950400Y-51570000D01*
X165340000Y-51570000D02*
X161950400Y-51570000D01*
X165600000Y-51310000D02*
X165340000Y-51570000D01*
X165600000Y-50360000D02*
X165600000Y-51310000D01*
X175069583Y-75960000D02*
X174044573Y-76985010D01*
X177400000Y-75960000D02*
X175069583Y-75960000D01*
X185844573Y-49334990D02*
X179775010Y-49334990D01*
X186869583Y-50360000D02*
X185844573Y-49334990D01*
X189600000Y-50360000D02*
X186869583Y-50360000D01*
X175024990Y-49334990D02*
X167975010Y-49334990D01*
X176050000Y-50360000D02*
X175024990Y-49334990D01*
X177400000Y-50360000D02*
X176050000Y-50360000D01*
X153970000Y-51570000D02*
X153660000Y-51880000D01*
X160950400Y-51570000D02*
X153970000Y-51570000D01*
X164250000Y-75960000D02*
X165600000Y-75960000D01*
X163954990Y-75664990D02*
X164250000Y-75960000D01*
X154550675Y-75664990D02*
X163954990Y-75664990D01*
X179775010Y-76985010D02*
X187024990Y-76985010D01*
X178750000Y-75960000D02*
X179775010Y-76985010D01*
X177400000Y-75960000D02*
X178750000Y-75960000D01*
X167975010Y-76985010D02*
X174044573Y-76985010D01*
X166950000Y-75960000D02*
X167975010Y-76985010D01*
X165600000Y-75960000D02*
X166950000Y-75960000D01*
X154305685Y-75420000D02*
X153740000Y-75420000D01*
X154550675Y-75664990D02*
X154305685Y-75420000D01*
X188050000Y-75960000D02*
X189600000Y-75960000D01*
X187024990Y-76985010D02*
X188050000Y-75960000D01*
X162895685Y-39110000D02*
X163435675Y-38570010D01*
X162330000Y-39110000D02*
X162895685Y-39110000D01*
X163435675Y-38570010D02*
X173990010Y-38570010D01*
X175060000Y-39640000D02*
X175060000Y-41089990D01*
X173990010Y-38570010D02*
X175060000Y-39640000D01*
X162810000Y-38270000D02*
X185550000Y-38270000D01*
X187000000Y-39720000D02*
X187000000Y-41089990D01*
X185550000Y-38270000D02*
X187000000Y-39720000D01*
X162763521Y-37165604D02*
X197614396Y-37165604D01*
X198570000Y-45280000D02*
X199230000Y-44620000D01*
X197220000Y-45280000D02*
X198570000Y-45280000D01*
X199230000Y-44620000D02*
X199230000Y-38781208D01*
X198574396Y-38125604D02*
X198645010Y-38196218D01*
X199230000Y-38781208D02*
X198574396Y-38125604D01*
X197614396Y-37165604D02*
X198574396Y-38125604D01*
X197230000Y-70670000D02*
X197220000Y-70680000D01*
X197430000Y-70670000D02*
X197220000Y-70880000D01*
X200170000Y-70670000D02*
X197430000Y-70670000D01*
X166950000Y-47820000D02*
X167975010Y-46794990D01*
X165600000Y-47820000D02*
X166950000Y-47820000D01*
X177400000Y-47820000D02*
X178750000Y-47820000D01*
X175024990Y-46794990D02*
X167975010Y-46794990D01*
X176050000Y-47820000D02*
X175024990Y-46794990D01*
X177400000Y-47820000D02*
X176050000Y-47820000D01*
X186869583Y-47820000D02*
X185844573Y-46794990D01*
X189600000Y-47820000D02*
X186869583Y-47820000D01*
X179775010Y-46794990D02*
X178750000Y-47820000D01*
X185844573Y-46794990D02*
X179775010Y-46794990D01*
X154460000Y-60470000D02*
X154420000Y-60510000D01*
X160950400Y-60470000D02*
X154460000Y-60470000D01*
X164250000Y-47820000D02*
X165600000Y-47820000D01*
X163614990Y-47184990D02*
X164250000Y-47820000D01*
X155055010Y-47184990D02*
X163614990Y-47184990D01*
X154440000Y-47800000D02*
X155055010Y-47184990D01*
X164250000Y-73420000D02*
X165600000Y-73420000D01*
X163796122Y-73420000D02*
X164250000Y-73420000D01*
X162481112Y-72104990D02*
X163796122Y-73420000D01*
X155725010Y-72104990D02*
X162481112Y-72104990D01*
X154410000Y-73420000D02*
X155725010Y-72104990D01*
X165600000Y-73420000D02*
X166950000Y-73420000D01*
X168055010Y-72394990D02*
X167030000Y-73420000D01*
X175024990Y-72394990D02*
X168055010Y-72394990D01*
X176050000Y-73420000D02*
X175024990Y-72394990D01*
X167030000Y-73420000D02*
X165600000Y-73420000D01*
X177400000Y-73420000D02*
X176050000Y-73420000D01*
X178750000Y-73420000D02*
X177400000Y-73420000D01*
X187080000Y-72250000D02*
X179920000Y-72250000D01*
X179920000Y-72250000D02*
X178750000Y-73420000D01*
X188250000Y-73420000D02*
X187080000Y-72250000D01*
X189600000Y-73420000D02*
X188250000Y-73420000D01*
X174570000Y-60520000D02*
X175595010Y-59494990D01*
X173220000Y-60520000D02*
X174570000Y-60520000D01*
X186370000Y-60520000D02*
X187395010Y-59494990D01*
X185020000Y-60520000D02*
X186370000Y-60520000D01*
X183670000Y-86120000D02*
X182644990Y-85094990D01*
X185020000Y-86120000D02*
X183670000Y-86120000D01*
X160950400Y-62250000D02*
X164455002Y-62250000D01*
X182644990Y-59494990D02*
X175595010Y-59494990D01*
X183670000Y-60520000D02*
X182644990Y-59494990D01*
X185020000Y-60520000D02*
X183670000Y-60520000D01*
X195870000Y-60520000D02*
X194844990Y-59494990D01*
X194844990Y-59494990D02*
X187395010Y-59494990D01*
X197220000Y-60520000D02*
X195870000Y-60520000D01*
X173151937Y-60588063D02*
X173220000Y-60520000D01*
X169241937Y-60588063D02*
X173151937Y-60588063D01*
X167630000Y-62250000D02*
X167640000Y-62240000D01*
X164455002Y-62250000D02*
X167630000Y-62250000D01*
X176575427Y-85094990D02*
X182644990Y-85094990D01*
X175550417Y-86120000D02*
X176575427Y-85094990D01*
X173220000Y-86120000D02*
X175550417Y-86120000D01*
X186370000Y-86120000D02*
X187584980Y-84905020D01*
X185020000Y-86120000D02*
X186370000Y-86120000D01*
X187584980Y-84905020D02*
X192000000Y-84905020D01*
X193214980Y-86120000D02*
X197220000Y-86120000D01*
X192000000Y-84905020D02*
X193214980Y-86120000D01*
X166950000Y-52900000D02*
X167975010Y-51874990D01*
X165600000Y-52900000D02*
X166950000Y-52900000D01*
X181554278Y-52900000D02*
X182579288Y-51874990D01*
X177400000Y-52900000D02*
X181554278Y-52900000D01*
X175069583Y-78500000D02*
X174044573Y-79525010D01*
X177400000Y-78500000D02*
X175069583Y-78500000D01*
X165590000Y-78510000D02*
X165600000Y-78500000D01*
X163275410Y-78510000D02*
X165590000Y-78510000D01*
X175024990Y-51874990D02*
X167975010Y-51874990D01*
X176050000Y-52900000D02*
X175024990Y-51874990D01*
X177400000Y-52900000D02*
X176050000Y-52900000D01*
X188250000Y-52900000D02*
X187224990Y-51874990D01*
X187224990Y-51874990D02*
X182579288Y-51874990D01*
X189600000Y-52900000D02*
X188250000Y-52900000D01*
X163874990Y-52524990D02*
X159105010Y-52524990D01*
X159105010Y-52524990D02*
X159090000Y-52540000D01*
X164250000Y-52900000D02*
X163874990Y-52524990D01*
X165600000Y-52900000D02*
X164250000Y-52900000D01*
X167975010Y-79525010D02*
X174044573Y-79525010D01*
X166950000Y-78500000D02*
X167975010Y-79525010D01*
X165600000Y-78500000D02*
X166950000Y-78500000D01*
X179775010Y-79525010D02*
X187024990Y-79525010D01*
X178750000Y-78500000D02*
X179775010Y-79525010D01*
X177400000Y-78500000D02*
X178750000Y-78500000D01*
X188050000Y-78500000D02*
X189600000Y-78500000D01*
X187024990Y-79525010D02*
X188050000Y-78500000D01*
X177324990Y-54414990D02*
X177400000Y-54490000D01*
X177400000Y-54490000D02*
X177400000Y-55440000D01*
X167975010Y-54414990D02*
X177324990Y-54414990D01*
X166950000Y-55440000D02*
X167975010Y-54414990D01*
X165600000Y-55440000D02*
X166950000Y-55440000D01*
X181554278Y-55440000D02*
X182579288Y-54414990D01*
X177400000Y-55440000D02*
X181554278Y-55440000D01*
X176050000Y-81040000D02*
X175024990Y-82065010D01*
X177400000Y-81040000D02*
X176050000Y-81040000D01*
X165580000Y-81020000D02*
X165600000Y-81040000D01*
X162650410Y-81020000D02*
X165580000Y-81020000D01*
X187224990Y-54414990D02*
X182579288Y-54414990D01*
X188250000Y-55440000D02*
X187224990Y-54414990D01*
X189600000Y-55440000D02*
X188250000Y-55440000D01*
X158510010Y-55955010D02*
X158465000Y-55910000D01*
X163734990Y-55955010D02*
X158510010Y-55955010D01*
X164250000Y-55440000D02*
X163734990Y-55955010D01*
X165600000Y-55440000D02*
X164250000Y-55440000D01*
X166950000Y-81040000D02*
X167975010Y-82065010D01*
X167975010Y-82065010D02*
X175024990Y-82065010D01*
X165600000Y-81040000D02*
X166950000Y-81040000D01*
X186434990Y-82065010D02*
X187460000Y-81040000D01*
X179775010Y-82065010D02*
X186434990Y-82065010D01*
X178750000Y-81040000D02*
X179775010Y-82065010D01*
X187460000Y-81040000D02*
X189600000Y-81040000D01*
X177400000Y-81040000D02*
X178750000Y-81040000D01*
X166950000Y-57980000D02*
X167975010Y-56954990D01*
X165600000Y-57980000D02*
X166950000Y-57980000D01*
X178750000Y-57980000D02*
X179775010Y-56954990D01*
X177400000Y-57980000D02*
X178750000Y-57980000D01*
X176050000Y-83580000D02*
X175024990Y-82554990D01*
X177400000Y-83580000D02*
X176050000Y-83580000D01*
X162790000Y-83580000D02*
X165600000Y-83580000D01*
X175024990Y-56954990D02*
X167975010Y-56954990D01*
X176050000Y-57980000D02*
X175024990Y-56954990D01*
X177400000Y-57980000D02*
X176050000Y-57980000D01*
X187224990Y-56954990D02*
X179775010Y-56954990D01*
X188250000Y-57980000D02*
X187224990Y-56954990D01*
X189600000Y-57980000D02*
X188250000Y-57980000D01*
X161542130Y-57864990D02*
X160358670Y-57864990D01*
X161657140Y-57980000D02*
X161542130Y-57864990D01*
X165600000Y-57980000D02*
X161657140Y-57980000D01*
X161950400Y-67590000D02*
X160950400Y-67590000D01*
X162525420Y-67014980D02*
X161950400Y-67590000D01*
X165600000Y-57980000D02*
X166000000Y-57980000D01*
X168390000Y-65415002D02*
X166790022Y-67014980D01*
X168390000Y-60370000D02*
X168390000Y-65415002D01*
X166000000Y-57980000D02*
X168390000Y-60370000D01*
X166790022Y-67014980D02*
X162525420Y-67014980D01*
X167975010Y-82554990D02*
X175024990Y-82554990D01*
X166950000Y-83580000D02*
X167975010Y-82554990D01*
X165600000Y-83580000D02*
X166950000Y-83580000D01*
X178750000Y-83580000D02*
X179964980Y-82365020D01*
X177400000Y-83580000D02*
X178750000Y-83580000D01*
X179964980Y-82365020D02*
X186250000Y-82365020D01*
X187464980Y-83580000D02*
X189600000Y-83580000D01*
X186250000Y-82365020D02*
X187464980Y-83580000D01*
X195870000Y-57980000D02*
X194844990Y-59005010D01*
X197220000Y-57980000D02*
X195870000Y-57980000D01*
X173220000Y-58930000D02*
X173220000Y-57980000D01*
X173295010Y-59005010D02*
X173220000Y-58930000D01*
X182644990Y-59005010D02*
X173295010Y-59005010D01*
X183670000Y-57980000D02*
X182644990Y-59005010D01*
X185020000Y-57980000D02*
X183670000Y-57980000D01*
X187195010Y-84405010D02*
X186370000Y-83580000D01*
X186370000Y-83580000D02*
X185020000Y-83580000D01*
X179249583Y-83580000D02*
X178224573Y-84605010D01*
X185020000Y-83580000D02*
X179249583Y-83580000D01*
X187395010Y-59005010D02*
X194844990Y-59005010D01*
X186370000Y-57980000D02*
X187395010Y-59005010D01*
X185020000Y-57980000D02*
X186370000Y-57980000D01*
X173210000Y-57970000D02*
X173220000Y-57980000D01*
X169870000Y-57970000D02*
X173210000Y-57970000D01*
X168474990Y-67314990D02*
X169900000Y-68740000D01*
X164005410Y-67314990D02*
X168474990Y-67314990D01*
X161950400Y-69370000D02*
X164005410Y-67314990D01*
X160950400Y-69370000D02*
X161950400Y-69370000D01*
X176575427Y-84605010D02*
X178224573Y-84605010D01*
X175550417Y-83580000D02*
X176575427Y-84605010D01*
X173220000Y-83580000D02*
X175550417Y-83580000D01*
X187355010Y-84605010D02*
X187250000Y-84500000D01*
X194844990Y-84605010D02*
X187355010Y-84605010D01*
X195870000Y-83580000D02*
X194844990Y-84605010D01*
X187250000Y-84500000D02*
X187395010Y-84605010D01*
X197220000Y-83580000D02*
X195870000Y-83580000D01*
X187195010Y-84405010D02*
X187250000Y-84500000D01*
X195870000Y-55440000D02*
X194844990Y-56465010D01*
X197220000Y-55440000D02*
X195870000Y-55440000D01*
X183670000Y-55440000D02*
X182644990Y-56465010D01*
X185020000Y-55440000D02*
X183670000Y-55440000D01*
X186370000Y-81040000D02*
X185020000Y-81040000D01*
X187595010Y-79814990D02*
X186370000Y-81040000D01*
X183670000Y-81040000D02*
X182644990Y-80014990D01*
X185020000Y-81040000D02*
X183670000Y-81040000D01*
X170654980Y-71905010D02*
X170790000Y-71769990D01*
X170224315Y-71769990D02*
X170790000Y-71769990D01*
X170089295Y-71905010D02*
X170224315Y-71769990D01*
X161950400Y-71150000D02*
X162705410Y-71905010D01*
X162705410Y-71905010D02*
X170089295Y-71905010D01*
X160950400Y-71150000D02*
X161950400Y-71150000D01*
X187395010Y-56465010D02*
X194844990Y-56465010D01*
X186370000Y-55440000D02*
X187395010Y-56465010D01*
X185020000Y-55440000D02*
X186370000Y-55440000D01*
X176575427Y-56465010D02*
X182644990Y-56465010D01*
X175550417Y-55440000D02*
X176575427Y-56465010D01*
X173220000Y-55440000D02*
X175550417Y-55440000D01*
X173200000Y-55460000D02*
X173220000Y-55440000D01*
X170320000Y-55460000D02*
X173200000Y-55460000D01*
X176575427Y-80014990D02*
X182644990Y-80014990D01*
X175550417Y-81040000D02*
X176575427Y-80014990D01*
X173220000Y-81040000D02*
X175550417Y-81040000D01*
X194644990Y-79814990D02*
X187595010Y-79814990D01*
X195870000Y-81040000D02*
X194644990Y-79814990D01*
X197220000Y-81040000D02*
X195870000Y-81040000D01*
X195870000Y-52900000D02*
X194844990Y-53925010D01*
X197220000Y-52900000D02*
X195870000Y-52900000D01*
X185020000Y-52900000D02*
X183670000Y-52900000D01*
X186370000Y-78500000D02*
X185020000Y-78500000D01*
X187595010Y-77274990D02*
X186370000Y-78500000D01*
X183670000Y-78500000D02*
X182644990Y-77474990D01*
X185020000Y-78500000D02*
X183670000Y-78500000D01*
X161950400Y-72930000D02*
X163465410Y-74445010D01*
X160950400Y-72930000D02*
X161950400Y-72930000D01*
X171424990Y-74445010D02*
X171470000Y-74400000D01*
X163465410Y-74445010D02*
X171424990Y-74445010D01*
X182644990Y-53925010D02*
X183670000Y-52900000D01*
X175595010Y-53925010D02*
X182644990Y-53925010D01*
X174570000Y-52900000D02*
X175595010Y-53925010D01*
X173220000Y-52900000D02*
X174570000Y-52900000D01*
X188775427Y-53925010D02*
X194844990Y-53925010D01*
X187750417Y-52900000D02*
X188775427Y-53925010D01*
X185020000Y-52900000D02*
X187750417Y-52900000D01*
X173100000Y-53020000D02*
X173220000Y-52900000D01*
X170230000Y-53020000D02*
X173100000Y-53020000D01*
X174570000Y-78500000D02*
X175595010Y-77474990D01*
X175595010Y-77474990D02*
X182644990Y-77474990D01*
X173220000Y-78500000D02*
X174570000Y-78500000D01*
X194644990Y-77274990D02*
X187595010Y-77274990D01*
X195870000Y-78500000D02*
X194644990Y-77274990D01*
X197220000Y-78500000D02*
X195870000Y-78500000D01*
X183670000Y-50360000D02*
X182644990Y-51385010D01*
X185020000Y-50360000D02*
X183670000Y-50360000D01*
X183670000Y-75960000D02*
X182644990Y-74934990D01*
X185020000Y-75960000D02*
X183670000Y-75960000D01*
X168874998Y-75960000D02*
X171870000Y-75960000D01*
X167849988Y-74934990D02*
X168874998Y-75960000D01*
X161950400Y-74710000D02*
X162175390Y-74934990D01*
X171870000Y-75960000D02*
X173220000Y-75960000D01*
X162175390Y-74934990D02*
X167849988Y-74934990D01*
X160950400Y-74710000D02*
X161950400Y-74710000D01*
X176575427Y-51385010D02*
X182644990Y-51385010D01*
X175550417Y-50360000D02*
X176575427Y-51385010D01*
X173220000Y-50360000D02*
X175550417Y-50360000D01*
X186370000Y-50360000D02*
X187410000Y-51400000D01*
X185020000Y-50360000D02*
X186370000Y-50360000D01*
X175595010Y-74934990D02*
X182644990Y-74934990D01*
X174570000Y-75960000D02*
X175595010Y-74934990D01*
X173220000Y-75960000D02*
X174570000Y-75960000D01*
X194165010Y-74734990D02*
X194200000Y-74700000D01*
X197160000Y-50300000D02*
X197220000Y-50360000D01*
X194200000Y-50300000D02*
X197160000Y-50300000D01*
X193800001Y-50699999D02*
X194200000Y-50300000D01*
X193114990Y-51385010D02*
X193800001Y-50699999D01*
X189014990Y-51385010D02*
X193114990Y-51385010D01*
X189000000Y-51400000D02*
X189014990Y-51385010D01*
X187410000Y-51400000D02*
X189000000Y-51400000D01*
X187584980Y-74745020D02*
X194154980Y-74745020D01*
X194154980Y-74745020D02*
X194200000Y-74700000D01*
X186370000Y-75960000D02*
X187584980Y-74745020D01*
X185020000Y-75960000D02*
X186370000Y-75960000D01*
X195460000Y-75960000D02*
X197220000Y-75960000D01*
X194200000Y-74700000D02*
X195460000Y-75960000D01*
X185295010Y-67114990D02*
X185020000Y-67390000D01*
X185020000Y-67390000D02*
X185020000Y-68340000D01*
X183670000Y-68340000D02*
X182644990Y-67314990D01*
X185020000Y-68340000D02*
X183670000Y-68340000D01*
X176575427Y-67314990D02*
X182644990Y-67314990D01*
X175550417Y-68340000D02*
X176575427Y-67314990D01*
X173220000Y-68340000D02*
X175550417Y-68340000D01*
X170160000Y-66630000D02*
X168664999Y-66630000D01*
X171870000Y-68340000D02*
X170160000Y-66630000D01*
X173220000Y-68340000D02*
X171870000Y-68340000D01*
X168099314Y-77610010D02*
X167510000Y-77020696D01*
X168664999Y-77610010D02*
X168099314Y-77610010D01*
X167510000Y-77020696D02*
X167510000Y-77010000D01*
X162445410Y-76985010D02*
X161950400Y-76490000D01*
X167485010Y-76985010D02*
X162445410Y-76985010D01*
X161950400Y-76490000D02*
X160950400Y-76490000D01*
X167510000Y-77010000D02*
X167485010Y-76985010D01*
X194644990Y-67114990D02*
X185295010Y-67114990D01*
X195870000Y-68340000D02*
X194644990Y-67114990D01*
X197220000Y-68340000D02*
X195870000Y-68340000D01*
X179249583Y-73420000D02*
X178224573Y-74445010D01*
X185020000Y-73420000D02*
X179249583Y-73420000D01*
X175595010Y-74445010D02*
X178224573Y-74445010D01*
X174570000Y-73420000D02*
X175595010Y-74445010D01*
X173220000Y-73420000D02*
X174570000Y-73420000D01*
X173220000Y-73420000D02*
X169275000Y-73420000D01*
X162935380Y-77285020D02*
X161950400Y-78270000D01*
X161950400Y-78270000D02*
X160950400Y-78270000D01*
X167350046Y-77285020D02*
X162935380Y-77285020D01*
X168425026Y-78360000D02*
X167350046Y-77285020D01*
X169275000Y-78360000D02*
X168425026Y-78360000D01*
X195870000Y-73420000D02*
X197220000Y-73420000D01*
X194554998Y-73420000D02*
X195870000Y-73420000D01*
X193529988Y-74445010D02*
X194554998Y-73420000D01*
X187395010Y-74445010D02*
X193529988Y-74445010D01*
X186370000Y-73420000D02*
X187395010Y-74445010D01*
X185020000Y-73420000D02*
X186370000Y-73420000D01*
X176050000Y-70880000D02*
X175024990Y-69854990D01*
X177400000Y-70880000D02*
X176050000Y-70880000D01*
X167975010Y-69854990D02*
X175024990Y-69854990D01*
X166950000Y-70880000D02*
X167975010Y-69854990D01*
X165600000Y-70880000D02*
X166950000Y-70880000D01*
X163690000Y-70320000D02*
X158340000Y-70320000D01*
X164250000Y-70880000D02*
X163690000Y-70320000D01*
X165600000Y-70880000D02*
X164250000Y-70880000D01*
X179775010Y-69854990D02*
X185844573Y-69854990D01*
X186869583Y-70880000D02*
X189600000Y-70880000D01*
X178750000Y-70880000D02*
X179775010Y-69854990D01*
X185844573Y-69854990D02*
X186869583Y-70880000D01*
X177400000Y-70880000D02*
X178750000Y-70880000D01*
X176050000Y-68340000D02*
X175024990Y-69365010D01*
X177400000Y-68340000D02*
X176050000Y-68340000D01*
X167975010Y-69365010D02*
X175024990Y-69365010D01*
X166950000Y-68340000D02*
X167975010Y-69365010D01*
X165600000Y-68340000D02*
X166950000Y-68340000D01*
X161950400Y-80830000D02*
X161950400Y-81080000D01*
X162765410Y-80014990D02*
X161950400Y-80830000D01*
X161200400Y-81830000D02*
X160950400Y-81830000D01*
X173978871Y-80014990D02*
X162765410Y-80014990D01*
X161950400Y-81080000D02*
X161200400Y-81830000D01*
X174283861Y-79710000D02*
X173978871Y-80014990D01*
X175220000Y-79710000D02*
X174283861Y-79710000D01*
X187660000Y-68340000D02*
X189600000Y-68340000D01*
X186634990Y-69365010D02*
X187660000Y-68340000D01*
X179775010Y-69365010D02*
X186634990Y-69365010D01*
X178750000Y-68340000D02*
X179775010Y-69365010D01*
X177400000Y-68340000D02*
X178750000Y-68340000D01*
X197215000Y-42740000D02*
X196189990Y-41714990D01*
X197220000Y-42740000D02*
X197215000Y-42740000D01*
X173220000Y-41790000D02*
X173220000Y-42740000D01*
X172790001Y-41360001D02*
X173220000Y-41790000D01*
X157909999Y-41360001D02*
X172790001Y-41360001D01*
X157510000Y-41760000D02*
X157909999Y-41360001D01*
X175595010Y-41714990D02*
X174570000Y-42740000D01*
X182644990Y-41714990D02*
X175595010Y-41714990D01*
X174570000Y-42740000D02*
X173220000Y-42740000D01*
X183670000Y-42740000D02*
X182644990Y-41714990D01*
X185020000Y-42740000D02*
X183670000Y-42740000D01*
X187395010Y-41714990D02*
X196189990Y-41714990D01*
X186370000Y-42740000D02*
X187395010Y-41714990D01*
X185020000Y-42740000D02*
X186370000Y-42740000D01*
X191449583Y-47820000D02*
X190424573Y-48845010D01*
X197220000Y-47820000D02*
X191449583Y-47820000D01*
X183670000Y-47820000D02*
X182644990Y-48845010D01*
X185020000Y-47820000D02*
X183670000Y-47820000D01*
X157295685Y-48950000D02*
X156730000Y-48950000D01*
X167935722Y-48950000D02*
X157295685Y-48950000D01*
X169065722Y-47820000D02*
X167935722Y-48950000D01*
X173220000Y-47820000D02*
X169065722Y-47820000D01*
X175595010Y-48845010D02*
X182644990Y-48845010D01*
X174570000Y-47820000D02*
X175595010Y-48845010D01*
X173220000Y-47820000D02*
X174570000Y-47820000D01*
X187395010Y-48845010D02*
X190424573Y-48845010D01*
X186370000Y-47820000D02*
X187395010Y-48845010D01*
X185020000Y-47820000D02*
X186370000Y-47820000D01*
X188250000Y-45280000D02*
X187224990Y-44254990D01*
X189600000Y-45280000D02*
X188250000Y-45280000D01*
X165600000Y-44330000D02*
X165600000Y-45280000D01*
X165675010Y-44254990D02*
X165600000Y-44330000D01*
X175024990Y-44254990D02*
X165675010Y-44254990D01*
X176050000Y-45280000D02*
X175024990Y-44254990D01*
X177400000Y-45280000D02*
X176050000Y-45280000D01*
X156105000Y-45280000D02*
X165600000Y-45280000D01*
X177400000Y-45280000D02*
X179160000Y-45280000D01*
X180185010Y-44254990D02*
X187224990Y-44254990D01*
X179160000Y-45280000D02*
X180185010Y-44254990D01*
X188250000Y-42740000D02*
X187224990Y-43765010D01*
X189600000Y-42740000D02*
X188250000Y-42740000D01*
X166950000Y-42740000D02*
X167975010Y-43765010D01*
X165600000Y-42740000D02*
X166950000Y-42740000D01*
X165590000Y-42730000D02*
X165600000Y-42740000D01*
X155480000Y-42730000D02*
X165590000Y-42730000D01*
X179775010Y-43765010D02*
X187224990Y-43765010D01*
X178750000Y-42740000D02*
X179775010Y-43765010D01*
X177400000Y-42740000D02*
X178750000Y-42740000D01*
X174044573Y-43765010D02*
X167975010Y-43765010D01*
X175069583Y-42740000D02*
X174044573Y-43765010D01*
X177400000Y-42740000D02*
X175069583Y-42740000D01*
X161950400Y-90730000D02*
X160950400Y-90730000D01*
X164045400Y-92825000D02*
X161950400Y-90730000D01*
X164050000Y-92825000D02*
X164045400Y-92825000D01*
X165086089Y-93144809D02*
X164369809Y-93144809D01*
X164369809Y-93144809D02*
X164050000Y-92825000D01*
X166621280Y-94680000D02*
X165086089Y-93144809D01*
X178400000Y-94680000D02*
X166621280Y-94680000D01*
X178401977Y-94681977D02*
X178400000Y-94680000D01*
X178700001Y-94681977D02*
X179100000Y-94281978D01*
X178401977Y-94681977D02*
X178700001Y-94681977D01*
X161950400Y-92510000D02*
X163215410Y-93775010D01*
X163215410Y-93775010D02*
X165292012Y-93775010D01*
X160950400Y-92510000D02*
X161950400Y-92510000D01*
X166498989Y-94981987D02*
X165292012Y-93775010D01*
X179414276Y-94981987D02*
X180114285Y-94281978D01*
X166498989Y-94981987D02*
X179414276Y-94981987D01*
X166394999Y-96025001D02*
X167138003Y-95281997D01*
X163685401Y-96025001D02*
X166394999Y-96025001D01*
X161950400Y-94290000D02*
X163685401Y-96025001D01*
X160950400Y-94290000D02*
X161950400Y-94290000D01*
X180128551Y-95281997D02*
X181128570Y-94281978D01*
X167138003Y-95281997D02*
X180128551Y-95281997D01*
X160950400Y-96070000D02*
X161200400Y-96070000D01*
X166519268Y-96325010D02*
X167262271Y-95582007D01*
X160950400Y-96070000D02*
X161950400Y-96070000D01*
X162205411Y-96325011D02*
X166519268Y-96325010D01*
X161950400Y-96070000D02*
X162205411Y-96325011D01*
X180842826Y-95582007D02*
X182142855Y-94281978D01*
X167262271Y-95582007D02*
X180842826Y-95582007D01*
X181557101Y-95882017D02*
X183157140Y-94281978D01*
X166643537Y-96625019D02*
X167386539Y-95882017D01*
X163194979Y-96625021D02*
X163194981Y-96625019D01*
X163175379Y-96625021D02*
X163194979Y-96625021D01*
X163194981Y-96625019D02*
X166643537Y-96625019D01*
X161950400Y-97850000D02*
X163175379Y-96625021D01*
X167386539Y-95882017D02*
X181557101Y-95882017D01*
X160950400Y-97850000D02*
X161950400Y-97850000D01*
X167510807Y-96182027D02*
X182271376Y-96182027D01*
X166767806Y-96925028D02*
X167510807Y-96182027D01*
X182271376Y-96182027D02*
X184171425Y-94281978D01*
X164664971Y-96925029D02*
X166767806Y-96925028D01*
X161950400Y-99630000D02*
X164655369Y-96925031D01*
X164664969Y-96925031D02*
X164664971Y-96925029D01*
X164655369Y-96925031D02*
X164664969Y-96925031D01*
X160950400Y-99630000D02*
X161950400Y-99630000D01*
X167637963Y-96482037D02*
X182985651Y-96482037D01*
X166892075Y-97225037D02*
X167267062Y-96850050D01*
X167267062Y-96850050D02*
X167269950Y-96850050D01*
X166274959Y-97225041D02*
X166274963Y-97225037D01*
X164779637Y-97225041D02*
X166274959Y-97225041D01*
X182985651Y-96482037D02*
X185185710Y-94281978D01*
X160594678Y-101410000D02*
X164779637Y-97225041D01*
X167269950Y-96850050D02*
X167637963Y-96482037D01*
X166274963Y-97225037D02*
X166892075Y-97225037D01*
X160950400Y-101410000D02*
X160594678Y-101410000D01*
X183699931Y-96782047D02*
X186200000Y-94281978D01*
X167777953Y-96782047D02*
X183699931Y-96782047D01*
X164904953Y-97525047D02*
X167016343Y-97525047D01*
X163657110Y-98772890D02*
X164904953Y-97525047D01*
X167409940Y-97150060D02*
X167777953Y-96782047D01*
X163657110Y-100250010D02*
X163657110Y-98772890D01*
X142849600Y-103190000D02*
X143674610Y-102364990D01*
X167016343Y-97525047D02*
X167391330Y-97150060D01*
X161542130Y-102364990D02*
X163657110Y-100250010D01*
X167391330Y-97150060D02*
X167409940Y-97150060D01*
X143674610Y-102364990D02*
X161542130Y-102364990D01*
X141849600Y-103190000D02*
X142849600Y-103190000D01*
X164802120Y-87824980D02*
X188664980Y-87824980D01*
X161542130Y-84564990D02*
X164802120Y-87824980D01*
X190695000Y-89855000D02*
X190695000Y-91205000D01*
X153506054Y-84564990D02*
X161542130Y-84564990D01*
X141849600Y-101410000D02*
X140849600Y-101410000D01*
X141257870Y-93464990D02*
X144606054Y-93464990D01*
X144606054Y-93464990D02*
X153506054Y-84564990D01*
X140474581Y-94248279D02*
X141257870Y-93464990D01*
X140474581Y-101034981D02*
X140474581Y-94248279D01*
X188664980Y-87824980D02*
X190695000Y-89855000D01*
X140849600Y-101410000D02*
X140474581Y-101034981D01*
X164677852Y-88124990D02*
X186424990Y-88124990D01*
X186424990Y-88124990D02*
X188155000Y-89855000D01*
X162897852Y-86344990D02*
X164677852Y-88124990D01*
X141257870Y-95244990D02*
X143250332Y-95244990D01*
X143250332Y-95244990D02*
X152150332Y-86344990D01*
X140774590Y-95728270D02*
X141257870Y-95244990D01*
X188155000Y-89855000D02*
X188155000Y-91205000D01*
X141849600Y-99630000D02*
X140849600Y-99630000D01*
X140849600Y-99630000D02*
X140774590Y-99554990D01*
X152150332Y-86344990D02*
X162897852Y-86344990D01*
X140774590Y-99554990D02*
X140774590Y-95728270D01*
X206951999Y-35941999D02*
X206190000Y-35180000D01*
X210700080Y-39690080D02*
X206951999Y-35941999D01*
X208219152Y-117675072D02*
X210700080Y-115194144D01*
X174415072Y-117675072D02*
X208219152Y-117675072D01*
X210700080Y-115194144D02*
X210700080Y-39690080D01*
X172380000Y-115640000D02*
X174415072Y-117675072D01*
X185615000Y-97475000D02*
X185615000Y-98825000D01*
X187220000Y-95870000D02*
X185615000Y-97475000D01*
X185873511Y-92844799D02*
X187220000Y-94191288D01*
X150794610Y-89904990D02*
X161554268Y-89904990D01*
X164494077Y-92844799D02*
X185873511Y-92844799D01*
X161554268Y-89904990D02*
X164494077Y-92844799D01*
X142849600Y-97850000D02*
X150794610Y-89904990D01*
X187220000Y-94191288D02*
X187220000Y-95870000D01*
X141849600Y-97850000D02*
X142849600Y-97850000D01*
X188155000Y-97475000D02*
X188155000Y-98825000D01*
X185735000Y-88425000D02*
X186970000Y-89660000D01*
X164553584Y-88425000D02*
X185735000Y-88425000D01*
X186970000Y-93517010D02*
X188155000Y-94702010D01*
X186970000Y-89660000D02*
X186970000Y-93517010D01*
X164123594Y-87995010D02*
X164553584Y-88425000D01*
X150924590Y-87995010D02*
X164123594Y-87995010D01*
X142849600Y-96070000D02*
X150924590Y-87995010D01*
X188155000Y-94702010D02*
X188155000Y-97475000D01*
X141849600Y-96070000D02*
X142849600Y-96070000D01*
X204411999Y-67438001D02*
X203650000Y-68200000D01*
X204637001Y-37005281D02*
X204637001Y-67212999D01*
X204098731Y-36467011D02*
X204637001Y-37005281D01*
X153782989Y-36467011D02*
X204098731Y-36467011D01*
X204637001Y-67212999D02*
X204411999Y-67438001D01*
X151990010Y-82259268D02*
X151990010Y-38259990D01*
X143519278Y-90730000D02*
X151990010Y-82259268D01*
X151990010Y-38259990D02*
X153782989Y-36467011D01*
X141849600Y-90730000D02*
X143519278Y-90730000D01*
X128244990Y-109835010D02*
X128244990Y-107819730D01*
X127080000Y-111000000D02*
X128244990Y-109835010D01*
X128244990Y-107819730D02*
X129392360Y-106672360D01*
X130913522Y-105151198D02*
X138027840Y-105151198D01*
X129392360Y-106672360D02*
X130913522Y-105151198D01*
X205202999Y-76807001D02*
X203650000Y-78360000D01*
X153658721Y-36167001D02*
X204222999Y-36167001D01*
X205202999Y-37147001D02*
X205202999Y-76807001D01*
X151690001Y-38135721D02*
X153658721Y-36167001D01*
X204222999Y-36167001D02*
X205202999Y-37147001D01*
X151690000Y-53409600D02*
X151690001Y-38135721D01*
X142849600Y-62250000D02*
X151690000Y-53409600D01*
X141849600Y-62250000D02*
X142849600Y-62250000D01*
X130666047Y-105822951D02*
X138699593Y-105822951D01*
X128544999Y-107943999D02*
X130666047Y-105822951D01*
X128544999Y-109924999D02*
X129620000Y-111000000D01*
X128544999Y-107943999D02*
X128544999Y-109924999D01*
X131585296Y-106494704D02*
X139371346Y-106494704D01*
X129620000Y-108460000D02*
X131585296Y-106494704D01*
X130120000Y-101880000D02*
X130236536Y-101880000D01*
X129000000Y-103000000D02*
X130120000Y-101880000D01*
X137674553Y-109535001D02*
X140043098Y-107166456D01*
X133235001Y-109535001D02*
X137674553Y-109535001D01*
X132160000Y-108460000D02*
X133235001Y-109535001D01*
X133235001Y-109924999D02*
X136104999Y-109924999D01*
X132160000Y-111000000D02*
X133235001Y-109924999D01*
X136104999Y-109924999D02*
X138034999Y-109924999D01*
X138034999Y-109924999D02*
X138455001Y-109924999D01*
X140541792Y-107838208D02*
X140714851Y-107838208D01*
X138455001Y-109924999D02*
X140541792Y-107838208D01*
X171250000Y-110600000D02*
X170300000Y-110600000D01*
X171325010Y-110524990D02*
X171250000Y-110600000D01*
X171325010Y-102645407D02*
X171325010Y-110524990D01*
X189315010Y-101554990D02*
X172415427Y-101554990D01*
X172415427Y-101554990D02*
X171325010Y-102645407D01*
X190695000Y-100175000D02*
X189315010Y-101554990D01*
X190695000Y-98825000D02*
X190695000Y-100175000D01*
X206951999Y-41021999D02*
X206190000Y-40260000D01*
X210400070Y-115069876D02*
X210400070Y-44470070D01*
X210400070Y-44470070D02*
X206951999Y-41021999D01*
X208094883Y-117375063D02*
X210400070Y-115069876D01*
X175500064Y-117375064D02*
X208094883Y-117375063D01*
X171745000Y-113620000D02*
X175500064Y-117375064D01*
X198818506Y-63720050D02*
X183119950Y-63720050D01*
X199118517Y-63420039D02*
X198818506Y-63720050D01*
X201234239Y-63420039D02*
X199118517Y-63420039D01*
X183119950Y-63720050D02*
X182390000Y-64450000D01*
X201534278Y-63120000D02*
X203650000Y-63120000D01*
X201234239Y-63420039D02*
X201534278Y-63120000D01*
X199090000Y-47360000D02*
X203650000Y-42800000D01*
X199090000Y-61270000D02*
X199090000Y-47360000D01*
X198620000Y-61740000D02*
X199090000Y-61270000D01*
X198610000Y-61730000D02*
X182610000Y-61730000D01*
X198620000Y-61740000D02*
X198610000Y-61730000D01*
X201109971Y-63120029D02*
X203650000Y-60580000D01*
X182115685Y-63690000D02*
X181550000Y-63690000D01*
X182385645Y-63420040D02*
X182115685Y-63690000D01*
X198694238Y-63420040D02*
X182385645Y-63420040D01*
X198994249Y-63120029D02*
X198694238Y-63420040D01*
X201109971Y-63120029D02*
X198994249Y-63120029D01*
X198625000Y-63065000D02*
X180833046Y-63065000D01*
X203650000Y-58040000D02*
X198625000Y-63065000D01*
X206190000Y-108840000D02*
X207999990Y-110649990D01*
X207999990Y-110649990D02*
X207999990Y-113570772D01*
X207999990Y-113570772D02*
X207999990Y-114075732D01*
X207999990Y-114075732D02*
X207100732Y-114974990D01*
X207100732Y-114974990D02*
X203244228Y-114974990D01*
X203244228Y-114974990D02*
X197114990Y-114974990D01*
X196390000Y-114250000D02*
X196390000Y-108900000D01*
X197114990Y-114974990D02*
X196390000Y-114250000D01*
X183864315Y-97467066D02*
X183479306Y-97082057D01*
X184430000Y-97467066D02*
X183864315Y-97467066D01*
X175455000Y-97475000D02*
X175455000Y-98825000D01*
X175847943Y-97082057D02*
X175455000Y-97475000D01*
X183479306Y-97082057D02*
X175847943Y-97082057D01*
X200800000Y-72970000D02*
X203650000Y-75820000D01*
X183740000Y-64020060D02*
X200120060Y-64020060D01*
X200800000Y-64700000D02*
X200800000Y-72970000D01*
X200120060Y-64020060D02*
X200800000Y-64700000D01*
X182490060Y-65270000D02*
X183740000Y-64020060D01*
X180770000Y-65270000D02*
X182490060Y-65270000D01*
X189323058Y-96466942D02*
X189323058Y-100097373D01*
X193235000Y-92555000D02*
X189323058Y-96466942D01*
X189323058Y-100097373D02*
X189323058Y-100663058D01*
X193235000Y-91205000D02*
X193235000Y-92555000D01*
X199390010Y-61394268D02*
X199390010Y-57219990D01*
X199390010Y-57219990D02*
X203650000Y-52960000D01*
X198404278Y-62380000D02*
X180120000Y-62380000D01*
X199390010Y-61394268D02*
X198404278Y-62380000D01*
X207225000Y-115275000D02*
X208300000Y-114200000D01*
X184975000Y-115275000D02*
X207225000Y-115275000D01*
X208300000Y-60150000D02*
X206190000Y-58040000D01*
X208300000Y-114200000D02*
X208300000Y-60150000D01*
X183320000Y-113620000D02*
X184975000Y-115275000D01*
X206951999Y-56261999D02*
X206190000Y-55500000D01*
X208600010Y-57910010D02*
X206951999Y-56261999D01*
X208600010Y-114324268D02*
X208600010Y-57910010D01*
X207349269Y-115575009D02*
X208600010Y-114324268D01*
X183804174Y-115575009D02*
X207349269Y-115575009D01*
X181849165Y-113620000D02*
X183804174Y-115575009D01*
X206951999Y-53721999D02*
X206190000Y-52960000D01*
X207473538Y-115875018D02*
X208900020Y-114448536D01*
X208900020Y-55670020D02*
X206951999Y-53721999D01*
X208900020Y-114448536D02*
X208900020Y-55670020D01*
X182633350Y-115875018D02*
X207473538Y-115875018D01*
X180378332Y-113620000D02*
X182633350Y-115875018D01*
X206951999Y-51181999D02*
X206190000Y-50420000D01*
X207597807Y-116175027D02*
X209200030Y-114572804D01*
X209200030Y-53430030D02*
X206951999Y-51181999D01*
X178907499Y-113620000D02*
X181462526Y-116175027D01*
X209200030Y-114572804D02*
X209200030Y-53430030D01*
X181462526Y-116175027D02*
X207597807Y-116175027D01*
X206951999Y-48641999D02*
X206190000Y-47880000D01*
X209500040Y-51190040D02*
X206951999Y-48641999D01*
X209500040Y-114697072D02*
X209500040Y-51190040D01*
X207722076Y-116475036D02*
X209500040Y-114697072D01*
X180291703Y-116475037D02*
X207722076Y-116475036D01*
X177436666Y-113620000D02*
X180291703Y-116475037D01*
X206951999Y-46101999D02*
X206190000Y-45340000D01*
X207846345Y-116775045D02*
X209800050Y-114821340D01*
X175965833Y-113620000D02*
X179120878Y-116775045D01*
X209800050Y-48950050D02*
X206951999Y-46101999D01*
X179120878Y-116775045D02*
X207846345Y-116775045D01*
X209800050Y-114821340D02*
X209800050Y-48950050D01*
X206951999Y-43561999D02*
X206190000Y-42800000D01*
X174495000Y-113620000D02*
X177950054Y-117075054D01*
X210100060Y-46710060D02*
X206951999Y-43561999D01*
X207970614Y-117075054D02*
X210100060Y-114945608D01*
X210100060Y-114945608D02*
X210100060Y-46710060D01*
X177950054Y-117075054D02*
X207970614Y-117075054D01*
D26*
X128750000Y-90233464D02*
X130236536Y-91720000D01*
X128750000Y-86750000D02*
X128750000Y-90233464D01*
X160950400Y-109049600D02*
X160000000Y-110000000D01*
X160950400Y-103190000D02*
X160950400Y-109049600D01*
X125639714Y-79120000D02*
X128750000Y-76009714D01*
X124705768Y-79120000D02*
X125639714Y-79120000D01*
X128750000Y-76009714D02*
X131990286Y-76009714D01*
X131990286Y-76009714D02*
X134000000Y-74000000D01*
X134830000Y-64800000D02*
X135755000Y-64800000D01*
X134000000Y-65630000D02*
X134830000Y-64800000D01*
X134000000Y-74000000D02*
X134000000Y-65630000D01*
X137025000Y-71500000D02*
X138500000Y-72975000D01*
X137025000Y-64800000D02*
X137025000Y-71500000D01*
X131265401Y-77984599D02*
X132250000Y-77000000D01*
X131246937Y-77984599D02*
X131265401Y-77984599D01*
X130236536Y-78995000D02*
X131246937Y-77984599D01*
X134475000Y-77000000D02*
X138500000Y-72975000D01*
X132250000Y-77000000D02*
X134475000Y-77000000D01*
X130161536Y-79070000D02*
X130236536Y-78995000D01*
X127471152Y-79070000D02*
X130161536Y-79070000D01*
X130975000Y-72116668D02*
X131833332Y-72975000D01*
X130975000Y-64800000D02*
X130975000Y-72116668D01*
X131750000Y-90418080D02*
X133001920Y-91670000D01*
X131750000Y-86750000D02*
X131750000Y-90418080D01*
X133001920Y-91670000D02*
X135767304Y-91670000D01*
X118241054Y-91770000D02*
X119175000Y-91770000D01*
X117250000Y-66080000D02*
X117250000Y-76750000D01*
X116699990Y-77300010D02*
X116699990Y-90228936D01*
X117250000Y-76750000D02*
X116699990Y-77300010D01*
X117380000Y-65950000D02*
X117250000Y-66080000D01*
X116699990Y-90228936D02*
X118241054Y-91770000D01*
X117380000Y-64800000D02*
X117380000Y-65950000D01*
X118650000Y-72825000D02*
X118500000Y-72975000D01*
X118650000Y-64800000D02*
X118650000Y-72825000D01*
X124655768Y-91720000D02*
X124705768Y-91770000D01*
X121940384Y-91720000D02*
X124655768Y-91720000D01*
X121006438Y-91720000D02*
X121940384Y-91720000D01*
X119786438Y-90500000D02*
X121006438Y-91720000D01*
X118250000Y-90500000D02*
X119786438Y-90500000D01*
X117250000Y-89500000D02*
X118250000Y-90500000D01*
X117250000Y-77648946D02*
X117250000Y-89500000D01*
X118500000Y-76398946D02*
X117250000Y-77648946D01*
X118500000Y-72975000D02*
X118500000Y-76398946D01*
M02*
