M48
; DRILL file {KiCad (5.1.5-0-10_14)} date Monday, 13 April 2020 at 19:44:24
; FORMAT={-:-/ absolute / inch / decimal}
; #@! TF.CreationDate,2020-04-13T19:44:24+01:00
; #@! TF.GenerationSoftware,Kicad,Pcbnew,(5.1.5-0-10_14)
; #@! TF.FileFunction,Plated,1,2,PTH
FMAT,2
INCH
T1C0.0150
T2C0.0295
T3C0.0315
T4C0.0320
T5C0.0400
%
G90
G05
T1
X3.9955Y-1.524
X4.8165Y-3.3595
X4.817Y-3.8835
X4.85Y-3.338
X4.85Y-3.921
X4.8755Y-1.5265
X4.899Y-2.197
X4.8995Y-3.2125
X4.9209Y-3.2349
X4.921Y-2.163
X5.7Y-3.3165
X5.7Y-3.9215
X5.7455Y-1.5265
X5.769Y-2.1585
X5.7695Y-3.2564
X6.418Y-5.057
X6.4399Y-5.0351
X6.446Y-3.2779
X6.4614Y-5.058
X6.4829Y-5.0336
X6.5044Y-5.058
X6.519Y-2.059
X6.5255Y-3.52
X6.5259Y-5.0353
X6.5405Y-1.959
X6.547Y-3.621
X6.5474Y-5.058
X6.562Y-1.8595
X6.5685Y-3.7205
X6.5689Y-5.0354
X6.5835Y-1.7595
X6.6055Y-1.5265
X6.6173Y-1.658
X6.658Y-2.211
X6.6595Y-1.7595
X6.6795Y-2.2585
X6.683Y-1.8595
X6.705Y-1.9605
X6.8415Y-2.4565
X6.863Y-2.559
X7.01Y-2.909
X7.148Y-1.6495
X7.181Y-1.6495
X7.2155Y-1.648
X7.4145Y-2.45
X7.453Y-2.558
X7.453Y-2.7155
X7.4981Y-3.084
X7.4985Y-2.9175
X7.4993Y-3.1828
X7.5005Y-2.8551
X7.5005Y-2.8862
X7.5095Y-2.5375
X7.5115Y-3.3315
X7.5125Y-2.9935
X7.5135Y-2.9575
T2
X3.398Y-2.4995
X3.448Y-2.4995
X3.498Y-2.4995
T3
X6.373Y-1.659
X6.373Y-1.759
X6.373Y-1.859
X6.373Y-1.959
X6.373Y-2.059
X6.373Y-2.159
X6.373Y-2.259
X6.373Y-2.359
X6.373Y-2.459
X6.373Y-2.559
X6.373Y-2.659
X6.373Y-2.759
X6.373Y-2.859
X6.373Y-2.959
X6.373Y-3.059
X6.373Y-3.159
X6.973Y-1.659
X6.973Y-1.759
X6.973Y-1.859
X6.973Y-1.959
X6.973Y-2.059
X6.973Y-2.159
X6.973Y-2.259
X6.973Y-2.359
X6.973Y-2.459
X6.973Y-2.559
X6.973Y-2.659
X6.973Y-2.759
X6.973Y-2.859
X6.973Y-2.959
X6.973Y-3.059
X6.973Y-3.159
X3.743Y-3.4215
X3.743Y-3.5215
X3.743Y-3.6215
X3.743Y-3.7215
X3.743Y-3.8215
X3.743Y-3.9215
X3.743Y-4.0215
X3.743Y-4.1215
X3.743Y-4.2215
X3.743Y-4.3215
X3.743Y-4.4215
X3.743Y-4.5215
X3.743Y-4.6215
X3.743Y-4.7215
X3.743Y-4.8215
X3.743Y-4.9215
X4.343Y-3.4215
X4.343Y-3.5215
X4.343Y-3.6215
X4.343Y-3.7215
X4.343Y-3.8215
X4.343Y-3.9215
X4.343Y-4.0215
X4.343Y-4.1215
X4.343Y-4.2215
X4.343Y-4.3215
X4.343Y-4.4215
X4.343Y-4.5215
X4.343Y-4.6215
X4.343Y-4.7215
X4.343Y-4.8215
X4.343Y-4.9215
X6.3705Y-3.4215
X6.3705Y-3.5215
X6.3705Y-3.6215
X6.3705Y-3.7215
X6.3705Y-3.8215
X6.3705Y-3.9215
X6.3705Y-4.0215
X6.3705Y-4.1215
X6.3705Y-4.2215
X6.3705Y-4.3215
X6.3705Y-4.4215
X6.3705Y-4.5215
X6.3705Y-4.6215
X6.3705Y-4.7215
X6.3705Y-4.8215
X6.3705Y-4.9215
X6.9705Y-3.4215
X6.9705Y-3.5215
X6.9705Y-3.6215
X6.9705Y-3.7215
X6.9705Y-3.8215
X6.9705Y-3.9215
X6.9705Y-4.0215
X6.9705Y-4.1215
X6.9705Y-4.2215
X6.9705Y-4.3215
X6.9705Y-4.4215
X6.9705Y-4.5215
X6.9705Y-4.6215
X6.9705Y-4.7215
X6.9705Y-4.8215
X6.9705Y-4.9215
X3.7455Y-1.659
X3.7455Y-1.759
X3.7455Y-1.859
X3.7455Y-1.959
X3.7455Y-2.059
X3.7455Y-2.159
X3.7455Y-2.259
X3.7455Y-2.359
X3.7455Y-2.459
X3.7455Y-2.559
X3.7455Y-2.659
X3.7455Y-2.759
X3.7455Y-2.859
X3.7455Y-2.959
X3.7455Y-3.059
X3.7455Y-3.159
X4.3455Y-1.659
X4.3455Y-1.759
X4.3455Y-1.859
X4.3455Y-1.959
X4.3455Y-2.059
X4.3455Y-2.159
X4.3455Y-2.259
X4.3455Y-2.359
X4.3455Y-2.459
X4.3455Y-2.559
X4.3455Y-2.659
X4.3455Y-2.759
X4.3455Y-2.859
X4.3455Y-2.959
X4.3455Y-3.059
X4.3455Y-3.159
X4.6255Y-1.659
X4.6255Y-1.759
X4.6255Y-1.859
X4.6255Y-1.959
X4.6255Y-2.059
X4.6255Y-2.159
X4.6255Y-2.259
X4.6255Y-2.359
X4.6255Y-2.459
X4.6255Y-2.559
X4.6255Y-2.659
X4.6255Y-2.759
X4.6255Y-2.859
X4.6255Y-2.959
X4.6255Y-3.059
X4.6255Y-3.159
X5.2255Y-1.659
X5.2255Y-1.759
X5.2255Y-1.859
X5.2255Y-1.959
X5.2255Y-2.059
X5.2255Y-2.159
X5.2255Y-2.259
X5.2255Y-2.359
X5.2255Y-2.459
X5.2255Y-2.559
X5.2255Y-2.659
X5.2255Y-2.759
X5.2255Y-2.859
X5.2255Y-2.959
X5.2255Y-3.059
X5.2255Y-3.159
X5.4955Y-3.4215
X5.4955Y-3.5215
X5.4955Y-3.6215
X5.4955Y-3.7215
X5.4955Y-3.8215
X5.4955Y-3.9215
X5.4955Y-4.0215
X5.4955Y-4.1215
X5.4955Y-4.2215
X5.4955Y-4.3215
X5.4955Y-4.4215
X5.4955Y-4.5215
X5.4955Y-4.6215
X5.4955Y-4.7215
X5.4955Y-4.8215
X5.4955Y-4.9215
X6.0955Y-3.4215
X6.0955Y-3.5215
X6.0955Y-3.6215
X6.0955Y-3.7215
X6.0955Y-3.8215
X6.0955Y-3.9215
X6.0955Y-4.0215
X6.0955Y-4.1215
X6.0955Y-4.2215
X6.0955Y-4.3215
X6.0955Y-4.4215
X6.0955Y-4.5215
X6.0955Y-4.6215
X6.0955Y-4.7215
X6.0955Y-4.8215
X6.0955Y-4.9215
X5.4955Y-1.659
X5.4955Y-1.759
X5.4955Y-1.859
X5.4955Y-1.959
X5.4955Y-2.059
X5.4955Y-2.159
X5.4955Y-2.259
X5.4955Y-2.359
X5.4955Y-2.459
X5.4955Y-2.559
X5.4955Y-2.659
X5.4955Y-2.759
X5.4955Y-2.859
X5.4955Y-2.959
X5.4955Y-3.059
X5.4955Y-3.159
X6.0955Y-1.659
X6.0955Y-1.759
X6.0955Y-1.859
X6.0955Y-1.959
X6.0955Y-2.059
X6.0955Y-2.159
X6.0955Y-2.259
X6.0955Y-2.359
X6.0955Y-2.459
X6.0955Y-2.559
X6.0955Y-2.659
X6.0955Y-2.759
X6.0955Y-2.859
X6.0955Y-2.959
X6.0955Y-3.059
X6.0955Y-3.159
X4.623Y-3.4215
X4.623Y-3.5215
X4.623Y-3.6215
X4.623Y-3.7215
X4.623Y-3.8215
X4.623Y-3.9215
X4.623Y-4.0215
X4.623Y-4.1215
X4.623Y-4.2215
X4.623Y-4.3215
X4.623Y-4.4215
X4.623Y-4.5215
X4.623Y-4.6215
X4.623Y-4.7215
X4.623Y-4.8215
X4.623Y-4.9215
X5.223Y-3.4215
X5.223Y-3.5215
X5.223Y-3.6215
X5.223Y-3.7215
X5.223Y-3.8215
X5.223Y-3.9215
X5.223Y-4.0215
X5.223Y-4.1215
X5.223Y-4.2215
X5.223Y-4.3215
X5.223Y-4.4215
X5.223Y-4.5215
X5.223Y-4.6215
X5.223Y-4.7215
X5.223Y-4.8215
X5.223Y-4.9215
T4
X7.2255Y-4.1265
X7.3255Y-4.1265
X7.3205Y-2.0815
X7.3205Y-2.4815
X3.4985Y-2.768
X3.4985Y-3.168
X4.878Y-5.1615
X4.978Y-5.1615
X7.3915Y-1.6345
X7.3915Y-1.7345
X5.7455Y-1.4215
X5.8455Y-1.4215
X7.493Y-2.0815
X7.493Y-2.4815
X7.1205Y-2.834
X7.1205Y-2.934
X7.1205Y-3.034
X7.1205Y-3.134
X7.1205Y-3.234
X7.1205Y-3.334
X7.1205Y-3.434
X7.1205Y-3.534
X7.1205Y-3.634
X7.1205Y-3.734
X7.4205Y-2.834
X7.4205Y-2.934
X7.4205Y-3.034
X7.4205Y-3.134
X7.4205Y-3.234
X7.4205Y-3.334
X7.4205Y-3.434
X7.4205Y-3.534
X7.4205Y-3.634
X7.4205Y-3.734
X3.338Y-2.7685
X3.338Y-3.1685
X7.3955Y-4.888
X7.3955Y-4.988
X5.7555Y-5.1615
X5.8555Y-5.1615
X6.6255Y-5.1615
X6.7255Y-5.1615
X3.9955Y-1.4225
X4.0955Y-1.4225
X7.148Y-2.0815
X7.148Y-2.4815
X4.8755Y-1.4215
X4.9755Y-1.4215
X3.998Y-5.1615
X4.098Y-5.1615
X6.6055Y-1.4215
X6.7055Y-1.4215
T5
X7.618Y-1.7615
X7.618Y-1.8615
X7.618Y-1.9615
X7.618Y-2.0615
X7.618Y-2.1615
X7.618Y-2.2615
X7.618Y-2.3615
X7.618Y-2.4615
X7.618Y-2.5615
X7.618Y-2.6615
X7.618Y-2.7615
X7.618Y-2.8615
X7.618Y-2.9615
X7.618Y-3.0615
X7.618Y-3.1615
X7.618Y-3.2615
X7.618Y-3.3615
X7.618Y-3.4615
X7.618Y-3.5615
X7.618Y-3.6615
X7.618Y-3.7615
X7.618Y-3.8615
X7.618Y-3.9615
X7.618Y-4.0615
X7.618Y-4.1615
X7.618Y-4.2615
X7.618Y-4.3615
X7.618Y-4.4615
X7.618Y-4.5615
X7.618Y-4.6615
X7.618Y-4.7615
X7.618Y-4.8615
X7.718Y-1.7615
X7.718Y-1.8615
X7.718Y-1.9615
X7.718Y-2.0615
X7.718Y-2.1615
X7.718Y-2.2615
X7.718Y-2.3615
X7.718Y-2.4615
X7.718Y-2.5615
X7.718Y-2.6615
X7.718Y-2.7615
X7.718Y-2.8615
X7.718Y-2.9615
X7.718Y-3.0615
X7.718Y-3.1615
X7.718Y-3.2615
X7.718Y-3.3615
X7.718Y-3.4615
X7.718Y-3.5615
X7.718Y-3.6615
X7.718Y-3.7615
X7.718Y-3.8615
X7.718Y-3.9615
X7.718Y-4.0615
X7.718Y-4.1615
X7.718Y-4.2615
X7.718Y-4.3615
X7.718Y-4.4615
X7.718Y-4.5615
X7.718Y-4.6615
X7.718Y-4.7615
X7.718Y-4.8615
X3.4527Y-1.9591
X3.4527Y-2.0591
X3.4527Y-2.1591
X3.5527Y-1.9591
X3.5527Y-2.0591
X3.5527Y-2.1591
T0
M30
