G04 #@! TF.GenerationSoftware,KiCad,Pcbnew,(5.1.5-0-10_14)*
G04 #@! TF.CreationDate,2021-10-05T22:40:42+01:00*
G04 #@! TF.ProjectId,roscbus04,726f7363-6275-4733-9034-2e6b69636164,rev?*
G04 #@! TF.SameCoordinates,Original*
G04 #@! TF.FileFunction,Copper,L2,Inr*
G04 #@! TF.FilePolarity,Positive*
%FSLAX46Y46*%
G04 Gerber Fmt 4.6, Leading zero omitted, Abs format (unit mm)*
G04 Created by KiCad (PCBNEW (5.1.5-0-10_14)) date 2021-10-05 22:40:42*
%MOMM*%
%LPD*%
G04 APERTURE LIST*
%ADD10C,1.524000*%
%ADD11O,1.905000X2.000000*%
%ADD12R,1.905000X2.000000*%
%ADD13C,0.100000*%
%ADD14C,1.320800*%
%ADD15C,1.800000*%
%ADD16R,1.800000X1.800000*%
%ADD17O,1.700000X1.700000*%
%ADD18R,1.700000X1.700000*%
%ADD19C,2.200000*%
%ADD20R,2.200000X2.200000*%
%ADD21R,1.800000X4.400000*%
%ADD22O,1.800000X4.000000*%
%ADD23O,4.000000X1.800000*%
%ADD24O,1.850000X0.850000*%
%ADD25C,0.840000*%
%ADD26R,0.840000X0.840000*%
%ADD27C,1.600000*%
%ADD28C,1.600200*%
%ADD29C,0.800000*%
%ADD30C,0.160000*%
%ADD31C,0.450000*%
%ADD32C,1.000000*%
G04 APERTURE END LIST*
D10*
X189937000Y-120132000D03*
X187397000Y-120132000D03*
X189937000Y-117592000D03*
X187397000Y-117592000D03*
X187397000Y-41392000D03*
X189937000Y-41392000D03*
X187397000Y-43932000D03*
X189937000Y-43932000D03*
X187397000Y-46472000D03*
X189937000Y-46472000D03*
X187397000Y-49012000D03*
X189937000Y-49012000D03*
X187397000Y-51552000D03*
X189937000Y-51552000D03*
X187397000Y-54092000D03*
X189937000Y-54092000D03*
X187397000Y-56632000D03*
X189937000Y-56632000D03*
X187397000Y-59172000D03*
X189937000Y-59172000D03*
X187397000Y-61712000D03*
X189937000Y-61712000D03*
X187397000Y-64252000D03*
X189937000Y-64252000D03*
X187397000Y-66792000D03*
X189937000Y-66792000D03*
X187397000Y-69332000D03*
X189937000Y-69332000D03*
X187397000Y-71872000D03*
X189937000Y-71872000D03*
X187397000Y-74412000D03*
X189937000Y-74412000D03*
X187397000Y-76952000D03*
X189937000Y-76952000D03*
X187397000Y-79492000D03*
X189937000Y-79492000D03*
X187397000Y-82032000D03*
X189937000Y-82032000D03*
X187397000Y-84572000D03*
X189937000Y-84572000D03*
X187397000Y-87112000D03*
X189937000Y-87112000D03*
X187397000Y-89652000D03*
X189937000Y-89652000D03*
X187397000Y-92192000D03*
X189937000Y-92192000D03*
X187397000Y-94732000D03*
X189937000Y-94732000D03*
X187397000Y-97272000D03*
X189937000Y-97272000D03*
X187397000Y-99812000D03*
X189937000Y-99812000D03*
X187397000Y-102352000D03*
X189937000Y-102352000D03*
X187397000Y-104892000D03*
X189937000Y-104892000D03*
X187397000Y-107432000D03*
X189937000Y-107432000D03*
X187397000Y-109972000D03*
X189937000Y-109972000D03*
X187397000Y-112512000D03*
X189937000Y-112512000D03*
X187397000Y-115052000D03*
X189937000Y-115052000D03*
X216823000Y-128152000D03*
X219363000Y-128152000D03*
X216823000Y-130692000D03*
X219363000Y-130692000D03*
X216823000Y-133232000D03*
X219363000Y-133232000D03*
X216823000Y-135772000D03*
X219363000Y-135772000D03*
X216823000Y-138312000D03*
X219363000Y-138312000D03*
X216823000Y-140852000D03*
X219363000Y-140852000D03*
X216823000Y-143392000D03*
X219363000Y-143392000D03*
X216823000Y-145932000D03*
X219363000Y-145932000D03*
X219363000Y-120132000D03*
X216823000Y-120132000D03*
X219363000Y-117592000D03*
X216823000Y-117592000D03*
X216823000Y-41392000D03*
X219363000Y-41392000D03*
X216823000Y-43932000D03*
X219363000Y-43932000D03*
X216823000Y-46472000D03*
X219363000Y-46472000D03*
X216823000Y-49012000D03*
X219363000Y-49012000D03*
X216823000Y-51552000D03*
X219363000Y-51552000D03*
X216823000Y-54092000D03*
X219363000Y-54092000D03*
X216823000Y-56632000D03*
X219363000Y-56632000D03*
X216823000Y-59172000D03*
X219363000Y-59172000D03*
X216823000Y-61712000D03*
X219363000Y-61712000D03*
X216823000Y-64252000D03*
X219363000Y-64252000D03*
X216823000Y-66792000D03*
X219363000Y-66792000D03*
X216823000Y-69332000D03*
X219363000Y-69332000D03*
X216823000Y-71872000D03*
X219363000Y-71872000D03*
X216823000Y-74412000D03*
X219363000Y-74412000D03*
X216823000Y-76952000D03*
X219363000Y-76952000D03*
X216823000Y-79492000D03*
X219363000Y-79492000D03*
X216823000Y-82032000D03*
X219363000Y-82032000D03*
X216823000Y-84572000D03*
X219363000Y-84572000D03*
X216823000Y-87112000D03*
X219363000Y-87112000D03*
X216823000Y-89652000D03*
X219363000Y-89652000D03*
X216823000Y-92192000D03*
X219363000Y-92192000D03*
X216823000Y-94732000D03*
X219363000Y-94732000D03*
X216823000Y-97272000D03*
X219363000Y-97272000D03*
X216823000Y-99812000D03*
X219363000Y-99812000D03*
X216823000Y-102352000D03*
X219363000Y-102352000D03*
X216823000Y-104892000D03*
X219363000Y-104892000D03*
X216823000Y-107432000D03*
X219363000Y-107432000D03*
X216823000Y-109972000D03*
X219363000Y-109972000D03*
X216823000Y-112512000D03*
X219363000Y-112512000D03*
X216823000Y-115052000D03*
X219363000Y-115052000D03*
D11*
X82120000Y-80200000D03*
X84660000Y-80200000D03*
D12*
X87200000Y-80200000D03*
G04 #@! TA.AperFunction,ViaPad*
D13*
G36*
X91644009Y-138832408D02*
G01*
X91692545Y-138839607D01*
X91740142Y-138851530D01*
X91786342Y-138868060D01*
X91830698Y-138889039D01*
X91872785Y-138914265D01*
X91912197Y-138943495D01*
X91948553Y-138976447D01*
X91981505Y-139012803D01*
X92010735Y-139052215D01*
X92035961Y-139094302D01*
X92056940Y-139138658D01*
X92073470Y-139184858D01*
X92085393Y-139232455D01*
X92092592Y-139280991D01*
X92095000Y-139330000D01*
X92095000Y-140330000D01*
X92092592Y-140379009D01*
X92085393Y-140427545D01*
X92073470Y-140475142D01*
X92056940Y-140521342D01*
X92035961Y-140565698D01*
X92010735Y-140607785D01*
X91981505Y-140647197D01*
X91948553Y-140683553D01*
X91912197Y-140716505D01*
X91872785Y-140745735D01*
X91830698Y-140770961D01*
X91786342Y-140791940D01*
X91740142Y-140808470D01*
X91692545Y-140820393D01*
X91644009Y-140827592D01*
X91595000Y-140830000D01*
X88595000Y-140830000D01*
X88545991Y-140827592D01*
X88497455Y-140820393D01*
X88449858Y-140808470D01*
X88403658Y-140791940D01*
X88359302Y-140770961D01*
X88317215Y-140745735D01*
X88277803Y-140716505D01*
X88241447Y-140683553D01*
X88208495Y-140647197D01*
X88179265Y-140607785D01*
X88154039Y-140565698D01*
X88133060Y-140521342D01*
X88116530Y-140475142D01*
X88104607Y-140427545D01*
X88097408Y-140379009D01*
X88095000Y-140330000D01*
X88095000Y-139330000D01*
X88097408Y-139280991D01*
X88104607Y-139232455D01*
X88116530Y-139184858D01*
X88133060Y-139138658D01*
X88154039Y-139094302D01*
X88179265Y-139052215D01*
X88208495Y-139012803D01*
X88241447Y-138976447D01*
X88277803Y-138943495D01*
X88317215Y-138914265D01*
X88359302Y-138889039D01*
X88403658Y-138868060D01*
X88449858Y-138851530D01*
X88497455Y-138839607D01*
X88545991Y-138832408D01*
X88595000Y-138830000D01*
X91595000Y-138830000D01*
X91644009Y-138832408D01*
G37*
G04 #@! TD.AperFunction*
G04 #@! TA.AperFunction,ViaPad*
G36*
X86844009Y-138832408D02*
G01*
X86892545Y-138839607D01*
X86940142Y-138851530D01*
X86986342Y-138868060D01*
X87030698Y-138889039D01*
X87072785Y-138914265D01*
X87112197Y-138943495D01*
X87148553Y-138976447D01*
X87181505Y-139012803D01*
X87210735Y-139052215D01*
X87235961Y-139094302D01*
X87256940Y-139138658D01*
X87273470Y-139184858D01*
X87285393Y-139232455D01*
X87292592Y-139280991D01*
X87295000Y-139330000D01*
X87295000Y-140330000D01*
X87292592Y-140379009D01*
X87285393Y-140427545D01*
X87273470Y-140475142D01*
X87256940Y-140521342D01*
X87235961Y-140565698D01*
X87210735Y-140607785D01*
X87181505Y-140647197D01*
X87148553Y-140683553D01*
X87112197Y-140716505D01*
X87072785Y-140745735D01*
X87030698Y-140770961D01*
X86986342Y-140791940D01*
X86940142Y-140808470D01*
X86892545Y-140820393D01*
X86844009Y-140827592D01*
X86795000Y-140830000D01*
X83795000Y-140830000D01*
X83745991Y-140827592D01*
X83697455Y-140820393D01*
X83649858Y-140808470D01*
X83603658Y-140791940D01*
X83559302Y-140770961D01*
X83517215Y-140745735D01*
X83477803Y-140716505D01*
X83441447Y-140683553D01*
X83408495Y-140647197D01*
X83379265Y-140607785D01*
X83354039Y-140565698D01*
X83333060Y-140521342D01*
X83316530Y-140475142D01*
X83304607Y-140427545D01*
X83297408Y-140379009D01*
X83295000Y-140330000D01*
X83295000Y-139330000D01*
X83297408Y-139280991D01*
X83304607Y-139232455D01*
X83316530Y-139184858D01*
X83333060Y-139138658D01*
X83354039Y-139094302D01*
X83379265Y-139052215D01*
X83408495Y-139012803D01*
X83441447Y-138976447D01*
X83477803Y-138943495D01*
X83517215Y-138914265D01*
X83559302Y-138889039D01*
X83603658Y-138868060D01*
X83649858Y-138851530D01*
X83697455Y-138839607D01*
X83745991Y-138832408D01*
X83795000Y-138830000D01*
X86795000Y-138830000D01*
X86844009Y-138832408D01*
G37*
G04 #@! TD.AperFunction*
G04 #@! TA.AperFunction,ViaPad*
G36*
X86844009Y-143562408D02*
G01*
X86892545Y-143569607D01*
X86940142Y-143581530D01*
X86986342Y-143598060D01*
X87030698Y-143619039D01*
X87072785Y-143644265D01*
X87112197Y-143673495D01*
X87148553Y-143706447D01*
X87181505Y-143742803D01*
X87210735Y-143782215D01*
X87235961Y-143824302D01*
X87256940Y-143868658D01*
X87273470Y-143914858D01*
X87285393Y-143962455D01*
X87292592Y-144010991D01*
X87295000Y-144060000D01*
X87295000Y-145060000D01*
X87292592Y-145109009D01*
X87285393Y-145157545D01*
X87273470Y-145205142D01*
X87256940Y-145251342D01*
X87235961Y-145295698D01*
X87210735Y-145337785D01*
X87181505Y-145377197D01*
X87148553Y-145413553D01*
X87112197Y-145446505D01*
X87072785Y-145475735D01*
X87030698Y-145500961D01*
X86986342Y-145521940D01*
X86940142Y-145538470D01*
X86892545Y-145550393D01*
X86844009Y-145557592D01*
X86795000Y-145560000D01*
X83795000Y-145560000D01*
X83745991Y-145557592D01*
X83697455Y-145550393D01*
X83649858Y-145538470D01*
X83603658Y-145521940D01*
X83559302Y-145500961D01*
X83517215Y-145475735D01*
X83477803Y-145446505D01*
X83441447Y-145413553D01*
X83408495Y-145377197D01*
X83379265Y-145337785D01*
X83354039Y-145295698D01*
X83333060Y-145251342D01*
X83316530Y-145205142D01*
X83304607Y-145157545D01*
X83297408Y-145109009D01*
X83295000Y-145060000D01*
X83295000Y-144060000D01*
X83297408Y-144010991D01*
X83304607Y-143962455D01*
X83316530Y-143914858D01*
X83333060Y-143868658D01*
X83354039Y-143824302D01*
X83379265Y-143782215D01*
X83408495Y-143742803D01*
X83441447Y-143706447D01*
X83477803Y-143673495D01*
X83517215Y-143644265D01*
X83559302Y-143619039D01*
X83603658Y-143598060D01*
X83649858Y-143581530D01*
X83697455Y-143569607D01*
X83745991Y-143562408D01*
X83795000Y-143560000D01*
X86795000Y-143560000D01*
X86844009Y-143562408D01*
G37*
G04 #@! TD.AperFunction*
G04 #@! TA.AperFunction,ViaPad*
G36*
X91644009Y-143562408D02*
G01*
X91692545Y-143569607D01*
X91740142Y-143581530D01*
X91786342Y-143598060D01*
X91830698Y-143619039D01*
X91872785Y-143644265D01*
X91912197Y-143673495D01*
X91948553Y-143706447D01*
X91981505Y-143742803D01*
X92010735Y-143782215D01*
X92035961Y-143824302D01*
X92056940Y-143868658D01*
X92073470Y-143914858D01*
X92085393Y-143962455D01*
X92092592Y-144010991D01*
X92095000Y-144060000D01*
X92095000Y-145060000D01*
X92092592Y-145109009D01*
X92085393Y-145157545D01*
X92073470Y-145205142D01*
X92056940Y-145251342D01*
X92035961Y-145295698D01*
X92010735Y-145337785D01*
X91981505Y-145377197D01*
X91948553Y-145413553D01*
X91912197Y-145446505D01*
X91872785Y-145475735D01*
X91830698Y-145500961D01*
X91786342Y-145521940D01*
X91740142Y-145538470D01*
X91692545Y-145550393D01*
X91644009Y-145557592D01*
X91595000Y-145560000D01*
X88595000Y-145560000D01*
X88545991Y-145557592D01*
X88497455Y-145550393D01*
X88449858Y-145538470D01*
X88403658Y-145521940D01*
X88359302Y-145500961D01*
X88317215Y-145475735D01*
X88277803Y-145446505D01*
X88241447Y-145413553D01*
X88208495Y-145377197D01*
X88179265Y-145337785D01*
X88154039Y-145295698D01*
X88133060Y-145251342D01*
X88116530Y-145205142D01*
X88104607Y-145157545D01*
X88097408Y-145109009D01*
X88095000Y-145060000D01*
X88095000Y-144060000D01*
X88097408Y-144010991D01*
X88104607Y-143962455D01*
X88116530Y-143914858D01*
X88133060Y-143868658D01*
X88154039Y-143824302D01*
X88179265Y-143782215D01*
X88208495Y-143742803D01*
X88241447Y-143706447D01*
X88277803Y-143673495D01*
X88317215Y-143644265D01*
X88359302Y-143619039D01*
X88403658Y-143598060D01*
X88449858Y-143581530D01*
X88497455Y-143569607D01*
X88545991Y-143562408D01*
X88595000Y-143560000D01*
X91595000Y-143560000D01*
X91644009Y-143562408D01*
G37*
G04 #@! TD.AperFunction*
D14*
X89660000Y-40137000D03*
X89660000Y-50297000D03*
D15*
X83425000Y-40140000D03*
D16*
X80885000Y-40140000D03*
D17*
X85955000Y-108390000D03*
D18*
X83415000Y-108390000D03*
D17*
X83415000Y-110940000D03*
D18*
X85955000Y-110940000D03*
D17*
X83415000Y-113465000D03*
D18*
X85955000Y-113465000D03*
D17*
X72920000Y-87310000D03*
X72920000Y-84770000D03*
D18*
X72920000Y-82230000D03*
D19*
X74785000Y-62890000D03*
D20*
X74785000Y-60350000D03*
D21*
X85285000Y-50780000D03*
D22*
X79485000Y-50780000D03*
D23*
X82285000Y-55580000D03*
D24*
X73135000Y-67715000D03*
X73135000Y-74865000D03*
D25*
X72915000Y-69990000D03*
X73915000Y-70640000D03*
X72915000Y-71290000D03*
X73915000Y-71940000D03*
D26*
X72915000Y-72590000D03*
D27*
X85910000Y-74320000D03*
X83410000Y-74320000D03*
X89660000Y-55951000D03*
X89660000Y-53451000D03*
X208615000Y-39073000D03*
X208615000Y-41573000D03*
X179720000Y-38915000D03*
X179720000Y-41415000D03*
X147810000Y-38915000D03*
X147810000Y-41415000D03*
X117097000Y-38919000D03*
X117097000Y-41419000D03*
X85974000Y-104121000D03*
X83474000Y-104121000D03*
D28*
X88778000Y-62600000D03*
X85222000Y-62600000D03*
D10*
X187397000Y-128152000D03*
X189937000Y-128152000D03*
X187397000Y-130692000D03*
X189937000Y-130692000D03*
X187397000Y-133232000D03*
X189937000Y-133232000D03*
X187397000Y-135772000D03*
X189937000Y-135772000D03*
X187397000Y-138312000D03*
X189937000Y-138312000D03*
X187397000Y-140852000D03*
X189937000Y-140852000D03*
X187397000Y-143392000D03*
X189937000Y-143392000D03*
X187397000Y-145932000D03*
X189937000Y-145932000D03*
X158187000Y-128152000D03*
X160727000Y-128152000D03*
X158187000Y-130692000D03*
X160727000Y-130692000D03*
X158187000Y-133232000D03*
X160727000Y-133232000D03*
X158187000Y-135772000D03*
X160727000Y-135772000D03*
X158187000Y-138312000D03*
X160727000Y-138312000D03*
X158187000Y-140852000D03*
X160727000Y-140852000D03*
X158187000Y-143392000D03*
X160727000Y-143392000D03*
X158187000Y-145932000D03*
X160727000Y-145932000D03*
X160727000Y-120132000D03*
X158187000Y-120132000D03*
X160727000Y-117592000D03*
X158187000Y-117592000D03*
X158187000Y-41392000D03*
X160727000Y-41392000D03*
X158187000Y-43932000D03*
X160727000Y-43932000D03*
X158187000Y-46472000D03*
X160727000Y-46472000D03*
X158187000Y-49012000D03*
X160727000Y-49012000D03*
X158187000Y-51552000D03*
X160727000Y-51552000D03*
X158187000Y-54092000D03*
X160727000Y-54092000D03*
X158187000Y-56632000D03*
X160727000Y-56632000D03*
X158187000Y-59172000D03*
X160727000Y-59172000D03*
X158187000Y-61712000D03*
X160727000Y-61712000D03*
X158187000Y-64252000D03*
X160727000Y-64252000D03*
X158187000Y-66792000D03*
X160727000Y-66792000D03*
X158187000Y-69332000D03*
X160727000Y-69332000D03*
X158187000Y-71872000D03*
X160727000Y-71872000D03*
X158187000Y-74412000D03*
X160727000Y-74412000D03*
X158187000Y-76952000D03*
X160727000Y-76952000D03*
X158187000Y-79492000D03*
X160727000Y-79492000D03*
X158187000Y-82032000D03*
X160727000Y-82032000D03*
X158187000Y-84572000D03*
X160727000Y-84572000D03*
X158187000Y-87112000D03*
X160727000Y-87112000D03*
X158187000Y-89652000D03*
X160727000Y-89652000D03*
X158187000Y-92192000D03*
X160727000Y-92192000D03*
X158187000Y-94732000D03*
X160727000Y-94732000D03*
X158187000Y-97272000D03*
X160727000Y-97272000D03*
X158187000Y-99812000D03*
X160727000Y-99812000D03*
X158187000Y-102352000D03*
X160727000Y-102352000D03*
X158187000Y-104892000D03*
X160727000Y-104892000D03*
X158187000Y-107432000D03*
X160727000Y-107432000D03*
X158187000Y-109972000D03*
X160727000Y-109972000D03*
X158187000Y-112512000D03*
X160727000Y-112512000D03*
X158187000Y-115052000D03*
X160727000Y-115052000D03*
X128977000Y-128152000D03*
X131517000Y-128152000D03*
X128977000Y-130692000D03*
X131517000Y-130692000D03*
X128977000Y-133232000D03*
X131517000Y-133232000D03*
X128977000Y-135772000D03*
X131517000Y-135772000D03*
X128977000Y-138312000D03*
X131517000Y-138312000D03*
X128977000Y-140852000D03*
X131517000Y-140852000D03*
X128977000Y-143392000D03*
X131517000Y-143392000D03*
X128977000Y-145932000D03*
X131517000Y-145932000D03*
X131517000Y-120132000D03*
X128977000Y-120132000D03*
X131517000Y-117592000D03*
X128977000Y-117592000D03*
X128977000Y-41392000D03*
X131517000Y-41392000D03*
X128977000Y-43932000D03*
X131517000Y-43932000D03*
X128977000Y-46472000D03*
X131517000Y-46472000D03*
X128977000Y-49012000D03*
X131517000Y-49012000D03*
X128977000Y-51552000D03*
X131517000Y-51552000D03*
X128977000Y-54092000D03*
X131517000Y-54092000D03*
X128977000Y-56632000D03*
X131517000Y-56632000D03*
X128977000Y-59172000D03*
X131517000Y-59172000D03*
X128977000Y-61712000D03*
X131517000Y-61712000D03*
X128977000Y-64252000D03*
X131517000Y-64252000D03*
X128977000Y-66792000D03*
X131517000Y-66792000D03*
X128977000Y-69332000D03*
X131517000Y-69332000D03*
X128977000Y-71872000D03*
X131517000Y-71872000D03*
X128977000Y-74412000D03*
X131517000Y-74412000D03*
X128977000Y-76952000D03*
X131517000Y-76952000D03*
X128977000Y-79492000D03*
X131517000Y-79492000D03*
X128977000Y-82032000D03*
X131517000Y-82032000D03*
X128977000Y-84572000D03*
X131517000Y-84572000D03*
X128977000Y-87112000D03*
X131517000Y-87112000D03*
X128977000Y-89652000D03*
X131517000Y-89652000D03*
X128977000Y-92192000D03*
X131517000Y-92192000D03*
X128977000Y-94732000D03*
X131517000Y-94732000D03*
X128977000Y-97272000D03*
X131517000Y-97272000D03*
X128977000Y-99812000D03*
X131517000Y-99812000D03*
X128977000Y-102352000D03*
X131517000Y-102352000D03*
X128977000Y-104892000D03*
X131517000Y-104892000D03*
X128977000Y-107432000D03*
X131517000Y-107432000D03*
X128977000Y-109972000D03*
X131517000Y-109972000D03*
X128977000Y-112512000D03*
X131517000Y-112512000D03*
X128977000Y-115052000D03*
X131517000Y-115052000D03*
X99767000Y-128152000D03*
X102307000Y-128152000D03*
X99767000Y-130692000D03*
X102307000Y-130692000D03*
X99767000Y-133232000D03*
X102307000Y-133232000D03*
X99767000Y-135772000D03*
X102307000Y-135772000D03*
X99767000Y-138312000D03*
X102307000Y-138312000D03*
X99767000Y-140852000D03*
X102307000Y-140852000D03*
X99767000Y-143392000D03*
X102307000Y-143392000D03*
X99767000Y-145932000D03*
X102307000Y-145932000D03*
X102307000Y-120132000D03*
X99767000Y-120132000D03*
X102307000Y-117592000D03*
X99767000Y-117592000D03*
X99767000Y-41392000D03*
X102307000Y-41392000D03*
X99767000Y-43932000D03*
X102307000Y-43932000D03*
X99767000Y-46472000D03*
X102307000Y-46472000D03*
X99767000Y-49012000D03*
X102307000Y-49012000D03*
X99767000Y-51552000D03*
X102307000Y-51552000D03*
X99767000Y-54092000D03*
X102307000Y-54092000D03*
X99767000Y-56632000D03*
X102307000Y-56632000D03*
X99767000Y-59172000D03*
X102307000Y-59172000D03*
X99767000Y-61712000D03*
X102307000Y-61712000D03*
X99767000Y-64252000D03*
X102307000Y-64252000D03*
X99767000Y-66792000D03*
X102307000Y-66792000D03*
X99767000Y-69332000D03*
X102307000Y-69332000D03*
X99767000Y-71872000D03*
X102307000Y-71872000D03*
X99767000Y-74412000D03*
X102307000Y-74412000D03*
X99767000Y-76952000D03*
X102307000Y-76952000D03*
X99767000Y-79492000D03*
X102307000Y-79492000D03*
X99767000Y-82032000D03*
X102307000Y-82032000D03*
X99767000Y-84572000D03*
X102307000Y-84572000D03*
X99767000Y-87112000D03*
X102307000Y-87112000D03*
X99767000Y-89652000D03*
X102307000Y-89652000D03*
X99767000Y-92192000D03*
X102307000Y-92192000D03*
X99767000Y-94732000D03*
X102307000Y-94732000D03*
X99767000Y-97272000D03*
X102307000Y-97272000D03*
X99767000Y-99812000D03*
X102307000Y-99812000D03*
X99767000Y-102352000D03*
X102307000Y-102352000D03*
X99767000Y-104892000D03*
X102307000Y-104892000D03*
X99767000Y-107432000D03*
X102307000Y-107432000D03*
X99767000Y-109972000D03*
X102307000Y-109972000D03*
X99767000Y-112512000D03*
X102307000Y-112512000D03*
X99767000Y-115052000D03*
X102307000Y-115052000D03*
D29*
X210741000Y-111783000D03*
X211986000Y-112586000D03*
X212656000Y-110503000D03*
X210852000Y-113218500D03*
X210728000Y-109917000D03*
X207661000Y-113855000D03*
X207702000Y-99225000D03*
X211473000Y-109274000D03*
X210785000Y-107994000D03*
X212226980Y-107344731D03*
X211505000Y-106712000D03*
X200040000Y-89468000D03*
X202496000Y-48111000D03*
X202699000Y-62780000D03*
X202685000Y-73473000D03*
X210804000Y-105432000D03*
X211532114Y-104801491D03*
X210848000Y-104128000D03*
X211651353Y-102408330D03*
X210937000Y-101767000D03*
X211639461Y-100579800D03*
X210992000Y-99871000D03*
X211610000Y-75375000D03*
X211612299Y-76334999D03*
X211607000Y-77859000D03*
X211253000Y-64386881D03*
X210613000Y-63608000D03*
X202189000Y-77248000D03*
X202189000Y-84236000D03*
X201701000Y-58908000D03*
X201910000Y-52192000D03*
X203971000Y-47020000D03*
X203911000Y-72782000D03*
X203952000Y-98553000D03*
X208011000Y-110051000D03*
X207917000Y-102848000D03*
X207247000Y-52198000D03*
X207269000Y-58942000D03*
X207404000Y-77250000D03*
X202279000Y-102848000D03*
X197258000Y-113353000D03*
X197983000Y-112582000D03*
X198578000Y-111783000D03*
X196918000Y-110503000D03*
X197955000Y-110095000D03*
X198578000Y-109274000D03*
X197914000Y-107688000D03*
X198606000Y-106907000D03*
X196806000Y-105432000D03*
X197874000Y-105329000D03*
X198514000Y-104449000D03*
X197233000Y-102848000D03*
X197927000Y-102020000D03*
X198541000Y-101246000D03*
X197900000Y-100205000D03*
X198541000Y-99458000D03*
X198667000Y-64638000D03*
X198027000Y-65419382D03*
X195001258Y-67285238D03*
X195641258Y-68035992D03*
X196283000Y-68876286D03*
D30*
X158948999Y-113273999D02*
X158187000Y-112512000D01*
X159189001Y-113514001D02*
X158948999Y-113273999D01*
X186394999Y-113514001D02*
X159189001Y-113514001D01*
X187397000Y-112512000D02*
X186394999Y-113514001D01*
X129979001Y-113514001D02*
X129738999Y-113273999D01*
X129738999Y-113273999D02*
X128977000Y-112512000D01*
X157184999Y-113514001D02*
X129979001Y-113514001D01*
X158187000Y-112512000D02*
X157184999Y-113514001D01*
X100528999Y-113273999D02*
X99767000Y-112512000D01*
X100769001Y-113514001D02*
X100528999Y-113273999D01*
X127974999Y-113514001D02*
X100769001Y-113514001D01*
X128977000Y-112512000D02*
X127974999Y-113514001D01*
X215597000Y-113738000D02*
X216823000Y-112512000D01*
X187397000Y-112512000D02*
X188614989Y-113729989D01*
X188614989Y-113729989D02*
X190250989Y-113729989D01*
X190250989Y-113729989D02*
X191339000Y-114818000D01*
X214517000Y-114818000D02*
X215597000Y-113738000D01*
X191339000Y-114818000D02*
X214517000Y-114818000D01*
X158948999Y-110733999D02*
X158187000Y-109972000D01*
X159189001Y-110974001D02*
X158948999Y-110733999D01*
X186394999Y-110974001D02*
X159189001Y-110974001D01*
X187397000Y-109972000D02*
X186394999Y-110974001D01*
X129738999Y-110733999D02*
X128977000Y-109972000D01*
X129979001Y-110974001D02*
X129738999Y-110733999D01*
X157184999Y-110974001D02*
X129979001Y-110974001D01*
X158187000Y-109972000D02*
X157184999Y-110974001D01*
X100528999Y-110733999D02*
X99767000Y-109972000D01*
X127974999Y-110974001D02*
X100769001Y-110974001D01*
X100769001Y-110974001D02*
X100528999Y-110733999D01*
X128977000Y-109972000D02*
X127974999Y-110974001D01*
X187397000Y-109972000D02*
X188568000Y-111143000D01*
X215652000Y-111143000D02*
X216823000Y-109972000D01*
X188568000Y-111143000D02*
X215652000Y-111143000D01*
X158948999Y-108193999D02*
X158187000Y-107432000D01*
X159189001Y-108434001D02*
X158948999Y-108193999D01*
X186394999Y-108434001D02*
X159189001Y-108434001D01*
X187397000Y-107432000D02*
X186394999Y-108434001D01*
X129738999Y-108193999D02*
X128977000Y-107432000D01*
X157184999Y-108434001D02*
X129979001Y-108434001D01*
X129979001Y-108434001D02*
X129738999Y-108193999D01*
X158187000Y-107432000D02*
X157184999Y-108434001D01*
X100528999Y-108193999D02*
X99767000Y-107432000D01*
X100769001Y-108434001D02*
X100528999Y-108193999D01*
X127974999Y-108434001D02*
X100769001Y-108434001D01*
X128977000Y-107432000D02*
X127974999Y-108434001D01*
X187397000Y-107432000D02*
X188599000Y-108634000D01*
X215621000Y-108634000D02*
X216823000Y-107432000D01*
X188599000Y-108634000D02*
X215621000Y-108634000D01*
X159189001Y-105894001D02*
X158948999Y-105653999D01*
X158948999Y-105653999D02*
X158187000Y-104892000D01*
X186394999Y-105894001D02*
X159189001Y-105894001D01*
X187397000Y-104892000D02*
X186394999Y-105894001D01*
X129738999Y-105653999D02*
X128977000Y-104892000D01*
X129979001Y-105894001D02*
X129738999Y-105653999D01*
X157184999Y-105894001D02*
X129979001Y-105894001D01*
X158187000Y-104892000D02*
X157184999Y-105894001D01*
X100528999Y-105653999D02*
X99767000Y-104892000D01*
X127974999Y-105894001D02*
X100769001Y-105894001D01*
X100769001Y-105894001D02*
X100528999Y-105653999D01*
X128977000Y-104892000D02*
X127974999Y-105894001D01*
X187397000Y-104892000D02*
X188577000Y-106072000D01*
X215643000Y-106072000D02*
X216823000Y-104892000D01*
X188577000Y-106072000D02*
X215643000Y-106072000D01*
X218162000Y-91601000D02*
X218162000Y-103553000D01*
X217434000Y-90873000D02*
X218162000Y-91601000D01*
X218162000Y-103553000D02*
X216823000Y-104892000D01*
X201445000Y-90873000D02*
X217434000Y-90873000D01*
X200040000Y-89468000D02*
X201445000Y-90873000D01*
X158948999Y-103113999D02*
X158187000Y-102352000D01*
X159189001Y-103354001D02*
X158948999Y-103113999D01*
X186394999Y-103354001D02*
X159189001Y-103354001D01*
X187397000Y-102352000D02*
X186394999Y-103354001D01*
X129738999Y-103113999D02*
X128977000Y-102352000D01*
X129979001Y-103354001D02*
X129738999Y-103113999D01*
X157184999Y-103354001D02*
X129979001Y-103354001D01*
X158187000Y-102352000D02*
X157184999Y-103354001D01*
X100528999Y-103113999D02*
X99767000Y-102352000D01*
X100769001Y-103354001D02*
X100528999Y-103113999D01*
X127974999Y-103354001D02*
X100769001Y-103354001D01*
X128977000Y-102352000D02*
X127974999Y-103354001D01*
X187668000Y-102352000D02*
X188804000Y-103488000D01*
X187397000Y-102352000D02*
X187668000Y-102352000D01*
X215687000Y-103488000D02*
X216823000Y-102352000D01*
X188804000Y-103488000D02*
X215687000Y-103488000D01*
X161944989Y-83354011D02*
X161488999Y-83810001D01*
X161488999Y-83810001D02*
X160727000Y-84572000D01*
X188719011Y-83354011D02*
X161944989Y-83354011D01*
X189937000Y-84572000D02*
X188719011Y-83354011D01*
X132519001Y-83569999D02*
X132278999Y-83810001D01*
X159724999Y-83569999D02*
X132519001Y-83569999D01*
X132278999Y-83810001D02*
X131517000Y-84572000D01*
X160727000Y-84572000D02*
X159724999Y-83569999D01*
X103068999Y-83810001D02*
X102307000Y-84572000D01*
X103309001Y-83569999D02*
X103068999Y-83810001D01*
X130514999Y-83569999D02*
X103309001Y-83569999D01*
X131517000Y-84572000D02*
X130514999Y-83569999D01*
X189937000Y-84572000D02*
X191471000Y-86106000D01*
X217829000Y-86106000D02*
X219363000Y-84572000D01*
X191471000Y-86106000D02*
X217829000Y-86106000D01*
X161729001Y-75949999D02*
X161488999Y-76190001D01*
X188934999Y-75949999D02*
X161729001Y-75949999D01*
X161488999Y-76190001D02*
X160727000Y-76952000D01*
X189937000Y-76952000D02*
X188934999Y-75949999D01*
X132519001Y-75949999D02*
X132278999Y-76190001D01*
X132278999Y-76190001D02*
X131517000Y-76952000D01*
X159724999Y-75949999D02*
X132519001Y-75949999D01*
X160727000Y-76952000D02*
X159724999Y-75949999D01*
X103068999Y-76190001D02*
X102307000Y-76952000D01*
X130514999Y-75949999D02*
X103309001Y-75949999D01*
X103309001Y-75949999D02*
X103068999Y-76190001D01*
X131517000Y-76952000D02*
X130514999Y-75949999D01*
X190698999Y-76190001D02*
X210000001Y-76190001D01*
X189937000Y-76952000D02*
X190698999Y-76190001D01*
X210785000Y-76975000D02*
X212550000Y-76975000D01*
X210000001Y-76190001D02*
X210785000Y-76975000D01*
X212550000Y-76975000D02*
X213529001Y-77954001D01*
X218360999Y-77954001D02*
X219363000Y-76952000D01*
X213529001Y-77954001D02*
X218360999Y-77954001D01*
X161729001Y-73409999D02*
X161488999Y-73650001D01*
X188934999Y-73409999D02*
X161729001Y-73409999D01*
X161488999Y-73650001D02*
X160727000Y-74412000D01*
X189937000Y-74412000D02*
X188934999Y-73409999D01*
X132278999Y-73650001D02*
X131517000Y-74412000D01*
X132519001Y-73409999D02*
X132278999Y-73650001D01*
X159724999Y-73409999D02*
X132519001Y-73409999D01*
X160727000Y-74412000D02*
X159724999Y-73409999D01*
X103068999Y-73650001D02*
X102307000Y-74412000D01*
X103309001Y-73409999D02*
X103068999Y-73650001D01*
X130514999Y-73409999D02*
X103309001Y-73409999D01*
X131517000Y-74412000D02*
X130514999Y-73409999D01*
X189937000Y-74412000D02*
X213291000Y-74412000D01*
X213291000Y-74412000D02*
X214390000Y-73313000D01*
X218264000Y-73313000D02*
X219363000Y-74412000D01*
X214390000Y-73313000D02*
X218264000Y-73313000D01*
X161488999Y-71110001D02*
X160727000Y-71872000D01*
X161729001Y-70869999D02*
X161488999Y-71110001D01*
X188934999Y-70869999D02*
X161729001Y-70869999D01*
X189937000Y-71872000D02*
X188934999Y-70869999D01*
X132278999Y-71110001D02*
X131517000Y-71872000D01*
X132519001Y-70869999D02*
X132278999Y-71110001D01*
X159724999Y-70869999D02*
X132519001Y-70869999D01*
X160727000Y-71872000D02*
X159724999Y-70869999D01*
X103068999Y-71110001D02*
X102307000Y-71872000D01*
X103309001Y-70869999D02*
X103068999Y-71110001D01*
X130514999Y-70869999D02*
X103309001Y-70869999D01*
X131517000Y-71872000D02*
X130514999Y-70869999D01*
X189937000Y-71872000D02*
X214374000Y-71872000D01*
X214374000Y-71872000D02*
X215589000Y-70657000D01*
X218148000Y-70657000D02*
X219363000Y-71872000D01*
X215589000Y-70657000D02*
X218148000Y-70657000D01*
X219363000Y-69332000D02*
X220727000Y-70696000D01*
X220727000Y-70696000D02*
X220727000Y-74875000D01*
X220727000Y-74875000D02*
X220727000Y-75068000D01*
X211649001Y-75414001D02*
X211610000Y-75375000D01*
X220380999Y-75414001D02*
X211649001Y-75414001D01*
X220727000Y-75068000D02*
X220380999Y-75414001D01*
X221047009Y-75200553D02*
X220513551Y-75734011D01*
X221047009Y-68476009D02*
X221047009Y-75200553D01*
X219363000Y-66792000D02*
X221047009Y-68476009D01*
X212213287Y-75734011D02*
X211612299Y-76334999D01*
X220513551Y-75734011D02*
X212213287Y-75734011D01*
X211702001Y-77954001D02*
X211607000Y-77859000D01*
X221367019Y-66256019D02*
X219363000Y-64252000D01*
X221367019Y-77101981D02*
X221367019Y-66256019D01*
X220194989Y-78274011D02*
X221367019Y-77101981D01*
X212022011Y-78274011D02*
X220194989Y-78274011D01*
X211607000Y-77859000D02*
X212022011Y-78274011D01*
X211253000Y-64386881D02*
X214201119Y-64386881D01*
X214201119Y-64386881D02*
X215670000Y-62918000D01*
X218157000Y-62918000D02*
X219363000Y-61712000D01*
X215670000Y-62918000D02*
X218157000Y-62918000D01*
X210613000Y-63608000D02*
X213306000Y-63608000D01*
X213306000Y-63608000D02*
X215079000Y-61835000D01*
X215079000Y-61835000D02*
X215079000Y-61112000D01*
X218601001Y-59933999D02*
X219363000Y-59172000D01*
X218360999Y-60174001D02*
X218601001Y-59933999D01*
X216016999Y-60174001D02*
X218360999Y-60174001D01*
X215079000Y-61112000D02*
X216016999Y-60174001D01*
X161488999Y-55870001D02*
X160727000Y-56632000D01*
X161729001Y-55629999D02*
X161488999Y-55870001D01*
X188934999Y-55629999D02*
X161729001Y-55629999D01*
X189937000Y-56632000D02*
X188934999Y-55629999D01*
X132278999Y-55870001D02*
X131517000Y-56632000D01*
X159724999Y-55629999D02*
X132519001Y-55629999D01*
X132519001Y-55629999D02*
X132278999Y-55870001D01*
X160727000Y-56632000D02*
X159724999Y-55629999D01*
X103068999Y-55870001D02*
X102307000Y-56632000D01*
X103309001Y-55629999D02*
X103068999Y-55870001D01*
X130514999Y-55629999D02*
X103309001Y-55629999D01*
X131517000Y-56632000D02*
X130514999Y-55629999D01*
X189937000Y-56632000D02*
X214351000Y-56632000D01*
X214351000Y-56632000D02*
X215581000Y-55402000D01*
X218133000Y-55402000D02*
X219363000Y-56632000D01*
X215581000Y-55402000D02*
X218133000Y-55402000D01*
X161729001Y-53089999D02*
X161488999Y-53330001D01*
X188934999Y-53089999D02*
X161729001Y-53089999D01*
X161488999Y-53330001D02*
X160727000Y-54092000D01*
X189937000Y-54092000D02*
X188934999Y-53089999D01*
X132278999Y-53330001D02*
X131517000Y-54092000D01*
X132734989Y-52874011D02*
X132278999Y-53330001D01*
X159509011Y-52874011D02*
X132734989Y-52874011D01*
X160727000Y-54092000D02*
X159509011Y-52874011D01*
X130514999Y-53089999D02*
X103309001Y-53089999D01*
X103068999Y-53330001D02*
X102307000Y-54092000D01*
X103309001Y-53089999D02*
X103068999Y-53330001D01*
X131517000Y-54092000D02*
X130514999Y-53089999D01*
X189937000Y-54092000D02*
X213693000Y-54092000D01*
X213693000Y-54092000D02*
X214888000Y-52897000D01*
X218168000Y-52897000D02*
X219363000Y-54092000D01*
X214888000Y-52897000D02*
X218168000Y-52897000D01*
X161488999Y-50790001D02*
X160727000Y-51552000D01*
X161729001Y-50549999D02*
X161488999Y-50790001D01*
X188934999Y-50549999D02*
X161729001Y-50549999D01*
X189937000Y-51552000D02*
X188934999Y-50549999D01*
X132519001Y-50549999D02*
X132278999Y-50790001D01*
X159724999Y-50549999D02*
X132519001Y-50549999D01*
X132278999Y-50790001D02*
X131517000Y-51552000D01*
X160727000Y-51552000D02*
X159724999Y-50549999D01*
X103309001Y-50549999D02*
X103068999Y-50790001D01*
X130514999Y-50549999D02*
X103309001Y-50549999D01*
X103068999Y-50790001D02*
X102307000Y-51552000D01*
X131517000Y-51552000D02*
X130514999Y-50549999D01*
X190939001Y-50549999D02*
X189937000Y-51552000D01*
X218360999Y-50549999D02*
X190939001Y-50549999D01*
X219363000Y-51552000D02*
X218360999Y-50549999D01*
X189937000Y-49012000D02*
X188719011Y-47794011D01*
X161944989Y-47794011D02*
X160727000Y-49012000D01*
X188719011Y-47794011D02*
X161944989Y-47794011D01*
X132278999Y-48250001D02*
X131517000Y-49012000D01*
X132519001Y-48009999D02*
X132278999Y-48250001D01*
X159724999Y-48009999D02*
X132519001Y-48009999D01*
X160727000Y-49012000D02*
X159724999Y-48009999D01*
X103068999Y-48250001D02*
X102307000Y-49012000D01*
X103309001Y-48009999D02*
X103068999Y-48250001D01*
X130514999Y-48009999D02*
X103309001Y-48009999D01*
X131517000Y-49012000D02*
X130514999Y-48009999D01*
X189937000Y-49012000D02*
X213778000Y-49012000D01*
X213778000Y-49012000D02*
X215053000Y-47737000D01*
X218088000Y-47737000D02*
X219363000Y-49012000D01*
X215053000Y-47737000D02*
X218088000Y-47737000D01*
X190698999Y-44693999D02*
X189937000Y-43932000D01*
X218144999Y-44934001D02*
X190939001Y-44934001D01*
X190939001Y-44934001D02*
X190698999Y-44693999D01*
X219147000Y-43932000D02*
X218144999Y-44934001D01*
X161488999Y-44693999D02*
X160727000Y-43932000D01*
X161729001Y-44934001D02*
X161488999Y-44693999D01*
X188934999Y-44934001D02*
X161729001Y-44934001D01*
X189937000Y-43932000D02*
X188934999Y-44934001D01*
X132959999Y-45374999D02*
X132278999Y-44693999D01*
X132278999Y-44693999D02*
X131517000Y-43932000D01*
X159284001Y-45374999D02*
X132959999Y-45374999D01*
X160727000Y-43932000D02*
X159284001Y-45374999D01*
X103068999Y-44693999D02*
X102307000Y-43932000D01*
X103309001Y-44934001D02*
X103068999Y-44693999D01*
X130514999Y-44934001D02*
X103309001Y-44934001D01*
X131517000Y-43932000D02*
X130514999Y-44934001D01*
D31*
X102157000Y-41392000D02*
X102307000Y-41392000D01*
X179697000Y-41392000D02*
X179720000Y-41415000D01*
X218385001Y-42153999D02*
X219147000Y-41392000D01*
X217959999Y-42579001D02*
X218385001Y-42153999D01*
D30*
X191154989Y-144714011D02*
X189937000Y-145932000D01*
X217929011Y-144714011D02*
X191154989Y-144714011D01*
X219147000Y-145932000D02*
X217929011Y-144714011D01*
X189175001Y-145170001D02*
X189937000Y-145932000D01*
X188934999Y-144929999D02*
X189175001Y-145170001D01*
X161729001Y-144929999D02*
X188934999Y-144929999D01*
X160727000Y-145932000D02*
X161729001Y-144929999D01*
X132519001Y-144929999D02*
X132278999Y-145170001D01*
X132278999Y-145170001D02*
X131517000Y-145932000D01*
X159649370Y-145932000D02*
X158647369Y-144929999D01*
X158647369Y-144929999D02*
X132519001Y-144929999D01*
X160727000Y-145932000D02*
X159649370Y-145932000D01*
X103309001Y-144929999D02*
X103068999Y-145170001D01*
X129437369Y-144929999D02*
X103309001Y-144929999D01*
X103068999Y-145170001D02*
X102307000Y-145932000D01*
X130439370Y-145932000D02*
X129437369Y-144929999D01*
X131517000Y-145932000D02*
X130439370Y-145932000D01*
X188158999Y-146693999D02*
X187397000Y-145932000D01*
X188399001Y-146934001D02*
X188158999Y-146693999D01*
X215604999Y-146934001D02*
X188399001Y-146934001D01*
X216607000Y-145932000D02*
X215604999Y-146934001D01*
X129738999Y-146693999D02*
X128977000Y-145932000D01*
X129979001Y-146934001D02*
X129738999Y-146693999D01*
X157184999Y-146934001D02*
X129979001Y-146934001D01*
X158187000Y-145932000D02*
X157184999Y-146934001D01*
X158255000Y-146000000D02*
X158187000Y-145932000D01*
X127899370Y-145932000D02*
X128977000Y-145932000D01*
X127357370Y-145390000D02*
X127899370Y-145932000D01*
X104330000Y-145390000D02*
X127357370Y-145390000D01*
X103789962Y-145930038D02*
X104330000Y-145390000D01*
X103789962Y-145932000D02*
X103789962Y-145930038D01*
X100769001Y-146934001D02*
X102787961Y-146934001D01*
X102787961Y-146934001D02*
X103789962Y-145932000D01*
X99767000Y-145932000D02*
X100769001Y-146934001D01*
X159189001Y-146934001D02*
X158948999Y-146693999D01*
X161207961Y-146934001D02*
X159189001Y-146934001D01*
X162611963Y-145529999D02*
X161207961Y-146934001D01*
X158948999Y-146693999D02*
X158187000Y-145932000D01*
X186319370Y-145932000D02*
X185917369Y-145529999D01*
X185917369Y-145529999D02*
X162611963Y-145529999D01*
X187397000Y-145932000D02*
X186319370Y-145932000D01*
X219147000Y-143392000D02*
X217930000Y-142175000D01*
X191154000Y-142175000D02*
X189937000Y-143392000D01*
X217930000Y-142175000D02*
X191154000Y-142175000D01*
X188934999Y-142389999D02*
X189175001Y-142630001D01*
X161729001Y-142389999D02*
X188934999Y-142389999D01*
X189175001Y-142630001D02*
X189937000Y-143392000D01*
X160727000Y-143392000D02*
X161729001Y-142389999D01*
X132278999Y-142630001D02*
X131517000Y-143392000D01*
X132519001Y-142389999D02*
X132278999Y-142630001D01*
X159724999Y-142389999D02*
X132519001Y-142389999D01*
X160727000Y-143392000D02*
X159724999Y-142389999D01*
X103068999Y-142630001D02*
X102307000Y-143392000D01*
X103309001Y-142389999D02*
X103068999Y-142630001D01*
X130514999Y-142389999D02*
X103309001Y-142389999D01*
X131517000Y-143392000D02*
X130514999Y-142389999D01*
X188158999Y-144153999D02*
X187397000Y-143392000D01*
X188399001Y-144394001D02*
X188158999Y-144153999D01*
X215604999Y-144394001D02*
X188399001Y-144394001D01*
X216607000Y-143392000D02*
X215604999Y-144394001D01*
X129979001Y-144394001D02*
X129738999Y-144153999D01*
X129738999Y-144153999D02*
X128977000Y-143392000D01*
X157184999Y-144394001D02*
X129979001Y-144394001D01*
X158187000Y-143392000D02*
X157184999Y-144394001D01*
X127974999Y-144394001D02*
X100769001Y-144394001D01*
X100528999Y-144153999D02*
X99767000Y-143392000D01*
X100769001Y-144394001D02*
X100528999Y-144153999D01*
X128977000Y-143392000D02*
X127974999Y-144394001D01*
X158948999Y-144153999D02*
X158187000Y-143392000D01*
X159189001Y-144394001D02*
X158948999Y-144153999D01*
X186394999Y-144394001D02*
X159189001Y-144394001D01*
X187397000Y-143392000D02*
X186394999Y-144394001D01*
X191154989Y-139634011D02*
X189937000Y-140852000D01*
X217929011Y-139634011D02*
X191154989Y-139634011D01*
X219147000Y-140852000D02*
X217929011Y-139634011D01*
X189175001Y-140090001D02*
X189937000Y-140852000D01*
X188934999Y-139849999D02*
X189175001Y-140090001D01*
X161729001Y-139849999D02*
X188934999Y-139849999D01*
X160727000Y-140852000D02*
X161729001Y-139849999D01*
X132519001Y-139849999D02*
X132278999Y-140090001D01*
X132278999Y-140090001D02*
X131517000Y-140852000D01*
X159724999Y-139849999D02*
X132519001Y-139849999D01*
X160727000Y-140852000D02*
X159724999Y-139849999D01*
X103309001Y-139849999D02*
X103068999Y-140090001D01*
X103068999Y-140090001D02*
X102307000Y-140852000D01*
X130514999Y-139849999D02*
X103309001Y-139849999D01*
X131517000Y-140852000D02*
X130514999Y-139849999D01*
X188399001Y-141854001D02*
X188158999Y-141613999D01*
X215604999Y-141854001D02*
X188399001Y-141854001D01*
X188158999Y-141613999D02*
X187397000Y-140852000D01*
X216607000Y-140852000D02*
X215604999Y-141854001D01*
X158948999Y-141613999D02*
X158187000Y-140852000D01*
X159189001Y-141854001D02*
X158948999Y-141613999D01*
X186394999Y-141854001D02*
X159189001Y-141854001D01*
X187397000Y-140852000D02*
X186394999Y-141854001D01*
X129738999Y-141613999D02*
X128977000Y-140852000D01*
X129979001Y-141854001D02*
X129738999Y-141613999D01*
X157184999Y-141854001D02*
X129979001Y-141854001D01*
X158187000Y-140852000D02*
X157184999Y-141854001D01*
X100528999Y-141613999D02*
X99767000Y-140852000D01*
X100769001Y-141854001D02*
X100528999Y-141613999D01*
X127974999Y-141854001D02*
X100769001Y-141854001D01*
X128977000Y-140852000D02*
X127974999Y-141854001D01*
X217929011Y-137094011D02*
X191154989Y-137094011D01*
X191154989Y-137094011D02*
X189937000Y-138312000D01*
X219147000Y-138312000D02*
X217929011Y-137094011D01*
X189175001Y-137550001D02*
X189937000Y-138312000D01*
X161729001Y-137309999D02*
X188934999Y-137309999D01*
X188934999Y-137309999D02*
X189175001Y-137550001D01*
X160727000Y-138312000D02*
X161729001Y-137309999D01*
X132519001Y-137309999D02*
X132278999Y-137550001D01*
X132278999Y-137550001D02*
X131517000Y-138312000D01*
X159724999Y-137309999D02*
X132519001Y-137309999D01*
X160727000Y-138312000D02*
X159724999Y-137309999D01*
X103068999Y-137550001D02*
X102307000Y-138312000D01*
X103309001Y-137309999D02*
X103068999Y-137550001D01*
X130514999Y-137309999D02*
X103309001Y-137309999D01*
X131517000Y-138312000D02*
X130514999Y-137309999D01*
X188158999Y-139073999D02*
X187397000Y-138312000D01*
X188399001Y-139314001D02*
X188158999Y-139073999D01*
X215604999Y-139314001D02*
X188399001Y-139314001D01*
X216607000Y-138312000D02*
X215604999Y-139314001D01*
X158948999Y-139073999D02*
X158187000Y-138312000D01*
X159189001Y-139314001D02*
X158948999Y-139073999D01*
X186394999Y-139314001D02*
X159189001Y-139314001D01*
X187397000Y-138312000D02*
X186394999Y-139314001D01*
X129738999Y-139073999D02*
X128977000Y-138312000D01*
X129979001Y-139314001D02*
X129738999Y-139073999D01*
X157184999Y-139314001D02*
X129979001Y-139314001D01*
X158187000Y-138312000D02*
X157184999Y-139314001D01*
X100528999Y-139073999D02*
X99767000Y-138312000D01*
X100769001Y-139314001D02*
X100528999Y-139073999D01*
X127974999Y-139314001D02*
X100769001Y-139314001D01*
X128977000Y-138312000D02*
X127974999Y-139314001D01*
X191154989Y-134554011D02*
X189937000Y-135772000D01*
X217929011Y-134554011D02*
X191154989Y-134554011D01*
X219147000Y-135772000D02*
X217929011Y-134554011D01*
X188934999Y-134769999D02*
X189175001Y-135010001D01*
X161729001Y-134769999D02*
X188934999Y-134769999D01*
X189175001Y-135010001D02*
X189937000Y-135772000D01*
X160727000Y-135772000D02*
X161729001Y-134769999D01*
X132278999Y-135010001D02*
X131517000Y-135772000D01*
X132519001Y-134769999D02*
X132278999Y-135010001D01*
X159724999Y-134769999D02*
X132519001Y-134769999D01*
X160727000Y-135772000D02*
X159724999Y-134769999D01*
X103068999Y-135010001D02*
X102307000Y-135772000D01*
X130514999Y-134769999D02*
X103309001Y-134769999D01*
X103309001Y-134769999D02*
X103068999Y-135010001D01*
X131517000Y-135772000D02*
X130514999Y-134769999D01*
X188158999Y-136533999D02*
X187397000Y-135772000D01*
X215604999Y-136774001D02*
X188399001Y-136774001D01*
X188399001Y-136774001D02*
X188158999Y-136533999D01*
X216607000Y-135772000D02*
X215604999Y-136774001D01*
X159189001Y-136774001D02*
X158948999Y-136533999D01*
X158948999Y-136533999D02*
X158187000Y-135772000D01*
X186394999Y-136774001D02*
X159189001Y-136774001D01*
X187397000Y-135772000D02*
X186394999Y-136774001D01*
X129738999Y-136533999D02*
X128977000Y-135772000D01*
X129979001Y-136774001D02*
X129738999Y-136533999D01*
X157184999Y-136774001D02*
X129979001Y-136774001D01*
X158187000Y-135772000D02*
X157184999Y-136774001D01*
X100528999Y-136533999D02*
X99767000Y-135772000D01*
X100769001Y-136774001D02*
X100528999Y-136533999D01*
X127974999Y-136774001D02*
X100769001Y-136774001D01*
X128977000Y-135772000D02*
X127974999Y-136774001D01*
X191154989Y-132014011D02*
X189937000Y-133232000D01*
X217929011Y-132014011D02*
X191154989Y-132014011D01*
X219147000Y-133232000D02*
X217929011Y-132014011D01*
X161729001Y-132229999D02*
X161488999Y-132470001D01*
X161488999Y-132470001D02*
X160727000Y-133232000D01*
X188934999Y-132229999D02*
X161729001Y-132229999D01*
X189937000Y-133232000D02*
X188934999Y-132229999D01*
X132278999Y-132470001D02*
X131517000Y-133232000D01*
X132519001Y-132229999D02*
X132278999Y-132470001D01*
X159724999Y-132229999D02*
X132519001Y-132229999D01*
X160727000Y-133232000D02*
X159724999Y-132229999D01*
X103309001Y-132229999D02*
X103068999Y-132470001D01*
X103068999Y-132470001D02*
X102307000Y-133232000D01*
X130514999Y-132229999D02*
X103309001Y-132229999D01*
X131517000Y-133232000D02*
X130514999Y-132229999D01*
X188158999Y-133993999D02*
X187397000Y-133232000D01*
X188399001Y-134234001D02*
X188158999Y-133993999D01*
X215604999Y-134234001D02*
X188399001Y-134234001D01*
X216607000Y-133232000D02*
X215604999Y-134234001D01*
X129738999Y-133993999D02*
X128977000Y-133232000D01*
X129979001Y-134234001D02*
X129738999Y-133993999D01*
X157184999Y-134234001D02*
X129979001Y-134234001D01*
X158187000Y-133232000D02*
X157184999Y-134234001D01*
X100528999Y-133993999D02*
X99767000Y-133232000D01*
X100769001Y-134234001D02*
X100528999Y-133993999D01*
X127974999Y-134234001D02*
X100769001Y-134234001D01*
X128977000Y-133232000D02*
X127974999Y-134234001D01*
X186635001Y-133993999D02*
X187397000Y-133232000D01*
X186394999Y-134234001D02*
X186635001Y-133993999D01*
X159189001Y-134234001D02*
X186394999Y-134234001D01*
X158187000Y-133232000D02*
X159189001Y-134234001D01*
X191154989Y-129474011D02*
X189937000Y-130692000D01*
X217929011Y-129474011D02*
X191154989Y-129474011D01*
X219147000Y-130692000D02*
X217929011Y-129474011D01*
X189175001Y-129930001D02*
X189937000Y-130692000D01*
X161729001Y-129689999D02*
X188934999Y-129689999D01*
X188934999Y-129689999D02*
X189175001Y-129930001D01*
X160727000Y-130692000D02*
X161729001Y-129689999D01*
X132519001Y-129689999D02*
X132278999Y-129930001D01*
X132278999Y-129930001D02*
X131517000Y-130692000D01*
X159724999Y-129689999D02*
X132519001Y-129689999D01*
X160727000Y-130692000D02*
X159724999Y-129689999D01*
X103068999Y-129930001D02*
X102307000Y-130692000D01*
X103524989Y-129474011D02*
X103068999Y-129930001D01*
X130299011Y-129474011D02*
X103524989Y-129474011D01*
X131517000Y-130692000D02*
X130299011Y-129474011D01*
X188158999Y-131453999D02*
X187397000Y-130692000D01*
X188399001Y-131694001D02*
X188158999Y-131453999D01*
X215604999Y-131694001D02*
X188399001Y-131694001D01*
X216607000Y-130692000D02*
X215604999Y-131694001D01*
X129738999Y-131453999D02*
X128977000Y-130692000D01*
X129979001Y-131694001D02*
X129738999Y-131453999D01*
X157184999Y-131694001D02*
X129979001Y-131694001D01*
X158187000Y-130692000D02*
X157184999Y-131694001D01*
X100528999Y-131453999D02*
X99767000Y-130692000D01*
X100769001Y-131694001D02*
X100528999Y-131453999D01*
X127974999Y-131694001D02*
X100769001Y-131694001D01*
X128977000Y-130692000D02*
X127974999Y-131694001D01*
X159189001Y-131694001D02*
X158948999Y-131453999D01*
X158948999Y-131453999D02*
X158187000Y-130692000D01*
X187397000Y-130692000D02*
X186394999Y-131694001D01*
X186394999Y-131694001D02*
X159189001Y-131694001D01*
X191154989Y-126934011D02*
X189937000Y-128152000D01*
X219147000Y-128152000D02*
X217929011Y-126934011D01*
X161729001Y-127149999D02*
X161488999Y-127390001D01*
X161488999Y-127390001D02*
X160727000Y-128152000D01*
X189937000Y-128152000D02*
X188934999Y-127149999D01*
X191154989Y-126934011D02*
X217929011Y-126934011D01*
X188934999Y-127149999D02*
X161729001Y-127149999D01*
X159724999Y-127149999D02*
X160727000Y-128152000D01*
X132519001Y-127149999D02*
X159724999Y-127149999D01*
X131517000Y-128152000D02*
X132519001Y-127149999D01*
X103309001Y-127149999D02*
X102307000Y-128152000D01*
X130514999Y-127149999D02*
X103309001Y-127149999D01*
X131517000Y-128152000D02*
X130514999Y-127149999D01*
X188399001Y-129154001D02*
X188158999Y-128913999D01*
X188158999Y-128913999D02*
X187397000Y-128152000D01*
X215604999Y-129154001D02*
X188399001Y-129154001D01*
X216607000Y-128152000D02*
X215604999Y-129154001D01*
X158948999Y-128913999D02*
X158187000Y-128152000D01*
X159189001Y-129154001D02*
X158948999Y-128913999D01*
X186394999Y-129154001D02*
X159189001Y-129154001D01*
X187397000Y-128152000D02*
X186394999Y-129154001D01*
X129738999Y-128913999D02*
X128977000Y-128152000D01*
X129979001Y-129154001D02*
X129738999Y-128913999D01*
X157184999Y-129154001D02*
X129979001Y-129154001D01*
X158187000Y-128152000D02*
X157184999Y-129154001D01*
X100769001Y-129154001D02*
X100528999Y-128913999D01*
X100528999Y-128913999D02*
X99767000Y-128152000D01*
X127974999Y-129154001D02*
X100769001Y-129154001D01*
X128977000Y-128152000D02*
X127974999Y-129154001D01*
X72495001Y-71709999D02*
X72915000Y-71290000D01*
X72920000Y-87310000D02*
X74500000Y-85730000D01*
X71969990Y-72235010D02*
X72495001Y-71709999D01*
X71969990Y-78469990D02*
X71969990Y-72235010D01*
X74500000Y-81000000D02*
X71969990Y-78469990D01*
X74500000Y-85730000D02*
X74500000Y-81000000D01*
X73632553Y-68679991D02*
X75000000Y-70047438D01*
X71179991Y-69867447D02*
X72367448Y-68679990D01*
X71179991Y-83029991D02*
X71179991Y-69867447D01*
X72367448Y-68679990D02*
X73632553Y-68679991D01*
X72920000Y-84770000D02*
X71179991Y-83029991D01*
X75000000Y-70855000D02*
X73915000Y-71940000D01*
X75000000Y-70047438D02*
X75000000Y-70855000D01*
D32*
X85295000Y-144560000D02*
X87309000Y-146574000D01*
X87309000Y-146574000D02*
X92611000Y-146574000D01*
X87805000Y-110940000D02*
X85955000Y-110940000D01*
X94187010Y-117322010D02*
X87805000Y-110940000D01*
X94187010Y-144997990D02*
X94187010Y-117322010D01*
X92611000Y-146574000D02*
X94187010Y-144997990D01*
D30*
X129979001Y-118594001D02*
X129738999Y-118353999D01*
X157184999Y-118594001D02*
X129979001Y-118594001D01*
X129738999Y-118353999D02*
X128977000Y-117592000D01*
X158187000Y-117592000D02*
X157184999Y-118594001D01*
X127974999Y-118594001D02*
X100769001Y-118594001D01*
X100528999Y-118353999D02*
X99767000Y-117592000D01*
X100769001Y-118594001D02*
X100528999Y-118353999D01*
X128977000Y-117592000D02*
X127974999Y-118594001D01*
X186394999Y-118594001D02*
X159189001Y-118594001D01*
X187397000Y-117592000D02*
X186394999Y-118594001D01*
X159189001Y-118594001D02*
X158948999Y-118353999D01*
X158948999Y-118353999D02*
X158187000Y-117592000D01*
X158948999Y-120893999D02*
X158187000Y-120132000D01*
X159189001Y-121134001D02*
X158948999Y-120893999D01*
X186394999Y-121134001D02*
X159189001Y-121134001D01*
X187397000Y-120132000D02*
X186394999Y-121134001D01*
X129738999Y-120893999D02*
X128977000Y-120132000D01*
X129979001Y-121134001D02*
X129738999Y-120893999D01*
X157184999Y-121134001D02*
X129979001Y-121134001D01*
X158187000Y-120132000D02*
X157184999Y-121134001D01*
X100528999Y-120893999D02*
X99767000Y-120132000D01*
X100769001Y-121134001D02*
X100528999Y-120893999D01*
X127974999Y-121134001D02*
X100769001Y-121134001D01*
X128977000Y-120132000D02*
X127974999Y-121134001D01*
X161488999Y-119370001D02*
X160727000Y-120132000D01*
X161729001Y-119129999D02*
X161488999Y-119370001D01*
X188934999Y-119129999D02*
X161729001Y-119129999D01*
X189937000Y-120132000D02*
X188934999Y-119129999D01*
X132519001Y-119129999D02*
X132278999Y-119370001D01*
X159724999Y-119129999D02*
X132519001Y-119129999D01*
X132278999Y-119370001D02*
X131517000Y-120132000D01*
X160727000Y-120132000D02*
X159724999Y-119129999D01*
X103068999Y-119370001D02*
X102307000Y-120132000D01*
X103309001Y-119129999D02*
X103068999Y-119370001D01*
X130514999Y-119129999D02*
X103309001Y-119129999D01*
X131517000Y-120132000D02*
X130514999Y-119129999D01*
X161488999Y-116830001D02*
X160727000Y-117592000D01*
X161729001Y-116589999D02*
X161488999Y-116830001D01*
X188934999Y-116589999D02*
X161729001Y-116589999D01*
X189937000Y-117592000D02*
X188934999Y-116589999D01*
X132278999Y-116830001D02*
X131517000Y-117592000D01*
X132519001Y-116589999D02*
X132278999Y-116830001D01*
X159724999Y-116589999D02*
X132519001Y-116589999D01*
X160727000Y-117592000D02*
X159724999Y-116589999D01*
X103309001Y-116589999D02*
X103068999Y-116830001D01*
X130514999Y-116589999D02*
X103309001Y-116589999D01*
X103068999Y-116830001D02*
X102307000Y-117592000D01*
X131517000Y-117592000D02*
X130514999Y-116589999D01*
X161488999Y-114290001D02*
X160727000Y-115052000D01*
X188934999Y-114049999D02*
X161729001Y-114049999D01*
X161729001Y-114049999D02*
X161488999Y-114290001D01*
X189937000Y-115052000D02*
X188934999Y-114049999D01*
X132278999Y-114290001D02*
X131517000Y-115052000D01*
X132519001Y-114049999D02*
X132278999Y-114290001D01*
X159724999Y-114049999D02*
X132519001Y-114049999D01*
X160727000Y-115052000D02*
X159724999Y-114049999D01*
X103068999Y-114290001D02*
X102307000Y-115052000D01*
X103309001Y-114049999D02*
X103068999Y-114290001D01*
X130514999Y-114049999D02*
X103309001Y-114049999D01*
X131517000Y-115052000D02*
X130514999Y-114049999D01*
X161488999Y-111750001D02*
X160727000Y-112512000D01*
X161729001Y-111509999D02*
X161488999Y-111750001D01*
X188934999Y-111509999D02*
X161729001Y-111509999D01*
X189937000Y-112512000D02*
X188934999Y-111509999D01*
X132278999Y-111750001D02*
X131517000Y-112512000D01*
X132734989Y-111294011D02*
X132278999Y-111750001D01*
X159509011Y-111294011D02*
X132734989Y-111294011D01*
X160727000Y-112512000D02*
X159509011Y-111294011D01*
X103068999Y-111750001D02*
X102307000Y-112512000D01*
X103309001Y-111509999D02*
X103068999Y-111750001D01*
X130514999Y-111509999D02*
X103309001Y-111509999D01*
X131517000Y-112512000D02*
X130514999Y-111509999D01*
X161488999Y-109210001D02*
X160727000Y-109972000D01*
X161729001Y-108969999D02*
X161488999Y-109210001D01*
X188934999Y-108969999D02*
X161729001Y-108969999D01*
X189937000Y-109972000D02*
X188934999Y-108969999D01*
X132278999Y-109210001D02*
X131517000Y-109972000D01*
X132519001Y-108969999D02*
X132278999Y-109210001D01*
X159724999Y-108969999D02*
X132519001Y-108969999D01*
X160727000Y-109972000D02*
X159724999Y-108969999D01*
X103068999Y-109210001D02*
X102307000Y-109972000D01*
X103524989Y-108754011D02*
X103068999Y-109210001D01*
X130299011Y-108754011D02*
X103524989Y-108754011D01*
X131517000Y-109972000D02*
X130299011Y-108754011D01*
X161488999Y-106670001D02*
X160727000Y-107432000D01*
X161729001Y-106429999D02*
X161488999Y-106670001D01*
X188934999Y-106429999D02*
X161729001Y-106429999D01*
X189937000Y-107432000D02*
X188934999Y-106429999D01*
X132519001Y-106429999D02*
X132278999Y-106670001D01*
X159724999Y-106429999D02*
X132519001Y-106429999D01*
X132278999Y-106670001D02*
X131517000Y-107432000D01*
X160727000Y-107432000D02*
X159724999Y-106429999D01*
X103309001Y-106429999D02*
X103068999Y-106670001D01*
X103068999Y-106670001D02*
X102307000Y-107432000D01*
X130514999Y-106429999D02*
X103309001Y-106429999D01*
X131517000Y-107432000D02*
X130514999Y-106429999D01*
X188934999Y-103889999D02*
X161729001Y-103889999D01*
X161488999Y-104130001D02*
X160727000Y-104892000D01*
X161729001Y-103889999D02*
X161488999Y-104130001D01*
X189937000Y-104892000D02*
X188934999Y-103889999D01*
X132278999Y-104130001D02*
X131517000Y-104892000D01*
X132734989Y-103674011D02*
X132278999Y-104130001D01*
X159509011Y-103674011D02*
X132734989Y-103674011D01*
X160727000Y-104892000D02*
X159509011Y-103674011D01*
X103309001Y-103889999D02*
X103068999Y-104130001D01*
X103068999Y-104130001D02*
X102307000Y-104892000D01*
X130514999Y-103889999D02*
X103309001Y-103889999D01*
X131517000Y-104892000D02*
X130514999Y-103889999D01*
X161488999Y-101590001D02*
X160727000Y-102352000D01*
X161729001Y-101349999D02*
X161488999Y-101590001D01*
X188934999Y-101349999D02*
X161729001Y-101349999D01*
X189937000Y-102352000D02*
X188934999Y-101349999D01*
X132278999Y-101590001D02*
X131517000Y-102352000D01*
X132519001Y-101349999D02*
X132278999Y-101590001D01*
X159724999Y-101349999D02*
X132519001Y-101349999D01*
X160727000Y-102352000D02*
X159724999Y-101349999D01*
X103068999Y-101590001D02*
X102307000Y-102352000D01*
X130514999Y-101349999D02*
X103309001Y-101349999D01*
X103309001Y-101349999D02*
X103068999Y-101590001D01*
X131517000Y-102352000D02*
X130514999Y-101349999D01*
X161488999Y-99050001D02*
X160727000Y-99812000D01*
X188934999Y-98809999D02*
X161729001Y-98809999D01*
X161729001Y-98809999D02*
X161488999Y-99050001D01*
X189937000Y-99812000D02*
X188934999Y-98809999D01*
X132519001Y-98809999D02*
X131517000Y-99812000D01*
X159724999Y-98809999D02*
X132519001Y-98809999D01*
X160727000Y-99812000D02*
X159724999Y-98809999D01*
X103524989Y-98594011D02*
X103068999Y-99050001D01*
X130299011Y-98594011D02*
X103524989Y-98594011D01*
X103068999Y-99050001D02*
X102307000Y-99812000D01*
X131517000Y-99812000D02*
X130299011Y-98594011D01*
X161488999Y-96510001D02*
X160727000Y-97272000D01*
X161729001Y-96269999D02*
X161488999Y-96510001D01*
X188934999Y-96269999D02*
X161729001Y-96269999D01*
X189937000Y-97272000D02*
X188934999Y-96269999D01*
X132734989Y-96054011D02*
X132278999Y-96510001D01*
X159509011Y-96054011D02*
X132734989Y-96054011D01*
X132278999Y-96510001D02*
X131517000Y-97272000D01*
X160727000Y-97272000D02*
X159509011Y-96054011D01*
X103309001Y-96269999D02*
X103068999Y-96510001D01*
X103068999Y-96510001D02*
X102307000Y-97272000D01*
X130514999Y-96269999D02*
X103309001Y-96269999D01*
X131517000Y-97272000D02*
X130514999Y-96269999D01*
X161488999Y-93970001D02*
X160727000Y-94732000D01*
X161729001Y-93729999D02*
X161488999Y-93970001D01*
X188934999Y-93729999D02*
X161729001Y-93729999D01*
X189937000Y-94732000D02*
X188934999Y-93729999D01*
X132519001Y-93729999D02*
X132278999Y-93970001D01*
X159724999Y-93729999D02*
X132519001Y-93729999D01*
X132278999Y-93970001D02*
X131517000Y-94732000D01*
X160727000Y-94732000D02*
X159724999Y-93729999D01*
X130514999Y-93729999D02*
X103309001Y-93729999D01*
X103068999Y-93970001D02*
X102307000Y-94732000D01*
X103309001Y-93729999D02*
X103068999Y-93970001D01*
X131517000Y-94732000D02*
X130514999Y-93729999D01*
X161488999Y-91430001D02*
X160727000Y-92192000D01*
X161729001Y-91189999D02*
X161488999Y-91430001D01*
X188934999Y-91189999D02*
X161729001Y-91189999D01*
X189937000Y-92192000D02*
X188934999Y-91189999D01*
X132519001Y-91189999D02*
X132278999Y-91430001D01*
X159724999Y-91189999D02*
X132519001Y-91189999D01*
X132278999Y-91430001D02*
X131517000Y-92192000D01*
X160727000Y-92192000D02*
X159724999Y-91189999D01*
X103309001Y-91189999D02*
X103068999Y-91430001D01*
X130514999Y-91189999D02*
X103309001Y-91189999D01*
X103068999Y-91430001D02*
X102307000Y-92192000D01*
X131517000Y-92192000D02*
X130514999Y-91189999D01*
X161488999Y-88890001D02*
X160727000Y-89652000D01*
X188934999Y-88649999D02*
X161729001Y-88649999D01*
X161729001Y-88649999D02*
X161488999Y-88890001D01*
X189937000Y-89652000D02*
X188934999Y-88649999D01*
X132278999Y-88890001D02*
X131517000Y-89652000D01*
X132519001Y-88649999D02*
X132278999Y-88890001D01*
X159724999Y-88649999D02*
X132519001Y-88649999D01*
X160727000Y-89652000D02*
X159724999Y-88649999D01*
X103068999Y-88890001D02*
X102307000Y-89652000D01*
X103309001Y-88649999D02*
X103068999Y-88890001D01*
X130514999Y-88649999D02*
X103309001Y-88649999D01*
X131517000Y-89652000D02*
X130514999Y-88649999D01*
X161488999Y-86350001D02*
X160727000Y-87112000D01*
X161729001Y-86109999D02*
X161488999Y-86350001D01*
X188934999Y-86109999D02*
X161729001Y-86109999D01*
X189937000Y-87112000D02*
X188934999Y-86109999D01*
X132278999Y-86350001D02*
X131517000Y-87112000D01*
X159724999Y-86109999D02*
X132519001Y-86109999D01*
X132519001Y-86109999D02*
X132278999Y-86350001D01*
X160727000Y-87112000D02*
X159724999Y-86109999D01*
X103068999Y-86350001D02*
X102307000Y-87112000D01*
X103309001Y-86109999D02*
X103068999Y-86350001D01*
X130514999Y-86109999D02*
X103309001Y-86109999D01*
X131517000Y-87112000D02*
X130514999Y-86109999D01*
X158948999Y-80253999D02*
X158187000Y-79492000D01*
X186394999Y-80494001D02*
X159189001Y-80494001D01*
X159189001Y-80494001D02*
X158948999Y-80253999D01*
X187397000Y-79492000D02*
X186394999Y-80494001D01*
X129738999Y-80253999D02*
X128977000Y-79492000D01*
X129979001Y-80494001D02*
X129738999Y-80253999D01*
X157184999Y-80494001D02*
X129979001Y-80494001D01*
X158187000Y-79492000D02*
X157184999Y-80494001D01*
X100769001Y-80494001D02*
X100528999Y-80253999D01*
X100528999Y-80253999D02*
X99767000Y-79492000D01*
X127974999Y-80494001D02*
X100769001Y-80494001D01*
X128977000Y-79492000D02*
X127974999Y-80494001D01*
X158948999Y-77713999D02*
X158187000Y-76952000D01*
X159189001Y-77954001D02*
X158948999Y-77713999D01*
X186394999Y-77954001D02*
X159189001Y-77954001D01*
X187397000Y-76952000D02*
X186394999Y-77954001D01*
X129738999Y-77713999D02*
X128977000Y-76952000D01*
X129979001Y-77954001D02*
X129738999Y-77713999D01*
X157184999Y-77954001D02*
X129979001Y-77954001D01*
X158187000Y-76952000D02*
X157184999Y-77954001D01*
X100528999Y-77713999D02*
X99767000Y-76952000D01*
X100769001Y-77954001D02*
X100528999Y-77713999D01*
X127974999Y-77954001D02*
X100769001Y-77954001D01*
X128977000Y-76952000D02*
X127974999Y-77954001D01*
X158948999Y-75173999D02*
X158187000Y-74412000D01*
X159189001Y-75414001D02*
X158948999Y-75173999D01*
X186394999Y-75414001D02*
X159189001Y-75414001D01*
X187397000Y-74412000D02*
X186394999Y-75414001D01*
X129979001Y-75414001D02*
X129738999Y-75173999D01*
X129738999Y-75173999D02*
X128977000Y-74412000D01*
X157184999Y-75414001D02*
X129979001Y-75414001D01*
X158187000Y-74412000D02*
X157184999Y-75414001D01*
X100769001Y-75414001D02*
X100528999Y-75173999D01*
X127974999Y-75414001D02*
X100769001Y-75414001D01*
X100528999Y-75173999D02*
X99767000Y-74412000D01*
X128977000Y-74412000D02*
X127974999Y-75414001D01*
X158948999Y-72633999D02*
X158187000Y-71872000D01*
X159189001Y-72874001D02*
X158948999Y-72633999D01*
X186394999Y-72874001D02*
X159189001Y-72874001D01*
X187397000Y-71872000D02*
X186394999Y-72874001D01*
X129738999Y-72633999D02*
X128977000Y-71872000D01*
X129979001Y-72874001D02*
X129738999Y-72633999D01*
X157184999Y-72874001D02*
X129979001Y-72874001D01*
X158187000Y-71872000D02*
X157184999Y-72874001D01*
X100528999Y-72633999D02*
X99767000Y-71872000D01*
X100769001Y-72874001D02*
X100528999Y-72633999D01*
X127974999Y-72874001D02*
X100769001Y-72874001D01*
X128977000Y-71872000D02*
X127974999Y-72874001D01*
X158948999Y-70093999D02*
X158187000Y-69332000D01*
X186394999Y-70334001D02*
X159189001Y-70334001D01*
X159189001Y-70334001D02*
X158948999Y-70093999D01*
X187397000Y-69332000D02*
X186394999Y-70334001D01*
X129738999Y-70093999D02*
X128977000Y-69332000D01*
X129979001Y-70334001D02*
X129738999Y-70093999D01*
X157184999Y-70334001D02*
X129979001Y-70334001D01*
X158187000Y-69332000D02*
X157184999Y-70334001D01*
X100769001Y-70334001D02*
X100528999Y-70093999D01*
X100528999Y-70093999D02*
X99767000Y-69332000D01*
X127974999Y-70334001D02*
X100769001Y-70334001D01*
X128977000Y-69332000D02*
X127974999Y-70334001D01*
X158948999Y-67553999D02*
X158187000Y-66792000D01*
X159189001Y-67794001D02*
X158948999Y-67553999D01*
X186394999Y-67794001D02*
X159189001Y-67794001D01*
X187397000Y-66792000D02*
X186394999Y-67794001D01*
X129738999Y-67553999D02*
X128977000Y-66792000D01*
X129979001Y-67794001D02*
X129738999Y-67553999D01*
X157184999Y-67794001D02*
X129979001Y-67794001D01*
X158187000Y-66792000D02*
X157184999Y-67794001D01*
X100528999Y-67553999D02*
X99767000Y-66792000D01*
X100769001Y-67794001D02*
X100528999Y-67553999D01*
X127974999Y-67794001D02*
X100769001Y-67794001D01*
X128977000Y-66792000D02*
X127974999Y-67794001D01*
X158948999Y-65013999D02*
X158187000Y-64252000D01*
X159189001Y-65254001D02*
X158948999Y-65013999D01*
X186394999Y-65254001D02*
X159189001Y-65254001D01*
X187397000Y-64252000D02*
X186394999Y-65254001D01*
X129738999Y-65013999D02*
X128977000Y-64252000D01*
X157184999Y-65254001D02*
X129979001Y-65254001D01*
X129979001Y-65254001D02*
X129738999Y-65013999D01*
X158187000Y-64252000D02*
X157184999Y-65254001D01*
X100769001Y-65254001D02*
X100528999Y-65013999D01*
X127974999Y-65254001D02*
X100769001Y-65254001D01*
X100528999Y-65013999D02*
X99767000Y-64252000D01*
X128977000Y-64252000D02*
X127974999Y-65254001D01*
X158948999Y-62473999D02*
X158187000Y-61712000D01*
X159189001Y-62714001D02*
X158948999Y-62473999D01*
X186394999Y-62714001D02*
X159189001Y-62714001D01*
X187397000Y-61712000D02*
X186394999Y-62714001D01*
X129738999Y-62473999D02*
X128977000Y-61712000D01*
X129979001Y-62714001D02*
X129738999Y-62473999D01*
X157184999Y-62714001D02*
X129979001Y-62714001D01*
X158187000Y-61712000D02*
X157184999Y-62714001D01*
X100528999Y-62473999D02*
X99767000Y-61712000D01*
X100769001Y-62714001D02*
X100528999Y-62473999D01*
X127974999Y-62714001D02*
X100769001Y-62714001D01*
X128977000Y-61712000D02*
X127974999Y-62714001D01*
X159189001Y-60174001D02*
X158948999Y-59933999D01*
X186394999Y-60174001D02*
X159189001Y-60174001D01*
X158948999Y-59933999D02*
X158187000Y-59172000D01*
X187397000Y-59172000D02*
X186394999Y-60174001D01*
X129738999Y-59933999D02*
X128977000Y-59172000D01*
X129979001Y-60174001D02*
X129738999Y-59933999D01*
X157184999Y-60174001D02*
X129979001Y-60174001D01*
X158187000Y-59172000D02*
X157184999Y-60174001D01*
X100528999Y-59933999D02*
X99767000Y-59172000D01*
X100769001Y-60174001D02*
X100528999Y-59933999D01*
X127974999Y-60174001D02*
X100769001Y-60174001D01*
X128977000Y-59172000D02*
X127974999Y-60174001D01*
X159189001Y-57634001D02*
X158948999Y-57393999D01*
X158948999Y-57393999D02*
X158187000Y-56632000D01*
X186394999Y-57634001D02*
X159189001Y-57634001D01*
X187397000Y-56632000D02*
X186394999Y-57634001D01*
X129979001Y-57634001D02*
X129738999Y-57393999D01*
X129738999Y-57393999D02*
X128977000Y-56632000D01*
X157184999Y-57634001D02*
X129979001Y-57634001D01*
X158187000Y-56632000D02*
X157184999Y-57634001D01*
X100769001Y-57634001D02*
X100528999Y-57393999D01*
X127974999Y-57634001D02*
X100769001Y-57634001D01*
X100528999Y-57393999D02*
X99767000Y-56632000D01*
X128977000Y-56632000D02*
X127974999Y-57634001D01*
X159189001Y-55094001D02*
X158948999Y-54853999D01*
X158948999Y-54853999D02*
X158187000Y-54092000D01*
X186394999Y-55094001D02*
X159189001Y-55094001D01*
X187397000Y-54092000D02*
X186394999Y-55094001D01*
X129738999Y-54853999D02*
X128977000Y-54092000D01*
X157184999Y-55094001D02*
X129979001Y-55094001D01*
X129979001Y-55094001D02*
X129738999Y-54853999D01*
X158187000Y-54092000D02*
X157184999Y-55094001D01*
X100528999Y-54853999D02*
X99767000Y-54092000D01*
X127974999Y-55094001D02*
X100769001Y-55094001D01*
X100769001Y-55094001D02*
X100528999Y-54853999D01*
X128977000Y-54092000D02*
X127974999Y-55094001D01*
X158948999Y-52313999D02*
X158187000Y-51552000D01*
X159189001Y-52554001D02*
X158948999Y-52313999D01*
X186394999Y-52554001D02*
X159189001Y-52554001D01*
X187397000Y-51552000D02*
X186394999Y-52554001D01*
X129738999Y-52313999D02*
X128977000Y-51552000D01*
X129979001Y-52554001D02*
X129738999Y-52313999D01*
X157184999Y-52554001D02*
X129979001Y-52554001D01*
X158187000Y-51552000D02*
X157184999Y-52554001D01*
X100528999Y-52313999D02*
X99767000Y-51552000D01*
X100769001Y-52554001D02*
X100528999Y-52313999D01*
X127974999Y-52554001D02*
X100769001Y-52554001D01*
X128977000Y-51552000D02*
X127974999Y-52554001D01*
X158948999Y-49773999D02*
X158187000Y-49012000D01*
X159189001Y-50014001D02*
X158948999Y-49773999D01*
X186394999Y-50014001D02*
X159189001Y-50014001D01*
X187397000Y-49012000D02*
X186394999Y-50014001D01*
X129738999Y-49773999D02*
X128977000Y-49012000D01*
X129979001Y-50014001D02*
X129738999Y-49773999D01*
X157184999Y-50014001D02*
X129979001Y-50014001D01*
X158187000Y-49012000D02*
X157184999Y-50014001D01*
X100528999Y-49773999D02*
X99767000Y-49012000D01*
X127974999Y-50014001D02*
X100769001Y-50014001D01*
X100769001Y-50014001D02*
X100528999Y-49773999D01*
X128977000Y-49012000D02*
X127974999Y-50014001D01*
X158948999Y-47233999D02*
X158187000Y-46472000D01*
X186394999Y-47474001D02*
X159189001Y-47474001D01*
X159189001Y-47474001D02*
X158948999Y-47233999D01*
X187397000Y-46472000D02*
X186394999Y-47474001D01*
X129738999Y-47233999D02*
X128977000Y-46472000D01*
X129979001Y-47474001D02*
X129738999Y-47233999D01*
X157184999Y-47474001D02*
X129979001Y-47474001D01*
X158187000Y-46472000D02*
X157184999Y-47474001D01*
X100528999Y-47233999D02*
X99767000Y-46472000D01*
X100769001Y-47474001D02*
X100528999Y-47233999D01*
X127974999Y-47474001D02*
X100769001Y-47474001D01*
X128977000Y-46472000D02*
X127974999Y-47474001D01*
X159264630Y-43932000D02*
X158187000Y-43932000D01*
X187397000Y-43932000D02*
X186509011Y-43044011D01*
X180102379Y-42455001D02*
X160741629Y-42455001D01*
X160741629Y-42455001D02*
X159264630Y-43932000D01*
X180691388Y-43044011D02*
X180102379Y-42455001D01*
X186509011Y-43044011D02*
X180691388Y-43044011D01*
X158187000Y-43932000D02*
X157299011Y-43044011D01*
X148781388Y-43044011D02*
X148508991Y-42771614D01*
X157299011Y-43044011D02*
X148781388Y-43044011D01*
X130054630Y-43932000D02*
X128977000Y-43932000D01*
X131215016Y-42771614D02*
X130054630Y-43932000D01*
X148508991Y-42771614D02*
X131215016Y-42771614D01*
X102271630Y-42505000D02*
X100844630Y-43932000D01*
X100844630Y-43932000D02*
X99767000Y-43932000D01*
X127550000Y-42505000D02*
X102271630Y-42505000D01*
X128977000Y-43932000D02*
X127550000Y-42505000D01*
X158948999Y-40630001D02*
X158187000Y-41392000D01*
X159204001Y-40374999D02*
X158948999Y-40630001D01*
X129994001Y-40374999D02*
X129738999Y-40630001D01*
X129738999Y-40630001D02*
X128977000Y-41392000D01*
X157169999Y-40374999D02*
X129994001Y-40374999D01*
X158187000Y-41392000D02*
X157169999Y-40374999D01*
X100528999Y-40630001D02*
X99767000Y-41392000D01*
X100784001Y-40374999D02*
X100528999Y-40630001D01*
X118814201Y-40374999D02*
X100784001Y-40374999D01*
X118959203Y-40520001D02*
X118814201Y-40374999D01*
X127005861Y-40520001D02*
X118959203Y-40520001D01*
X127877860Y-41392000D02*
X127005861Y-40520001D01*
X128977000Y-41392000D02*
X127877860Y-41392000D01*
X161192961Y-40374999D02*
X159204001Y-40374999D01*
X161729001Y-40911039D02*
X161192961Y-40374999D01*
X176298961Y-40911039D02*
X161729001Y-40911039D01*
X176835001Y-40374999D02*
X176298961Y-40911039D01*
X186379999Y-40374999D02*
X176835001Y-40374999D01*
X187397000Y-41392000D02*
X186379999Y-40374999D01*
X158948999Y-100573999D02*
X158187000Y-99812000D01*
X159189001Y-100814001D02*
X158948999Y-100573999D01*
X186394999Y-100814001D02*
X159189001Y-100814001D01*
X187397000Y-99812000D02*
X186394999Y-100814001D01*
X129738999Y-100573999D02*
X128977000Y-99812000D01*
X129979001Y-100814001D02*
X129738999Y-100573999D01*
X157184999Y-100814001D02*
X129979001Y-100814001D01*
X158187000Y-99812000D02*
X157184999Y-100814001D01*
X100528999Y-100573999D02*
X99767000Y-99812000D01*
X100769001Y-100814001D02*
X100528999Y-100573999D01*
X127974999Y-100814001D02*
X100769001Y-100814001D01*
X128977000Y-99812000D02*
X127974999Y-100814001D01*
X161729001Y-78489999D02*
X161488999Y-78730001D01*
X188934999Y-78489999D02*
X161729001Y-78489999D01*
X161488999Y-78730001D02*
X160727000Y-79492000D01*
X189937000Y-79492000D02*
X188934999Y-78489999D01*
X132278999Y-78730001D02*
X131517000Y-79492000D01*
X132519001Y-78489999D02*
X132278999Y-78730001D01*
X159724999Y-78489999D02*
X132519001Y-78489999D01*
X160727000Y-79492000D02*
X159724999Y-78489999D01*
X103068999Y-78730001D02*
X102307000Y-79492000D01*
X130514999Y-78489999D02*
X103309001Y-78489999D01*
X103309001Y-78489999D02*
X103068999Y-78730001D01*
X131517000Y-79492000D02*
X130514999Y-78489999D01*
X161729001Y-81029999D02*
X161488999Y-81270001D01*
X161488999Y-81270001D02*
X160727000Y-82032000D01*
X188934999Y-81029999D02*
X161729001Y-81029999D01*
X189937000Y-82032000D02*
X188934999Y-81029999D01*
X132278999Y-81270001D02*
X131517000Y-82032000D01*
X132519001Y-81029999D02*
X132278999Y-81270001D01*
X159724999Y-81029999D02*
X132519001Y-81029999D01*
X160727000Y-82032000D02*
X159724999Y-81029999D01*
X103309001Y-81029999D02*
X103068999Y-81270001D01*
X103068999Y-81270001D02*
X102307000Y-82032000D01*
X130514999Y-81029999D02*
X103309001Y-81029999D01*
X131517000Y-82032000D02*
X130514999Y-81029999D01*
X159189001Y-98274001D02*
X158948999Y-98033999D01*
X158948999Y-98033999D02*
X158187000Y-97272000D01*
X186394999Y-98274001D02*
X159189001Y-98274001D01*
X187397000Y-97272000D02*
X186394999Y-98274001D01*
X157184999Y-98274001D02*
X129979001Y-98274001D01*
X129738999Y-98033999D02*
X128977000Y-97272000D01*
X129979001Y-98274001D02*
X129738999Y-98033999D01*
X158187000Y-97272000D02*
X157184999Y-98274001D01*
X100769001Y-98274001D02*
X100528999Y-98033999D01*
X127974999Y-98274001D02*
X100769001Y-98274001D01*
X100528999Y-98033999D02*
X99767000Y-97272000D01*
X128977000Y-97272000D02*
X127974999Y-98274001D01*
X159189001Y-95734001D02*
X158948999Y-95493999D01*
X186394999Y-95734001D02*
X159189001Y-95734001D01*
X158948999Y-95493999D02*
X158187000Y-94732000D01*
X187397000Y-94732000D02*
X186394999Y-95734001D01*
X157184999Y-95734001D02*
X129979001Y-95734001D01*
X129738999Y-95493999D02*
X128977000Y-94732000D01*
X129979001Y-95734001D02*
X129738999Y-95493999D01*
X158187000Y-94732000D02*
X157184999Y-95734001D01*
X100528999Y-95493999D02*
X99767000Y-94732000D01*
X100769001Y-95734001D02*
X100528999Y-95493999D01*
X127974999Y-95734001D02*
X100769001Y-95734001D01*
X128977000Y-94732000D02*
X127974999Y-95734001D01*
X158948999Y-92953999D02*
X158187000Y-92192000D01*
X159189001Y-93194001D02*
X158948999Y-92953999D01*
X186394999Y-93194001D02*
X159189001Y-93194001D01*
X187397000Y-92192000D02*
X186394999Y-93194001D01*
X129979001Y-93194001D02*
X129738999Y-92953999D01*
X129738999Y-92953999D02*
X128977000Y-92192000D01*
X157184999Y-93194001D02*
X129979001Y-93194001D01*
X158187000Y-92192000D02*
X157184999Y-93194001D01*
X100769001Y-93194001D02*
X100528999Y-92953999D01*
X127974999Y-93194001D02*
X100769001Y-93194001D01*
X100528999Y-92953999D02*
X99767000Y-92192000D01*
X128977000Y-92192000D02*
X127974999Y-93194001D01*
X158948999Y-90413999D02*
X158187000Y-89652000D01*
X159189001Y-90654001D02*
X158948999Y-90413999D01*
X186394999Y-90654001D02*
X159189001Y-90654001D01*
X187397000Y-89652000D02*
X186394999Y-90654001D01*
X129738999Y-90413999D02*
X128977000Y-89652000D01*
X157184999Y-90654001D02*
X129979001Y-90654001D01*
X129979001Y-90654001D02*
X129738999Y-90413999D01*
X158187000Y-89652000D02*
X157184999Y-90654001D01*
X100769001Y-90654001D02*
X100528999Y-90413999D01*
X100528999Y-90413999D02*
X99767000Y-89652000D01*
X127974999Y-90654001D02*
X100769001Y-90654001D01*
X128977000Y-89652000D02*
X127974999Y-90654001D01*
X159189001Y-88114001D02*
X158948999Y-87873999D01*
X158948999Y-87873999D02*
X158187000Y-87112000D01*
X186394999Y-88114001D02*
X159189001Y-88114001D01*
X187397000Y-87112000D02*
X186394999Y-88114001D01*
X129738999Y-87873999D02*
X128977000Y-87112000D01*
X129979001Y-88114001D02*
X129738999Y-87873999D01*
X157184999Y-88114001D02*
X129979001Y-88114001D01*
X158187000Y-87112000D02*
X157184999Y-88114001D01*
X100528999Y-87873999D02*
X99767000Y-87112000D01*
X100769001Y-88114001D02*
X100528999Y-87873999D01*
X127974999Y-88114001D02*
X100769001Y-88114001D01*
X128977000Y-87112000D02*
X127974999Y-88114001D01*
X158948999Y-85333999D02*
X158187000Y-84572000D01*
X159189001Y-85574001D02*
X158948999Y-85333999D01*
X186394999Y-85574001D02*
X159189001Y-85574001D01*
X187397000Y-84572000D02*
X186394999Y-85574001D01*
X129738999Y-85333999D02*
X128977000Y-84572000D01*
X129979001Y-85574001D02*
X129738999Y-85333999D01*
X157184999Y-85574001D02*
X129979001Y-85574001D01*
X158187000Y-84572000D02*
X157184999Y-85574001D01*
X100528999Y-85333999D02*
X99767000Y-84572000D01*
X127974999Y-85574001D02*
X100769001Y-85574001D01*
X100769001Y-85574001D02*
X100528999Y-85333999D01*
X128977000Y-84572000D02*
X127974999Y-85574001D01*
X186394999Y-83034001D02*
X159189001Y-83034001D01*
X158948999Y-82793999D02*
X158187000Y-82032000D01*
X159189001Y-83034001D02*
X158948999Y-82793999D01*
X187397000Y-82032000D02*
X186394999Y-83034001D01*
X129979001Y-83034001D02*
X129738999Y-82793999D01*
X129738999Y-82793999D02*
X128977000Y-82032000D01*
X157184999Y-83034001D02*
X129979001Y-83034001D01*
X158187000Y-82032000D02*
X157184999Y-83034001D01*
X100528999Y-82793999D02*
X99767000Y-82032000D01*
X100769001Y-83034001D02*
X100528999Y-82793999D01*
X127974999Y-83034001D02*
X100769001Y-83034001D01*
X128977000Y-82032000D02*
X127974999Y-83034001D01*
X72920000Y-81220000D02*
X71500000Y-79800000D01*
X72920000Y-82230000D02*
X72920000Y-81220000D01*
X71500000Y-79800000D02*
X71500000Y-70000000D01*
X71500000Y-70000000D02*
X72500000Y-69000000D01*
X72500000Y-69000000D02*
X73500000Y-69000000D01*
X73915000Y-69415000D02*
X73915000Y-70640000D01*
X73500000Y-69000000D02*
X73915000Y-69415000D01*
D32*
X90095000Y-144560000D02*
X93027000Y-141628000D01*
X87805000Y-113465000D02*
X85955000Y-113465000D01*
X93027000Y-118687000D02*
X87805000Y-113465000D01*
X93027000Y-141628000D02*
X93027000Y-118687000D01*
D30*
X161488999Y-58410001D02*
X160727000Y-59172000D01*
X161944989Y-57954011D02*
X161488999Y-58410001D01*
X188719011Y-57954011D02*
X161944989Y-57954011D01*
X189937000Y-59172000D02*
X188719011Y-57954011D01*
X132278999Y-58410001D02*
X131517000Y-59172000D01*
X132519001Y-58169999D02*
X132278999Y-58410001D01*
X159724999Y-58169999D02*
X132519001Y-58169999D01*
X160727000Y-59172000D02*
X159724999Y-58169999D01*
X103524989Y-57954011D02*
X103068999Y-58410001D01*
X130299011Y-57954011D02*
X103524989Y-57954011D01*
X103068999Y-58410001D02*
X102307000Y-59172000D01*
X131517000Y-59172000D02*
X130299011Y-57954011D01*
X198667000Y-64638000D02*
X198667000Y-60631000D01*
X197208000Y-59172000D02*
X189937000Y-59172000D01*
X198667000Y-60631000D02*
X197208000Y-59172000D01*
X161488999Y-60950001D02*
X160727000Y-61712000D01*
X161729001Y-60709999D02*
X161488999Y-60950001D01*
X188934999Y-60709999D02*
X161729001Y-60709999D01*
X189937000Y-61712000D02*
X188934999Y-60709999D01*
X132519001Y-60709999D02*
X132278999Y-60950001D01*
X132278999Y-60950001D02*
X131517000Y-61712000D01*
X159724999Y-60709999D02*
X132519001Y-60709999D01*
X160727000Y-61712000D02*
X159724999Y-60709999D01*
X103524989Y-60494011D02*
X103068999Y-60950001D01*
X103068999Y-60950001D02*
X102307000Y-61712000D01*
X130299011Y-60494011D02*
X103524989Y-60494011D01*
X131517000Y-61712000D02*
X130299011Y-60494011D01*
X198027000Y-65419382D02*
X198027000Y-63797000D01*
X195942000Y-61712000D02*
X189937000Y-61712000D01*
X198027000Y-63797000D02*
X195942000Y-61712000D01*
X161488999Y-63490001D02*
X160727000Y-64252000D01*
X161729001Y-63249999D02*
X161488999Y-63490001D01*
X188934999Y-63249999D02*
X161729001Y-63249999D01*
X189937000Y-64252000D02*
X188934999Y-63249999D01*
X132278999Y-63490001D02*
X131517000Y-64252000D01*
X159724999Y-63249999D02*
X132519001Y-63249999D01*
X132519001Y-63249999D02*
X132278999Y-63490001D01*
X160727000Y-64252000D02*
X159724999Y-63249999D01*
X103068999Y-63490001D02*
X102307000Y-64252000D01*
X103524989Y-63034011D02*
X103068999Y-63490001D01*
X130299011Y-63034011D02*
X103524989Y-63034011D01*
X131517000Y-64252000D02*
X130299011Y-63034011D01*
X191968020Y-64252000D02*
X195001258Y-67285238D01*
X189937000Y-64252000D02*
X191968020Y-64252000D01*
X161729001Y-65789999D02*
X161488999Y-66030001D01*
X161488999Y-66030001D02*
X160727000Y-66792000D01*
X188934999Y-65789999D02*
X161729001Y-65789999D01*
X189937000Y-66792000D02*
X188934999Y-65789999D01*
X132519001Y-65789999D02*
X132278999Y-66030001D01*
X132278999Y-66030001D02*
X131517000Y-66792000D01*
X159724999Y-65789999D02*
X132519001Y-65789999D01*
X160727000Y-66792000D02*
X159724999Y-65789999D01*
X103068999Y-66030001D02*
X102307000Y-66792000D01*
X103309001Y-65789999D02*
X103068999Y-66030001D01*
X130450999Y-65789999D02*
X103309001Y-65789999D01*
X131453000Y-66792000D02*
X130450999Y-65789999D01*
X131517000Y-66792000D02*
X131453000Y-66792000D01*
X191180992Y-68035992D02*
X195641258Y-68035992D01*
X189937000Y-66792000D02*
X191180992Y-68035992D01*
X161488999Y-68570001D02*
X160727000Y-69332000D01*
X188719011Y-68114011D02*
X161944989Y-68114011D01*
X161944989Y-68114011D02*
X161488999Y-68570001D01*
X189937000Y-69332000D02*
X188719011Y-68114011D01*
X132278999Y-68570001D02*
X131517000Y-69332000D01*
X159724999Y-68329999D02*
X132519001Y-68329999D01*
X132519001Y-68329999D02*
X132278999Y-68570001D01*
X160727000Y-69332000D02*
X159724999Y-68329999D01*
X103068999Y-68570001D02*
X102307000Y-69332000D01*
X103309001Y-68329999D02*
X103068999Y-68570001D01*
X130514999Y-68329999D02*
X103309001Y-68329999D01*
X131517000Y-69332000D02*
X130514999Y-68329999D01*
X195827286Y-69332000D02*
X196283000Y-68876286D01*
X189937000Y-69332000D02*
X195827286Y-69332000D01*
X159189001Y-116054001D02*
X158948999Y-115813999D01*
X186394999Y-116054001D02*
X159189001Y-116054001D01*
X158948999Y-115813999D02*
X158187000Y-115052000D01*
X187397000Y-115052000D02*
X186394999Y-116054001D01*
X129738999Y-115813999D02*
X128977000Y-115052000D01*
X129979001Y-116054001D02*
X129738999Y-115813999D01*
X157184999Y-116054001D02*
X129979001Y-116054001D01*
X158187000Y-115052000D02*
X157184999Y-116054001D01*
X100769001Y-116054001D02*
X100528999Y-115813999D01*
X127974999Y-116054001D02*
X100769001Y-116054001D01*
X100528999Y-115813999D02*
X99767000Y-115052000D01*
X128977000Y-115052000D02*
X127974999Y-116054001D01*
M02*
