M48
; DRILL file {KiCad (5.1.5-0-10_14)} date Sunday, 25 July 2021 at 00:50:46
; FORMAT={-:-/ absolute / inch / decimal}
; #@! TF.CreationDate,2021-07-25T00:50:46+01:00
; #@! TF.GenerationSoftware,Kicad,Pcbnew,(5.1.5-0-10_14)
; #@! TF.FileFunction,Plated,1,4,PTH
FMAT,2
INCH
T1C0.0138
T2C0.0157
T3C0.0173
T4C0.0315
T5C0.0320
T6C0.0354
T7C0.0394
T8C0.0400
T9C0.0433
T10C0.0472
%
G90
G05
T2
X7.6772Y-2.649
X7.7024Y-2.6786
X7.7277Y-2.7117
X7.7483Y-4.1509
X7.7527Y-4.3505
X7.7651Y-4.0491
X7.7661Y-4.4627
X7.7903Y-4.1468
X7.7913Y-3.9451
X7.7919Y-4.2397
X7.7924Y-4.0165
X7.7935Y-4.3344
X7.7946Y-4.4324
X7.7963Y-2.5756
X7.8155Y-4.1122
X7.8166Y-3.9157
X7.8166Y-3.9861
X7.818Y-4.3021
X7.818Y-4.4009
X7.8191Y-4.2089
X7.8215Y-2.5448
X7.8756Y-3.5224
X7.941Y-2.3192
X7.9492Y-2.0548
X7.9602Y-3.0413
X7.9602Y-3.3164
X7.9637Y-4.0491
X7.9723Y-1.8941
X7.9797Y-2.8926
X7.9803Y-2.4717
X8.028Y-2.8654
X8.0296Y-3.88
X8.0304Y-1.8512
X8.1593Y-2.055
X8.1602Y-2.3206
X8.1655Y-3.0413
X8.1756Y-4.4825
X8.1772Y-3.9065
X8.1857Y-4.0491
X8.1894Y-4.3327
X8.2919Y-2.5043
X8.2964Y-4.3274
X8.2969Y-4.4009
X8.2986Y-4.2517
X8.2994Y-4.1509
X8.3011Y-4.0995
X8.3013Y-4.4574
X8.3046Y-4.0066
X8.3068Y-3.9319
X8.317Y-2.5349
X8.3257Y-4.3021
X8.327Y-4.2013
X8.328Y-4.126
X8.331Y-3.0653
X8.3311Y-2.9675
X8.3312Y-3.0053
X8.3323Y-3.9598
X8.3327Y-4.0318
X8.3459Y-4.4325
X8.3554Y-4.2262
X8.3723Y-4.3505
T3
X2.8707Y-2.7555
X2.8707Y-2.8067
X2.8707Y-2.8579
X2.91Y-2.7811
X2.91Y-2.8323
T4
X7.0756Y-1.5321
X7.0756Y-1.6305
X3.2839Y-2.926
X3.3823Y-2.926
X3.2864Y-4.0993
X3.3848Y-4.0993
X8.2132Y-1.5383
X8.2132Y-1.6367
X4.6101Y-1.5322
X4.6101Y-1.6307
X3.5299Y-2.1044
X3.5299Y-2.2028
X5.8193Y-1.5321
X5.8193Y-1.6305
T5
X3.3552Y-2.4646
X3.4952Y-2.4646
X3.5299Y-1.5802
X3.5299Y-1.9802
T6
X3.1844Y-1.5803
X3.2844Y-1.5803
T7
X3.2841Y-4.3677
X3.3841Y-4.3677
X3.2841Y-4.4671
X3.3841Y-4.4671
X3.2841Y-4.2673
X3.3841Y-4.2673
X2.8709Y-3.2374
X2.8709Y-3.3374
X2.8709Y-3.4374
T8
X8.5363Y-5.0454
X8.5363Y-5.1454
X8.5363Y-5.2454
X8.5363Y-5.3454
X8.5363Y-5.4454
X8.5363Y-5.5454
X8.5363Y-5.6454
X8.5363Y-5.7454
X8.6363Y-5.0454
X8.6363Y-5.1454
X8.6363Y-5.2454
X8.6363Y-5.3454
X8.6363Y-5.4454
X8.6363Y-5.5454
X8.6363Y-5.6454
X8.6363Y-5.7454
X8.5363Y-1.6296
X8.5363Y-1.7296
X8.5363Y-1.8296
X8.5363Y-1.9296
X8.5363Y-2.0296
X8.5363Y-2.1296
X8.5363Y-2.2296
X8.5363Y-2.3296
X8.5363Y-2.4296
X8.5363Y-2.5296
X8.5363Y-2.6296
X8.5363Y-2.7296
X8.5363Y-2.8296
X8.5363Y-2.9296
X8.5363Y-3.0296
X8.5363Y-3.1296
X8.5363Y-3.2296
X8.5363Y-3.3296
X8.5363Y-3.4296
X8.5363Y-3.5296
X8.5363Y-3.6296
X8.5363Y-3.7296
X8.5363Y-3.8296
X8.5363Y-3.9296
X8.5363Y-4.0296
X8.5363Y-4.1296
X8.5363Y-4.2296
X8.5363Y-4.3296
X8.5363Y-4.4296
X8.5363Y-4.5296
X8.5363Y-4.6296
X8.5363Y-4.7296
X8.6363Y-1.6296
X8.6363Y-1.7296
X8.6363Y-1.8296
X8.6363Y-1.9296
X8.6363Y-2.0296
X8.6363Y-2.1296
X8.6363Y-2.2296
X8.6363Y-2.3296
X8.6363Y-2.4296
X8.6363Y-2.5296
X8.6363Y-2.6296
X8.6363Y-2.7296
X8.6363Y-2.8296
X8.6363Y-2.9296
X8.6363Y-3.0296
X8.6363Y-3.1296
X8.6363Y-3.2296
X8.6363Y-3.3296
X8.6363Y-3.4296
X8.6363Y-3.5296
X8.6363Y-3.6296
X8.6363Y-3.7296
X8.6363Y-3.8296
X8.6363Y-3.9296
X8.6363Y-4.0296
X8.6363Y-4.1296
X8.6363Y-4.2296
X8.6363Y-4.3296
X8.6363Y-4.4296
X8.6363Y-4.5296
X8.6363Y-4.6296
X8.6363Y-4.7296
X6.2278Y-5.0454
X6.2278Y-5.1454
X6.2278Y-5.2454
X6.2278Y-5.3454
X6.2278Y-5.4454
X6.2278Y-5.5454
X6.2278Y-5.6454
X6.2278Y-5.7454
X6.3278Y-5.0454
X6.3278Y-5.1454
X6.3278Y-5.2454
X6.3278Y-5.3454
X6.3278Y-5.4454
X6.3278Y-5.5454
X6.3278Y-5.6454
X6.3278Y-5.7454
X5.0778Y-1.6296
X5.0778Y-1.7296
X5.0778Y-1.8296
X5.0778Y-1.9296
X5.0778Y-2.0296
X5.0778Y-2.1296
X5.0778Y-2.2296
X5.0778Y-2.3296
X5.0778Y-2.4296
X5.0778Y-2.5296
X5.0778Y-2.6296
X5.0778Y-2.7296
X5.0778Y-2.8296
X5.0778Y-2.9296
X5.0778Y-3.0296
X5.0778Y-3.1296
X5.0778Y-3.2296
X5.0778Y-3.3296
X5.0778Y-3.4296
X5.0778Y-3.5296
X5.0778Y-3.6296
X5.0778Y-3.7296
X5.0778Y-3.8296
X5.0778Y-3.9296
X5.0778Y-4.0296
X5.0778Y-4.1296
X5.0778Y-4.2296
X5.0778Y-4.3296
X5.0778Y-4.4296
X5.0778Y-4.5296
X5.0778Y-4.6296
X5.0778Y-4.7296
X5.1778Y-1.6296
X5.1778Y-1.7296
X5.1778Y-1.8296
X5.1778Y-1.9296
X5.1778Y-2.0296
X5.1778Y-2.1296
X5.1778Y-2.2296
X5.1778Y-2.3296
X5.1778Y-2.4296
X5.1778Y-2.5296
X5.1778Y-2.6296
X5.1778Y-2.7296
X5.1778Y-2.8296
X5.1778Y-2.9296
X5.1778Y-3.0296
X5.1778Y-3.1296
X5.1778Y-3.2296
X5.1778Y-3.3296
X5.1778Y-3.4296
X5.1778Y-3.5296
X5.1778Y-3.6296
X5.1778Y-3.7296
X5.1778Y-3.8296
X5.1778Y-3.9296
X5.1778Y-4.0296
X5.1778Y-4.1296
X5.1778Y-4.2296
X5.1778Y-4.3296
X5.1778Y-4.4296
X5.1778Y-4.5296
X5.1778Y-4.6296
X5.1778Y-4.7296
X7.3778Y-5.0454
X7.3778Y-5.1454
X7.3778Y-5.2454
X7.3778Y-5.3454
X7.3778Y-5.4454
X7.3778Y-5.5454
X7.3778Y-5.6454
X7.3778Y-5.7454
X7.4778Y-5.0454
X7.4778Y-5.1454
X7.4778Y-5.2454
X7.4778Y-5.3454
X7.4778Y-5.4454
X7.4778Y-5.5454
X7.4778Y-5.6454
X7.4778Y-5.7454
X6.2278Y-1.6296
X6.2278Y-1.7296
X6.2278Y-1.8296
X6.2278Y-1.9296
X6.2278Y-2.0296
X6.2278Y-2.1296
X6.2278Y-2.2296
X6.2278Y-2.3296
X6.2278Y-2.4296
X6.2278Y-2.5296
X6.2278Y-2.6296
X6.2278Y-2.7296
X6.2278Y-2.8296
X6.2278Y-2.9296
X6.2278Y-3.0296
X6.2278Y-3.1296
X6.2278Y-3.2296
X6.2278Y-3.3296
X6.2278Y-3.4296
X6.2278Y-3.5296
X6.2278Y-3.6296
X6.2278Y-3.7296
X6.2278Y-3.8296
X6.2278Y-3.9296
X6.2278Y-4.0296
X6.2278Y-4.1296
X6.2278Y-4.2296
X6.2278Y-4.3296
X6.2278Y-4.4296
X6.2278Y-4.5296
X6.2278Y-4.6296
X6.2278Y-4.7296
X6.3278Y-1.6296
X6.3278Y-1.7296
X6.3278Y-1.8296
X6.3278Y-1.9296
X6.3278Y-2.0296
X6.3278Y-2.1296
X6.3278Y-2.2296
X6.3278Y-2.3296
X6.3278Y-2.4296
X6.3278Y-2.5296
X6.3278Y-2.6296
X6.3278Y-2.7296
X6.3278Y-2.8296
X6.3278Y-2.9296
X6.3278Y-3.0296
X6.3278Y-3.1296
X6.3278Y-3.2296
X6.3278Y-3.3296
X6.3278Y-3.4296
X6.3278Y-3.5296
X6.3278Y-3.6296
X6.3278Y-3.7296
X6.3278Y-3.8296
X6.3278Y-3.9296
X6.3278Y-4.0296
X6.3278Y-4.1296
X6.3278Y-4.2296
X6.3278Y-4.3296
X6.3278Y-4.4296
X6.3278Y-4.5296
X6.3278Y-4.6296
X6.3278Y-4.7296
X7.3778Y-1.6296
X7.3778Y-1.7296
X7.3778Y-1.8296
X7.3778Y-1.9296
X7.3778Y-2.0296
X7.3778Y-2.1296
X7.3778Y-2.2296
X7.3778Y-2.3296
X7.3778Y-2.4296
X7.3778Y-2.5296
X7.3778Y-2.6296
X7.3778Y-2.7296
X7.3778Y-2.8296
X7.3778Y-2.9296
X7.3778Y-3.0296
X7.3778Y-3.1296
X7.3778Y-3.2296
X7.3778Y-3.3296
X7.3778Y-3.4296
X7.3778Y-3.5296
X7.3778Y-3.6296
X7.3778Y-3.7296
X7.3778Y-3.8296
X7.3778Y-3.9296
X7.3778Y-4.0296
X7.3778Y-4.1296
X7.3778Y-4.2296
X7.3778Y-4.3296
X7.3778Y-4.4296
X7.3778Y-4.5296
X7.3778Y-4.6296
X7.3778Y-4.7296
X7.4778Y-1.6296
X7.4778Y-1.7296
X7.4778Y-1.8296
X7.4778Y-1.9296
X7.4778Y-2.0296
X7.4778Y-2.1296
X7.4778Y-2.2296
X7.4778Y-2.3296
X7.4778Y-2.4296
X7.4778Y-2.5296
X7.4778Y-2.6296
X7.4778Y-2.7296
X7.4778Y-2.8296
X7.4778Y-2.9296
X7.4778Y-3.0296
X7.4778Y-3.1296
X7.4778Y-3.2296
X7.4778Y-3.3296
X7.4778Y-3.4296
X7.4778Y-3.5296
X7.4778Y-3.6296
X7.4778Y-3.7296
X7.4778Y-3.8296
X7.4778Y-3.9296
X7.4778Y-4.0296
X7.4778Y-4.1296
X7.4778Y-4.2296
X7.4778Y-4.3296
X7.4778Y-4.4296
X7.4778Y-4.5296
X7.4778Y-4.6296
X7.4778Y-4.7296
X3.9278Y-5.0454
X3.9278Y-5.1454
X3.9278Y-5.2454
X3.9278Y-5.3454
X3.9278Y-5.4454
X3.9278Y-5.5454
X3.9278Y-5.6454
X3.9278Y-5.7454
X4.0278Y-5.0454
X4.0278Y-5.1454
X4.0278Y-5.2454
X4.0278Y-5.3454
X4.0278Y-5.4454
X4.0278Y-5.5454
X4.0278Y-5.6454
X4.0278Y-5.7454
X5.0778Y-5.0454
X5.0778Y-5.1454
X5.0778Y-5.2454
X5.0778Y-5.3454
X5.0778Y-5.4454
X5.0778Y-5.5454
X5.0778Y-5.6454
X5.0778Y-5.7454
X5.1778Y-5.0454
X5.1778Y-5.1454
X5.1778Y-5.2454
X5.1778Y-5.3454
X5.1778Y-5.4454
X5.1778Y-5.5454
X5.1778Y-5.6454
X5.1778Y-5.7454
X3.9278Y-1.6296
X3.9278Y-1.7296
X3.9278Y-1.8296
X3.9278Y-1.9296
X3.9278Y-2.0296
X3.9278Y-2.1296
X3.9278Y-2.2296
X3.9278Y-2.3296
X3.9278Y-2.4296
X3.9278Y-2.5296
X3.9278Y-2.6296
X3.9278Y-2.7296
X3.9278Y-2.8296
X3.9278Y-2.9296
X3.9278Y-3.0296
X3.9278Y-3.1296
X3.9278Y-3.2296
X3.9278Y-3.3296
X3.9278Y-3.4296
X3.9278Y-3.5296
X3.9278Y-3.6296
X3.9278Y-3.7296
X3.9278Y-3.8296
X3.9278Y-3.9296
X3.9278Y-4.0296
X3.9278Y-4.1296
X3.9278Y-4.2296
X3.9278Y-4.3296
X3.9278Y-4.4296
X3.9278Y-4.5296
X3.9278Y-4.6296
X3.9278Y-4.7296
X4.0278Y-1.6296
X4.0278Y-1.7296
X4.0278Y-1.8296
X4.0278Y-1.9296
X4.0278Y-2.0296
X4.0278Y-2.1296
X4.0278Y-2.2296
X4.0278Y-2.3296
X4.0278Y-2.4296
X4.0278Y-2.5296
X4.0278Y-2.6296
X4.0278Y-2.7296
X4.0278Y-2.8296
X4.0278Y-2.9296
X4.0278Y-3.0296
X4.0278Y-3.1296
X4.0278Y-3.2296
X4.0278Y-3.3296
X4.0278Y-3.4296
X4.0278Y-3.5296
X4.0278Y-3.6296
X4.0278Y-3.7296
X4.0278Y-3.8296
X4.0278Y-3.9296
X4.0278Y-4.0296
X4.0278Y-4.1296
X4.0278Y-4.2296
X4.0278Y-4.3296
X4.0278Y-4.4296
X4.0278Y-4.5296
X4.0278Y-4.6296
X4.0278Y-4.7296
T9
X2.9443Y-2.376
X2.9443Y-2.476
T10
X3.2331Y-3.1575
X3.3331Y-3.1575
X3.4331Y-3.1575
T1
G00X2.8596Y-2.6659
M15
G01X2.899Y-2.6659
M16
G05
G00X2.8596Y-2.9474
M15
G01X2.899Y-2.9474
M16
G05
T4
G00X3.1293Y-1.9559
M15
G01X3.1293Y-2.0425
M16
G05
G00X3.1963Y-2.1882
M15
G01X3.2829Y-2.1882
M16
G05
G00X3.3577Y-1.948
M15
G01X3.3577Y-2.0504
M16
G05
T6
G00X3.3817Y-5.5051
M15
G01X3.3344Y-5.5051
M16
G05
G00X3.3817Y-5.6913
M15
G01X3.3344Y-5.6913
M16
G05
G00X3.5707Y-5.5051
M15
G01X3.5234Y-5.5051
M16
G05
G00X3.5707Y-5.6913
M15
G01X3.5234Y-5.6913
M16
G05
T0
M30
