M48
; DRILL file {KiCad 7.0.9} date Thursday, December 21, 2023 at 11:34:42 AM
; FORMAT={-:-/ absolute / inch / decimal}
; #@! TF.CreationDate,2023-12-21T11:34:42+00:00
; #@! TF.GenerationSoftware,Kicad,Pcbnew,7.0.9
; #@! TF.FileFunction,Plated,1,2,PTH
FMAT,2
INCH
; #@! TA.AperFunction,Plated,PTH,ViaDrill
T1C0.0157
; #@! TA.AperFunction,Plated,PTH,ComponentDrill
T2C0.0315
; #@! TA.AperFunction,Plated,PTH,ComponentDrill
T3C0.0394
%
G90
G05
T1
X5.6871Y-3.6083
X5.6903Y-3.475
X5.8625Y-3.4495
X6.0071Y-3.5083
X6.0071Y-3.6083
T2
X5.4771Y-3.2483
X5.4771Y-3.3483
X5.4771Y-3.4483
X5.4771Y-3.5483
X5.4771Y-3.6483
X5.4771Y-3.7483
X5.4771Y-3.8483
X5.4771Y-3.9483
X5.4771Y-4.0483
X5.4771Y-4.1483
X5.4771Y-4.2483
X5.4771Y-4.3483
X5.4771Y-4.4483
X5.4771Y-4.5483
X5.4771Y-4.6483
X5.4771Y-4.7483
X6.0771Y-3.2483
X6.0771Y-3.3483
X6.0771Y-3.4483
X6.0771Y-3.5483
X6.0771Y-3.6483
X6.0771Y-3.7483
X6.0771Y-3.8483
X6.0771Y-3.9483
X6.0771Y-4.0483
X6.0771Y-4.1483
X6.0771Y-4.2483
X6.0771Y-4.3483
X6.0771Y-4.4483
X6.0771Y-4.5483
X6.0771Y-4.6483
X6.0771Y-4.7483
T3
X5.6171Y-3.4491
X5.6171Y-3.5491
X5.6171Y-3.6491
X5.6171Y-3.7491
X5.6171Y-3.8491
X5.6171Y-3.9491
X5.6171Y-4.0491
X5.6171Y-4.1491
X5.6171Y-4.2491
X5.6171Y-4.3491
X5.6171Y-4.4491
X5.6171Y-4.5491
X5.6171Y-4.6491
X5.6171Y-4.7491
X6.2171Y-3.4491
X6.2171Y-3.5491
X6.2171Y-3.6491
X6.2171Y-3.7491
X6.2171Y-3.8491
X6.2171Y-3.9491
X6.2171Y-4.0491
X6.2171Y-4.1491
X6.2171Y-4.2491
X6.2171Y-4.3491
X6.2171Y-4.4491
X6.2171Y-4.5491
X6.2171Y-4.6491
X6.2171Y-4.7491
T0
M30
