%TF.GenerationSoftware,KiCad,Pcbnew,7.0.9*%
%TF.CreationDate,2023-12-21T11:34:42+00:00*%
%TF.ProjectId,flash-rom-expansion,666c6173-682d-4726-9f6d-2d657870616e,0*%
%TF.SameCoordinates,Original*%
%TF.FileFunction,Legend,Bot*%
%TF.FilePolarity,Positive*%
%FSLAX46Y46*%
G04 Gerber Fmt 4.6, Leading zero omitted, Abs format (unit mm)*
G04 Created by KiCad (PCBNEW 7.0.9) date 2023-12-21 11:34:42*
%MOMM*%
%LPD*%
G01*
G04 APERTURE LIST*
G04 Aperture macros list*
%AMRoundRect*
0 Rectangle with rounded corners*
0 $1 Rounding radius*
0 $2 $3 $4 $5 $6 $7 $8 $9 X,Y pos of 4 corners*
0 Add a 4 corners polygon primitive as box body*
4,1,4,$2,$3,$4,$5,$6,$7,$8,$9,$2,$3,0*
0 Add four circle primitives for the rounded corners*
1,1,$1+$1,$2,$3*
1,1,$1+$1,$4,$5*
1,1,$1+$1,$6,$7*
1,1,$1+$1,$8,$9*
0 Add four rect primitives between the rounded corners*
20,1,$1+$1,$2,$3,$4,$5,0*
20,1,$1+$1,$4,$5,$6,$7,0*
20,1,$1+$1,$6,$7,$8,$9,0*
20,1,$1+$1,$8,$9,$2,$3,0*%
%AMFreePoly0*
4,1,35,0.536062,0.786062,0.551000,0.750000,0.551000,-0.750000,0.536062,-0.786062,0.500000,-0.801000,0.000000,-0.801000,-0.012285,-0.795911,-0.071157,-0.795911,-0.085525,-0.793845,-0.222076,-0.753750,-0.235281,-0.747720,-0.355003,-0.670779,-0.365973,-0.661273,-0.459170,-0.553718,-0.467018,-0.541506,-0.526137,-0.412052,-0.530227,-0.398124,-0.550481,-0.257258,-0.551000,-0.250000,-0.551000,0.250000,
-0.550481,0.257258,-0.530227,0.398124,-0.526137,0.412052,-0.467018,0.541506,-0.459170,0.553718,-0.365973,0.661273,-0.355003,0.670779,-0.235281,0.747720,-0.222076,0.753750,-0.085525,0.793845,-0.071157,0.795911,-0.012285,0.795911,0.000000,0.801000,0.500000,0.801000,0.536062,0.786062,0.536062,0.786062,$1*%
%AMFreePoly1*
4,1,35,0.012285,0.795911,0.071157,0.795911,0.085525,0.793845,0.222076,0.753750,0.235281,0.747720,0.355003,0.670779,0.365973,0.661273,0.459170,0.553718,0.467018,0.541506,0.526137,0.412052,0.530227,0.398124,0.550481,0.257258,0.551000,0.250000,0.551000,-0.250000,0.550481,-0.257258,0.530227,-0.398124,0.526137,-0.412052,0.467018,-0.541506,0.459170,-0.553718,0.365973,-0.661273,
0.355003,-0.670779,0.235281,-0.747720,0.222076,-0.753750,0.085525,-0.793845,0.071157,-0.795911,0.012285,-0.795911,0.000000,-0.801000,-0.500000,-0.801000,-0.536062,-0.786062,-0.551000,-0.750000,-0.551000,0.750000,-0.536062,0.786062,-0.500000,0.801000,0.000000,0.801000,0.012285,0.795911,0.012285,0.795911,$1*%
G04 Aperture macros list end*
%ADD10C,0.150000*%
%ADD11C,0.120000*%
%ADD12RoundRect,0.051000X-1.200000X-0.800000X1.200000X-0.800000X1.200000X0.800000X-1.200000X0.800000X0*%
%ADD13O,2.502000X1.702000*%
%ADD14RoundRect,0.051000X0.850000X0.850000X-0.850000X0.850000X-0.850000X-0.850000X0.850000X-0.850000X0*%
%ADD15O,1.802000X1.802000*%
%ADD16FreePoly0,180.000000*%
%ADD17FreePoly1,180.000000*%
%ADD18RoundRect,0.301000X0.262500X0.450000X-0.262500X0.450000X-0.262500X-0.450000X0.262500X-0.450000X0*%
G04 APERTURE END LIST*
D10*
X151239333Y-81452819D02*
X151239333Y-82167104D01*
X151239333Y-82167104D02*
X151286952Y-82309961D01*
X151286952Y-82309961D02*
X151382190Y-82405200D01*
X151382190Y-82405200D02*
X151525047Y-82452819D01*
X151525047Y-82452819D02*
X151620285Y-82452819D01*
X150763142Y-82452819D02*
X150763142Y-81452819D01*
X150763142Y-81452819D02*
X150382190Y-81452819D01*
X150382190Y-81452819D02*
X150286952Y-81500438D01*
X150286952Y-81500438D02*
X150239333Y-81548057D01*
X150239333Y-81548057D02*
X150191714Y-81643295D01*
X150191714Y-81643295D02*
X150191714Y-81786152D01*
X150191714Y-81786152D02*
X150239333Y-81881390D01*
X150239333Y-81881390D02*
X150286952Y-81929009D01*
X150286952Y-81929009D02*
X150382190Y-81976628D01*
X150382190Y-81976628D02*
X150763142Y-81976628D01*
X149334571Y-81786152D02*
X149334571Y-82452819D01*
X149572666Y-81405200D02*
X149810761Y-82119485D01*
X149810761Y-82119485D02*
X149191714Y-82119485D01*
X151127333Y-93136819D02*
X151127333Y-93851104D01*
X151127333Y-93851104D02*
X151174952Y-93993961D01*
X151174952Y-93993961D02*
X151270190Y-94089200D01*
X151270190Y-94089200D02*
X151413047Y-94136819D01*
X151413047Y-94136819D02*
X151508285Y-94136819D01*
X150651142Y-94136819D02*
X150651142Y-93136819D01*
X150651142Y-93136819D02*
X150270190Y-93136819D01*
X150270190Y-93136819D02*
X150174952Y-93184438D01*
X150174952Y-93184438D02*
X150127333Y-93232057D01*
X150127333Y-93232057D02*
X150079714Y-93327295D01*
X150079714Y-93327295D02*
X150079714Y-93470152D01*
X150079714Y-93470152D02*
X150127333Y-93565390D01*
X150127333Y-93565390D02*
X150174952Y-93613009D01*
X150174952Y-93613009D02*
X150270190Y-93660628D01*
X150270190Y-93660628D02*
X150651142Y-93660628D01*
X149127333Y-94136819D02*
X149698761Y-94136819D01*
X149413047Y-94136819D02*
X149413047Y-93136819D01*
X149413047Y-93136819D02*
X149508285Y-93279676D01*
X149508285Y-93279676D02*
X149603523Y-93374914D01*
X149603523Y-93374914D02*
X149698761Y-93422533D01*
X146904666Y-82452819D02*
X147237999Y-81976628D01*
X147476094Y-82452819D02*
X147476094Y-81452819D01*
X147476094Y-81452819D02*
X147095142Y-81452819D01*
X147095142Y-81452819D02*
X146999904Y-81500438D01*
X146999904Y-81500438D02*
X146952285Y-81548057D01*
X146952285Y-81548057D02*
X146904666Y-81643295D01*
X146904666Y-81643295D02*
X146904666Y-81786152D01*
X146904666Y-81786152D02*
X146952285Y-81881390D01*
X146952285Y-81881390D02*
X146999904Y-81929009D01*
X146999904Y-81929009D02*
X147095142Y-81976628D01*
X147095142Y-81976628D02*
X147476094Y-81976628D01*
X146047523Y-81786152D02*
X146047523Y-82452819D01*
X146285618Y-81405200D02*
X146523713Y-82119485D01*
X146523713Y-82119485D02*
X145904666Y-82119485D01*
X146904666Y-94136819D02*
X147237999Y-93660628D01*
X147476094Y-94136819D02*
X147476094Y-93136819D01*
X147476094Y-93136819D02*
X147095142Y-93136819D01*
X147095142Y-93136819D02*
X146999904Y-93184438D01*
X146999904Y-93184438D02*
X146952285Y-93232057D01*
X146952285Y-93232057D02*
X146904666Y-93327295D01*
X146904666Y-93327295D02*
X146904666Y-93470152D01*
X146904666Y-93470152D02*
X146952285Y-93565390D01*
X146952285Y-93565390D02*
X146999904Y-93613009D01*
X146999904Y-93613009D02*
X147095142Y-93660628D01*
X147095142Y-93660628D02*
X147476094Y-93660628D01*
X145952285Y-94136819D02*
X146523713Y-94136819D01*
X146237999Y-94136819D02*
X146237999Y-93136819D01*
X146237999Y-93136819D02*
X146333237Y-93279676D01*
X146333237Y-93279676D02*
X146428475Y-93374914D01*
X146428475Y-93374914D02*
X146523713Y-93422533D01*
D11*
%TO.C,J3*%
X159244000Y-121956000D02*
X156584000Y-121956000D01*
X159244000Y-88876000D02*
X159244000Y-121956000D01*
X159244000Y-88876000D02*
X156584000Y-88876000D01*
X159244000Y-87606000D02*
X159244000Y-86276000D01*
X159244000Y-86276000D02*
X157914000Y-86276000D01*
X156584000Y-88876000D02*
X156584000Y-121956000D01*
%TO.C,J2*%
X144004000Y-121956000D02*
X141344000Y-121956000D01*
X144004000Y-88876000D02*
X144004000Y-121956000D01*
X144004000Y-88876000D02*
X141344000Y-88876000D01*
X144004000Y-87606000D02*
X144004000Y-86276000D01*
X144004000Y-86276000D02*
X142674000Y-86276000D01*
X141344000Y-88876000D02*
X141344000Y-121956000D01*
%TO.C,JP2*%
X151806000Y-89410000D02*
X151806000Y-88810000D01*
X151106000Y-88110000D02*
X149706000Y-88110000D01*
X149706000Y-90110000D02*
X151106000Y-90110000D01*
X149006000Y-88810000D02*
X149006000Y-89410000D01*
X151106000Y-90110000D02*
G75*
G03*
X151806000Y-89410000I1J699999D01*
G01*
X151806000Y-88810000D02*
G75*
G03*
X151106000Y-88110000I-699999J1D01*
G01*
X149006000Y-89410000D02*
G75*
G03*
X149706000Y-90110000I700000J0D01*
G01*
X149706000Y-88110000D02*
G75*
G03*
X149006000Y-88810000I0J-700000D01*
G01*
%TO.C,JP4*%
X151806000Y-84330000D02*
X151806000Y-83730000D01*
X151106000Y-83030000D02*
X149706000Y-83030000D01*
X149706000Y-85030000D02*
X151106000Y-85030000D01*
X149006000Y-83730000D02*
X149006000Y-84330000D01*
X151106000Y-85030000D02*
G75*
G03*
X151806000Y-84330000I1J699999D01*
G01*
X151806000Y-83730000D02*
G75*
G03*
X151106000Y-83030000I-699999J1D01*
G01*
X149006000Y-84330000D02*
G75*
G03*
X149706000Y-85030000I700000J0D01*
G01*
X149706000Y-83030000D02*
G75*
G03*
X149006000Y-83730000I0J-700000D01*
G01*
%TO.C,R3*%
X146965064Y-87305000D02*
X146510936Y-87305000D01*
X146965064Y-85835000D02*
X146510936Y-85835000D01*
%TO.C,JP1*%
X151806000Y-91950000D02*
X151806000Y-91350000D01*
X151106000Y-90650000D02*
X149706000Y-90650000D01*
X149706000Y-92650000D02*
X151106000Y-92650000D01*
X149006000Y-91350000D02*
X149006000Y-91950000D01*
X151106000Y-92650000D02*
G75*
G03*
X151806000Y-91950000I1J699999D01*
G01*
X151806000Y-91350000D02*
G75*
G03*
X151106000Y-90650000I-699999J1D01*
G01*
X149006000Y-91950000D02*
G75*
G03*
X149706000Y-92650000I700000J0D01*
G01*
X149706000Y-90650000D02*
G75*
G03*
X149006000Y-91350000I0J-700000D01*
G01*
%TO.C,R4*%
X146965064Y-84765000D02*
X146510936Y-84765000D01*
X146965064Y-83295000D02*
X146510936Y-83295000D01*
%TO.C,JP3*%
X151806000Y-86870000D02*
X151806000Y-86270000D01*
X151106000Y-85570000D02*
X149706000Y-85570000D01*
X149706000Y-87570000D02*
X151106000Y-87570000D01*
X149006000Y-86270000D02*
X149006000Y-86870000D01*
X151106000Y-87570000D02*
G75*
G03*
X151806000Y-86870000I1J699999D01*
G01*
X151806000Y-86270000D02*
G75*
G03*
X151106000Y-85570000I-699999J1D01*
G01*
X149006000Y-86870000D02*
G75*
G03*
X149706000Y-87570000I700000J0D01*
G01*
X149706000Y-85570000D02*
G75*
G03*
X149006000Y-86270000I0J-700000D01*
G01*
%TO.C,R2*%
X146965064Y-89845000D02*
X146510936Y-89845000D01*
X146965064Y-88375000D02*
X146510936Y-88375000D01*
%TO.C,R1*%
X146965064Y-92385000D02*
X146510936Y-92385000D01*
X146965064Y-90915000D02*
X146510936Y-90915000D01*
%TD*%
%LPC*%
D12*
%TO.C,U2*%
X139118000Y-82506000D03*
D13*
X139118000Y-85046000D03*
X139118000Y-87586000D03*
X139118000Y-90126000D03*
X139118000Y-92666000D03*
X139118000Y-95206000D03*
X139118000Y-97746000D03*
X139118000Y-100286000D03*
X139118000Y-102826000D03*
X139118000Y-105366000D03*
X139118000Y-107906000D03*
X139118000Y-110446000D03*
X139118000Y-112986000D03*
X139118000Y-115526000D03*
X139118000Y-118066000D03*
X139118000Y-120606000D03*
X154358000Y-120606000D03*
X154358000Y-118066000D03*
X154358000Y-115526000D03*
X154358000Y-112986000D03*
X154358000Y-110446000D03*
X154358000Y-107906000D03*
X154358000Y-105366000D03*
X154358000Y-102826000D03*
X154358000Y-100286000D03*
X154358000Y-97746000D03*
X154358000Y-95206000D03*
X154358000Y-92666000D03*
X154358000Y-90126000D03*
X154358000Y-87586000D03*
X154358000Y-85046000D03*
X154358000Y-82506000D03*
%TD*%
D14*
%TO.C,J3*%
X157914000Y-87606000D03*
D15*
X157914000Y-90146000D03*
X157914000Y-92686000D03*
X157914000Y-95226000D03*
X157914000Y-97766000D03*
X157914000Y-100306000D03*
X157914000Y-102846000D03*
X157914000Y-105386000D03*
X157914000Y-107926000D03*
X157914000Y-110466000D03*
X157914000Y-113006000D03*
X157914000Y-115546000D03*
X157914000Y-118086000D03*
X157914000Y-120626000D03*
%TD*%
D14*
%TO.C,J2*%
X142674000Y-87606000D03*
D15*
X142674000Y-90146000D03*
X142674000Y-92686000D03*
X142674000Y-95226000D03*
X142674000Y-97766000D03*
X142674000Y-100306000D03*
X142674000Y-102846000D03*
X142674000Y-105386000D03*
X142674000Y-107926000D03*
X142674000Y-110466000D03*
X142674000Y-113006000D03*
X142674000Y-115546000D03*
X142674000Y-118086000D03*
X142674000Y-120626000D03*
%TD*%
D16*
%TO.C,JP2*%
X151056000Y-89110000D03*
D17*
X149756000Y-89110000D03*
%TD*%
D16*
%TO.C,JP4*%
X151056000Y-84030000D03*
D17*
X149756000Y-84030000D03*
%TD*%
D18*
%TO.C,R3*%
X147650500Y-86570000D03*
X145825500Y-86570000D03*
%TD*%
D16*
%TO.C,JP1*%
X151056000Y-91650000D03*
D17*
X149756000Y-91650000D03*
%TD*%
D18*
%TO.C,R4*%
X147650500Y-84030000D03*
X145825500Y-84030000D03*
%TD*%
D16*
%TO.C,JP3*%
X151056000Y-86570000D03*
D17*
X149756000Y-86570000D03*
%TD*%
D18*
%TO.C,R2*%
X147650500Y-89110000D03*
X145825500Y-89110000D03*
%TD*%
%TO.C,R1*%
X147650500Y-91650000D03*
X145825500Y-91650000D03*
%TD*%
%LPD*%
M02*
