%TF.GenerationSoftware,KiCad,Pcbnew,7.0.9*%
%TF.CreationDate,2023-12-21T11:34:42+00:00*%
%TF.ProjectId,flash-rom-expansion,666c6173-682d-4726-9f6d-2d657870616e,0*%
%TF.SameCoordinates,Original*%
%TF.FileFunction,Copper,L1,Top*%
%TF.FilePolarity,Positive*%
%FSLAX46Y46*%
G04 Gerber Fmt 4.6, Leading zero omitted, Abs format (unit mm)*
G04 Created by KiCad (PCBNEW 7.0.9) date 2023-12-21 11:34:42*
%MOMM*%
%LPD*%
G01*
G04 APERTURE LIST*
%ADD10C,0.200000*%
%TA.AperFunction,NonConductor*%
%ADD11C,0.200000*%
%TD*%
%TA.AperFunction,ComponentPad*%
%ADD12R,2.400000X1.600000*%
%TD*%
%TA.AperFunction,ComponentPad*%
%ADD13O,2.400000X1.600000*%
%TD*%
%TA.AperFunction,ComponentPad*%
%ADD14R,1.700000X1.700000*%
%TD*%
%TA.AperFunction,ComponentPad*%
%ADD15O,1.700000X1.700000*%
%TD*%
%TA.AperFunction,ViaPad*%
%ADD16C,0.800000*%
%TD*%
%TA.AperFunction,Conductor*%
%ADD17C,0.500000*%
%TD*%
%TA.AperFunction,Conductor*%
%ADD18C,0.750000*%
%TD*%
G04 APERTURE END LIST*
D10*
D11*
G36*
X147896780Y-120810949D02*
G01*
X148146884Y-120810949D01*
X148146884Y-120927941D01*
X148154741Y-120915847D01*
X148162924Y-120904293D01*
X148171434Y-120893281D01*
X148180269Y-120882809D01*
X148189431Y-120872879D01*
X148198920Y-120863489D01*
X148208734Y-120854641D01*
X148218875Y-120846333D01*
X148229342Y-120838567D01*
X148240136Y-120831341D01*
X148247512Y-120826824D01*
X148258860Y-120820495D01*
X148270556Y-120814789D01*
X148282600Y-120809705D01*
X148294991Y-120805243D01*
X148307730Y-120801404D01*
X148320817Y-120798188D01*
X148334251Y-120795594D01*
X148348034Y-120793623D01*
X148362164Y-120792274D01*
X148376642Y-120791547D01*
X148386487Y-120791409D01*
X148396304Y-120791409D01*
X148406242Y-120791409D01*
X148408469Y-120791409D01*
X148418797Y-120792014D01*
X148428481Y-120793470D01*
X148436068Y-120795073D01*
X148436068Y-121039560D01*
X148426422Y-121035020D01*
X148416625Y-121030927D01*
X148406678Y-121027281D01*
X148396581Y-121024081D01*
X148386333Y-121021328D01*
X148375936Y-121019021D01*
X148365388Y-121017160D01*
X148354689Y-121015746D01*
X148343841Y-121014779D01*
X148332842Y-121014258D01*
X148325426Y-121014159D01*
X148314456Y-121014365D01*
X148303833Y-121014983D01*
X148293558Y-121016013D01*
X148283630Y-121017456D01*
X148269389Y-121020393D01*
X148255929Y-121024257D01*
X148243251Y-121029048D01*
X148231354Y-121034767D01*
X148220239Y-121041413D01*
X148209905Y-121048986D01*
X148200352Y-121057487D01*
X148191581Y-121066915D01*
X148183593Y-121077232D01*
X148176391Y-121088399D01*
X148169975Y-121100416D01*
X148164344Y-121113283D01*
X148159499Y-121127000D01*
X148156705Y-121136617D01*
X148154261Y-121146612D01*
X148152166Y-121156985D01*
X148150420Y-121167735D01*
X148149023Y-121178864D01*
X148147976Y-121190370D01*
X148147277Y-121202254D01*
X148146928Y-121214515D01*
X148146884Y-121220788D01*
X148146884Y-121530000D01*
X147896780Y-121530000D01*
X147896780Y-120810949D01*
G37*
G36*
X148944277Y-120435949D02*
G01*
X148956309Y-120436421D01*
X148968221Y-120437208D01*
X148980012Y-120438310D01*
X148991683Y-120439727D01*
X149003234Y-120441459D01*
X149014665Y-120443505D01*
X149025975Y-120445867D01*
X149037166Y-120448543D01*
X149048236Y-120451534D01*
X149059186Y-120454840D01*
X149070016Y-120458460D01*
X149080725Y-120462396D01*
X149091314Y-120466646D01*
X149101783Y-120471212D01*
X149112132Y-120476092D01*
X149122329Y-120481259D01*
X149132343Y-120486686D01*
X149142174Y-120492372D01*
X149151822Y-120498318D01*
X149161286Y-120504523D01*
X149170567Y-120510988D01*
X149179665Y-120517712D01*
X149188580Y-120524696D01*
X149197312Y-120531939D01*
X149205860Y-120539442D01*
X149214226Y-120547204D01*
X149222408Y-120555226D01*
X149230407Y-120563508D01*
X149238223Y-120572049D01*
X149245855Y-120580849D01*
X149253305Y-120589909D01*
X149260560Y-120599187D01*
X149267612Y-120608704D01*
X149274459Y-120618459D01*
X149281102Y-120628453D01*
X149287541Y-120638686D01*
X149293776Y-120649157D01*
X149299807Y-120659866D01*
X149305634Y-120670814D01*
X149311256Y-120682001D01*
X149316674Y-120693426D01*
X149321888Y-120705089D01*
X149326898Y-120716991D01*
X149331704Y-120729132D01*
X149336305Y-120741511D01*
X149340702Y-120754129D01*
X149344896Y-120766985D01*
X149348859Y-120780052D01*
X149352566Y-120793302D01*
X149356018Y-120806735D01*
X149359214Y-120820352D01*
X149362155Y-120834152D01*
X149364840Y-120848135D01*
X149367269Y-120862301D01*
X149369442Y-120876650D01*
X149371360Y-120891182D01*
X149373022Y-120905898D01*
X149374428Y-120920797D01*
X149375579Y-120935879D01*
X149376474Y-120951144D01*
X149377113Y-120966592D01*
X149377496Y-120982224D01*
X149377624Y-120998039D01*
X149377496Y-121013824D01*
X149377113Y-121029428D01*
X149376474Y-121044850D01*
X149375579Y-121060092D01*
X149374428Y-121075152D01*
X149373022Y-121090030D01*
X149371360Y-121104728D01*
X149369442Y-121119244D01*
X149367269Y-121133579D01*
X149364840Y-121147733D01*
X149362155Y-121161705D01*
X149359214Y-121175496D01*
X149356018Y-121189106D01*
X149352566Y-121202535D01*
X149348859Y-121215782D01*
X149344896Y-121228848D01*
X149340702Y-121241708D01*
X149336305Y-121254337D01*
X149331704Y-121266735D01*
X149326898Y-121278903D01*
X149321888Y-121290839D01*
X149316674Y-121302545D01*
X149311256Y-121314019D01*
X149305634Y-121325263D01*
X149299807Y-121336276D01*
X149293776Y-121347058D01*
X149287541Y-121357609D01*
X149281102Y-121367929D01*
X149274459Y-121378018D01*
X149267612Y-121387877D01*
X149260560Y-121397504D01*
X149253305Y-121406901D01*
X149245855Y-121416020D01*
X149238223Y-121424876D01*
X149230407Y-121433468D01*
X149222408Y-121441797D01*
X149214226Y-121449863D01*
X149205860Y-121457665D01*
X149197312Y-121465205D01*
X149188580Y-121472480D01*
X149179665Y-121479493D01*
X149170567Y-121486242D01*
X149161286Y-121492728D01*
X149151822Y-121498950D01*
X149142174Y-121504909D01*
X149132343Y-121510605D01*
X149122329Y-121516038D01*
X149112132Y-121521207D01*
X149101783Y-121526057D01*
X149091314Y-121530595D01*
X149080725Y-121534819D01*
X149070016Y-121538731D01*
X149059186Y-121542330D01*
X149048236Y-121545616D01*
X149037166Y-121548589D01*
X149025975Y-121551249D01*
X149014665Y-121553596D01*
X149003234Y-121555630D01*
X148991683Y-121557351D01*
X148980012Y-121558759D01*
X148968221Y-121559854D01*
X148956309Y-121560637D01*
X148944277Y-121561106D01*
X148932125Y-121561263D01*
X148919768Y-121561106D01*
X148907548Y-121560637D01*
X148895466Y-121559854D01*
X148883521Y-121558759D01*
X148871713Y-121557351D01*
X148860043Y-121555630D01*
X148848510Y-121553596D01*
X148837115Y-121551249D01*
X148825857Y-121548589D01*
X148814736Y-121545616D01*
X148803753Y-121542330D01*
X148792907Y-121538731D01*
X148782198Y-121534819D01*
X148771627Y-121530595D01*
X148761193Y-121526057D01*
X148750897Y-121521207D01*
X148740786Y-121516038D01*
X148730846Y-121510605D01*
X148721078Y-121504909D01*
X148711482Y-121498950D01*
X148702058Y-121492728D01*
X148692805Y-121486242D01*
X148683724Y-121479493D01*
X148674815Y-121472480D01*
X148666078Y-121465205D01*
X148657512Y-121457665D01*
X148649118Y-121449863D01*
X148640896Y-121441797D01*
X148632846Y-121433468D01*
X148624967Y-121424876D01*
X148617260Y-121416020D01*
X148609725Y-121406901D01*
X148602410Y-121397504D01*
X148595303Y-121387877D01*
X148588404Y-121378018D01*
X148581713Y-121367929D01*
X148575230Y-121357609D01*
X148568955Y-121347058D01*
X148562888Y-121336276D01*
X148557029Y-121325263D01*
X148551378Y-121314019D01*
X148545935Y-121302545D01*
X148540700Y-121290839D01*
X148535673Y-121278903D01*
X148530854Y-121266735D01*
X148526243Y-121254337D01*
X148521840Y-121241708D01*
X148517645Y-121228848D01*
X148513682Y-121215782D01*
X148509974Y-121202535D01*
X148506522Y-121189106D01*
X148503326Y-121175496D01*
X148500386Y-121161705D01*
X148497701Y-121147733D01*
X148495272Y-121133579D01*
X148493099Y-121119244D01*
X148491181Y-121104728D01*
X148489519Y-121090030D01*
X148488113Y-121075152D01*
X148486962Y-121060092D01*
X148486067Y-121044850D01*
X148485428Y-121029428D01*
X148485044Y-121013824D01*
X148484917Y-120998039D01*
X148752362Y-120998039D01*
X148752474Y-121010981D01*
X148752809Y-121023704D01*
X148753367Y-121036208D01*
X148754148Y-121048494D01*
X148755153Y-121060560D01*
X148756381Y-121072408D01*
X148757832Y-121084036D01*
X148759507Y-121095446D01*
X148761404Y-121106636D01*
X148763525Y-121117608D01*
X148765063Y-121124801D01*
X148767583Y-121135338D01*
X148770287Y-121145609D01*
X148773175Y-121155614D01*
X148776249Y-121165353D01*
X148779507Y-121174825D01*
X148782949Y-121184031D01*
X148787826Y-121195892D01*
X148793032Y-121207280D01*
X148798565Y-121218195D01*
X148801455Y-121223475D01*
X148807462Y-121233622D01*
X148813759Y-121243182D01*
X148820346Y-121252154D01*
X148827223Y-121260539D01*
X148834390Y-121268335D01*
X148841847Y-121275544D01*
X148849594Y-121282166D01*
X148857631Y-121288199D01*
X148866008Y-121293580D01*
X148874652Y-121298244D01*
X148885832Y-121303064D01*
X148897430Y-121306763D01*
X148907009Y-121308916D01*
X148916855Y-121310351D01*
X148926968Y-121311068D01*
X148932125Y-121311158D01*
X148941979Y-121310799D01*
X148954017Y-121309342D01*
X148965745Y-121306763D01*
X148977163Y-121303064D01*
X148988271Y-121298244D01*
X148996933Y-121293580D01*
X149005398Y-121288199D01*
X149013653Y-121282166D01*
X149021564Y-121275544D01*
X149029132Y-121268335D01*
X149036356Y-121260539D01*
X149043237Y-121252154D01*
X149049774Y-121243182D01*
X149055968Y-121233622D01*
X149061818Y-121223475D01*
X149067340Y-121212797D01*
X149072550Y-121201646D01*
X149077446Y-121190021D01*
X149082029Y-121177923D01*
X149085261Y-121168540D01*
X149088318Y-121158890D01*
X149091198Y-121148974D01*
X149093902Y-121138791D01*
X149096430Y-121128343D01*
X149097233Y-121124801D01*
X149099547Y-121113975D01*
X149101633Y-121102930D01*
X149103491Y-121091667D01*
X149105122Y-121080184D01*
X149106525Y-121068483D01*
X149107700Y-121056562D01*
X149108649Y-121044423D01*
X149109369Y-121032065D01*
X149109862Y-121019487D01*
X149110128Y-121006691D01*
X149110178Y-120998039D01*
X149110064Y-120985310D01*
X149109723Y-120972771D01*
X149109154Y-120960420D01*
X149108358Y-120948259D01*
X149107334Y-120936286D01*
X149106082Y-120924502D01*
X149104603Y-120912908D01*
X149102897Y-120901502D01*
X149100963Y-120890285D01*
X149098801Y-120879256D01*
X149097233Y-120872009D01*
X149094764Y-120861304D01*
X149092119Y-120850895D01*
X149089297Y-120840782D01*
X149086300Y-120830965D01*
X149083126Y-120821445D01*
X149079777Y-120812220D01*
X149075037Y-120800382D01*
X149069984Y-120789071D01*
X149064618Y-120778286D01*
X149061818Y-120773091D01*
X149055968Y-120763115D01*
X149049774Y-120753704D01*
X149043237Y-120744858D01*
X149036356Y-120736577D01*
X149029132Y-120728860D01*
X149021564Y-120721708D01*
X149013653Y-120715121D01*
X149005398Y-120709099D01*
X148996933Y-120703661D01*
X148988271Y-120698948D01*
X148977163Y-120694076D01*
X148965745Y-120690337D01*
X148954017Y-120687732D01*
X148941979Y-120686259D01*
X148932125Y-120685896D01*
X148921878Y-120686259D01*
X148911899Y-120687346D01*
X148902186Y-120689159D01*
X148892741Y-120691697D01*
X148881310Y-120695889D01*
X148872466Y-120700058D01*
X148863889Y-120704953D01*
X148857631Y-120709099D01*
X148849594Y-120715121D01*
X148841847Y-120721708D01*
X148834390Y-120728860D01*
X148827223Y-120736577D01*
X148820346Y-120744858D01*
X148813759Y-120753704D01*
X148807462Y-120763115D01*
X148801455Y-120773091D01*
X148795758Y-120783612D01*
X148790388Y-120794661D01*
X148785347Y-120806235D01*
X148780634Y-120818337D01*
X148777314Y-120827759D01*
X148774179Y-120837477D01*
X148771229Y-120847491D01*
X148768463Y-120857801D01*
X148765882Y-120868408D01*
X148765063Y-120872009D01*
X148762793Y-120882911D01*
X148760747Y-120894003D01*
X148758924Y-120905283D01*
X148757324Y-120916752D01*
X148755947Y-120928409D01*
X148754793Y-120940256D01*
X148753863Y-120952292D01*
X148753156Y-120964516D01*
X148752673Y-120976930D01*
X148752412Y-120989532D01*
X148752362Y-120998039D01*
X148484917Y-120998039D01*
X148485044Y-120982224D01*
X148485428Y-120966592D01*
X148486067Y-120951144D01*
X148486962Y-120935879D01*
X148488113Y-120920797D01*
X148489519Y-120905898D01*
X148491181Y-120891182D01*
X148493099Y-120876650D01*
X148495272Y-120862301D01*
X148497701Y-120848135D01*
X148500386Y-120834152D01*
X148503326Y-120820352D01*
X148506522Y-120806735D01*
X148509974Y-120793302D01*
X148513682Y-120780052D01*
X148517645Y-120766985D01*
X148521840Y-120754129D01*
X148526243Y-120741511D01*
X148530854Y-120729132D01*
X148535673Y-120716991D01*
X148540700Y-120705089D01*
X148545935Y-120693426D01*
X148551378Y-120682001D01*
X148557029Y-120670814D01*
X148562888Y-120659866D01*
X148568955Y-120649157D01*
X148575230Y-120638686D01*
X148581713Y-120628453D01*
X148588404Y-120618459D01*
X148595303Y-120608704D01*
X148602410Y-120599187D01*
X148609725Y-120589909D01*
X148617260Y-120580849D01*
X148624967Y-120572049D01*
X148632846Y-120563508D01*
X148640896Y-120555226D01*
X148649118Y-120547204D01*
X148657512Y-120539442D01*
X148666078Y-120531939D01*
X148674815Y-120524696D01*
X148683724Y-120517712D01*
X148692805Y-120510988D01*
X148702058Y-120504523D01*
X148711482Y-120498318D01*
X148721078Y-120492372D01*
X148730846Y-120486686D01*
X148740786Y-120481259D01*
X148750897Y-120476092D01*
X148761193Y-120471212D01*
X148771627Y-120466646D01*
X148782198Y-120462396D01*
X148792907Y-120458460D01*
X148803753Y-120454840D01*
X148814736Y-120451534D01*
X148825857Y-120448543D01*
X148837115Y-120445867D01*
X148848510Y-120443505D01*
X148860043Y-120441459D01*
X148871713Y-120439727D01*
X148883521Y-120438310D01*
X148895466Y-120437208D01*
X148907548Y-120436421D01*
X148919768Y-120435949D01*
X148932125Y-120435792D01*
X148944277Y-120435949D01*
G37*
D10*
D11*
G36*
X145615186Y-122251320D02*
G01*
X145626447Y-122251677D01*
X145637613Y-122252273D01*
X145648683Y-122253106D01*
X145659656Y-122254178D01*
X145670533Y-122255488D01*
X145681314Y-122257036D01*
X145691999Y-122258822D01*
X145702588Y-122260846D01*
X145713080Y-122263108D01*
X145723477Y-122265608D01*
X145733777Y-122268347D01*
X145743981Y-122271324D01*
X145754089Y-122274539D01*
X145764100Y-122277992D01*
X145774016Y-122281683D01*
X145783825Y-122285557D01*
X145793470Y-122289608D01*
X145802950Y-122293837D01*
X145812264Y-122298242D01*
X145821414Y-122302825D01*
X145830399Y-122307585D01*
X145839220Y-122312521D01*
X145847875Y-122317635D01*
X145856365Y-122322926D01*
X145864691Y-122328394D01*
X145872852Y-122334039D01*
X145880848Y-122339861D01*
X145888679Y-122345861D01*
X145896345Y-122352037D01*
X145903846Y-122358390D01*
X145911183Y-122364921D01*
X145918340Y-122371612D01*
X145925303Y-122378449D01*
X145932072Y-122385430D01*
X145938648Y-122392557D01*
X145945029Y-122399828D01*
X145951217Y-122407245D01*
X145957211Y-122414806D01*
X145963011Y-122422513D01*
X145968617Y-122430365D01*
X145974029Y-122438361D01*
X145979248Y-122446503D01*
X145984272Y-122454790D01*
X145989103Y-122463222D01*
X145993740Y-122471798D01*
X145998183Y-122480520D01*
X146002432Y-122489387D01*
X146006478Y-122498341D01*
X146010263Y-122507372D01*
X146013787Y-122516482D01*
X146017050Y-122525669D01*
X146020052Y-122534934D01*
X146022793Y-122544277D01*
X146025272Y-122553698D01*
X146027491Y-122563197D01*
X146029449Y-122572774D01*
X146031146Y-122582428D01*
X146032581Y-122592160D01*
X146033756Y-122601971D01*
X146034670Y-122611859D01*
X146035322Y-122621824D01*
X146035714Y-122631868D01*
X146035844Y-122641990D01*
X146035776Y-122650517D01*
X146035569Y-122658952D01*
X146035226Y-122667296D01*
X146034745Y-122675549D01*
X146034127Y-122683709D01*
X146033371Y-122691779D01*
X146032478Y-122699756D01*
X146031448Y-122707642D01*
X146030280Y-122715437D01*
X146028271Y-122726956D01*
X146025952Y-122738270D01*
X146023325Y-122749378D01*
X146020388Y-122760280D01*
X146018259Y-122767433D01*
X146014866Y-122777922D01*
X146011209Y-122788139D01*
X146007287Y-122798086D01*
X146003100Y-122807760D01*
X145998650Y-122817164D01*
X145993934Y-122826296D01*
X145988955Y-122835157D01*
X145983711Y-122843747D01*
X145978202Y-122852065D01*
X145972429Y-122860112D01*
X145968433Y-122865325D01*
X145962271Y-122872891D01*
X145955876Y-122880127D01*
X145949247Y-122887032D01*
X145942385Y-122893609D01*
X145935289Y-122899855D01*
X145927959Y-122905772D01*
X145920396Y-122911359D01*
X145912599Y-122916616D01*
X145904569Y-122921544D01*
X145896305Y-122926142D01*
X145890666Y-122929024D01*
X145882067Y-122933040D01*
X145873269Y-122936660D01*
X145864271Y-122939886D01*
X145855074Y-122942717D01*
X145845678Y-122945153D01*
X145836083Y-122947193D01*
X145826288Y-122948839D01*
X145816294Y-122950090D01*
X145806101Y-122950946D01*
X145795709Y-122951406D01*
X145788671Y-122951494D01*
X145779237Y-122951132D01*
X145770108Y-122950044D01*
X145761285Y-122948231D01*
X145752767Y-122945693D01*
X145744554Y-122942431D01*
X145736647Y-122938443D01*
X145733569Y-122936644D01*
X145726146Y-122931690D01*
X145719018Y-122926230D01*
X145712186Y-122920264D01*
X145705649Y-122913792D01*
X145699409Y-122906815D01*
X145693464Y-122899332D01*
X145691169Y-122896198D01*
X145684235Y-122902810D01*
X145677357Y-122908945D01*
X145670533Y-122914602D01*
X145663765Y-122919782D01*
X145657051Y-122924485D01*
X145650392Y-122928710D01*
X145641600Y-122933601D01*
X145632905Y-122937643D01*
X145624307Y-122940837D01*
X145620045Y-122942115D01*
X145611665Y-122944314D01*
X145603425Y-122946219D01*
X145595325Y-122947831D01*
X145587366Y-122949150D01*
X145579547Y-122950175D01*
X145569971Y-122951045D01*
X145560614Y-122951458D01*
X145556933Y-122951494D01*
X145547807Y-122951229D01*
X145538602Y-122950432D01*
X145529318Y-122949104D01*
X145519955Y-122947244D01*
X145510511Y-122944854D01*
X145500989Y-122941932D01*
X145491387Y-122938479D01*
X145484134Y-122935541D01*
X145481706Y-122934495D01*
X145474474Y-122931152D01*
X145467358Y-122927573D01*
X145460360Y-122923756D01*
X145453478Y-122919703D01*
X145446713Y-122915413D01*
X145440064Y-122910885D01*
X145433533Y-122906121D01*
X145427118Y-122901119D01*
X145420820Y-122895881D01*
X145414639Y-122890405D01*
X145410583Y-122886623D01*
X145404667Y-122880728D01*
X145398937Y-122874620D01*
X145393392Y-122868299D01*
X145388033Y-122861766D01*
X145382859Y-122855019D01*
X145377871Y-122848059D01*
X145373068Y-122840886D01*
X145368451Y-122833501D01*
X145364019Y-122825902D01*
X145359772Y-122818090D01*
X145357045Y-122812764D01*
X145353203Y-122804627D01*
X145349740Y-122796335D01*
X145346655Y-122787889D01*
X145343947Y-122779288D01*
X145341617Y-122770532D01*
X145339665Y-122761622D01*
X145338091Y-122752558D01*
X145336895Y-122743338D01*
X145336076Y-122733965D01*
X145335635Y-122724436D01*
X145335551Y-122717998D01*
X145335629Y-122713895D01*
X145460604Y-122713895D01*
X145460920Y-122722060D01*
X145461867Y-122730143D01*
X145463447Y-122738144D01*
X145465659Y-122746062D01*
X145468503Y-122753897D01*
X145469592Y-122756491D01*
X145473175Y-122764072D01*
X145477185Y-122771283D01*
X145481620Y-122778122D01*
X145486481Y-122784591D01*
X145491768Y-122790689D01*
X145493625Y-122792639D01*
X145499533Y-122798148D01*
X145505825Y-122803245D01*
X145512502Y-122807930D01*
X145519564Y-122812203D01*
X145527010Y-122816063D01*
X145529578Y-122817258D01*
X145537400Y-122820379D01*
X145545331Y-122822855D01*
X145553373Y-122824684D01*
X145561525Y-122825868D01*
X145569786Y-122826406D01*
X145572564Y-122826442D01*
X145580929Y-122826119D01*
X145589170Y-122825150D01*
X145597287Y-122823536D01*
X145605281Y-122821276D01*
X145613151Y-122818370D01*
X145615747Y-122817258D01*
X145623314Y-122813535D01*
X145630484Y-122809400D01*
X145637254Y-122804852D01*
X145643627Y-122799893D01*
X145649601Y-122794521D01*
X145651504Y-122792639D01*
X145656992Y-122786665D01*
X145662028Y-122780320D01*
X145666609Y-122773604D01*
X145670738Y-122766517D01*
X145674413Y-122759059D01*
X145675537Y-122756491D01*
X145678592Y-122748683D01*
X145681014Y-122740792D01*
X145682805Y-122732819D01*
X145683964Y-122724764D01*
X145684490Y-122716626D01*
X145684525Y-122713895D01*
X145684209Y-122705816D01*
X145683261Y-122697848D01*
X145681681Y-122689990D01*
X145679470Y-122682241D01*
X145676626Y-122674602D01*
X145675537Y-122672080D01*
X145672013Y-122664618D01*
X145668036Y-122657472D01*
X145663605Y-122650641D01*
X145658721Y-122644127D01*
X145653384Y-122637928D01*
X145651504Y-122635933D01*
X145645663Y-122630224D01*
X145639423Y-122624969D01*
X145632785Y-122620167D01*
X145625748Y-122615819D01*
X145618313Y-122611924D01*
X145615747Y-122610727D01*
X145607918Y-122607539D01*
X145599965Y-122605011D01*
X145591889Y-122603143D01*
X145583690Y-122601934D01*
X145575366Y-122601384D01*
X145572564Y-122601348D01*
X145564266Y-122601677D01*
X145556078Y-122602667D01*
X145548000Y-122604315D01*
X145540031Y-122606623D01*
X145532173Y-122609591D01*
X145529578Y-122610727D01*
X145522003Y-122614470D01*
X145514813Y-122618668D01*
X145508008Y-122623318D01*
X145501587Y-122628422D01*
X145495552Y-122633979D01*
X145493625Y-122635933D01*
X145488196Y-122642026D01*
X145483193Y-122648435D01*
X145478616Y-122655160D01*
X145474464Y-122662201D01*
X145470739Y-122669558D01*
X145469592Y-122672080D01*
X145466537Y-122679683D01*
X145464115Y-122687394D01*
X145462324Y-122695216D01*
X145461165Y-122703148D01*
X145460639Y-122711190D01*
X145460604Y-122713895D01*
X145335629Y-122713895D01*
X145335730Y-122708546D01*
X145336266Y-122699243D01*
X145337159Y-122690086D01*
X145338409Y-122681078D01*
X145340016Y-122672217D01*
X145341981Y-122663504D01*
X145344303Y-122654938D01*
X145346982Y-122646520D01*
X145350018Y-122638250D01*
X145353411Y-122630128D01*
X145355872Y-122624795D01*
X145359825Y-122616951D01*
X145363992Y-122609321D01*
X145368371Y-122601903D01*
X145372963Y-122594698D01*
X145377768Y-122587706D01*
X145382786Y-122580927D01*
X145388017Y-122574362D01*
X145393461Y-122568009D01*
X145399118Y-122561869D01*
X145404988Y-122555941D01*
X145409019Y-122552108D01*
X145415224Y-122546552D01*
X145421599Y-122541239D01*
X145428147Y-122536170D01*
X145434866Y-122531345D01*
X145441758Y-122526763D01*
X145448820Y-122522426D01*
X145456055Y-122518332D01*
X145463461Y-122514483D01*
X145471039Y-122510877D01*
X145478789Y-122507515D01*
X145484051Y-122505409D01*
X145492015Y-122502441D01*
X145500006Y-122499765D01*
X145508025Y-122497381D01*
X145516071Y-122495288D01*
X145524145Y-122493488D01*
X145532246Y-122491980D01*
X145540375Y-122490763D01*
X145548531Y-122489839D01*
X145556715Y-122489206D01*
X145564926Y-122488865D01*
X145570415Y-122488801D01*
X145579393Y-122488957D01*
X145588154Y-122489426D01*
X145596699Y-122490207D01*
X145605027Y-122491301D01*
X145613139Y-122492708D01*
X145621035Y-122494427D01*
X145628715Y-122496458D01*
X145636177Y-122498802D01*
X145645791Y-122502414D01*
X145655021Y-122506581D01*
X145663759Y-122511207D01*
X145671898Y-122516192D01*
X145679439Y-122521538D01*
X145686382Y-122527244D01*
X145692726Y-122533311D01*
X145698472Y-122539737D01*
X145703619Y-122546524D01*
X145708168Y-122553672D01*
X145718133Y-122498570D01*
X145821301Y-122498570D01*
X145787694Y-122774076D01*
X145786737Y-122782324D01*
X145785942Y-122790582D01*
X145785309Y-122798849D01*
X145784839Y-122807125D01*
X145784531Y-122815412D01*
X145784385Y-122823707D01*
X145784372Y-122827028D01*
X145785275Y-122835336D01*
X145788267Y-122842623D01*
X145789843Y-122844809D01*
X145796047Y-122849792D01*
X145803325Y-122851452D01*
X145811290Y-122851042D01*
X145819063Y-122849811D01*
X145826646Y-122847760D01*
X145834039Y-122844888D01*
X145841240Y-122841196D01*
X145848250Y-122836683D01*
X145851001Y-122834648D01*
X145857702Y-122829060D01*
X145864126Y-122822917D01*
X145870273Y-122816222D01*
X145876143Y-122808972D01*
X145881737Y-122801170D01*
X145886013Y-122794530D01*
X145889103Y-122789317D01*
X145893087Y-122782112D01*
X145896833Y-122774662D01*
X145900341Y-122766969D01*
X145903611Y-122759031D01*
X145906643Y-122750849D01*
X145909436Y-122742422D01*
X145911992Y-122733752D01*
X145914309Y-122724837D01*
X145916416Y-122715717D01*
X145918241Y-122706531D01*
X145919786Y-122697277D01*
X145921050Y-122687956D01*
X145922033Y-122678568D01*
X145922735Y-122669113D01*
X145923157Y-122659590D01*
X145923297Y-122650001D01*
X145923201Y-122641985D01*
X145922912Y-122634058D01*
X145922432Y-122626219D01*
X145921350Y-122614627D01*
X145919835Y-122603234D01*
X145917888Y-122592041D01*
X145915507Y-122581047D01*
X145912694Y-122570251D01*
X145909449Y-122559655D01*
X145905770Y-122549259D01*
X145901659Y-122539061D01*
X145898677Y-122532374D01*
X145893900Y-122522548D01*
X145888799Y-122513000D01*
X145883376Y-122503730D01*
X145877630Y-122494739D01*
X145871561Y-122486026D01*
X145865169Y-122477591D01*
X145858454Y-122469434D01*
X145851416Y-122461555D01*
X145844056Y-122453955D01*
X145836373Y-122446633D01*
X145831071Y-122441906D01*
X145822877Y-122435058D01*
X145814415Y-122428509D01*
X145805685Y-122422258D01*
X145796688Y-122416306D01*
X145787422Y-122410653D01*
X145777889Y-122405299D01*
X145768087Y-122400244D01*
X145758018Y-122395488D01*
X145747681Y-122391030D01*
X145737076Y-122386871D01*
X145729857Y-122384265D01*
X145718897Y-122380598D01*
X145707779Y-122377292D01*
X145696503Y-122374347D01*
X145685069Y-122371762D01*
X145677358Y-122370240D01*
X145669578Y-122368877D01*
X145661727Y-122367675D01*
X145653806Y-122366633D01*
X145645814Y-122365752D01*
X145637753Y-122365031D01*
X145629621Y-122364470D01*
X145621419Y-122364069D01*
X145613147Y-122363828D01*
X145604804Y-122363748D01*
X145595203Y-122363852D01*
X145585692Y-122364163D01*
X145576274Y-122364683D01*
X145566947Y-122365409D01*
X145557711Y-122366343D01*
X145548568Y-122367485D01*
X145539515Y-122368835D01*
X145530555Y-122370392D01*
X145521686Y-122372156D01*
X145512908Y-122374129D01*
X145504222Y-122376308D01*
X145495628Y-122378696D01*
X145487125Y-122381291D01*
X145478714Y-122384094D01*
X145470395Y-122387104D01*
X145462167Y-122390322D01*
X145454078Y-122393696D01*
X145446126Y-122397222D01*
X145438312Y-122400901D01*
X145430635Y-122404732D01*
X145423095Y-122408716D01*
X145415693Y-122412853D01*
X145408429Y-122417143D01*
X145401301Y-122421585D01*
X145394311Y-122426180D01*
X145387459Y-122430927D01*
X145380744Y-122435827D01*
X145374166Y-122440880D01*
X145367726Y-122446086D01*
X145361423Y-122451444D01*
X145355257Y-122456954D01*
X145349229Y-122462618D01*
X145343374Y-122468402D01*
X145337679Y-122474323D01*
X145332145Y-122480382D01*
X145326771Y-122486578D01*
X145321557Y-122492912D01*
X145316503Y-122499382D01*
X145311610Y-122505991D01*
X145306877Y-122512736D01*
X145302304Y-122519619D01*
X145297892Y-122526640D01*
X145293640Y-122533798D01*
X145289548Y-122541093D01*
X145285616Y-122548526D01*
X145281845Y-122556096D01*
X145278234Y-122563803D01*
X145274784Y-122571648D01*
X145271542Y-122579573D01*
X145268510Y-122587569D01*
X145265686Y-122595638D01*
X145263072Y-122603778D01*
X145260667Y-122611990D01*
X145258471Y-122620273D01*
X145256484Y-122628629D01*
X145254707Y-122637056D01*
X145253138Y-122645555D01*
X145251779Y-122654126D01*
X145250629Y-122662768D01*
X145249688Y-122671482D01*
X145248956Y-122680268D01*
X145248433Y-122689126D01*
X145248119Y-122698055D01*
X145248015Y-122707056D01*
X145248128Y-122717151D01*
X145248466Y-122727114D01*
X145249031Y-122736947D01*
X145249822Y-122746648D01*
X145250839Y-122756218D01*
X145252081Y-122765656D01*
X145253550Y-122774963D01*
X145255244Y-122784139D01*
X145257164Y-122793184D01*
X145259311Y-122802097D01*
X145261683Y-122810879D01*
X145264281Y-122819530D01*
X145267105Y-122828049D01*
X145270155Y-122836438D01*
X145273431Y-122844695D01*
X145276933Y-122852820D01*
X145280652Y-122860777D01*
X145284532Y-122868577D01*
X145288572Y-122876219D01*
X145292772Y-122883705D01*
X145297133Y-122891033D01*
X145301653Y-122898204D01*
X145306334Y-122905217D01*
X145311176Y-122912073D01*
X145316177Y-122918773D01*
X145321339Y-122925314D01*
X145326661Y-122931699D01*
X145332144Y-122937927D01*
X145337787Y-122943997D01*
X145343590Y-122949910D01*
X145349553Y-122955665D01*
X145355677Y-122961264D01*
X145361971Y-122966678D01*
X145368396Y-122971928D01*
X145374952Y-122977015D01*
X145381640Y-122981939D01*
X145388459Y-122986700D01*
X145395409Y-122991297D01*
X145402491Y-122995730D01*
X145409703Y-123000001D01*
X145417047Y-123004108D01*
X145424523Y-123008052D01*
X145432129Y-123011832D01*
X145439867Y-123015449D01*
X145447736Y-123018903D01*
X145455737Y-123022193D01*
X145463869Y-123025320D01*
X145472132Y-123028284D01*
X145480493Y-123031100D01*
X145488917Y-123033734D01*
X145497406Y-123036186D01*
X145505959Y-123038457D01*
X145514577Y-123040546D01*
X145523258Y-123042453D01*
X145532003Y-123044179D01*
X145540813Y-123045723D01*
X145549687Y-123047086D01*
X145558624Y-123048266D01*
X145567626Y-123049265D01*
X145576692Y-123050083D01*
X145585822Y-123050719D01*
X145595016Y-123051173D01*
X145604275Y-123051445D01*
X145613597Y-123051536D01*
X145621678Y-123051509D01*
X145629580Y-123051426D01*
X145639838Y-123051231D01*
X145649779Y-123050938D01*
X145659402Y-123050547D01*
X145668708Y-123050058D01*
X145677696Y-123049472D01*
X145686366Y-123048788D01*
X145690583Y-123048410D01*
X145698923Y-123047592D01*
X145707142Y-123046602D01*
X145715239Y-123045442D01*
X145723213Y-123044111D01*
X145731066Y-123042609D01*
X145738796Y-123040936D01*
X145746404Y-123039092D01*
X145753890Y-123037077D01*
X145763114Y-123034365D01*
X145772224Y-123031356D01*
X145781219Y-123028052D01*
X145790099Y-123024453D01*
X145798865Y-123020557D01*
X145807517Y-123016366D01*
X145810945Y-123014607D01*
X145817864Y-123010909D01*
X145824941Y-123006950D01*
X145832176Y-123002727D01*
X145839571Y-122998242D01*
X145847124Y-122993495D01*
X145854836Y-122988485D01*
X145862707Y-122983212D01*
X145870736Y-122977677D01*
X145918803Y-123077133D01*
X145910229Y-123082563D01*
X145901605Y-123087815D01*
X145892931Y-123092889D01*
X145884206Y-123097784D01*
X145875431Y-123102500D01*
X145866605Y-123107037D01*
X145857729Y-123111396D01*
X145848803Y-123115577D01*
X145839826Y-123119578D01*
X145830799Y-123123402D01*
X145821722Y-123127046D01*
X145812594Y-123130512D01*
X145803416Y-123133799D01*
X145794187Y-123136908D01*
X145784908Y-123139838D01*
X145775579Y-123142590D01*
X145766175Y-123145193D01*
X145756672Y-123147627D01*
X145747069Y-123149894D01*
X145737367Y-123151993D01*
X145727566Y-123153924D01*
X145717666Y-123155687D01*
X145707667Y-123157283D01*
X145697568Y-123158710D01*
X145687370Y-123159969D01*
X145677073Y-123161061D01*
X145666677Y-123161984D01*
X145656181Y-123162740D01*
X145645586Y-123163328D01*
X145634892Y-123163747D01*
X145624099Y-123163999D01*
X145613206Y-123164083D01*
X145599540Y-123163941D01*
X145586044Y-123163515D01*
X145572716Y-123162806D01*
X145559559Y-123161812D01*
X145546570Y-123160534D01*
X145533751Y-123158972D01*
X145521102Y-123157127D01*
X145508622Y-123154997D01*
X145496311Y-123152584D01*
X145484170Y-123149887D01*
X145472198Y-123146905D01*
X145460396Y-123143640D01*
X145448763Y-123140091D01*
X145437300Y-123136258D01*
X145426006Y-123132141D01*
X145414881Y-123127740D01*
X145403945Y-123123094D01*
X145393214Y-123118242D01*
X145382689Y-123113184D01*
X145372371Y-123107920D01*
X145362258Y-123102449D01*
X145352352Y-123096773D01*
X145342652Y-123090891D01*
X145333158Y-123084802D01*
X145323869Y-123078507D01*
X145314787Y-123072007D01*
X145305912Y-123065300D01*
X145297242Y-123058387D01*
X145288778Y-123051268D01*
X145280520Y-123043943D01*
X145272469Y-123036412D01*
X145264623Y-123028675D01*
X145257014Y-123020780D01*
X145249623Y-123012726D01*
X145242451Y-123004513D01*
X145235497Y-122996142D01*
X145228761Y-122987612D01*
X145222244Y-122978923D01*
X145215945Y-122970075D01*
X145209864Y-122961069D01*
X145204001Y-122951903D01*
X145198357Y-122942579D01*
X145192931Y-122933097D01*
X145187723Y-122923455D01*
X145182734Y-122913655D01*
X145177963Y-122903696D01*
X145173410Y-122893578D01*
X145169075Y-122883302D01*
X145165006Y-122872882D01*
X145161198Y-122862382D01*
X145157654Y-122851803D01*
X145154372Y-122841145D01*
X145151352Y-122830408D01*
X145148595Y-122819591D01*
X145146101Y-122808695D01*
X145143869Y-122797719D01*
X145141900Y-122786664D01*
X145140194Y-122775530D01*
X145138749Y-122764316D01*
X145137568Y-122753023D01*
X145136649Y-122741650D01*
X145135993Y-122730198D01*
X145135599Y-122718667D01*
X145135467Y-122707056D01*
X145135609Y-122695043D01*
X145136032Y-122683135D01*
X145136738Y-122671333D01*
X145137727Y-122659636D01*
X145138998Y-122648045D01*
X145140551Y-122636558D01*
X145142386Y-122625177D01*
X145144504Y-122613902D01*
X145146905Y-122602732D01*
X145149588Y-122591667D01*
X145152553Y-122580707D01*
X145155801Y-122569853D01*
X145159331Y-122559104D01*
X145163143Y-122548460D01*
X145167238Y-122537922D01*
X145171615Y-122527489D01*
X145176239Y-122517193D01*
X145181074Y-122507067D01*
X145186119Y-122497110D01*
X145191375Y-122487323D01*
X145196841Y-122477705D01*
X145202518Y-122468257D01*
X145208406Y-122458978D01*
X145214504Y-122449868D01*
X145220814Y-122440928D01*
X145227333Y-122432158D01*
X145234064Y-122423556D01*
X145241005Y-122415125D01*
X145248157Y-122406862D01*
X145255519Y-122398770D01*
X145263092Y-122390846D01*
X145270876Y-122383092D01*
X145278851Y-122375525D01*
X145286999Y-122368163D01*
X145295319Y-122361005D01*
X145303812Y-122354052D01*
X145312477Y-122347303D01*
X145321315Y-122340759D01*
X145330325Y-122334419D01*
X145339508Y-122328284D01*
X145348863Y-122322354D01*
X145358391Y-122316628D01*
X145368091Y-122311106D01*
X145377964Y-122305789D01*
X145388009Y-122300677D01*
X145398227Y-122295769D01*
X145408617Y-122291066D01*
X145419180Y-122286568D01*
X145429908Y-122282285D01*
X145440744Y-122278279D01*
X145451688Y-122274549D01*
X145462741Y-122271095D01*
X145473902Y-122267917D01*
X145485171Y-122265016D01*
X145496549Y-122262391D01*
X145508035Y-122260043D01*
X145519630Y-122257971D01*
X145531333Y-122256175D01*
X145543145Y-122254655D01*
X145555064Y-122253412D01*
X145567093Y-122252445D01*
X145579229Y-122251754D01*
X145591474Y-122251339D01*
X145603828Y-122251201D01*
X145615186Y-122251320D01*
G37*
G36*
X146143702Y-122388759D02*
G01*
X146343786Y-122388759D01*
X146343786Y-122482353D01*
X146350071Y-122472677D01*
X146356618Y-122463434D01*
X146363425Y-122454625D01*
X146370494Y-122446247D01*
X146377823Y-122438303D01*
X146385414Y-122430791D01*
X146393265Y-122423713D01*
X146401378Y-122417066D01*
X146409752Y-122410853D01*
X146418387Y-122405073D01*
X146424288Y-122401459D01*
X146433366Y-122396396D01*
X146442723Y-122391831D01*
X146452358Y-122387764D01*
X146462271Y-122384194D01*
X146472462Y-122381123D01*
X146482932Y-122378550D01*
X146493679Y-122376475D01*
X146504705Y-122374898D01*
X146516009Y-122373819D01*
X146527591Y-122373238D01*
X146535467Y-122373127D01*
X146543321Y-122373127D01*
X146551271Y-122373127D01*
X146553053Y-122373127D01*
X146561316Y-122373611D01*
X146569063Y-122374776D01*
X146575132Y-122376058D01*
X146575132Y-122571648D01*
X146567415Y-122568016D01*
X146559578Y-122564742D01*
X146551620Y-122561825D01*
X146543543Y-122559265D01*
X146535345Y-122557062D01*
X146527027Y-122555216D01*
X146518588Y-122553728D01*
X146510030Y-122552597D01*
X146501351Y-122551823D01*
X146492552Y-122551406D01*
X146486619Y-122551327D01*
X146477843Y-122551492D01*
X146469345Y-122551986D01*
X146461124Y-122552811D01*
X146453182Y-122553965D01*
X146441789Y-122556314D01*
X146431022Y-122559405D01*
X146420879Y-122563238D01*
X146411362Y-122567813D01*
X146402469Y-122573130D01*
X146394202Y-122579189D01*
X146386560Y-122585989D01*
X146379543Y-122593532D01*
X146373153Y-122601785D01*
X146367391Y-122610719D01*
X146362258Y-122620333D01*
X146357753Y-122630626D01*
X146353877Y-122641600D01*
X146351642Y-122649294D01*
X146349687Y-122657290D01*
X146348011Y-122665588D01*
X146346614Y-122674188D01*
X146345497Y-122683091D01*
X146344659Y-122692296D01*
X146344100Y-122701803D01*
X146343821Y-122711612D01*
X146343786Y-122716630D01*
X146343786Y-122964000D01*
X146143702Y-122964000D01*
X146143702Y-122388759D01*
G37*
G36*
X146998387Y-122363839D02*
G01*
X147007516Y-122364112D01*
X147016559Y-122364566D01*
X147025516Y-122365202D01*
X147034388Y-122366019D01*
X147043175Y-122367018D01*
X147051876Y-122368199D01*
X147060492Y-122369561D01*
X147069022Y-122371105D01*
X147077467Y-122372831D01*
X147085826Y-122374738D01*
X147094100Y-122376827D01*
X147102288Y-122379098D01*
X147110391Y-122381551D01*
X147118408Y-122384185D01*
X147126340Y-122387000D01*
X147134163Y-122389955D01*
X147141855Y-122393054D01*
X147149416Y-122396299D01*
X147156846Y-122399689D01*
X147164144Y-122403223D01*
X147171311Y-122406903D01*
X147178347Y-122410728D01*
X147185251Y-122414697D01*
X147192024Y-122418812D01*
X147198666Y-122423072D01*
X147205177Y-122427477D01*
X147211556Y-122432026D01*
X147220879Y-122439123D01*
X147229906Y-122446546D01*
X147235761Y-122451676D01*
X147244298Y-122459582D01*
X147252471Y-122467766D01*
X147260281Y-122476228D01*
X147267726Y-122484969D01*
X147274807Y-122493988D01*
X147281524Y-122503285D01*
X147287877Y-122512860D01*
X147293866Y-122522714D01*
X147299491Y-122532845D01*
X147304751Y-122543255D01*
X147308056Y-122550350D01*
X147311180Y-122557553D01*
X147314101Y-122564852D01*
X147316822Y-122572245D01*
X147319340Y-122579732D01*
X147321658Y-122587314D01*
X147323773Y-122594991D01*
X147325688Y-122602763D01*
X147327400Y-122610629D01*
X147328912Y-122618590D01*
X147330221Y-122626645D01*
X147331330Y-122634795D01*
X147332236Y-122643040D01*
X147332942Y-122651379D01*
X147333445Y-122659813D01*
X147333748Y-122668342D01*
X147333848Y-122676965D01*
X147333745Y-122685565D01*
X147333436Y-122694071D01*
X147332921Y-122702485D01*
X147332200Y-122710805D01*
X147331272Y-122719032D01*
X147330139Y-122727166D01*
X147328799Y-122735207D01*
X147327254Y-122743155D01*
X147325502Y-122751010D01*
X147323544Y-122758771D01*
X147321381Y-122766440D01*
X147319011Y-122774015D01*
X147316435Y-122781497D01*
X147313653Y-122788887D01*
X147310664Y-122796183D01*
X147307470Y-122803385D01*
X147304097Y-122810481D01*
X147298750Y-122820895D01*
X147293060Y-122831034D01*
X147287026Y-122840898D01*
X147280649Y-122850488D01*
X147273929Y-122859802D01*
X147266865Y-122868842D01*
X147259457Y-122877608D01*
X147251707Y-122886098D01*
X147243612Y-122894314D01*
X147235174Y-122902255D01*
X147226438Y-122909857D01*
X147217376Y-122917129D01*
X147207987Y-122924072D01*
X147201547Y-122928517D01*
X147194961Y-122932816D01*
X147188231Y-122936968D01*
X147181356Y-122940974D01*
X147174335Y-122944833D01*
X147167170Y-122948545D01*
X147159859Y-122952111D01*
X147152404Y-122955530D01*
X147144803Y-122958803D01*
X147137058Y-122961930D01*
X147129167Y-122964909D01*
X147125167Y-122966344D01*
X147117090Y-122969089D01*
X147108928Y-122971657D01*
X147100683Y-122974047D01*
X147092353Y-122976260D01*
X147083940Y-122978297D01*
X147075443Y-122980156D01*
X147066861Y-122981838D01*
X147058196Y-122983344D01*
X147049447Y-122984672D01*
X147040614Y-122985823D01*
X147031696Y-122986797D01*
X147022695Y-122987593D01*
X147013610Y-122988213D01*
X147004441Y-122988656D01*
X146995188Y-122988921D01*
X146985851Y-122989010D01*
X146976662Y-122988921D01*
X146967561Y-122988656D01*
X146958546Y-122988213D01*
X146949618Y-122987593D01*
X146940777Y-122986797D01*
X146932023Y-122985823D01*
X146923356Y-122984672D01*
X146914777Y-122983344D01*
X146906284Y-122981838D01*
X146897878Y-122980156D01*
X146889559Y-122978297D01*
X146881328Y-122976260D01*
X146873183Y-122974047D01*
X146865125Y-122971657D01*
X146857154Y-122969089D01*
X146849271Y-122966344D01*
X146841522Y-122963435D01*
X146833908Y-122960376D01*
X146826428Y-122957165D01*
X146819082Y-122953802D01*
X146811871Y-122950289D01*
X146804794Y-122946625D01*
X146797851Y-122942809D01*
X146791043Y-122938842D01*
X146784369Y-122934725D01*
X146774610Y-122928265D01*
X146765153Y-122921465D01*
X146755999Y-122914325D01*
X146747147Y-122906844D01*
X146741413Y-122901669D01*
X146733085Y-122893614D01*
X146725101Y-122885279D01*
X146717460Y-122876661D01*
X146710162Y-122867762D01*
X146703208Y-122858581D01*
X146696597Y-122849118D01*
X146690330Y-122839374D01*
X146684407Y-122829348D01*
X146678827Y-122819041D01*
X146675297Y-122812013D01*
X146671921Y-122804860D01*
X146670289Y-122801236D01*
X146667190Y-122793882D01*
X146664290Y-122786426D01*
X146661591Y-122778867D01*
X146659091Y-122771206D01*
X146656791Y-122763443D01*
X146654692Y-122755578D01*
X146652792Y-122747610D01*
X146651092Y-122739540D01*
X146649592Y-122731368D01*
X146648292Y-122723094D01*
X146647193Y-122714717D01*
X146646293Y-122706238D01*
X146645593Y-122697656D01*
X146645093Y-122688973D01*
X146644793Y-122680187D01*
X146644730Y-122674621D01*
X146858650Y-122674621D01*
X146858907Y-122683783D01*
X146859680Y-122692706D01*
X146860968Y-122701391D01*
X146862771Y-122709837D01*
X146865090Y-122718045D01*
X146867923Y-122726015D01*
X146869201Y-122729136D01*
X146872660Y-122736677D01*
X146876444Y-122743912D01*
X146880552Y-122750843D01*
X146884985Y-122757468D01*
X146889742Y-122763788D01*
X146894823Y-122769802D01*
X146896947Y-122772122D01*
X146902543Y-122777662D01*
X146908464Y-122782800D01*
X146914710Y-122787538D01*
X146921280Y-122791875D01*
X146928174Y-122795812D01*
X146935392Y-122799348D01*
X146938370Y-122800650D01*
X146945948Y-122803577D01*
X146953659Y-122806008D01*
X146961503Y-122807943D01*
X146969481Y-122809382D01*
X146977592Y-122810324D01*
X146985838Y-122810771D01*
X146989173Y-122810810D01*
X146997523Y-122810562D01*
X147005720Y-122809818D01*
X147013765Y-122808578D01*
X147021657Y-122806841D01*
X147029397Y-122804609D01*
X147036983Y-122801880D01*
X147039975Y-122800650D01*
X147047319Y-122797274D01*
X147054329Y-122793498D01*
X147061004Y-122789321D01*
X147067346Y-122784744D01*
X147074515Y-122778721D01*
X147080122Y-122773262D01*
X147081204Y-122772122D01*
X147086471Y-122766230D01*
X147091405Y-122760032D01*
X147096004Y-122753529D01*
X147100270Y-122746721D01*
X147104202Y-122739607D01*
X147107799Y-122732189D01*
X147109145Y-122729136D01*
X147112241Y-122721290D01*
X147114812Y-122713264D01*
X147116859Y-122705056D01*
X147118380Y-122696667D01*
X147119377Y-122688096D01*
X147119850Y-122679344D01*
X147119892Y-122675793D01*
X147119629Y-122667311D01*
X147118842Y-122658963D01*
X147117530Y-122650749D01*
X147115694Y-122642668D01*
X147113332Y-122634720D01*
X147110446Y-122626906D01*
X147109145Y-122623818D01*
X147105681Y-122616277D01*
X147101883Y-122609041D01*
X147097751Y-122602111D01*
X147093285Y-122595486D01*
X147088485Y-122589166D01*
X147083351Y-122583152D01*
X147081204Y-122580831D01*
X147075663Y-122575292D01*
X147068574Y-122569174D01*
X147061004Y-122563632D01*
X147054329Y-122559455D01*
X147047319Y-122555679D01*
X147039975Y-122552304D01*
X147032450Y-122549320D01*
X147024771Y-122546843D01*
X147016940Y-122544871D01*
X147008957Y-122543404D01*
X147000820Y-122542443D01*
X146992531Y-122541988D01*
X146989173Y-122541948D01*
X146980874Y-122542201D01*
X146972709Y-122542959D01*
X146964678Y-122544223D01*
X146956780Y-122545993D01*
X146949016Y-122548269D01*
X146941385Y-122551050D01*
X146938370Y-122552304D01*
X146931022Y-122555679D01*
X146923998Y-122559455D01*
X146917299Y-122563632D01*
X146910924Y-122568210D01*
X146904873Y-122573188D01*
X146899147Y-122578567D01*
X146896947Y-122580831D01*
X146891736Y-122586709D01*
X146886849Y-122592864D01*
X146882287Y-122599296D01*
X146878049Y-122606004D01*
X146874135Y-122612988D01*
X146870546Y-122620250D01*
X146869201Y-122623232D01*
X146866161Y-122630823D01*
X146863637Y-122638577D01*
X146861627Y-122646493D01*
X146860133Y-122654571D01*
X146859154Y-122662812D01*
X146858691Y-122671214D01*
X146858650Y-122674621D01*
X146644730Y-122674621D01*
X146644693Y-122671299D01*
X146644793Y-122663224D01*
X146645093Y-122655219D01*
X146645593Y-122647281D01*
X146646293Y-122639413D01*
X146647193Y-122631613D01*
X146648917Y-122620042D01*
X146651092Y-122608626D01*
X146653717Y-122597364D01*
X146656791Y-122586257D01*
X146660316Y-122575305D01*
X146664290Y-122564507D01*
X146668715Y-122553863D01*
X146670289Y-122550350D01*
X146675301Y-122539964D01*
X146680662Y-122529836D01*
X146686374Y-122519965D01*
X146692436Y-122510352D01*
X146698849Y-122500997D01*
X146705612Y-122491899D01*
X146712725Y-122483058D01*
X146720188Y-122474476D01*
X146728002Y-122466151D01*
X146736166Y-122458083D01*
X146741804Y-122452848D01*
X146750564Y-122445203D01*
X146759627Y-122437873D01*
X146768993Y-122430859D01*
X146775404Y-122426359D01*
X146781950Y-122421999D01*
X146788630Y-122417780D01*
X146795444Y-122413701D01*
X146802393Y-122409763D01*
X146809476Y-122405965D01*
X146816693Y-122402307D01*
X146824045Y-122398790D01*
X146831531Y-122395414D01*
X146839151Y-122392177D01*
X146846906Y-122389082D01*
X146850834Y-122387586D01*
X146858793Y-122384700D01*
X146866844Y-122381999D01*
X146874986Y-122379485D01*
X146883220Y-122377157D01*
X146891546Y-122375016D01*
X146899963Y-122373060D01*
X146908472Y-122371291D01*
X146917072Y-122369708D01*
X146925764Y-122368311D01*
X146934548Y-122367101D01*
X146943423Y-122366076D01*
X146952390Y-122365238D01*
X146961448Y-122364586D01*
X146970598Y-122364121D01*
X146979840Y-122363841D01*
X146989173Y-122363748D01*
X146998387Y-122363839D01*
G37*
G36*
X147829173Y-122530810D02*
G01*
X147822074Y-122527238D01*
X147814992Y-122523895D01*
X147804400Y-122519314D01*
X147793846Y-122515251D01*
X147783329Y-122511707D01*
X147772851Y-122508682D01*
X147762410Y-122506175D01*
X147752007Y-122504187D01*
X147741641Y-122502718D01*
X147731314Y-122501767D01*
X147721024Y-122501335D01*
X147717603Y-122501306D01*
X147708899Y-122501587D01*
X147700739Y-122502432D01*
X147691664Y-122504188D01*
X147683373Y-122506755D01*
X147675865Y-122510132D01*
X147671294Y-122512834D01*
X147664442Y-122518252D01*
X147659273Y-122524417D01*
X147655426Y-122532380D01*
X147653863Y-122540148D01*
X147653709Y-122543706D01*
X147654232Y-122552020D01*
X147656113Y-122559689D01*
X147656444Y-122560510D01*
X147661336Y-122566988D01*
X147667756Y-122571719D01*
X147668950Y-122572429D01*
X147676728Y-122576210D01*
X147684673Y-122579131D01*
X147692928Y-122581598D01*
X147697477Y-122582785D01*
X147706254Y-122584864D01*
X147714685Y-122586824D01*
X147722351Y-122588583D01*
X147730599Y-122590457D01*
X147739429Y-122592445D01*
X147746912Y-122594118D01*
X147757392Y-122596373D01*
X147767535Y-122598838D01*
X147777341Y-122601514D01*
X147786809Y-122604401D01*
X147795940Y-122607498D01*
X147804733Y-122610806D01*
X147813190Y-122614325D01*
X147821308Y-122618054D01*
X147829090Y-122621994D01*
X147836534Y-122626144D01*
X147843641Y-122630506D01*
X147850410Y-122635078D01*
X147856842Y-122639860D01*
X147862936Y-122644853D01*
X147871446Y-122652738D01*
X147874114Y-122655472D01*
X147881656Y-122663932D01*
X147888457Y-122672824D01*
X147894516Y-122682149D01*
X147899832Y-122691907D01*
X147904407Y-122702098D01*
X147908240Y-122712721D01*
X147911332Y-122723777D01*
X147913681Y-122735266D01*
X147914835Y-122743166D01*
X147915659Y-122751258D01*
X147916154Y-122759542D01*
X147916319Y-122768019D01*
X147916140Y-122777600D01*
X147915604Y-122786999D01*
X147914711Y-122796216D01*
X147913461Y-122805251D01*
X147911854Y-122814104D01*
X147909889Y-122822774D01*
X147907567Y-122831263D01*
X147904888Y-122839570D01*
X147901852Y-122847695D01*
X147898459Y-122855637D01*
X147895998Y-122860831D01*
X147892048Y-122868447D01*
X147887821Y-122875832D01*
X147883315Y-122882987D01*
X147878531Y-122889911D01*
X147873469Y-122896606D01*
X147868129Y-122903071D01*
X147862510Y-122909305D01*
X147856614Y-122915310D01*
X147850439Y-122921084D01*
X147843986Y-122926628D01*
X147839529Y-122930196D01*
X147832622Y-122935325D01*
X147825458Y-122940235D01*
X147818036Y-122944924D01*
X147810357Y-122949394D01*
X147802420Y-122953644D01*
X147794226Y-122957674D01*
X147785773Y-122961484D01*
X147777064Y-122965074D01*
X147768096Y-122968445D01*
X147758871Y-122971595D01*
X147752578Y-122973574D01*
X147742999Y-122976332D01*
X147733237Y-122978820D01*
X147723293Y-122981036D01*
X147713167Y-122982980D01*
X147702859Y-122984653D01*
X147692369Y-122986055D01*
X147681697Y-122987186D01*
X147670843Y-122988045D01*
X147659806Y-122988633D01*
X147648588Y-122988950D01*
X147641008Y-122989010D01*
X147626367Y-122988754D01*
X147611751Y-122987984D01*
X147597161Y-122986702D01*
X147582598Y-122984907D01*
X147568060Y-122982599D01*
X147553548Y-122979778D01*
X147539062Y-122976444D01*
X147524602Y-122972597D01*
X147510168Y-122968237D01*
X147495760Y-122963364D01*
X147481378Y-122957979D01*
X147467022Y-122952080D01*
X147459854Y-122948939D01*
X147452692Y-122945669D01*
X147445536Y-122942271D01*
X147438387Y-122938745D01*
X147431245Y-122935090D01*
X147424109Y-122931308D01*
X147416980Y-122927397D01*
X147409857Y-122923357D01*
X147483716Y-122778570D01*
X147494671Y-122785882D01*
X147505554Y-122792721D01*
X147516366Y-122799089D01*
X147527106Y-122804985D01*
X147537774Y-122810410D01*
X147548370Y-122815362D01*
X147558895Y-122819844D01*
X147569347Y-122823853D01*
X147579728Y-122827391D01*
X147590038Y-122830457D01*
X147600275Y-122833051D01*
X147610441Y-122835174D01*
X147620535Y-122836825D01*
X147630558Y-122838004D01*
X147640508Y-122838711D01*
X147650387Y-122838947D01*
X147659167Y-122838642D01*
X147667431Y-122837726D01*
X147675180Y-122836199D01*
X147683798Y-122833562D01*
X147691675Y-122830045D01*
X147697673Y-122826442D01*
X147703981Y-122821446D01*
X147709691Y-122815026D01*
X147713625Y-122807971D01*
X147715782Y-122800280D01*
X147716235Y-122794397D01*
X147715823Y-122786356D01*
X147714300Y-122778502D01*
X147713304Y-122775639D01*
X147708957Y-122768508D01*
X147703050Y-122763144D01*
X147701385Y-122761962D01*
X147694032Y-122757690D01*
X147686471Y-122754436D01*
X147678582Y-122751725D01*
X147674225Y-122750434D01*
X147665846Y-122748183D01*
X147657846Y-122746209D01*
X147649090Y-122744194D01*
X147641216Y-122742483D01*
X147632817Y-122740744D01*
X147627526Y-122739687D01*
X147615663Y-122737148D01*
X147604253Y-122734466D01*
X147593296Y-122731641D01*
X147582793Y-122728672D01*
X147572743Y-122725559D01*
X147563147Y-122722303D01*
X147554004Y-122718903D01*
X147545314Y-122715360D01*
X147537078Y-122711674D01*
X147529295Y-122707844D01*
X147521965Y-122703870D01*
X147515089Y-122699753D01*
X147505625Y-122693309D01*
X147497181Y-122686541D01*
X147492118Y-122681850D01*
X147485239Y-122674447D01*
X147479036Y-122666525D01*
X147473511Y-122658084D01*
X147468661Y-122649125D01*
X147464489Y-122639647D01*
X147460993Y-122629650D01*
X147458174Y-122619135D01*
X147456031Y-122608101D01*
X147454565Y-122596549D01*
X147453963Y-122588559D01*
X147453663Y-122580338D01*
X147453625Y-122576142D01*
X147453783Y-122566997D01*
X147454257Y-122558027D01*
X147455047Y-122549233D01*
X147456153Y-122540614D01*
X147457575Y-122532170D01*
X147459313Y-122523901D01*
X147461367Y-122515807D01*
X147463737Y-122507888D01*
X147466423Y-122500145D01*
X147469425Y-122492576D01*
X147471601Y-122487628D01*
X147475146Y-122480334D01*
X147478965Y-122473253D01*
X147483059Y-122466385D01*
X147487428Y-122459730D01*
X147492072Y-122453287D01*
X147496990Y-122447058D01*
X147502184Y-122441042D01*
X147507652Y-122435238D01*
X147513394Y-122429648D01*
X147519412Y-122424270D01*
X147523576Y-122420803D01*
X147530073Y-122415784D01*
X147536813Y-122410985D01*
X147543798Y-122406405D01*
X147551026Y-122402046D01*
X147558498Y-122397906D01*
X147566214Y-122393986D01*
X147574174Y-122390285D01*
X147582378Y-122386805D01*
X147590825Y-122383544D01*
X147599517Y-122380503D01*
X147605447Y-122378598D01*
X147614554Y-122375944D01*
X147623849Y-122373552D01*
X147633334Y-122371420D01*
X147643008Y-122369549D01*
X147652871Y-122367939D01*
X147662922Y-122366591D01*
X147673163Y-122365503D01*
X147683592Y-122364676D01*
X147694210Y-122364111D01*
X147705017Y-122363806D01*
X147712327Y-122363748D01*
X147724298Y-122363890D01*
X147736226Y-122364316D01*
X147748112Y-122365026D01*
X147759955Y-122366020D01*
X147771755Y-122367297D01*
X147783512Y-122368859D01*
X147795226Y-122370705D01*
X147806898Y-122372834D01*
X147818527Y-122375248D01*
X147830113Y-122377945D01*
X147841657Y-122380926D01*
X147853158Y-122384191D01*
X147864616Y-122387741D01*
X147876031Y-122391574D01*
X147887403Y-122395691D01*
X147898733Y-122400092D01*
X147829173Y-122530810D01*
G37*
G36*
X148454825Y-122574383D02*
G01*
X148448301Y-122570077D01*
X148438503Y-122564138D01*
X148428691Y-122558825D01*
X148418866Y-122554137D01*
X148409027Y-122550074D01*
X148399174Y-122546635D01*
X148389307Y-122543822D01*
X148379427Y-122541635D01*
X148369533Y-122540072D01*
X148359625Y-122539134D01*
X148349703Y-122538822D01*
X148340762Y-122539070D01*
X148332011Y-122539814D01*
X148323451Y-122541054D01*
X148315082Y-122542790D01*
X148306904Y-122545023D01*
X148298916Y-122547752D01*
X148295774Y-122548982D01*
X148288168Y-122552301D01*
X148280857Y-122556031D01*
X148273841Y-122560170D01*
X148267122Y-122564720D01*
X148260698Y-122569681D01*
X148254570Y-122575051D01*
X148252202Y-122577314D01*
X148246540Y-122583221D01*
X148241279Y-122589461D01*
X148236419Y-122596036D01*
X148231960Y-122602944D01*
X148227901Y-122610187D01*
X148224243Y-122617763D01*
X148222892Y-122620887D01*
X148219853Y-122628846D01*
X148217328Y-122637091D01*
X148215319Y-122645622D01*
X148213825Y-122654440D01*
X148212846Y-122663544D01*
X148212382Y-122672934D01*
X148212341Y-122676770D01*
X148212599Y-122686054D01*
X148213372Y-122695100D01*
X148214660Y-122703907D01*
X148216463Y-122712475D01*
X148218781Y-122720805D01*
X148221615Y-122728897D01*
X148222892Y-122732066D01*
X148226376Y-122739720D01*
X148230231Y-122747049D01*
X148234459Y-122754054D01*
X148239058Y-122760734D01*
X148244030Y-122767091D01*
X148249374Y-122773122D01*
X148251615Y-122775444D01*
X148257471Y-122780983D01*
X148263679Y-122786122D01*
X148270240Y-122790860D01*
X148277154Y-122795197D01*
X148284421Y-122799134D01*
X148292041Y-122802669D01*
X148295188Y-122803972D01*
X148303268Y-122806842D01*
X148311511Y-122809227D01*
X148319915Y-122811124D01*
X148328482Y-122812535D01*
X148337210Y-122813460D01*
X148346101Y-122813898D01*
X148349703Y-122813937D01*
X148360189Y-122813593D01*
X148370545Y-122812563D01*
X148380770Y-122810845D01*
X148390864Y-122808441D01*
X148400828Y-122805350D01*
X148410662Y-122801572D01*
X148420365Y-122797107D01*
X148429937Y-122791955D01*
X148439379Y-122786116D01*
X148448690Y-122779590D01*
X148454825Y-122774858D01*
X148454825Y-122944655D01*
X148445453Y-122948512D01*
X148436144Y-122952120D01*
X148426897Y-122955479D01*
X148417713Y-122958590D01*
X148408591Y-122961451D01*
X148399532Y-122964064D01*
X148390535Y-122966427D01*
X148381601Y-122968542D01*
X148372730Y-122970409D01*
X148363921Y-122972026D01*
X148355175Y-122973394D01*
X148346492Y-122974514D01*
X148337871Y-122975385D01*
X148329312Y-122976007D01*
X148320816Y-122976380D01*
X148312383Y-122976505D01*
X148304566Y-122976422D01*
X148292930Y-122975985D01*
X148281401Y-122975174D01*
X148269978Y-122973988D01*
X148258661Y-122972428D01*
X148247451Y-122970494D01*
X148236347Y-122968185D01*
X148225350Y-122965502D01*
X148214459Y-122962445D01*
X148203675Y-122959013D01*
X148192997Y-122955207D01*
X148182489Y-122951050D01*
X148172215Y-122946567D01*
X148162174Y-122941758D01*
X148152367Y-122936623D01*
X148142794Y-122931161D01*
X148133454Y-122925373D01*
X148124347Y-122919259D01*
X148115474Y-122912818D01*
X148106835Y-122906052D01*
X148098429Y-122898958D01*
X148092955Y-122894048D01*
X148085011Y-122886400D01*
X148077373Y-122878478D01*
X148070041Y-122870280D01*
X148063014Y-122861808D01*
X148056293Y-122853061D01*
X148049878Y-122844040D01*
X148043768Y-122834743D01*
X148037964Y-122825172D01*
X148032466Y-122815326D01*
X148027273Y-122805205D01*
X148023981Y-122798305D01*
X148019407Y-122787750D01*
X148015282Y-122776969D01*
X148011608Y-122765961D01*
X148008383Y-122754726D01*
X148006483Y-122747110D01*
X148004784Y-122739394D01*
X148003284Y-122731576D01*
X148001984Y-122723658D01*
X148000884Y-122715640D01*
X147999984Y-122707520D01*
X147999284Y-122699300D01*
X147998784Y-122690979D01*
X147998484Y-122682557D01*
X147998384Y-122674034D01*
X147998481Y-122665531D01*
X147998769Y-122657118D01*
X147999250Y-122648794D01*
X147999923Y-122640561D01*
X148000789Y-122632418D01*
X148001847Y-122624365D01*
X148003097Y-122616401D01*
X148004539Y-122608528D01*
X148006174Y-122600746D01*
X148008001Y-122593053D01*
X148010021Y-122585450D01*
X148012233Y-122577937D01*
X148015911Y-122566837D01*
X148020023Y-122555939D01*
X148023004Y-122548787D01*
X148027778Y-122538265D01*
X148032868Y-122528021D01*
X148038275Y-122518055D01*
X148043997Y-122508368D01*
X148050035Y-122498958D01*
X148056389Y-122489827D01*
X148063059Y-122480974D01*
X148070045Y-122472400D01*
X148077347Y-122464103D01*
X148084965Y-122456085D01*
X148090220Y-122450894D01*
X148098384Y-122443358D01*
X148106830Y-122436139D01*
X148115557Y-122429235D01*
X148124566Y-122422647D01*
X148133857Y-122416376D01*
X148143430Y-122410420D01*
X148153284Y-122404780D01*
X148163419Y-122399457D01*
X148173837Y-122394449D01*
X148184536Y-122389757D01*
X148191825Y-122386805D01*
X148199209Y-122384013D01*
X148206659Y-122381401D01*
X148214175Y-122378969D01*
X148221757Y-122376718D01*
X148229404Y-122374646D01*
X148237117Y-122372755D01*
X148244895Y-122371044D01*
X148252739Y-122369512D01*
X148260649Y-122368161D01*
X148268624Y-122366991D01*
X148276665Y-122366000D01*
X148284771Y-122365189D01*
X148292944Y-122364559D01*
X148301181Y-122364109D01*
X148309485Y-122363838D01*
X148317854Y-122363748D01*
X148327090Y-122363876D01*
X148336236Y-122364258D01*
X148345292Y-122364895D01*
X148354258Y-122365788D01*
X148363134Y-122366935D01*
X148371920Y-122368337D01*
X148380616Y-122369994D01*
X148389222Y-122371906D01*
X148397737Y-122374073D01*
X148406163Y-122376495D01*
X148414499Y-122379171D01*
X148422744Y-122382103D01*
X148430900Y-122385290D01*
X148438965Y-122388731D01*
X148446940Y-122392428D01*
X148454825Y-122396379D01*
X148454825Y-122574383D01*
G37*
G36*
X148900746Y-122363839D02*
G01*
X148909874Y-122364112D01*
X148918917Y-122364566D01*
X148927875Y-122365202D01*
X148936747Y-122366019D01*
X148945534Y-122367018D01*
X148954235Y-122368199D01*
X148962851Y-122369561D01*
X148971381Y-122371105D01*
X148979825Y-122372831D01*
X148988185Y-122374738D01*
X148996458Y-122376827D01*
X149004647Y-122379098D01*
X149012749Y-122381551D01*
X149020767Y-122384185D01*
X149028698Y-122387000D01*
X149036522Y-122389955D01*
X149044214Y-122393054D01*
X149051775Y-122396299D01*
X149059204Y-122399689D01*
X149066503Y-122403223D01*
X149073670Y-122406903D01*
X149080705Y-122410728D01*
X149087610Y-122414697D01*
X149094383Y-122418812D01*
X149101025Y-122423072D01*
X149107535Y-122427477D01*
X149113915Y-122432026D01*
X149123238Y-122439123D01*
X149132265Y-122446546D01*
X149138119Y-122451676D01*
X149146657Y-122459582D01*
X149154830Y-122467766D01*
X149162639Y-122476228D01*
X149170084Y-122484969D01*
X149177166Y-122493988D01*
X149183883Y-122503285D01*
X149190236Y-122512860D01*
X149196225Y-122522714D01*
X149201849Y-122532845D01*
X149207110Y-122543255D01*
X149210415Y-122550350D01*
X149213538Y-122557553D01*
X149216460Y-122564852D01*
X149219180Y-122572245D01*
X149221699Y-122579732D01*
X149224016Y-122587314D01*
X149226132Y-122594991D01*
X149228046Y-122602763D01*
X149229759Y-122610629D01*
X149231270Y-122618590D01*
X149232580Y-122626645D01*
X149233688Y-122634795D01*
X149234595Y-122643040D01*
X149235300Y-122651379D01*
X149235804Y-122659813D01*
X149236106Y-122668342D01*
X149236207Y-122676965D01*
X149236104Y-122685565D01*
X149235795Y-122694071D01*
X149235280Y-122702485D01*
X149234559Y-122710805D01*
X149233631Y-122719032D01*
X149232498Y-122727166D01*
X149231158Y-122735207D01*
X149229613Y-122743155D01*
X149227861Y-122751010D01*
X149225903Y-122758771D01*
X149223739Y-122766440D01*
X149221369Y-122774015D01*
X149218793Y-122781497D01*
X149216011Y-122788887D01*
X149213023Y-122796183D01*
X149209829Y-122803385D01*
X149206455Y-122810481D01*
X149201109Y-122820895D01*
X149195419Y-122831034D01*
X149189385Y-122840898D01*
X149183008Y-122850488D01*
X149176288Y-122859802D01*
X149169224Y-122868842D01*
X149161816Y-122877608D01*
X149154065Y-122886098D01*
X149145971Y-122894314D01*
X149137533Y-122902255D01*
X149128797Y-122909857D01*
X149119735Y-122917129D01*
X149110346Y-122924072D01*
X149103906Y-122928517D01*
X149097320Y-122932816D01*
X149090590Y-122936968D01*
X149083714Y-122940974D01*
X149076694Y-122944833D01*
X149069528Y-122948545D01*
X149062218Y-122952111D01*
X149054762Y-122955530D01*
X149047162Y-122958803D01*
X149039416Y-122961930D01*
X149031526Y-122964909D01*
X149027526Y-122966344D01*
X149019448Y-122969089D01*
X149011287Y-122971657D01*
X149003041Y-122974047D01*
X148994712Y-122976260D01*
X148986299Y-122978297D01*
X148977801Y-122980156D01*
X148969220Y-122981838D01*
X148960555Y-122983344D01*
X148951805Y-122984672D01*
X148942972Y-122985823D01*
X148934055Y-122986797D01*
X148925054Y-122987593D01*
X148915969Y-122988213D01*
X148906800Y-122988656D01*
X148897547Y-122988921D01*
X148888210Y-122989010D01*
X148879021Y-122988921D01*
X148869919Y-122988656D01*
X148860904Y-122988213D01*
X148851977Y-122987593D01*
X148843136Y-122986797D01*
X148834382Y-122985823D01*
X148825715Y-122984672D01*
X148817135Y-122983344D01*
X148808642Y-122981838D01*
X148800237Y-122980156D01*
X148791918Y-122978297D01*
X148783686Y-122976260D01*
X148775541Y-122974047D01*
X148767484Y-122971657D01*
X148759513Y-122969089D01*
X148751629Y-122966344D01*
X148743881Y-122963435D01*
X148736266Y-122960376D01*
X148728787Y-122957165D01*
X148721441Y-122953802D01*
X148714230Y-122950289D01*
X148707153Y-122946625D01*
X148700210Y-122942809D01*
X148693402Y-122938842D01*
X148686728Y-122934725D01*
X148676969Y-122928265D01*
X148667512Y-122921465D01*
X148658358Y-122914325D01*
X148649505Y-122906844D01*
X148643772Y-122901669D01*
X148635444Y-122893614D01*
X148627459Y-122885279D01*
X148619818Y-122876661D01*
X148612521Y-122867762D01*
X148605567Y-122858581D01*
X148598956Y-122849118D01*
X148592689Y-122839374D01*
X148586765Y-122829348D01*
X148581185Y-122819041D01*
X148577656Y-122812013D01*
X148574279Y-122804860D01*
X148572648Y-122801236D01*
X148569549Y-122793882D01*
X148566649Y-122786426D01*
X148563949Y-122778867D01*
X148561450Y-122771206D01*
X148559150Y-122763443D01*
X148557050Y-122755578D01*
X148555150Y-122747610D01*
X148553451Y-122739540D01*
X148551951Y-122731368D01*
X148550651Y-122723094D01*
X148549551Y-122714717D01*
X148548651Y-122706238D01*
X148547951Y-122697656D01*
X148547451Y-122688973D01*
X148547152Y-122680187D01*
X148547089Y-122674621D01*
X148761008Y-122674621D01*
X148761266Y-122683783D01*
X148762039Y-122692706D01*
X148763327Y-122701391D01*
X148765130Y-122709837D01*
X148767448Y-122718045D01*
X148770282Y-122726015D01*
X148771560Y-122729136D01*
X148775019Y-122736677D01*
X148778803Y-122743912D01*
X148782911Y-122750843D01*
X148787344Y-122757468D01*
X148792101Y-122763788D01*
X148797182Y-122769802D01*
X148799306Y-122772122D01*
X148804902Y-122777662D01*
X148810823Y-122782800D01*
X148817068Y-122787538D01*
X148823638Y-122791875D01*
X148830532Y-122795812D01*
X148837751Y-122799348D01*
X148840729Y-122800650D01*
X148848306Y-122803577D01*
X148856017Y-122806008D01*
X148863862Y-122807943D01*
X148871840Y-122809382D01*
X148879951Y-122810324D01*
X148888196Y-122810771D01*
X148891532Y-122810810D01*
X148899882Y-122810562D01*
X148908079Y-122809818D01*
X148916124Y-122808578D01*
X148924016Y-122806841D01*
X148931755Y-122804609D01*
X148939342Y-122801880D01*
X148942334Y-122800650D01*
X148949678Y-122797274D01*
X148956687Y-122793498D01*
X148963363Y-122789321D01*
X148969705Y-122784744D01*
X148976874Y-122778721D01*
X148982481Y-122773262D01*
X148983562Y-122772122D01*
X148988830Y-122766230D01*
X148993763Y-122760032D01*
X148998363Y-122753529D01*
X149002629Y-122746721D01*
X149006560Y-122739607D01*
X149010158Y-122732189D01*
X149011504Y-122729136D01*
X149014600Y-122721290D01*
X149017171Y-122713264D01*
X149019217Y-122705056D01*
X149020739Y-122696667D01*
X149021736Y-122688096D01*
X149022208Y-122679344D01*
X149022250Y-122675793D01*
X149021988Y-122667311D01*
X149021201Y-122658963D01*
X149019889Y-122650749D01*
X149018052Y-122642668D01*
X149015691Y-122634720D01*
X149012805Y-122626906D01*
X149011504Y-122623818D01*
X149008039Y-122616277D01*
X149004241Y-122609041D01*
X149000109Y-122602111D01*
X148995643Y-122595486D01*
X148990843Y-122589166D01*
X148985709Y-122583152D01*
X148983562Y-122580831D01*
X148978022Y-122575292D01*
X148970933Y-122569174D01*
X148963363Y-122563632D01*
X148956687Y-122559455D01*
X148949678Y-122555679D01*
X148942334Y-122552304D01*
X148934808Y-122549320D01*
X148927130Y-122546843D01*
X148919299Y-122544871D01*
X148911315Y-122543404D01*
X148903179Y-122542443D01*
X148894890Y-122541988D01*
X148891532Y-122541948D01*
X148883233Y-122542201D01*
X148875068Y-122542959D01*
X148867037Y-122544223D01*
X148859139Y-122545993D01*
X148851375Y-122548269D01*
X148843744Y-122551050D01*
X148840729Y-122552304D01*
X148833381Y-122555679D01*
X148826357Y-122559455D01*
X148819657Y-122563632D01*
X148813282Y-122568210D01*
X148807232Y-122573188D01*
X148801505Y-122578567D01*
X148799306Y-122580831D01*
X148794094Y-122586709D01*
X148789208Y-122592864D01*
X148784645Y-122599296D01*
X148780407Y-122606004D01*
X148776494Y-122612988D01*
X148772904Y-122620250D01*
X148771560Y-122623232D01*
X148768520Y-122630823D01*
X148765995Y-122638577D01*
X148763986Y-122646493D01*
X148762492Y-122654571D01*
X148761513Y-122662812D01*
X148761049Y-122671214D01*
X148761008Y-122674621D01*
X148547089Y-122674621D01*
X148547052Y-122671299D01*
X148547152Y-122663224D01*
X148547451Y-122655219D01*
X148547951Y-122647281D01*
X148548651Y-122639413D01*
X148549551Y-122631613D01*
X148551276Y-122620042D01*
X148553451Y-122608626D01*
X148556075Y-122597364D01*
X148559150Y-122586257D01*
X148562674Y-122575305D01*
X148566649Y-122564507D01*
X148571073Y-122553863D01*
X148572648Y-122550350D01*
X148577659Y-122539964D01*
X148583021Y-122529836D01*
X148588733Y-122519965D01*
X148594795Y-122510352D01*
X148601207Y-122500997D01*
X148607970Y-122491899D01*
X148615083Y-122483058D01*
X148622547Y-122474476D01*
X148630361Y-122466151D01*
X148638525Y-122458083D01*
X148644162Y-122452848D01*
X148652923Y-122445203D01*
X148661986Y-122437873D01*
X148671351Y-122430859D01*
X148677763Y-122426359D01*
X148684308Y-122421999D01*
X148690988Y-122417780D01*
X148697803Y-122413701D01*
X148704751Y-122409763D01*
X148711835Y-122405965D01*
X148719052Y-122402307D01*
X148726404Y-122398790D01*
X148733890Y-122395414D01*
X148741510Y-122392177D01*
X148749265Y-122389082D01*
X148753192Y-122387586D01*
X148761152Y-122384700D01*
X148769203Y-122381999D01*
X148777345Y-122379485D01*
X148785579Y-122377157D01*
X148793905Y-122375016D01*
X148802322Y-122373060D01*
X148810831Y-122371291D01*
X148819431Y-122369708D01*
X148828123Y-122368311D01*
X148836907Y-122367101D01*
X148845782Y-122366076D01*
X148854749Y-122365238D01*
X148863807Y-122364586D01*
X148872957Y-122364121D01*
X148882199Y-122363841D01*
X148891532Y-122363748D01*
X148900746Y-122363839D01*
G37*
G36*
X149747871Y-122363961D02*
G01*
X149759373Y-122364600D01*
X149770727Y-122365665D01*
X149781934Y-122367155D01*
X149792993Y-122369072D01*
X149803905Y-122371414D01*
X149814668Y-122374183D01*
X149825284Y-122377377D01*
X149835753Y-122380997D01*
X149846073Y-122385043D01*
X149852871Y-122387977D01*
X149862894Y-122392676D01*
X149872667Y-122397688D01*
X149882188Y-122403012D01*
X149891459Y-122408649D01*
X149900479Y-122414599D01*
X149909248Y-122420861D01*
X149917767Y-122427435D01*
X149926034Y-122434322D01*
X149934052Y-122441522D01*
X149941818Y-122449034D01*
X149946856Y-122454216D01*
X149954209Y-122462185D01*
X149961245Y-122470411D01*
X149967966Y-122478896D01*
X149974370Y-122487637D01*
X149980459Y-122496637D01*
X149986231Y-122505894D01*
X149991688Y-122515408D01*
X149996828Y-122525181D01*
X150001653Y-122535210D01*
X150006161Y-122545498D01*
X150008992Y-122552499D01*
X150012972Y-122563157D01*
X150016562Y-122573957D01*
X150019759Y-122584897D01*
X150022565Y-122595977D01*
X150024980Y-122607199D01*
X150027003Y-122618561D01*
X150028634Y-122630065D01*
X150029874Y-122641709D01*
X150030483Y-122649550D01*
X150030918Y-122657453D01*
X150031179Y-122665419D01*
X150031266Y-122673448D01*
X150031179Y-122681472D01*
X150030918Y-122689425D01*
X150030483Y-122697305D01*
X150029874Y-122705114D01*
X150028634Y-122716693D01*
X150027003Y-122728111D01*
X150024980Y-122739366D01*
X150022565Y-122750461D01*
X150019759Y-122761394D01*
X150016562Y-122772166D01*
X150012972Y-122782776D01*
X150008992Y-122793225D01*
X150004699Y-122803476D01*
X150000100Y-122813494D01*
X149995196Y-122823278D01*
X149989986Y-122832829D01*
X149984471Y-122842146D01*
X149978650Y-122851230D01*
X149972523Y-122860080D01*
X149966090Y-122868696D01*
X149959352Y-122877079D01*
X149952308Y-122885228D01*
X149947442Y-122890531D01*
X149939953Y-122898212D01*
X149932213Y-122905573D01*
X149924222Y-122912614D01*
X149915981Y-122919337D01*
X149907489Y-122925739D01*
X149898746Y-122931823D01*
X149889752Y-122937587D01*
X149880508Y-122943031D01*
X149871012Y-122948156D01*
X149861267Y-122952962D01*
X149854630Y-122955988D01*
X149844511Y-122960214D01*
X149834230Y-122964023D01*
X149823788Y-122967417D01*
X149813185Y-122970396D01*
X149802420Y-122972958D01*
X149791494Y-122975106D01*
X149780406Y-122976837D01*
X149769157Y-122978153D01*
X149757747Y-122979054D01*
X149746175Y-122979539D01*
X149738370Y-122979631D01*
X149724836Y-122979336D01*
X149711586Y-122978453D01*
X149698622Y-122976979D01*
X149685944Y-122974917D01*
X149673551Y-122972266D01*
X149661443Y-122969025D01*
X149649621Y-122965195D01*
X149638084Y-122960775D01*
X149626833Y-122955767D01*
X149615867Y-122950169D01*
X149605187Y-122943982D01*
X149594792Y-122937206D01*
X149584683Y-122929841D01*
X149574859Y-122921886D01*
X149565321Y-122913342D01*
X149556068Y-122904209D01*
X149556068Y-123251620D01*
X149355984Y-123251620D01*
X149355984Y-122672276D01*
X149550401Y-122672276D01*
X149550649Y-122680560D01*
X149551393Y-122688682D01*
X149552634Y-122696642D01*
X149554370Y-122704440D01*
X149556603Y-122712075D01*
X149559331Y-122719548D01*
X149560562Y-122722492D01*
X149563993Y-122729667D01*
X149567816Y-122736536D01*
X149572920Y-122744376D01*
X149578588Y-122751777D01*
X149584818Y-122758738D01*
X149589285Y-122763134D01*
X149595177Y-122768345D01*
X149601375Y-122773232D01*
X149607878Y-122777794D01*
X149614686Y-122782032D01*
X149621799Y-122785946D01*
X149629218Y-122789535D01*
X149632271Y-122790880D01*
X149640037Y-122793920D01*
X149647945Y-122796444D01*
X149655996Y-122798454D01*
X149664191Y-122799948D01*
X149672528Y-122800927D01*
X149681009Y-122801390D01*
X149684442Y-122801431D01*
X149692909Y-122801188D01*
X149701214Y-122800458D01*
X149709357Y-122799242D01*
X149717338Y-122797539D01*
X149725157Y-122795349D01*
X149732813Y-122792673D01*
X149735830Y-122791466D01*
X149743244Y-122788161D01*
X149750344Y-122784475D01*
X149757128Y-122780407D01*
X149763598Y-122775957D01*
X149769752Y-122771126D01*
X149775592Y-122765912D01*
X149777840Y-122763720D01*
X149783225Y-122758025D01*
X149789233Y-122750826D01*
X149793862Y-122744523D01*
X149798148Y-122737943D01*
X149802090Y-122731086D01*
X149805689Y-122723952D01*
X149806368Y-122722492D01*
X149809520Y-122715108D01*
X149812138Y-122707609D01*
X149814222Y-122699995D01*
X149815771Y-122692267D01*
X149816786Y-122684425D01*
X149817267Y-122676468D01*
X149817310Y-122673253D01*
X149817071Y-122665011D01*
X149816356Y-122656892D01*
X149815163Y-122648898D01*
X149813493Y-122641028D01*
X149811347Y-122633282D01*
X149808723Y-122625660D01*
X149807540Y-122622646D01*
X149804277Y-122615293D01*
X149800594Y-122608254D01*
X149796492Y-122601531D01*
X149791970Y-122595123D01*
X149787027Y-122589029D01*
X149781666Y-122583250D01*
X149779403Y-122581027D01*
X149773562Y-122575647D01*
X149767397Y-122570620D01*
X149760908Y-122565946D01*
X149754094Y-122561625D01*
X149746955Y-122557657D01*
X149739492Y-122554042D01*
X149736416Y-122552695D01*
X149728627Y-122549599D01*
X149720648Y-122547027D01*
X149712477Y-122544981D01*
X149704115Y-122543459D01*
X149695563Y-122542462D01*
X149686820Y-122541990D01*
X149683269Y-122541948D01*
X149674797Y-122542196D01*
X149666478Y-122542940D01*
X149658311Y-122544180D01*
X149650296Y-122545917D01*
X149642435Y-122548149D01*
X149634726Y-122550878D01*
X149631685Y-122552108D01*
X149624327Y-122555413D01*
X149617275Y-122559100D01*
X149610528Y-122563168D01*
X149604086Y-122567618D01*
X149596758Y-122573461D01*
X149590988Y-122578751D01*
X149589871Y-122579854D01*
X149584481Y-122585564D01*
X149579426Y-122591578D01*
X149574704Y-122597898D01*
X149570316Y-122604523D01*
X149566262Y-122611453D01*
X149562542Y-122618689D01*
X149561148Y-122621669D01*
X149558052Y-122629190D01*
X149555481Y-122636854D01*
X149553434Y-122644661D01*
X149551912Y-122652611D01*
X149550915Y-122660705D01*
X149550443Y-122668941D01*
X149550401Y-122672276D01*
X149355984Y-122672276D01*
X149355984Y-122388759D01*
X149556068Y-122388759D01*
X149556068Y-122451090D01*
X149564511Y-122440513D01*
X149573329Y-122430619D01*
X149582524Y-122421407D01*
X149592093Y-122412878D01*
X149602039Y-122405031D01*
X149612359Y-122397866D01*
X149623056Y-122391384D01*
X149634128Y-122385584D01*
X149645575Y-122380466D01*
X149657398Y-122376031D01*
X149669596Y-122372278D01*
X149682170Y-122369207D01*
X149695120Y-122366819D01*
X149708445Y-122365113D01*
X149722145Y-122364089D01*
X149736221Y-122363748D01*
X149747871Y-122363961D01*
G37*
G36*
X150443785Y-122363835D02*
G01*
X150452701Y-122364096D01*
X150461505Y-122364531D01*
X150470195Y-122365140D01*
X150478773Y-122365924D01*
X150487237Y-122366881D01*
X150495589Y-122368012D01*
X150503828Y-122369317D01*
X150511953Y-122370796D01*
X150519966Y-122372449D01*
X150527866Y-122374277D01*
X150535652Y-122376278D01*
X150543326Y-122378453D01*
X150550887Y-122380803D01*
X150558335Y-122383326D01*
X150565670Y-122386023D01*
X150576429Y-122390377D01*
X150586873Y-122395084D01*
X150597001Y-122400145D01*
X150606813Y-122405560D01*
X150616308Y-122411328D01*
X150625488Y-122417450D01*
X150634352Y-122423926D01*
X150642899Y-122430756D01*
X150651131Y-122437940D01*
X150659047Y-122445477D01*
X150664149Y-122450699D01*
X150671564Y-122458780D01*
X150678643Y-122467199D01*
X150685385Y-122475954D01*
X150691791Y-122485045D01*
X150697860Y-122494474D01*
X150703592Y-122504238D01*
X150708988Y-122514340D01*
X150714047Y-122524778D01*
X150717233Y-122531923D01*
X150720269Y-122539218D01*
X150723156Y-122546663D01*
X150725893Y-122554258D01*
X150728472Y-122561963D01*
X150730885Y-122569788D01*
X150733131Y-122577735D01*
X150735211Y-122585802D01*
X150737124Y-122593989D01*
X150738872Y-122602297D01*
X150740452Y-122610726D01*
X150741867Y-122619275D01*
X150743115Y-122627945D01*
X150744196Y-122636735D01*
X150745111Y-122645647D01*
X150745860Y-122654678D01*
X150746442Y-122663830D01*
X150746858Y-122673103D01*
X150747108Y-122682497D01*
X150747191Y-122692011D01*
X150747191Y-122713895D01*
X150315761Y-122713895D01*
X150316247Y-122729038D01*
X150317705Y-122743204D01*
X150320136Y-122756393D01*
X150323540Y-122768605D01*
X150327915Y-122779840D01*
X150333264Y-122790099D01*
X150339584Y-122799380D01*
X150346877Y-122807684D01*
X150355142Y-122815011D01*
X150364380Y-122821362D01*
X150374590Y-122826735D01*
X150385773Y-122831131D01*
X150397928Y-122834551D01*
X150411055Y-122836993D01*
X150425155Y-122838459D01*
X150440227Y-122838947D01*
X150448452Y-122838746D01*
X150456420Y-122838144D01*
X150467892Y-122836488D01*
X150478787Y-122833929D01*
X150489104Y-122830466D01*
X150498845Y-122826100D01*
X150508009Y-122820831D01*
X150516595Y-122814658D01*
X150524605Y-122807582D01*
X150532038Y-122799603D01*
X150538893Y-122790720D01*
X150541050Y-122787558D01*
X150739180Y-122787558D01*
X150735305Y-122799952D01*
X150731083Y-122811953D01*
X150726511Y-122823560D01*
X150721591Y-122834774D01*
X150716323Y-122845594D01*
X150710707Y-122856021D01*
X150704741Y-122866054D01*
X150698428Y-122875693D01*
X150691766Y-122884940D01*
X150684756Y-122893793D01*
X150677397Y-122902252D01*
X150669690Y-122910318D01*
X150661634Y-122917990D01*
X150653230Y-122925269D01*
X150644478Y-122932155D01*
X150635377Y-122938647D01*
X150625927Y-122944746D01*
X150616130Y-122950451D01*
X150605983Y-122955763D01*
X150595489Y-122960681D01*
X150584646Y-122965206D01*
X150573454Y-122969337D01*
X150561914Y-122973075D01*
X150550026Y-122976419D01*
X150537789Y-122979370D01*
X150525204Y-122981928D01*
X150512270Y-122984092D01*
X150498988Y-122985862D01*
X150485358Y-122987239D01*
X150471379Y-122988223D01*
X150457052Y-122988813D01*
X150442376Y-122989010D01*
X150433361Y-122988923D01*
X150424439Y-122988662D01*
X150415611Y-122988227D01*
X150406875Y-122987618D01*
X150398233Y-122986835D01*
X150389684Y-122985878D01*
X150381228Y-122984746D01*
X150372865Y-122983441D01*
X150364595Y-122981962D01*
X150356418Y-122980309D01*
X150348334Y-122978482D01*
X150340344Y-122976480D01*
X150332446Y-122974305D01*
X150324642Y-122971956D01*
X150316931Y-122969432D01*
X150309313Y-122966735D01*
X150301833Y-122963902D01*
X150294487Y-122960922D01*
X150287276Y-122957796D01*
X150276711Y-122952831D01*
X150266448Y-122947538D01*
X150256487Y-122941914D01*
X150246829Y-122935960D01*
X150237473Y-122929677D01*
X150228419Y-122923064D01*
X150219668Y-122916122D01*
X150211218Y-122908849D01*
X150205754Y-122903818D01*
X150197830Y-122896022D01*
X150190254Y-122887948D01*
X150183025Y-122879595D01*
X150176142Y-122870964D01*
X150169607Y-122862055D01*
X150163418Y-122852868D01*
X150157576Y-122843403D01*
X150152081Y-122833659D01*
X150146933Y-122823638D01*
X150142132Y-122813338D01*
X150139124Y-122806316D01*
X150134934Y-122795537D01*
X150131156Y-122784520D01*
X150128866Y-122777044D01*
X150126759Y-122769462D01*
X150124836Y-122761776D01*
X150123096Y-122753983D01*
X150121539Y-122746086D01*
X150120165Y-122738083D01*
X150118974Y-122729975D01*
X150117967Y-122721762D01*
X150117142Y-122713443D01*
X150116501Y-122705019D01*
X150116043Y-122696489D01*
X150115768Y-122687855D01*
X150115677Y-122679115D01*
X150115764Y-122670085D01*
X150116025Y-122661169D01*
X150116460Y-122652365D01*
X150117069Y-122643675D01*
X150117852Y-122635098D01*
X150118809Y-122626633D01*
X150119940Y-122618281D01*
X150121246Y-122610043D01*
X150122725Y-122601917D01*
X150122842Y-122601348D01*
X150321427Y-122601348D01*
X150555900Y-122601348D01*
X150553771Y-122593041D01*
X150551268Y-122585047D01*
X150548390Y-122577365D01*
X150545138Y-122569996D01*
X150541512Y-122562940D01*
X150537511Y-122556196D01*
X150531594Y-122547690D01*
X150525012Y-122539740D01*
X150517764Y-122532345D01*
X150513890Y-122528856D01*
X150505763Y-122522399D01*
X150497209Y-122516803D01*
X150488227Y-122512068D01*
X150478817Y-122508193D01*
X150468980Y-122505180D01*
X150461322Y-122503485D01*
X150453423Y-122502274D01*
X150445284Y-122501548D01*
X150436905Y-122501306D01*
X150428155Y-122501536D01*
X150419711Y-122502226D01*
X150411573Y-122503377D01*
X150403740Y-122504988D01*
X150393772Y-122507852D01*
X150384347Y-122511534D01*
X150375466Y-122516034D01*
X150367128Y-122521352D01*
X150359333Y-122527489D01*
X150352159Y-122534370D01*
X150345680Y-122541923D01*
X150339898Y-122550148D01*
X150334811Y-122559045D01*
X150331454Y-122566158D01*
X150328487Y-122573649D01*
X150325912Y-122581518D01*
X150323729Y-122589765D01*
X150321937Y-122598389D01*
X150321427Y-122601348D01*
X150122842Y-122601348D01*
X150124378Y-122593904D01*
X150126205Y-122586005D01*
X150128206Y-122578218D01*
X150130382Y-122570544D01*
X150132731Y-122562983D01*
X150135254Y-122555535D01*
X150137952Y-122548200D01*
X150142332Y-122537401D01*
X150147044Y-122526910D01*
X150152091Y-122516729D01*
X150157470Y-122506856D01*
X150163182Y-122497293D01*
X150169228Y-122488039D01*
X150175607Y-122479094D01*
X150182318Y-122470458D01*
X150189364Y-122462131D01*
X150196742Y-122454114D01*
X150201846Y-122448940D01*
X150209765Y-122441413D01*
X150217991Y-122434219D01*
X150226522Y-122427358D01*
X150235359Y-122420831D01*
X150244501Y-122414636D01*
X150253950Y-122408775D01*
X150263703Y-122403247D01*
X150273763Y-122398052D01*
X150284128Y-122393190D01*
X150294799Y-122388662D01*
X150302083Y-122385828D01*
X150309493Y-122383154D01*
X150317021Y-122380653D01*
X150324667Y-122378324D01*
X150332430Y-122376168D01*
X150340311Y-122374184D01*
X150348309Y-122372373D01*
X150356425Y-122370734D01*
X150364658Y-122369268D01*
X150373009Y-122367974D01*
X150381477Y-122366853D01*
X150390063Y-122365904D01*
X150398766Y-122365128D01*
X150407587Y-122364525D01*
X150416526Y-122364093D01*
X150425582Y-122363835D01*
X150434756Y-122363748D01*
X150443785Y-122363835D01*
G37*
G36*
X151296640Y-122574383D02*
G01*
X151290115Y-122570077D01*
X151280318Y-122564138D01*
X151270506Y-122558825D01*
X151260680Y-122554137D01*
X151250841Y-122550074D01*
X151240988Y-122546635D01*
X151231122Y-122543822D01*
X151221241Y-122541635D01*
X151211347Y-122540072D01*
X151201439Y-122539134D01*
X151191518Y-122538822D01*
X151182576Y-122539070D01*
X151173825Y-122539814D01*
X151165265Y-122541054D01*
X151156896Y-122542790D01*
X151148718Y-122545023D01*
X151140730Y-122547752D01*
X151137589Y-122548982D01*
X151129982Y-122552301D01*
X151122671Y-122556031D01*
X151115656Y-122560170D01*
X151108936Y-122564720D01*
X151102512Y-122569681D01*
X151096384Y-122575051D01*
X151094016Y-122577314D01*
X151088354Y-122583221D01*
X151083094Y-122589461D01*
X151078234Y-122596036D01*
X151073774Y-122602944D01*
X151069716Y-122610187D01*
X151066058Y-122617763D01*
X151064707Y-122620887D01*
X151061667Y-122628846D01*
X151059143Y-122637091D01*
X151057133Y-122645622D01*
X151055639Y-122654440D01*
X151054660Y-122663544D01*
X151054197Y-122672934D01*
X151054156Y-122676770D01*
X151054413Y-122686054D01*
X151055186Y-122695100D01*
X151056474Y-122703907D01*
X151058277Y-122712475D01*
X151060595Y-122720805D01*
X151063429Y-122728897D01*
X151064707Y-122732066D01*
X151068190Y-122739720D01*
X151072046Y-122747049D01*
X151076273Y-122754054D01*
X151080873Y-122760734D01*
X151085844Y-122767091D01*
X151091188Y-122773122D01*
X151093430Y-122775444D01*
X151099285Y-122780983D01*
X151105493Y-122786122D01*
X151112054Y-122790860D01*
X151118968Y-122795197D01*
X151126236Y-122799134D01*
X151133856Y-122802669D01*
X151137003Y-122803972D01*
X151145083Y-122806842D01*
X151153325Y-122809227D01*
X151161729Y-122811124D01*
X151170296Y-122812535D01*
X151179025Y-122813460D01*
X151187916Y-122813898D01*
X151191518Y-122813937D01*
X151202004Y-122813593D01*
X151212359Y-122812563D01*
X151222584Y-122810845D01*
X151232679Y-122808441D01*
X151242643Y-122805350D01*
X151252476Y-122801572D01*
X151262179Y-122797107D01*
X151271751Y-122791955D01*
X151281193Y-122786116D01*
X151290505Y-122779590D01*
X151296640Y-122774858D01*
X151296640Y-122944655D01*
X151287268Y-122948512D01*
X151277958Y-122952120D01*
X151268711Y-122955479D01*
X151259527Y-122958590D01*
X151250405Y-122961451D01*
X151241346Y-122964064D01*
X151232350Y-122966427D01*
X151223416Y-122968542D01*
X151214544Y-122970409D01*
X151205736Y-122972026D01*
X151196989Y-122973394D01*
X151188306Y-122974514D01*
X151179685Y-122975385D01*
X151171126Y-122976007D01*
X151162631Y-122976380D01*
X151154197Y-122976505D01*
X151146381Y-122976422D01*
X151134745Y-122975985D01*
X151123215Y-122975174D01*
X151111792Y-122973988D01*
X151100475Y-122972428D01*
X151089265Y-122970494D01*
X151078162Y-122968185D01*
X151067164Y-122965502D01*
X151056274Y-122962445D01*
X151045489Y-122959013D01*
X151034811Y-122955207D01*
X151024304Y-122951050D01*
X151014029Y-122946567D01*
X151003989Y-122941758D01*
X150994182Y-122936623D01*
X150984608Y-122931161D01*
X150975268Y-122925373D01*
X150966162Y-122919259D01*
X150957289Y-122912818D01*
X150948649Y-122906052D01*
X150940244Y-122898958D01*
X150934770Y-122894048D01*
X150926826Y-122886400D01*
X150919188Y-122878478D01*
X150911855Y-122870280D01*
X150904828Y-122861808D01*
X150898107Y-122853061D01*
X150891692Y-122844040D01*
X150885582Y-122834743D01*
X150879778Y-122825172D01*
X150874280Y-122815326D01*
X150869087Y-122805205D01*
X150865795Y-122798305D01*
X150861221Y-122787750D01*
X150857097Y-122776969D01*
X150853422Y-122765961D01*
X150850197Y-122754726D01*
X150848298Y-122747110D01*
X150846598Y-122739394D01*
X150845098Y-122731576D01*
X150843798Y-122723658D01*
X150842698Y-122715640D01*
X150841799Y-122707520D01*
X150841099Y-122699300D01*
X150840599Y-122690979D01*
X150840299Y-122682557D01*
X150840199Y-122674034D01*
X150840295Y-122665531D01*
X150840583Y-122657118D01*
X150841064Y-122648794D01*
X150841737Y-122640561D01*
X150842603Y-122632418D01*
X150843661Y-122624365D01*
X150844911Y-122616401D01*
X150846354Y-122608528D01*
X150847989Y-122600746D01*
X150849816Y-122593053D01*
X150851835Y-122585450D01*
X150854047Y-122577937D01*
X150857726Y-122566837D01*
X150861837Y-122555939D01*
X150864818Y-122548787D01*
X150869593Y-122538265D01*
X150874683Y-122528021D01*
X150880089Y-122518055D01*
X150885811Y-122508368D01*
X150891849Y-122498958D01*
X150898203Y-122489827D01*
X150904874Y-122480974D01*
X150911860Y-122472400D01*
X150919162Y-122464103D01*
X150926780Y-122456085D01*
X150932034Y-122450894D01*
X150940198Y-122443358D01*
X150948644Y-122436139D01*
X150957372Y-122429235D01*
X150966381Y-122422647D01*
X150975671Y-122416376D01*
X150985244Y-122410420D01*
X150995098Y-122404780D01*
X151005234Y-122399457D01*
X151015651Y-122394449D01*
X151026350Y-122389757D01*
X151033639Y-122386805D01*
X151041024Y-122384013D01*
X151048474Y-122381401D01*
X151055990Y-122378969D01*
X151063571Y-122376718D01*
X151071218Y-122374646D01*
X151078931Y-122372755D01*
X151086709Y-122371044D01*
X151094553Y-122369512D01*
X151102463Y-122368161D01*
X151110438Y-122366991D01*
X151118479Y-122366000D01*
X151126586Y-122365189D01*
X151134758Y-122364559D01*
X151142996Y-122364109D01*
X151151299Y-122363838D01*
X151159668Y-122363748D01*
X151168905Y-122363876D01*
X151178051Y-122364258D01*
X151187107Y-122364895D01*
X151196073Y-122365788D01*
X151204949Y-122366935D01*
X151213735Y-122368337D01*
X151222430Y-122369994D01*
X151231036Y-122371906D01*
X151239552Y-122374073D01*
X151247977Y-122376495D01*
X151256313Y-122379171D01*
X151264559Y-122382103D01*
X151272714Y-122385290D01*
X151280779Y-122388731D01*
X151288755Y-122392428D01*
X151296640Y-122396379D01*
X151296640Y-122574383D01*
G37*
G36*
X151742560Y-122363839D02*
G01*
X151751689Y-122364112D01*
X151760732Y-122364566D01*
X151769689Y-122365202D01*
X151778561Y-122366019D01*
X151787348Y-122367018D01*
X151796049Y-122368199D01*
X151804665Y-122369561D01*
X151813195Y-122371105D01*
X151821640Y-122372831D01*
X151829999Y-122374738D01*
X151838273Y-122376827D01*
X151846461Y-122379098D01*
X151854564Y-122381551D01*
X151862581Y-122384185D01*
X151870513Y-122387000D01*
X151878336Y-122389955D01*
X151886028Y-122393054D01*
X151893589Y-122396299D01*
X151901019Y-122399689D01*
X151908317Y-122403223D01*
X151915484Y-122406903D01*
X151922520Y-122410728D01*
X151929424Y-122414697D01*
X151936197Y-122418812D01*
X151942839Y-122423072D01*
X151949350Y-122427477D01*
X151955729Y-122432026D01*
X151965052Y-122439123D01*
X151974079Y-122446546D01*
X151979934Y-122451676D01*
X151988471Y-122459582D01*
X151996644Y-122467766D01*
X152004454Y-122476228D01*
X152011899Y-122484969D01*
X152018980Y-122493988D01*
X152025697Y-122503285D01*
X152032050Y-122512860D01*
X152038039Y-122522714D01*
X152043664Y-122532845D01*
X152048925Y-122543255D01*
X152052229Y-122550350D01*
X152055353Y-122557553D01*
X152058274Y-122564852D01*
X152060995Y-122572245D01*
X152063513Y-122579732D01*
X152065831Y-122587314D01*
X152067947Y-122594991D01*
X152069861Y-122602763D01*
X152071574Y-122610629D01*
X152073085Y-122618590D01*
X152074395Y-122626645D01*
X152075503Y-122634795D01*
X152076410Y-122643040D01*
X152077115Y-122651379D01*
X152077619Y-122659813D01*
X152077921Y-122668342D01*
X152078022Y-122676965D01*
X152077918Y-122685565D01*
X152077609Y-122694071D01*
X152077094Y-122702485D01*
X152076373Y-122710805D01*
X152075446Y-122719032D01*
X152074312Y-122727166D01*
X152072973Y-122735207D01*
X152071427Y-122743155D01*
X152069675Y-122751010D01*
X152067718Y-122758771D01*
X152065554Y-122766440D01*
X152063184Y-122774015D01*
X152060608Y-122781497D01*
X152057826Y-122788887D01*
X152054838Y-122796183D01*
X152051643Y-122803385D01*
X152048270Y-122810481D01*
X152042923Y-122820895D01*
X152037233Y-122831034D01*
X152031199Y-122840898D01*
X152024822Y-122850488D01*
X152018102Y-122859802D01*
X152011038Y-122868842D01*
X152003630Y-122877608D01*
X151995880Y-122886098D01*
X151987785Y-122894314D01*
X151979347Y-122902255D01*
X151970611Y-122909857D01*
X151961549Y-122917129D01*
X151952160Y-122924072D01*
X151945720Y-122928517D01*
X151939135Y-122932816D01*
X151932404Y-122936968D01*
X151925529Y-122940974D01*
X151918508Y-122944833D01*
X151911343Y-122948545D01*
X151904032Y-122952111D01*
X151896577Y-122955530D01*
X151888976Y-122958803D01*
X151881231Y-122961930D01*
X151873340Y-122964909D01*
X151869340Y-122966344D01*
X151861263Y-122969089D01*
X151853101Y-122971657D01*
X151844856Y-122974047D01*
X151836526Y-122976260D01*
X151828113Y-122978297D01*
X151819616Y-122980156D01*
X151811034Y-122981838D01*
X151802369Y-122983344D01*
X151793620Y-122984672D01*
X151784787Y-122985823D01*
X151775869Y-122986797D01*
X151766868Y-122987593D01*
X151757783Y-122988213D01*
X151748614Y-122988656D01*
X151739361Y-122988921D01*
X151730024Y-122989010D01*
X151720835Y-122988921D01*
X151711734Y-122988656D01*
X151702719Y-122988213D01*
X151693791Y-122987593D01*
X151684950Y-122986797D01*
X151676196Y-122985823D01*
X151667529Y-122984672D01*
X151658950Y-122983344D01*
X151650457Y-122981838D01*
X151642051Y-122980156D01*
X151633732Y-122978297D01*
X151625501Y-122976260D01*
X151617356Y-122974047D01*
X151609298Y-122971657D01*
X151601327Y-122969089D01*
X151593444Y-122966344D01*
X151585695Y-122963435D01*
X151578081Y-122960376D01*
X151570601Y-122957165D01*
X151563255Y-122953802D01*
X151556044Y-122950289D01*
X151548967Y-122946625D01*
X151542024Y-122942809D01*
X151535216Y-122938842D01*
X151528542Y-122934725D01*
X151518783Y-122928265D01*
X151509326Y-122921465D01*
X151500172Y-122914325D01*
X151491320Y-122906844D01*
X151485586Y-122901669D01*
X151477258Y-122893614D01*
X151469274Y-122885279D01*
X151461633Y-122876661D01*
X151454335Y-122867762D01*
X151447381Y-122858581D01*
X151440771Y-122849118D01*
X151434503Y-122839374D01*
X151428580Y-122829348D01*
X151423000Y-122819041D01*
X151419470Y-122812013D01*
X151416094Y-122804860D01*
X151414463Y-122801236D01*
X151411363Y-122793882D01*
X151408463Y-122786426D01*
X151405764Y-122778867D01*
X151403264Y-122771206D01*
X151400964Y-122763443D01*
X151398865Y-122755578D01*
X151396965Y-122747610D01*
X151395265Y-122739540D01*
X151393765Y-122731368D01*
X151392465Y-122723094D01*
X151391366Y-122714717D01*
X151390466Y-122706238D01*
X151389766Y-122697656D01*
X151389266Y-122688973D01*
X151388966Y-122680187D01*
X151388903Y-122674621D01*
X151602823Y-122674621D01*
X151603080Y-122683783D01*
X151603853Y-122692706D01*
X151605141Y-122701391D01*
X151606944Y-122709837D01*
X151609263Y-122718045D01*
X151612096Y-122726015D01*
X151613374Y-122729136D01*
X151616833Y-122736677D01*
X151620617Y-122743912D01*
X151624725Y-122750843D01*
X151629158Y-122757468D01*
X151633915Y-122763788D01*
X151638997Y-122769802D01*
X151641120Y-122772122D01*
X151646717Y-122777662D01*
X151652637Y-122782800D01*
X151658883Y-122787538D01*
X151665453Y-122791875D01*
X151672347Y-122795812D01*
X151679565Y-122799348D01*
X151682543Y-122800650D01*
X151690121Y-122803577D01*
X151697832Y-122806008D01*
X151705676Y-122807943D01*
X151713654Y-122809382D01*
X151721765Y-122810324D01*
X151730011Y-122810771D01*
X151733346Y-122810810D01*
X151741696Y-122810562D01*
X151749893Y-122809818D01*
X151757938Y-122808578D01*
X151765830Y-122806841D01*
X151773570Y-122804609D01*
X151781157Y-122801880D01*
X151784149Y-122800650D01*
X151791492Y-122797274D01*
X151798502Y-122793498D01*
X151805177Y-122789321D01*
X151811519Y-122784744D01*
X151818688Y-122778721D01*
X151824295Y-122773262D01*
X151825377Y-122772122D01*
X151830644Y-122766230D01*
X151835578Y-122760032D01*
X151840177Y-122753529D01*
X151844443Y-122746721D01*
X151848375Y-122739607D01*
X151851972Y-122732189D01*
X151853318Y-122729136D01*
X151856414Y-122721290D01*
X151858985Y-122713264D01*
X151861032Y-122705056D01*
X151862554Y-122696667D01*
X151863551Y-122688096D01*
X151864023Y-122679344D01*
X151864065Y-122675793D01*
X151863802Y-122667311D01*
X151863015Y-122658963D01*
X151861703Y-122650749D01*
X151859867Y-122642668D01*
X151857506Y-122634720D01*
X151854619Y-122626906D01*
X151853318Y-122623818D01*
X151849854Y-122616277D01*
X151846056Y-122609041D01*
X151841924Y-122602111D01*
X151837458Y-122595486D01*
X151832658Y-122589166D01*
X151827524Y-122583152D01*
X151825377Y-122580831D01*
X151819836Y-122575292D01*
X151812747Y-122569174D01*
X151805177Y-122563632D01*
X151798502Y-122559455D01*
X151791492Y-122555679D01*
X151784149Y-122552304D01*
X151776623Y-122549320D01*
X151768944Y-122546843D01*
X151761113Y-122544871D01*
X151753130Y-122543404D01*
X151744993Y-122542443D01*
X151736704Y-122541988D01*
X151733346Y-122541948D01*
X151725047Y-122542201D01*
X151716883Y-122542959D01*
X151708851Y-122544223D01*
X151700953Y-122545993D01*
X151693189Y-122548269D01*
X151685558Y-122551050D01*
X151682543Y-122552304D01*
X151675195Y-122555679D01*
X151668171Y-122559455D01*
X151661472Y-122563632D01*
X151655097Y-122568210D01*
X151649046Y-122573188D01*
X151643320Y-122578567D01*
X151641120Y-122580831D01*
X151635909Y-122586709D01*
X151631022Y-122592864D01*
X151626460Y-122599296D01*
X151622222Y-122606004D01*
X151618308Y-122612988D01*
X151614719Y-122620250D01*
X151613374Y-122623232D01*
X151610334Y-122630823D01*
X151607810Y-122638577D01*
X151605800Y-122646493D01*
X151604306Y-122654571D01*
X151603328Y-122662812D01*
X151602864Y-122671214D01*
X151602823Y-122674621D01*
X151388903Y-122674621D01*
X151388866Y-122671299D01*
X151388966Y-122663224D01*
X151389266Y-122655219D01*
X151389766Y-122647281D01*
X151390466Y-122639413D01*
X151391366Y-122631613D01*
X151393090Y-122620042D01*
X151395265Y-122608626D01*
X151397890Y-122597364D01*
X151400964Y-122586257D01*
X151404489Y-122575305D01*
X151408463Y-122564507D01*
X151412888Y-122553863D01*
X151414463Y-122550350D01*
X151419474Y-122539964D01*
X151424835Y-122529836D01*
X151430547Y-122519965D01*
X151436609Y-122510352D01*
X151443022Y-122500997D01*
X151449785Y-122491899D01*
X151456898Y-122483058D01*
X151464361Y-122474476D01*
X151472175Y-122466151D01*
X151480339Y-122458083D01*
X151485977Y-122452848D01*
X151494738Y-122445203D01*
X151503800Y-122437873D01*
X151513166Y-122430859D01*
X151519577Y-122426359D01*
X151526123Y-122421999D01*
X151532803Y-122417780D01*
X151539617Y-122413701D01*
X151546566Y-122409763D01*
X151553649Y-122405965D01*
X151560866Y-122402307D01*
X151568218Y-122398790D01*
X151575704Y-122395414D01*
X151583324Y-122392177D01*
X151591079Y-122389082D01*
X151595007Y-122387586D01*
X151602966Y-122384700D01*
X151611017Y-122381999D01*
X151619159Y-122379485D01*
X151627393Y-122377157D01*
X151635719Y-122375016D01*
X151644136Y-122373060D01*
X151652645Y-122371291D01*
X151661246Y-122369708D01*
X151669938Y-122368311D01*
X151678721Y-122367101D01*
X151687596Y-122366076D01*
X151696563Y-122365238D01*
X151705621Y-122364586D01*
X151714771Y-122364121D01*
X151724013Y-122363841D01*
X151733346Y-122363748D01*
X151742560Y-122363839D01*
G37*
D12*
%TO.P,U2,1,A18*%
%TO.N,A18*%
X139118000Y-82506000D03*
D13*
%TO.P,U2,2,A16*%
%TO.N,A16*%
X139118000Y-85046000D03*
%TO.P,U2,3,A15*%
%TO.N,A15*%
X139118000Y-87586000D03*
%TO.P,U2,4,A12*%
%TO.N,A12*%
X139118000Y-90126000D03*
%TO.P,U2,5,A7*%
%TO.N,A7*%
X139118000Y-92666000D03*
%TO.P,U2,6,A6*%
%TO.N,A6*%
X139118000Y-95206000D03*
%TO.P,U2,7,A5*%
%TO.N,A5*%
X139118000Y-97746000D03*
%TO.P,U2,8,A4*%
%TO.N,A4*%
X139118000Y-100286000D03*
%TO.P,U2,9,A3*%
%TO.N,A3*%
X139118000Y-102826000D03*
%TO.P,U2,10,A2*%
%TO.N,A2*%
X139118000Y-105366000D03*
%TO.P,U2,11,A1*%
%TO.N,A1*%
X139118000Y-107906000D03*
%TO.P,U2,12,A0*%
%TO.N,A0*%
X139118000Y-110446000D03*
%TO.P,U2,13,D0*%
%TO.N,D0*%
X139118000Y-112986000D03*
%TO.P,U2,14,D1*%
%TO.N,D1*%
X139118000Y-115526000D03*
%TO.P,U2,15,D2*%
%TO.N,D2*%
X139118000Y-118066000D03*
%TO.P,U2,16,GND*%
%TO.N,GND*%
X139118000Y-120606000D03*
%TO.P,U2,17,D3*%
%TO.N,D3*%
X154358000Y-120606000D03*
%TO.P,U2,18,D4*%
%TO.N,D4*%
X154358000Y-118066000D03*
%TO.P,U2,19,D5*%
%TO.N,D5*%
X154358000Y-115526000D03*
%TO.P,U2,20,D6*%
%TO.N,D6*%
X154358000Y-112986000D03*
%TO.P,U2,21,D7*%
%TO.N,D7*%
X154358000Y-110446000D03*
%TO.P,U2,22,CE*%
%TO.N,~{CE}*%
X154358000Y-107906000D03*
%TO.P,U2,23,A10*%
%TO.N,A10*%
X154358000Y-105366000D03*
%TO.P,U2,24,OE*%
%TO.N,~{OE}*%
X154358000Y-102826000D03*
%TO.P,U2,25,A11*%
%TO.N,A11*%
X154358000Y-100286000D03*
%TO.P,U2,26,A9*%
%TO.N,A9*%
X154358000Y-97746000D03*
%TO.P,U2,27,A8*%
%TO.N,A8*%
X154358000Y-95206000D03*
%TO.P,U2,28,A13*%
%TO.N,A13*%
X154358000Y-92666000D03*
%TO.P,U2,29,A14*%
%TO.N,A14*%
X154358000Y-90126000D03*
%TO.P,U2,30,A17*%
%TO.N,A17*%
X154358000Y-87586000D03*
%TO.P,U2,31,PGM*%
%TO.N,~{WE}*%
X154358000Y-85046000D03*
%TO.P,U2,32,VCC*%
%TO.N,VCC*%
X154358000Y-82506000D03*
%TD*%
D14*
%TO.P,J3,1,Pin_1*%
%TO.N,VCC*%
X157914000Y-87606000D03*
D15*
%TO.P,J3,2,Pin_2*%
%TO.N,~{WE}*%
X157914000Y-90146000D03*
%TO.P,J3,3,Pin_3*%
%TO.N,A13*%
X157914000Y-92686000D03*
%TO.P,J3,4,Pin_4*%
%TO.N,A8*%
X157914000Y-95226000D03*
%TO.P,J3,5,Pin_5*%
%TO.N,A9*%
X157914000Y-97766000D03*
%TO.P,J3,6,Pin_6*%
%TO.N,A11*%
X157914000Y-100306000D03*
%TO.P,J3,7,Pin_7*%
%TO.N,~{OE}*%
X157914000Y-102846000D03*
%TO.P,J3,8,Pin_8*%
%TO.N,A10*%
X157914000Y-105386000D03*
%TO.P,J3,9,Pin_9*%
%TO.N,~{CE}*%
X157914000Y-107926000D03*
%TO.P,J3,10,Pin_10*%
%TO.N,D7*%
X157914000Y-110466000D03*
%TO.P,J3,11,Pin_11*%
%TO.N,D6*%
X157914000Y-113006000D03*
%TO.P,J3,12,Pin_12*%
%TO.N,D5*%
X157914000Y-115546000D03*
%TO.P,J3,13,Pin_13*%
%TO.N,D4*%
X157914000Y-118086000D03*
%TO.P,J3,14,Pin_14*%
%TO.N,D3*%
X157914000Y-120626000D03*
%TD*%
D14*
%TO.P,J2,1,Pin_1*%
%TO.N,A14*%
X142674000Y-87606000D03*
D15*
%TO.P,J2,2,Pin_2*%
%TO.N,A12*%
X142674000Y-90146000D03*
%TO.P,J2,3,Pin_3*%
%TO.N,A7*%
X142674000Y-92686000D03*
%TO.P,J2,4,Pin_4*%
%TO.N,A6*%
X142674000Y-95226000D03*
%TO.P,J2,5,Pin_5*%
%TO.N,A5*%
X142674000Y-97766000D03*
%TO.P,J2,6,Pin_6*%
%TO.N,A4*%
X142674000Y-100306000D03*
%TO.P,J2,7,Pin_7*%
%TO.N,A3*%
X142674000Y-102846000D03*
%TO.P,J2,8,Pin_8*%
%TO.N,A2*%
X142674000Y-105386000D03*
%TO.P,J2,9,Pin_9*%
%TO.N,A1*%
X142674000Y-107926000D03*
%TO.P,J2,10,Pin_10*%
%TO.N,A0*%
X142674000Y-110466000D03*
%TO.P,J2,11,Pin_11*%
%TO.N,D0*%
X142674000Y-113006000D03*
%TO.P,J2,12,Pin_12*%
%TO.N,D1*%
X142674000Y-115546000D03*
%TO.P,J2,13,Pin_13*%
%TO.N,D2*%
X142674000Y-118086000D03*
%TO.P,J2,14,Pin_14*%
%TO.N,GND*%
X142674000Y-120626000D03*
%TD*%
D16*
%TO.N,A16*%
X152580000Y-89110000D03*
X144534688Y-88265312D03*
%TO.N,A17*%
X148906500Y-87616420D03*
%TO.N,A15*%
X152580000Y-91650000D03*
X144452000Y-91650000D03*
%TD*%
D17*
%TO.N,D2*%
X139118000Y-118066000D02*
X142654000Y-118066000D01*
%TO.N,A16*%
X152580000Y-89110000D02*
X145379376Y-89110000D01*
X145379376Y-89110000D02*
X144534688Y-88265312D01*
%TO.N,D1*%
X139118000Y-115526000D02*
X142654000Y-115526000D01*
%TO.N,D0*%
X139118000Y-112986000D02*
X142654000Y-112986000D01*
%TO.N,A14*%
X145194000Y-90126000D02*
X142674000Y-87606000D01*
X154358000Y-90126000D02*
X145194000Y-90126000D01*
%TO.N,A1*%
X139118000Y-107906000D02*
X142654000Y-107906000D01*
%TO.N,A9*%
X154358000Y-97746000D02*
X157894000Y-97746000D01*
%TO.N,A2*%
X139118000Y-105366000D02*
X142654000Y-105366000D01*
%TO.N,A10*%
X154358000Y-105366000D02*
X157894000Y-105366000D01*
%TO.N,A3*%
X139118000Y-102826000D02*
X142654000Y-102826000D01*
%TO.N,A12*%
X139118000Y-90126000D02*
X142654000Y-90126000D01*
%TO.N,A4*%
X139118000Y-100286000D02*
X142654000Y-100286000D01*
%TO.N,A17*%
X154358000Y-87586000D02*
X148936920Y-87586000D01*
X148936920Y-87586000D02*
X148906500Y-87616420D01*
%TO.N,A5*%
X139118000Y-97746000D02*
X142654000Y-97746000D01*
%TO.N,A11*%
X154358000Y-100286000D02*
X157894000Y-100286000D01*
%TO.N,A6*%
X139118000Y-95206000D02*
X142654000Y-95206000D01*
%TO.N,A7*%
X139118000Y-92666000D02*
X142654000Y-92666000D01*
%TO.N,D7*%
X154358000Y-110446000D02*
X157894000Y-110446000D01*
%TO.N,A8*%
X154358000Y-95206000D02*
X157894000Y-95206000D01*
%TO.N,D6*%
X154358000Y-112986000D02*
X157894000Y-112986000D01*
%TO.N,A13*%
X154358000Y-92666000D02*
X157894000Y-92666000D01*
%TO.N,D5*%
X154358000Y-115526000D02*
X157894000Y-115526000D01*
%TO.N,A15*%
X152580000Y-91650000D02*
X144452000Y-91650000D01*
%TO.N,D4*%
X154358000Y-118066000D02*
X157894000Y-118066000D01*
%TO.N,D3*%
X154358000Y-120606000D02*
X157894000Y-120606000D01*
%TO.N,A0*%
X139118000Y-110446000D02*
X142654000Y-110446000D01*
%TO.N,~{CE}*%
X154358000Y-107906000D02*
X157894000Y-107906000D01*
%TO.N,~{OE}*%
X154358000Y-102826000D02*
X157894000Y-102826000D01*
%TO.N,~{WE}*%
X154758000Y-85046000D02*
X156058000Y-86346000D01*
X156058000Y-86346000D02*
X156058000Y-88290000D01*
X156058000Y-88290000D02*
X157914000Y-90146000D01*
D18*
%TO.N,VCC*%
X157914000Y-86062000D02*
X157914000Y-87606000D01*
X154358000Y-82506000D02*
X157914000Y-86062000D01*
%TD*%
%TA.AperFunction,Conductor*%
%TO.N,GND*%
G36*
X158647628Y-80222381D02*
G01*
X158707066Y-80234204D01*
X158714877Y-80236297D01*
X158951756Y-80316707D01*
X158959244Y-80319808D01*
X159183604Y-80430450D01*
X159190629Y-80434507D01*
X159398617Y-80573481D01*
X159405053Y-80578420D01*
X159593118Y-80743350D01*
X159598855Y-80749086D01*
X159646877Y-80803845D01*
X159763786Y-80937154D01*
X159768728Y-80943595D01*
X159907699Y-81151581D01*
X159911758Y-81158612D01*
X160022391Y-81382957D01*
X160025498Y-81390458D01*
X160105903Y-81627331D01*
X160108004Y-81635170D01*
X160150587Y-81849254D01*
X160156801Y-81880492D01*
X160157861Y-81888542D01*
X160174367Y-82140401D01*
X160174500Y-82144457D01*
X160174500Y-121397962D01*
X160174367Y-121402018D01*
X160157873Y-121653671D01*
X160156813Y-121661720D01*
X160108014Y-121907046D01*
X160105913Y-121914888D01*
X160025508Y-122151755D01*
X160022401Y-122159256D01*
X159911766Y-122383601D01*
X159907706Y-122390631D01*
X159768736Y-122598616D01*
X159763794Y-122605057D01*
X159598864Y-122793123D01*
X159593123Y-122798864D01*
X159405057Y-122963794D01*
X159398616Y-122968736D01*
X159190631Y-123107706D01*
X159183601Y-123111766D01*
X158959256Y-123222401D01*
X158951755Y-123225508D01*
X158714888Y-123305913D01*
X158707046Y-123308014D01*
X158461720Y-123356813D01*
X158453671Y-123357873D01*
X158202018Y-123374367D01*
X158197962Y-123374500D01*
X152710522Y-123374500D01*
X152643483Y-123354815D01*
X152597728Y-123302011D01*
X152586522Y-123250500D01*
X152586522Y-121742701D01*
X150010124Y-121742701D01*
X149943085Y-121723016D01*
X149897330Y-121670212D01*
X149886124Y-121618701D01*
X149886124Y-119927292D01*
X147388280Y-119927292D01*
X147388280Y-121618701D01*
X147368595Y-121685740D01*
X147315791Y-121731495D01*
X147264280Y-121742701D01*
X144626967Y-121742701D01*
X144626967Y-123250500D01*
X144607282Y-123317539D01*
X144554478Y-123363294D01*
X144502967Y-123374500D01*
X139010250Y-123374500D01*
X139006194Y-123374367D01*
X138754547Y-123357875D01*
X138746498Y-123356815D01*
X138501156Y-123308016D01*
X138493314Y-123305914D01*
X138475047Y-123299713D01*
X138256448Y-123225509D01*
X138248957Y-123222407D01*
X138024600Y-123111767D01*
X138017573Y-123107710D01*
X137809589Y-122968741D01*
X137803152Y-122963801D01*
X137615081Y-122798869D01*
X137609340Y-122793128D01*
X137561322Y-122738375D01*
X137444409Y-122605062D01*
X137439470Y-122598626D01*
X137300495Y-122390636D01*
X137296435Y-122383605D01*
X137296433Y-122383601D01*
X137185799Y-122159257D01*
X137182692Y-122151757D01*
X137102284Y-121914883D01*
X137100190Y-121907069D01*
X137088381Y-121847702D01*
X137086000Y-121823520D01*
X137086000Y-118066001D01*
X137404502Y-118066001D01*
X137424456Y-118294081D01*
X137424457Y-118294089D01*
X137483714Y-118515238D01*
X137483718Y-118515249D01*
X137580475Y-118722745D01*
X137580477Y-118722749D01*
X137711802Y-118910300D01*
X137873700Y-119072198D01*
X138061251Y-119203523D01*
X138112005Y-119227190D01*
X138114401Y-119228307D01*
X138166840Y-119274479D01*
X138185992Y-119341673D01*
X138165776Y-119408554D01*
X138114401Y-119453071D01*
X138065517Y-119475865D01*
X137879179Y-119606342D01*
X137718342Y-119767179D01*
X137587865Y-119953517D01*
X137491734Y-120159673D01*
X137491730Y-120159682D01*
X137439127Y-120355999D01*
X137439128Y-120356000D01*
X138802314Y-120356000D01*
X138790359Y-120367955D01*
X138732835Y-120480852D01*
X138713014Y-120606000D01*
X138732835Y-120731148D01*
X138790359Y-120844045D01*
X138802314Y-120856000D01*
X137439128Y-120856000D01*
X137491730Y-121052317D01*
X137491734Y-121052326D01*
X137587865Y-121258482D01*
X137718342Y-121444820D01*
X137879179Y-121605657D01*
X138065517Y-121736134D01*
X138271673Y-121832265D01*
X138271682Y-121832269D01*
X138491389Y-121891139D01*
X138491400Y-121891141D01*
X138661237Y-121906000D01*
X138868000Y-121906000D01*
X138868000Y-120921686D01*
X138879955Y-120933641D01*
X138992852Y-120991165D01*
X139086519Y-121006000D01*
X139149481Y-121006000D01*
X139243148Y-120991165D01*
X139356045Y-120933641D01*
X139368000Y-120921686D01*
X139368000Y-121906000D01*
X139574763Y-121906000D01*
X139744599Y-121891141D01*
X139744610Y-121891139D01*
X139964317Y-121832269D01*
X139964326Y-121832265D01*
X140170482Y-121736134D01*
X140356820Y-121605657D01*
X140517657Y-121444820D01*
X140648134Y-121258482D01*
X140744265Y-121052326D01*
X140744269Y-121052317D01*
X140796872Y-120856000D01*
X139433686Y-120856000D01*
X139445641Y-120844045D01*
X139503165Y-120731148D01*
X139522986Y-120606000D01*
X139503165Y-120480852D01*
X139445641Y-120367955D01*
X139433686Y-120356000D01*
X140796872Y-120356000D01*
X140796872Y-120355999D01*
X140744269Y-120159682D01*
X140744265Y-120159673D01*
X140648134Y-119953517D01*
X140517657Y-119767179D01*
X140356820Y-119606342D01*
X140170481Y-119475865D01*
X140170479Y-119475864D01*
X140121599Y-119453071D01*
X140069159Y-119406899D01*
X140050007Y-119339706D01*
X140070223Y-119272824D01*
X140121599Y-119228307D01*
X140123988Y-119227193D01*
X140174749Y-119203523D01*
X140362300Y-119072198D01*
X140524198Y-118910300D01*
X140547252Y-118877374D01*
X140601829Y-118833751D01*
X140648826Y-118824500D01*
X141466644Y-118824500D01*
X141533683Y-118844185D01*
X141570453Y-118880679D01*
X141598278Y-118923269D01*
X141735374Y-119072193D01*
X141750760Y-119088906D01*
X141928424Y-119227189D01*
X141964930Y-119246945D01*
X141971695Y-119250606D01*
X142021286Y-119299825D01*
X142036394Y-119368042D01*
X142012224Y-119433597D01*
X141983802Y-119461236D01*
X141802922Y-119587890D01*
X141802920Y-119587891D01*
X141635891Y-119754920D01*
X141635886Y-119754926D01*
X141500400Y-119948420D01*
X141500399Y-119948422D01*
X141400570Y-120162507D01*
X141400567Y-120162513D01*
X141343364Y-120375999D01*
X141343364Y-120376000D01*
X142240314Y-120376000D01*
X142214507Y-120416156D01*
X142174000Y-120554111D01*
X142174000Y-120697889D01*
X142214507Y-120835844D01*
X142240314Y-120876000D01*
X141343364Y-120876000D01*
X141400567Y-121089486D01*
X141400570Y-121089492D01*
X141500399Y-121303578D01*
X141635894Y-121497082D01*
X141802917Y-121664105D01*
X141996421Y-121799600D01*
X142210507Y-121899429D01*
X142210516Y-121899433D01*
X142424000Y-121956634D01*
X142424000Y-121061501D01*
X142531685Y-121110680D01*
X142638237Y-121126000D01*
X142709763Y-121126000D01*
X142816315Y-121110680D01*
X142924000Y-121061501D01*
X142924000Y-121956633D01*
X143137483Y-121899433D01*
X143137492Y-121899429D01*
X143351578Y-121799600D01*
X143545082Y-121664105D01*
X143712105Y-121497082D01*
X143847600Y-121303578D01*
X143947429Y-121089492D01*
X143947432Y-121089486D01*
X144004636Y-120876000D01*
X143107686Y-120876000D01*
X143133493Y-120835844D01*
X143174000Y-120697889D01*
X143174000Y-120554111D01*
X143133493Y-120416156D01*
X143107686Y-120376000D01*
X144004636Y-120376000D01*
X144004635Y-120375999D01*
X143947432Y-120162513D01*
X143947429Y-120162507D01*
X143847600Y-119948422D01*
X143847599Y-119948420D01*
X143712113Y-119754926D01*
X143712108Y-119754920D01*
X143545082Y-119587894D01*
X143364197Y-119461236D01*
X143320572Y-119406659D01*
X143313380Y-119337160D01*
X143344902Y-119274806D01*
X143376300Y-119250608D01*
X143419576Y-119227189D01*
X143597240Y-119088906D01*
X143749722Y-118923268D01*
X143872860Y-118734791D01*
X143963296Y-118528616D01*
X144018564Y-118310368D01*
X144037156Y-118086000D01*
X144018564Y-117861632D01*
X143963296Y-117643384D01*
X143872860Y-117437209D01*
X143749722Y-117248732D01*
X143749719Y-117248729D01*
X143749715Y-117248723D01*
X143597243Y-117083097D01*
X143597238Y-117083092D01*
X143419577Y-116944812D01*
X143419578Y-116944812D01*
X143419576Y-116944811D01*
X143383070Y-116925055D01*
X143333479Y-116875836D01*
X143318371Y-116807619D01*
X143342541Y-116742064D01*
X143383070Y-116706945D01*
X143383084Y-116706936D01*
X143419576Y-116687189D01*
X143597240Y-116548906D01*
X143749722Y-116383268D01*
X143872860Y-116194791D01*
X143963296Y-115988616D01*
X144018564Y-115770368D01*
X144037156Y-115546000D01*
X144018564Y-115321632D01*
X143963296Y-115103384D01*
X143872860Y-114897209D01*
X143749722Y-114708732D01*
X143749719Y-114708729D01*
X143749715Y-114708723D01*
X143597243Y-114543097D01*
X143597238Y-114543092D01*
X143419577Y-114404812D01*
X143419578Y-114404812D01*
X143419576Y-114404811D01*
X143383070Y-114385055D01*
X143333479Y-114335836D01*
X143318371Y-114267619D01*
X143342541Y-114202064D01*
X143383070Y-114166945D01*
X143383084Y-114166936D01*
X143419576Y-114147189D01*
X143597240Y-114008906D01*
X143749722Y-113843268D01*
X143872860Y-113654791D01*
X143963296Y-113448616D01*
X144018564Y-113230368D01*
X144037156Y-113006000D01*
X144018564Y-112781632D01*
X143963296Y-112563384D01*
X143872860Y-112357209D01*
X143749722Y-112168732D01*
X143749719Y-112168729D01*
X143749715Y-112168723D01*
X143597243Y-112003097D01*
X143597238Y-112003092D01*
X143419577Y-111864812D01*
X143419578Y-111864812D01*
X143419576Y-111864811D01*
X143383070Y-111845055D01*
X143333479Y-111795836D01*
X143318371Y-111727619D01*
X143342541Y-111662064D01*
X143383070Y-111626945D01*
X143383084Y-111626936D01*
X143419576Y-111607189D01*
X143597240Y-111468906D01*
X143749722Y-111303268D01*
X143872860Y-111114791D01*
X143963296Y-110908616D01*
X144018564Y-110690368D01*
X144037156Y-110466000D01*
X144018564Y-110241632D01*
X143963296Y-110023384D01*
X143872860Y-109817209D01*
X143749722Y-109628732D01*
X143749719Y-109628729D01*
X143749715Y-109628723D01*
X143597243Y-109463097D01*
X143597238Y-109463092D01*
X143419577Y-109324812D01*
X143419578Y-109324812D01*
X143419576Y-109324811D01*
X143383070Y-109305055D01*
X143333479Y-109255836D01*
X143318371Y-109187619D01*
X143342541Y-109122064D01*
X143383070Y-109086945D01*
X143383084Y-109086936D01*
X143419576Y-109067189D01*
X143597240Y-108928906D01*
X143749722Y-108763268D01*
X143872860Y-108574791D01*
X143963296Y-108368616D01*
X144018564Y-108150368D01*
X144037156Y-107926000D01*
X144018564Y-107701632D01*
X143963296Y-107483384D01*
X143872860Y-107277209D01*
X143749722Y-107088732D01*
X143749719Y-107088729D01*
X143749715Y-107088723D01*
X143597243Y-106923097D01*
X143597238Y-106923092D01*
X143419577Y-106784812D01*
X143419578Y-106784812D01*
X143419576Y-106784811D01*
X143383070Y-106765055D01*
X143333479Y-106715836D01*
X143318371Y-106647619D01*
X143342541Y-106582064D01*
X143383070Y-106546945D01*
X143383084Y-106546936D01*
X143419576Y-106527189D01*
X143597240Y-106388906D01*
X143749722Y-106223268D01*
X143872860Y-106034791D01*
X143963296Y-105828616D01*
X144018564Y-105610368D01*
X144037156Y-105386000D01*
X144018564Y-105161632D01*
X143963296Y-104943384D01*
X143872860Y-104737209D01*
X143749722Y-104548732D01*
X143749719Y-104548729D01*
X143749715Y-104548723D01*
X143597243Y-104383097D01*
X143597238Y-104383092D01*
X143419577Y-104244812D01*
X143419578Y-104244812D01*
X143419576Y-104244811D01*
X143383070Y-104225055D01*
X143333479Y-104175836D01*
X143318371Y-104107619D01*
X143342541Y-104042064D01*
X143383070Y-104006945D01*
X143383084Y-104006936D01*
X143419576Y-103987189D01*
X143597240Y-103848906D01*
X143749722Y-103683268D01*
X143872860Y-103494791D01*
X143963296Y-103288616D01*
X144018564Y-103070368D01*
X144037156Y-102846000D01*
X144018564Y-102621632D01*
X143963296Y-102403384D01*
X143872860Y-102197209D01*
X143749722Y-102008732D01*
X143749719Y-102008729D01*
X143749715Y-102008723D01*
X143597243Y-101843097D01*
X143597238Y-101843092D01*
X143419577Y-101704812D01*
X143419578Y-101704812D01*
X143419576Y-101704811D01*
X143383070Y-101685055D01*
X143333479Y-101635836D01*
X143318371Y-101567619D01*
X143342541Y-101502064D01*
X143383070Y-101466945D01*
X143383084Y-101466936D01*
X143419576Y-101447189D01*
X143597240Y-101308906D01*
X143749722Y-101143268D01*
X143872860Y-100954791D01*
X143963296Y-100748616D01*
X144018564Y-100530368D01*
X144037156Y-100306000D01*
X144018564Y-100081632D01*
X143963296Y-99863384D01*
X143872860Y-99657209D01*
X143749722Y-99468732D01*
X143749719Y-99468729D01*
X143749715Y-99468723D01*
X143597243Y-99303097D01*
X143597238Y-99303092D01*
X143419577Y-99164812D01*
X143419578Y-99164812D01*
X143419576Y-99164811D01*
X143383070Y-99145055D01*
X143333479Y-99095836D01*
X143318371Y-99027619D01*
X143342541Y-98962064D01*
X143383070Y-98926945D01*
X143383084Y-98926936D01*
X143419576Y-98907189D01*
X143597240Y-98768906D01*
X143749722Y-98603268D01*
X143872860Y-98414791D01*
X143963296Y-98208616D01*
X144018564Y-97990368D01*
X144037156Y-97766000D01*
X144018564Y-97541632D01*
X143963296Y-97323384D01*
X143872860Y-97117209D01*
X143749722Y-96928732D01*
X143749719Y-96928729D01*
X143749715Y-96928723D01*
X143597243Y-96763097D01*
X143597238Y-96763092D01*
X143419577Y-96624812D01*
X143419578Y-96624812D01*
X143419576Y-96624811D01*
X143383070Y-96605055D01*
X143333479Y-96555836D01*
X143318371Y-96487619D01*
X143342541Y-96422064D01*
X143383070Y-96386945D01*
X143383084Y-96386936D01*
X143419576Y-96367189D01*
X143597240Y-96228906D01*
X143749722Y-96063268D01*
X143872860Y-95874791D01*
X143963296Y-95668616D01*
X144018564Y-95450368D01*
X144037156Y-95226000D01*
X144018564Y-95001632D01*
X143963296Y-94783384D01*
X143872860Y-94577209D01*
X143749722Y-94388732D01*
X143749719Y-94388729D01*
X143749715Y-94388723D01*
X143597243Y-94223097D01*
X143597238Y-94223092D01*
X143419577Y-94084812D01*
X143419578Y-94084812D01*
X143419576Y-94084811D01*
X143383070Y-94065055D01*
X143333479Y-94015836D01*
X143318371Y-93947619D01*
X143342541Y-93882064D01*
X143383070Y-93846945D01*
X143383084Y-93846936D01*
X143419576Y-93827189D01*
X143597240Y-93688906D01*
X143749722Y-93523268D01*
X143872860Y-93334791D01*
X143963296Y-93128616D01*
X144018564Y-92910368D01*
X144037156Y-92686000D01*
X144035970Y-92671693D01*
X144034448Y-92653320D01*
X144048528Y-92584884D01*
X144097373Y-92534924D01*
X144165474Y-92519303D01*
X144183795Y-92521787D01*
X144356513Y-92558500D01*
X144356514Y-92558500D01*
X144547487Y-92558500D01*
X144734288Y-92518794D01*
X144908752Y-92441118D01*
X144921051Y-92432181D01*
X144986858Y-92408702D01*
X144993937Y-92408500D01*
X152038063Y-92408500D01*
X152105102Y-92428185D01*
X152110949Y-92432182D01*
X152123249Y-92441119D01*
X152169314Y-92461628D01*
X152297712Y-92518794D01*
X152484513Y-92558500D01*
X152521472Y-92558500D01*
X152588511Y-92578185D01*
X152634266Y-92630989D01*
X152645000Y-92671693D01*
X152664456Y-92894081D01*
X152664457Y-92894089D01*
X152723714Y-93115238D01*
X152723718Y-93115249D01*
X152820475Y-93322745D01*
X152820477Y-93322749D01*
X152951802Y-93510300D01*
X153113700Y-93672198D01*
X153301251Y-93803523D01*
X153344345Y-93823618D01*
X153396784Y-93869791D01*
X153415936Y-93936984D01*
X153395720Y-94003865D01*
X153344345Y-94048382D01*
X153301251Y-94068476D01*
X153176126Y-94156090D01*
X153113700Y-94199802D01*
X153113698Y-94199803D01*
X153113695Y-94199806D01*
X152951806Y-94361695D01*
X152951803Y-94361698D01*
X152951802Y-94361700D01*
X152930114Y-94392674D01*
X152820476Y-94549252D01*
X152820475Y-94549254D01*
X152723718Y-94756750D01*
X152723714Y-94756761D01*
X152664457Y-94977910D01*
X152664456Y-94977918D01*
X152644502Y-95205998D01*
X152644502Y-95206001D01*
X152664456Y-95434081D01*
X152664457Y-95434089D01*
X152723714Y-95655238D01*
X152723718Y-95655249D01*
X152820475Y-95862745D01*
X152820477Y-95862749D01*
X152951802Y-96050300D01*
X153113700Y-96212198D01*
X153301251Y-96343523D01*
X153344345Y-96363618D01*
X153396784Y-96409791D01*
X153415936Y-96476984D01*
X153395720Y-96543865D01*
X153344345Y-96588382D01*
X153301251Y-96608476D01*
X153176126Y-96696090D01*
X153113700Y-96739802D01*
X153113698Y-96739803D01*
X153113695Y-96739806D01*
X152951806Y-96901695D01*
X152951803Y-96901698D01*
X152951802Y-96901700D01*
X152930114Y-96932674D01*
X152820476Y-97089252D01*
X152820475Y-97089254D01*
X152723718Y-97296750D01*
X152723714Y-97296761D01*
X152664457Y-97517910D01*
X152664456Y-97517918D01*
X152644502Y-97745998D01*
X152644502Y-97746001D01*
X152664456Y-97974081D01*
X152664457Y-97974089D01*
X152723714Y-98195238D01*
X152723718Y-98195249D01*
X152820475Y-98402745D01*
X152820477Y-98402749D01*
X152951802Y-98590300D01*
X153113700Y-98752198D01*
X153301251Y-98883523D01*
X153344345Y-98903618D01*
X153396784Y-98949791D01*
X153415936Y-99016984D01*
X153395720Y-99083865D01*
X153344345Y-99128382D01*
X153301251Y-99148476D01*
X153176126Y-99236090D01*
X153113700Y-99279802D01*
X153113698Y-99279803D01*
X153113695Y-99279806D01*
X152951806Y-99441695D01*
X152951803Y-99441698D01*
X152951802Y-99441700D01*
X152930114Y-99472674D01*
X152820476Y-99629252D01*
X152820475Y-99629254D01*
X152723718Y-99836750D01*
X152723714Y-99836761D01*
X152664457Y-100057910D01*
X152664456Y-100057918D01*
X152644502Y-100285998D01*
X152644502Y-100286001D01*
X152664456Y-100514081D01*
X152664457Y-100514089D01*
X152723714Y-100735238D01*
X152723718Y-100735249D01*
X152820475Y-100942745D01*
X152820477Y-100942749D01*
X152951802Y-101130300D01*
X153113700Y-101292198D01*
X153301251Y-101423523D01*
X153344345Y-101443618D01*
X153396784Y-101489791D01*
X153415936Y-101556984D01*
X153395720Y-101623865D01*
X153344345Y-101668382D01*
X153301251Y-101688476D01*
X153176126Y-101776090D01*
X153113700Y-101819802D01*
X153113698Y-101819803D01*
X153113695Y-101819806D01*
X152951806Y-101981695D01*
X152951803Y-101981698D01*
X152951802Y-101981700D01*
X152930114Y-102012674D01*
X152820476Y-102169252D01*
X152820475Y-102169254D01*
X152723718Y-102376750D01*
X152723714Y-102376761D01*
X152664457Y-102597910D01*
X152664456Y-102597918D01*
X152644502Y-102825998D01*
X152644502Y-102826001D01*
X152664456Y-103054081D01*
X152664457Y-103054089D01*
X152723714Y-103275238D01*
X152723718Y-103275249D01*
X152820475Y-103482745D01*
X152820477Y-103482749D01*
X152951802Y-103670300D01*
X153113700Y-103832198D01*
X153301251Y-103963523D01*
X153344345Y-103983618D01*
X153396784Y-104029791D01*
X153415936Y-104096984D01*
X153395720Y-104163865D01*
X153344345Y-104208382D01*
X153301251Y-104228476D01*
X153176126Y-104316090D01*
X153113700Y-104359802D01*
X153113698Y-104359803D01*
X153113695Y-104359806D01*
X152951806Y-104521695D01*
X152951803Y-104521698D01*
X152951802Y-104521700D01*
X152930114Y-104552674D01*
X152820476Y-104709252D01*
X152820475Y-104709254D01*
X152723718Y-104916750D01*
X152723714Y-104916761D01*
X152664457Y-105137910D01*
X152664456Y-105137918D01*
X152644502Y-105365998D01*
X152644502Y-105366001D01*
X152664456Y-105594081D01*
X152664457Y-105594089D01*
X152723714Y-105815238D01*
X152723718Y-105815249D01*
X152820475Y-106022745D01*
X152820477Y-106022749D01*
X152951802Y-106210300D01*
X153113700Y-106372198D01*
X153301251Y-106503523D01*
X153344345Y-106523618D01*
X153396784Y-106569791D01*
X153415936Y-106636984D01*
X153395720Y-106703865D01*
X153344345Y-106748382D01*
X153301251Y-106768476D01*
X153176126Y-106856090D01*
X153113700Y-106899802D01*
X153113698Y-106899803D01*
X153113695Y-106899806D01*
X152951806Y-107061695D01*
X152951803Y-107061698D01*
X152951802Y-107061700D01*
X152930114Y-107092674D01*
X152820476Y-107249252D01*
X152820475Y-107249254D01*
X152723718Y-107456750D01*
X152723714Y-107456761D01*
X152664457Y-107677910D01*
X152664456Y-107677918D01*
X152644502Y-107905998D01*
X152644502Y-107906001D01*
X152664456Y-108134081D01*
X152664457Y-108134089D01*
X152723714Y-108355238D01*
X152723718Y-108355249D01*
X152820475Y-108562745D01*
X152820477Y-108562749D01*
X152951802Y-108750300D01*
X153113700Y-108912198D01*
X153301251Y-109043523D01*
X153344345Y-109063618D01*
X153396784Y-109109791D01*
X153415936Y-109176984D01*
X153395720Y-109243865D01*
X153344345Y-109288382D01*
X153301251Y-109308476D01*
X153176126Y-109396090D01*
X153113700Y-109439802D01*
X153113698Y-109439803D01*
X153113695Y-109439806D01*
X152951806Y-109601695D01*
X152951803Y-109601698D01*
X152951802Y-109601700D01*
X152930114Y-109632674D01*
X152820476Y-109789252D01*
X152820475Y-109789254D01*
X152723718Y-109996750D01*
X152723714Y-109996761D01*
X152664457Y-110217910D01*
X152664456Y-110217918D01*
X152644502Y-110445998D01*
X152644502Y-110446001D01*
X152664456Y-110674081D01*
X152664457Y-110674089D01*
X152723714Y-110895238D01*
X152723718Y-110895249D01*
X152820475Y-111102745D01*
X152820477Y-111102749D01*
X152951802Y-111290300D01*
X153113700Y-111452198D01*
X153301251Y-111583523D01*
X153344345Y-111603618D01*
X153396784Y-111649791D01*
X153415936Y-111716984D01*
X153395720Y-111783865D01*
X153344345Y-111828382D01*
X153301251Y-111848476D01*
X153176126Y-111936090D01*
X153113700Y-111979802D01*
X153113698Y-111979803D01*
X153113695Y-111979806D01*
X152951806Y-112141695D01*
X152951803Y-112141698D01*
X152951802Y-112141700D01*
X152930114Y-112172674D01*
X152820476Y-112329252D01*
X152820475Y-112329254D01*
X152723718Y-112536750D01*
X152723714Y-112536761D01*
X152664457Y-112757910D01*
X152664456Y-112757918D01*
X152644502Y-112985998D01*
X152644502Y-112986001D01*
X152664456Y-113214081D01*
X152664457Y-113214089D01*
X152723714Y-113435238D01*
X152723718Y-113435249D01*
X152820475Y-113642745D01*
X152820477Y-113642749D01*
X152951802Y-113830300D01*
X153113700Y-113992198D01*
X153301251Y-114123523D01*
X153344345Y-114143618D01*
X153396784Y-114189791D01*
X153415936Y-114256984D01*
X153395720Y-114323865D01*
X153344345Y-114368382D01*
X153301251Y-114388476D01*
X153176126Y-114476090D01*
X153113700Y-114519802D01*
X153113698Y-114519803D01*
X153113695Y-114519806D01*
X152951806Y-114681695D01*
X152951803Y-114681698D01*
X152951802Y-114681700D01*
X152930114Y-114712674D01*
X152820476Y-114869252D01*
X152820475Y-114869254D01*
X152723718Y-115076750D01*
X152723714Y-115076761D01*
X152664457Y-115297910D01*
X152664456Y-115297918D01*
X152644502Y-115525998D01*
X152644502Y-115526001D01*
X152664456Y-115754081D01*
X152664457Y-115754089D01*
X152723714Y-115975238D01*
X152723718Y-115975249D01*
X152820475Y-116182745D01*
X152820477Y-116182749D01*
X152951802Y-116370300D01*
X153113700Y-116532198D01*
X153301251Y-116663523D01*
X153344345Y-116683618D01*
X153396784Y-116729791D01*
X153415936Y-116796984D01*
X153395720Y-116863865D01*
X153344345Y-116908382D01*
X153301251Y-116928476D01*
X153176126Y-117016090D01*
X153113700Y-117059802D01*
X153113698Y-117059803D01*
X153113695Y-117059806D01*
X152951806Y-117221695D01*
X152951803Y-117221698D01*
X152951802Y-117221700D01*
X152930114Y-117252674D01*
X152820476Y-117409252D01*
X152820475Y-117409254D01*
X152723718Y-117616750D01*
X152723714Y-117616761D01*
X152664457Y-117837910D01*
X152664456Y-117837918D01*
X152644502Y-118065998D01*
X152644502Y-118066001D01*
X152664456Y-118294081D01*
X152664457Y-118294089D01*
X152723714Y-118515238D01*
X152723718Y-118515249D01*
X152820475Y-118722745D01*
X152820477Y-118722749D01*
X152951802Y-118910300D01*
X153113700Y-119072198D01*
X153301251Y-119203523D01*
X153344345Y-119223618D01*
X153396784Y-119269791D01*
X153415936Y-119336984D01*
X153395720Y-119403865D01*
X153344345Y-119448382D01*
X153301251Y-119468476D01*
X153176126Y-119556090D01*
X153113700Y-119599802D01*
X153113698Y-119599803D01*
X153113695Y-119599806D01*
X152951806Y-119761695D01*
X152951803Y-119761698D01*
X152951802Y-119761700D01*
X152930114Y-119792674D01*
X152820476Y-119949252D01*
X152820475Y-119949254D01*
X152723718Y-120156750D01*
X152723714Y-120156761D01*
X152664457Y-120377910D01*
X152664456Y-120377918D01*
X152644502Y-120605998D01*
X152644502Y-120606001D01*
X152664456Y-120834081D01*
X152664457Y-120834089D01*
X152723714Y-121055238D01*
X152723718Y-121055249D01*
X152756710Y-121126000D01*
X152820477Y-121262749D01*
X152951802Y-121450300D01*
X153113700Y-121612198D01*
X153301251Y-121743523D01*
X153413800Y-121796005D01*
X153508750Y-121840281D01*
X153508752Y-121840281D01*
X153508757Y-121840284D01*
X153729913Y-121899543D01*
X153900873Y-121914500D01*
X154815127Y-121914500D01*
X154986087Y-121899543D01*
X155207243Y-121840284D01*
X155414749Y-121743523D01*
X155602300Y-121612198D01*
X155764198Y-121450300D01*
X155787252Y-121417374D01*
X155841829Y-121373751D01*
X155888826Y-121364500D01*
X156706644Y-121364500D01*
X156773683Y-121384185D01*
X156810453Y-121420679D01*
X156838278Y-121463269D01*
X156990756Y-121628902D01*
X156990760Y-121628906D01*
X157168424Y-121767189D01*
X157168425Y-121767189D01*
X157168427Y-121767191D01*
X157221671Y-121796005D01*
X157366426Y-121874342D01*
X157579365Y-121947444D01*
X157801431Y-121984500D01*
X158026569Y-121984500D01*
X158248635Y-121947444D01*
X158461574Y-121874342D01*
X158659576Y-121767189D01*
X158837240Y-121628906D01*
X158989722Y-121463268D01*
X159112860Y-121274791D01*
X159203296Y-121068616D01*
X159258564Y-120850368D01*
X159277156Y-120626000D01*
X159265128Y-120480852D01*
X159258565Y-120401640D01*
X159258563Y-120401628D01*
X159203296Y-120183385D01*
X159194138Y-120162507D01*
X159112860Y-119977209D01*
X158989722Y-119788732D01*
X158989719Y-119788729D01*
X158989715Y-119788723D01*
X158837243Y-119623097D01*
X158837238Y-119623092D01*
X158659577Y-119484812D01*
X158659578Y-119484812D01*
X158659576Y-119484811D01*
X158623070Y-119465055D01*
X158573479Y-119415836D01*
X158558371Y-119347619D01*
X158582541Y-119282064D01*
X158623070Y-119246945D01*
X158623084Y-119246936D01*
X158659576Y-119227189D01*
X158837240Y-119088906D01*
X158989722Y-118923268D01*
X159112860Y-118734791D01*
X159203296Y-118528616D01*
X159258564Y-118310368D01*
X159277156Y-118086000D01*
X159258564Y-117861632D01*
X159203296Y-117643384D01*
X159112860Y-117437209D01*
X158989722Y-117248732D01*
X158989719Y-117248729D01*
X158989715Y-117248723D01*
X158837243Y-117083097D01*
X158837238Y-117083092D01*
X158659577Y-116944812D01*
X158659578Y-116944812D01*
X158659576Y-116944811D01*
X158623070Y-116925055D01*
X158573479Y-116875836D01*
X158558371Y-116807619D01*
X158582541Y-116742064D01*
X158623070Y-116706945D01*
X158623084Y-116706936D01*
X158659576Y-116687189D01*
X158837240Y-116548906D01*
X158989722Y-116383268D01*
X159112860Y-116194791D01*
X159203296Y-115988616D01*
X159258564Y-115770368D01*
X159277156Y-115546000D01*
X159258564Y-115321632D01*
X159203296Y-115103384D01*
X159112860Y-114897209D01*
X158989722Y-114708732D01*
X158989719Y-114708729D01*
X158989715Y-114708723D01*
X158837243Y-114543097D01*
X158837238Y-114543092D01*
X158659577Y-114404812D01*
X158659578Y-114404812D01*
X158659576Y-114404811D01*
X158623070Y-114385055D01*
X158573479Y-114335836D01*
X158558371Y-114267619D01*
X158582541Y-114202064D01*
X158623070Y-114166945D01*
X158623084Y-114166936D01*
X158659576Y-114147189D01*
X158837240Y-114008906D01*
X158989722Y-113843268D01*
X159112860Y-113654791D01*
X159203296Y-113448616D01*
X159258564Y-113230368D01*
X159277156Y-113006000D01*
X159258564Y-112781632D01*
X159203296Y-112563384D01*
X159112860Y-112357209D01*
X158989722Y-112168732D01*
X158989719Y-112168729D01*
X158989715Y-112168723D01*
X158837243Y-112003097D01*
X158837238Y-112003092D01*
X158659577Y-111864812D01*
X158659578Y-111864812D01*
X158659576Y-111864811D01*
X158623070Y-111845055D01*
X158573479Y-111795836D01*
X158558371Y-111727619D01*
X158582541Y-111662064D01*
X158623070Y-111626945D01*
X158623084Y-111626936D01*
X158659576Y-111607189D01*
X158837240Y-111468906D01*
X158989722Y-111303268D01*
X159112860Y-111114791D01*
X159203296Y-110908616D01*
X159258564Y-110690368D01*
X159277156Y-110466000D01*
X159258564Y-110241632D01*
X159203296Y-110023384D01*
X159112860Y-109817209D01*
X158989722Y-109628732D01*
X158989719Y-109628729D01*
X158989715Y-109628723D01*
X158837243Y-109463097D01*
X158837238Y-109463092D01*
X158659577Y-109324812D01*
X158659578Y-109324812D01*
X158659576Y-109324811D01*
X158623070Y-109305055D01*
X158573479Y-109255836D01*
X158558371Y-109187619D01*
X158582541Y-109122064D01*
X158623070Y-109086945D01*
X158623084Y-109086936D01*
X158659576Y-109067189D01*
X158837240Y-108928906D01*
X158989722Y-108763268D01*
X159112860Y-108574791D01*
X159203296Y-108368616D01*
X159258564Y-108150368D01*
X159277156Y-107926000D01*
X159258564Y-107701632D01*
X159203296Y-107483384D01*
X159112860Y-107277209D01*
X158989722Y-107088732D01*
X158989719Y-107088729D01*
X158989715Y-107088723D01*
X158837243Y-106923097D01*
X158837238Y-106923092D01*
X158659577Y-106784812D01*
X158659578Y-106784812D01*
X158659576Y-106784811D01*
X158623070Y-106765055D01*
X158573479Y-106715836D01*
X158558371Y-106647619D01*
X158582541Y-106582064D01*
X158623070Y-106546945D01*
X158623084Y-106546936D01*
X158659576Y-106527189D01*
X158837240Y-106388906D01*
X158989722Y-106223268D01*
X159112860Y-106034791D01*
X159203296Y-105828616D01*
X159258564Y-105610368D01*
X159277156Y-105386000D01*
X159258564Y-105161632D01*
X159203296Y-104943384D01*
X159112860Y-104737209D01*
X158989722Y-104548732D01*
X158989719Y-104548729D01*
X158989715Y-104548723D01*
X158837243Y-104383097D01*
X158837238Y-104383092D01*
X158659577Y-104244812D01*
X158659578Y-104244812D01*
X158659576Y-104244811D01*
X158623070Y-104225055D01*
X158573479Y-104175836D01*
X158558371Y-104107619D01*
X158582541Y-104042064D01*
X158623070Y-104006945D01*
X158623084Y-104006936D01*
X158659576Y-103987189D01*
X158837240Y-103848906D01*
X158989722Y-103683268D01*
X159112860Y-103494791D01*
X159203296Y-103288616D01*
X159258564Y-103070368D01*
X159277156Y-102846000D01*
X159258564Y-102621632D01*
X159203296Y-102403384D01*
X159112860Y-102197209D01*
X158989722Y-102008732D01*
X158989719Y-102008729D01*
X158989715Y-102008723D01*
X158837243Y-101843097D01*
X158837238Y-101843092D01*
X158659577Y-101704812D01*
X158659578Y-101704812D01*
X158659576Y-101704811D01*
X158623070Y-101685055D01*
X158573479Y-101635836D01*
X158558371Y-101567619D01*
X158582541Y-101502064D01*
X158623070Y-101466945D01*
X158623084Y-101466936D01*
X158659576Y-101447189D01*
X158837240Y-101308906D01*
X158989722Y-101143268D01*
X159112860Y-100954791D01*
X159203296Y-100748616D01*
X159258564Y-100530368D01*
X159277156Y-100306000D01*
X159258564Y-100081632D01*
X159203296Y-99863384D01*
X159112860Y-99657209D01*
X158989722Y-99468732D01*
X158989719Y-99468729D01*
X158989715Y-99468723D01*
X158837243Y-99303097D01*
X158837238Y-99303092D01*
X158659577Y-99164812D01*
X158659578Y-99164812D01*
X158659576Y-99164811D01*
X158623070Y-99145055D01*
X158573479Y-99095836D01*
X158558371Y-99027619D01*
X158582541Y-98962064D01*
X158623070Y-98926945D01*
X158623084Y-98926936D01*
X158659576Y-98907189D01*
X158837240Y-98768906D01*
X158989722Y-98603268D01*
X159112860Y-98414791D01*
X159203296Y-98208616D01*
X159258564Y-97990368D01*
X159277156Y-97766000D01*
X159258564Y-97541632D01*
X159203296Y-97323384D01*
X159112860Y-97117209D01*
X158989722Y-96928732D01*
X158989719Y-96928729D01*
X158989715Y-96928723D01*
X158837243Y-96763097D01*
X158837238Y-96763092D01*
X158659577Y-96624812D01*
X158659578Y-96624812D01*
X158659576Y-96624811D01*
X158623070Y-96605055D01*
X158573479Y-96555836D01*
X158558371Y-96487619D01*
X158582541Y-96422064D01*
X158623070Y-96386945D01*
X158623084Y-96386936D01*
X158659576Y-96367189D01*
X158837240Y-96228906D01*
X158989722Y-96063268D01*
X159112860Y-95874791D01*
X159203296Y-95668616D01*
X159258564Y-95450368D01*
X159277156Y-95226000D01*
X159258564Y-95001632D01*
X159203296Y-94783384D01*
X159112860Y-94577209D01*
X158989722Y-94388732D01*
X158989719Y-94388729D01*
X158989715Y-94388723D01*
X158837243Y-94223097D01*
X158837238Y-94223092D01*
X158659577Y-94084812D01*
X158659578Y-94084812D01*
X158659576Y-94084811D01*
X158623070Y-94065055D01*
X158573479Y-94015836D01*
X158558371Y-93947619D01*
X158582541Y-93882064D01*
X158623070Y-93846945D01*
X158623084Y-93846936D01*
X158659576Y-93827189D01*
X158837240Y-93688906D01*
X158989722Y-93523268D01*
X159112860Y-93334791D01*
X159203296Y-93128616D01*
X159258564Y-92910368D01*
X159277156Y-92686000D01*
X159275970Y-92671693D01*
X159258565Y-92461640D01*
X159258563Y-92461628D01*
X159203296Y-92243385D01*
X159112859Y-92037207D01*
X158991952Y-91852146D01*
X158989722Y-91848732D01*
X158989719Y-91848729D01*
X158989715Y-91848723D01*
X158837243Y-91683097D01*
X158837238Y-91683092D01*
X158659577Y-91544812D01*
X158659578Y-91544812D01*
X158659576Y-91544811D01*
X158623070Y-91525055D01*
X158573479Y-91475836D01*
X158558371Y-91407619D01*
X158582541Y-91342064D01*
X158623070Y-91306945D01*
X158623084Y-91306936D01*
X158659576Y-91287189D01*
X158837240Y-91148906D01*
X158989722Y-90983268D01*
X159112860Y-90794791D01*
X159203296Y-90588616D01*
X159258564Y-90370368D01*
X159263035Y-90316415D01*
X159277156Y-90146005D01*
X159277156Y-90145994D01*
X159258565Y-89921640D01*
X159258563Y-89921628D01*
X159203296Y-89703385D01*
X159191615Y-89676755D01*
X159112860Y-89497209D01*
X158989722Y-89308732D01*
X158989719Y-89308729D01*
X158989715Y-89308723D01*
X158844510Y-89150991D01*
X158813587Y-89088337D01*
X158821447Y-89018911D01*
X158865594Y-88964755D01*
X158892405Y-88950827D01*
X158972584Y-88920920D01*
X159010204Y-88906889D01*
X159127261Y-88819261D01*
X159214889Y-88702204D01*
X159265989Y-88565201D01*
X159269591Y-88531692D01*
X159272499Y-88504654D01*
X159272500Y-88504637D01*
X159272500Y-86707362D01*
X159272499Y-86707345D01*
X159269157Y-86676270D01*
X159265989Y-86646799D01*
X159214889Y-86509796D01*
X159127261Y-86392739D01*
X159010204Y-86305111D01*
X159001381Y-86301820D01*
X158878405Y-86255951D01*
X158822472Y-86214079D01*
X158798056Y-86148615D01*
X158799267Y-86120370D01*
X158801149Y-86108493D01*
X158797585Y-86040488D01*
X158797500Y-86037243D01*
X158797500Y-86015694D01*
X158795244Y-85994242D01*
X158794992Y-85991029D01*
X158791429Y-85923028D01*
X158787920Y-85909932D01*
X158784372Y-85890791D01*
X158784125Y-85888442D01*
X158782954Y-85877298D01*
X158761905Y-85812517D01*
X158760987Y-85809416D01*
X158743362Y-85743638D01*
X158743362Y-85743637D01*
X158737201Y-85731547D01*
X158729753Y-85713564D01*
X158725564Y-85700669D01*
X158691513Y-85641691D01*
X158689968Y-85638846D01*
X158659047Y-85578160D01*
X158659045Y-85578157D01*
X158650508Y-85567615D01*
X158639486Y-85551578D01*
X158632704Y-85539831D01*
X158592562Y-85495249D01*
X158587134Y-85489220D01*
X158585026Y-85486751D01*
X158571472Y-85470014D01*
X158556243Y-85454785D01*
X158554007Y-85452429D01*
X158508434Y-85401815D01*
X158508432Y-85401813D01*
X158497450Y-85393834D01*
X158482657Y-85381199D01*
X156056519Y-82955061D01*
X156023034Y-82893738D01*
X156024426Y-82835285D01*
X156051541Y-82734094D01*
X156051542Y-82734089D01*
X156051543Y-82734087D01*
X156071498Y-82506000D01*
X156051543Y-82277913D01*
X155992284Y-82056757D01*
X155895523Y-81849251D01*
X155764198Y-81661700D01*
X155602300Y-81499802D01*
X155414749Y-81368477D01*
X155414745Y-81368475D01*
X155207249Y-81271718D01*
X155207238Y-81271714D01*
X154986089Y-81212457D01*
X154986081Y-81212456D01*
X154815127Y-81197500D01*
X153900873Y-81197500D01*
X153729918Y-81212456D01*
X153729910Y-81212457D01*
X153508761Y-81271714D01*
X153508750Y-81271718D01*
X153301254Y-81368475D01*
X153301252Y-81368476D01*
X153301251Y-81368477D01*
X153113700Y-81499802D01*
X153113698Y-81499803D01*
X153113695Y-81499806D01*
X152951806Y-81661695D01*
X152820476Y-81849252D01*
X152820475Y-81849254D01*
X152723718Y-82056750D01*
X152723714Y-82056761D01*
X152664457Y-82277910D01*
X152664456Y-82277918D01*
X152644502Y-82505998D01*
X152644502Y-82506001D01*
X152664456Y-82734081D01*
X152664457Y-82734089D01*
X152723714Y-82955238D01*
X152723718Y-82955249D01*
X152820475Y-83162745D01*
X152820477Y-83162749D01*
X152951802Y-83350300D01*
X153113700Y-83512198D01*
X153301251Y-83643523D01*
X153344345Y-83663618D01*
X153396784Y-83709791D01*
X153415936Y-83776984D01*
X153395720Y-83843865D01*
X153344345Y-83888382D01*
X153301251Y-83908476D01*
X153222640Y-83963521D01*
X153113700Y-84039802D01*
X153113698Y-84039803D01*
X153113695Y-84039806D01*
X152951806Y-84201695D01*
X152820476Y-84389252D01*
X152820475Y-84389254D01*
X152723718Y-84596750D01*
X152723714Y-84596761D01*
X152664457Y-84817910D01*
X152664456Y-84817918D01*
X152644502Y-85045998D01*
X152644502Y-85046001D01*
X152664456Y-85274081D01*
X152664457Y-85274089D01*
X152723714Y-85495238D01*
X152723718Y-85495249D01*
X152819506Y-85700667D01*
X152820477Y-85702749D01*
X152951802Y-85890300D01*
X153113700Y-86052198D01*
X153301251Y-86183523D01*
X153344345Y-86203618D01*
X153396784Y-86249791D01*
X153415936Y-86316984D01*
X153395720Y-86383865D01*
X153344345Y-86428382D01*
X153301251Y-86448476D01*
X153176126Y-86536090D01*
X153113700Y-86579802D01*
X153113698Y-86579803D01*
X153113695Y-86579806D01*
X152951805Y-86741696D01*
X152928748Y-86774625D01*
X152874171Y-86818249D01*
X152827174Y-86827500D01*
X149394546Y-86827500D01*
X149344111Y-86816780D01*
X149249429Y-86774625D01*
X149188788Y-86747626D01*
X149188786Y-86747625D01*
X149001987Y-86707920D01*
X148811013Y-86707920D01*
X148624214Y-86747625D01*
X148624212Y-86747626D01*
X148465590Y-86818249D01*
X148449746Y-86825303D01*
X148295245Y-86937555D01*
X148167459Y-87079477D01*
X148071973Y-87244863D01*
X148071970Y-87244870D01*
X148012959Y-87426488D01*
X148012958Y-87426492D01*
X147992996Y-87616420D01*
X148012958Y-87806348D01*
X148012959Y-87806351D01*
X148071970Y-87987969D01*
X148071973Y-87987976D01*
X148167458Y-88153361D01*
X148168364Y-88154608D01*
X148168665Y-88155452D01*
X148170709Y-88158992D01*
X148170061Y-88159365D01*
X148191848Y-88220413D01*
X148176028Y-88288468D01*
X148125925Y-88337166D01*
X148068051Y-88351500D01*
X145744919Y-88351500D01*
X145677880Y-88331815D01*
X145657238Y-88315181D01*
X145454473Y-88112416D01*
X145424223Y-88063053D01*
X145415185Y-88035238D01*
X145369215Y-87893756D01*
X145273728Y-87728368D01*
X145145941Y-87586446D01*
X144991440Y-87474194D01*
X144816976Y-87396518D01*
X144816974Y-87396517D01*
X144630175Y-87356812D01*
X144439201Y-87356812D01*
X144252401Y-87396517D01*
X144252398Y-87396518D01*
X144206934Y-87416760D01*
X144137684Y-87426044D01*
X144074408Y-87396415D01*
X144037195Y-87337279D01*
X144032500Y-87303480D01*
X144032500Y-86707362D01*
X144032499Y-86707345D01*
X144029157Y-86676270D01*
X144025989Y-86646799D01*
X143974889Y-86509796D01*
X143887261Y-86392739D01*
X143770204Y-86305111D01*
X143761381Y-86301820D01*
X143633203Y-86254011D01*
X143572654Y-86247500D01*
X143572638Y-86247500D01*
X141775362Y-86247500D01*
X141775345Y-86247500D01*
X141714797Y-86254011D01*
X141714795Y-86254011D01*
X141577795Y-86305111D01*
X141460739Y-86392739D01*
X141373111Y-86509795D01*
X141322011Y-86646795D01*
X141322011Y-86646797D01*
X141315500Y-86707345D01*
X141315500Y-88504654D01*
X141322011Y-88565202D01*
X141322011Y-88565204D01*
X141332080Y-88592198D01*
X141373111Y-88702204D01*
X141460739Y-88819261D01*
X141577796Y-88906889D01*
X141618873Y-88922210D01*
X141695595Y-88950827D01*
X141751528Y-88992699D01*
X141775944Y-89058163D01*
X141761092Y-89126436D01*
X141743490Y-89150991D01*
X141598278Y-89308732D01*
X141596584Y-89311324D01*
X141595621Y-89312146D01*
X141595132Y-89312775D01*
X141595002Y-89312674D01*
X141543439Y-89356679D01*
X141492778Y-89367500D01*
X140648826Y-89367500D01*
X140581787Y-89347815D01*
X140547252Y-89314625D01*
X140545886Y-89312674D01*
X140524198Y-89281700D01*
X140362300Y-89119802D01*
X140174749Y-88988477D01*
X140131655Y-88968382D01*
X140079215Y-88922210D01*
X140060063Y-88855017D01*
X140080278Y-88788136D01*
X140131655Y-88743618D01*
X140134882Y-88742112D01*
X140174749Y-88723523D01*
X140362300Y-88592198D01*
X140524198Y-88430300D01*
X140655523Y-88242749D01*
X140752284Y-88035243D01*
X140811543Y-87814087D01*
X140831498Y-87586000D01*
X140811543Y-87357913D01*
X140752284Y-87136757D01*
X140655523Y-86929251D01*
X140524198Y-86741700D01*
X140362300Y-86579802D01*
X140174749Y-86448477D01*
X140131655Y-86428382D01*
X140079215Y-86382210D01*
X140060063Y-86315017D01*
X140080278Y-86248136D01*
X140131655Y-86203618D01*
X140134882Y-86202112D01*
X140174749Y-86183523D01*
X140362300Y-86052198D01*
X140524198Y-85890300D01*
X140655523Y-85702749D01*
X140752284Y-85495243D01*
X140811543Y-85274087D01*
X140831498Y-85046000D01*
X140811543Y-84817913D01*
X140752284Y-84596757D01*
X140655523Y-84389251D01*
X140524198Y-84201700D01*
X140362300Y-84039802D01*
X140354627Y-84034429D01*
X140311006Y-83979853D01*
X140303814Y-83910355D01*
X140335338Y-83848001D01*
X140395568Y-83812588D01*
X140412489Y-83809570D01*
X140427201Y-83807989D01*
X140564204Y-83756889D01*
X140681261Y-83669261D01*
X140768889Y-83552204D01*
X140819989Y-83415201D01*
X140823591Y-83381692D01*
X140826499Y-83354654D01*
X140826500Y-83354637D01*
X140826500Y-81657362D01*
X140826499Y-81657345D01*
X140823157Y-81626270D01*
X140819989Y-81596799D01*
X140768889Y-81459796D01*
X140681261Y-81342739D01*
X140564204Y-81255111D01*
X140427203Y-81204011D01*
X140366654Y-81197500D01*
X140366638Y-81197500D01*
X137869362Y-81197500D01*
X137869345Y-81197500D01*
X137808797Y-81204011D01*
X137808795Y-81204011D01*
X137671795Y-81255111D01*
X137554739Y-81342739D01*
X137467111Y-81459795D01*
X137416011Y-81596795D01*
X137416011Y-81596797D01*
X137409500Y-81657345D01*
X137409500Y-83354654D01*
X137416011Y-83415202D01*
X137416011Y-83415204D01*
X137452189Y-83512198D01*
X137467111Y-83552204D01*
X137554739Y-83669261D01*
X137671796Y-83756889D01*
X137771110Y-83793931D01*
X137808793Y-83807987D01*
X137808799Y-83807989D01*
X137823499Y-83809569D01*
X137888048Y-83836305D01*
X137927897Y-83893696D01*
X137930393Y-83963521D01*
X137894742Y-84023611D01*
X137881377Y-84034425D01*
X137881371Y-84034431D01*
X137873696Y-84039805D01*
X137711806Y-84201695D01*
X137580476Y-84389252D01*
X137580475Y-84389254D01*
X137483718Y-84596750D01*
X137483714Y-84596761D01*
X137424457Y-84817910D01*
X137424456Y-84817918D01*
X137404502Y-85045998D01*
X137404502Y-85046001D01*
X137424456Y-85274081D01*
X137424457Y-85274089D01*
X137483714Y-85495238D01*
X137483718Y-85495249D01*
X137579506Y-85700667D01*
X137580477Y-85702749D01*
X137711802Y-85890300D01*
X137873700Y-86052198D01*
X138061251Y-86183523D01*
X138104345Y-86203618D01*
X138156784Y-86249791D01*
X138175936Y-86316984D01*
X138155720Y-86383865D01*
X138104345Y-86428382D01*
X138061251Y-86448476D01*
X137936126Y-86536090D01*
X137873700Y-86579802D01*
X137873698Y-86579803D01*
X137873695Y-86579806D01*
X137711806Y-86741695D01*
X137711803Y-86741698D01*
X137711802Y-86741700D01*
X137651724Y-86827500D01*
X137580476Y-86929252D01*
X137580475Y-86929254D01*
X137483718Y-87136750D01*
X137483714Y-87136761D01*
X137424457Y-87357910D01*
X137424456Y-87357918D01*
X137404502Y-87585998D01*
X137404502Y-87586001D01*
X137424456Y-87814081D01*
X137424457Y-87814089D01*
X137483714Y-88035238D01*
X137483718Y-88035249D01*
X137580475Y-88242745D01*
X137580477Y-88242749D01*
X137711802Y-88430300D01*
X137873700Y-88592198D01*
X138047654Y-88714002D01*
X138061251Y-88723523D01*
X138104345Y-88743618D01*
X138156784Y-88789791D01*
X138175936Y-88856984D01*
X138155720Y-88923865D01*
X138104345Y-88968382D01*
X138061251Y-88988476D01*
X137961729Y-89058163D01*
X137873700Y-89119802D01*
X137873698Y-89119803D01*
X137873695Y-89119806D01*
X137711806Y-89281695D01*
X137711803Y-89281698D01*
X137711802Y-89281700D01*
X137690114Y-89312674D01*
X137580476Y-89469252D01*
X137580475Y-89469254D01*
X137483718Y-89676750D01*
X137483714Y-89676761D01*
X137424457Y-89897910D01*
X137424456Y-89897918D01*
X137404502Y-90125998D01*
X137404502Y-90126001D01*
X137424456Y-90354081D01*
X137424457Y-90354089D01*
X137483714Y-90575238D01*
X137483718Y-90575249D01*
X137579757Y-90781205D01*
X137580477Y-90782749D01*
X137711802Y-90970300D01*
X137873700Y-91132198D01*
X138061251Y-91263523D01*
X138104345Y-91283618D01*
X138156784Y-91329791D01*
X138175936Y-91396984D01*
X138155720Y-91463865D01*
X138104345Y-91508382D01*
X138061251Y-91528476D01*
X137936126Y-91616090D01*
X137873700Y-91659802D01*
X137873698Y-91659803D01*
X137873695Y-91659806D01*
X137711806Y-91821695D01*
X137711803Y-91821698D01*
X137711802Y-91821700D01*
X137690114Y-91852674D01*
X137580476Y-92009252D01*
X137580475Y-92009254D01*
X137483718Y-92216750D01*
X137483714Y-92216761D01*
X137424457Y-92437910D01*
X137424456Y-92437918D01*
X137404502Y-92665998D01*
X137404502Y-92666001D01*
X137424456Y-92894081D01*
X137424457Y-92894089D01*
X137483714Y-93115238D01*
X137483718Y-93115249D01*
X137580475Y-93322745D01*
X137580477Y-93322749D01*
X137711802Y-93510300D01*
X137873700Y-93672198D01*
X138061251Y-93803523D01*
X138104345Y-93823618D01*
X138156784Y-93869791D01*
X138175936Y-93936984D01*
X138155720Y-94003865D01*
X138104345Y-94048382D01*
X138061251Y-94068476D01*
X137936126Y-94156090D01*
X137873700Y-94199802D01*
X137873698Y-94199803D01*
X137873695Y-94199806D01*
X137711806Y-94361695D01*
X137711803Y-94361698D01*
X137711802Y-94361700D01*
X137690114Y-94392674D01*
X137580476Y-94549252D01*
X137580475Y-94549254D01*
X137483718Y-94756750D01*
X137483714Y-94756761D01*
X137424457Y-94977910D01*
X137424456Y-94977918D01*
X137404502Y-95205998D01*
X137404502Y-95206001D01*
X137424456Y-95434081D01*
X137424457Y-95434089D01*
X137483714Y-95655238D01*
X137483718Y-95655249D01*
X137580475Y-95862745D01*
X137580477Y-95862749D01*
X137711802Y-96050300D01*
X137873700Y-96212198D01*
X138061251Y-96343523D01*
X138104345Y-96363618D01*
X138156784Y-96409791D01*
X138175936Y-96476984D01*
X138155720Y-96543865D01*
X138104345Y-96588382D01*
X138061251Y-96608476D01*
X137936126Y-96696090D01*
X137873700Y-96739802D01*
X137873698Y-96739803D01*
X137873695Y-96739806D01*
X137711806Y-96901695D01*
X137711803Y-96901698D01*
X137711802Y-96901700D01*
X137690114Y-96932674D01*
X137580476Y-97089252D01*
X137580475Y-97089254D01*
X137483718Y-97296750D01*
X137483714Y-97296761D01*
X137424457Y-97517910D01*
X137424456Y-97517918D01*
X137404502Y-97745998D01*
X137404502Y-97746001D01*
X137424456Y-97974081D01*
X137424457Y-97974089D01*
X137483714Y-98195238D01*
X137483718Y-98195249D01*
X137580475Y-98402745D01*
X137580477Y-98402749D01*
X137711802Y-98590300D01*
X137873700Y-98752198D01*
X138061251Y-98883523D01*
X138104345Y-98903618D01*
X138156784Y-98949791D01*
X138175936Y-99016984D01*
X138155720Y-99083865D01*
X138104345Y-99128382D01*
X138061251Y-99148476D01*
X137936126Y-99236090D01*
X137873700Y-99279802D01*
X137873698Y-99279803D01*
X137873695Y-99279806D01*
X137711806Y-99441695D01*
X137711803Y-99441698D01*
X137711802Y-99441700D01*
X137690114Y-99472674D01*
X137580476Y-99629252D01*
X137580475Y-99629254D01*
X137483718Y-99836750D01*
X137483714Y-99836761D01*
X137424457Y-100057910D01*
X137424456Y-100057918D01*
X137404502Y-100285998D01*
X137404502Y-100286001D01*
X137424456Y-100514081D01*
X137424457Y-100514089D01*
X137483714Y-100735238D01*
X137483718Y-100735249D01*
X137580475Y-100942745D01*
X137580477Y-100942749D01*
X137711802Y-101130300D01*
X137873700Y-101292198D01*
X138061251Y-101423523D01*
X138104345Y-101443618D01*
X138156784Y-101489791D01*
X138175936Y-101556984D01*
X138155720Y-101623865D01*
X138104345Y-101668382D01*
X138061251Y-101688476D01*
X137936126Y-101776090D01*
X137873700Y-101819802D01*
X137873698Y-101819803D01*
X137873695Y-101819806D01*
X137711806Y-101981695D01*
X137711803Y-101981698D01*
X137711802Y-101981700D01*
X137690114Y-102012674D01*
X137580476Y-102169252D01*
X137580475Y-102169254D01*
X137483718Y-102376750D01*
X137483714Y-102376761D01*
X137424457Y-102597910D01*
X137424456Y-102597918D01*
X137404502Y-102825998D01*
X137404502Y-102826001D01*
X137424456Y-103054081D01*
X137424457Y-103054089D01*
X137483714Y-103275238D01*
X137483718Y-103275249D01*
X137580475Y-103482745D01*
X137580477Y-103482749D01*
X137711802Y-103670300D01*
X137873700Y-103832198D01*
X138061251Y-103963523D01*
X138104345Y-103983618D01*
X138156784Y-104029791D01*
X138175936Y-104096984D01*
X138155720Y-104163865D01*
X138104345Y-104208382D01*
X138061251Y-104228476D01*
X137936126Y-104316090D01*
X137873700Y-104359802D01*
X137873698Y-104359803D01*
X137873695Y-104359806D01*
X137711806Y-104521695D01*
X137711803Y-104521698D01*
X137711802Y-104521700D01*
X137690114Y-104552674D01*
X137580476Y-104709252D01*
X137580475Y-104709254D01*
X137483718Y-104916750D01*
X137483714Y-104916761D01*
X137424457Y-105137910D01*
X137424456Y-105137918D01*
X137404502Y-105365998D01*
X137404502Y-105366001D01*
X137424456Y-105594081D01*
X137424457Y-105594089D01*
X137483714Y-105815238D01*
X137483718Y-105815249D01*
X137580475Y-106022745D01*
X137580477Y-106022749D01*
X137711802Y-106210300D01*
X137873700Y-106372198D01*
X138061251Y-106503523D01*
X138104345Y-106523618D01*
X138156784Y-106569791D01*
X138175936Y-106636984D01*
X138155720Y-106703865D01*
X138104345Y-106748382D01*
X138061251Y-106768476D01*
X137936126Y-106856090D01*
X137873700Y-106899802D01*
X137873698Y-106899803D01*
X137873695Y-106899806D01*
X137711806Y-107061695D01*
X137711803Y-107061698D01*
X137711802Y-107061700D01*
X137690114Y-107092674D01*
X137580476Y-107249252D01*
X137580475Y-107249254D01*
X137483718Y-107456750D01*
X137483714Y-107456761D01*
X137424457Y-107677910D01*
X137424456Y-107677918D01*
X137404502Y-107905998D01*
X137404502Y-107906001D01*
X137424456Y-108134081D01*
X137424457Y-108134089D01*
X137483714Y-108355238D01*
X137483718Y-108355249D01*
X137580475Y-108562745D01*
X137580477Y-108562749D01*
X137711802Y-108750300D01*
X137873700Y-108912198D01*
X138061251Y-109043523D01*
X138104345Y-109063618D01*
X138156784Y-109109791D01*
X138175936Y-109176984D01*
X138155720Y-109243865D01*
X138104345Y-109288382D01*
X138061251Y-109308476D01*
X137936126Y-109396090D01*
X137873700Y-109439802D01*
X137873698Y-109439803D01*
X137873695Y-109439806D01*
X137711806Y-109601695D01*
X137711803Y-109601698D01*
X137711802Y-109601700D01*
X137690114Y-109632674D01*
X137580476Y-109789252D01*
X137580475Y-109789254D01*
X137483718Y-109996750D01*
X137483714Y-109996761D01*
X137424457Y-110217910D01*
X137424456Y-110217918D01*
X137404502Y-110445998D01*
X137404502Y-110446001D01*
X137424456Y-110674081D01*
X137424457Y-110674089D01*
X137483714Y-110895238D01*
X137483718Y-110895249D01*
X137580475Y-111102745D01*
X137580477Y-111102749D01*
X137711802Y-111290300D01*
X137873700Y-111452198D01*
X138061251Y-111583523D01*
X138104345Y-111603618D01*
X138156784Y-111649791D01*
X138175936Y-111716984D01*
X138155720Y-111783865D01*
X138104345Y-111828382D01*
X138061251Y-111848476D01*
X137936126Y-111936090D01*
X137873700Y-111979802D01*
X137873698Y-111979803D01*
X137873695Y-111979806D01*
X137711806Y-112141695D01*
X137711803Y-112141698D01*
X137711802Y-112141700D01*
X137690114Y-112172674D01*
X137580476Y-112329252D01*
X137580475Y-112329254D01*
X137483718Y-112536750D01*
X137483714Y-112536761D01*
X137424457Y-112757910D01*
X137424456Y-112757918D01*
X137404502Y-112985998D01*
X137404502Y-112986001D01*
X137424456Y-113214081D01*
X137424457Y-113214089D01*
X137483714Y-113435238D01*
X137483718Y-113435249D01*
X137580475Y-113642745D01*
X137580477Y-113642749D01*
X137711802Y-113830300D01*
X137873700Y-113992198D01*
X138061251Y-114123523D01*
X138104345Y-114143618D01*
X138156784Y-114189791D01*
X138175936Y-114256984D01*
X138155720Y-114323865D01*
X138104345Y-114368382D01*
X138061251Y-114388476D01*
X137936126Y-114476090D01*
X137873700Y-114519802D01*
X137873698Y-114519803D01*
X137873695Y-114519806D01*
X137711806Y-114681695D01*
X137711803Y-114681698D01*
X137711802Y-114681700D01*
X137690114Y-114712674D01*
X137580476Y-114869252D01*
X137580475Y-114869254D01*
X137483718Y-115076750D01*
X137483714Y-115076761D01*
X137424457Y-115297910D01*
X137424456Y-115297918D01*
X137404502Y-115525998D01*
X137404502Y-115526001D01*
X137424456Y-115754081D01*
X137424457Y-115754089D01*
X137483714Y-115975238D01*
X137483718Y-115975249D01*
X137580475Y-116182745D01*
X137580477Y-116182749D01*
X137711802Y-116370300D01*
X137873700Y-116532198D01*
X138061251Y-116663523D01*
X138104345Y-116683618D01*
X138156784Y-116729791D01*
X138175936Y-116796984D01*
X138155720Y-116863865D01*
X138104345Y-116908382D01*
X138061251Y-116928476D01*
X137936126Y-117016090D01*
X137873700Y-117059802D01*
X137873698Y-117059803D01*
X137873695Y-117059806D01*
X137711806Y-117221695D01*
X137711803Y-117221698D01*
X137711802Y-117221700D01*
X137690114Y-117252674D01*
X137580476Y-117409252D01*
X137580475Y-117409254D01*
X137483718Y-117616750D01*
X137483714Y-117616761D01*
X137424457Y-117837910D01*
X137424456Y-117837918D01*
X137404502Y-118065998D01*
X137404502Y-118066001D01*
X137086000Y-118066001D01*
X137086000Y-81718749D01*
X137088383Y-81694558D01*
X137100199Y-81635153D01*
X137102297Y-81627328D01*
X137132503Y-81538339D01*
X137182707Y-81390440D01*
X137185802Y-81382968D01*
X137296449Y-81158597D01*
X137300501Y-81151581D01*
X137439482Y-80943580D01*
X137444403Y-80937167D01*
X137609354Y-80749076D01*
X137615076Y-80743354D01*
X137803167Y-80578403D01*
X137809580Y-80573482D01*
X138017587Y-80434497D01*
X138024597Y-80430449D01*
X138248968Y-80319802D01*
X138256440Y-80316707D01*
X138404339Y-80266503D01*
X138493328Y-80236297D01*
X138501157Y-80234198D01*
X138560567Y-80222381D01*
X138584751Y-80220000D01*
X158623447Y-80220000D01*
X158647628Y-80222381D01*
G37*
%TD.AperFunction*%
%TD*%
M02*
