%TF.GenerationSoftware,KiCad,Pcbnew,7.0.9*%
%TF.CreationDate,2023-12-21T11:34:42+00:00*%
%TF.ProjectId,flash-rom-expansion,666c6173-682d-4726-9f6d-2d657870616e,0*%
%TF.SameCoordinates,Original*%
%TF.FileFunction,Soldermask,Top*%
%TF.FilePolarity,Negative*%
%FSLAX46Y46*%
G04 Gerber Fmt 4.6, Leading zero omitted, Abs format (unit mm)*
G04 Created by KiCad (PCBNEW 7.0.9) date 2023-12-21 11:34:42*
%MOMM*%
%LPD*%
G01*
G04 APERTURE LIST*
G04 APERTURE END LIST*
G36*
X142717983Y-119729936D02*
G01*
X142768180Y-119729936D01*
X142811524Y-119739149D01*
X142849659Y-119742905D01*
X142897566Y-119757437D01*
X142952424Y-119769098D01*
X142987530Y-119784728D01*
X143018566Y-119794143D01*
X143067884Y-119820504D01*
X143124500Y-119845711D01*
X143150822Y-119864835D01*
X143174232Y-119877348D01*
X143221988Y-119916540D01*
X143276887Y-119956427D01*
X143294711Y-119976223D01*
X143310675Y-119989324D01*
X143353572Y-120041594D01*
X143402924Y-120096405D01*
X143413292Y-120114363D01*
X143422651Y-120125767D01*
X143457273Y-120190542D01*
X143497104Y-120259530D01*
X143501685Y-120273630D01*
X143505856Y-120281433D01*
X143528852Y-120357242D01*
X143555311Y-120438672D01*
X143556242Y-120447532D01*
X143557094Y-120450340D01*
X143565384Y-120534513D01*
X143575000Y-120626000D01*
X143565383Y-120717494D01*
X143557094Y-120801659D01*
X143556242Y-120804466D01*
X143555311Y-120813328D01*
X143528848Y-120894771D01*
X143505856Y-120970566D01*
X143501686Y-120978366D01*
X143497104Y-120992470D01*
X143457266Y-121061470D01*
X143422651Y-121126232D01*
X143413294Y-121137633D01*
X143402924Y-121155595D01*
X143353563Y-121210415D01*
X143310675Y-121262675D01*
X143294714Y-121275773D01*
X143276887Y-121295573D01*
X143221977Y-121335467D01*
X143174232Y-121374651D01*
X143150827Y-121387161D01*
X143124500Y-121406289D01*
X143067873Y-121431500D01*
X143018566Y-121457856D01*
X142987537Y-121467268D01*
X142952424Y-121482902D01*
X142897555Y-121494564D01*
X142849659Y-121509094D01*
X142811532Y-121512849D01*
X142768180Y-121522064D01*
X142717973Y-121522064D01*
X142674000Y-121526395D01*
X142630027Y-121522064D01*
X142579820Y-121522064D01*
X142536467Y-121512849D01*
X142498340Y-121509094D01*
X142450441Y-121494563D01*
X142395576Y-121482902D01*
X142360464Y-121467269D01*
X142329433Y-121457856D01*
X142280120Y-121431498D01*
X142223500Y-121406289D01*
X142197175Y-121387163D01*
X142173767Y-121374651D01*
X142126013Y-121335460D01*
X142071113Y-121295573D01*
X142053287Y-121275776D01*
X142037324Y-121262675D01*
X141994425Y-121210402D01*
X141945076Y-121155595D01*
X141934708Y-121137637D01*
X141925348Y-121126232D01*
X141890719Y-121061447D01*
X141850896Y-120992470D01*
X141846315Y-120978371D01*
X141842143Y-120970566D01*
X141819136Y-120894725D01*
X141792689Y-120813328D01*
X141791758Y-120804471D01*
X141790905Y-120801659D01*
X141782600Y-120717342D01*
X141773000Y-120626000D01*
X141782599Y-120534664D01*
X141790905Y-120450340D01*
X141791758Y-120447527D01*
X141792689Y-120438672D01*
X141819132Y-120357288D01*
X141842143Y-120281433D01*
X141846315Y-120273626D01*
X141850896Y-120259530D01*
X141890712Y-120190565D01*
X141925348Y-120125767D01*
X141934710Y-120114359D01*
X141945076Y-120096405D01*
X141994416Y-120041607D01*
X142037324Y-119989324D01*
X142053291Y-119976219D01*
X142071113Y-119956427D01*
X142126002Y-119916546D01*
X142173767Y-119877348D01*
X142197180Y-119864833D01*
X142223500Y-119845711D01*
X142280109Y-119820506D01*
X142329433Y-119794143D01*
X142360471Y-119784727D01*
X142395576Y-119769098D01*
X142450430Y-119757438D01*
X142498340Y-119742905D01*
X142536476Y-119739148D01*
X142579820Y-119729936D01*
X142630016Y-119729936D01*
X142674000Y-119725604D01*
X142717983Y-119729936D01*
G37*
G36*
X157957983Y-119729936D02*
G01*
X158008180Y-119729936D01*
X158051524Y-119739149D01*
X158089659Y-119742905D01*
X158137566Y-119757437D01*
X158192424Y-119769098D01*
X158227530Y-119784728D01*
X158258566Y-119794143D01*
X158307884Y-119820504D01*
X158364500Y-119845711D01*
X158390822Y-119864835D01*
X158414232Y-119877348D01*
X158461988Y-119916540D01*
X158516887Y-119956427D01*
X158534711Y-119976223D01*
X158550675Y-119989324D01*
X158593572Y-120041594D01*
X158642924Y-120096405D01*
X158653292Y-120114363D01*
X158662651Y-120125767D01*
X158697273Y-120190542D01*
X158737104Y-120259530D01*
X158741685Y-120273630D01*
X158745856Y-120281433D01*
X158768852Y-120357242D01*
X158795311Y-120438672D01*
X158796242Y-120447532D01*
X158797094Y-120450340D01*
X158805384Y-120534513D01*
X158815000Y-120626000D01*
X158805383Y-120717494D01*
X158797094Y-120801659D01*
X158796242Y-120804466D01*
X158795311Y-120813328D01*
X158768848Y-120894771D01*
X158745856Y-120970566D01*
X158741686Y-120978366D01*
X158737104Y-120992470D01*
X158697266Y-121061470D01*
X158662651Y-121126232D01*
X158653294Y-121137633D01*
X158642924Y-121155595D01*
X158593563Y-121210415D01*
X158550675Y-121262675D01*
X158534714Y-121275773D01*
X158516887Y-121295573D01*
X158461977Y-121335467D01*
X158414232Y-121374651D01*
X158390827Y-121387161D01*
X158364500Y-121406289D01*
X158307873Y-121431500D01*
X158258566Y-121457856D01*
X158227537Y-121467268D01*
X158192424Y-121482902D01*
X158137555Y-121494564D01*
X158089659Y-121509094D01*
X158051532Y-121512849D01*
X158008180Y-121522064D01*
X157957973Y-121522064D01*
X157914000Y-121526395D01*
X157870027Y-121522064D01*
X157819820Y-121522064D01*
X157776467Y-121512849D01*
X157738340Y-121509094D01*
X157690441Y-121494563D01*
X157635576Y-121482902D01*
X157600464Y-121467269D01*
X157569433Y-121457856D01*
X157520120Y-121431498D01*
X157463500Y-121406289D01*
X157437175Y-121387163D01*
X157413767Y-121374651D01*
X157366013Y-121335460D01*
X157311113Y-121295573D01*
X157293287Y-121275776D01*
X157277324Y-121262675D01*
X157234425Y-121210402D01*
X157185076Y-121155595D01*
X157174708Y-121137637D01*
X157165348Y-121126232D01*
X157130719Y-121061447D01*
X157090896Y-120992470D01*
X157086315Y-120978371D01*
X157082143Y-120970566D01*
X157059136Y-120894725D01*
X157032689Y-120813328D01*
X157031758Y-120804471D01*
X157030905Y-120801659D01*
X157022600Y-120717342D01*
X157013000Y-120626000D01*
X157022599Y-120534664D01*
X157030905Y-120450340D01*
X157031758Y-120447527D01*
X157032689Y-120438672D01*
X157059132Y-120357288D01*
X157082143Y-120281433D01*
X157086315Y-120273626D01*
X157090896Y-120259530D01*
X157130712Y-120190565D01*
X157165348Y-120125767D01*
X157174710Y-120114359D01*
X157185076Y-120096405D01*
X157234416Y-120041607D01*
X157277324Y-119989324D01*
X157293291Y-119976219D01*
X157311113Y-119956427D01*
X157366002Y-119916546D01*
X157413767Y-119877348D01*
X157437180Y-119864833D01*
X157463500Y-119845711D01*
X157520109Y-119820506D01*
X157569433Y-119794143D01*
X157600471Y-119784727D01*
X157635576Y-119769098D01*
X157690430Y-119757438D01*
X157738340Y-119742905D01*
X157776476Y-119739148D01*
X157819820Y-119729936D01*
X157870016Y-119729936D01*
X157914000Y-119725604D01*
X157957983Y-119729936D01*
G37*
G36*
X139563979Y-119757493D02*
G01*
X139600906Y-119759366D01*
X139601761Y-119759541D01*
X139610009Y-119759989D01*
X139695379Y-119778780D01*
X139772562Y-119794641D01*
X139777958Y-119796956D01*
X139789726Y-119799547D01*
X139863110Y-119833498D01*
X139930677Y-119862494D01*
X139940381Y-119869248D01*
X139956736Y-119876815D01*
X140016216Y-119922030D01*
X140071901Y-119960788D01*
X140084143Y-119973667D01*
X140103232Y-119988178D01*
X140147695Y-120040524D01*
X140190437Y-120085489D01*
X140202975Y-120105605D01*
X140222363Y-120128430D01*
X140251738Y-120183837D01*
X140281453Y-120231510D01*
X140291742Y-120259293D01*
X140308559Y-120291012D01*
X140323739Y-120345686D01*
X140341208Y-120392854D01*
X140346591Y-120427992D01*
X140357789Y-120468324D01*
X140360538Y-120519035D01*
X140367263Y-120562929D01*
X140365163Y-120604329D01*
X140367752Y-120652072D01*
X140360497Y-120696319D01*
X140358548Y-120734768D01*
X140346680Y-120780605D01*
X140337981Y-120833667D01*
X140323589Y-120869787D01*
X140315422Y-120901332D01*
X140291978Y-120949124D01*
X140269869Y-121004616D01*
X140251389Y-121031870D01*
X140239648Y-121055808D01*
X140203475Y-121102539D01*
X140166600Y-121156926D01*
X140147020Y-121175472D01*
X140134331Y-121191866D01*
X140085067Y-121234157D01*
X140033003Y-121283475D01*
X140015003Y-121294305D01*
X140003780Y-121303940D01*
X139941987Y-121338237D01*
X139875326Y-121378347D01*
X139861071Y-121383149D01*
X139853344Y-121387439D01*
X139780639Y-121410250D01*
X139700940Y-121437104D01*
X139691927Y-121438084D01*
X139689174Y-121438948D01*
X139609295Y-121447070D01*
X139518000Y-121457000D01*
X139511657Y-121457000D01*
X138721177Y-121457000D01*
X138718000Y-121457000D01*
X138671865Y-121454498D01*
X138635093Y-121452633D01*
X138634243Y-121452458D01*
X138625991Y-121452011D01*
X138540566Y-121433207D01*
X138463437Y-121417358D01*
X138458044Y-121415043D01*
X138446274Y-121412453D01*
X138372872Y-121378493D01*
X138305322Y-121349505D01*
X138295619Y-121342752D01*
X138279264Y-121335185D01*
X138219778Y-121289965D01*
X138164098Y-121251211D01*
X138151855Y-121238332D01*
X138132768Y-121223822D01*
X138088304Y-121171475D01*
X138045562Y-121126510D01*
X138033022Y-121106392D01*
X138013637Y-121083570D01*
X137984263Y-121028166D01*
X137954546Y-120980489D01*
X137944255Y-120952702D01*
X137927441Y-120920988D01*
X137912262Y-120866320D01*
X137894791Y-120819145D01*
X137889406Y-120784000D01*
X137878211Y-120743676D01*
X137875461Y-120692973D01*
X137868736Y-120649070D01*
X137870836Y-120607660D01*
X137868248Y-120559928D01*
X137875500Y-120515689D01*
X137877451Y-120477231D01*
X137889322Y-120431381D01*
X137898019Y-120378333D01*
X137912407Y-120342221D01*
X137920577Y-120310667D01*
X137944027Y-120262859D01*
X137966131Y-120207384D01*
X137984604Y-120180137D01*
X137996351Y-120156191D01*
X138032537Y-120109442D01*
X138069400Y-120055074D01*
X138088972Y-120036533D01*
X138101668Y-120020133D01*
X138150953Y-119977823D01*
X138202997Y-119928525D01*
X138220989Y-119917699D01*
X138232219Y-119908059D01*
X138294045Y-119873742D01*
X138360674Y-119833653D01*
X138374921Y-119828852D01*
X138382655Y-119824560D01*
X138455417Y-119801730D01*
X138535060Y-119774896D01*
X138544066Y-119773916D01*
X138546825Y-119773051D01*
X138626790Y-119764919D01*
X138718000Y-119755000D01*
X139518000Y-119755000D01*
X139563979Y-119757493D01*
G37*
G36*
X154803979Y-119757493D02*
G01*
X154840906Y-119759366D01*
X154841761Y-119759541D01*
X154850009Y-119759989D01*
X154935379Y-119778780D01*
X155012562Y-119794641D01*
X155017958Y-119796956D01*
X155029726Y-119799547D01*
X155103110Y-119833498D01*
X155170677Y-119862494D01*
X155180381Y-119869248D01*
X155196736Y-119876815D01*
X155256216Y-119922030D01*
X155311901Y-119960788D01*
X155324143Y-119973667D01*
X155343232Y-119988178D01*
X155387695Y-120040524D01*
X155430437Y-120085489D01*
X155442975Y-120105605D01*
X155462363Y-120128430D01*
X155491738Y-120183837D01*
X155521453Y-120231510D01*
X155531742Y-120259293D01*
X155548559Y-120291012D01*
X155563739Y-120345686D01*
X155581208Y-120392854D01*
X155586591Y-120427992D01*
X155597789Y-120468324D01*
X155600538Y-120519035D01*
X155607263Y-120562929D01*
X155605163Y-120604329D01*
X155607752Y-120652072D01*
X155600497Y-120696319D01*
X155598548Y-120734768D01*
X155586680Y-120780605D01*
X155577981Y-120833667D01*
X155563589Y-120869787D01*
X155555422Y-120901332D01*
X155531978Y-120949124D01*
X155509869Y-121004616D01*
X155491389Y-121031870D01*
X155479648Y-121055808D01*
X155443475Y-121102539D01*
X155406600Y-121156926D01*
X155387020Y-121175472D01*
X155374331Y-121191866D01*
X155325067Y-121234157D01*
X155273003Y-121283475D01*
X155255003Y-121294305D01*
X155243780Y-121303940D01*
X155181987Y-121338237D01*
X155115326Y-121378347D01*
X155101071Y-121383149D01*
X155093344Y-121387439D01*
X155020639Y-121410250D01*
X154940940Y-121437104D01*
X154931927Y-121438084D01*
X154929174Y-121438948D01*
X154849295Y-121447070D01*
X154758000Y-121457000D01*
X154751657Y-121457000D01*
X153961177Y-121457000D01*
X153958000Y-121457000D01*
X153911865Y-121454498D01*
X153875093Y-121452633D01*
X153874243Y-121452458D01*
X153865991Y-121452011D01*
X153780566Y-121433207D01*
X153703437Y-121417358D01*
X153698044Y-121415043D01*
X153686274Y-121412453D01*
X153612872Y-121378493D01*
X153545322Y-121349505D01*
X153535619Y-121342752D01*
X153519264Y-121335185D01*
X153459778Y-121289965D01*
X153404098Y-121251211D01*
X153391855Y-121238332D01*
X153372768Y-121223822D01*
X153328304Y-121171475D01*
X153285562Y-121126510D01*
X153273022Y-121106392D01*
X153253637Y-121083570D01*
X153224263Y-121028166D01*
X153194546Y-120980489D01*
X153184255Y-120952702D01*
X153167441Y-120920988D01*
X153152262Y-120866320D01*
X153134791Y-120819145D01*
X153129406Y-120784000D01*
X153118211Y-120743676D01*
X153115461Y-120692973D01*
X153108736Y-120649070D01*
X153110836Y-120607660D01*
X153108248Y-120559928D01*
X153115500Y-120515689D01*
X153117451Y-120477231D01*
X153129322Y-120431381D01*
X153138019Y-120378333D01*
X153152407Y-120342221D01*
X153160577Y-120310667D01*
X153184027Y-120262859D01*
X153206131Y-120207384D01*
X153224604Y-120180137D01*
X153236351Y-120156191D01*
X153272537Y-120109442D01*
X153309400Y-120055074D01*
X153328972Y-120036533D01*
X153341668Y-120020133D01*
X153390953Y-119977823D01*
X153442997Y-119928525D01*
X153460989Y-119917699D01*
X153472219Y-119908059D01*
X153534045Y-119873742D01*
X153600674Y-119833653D01*
X153614921Y-119828852D01*
X153622655Y-119824560D01*
X153695417Y-119801730D01*
X153775060Y-119774896D01*
X153784066Y-119773916D01*
X153786825Y-119773051D01*
X153866790Y-119764919D01*
X153958000Y-119755000D01*
X154758000Y-119755000D01*
X154803979Y-119757493D01*
G37*
G36*
X142717983Y-117189936D02*
G01*
X142768180Y-117189936D01*
X142811524Y-117199149D01*
X142849659Y-117202905D01*
X142897566Y-117217437D01*
X142952424Y-117229098D01*
X142987530Y-117244728D01*
X143018566Y-117254143D01*
X143067884Y-117280504D01*
X143124500Y-117305711D01*
X143150822Y-117324835D01*
X143174232Y-117337348D01*
X143221988Y-117376540D01*
X143276887Y-117416427D01*
X143294711Y-117436223D01*
X143310675Y-117449324D01*
X143353572Y-117501594D01*
X143402924Y-117556405D01*
X143413292Y-117574363D01*
X143422651Y-117585767D01*
X143457273Y-117650542D01*
X143497104Y-117719530D01*
X143501685Y-117733630D01*
X143505856Y-117741433D01*
X143528852Y-117817242D01*
X143555311Y-117898672D01*
X143556242Y-117907532D01*
X143557094Y-117910340D01*
X143565384Y-117994513D01*
X143575000Y-118086000D01*
X143565383Y-118177494D01*
X143557094Y-118261659D01*
X143556242Y-118264466D01*
X143555311Y-118273328D01*
X143528848Y-118354771D01*
X143505856Y-118430566D01*
X143501686Y-118438366D01*
X143497104Y-118452470D01*
X143457266Y-118521470D01*
X143422651Y-118586232D01*
X143413294Y-118597633D01*
X143402924Y-118615595D01*
X143353563Y-118670415D01*
X143310675Y-118722675D01*
X143294714Y-118735773D01*
X143276887Y-118755573D01*
X143221977Y-118795467D01*
X143174232Y-118834651D01*
X143150827Y-118847161D01*
X143124500Y-118866289D01*
X143067873Y-118891500D01*
X143018566Y-118917856D01*
X142987537Y-118927268D01*
X142952424Y-118942902D01*
X142897555Y-118954564D01*
X142849659Y-118969094D01*
X142811532Y-118972849D01*
X142768180Y-118982064D01*
X142717973Y-118982064D01*
X142674000Y-118986395D01*
X142630027Y-118982064D01*
X142579820Y-118982064D01*
X142536467Y-118972849D01*
X142498340Y-118969094D01*
X142450441Y-118954563D01*
X142395576Y-118942902D01*
X142360464Y-118927269D01*
X142329433Y-118917856D01*
X142280120Y-118891498D01*
X142223500Y-118866289D01*
X142197175Y-118847163D01*
X142173767Y-118834651D01*
X142126013Y-118795460D01*
X142071113Y-118755573D01*
X142053287Y-118735776D01*
X142037324Y-118722675D01*
X141994425Y-118670402D01*
X141945076Y-118615595D01*
X141934708Y-118597637D01*
X141925348Y-118586232D01*
X141890719Y-118521447D01*
X141850896Y-118452470D01*
X141846315Y-118438371D01*
X141842143Y-118430566D01*
X141819136Y-118354725D01*
X141792689Y-118273328D01*
X141791758Y-118264471D01*
X141790905Y-118261659D01*
X141782600Y-118177342D01*
X141773000Y-118086000D01*
X141782599Y-117994664D01*
X141790905Y-117910340D01*
X141791758Y-117907527D01*
X141792689Y-117898672D01*
X141819132Y-117817288D01*
X141842143Y-117741433D01*
X141846315Y-117733626D01*
X141850896Y-117719530D01*
X141890712Y-117650565D01*
X141925348Y-117585767D01*
X141934710Y-117574359D01*
X141945076Y-117556405D01*
X141994416Y-117501607D01*
X142037324Y-117449324D01*
X142053291Y-117436219D01*
X142071113Y-117416427D01*
X142126002Y-117376546D01*
X142173767Y-117337348D01*
X142197180Y-117324833D01*
X142223500Y-117305711D01*
X142280109Y-117280506D01*
X142329433Y-117254143D01*
X142360471Y-117244727D01*
X142395576Y-117229098D01*
X142450430Y-117217438D01*
X142498340Y-117202905D01*
X142536476Y-117199148D01*
X142579820Y-117189936D01*
X142630016Y-117189936D01*
X142674000Y-117185604D01*
X142717983Y-117189936D01*
G37*
G36*
X157957983Y-117189936D02*
G01*
X158008180Y-117189936D01*
X158051524Y-117199149D01*
X158089659Y-117202905D01*
X158137566Y-117217437D01*
X158192424Y-117229098D01*
X158227530Y-117244728D01*
X158258566Y-117254143D01*
X158307884Y-117280504D01*
X158364500Y-117305711D01*
X158390822Y-117324835D01*
X158414232Y-117337348D01*
X158461988Y-117376540D01*
X158516887Y-117416427D01*
X158534711Y-117436223D01*
X158550675Y-117449324D01*
X158593572Y-117501594D01*
X158642924Y-117556405D01*
X158653292Y-117574363D01*
X158662651Y-117585767D01*
X158697273Y-117650542D01*
X158737104Y-117719530D01*
X158741685Y-117733630D01*
X158745856Y-117741433D01*
X158768852Y-117817242D01*
X158795311Y-117898672D01*
X158796242Y-117907532D01*
X158797094Y-117910340D01*
X158805384Y-117994513D01*
X158815000Y-118086000D01*
X158805383Y-118177494D01*
X158797094Y-118261659D01*
X158796242Y-118264466D01*
X158795311Y-118273328D01*
X158768848Y-118354771D01*
X158745856Y-118430566D01*
X158741686Y-118438366D01*
X158737104Y-118452470D01*
X158697266Y-118521470D01*
X158662651Y-118586232D01*
X158653294Y-118597633D01*
X158642924Y-118615595D01*
X158593563Y-118670415D01*
X158550675Y-118722675D01*
X158534714Y-118735773D01*
X158516887Y-118755573D01*
X158461977Y-118795467D01*
X158414232Y-118834651D01*
X158390827Y-118847161D01*
X158364500Y-118866289D01*
X158307873Y-118891500D01*
X158258566Y-118917856D01*
X158227537Y-118927268D01*
X158192424Y-118942902D01*
X158137555Y-118954564D01*
X158089659Y-118969094D01*
X158051532Y-118972849D01*
X158008180Y-118982064D01*
X157957973Y-118982064D01*
X157914000Y-118986395D01*
X157870027Y-118982064D01*
X157819820Y-118982064D01*
X157776467Y-118972849D01*
X157738340Y-118969094D01*
X157690441Y-118954563D01*
X157635576Y-118942902D01*
X157600464Y-118927269D01*
X157569433Y-118917856D01*
X157520120Y-118891498D01*
X157463500Y-118866289D01*
X157437175Y-118847163D01*
X157413767Y-118834651D01*
X157366013Y-118795460D01*
X157311113Y-118755573D01*
X157293287Y-118735776D01*
X157277324Y-118722675D01*
X157234425Y-118670402D01*
X157185076Y-118615595D01*
X157174708Y-118597637D01*
X157165348Y-118586232D01*
X157130719Y-118521447D01*
X157090896Y-118452470D01*
X157086315Y-118438371D01*
X157082143Y-118430566D01*
X157059136Y-118354725D01*
X157032689Y-118273328D01*
X157031758Y-118264471D01*
X157030905Y-118261659D01*
X157022600Y-118177342D01*
X157013000Y-118086000D01*
X157022599Y-117994664D01*
X157030905Y-117910340D01*
X157031758Y-117907527D01*
X157032689Y-117898672D01*
X157059132Y-117817288D01*
X157082143Y-117741433D01*
X157086315Y-117733626D01*
X157090896Y-117719530D01*
X157130712Y-117650565D01*
X157165348Y-117585767D01*
X157174710Y-117574359D01*
X157185076Y-117556405D01*
X157234416Y-117501607D01*
X157277324Y-117449324D01*
X157293291Y-117436219D01*
X157311113Y-117416427D01*
X157366002Y-117376546D01*
X157413767Y-117337348D01*
X157437180Y-117324833D01*
X157463500Y-117305711D01*
X157520109Y-117280506D01*
X157569433Y-117254143D01*
X157600471Y-117244727D01*
X157635576Y-117229098D01*
X157690430Y-117217438D01*
X157738340Y-117202905D01*
X157776476Y-117199148D01*
X157819820Y-117189936D01*
X157870016Y-117189936D01*
X157914000Y-117185604D01*
X157957983Y-117189936D01*
G37*
G36*
X139563979Y-117217493D02*
G01*
X139600906Y-117219366D01*
X139601761Y-117219541D01*
X139610009Y-117219989D01*
X139695379Y-117238780D01*
X139772562Y-117254641D01*
X139777958Y-117256956D01*
X139789726Y-117259547D01*
X139863110Y-117293498D01*
X139930677Y-117322494D01*
X139940381Y-117329248D01*
X139956736Y-117336815D01*
X140016216Y-117382030D01*
X140071901Y-117420788D01*
X140084143Y-117433667D01*
X140103232Y-117448178D01*
X140147695Y-117500524D01*
X140190437Y-117545489D01*
X140202975Y-117565605D01*
X140222363Y-117588430D01*
X140251738Y-117643837D01*
X140281453Y-117691510D01*
X140291742Y-117719293D01*
X140308559Y-117751012D01*
X140323739Y-117805686D01*
X140341208Y-117852854D01*
X140346591Y-117887992D01*
X140357789Y-117928324D01*
X140360538Y-117979035D01*
X140367263Y-118022929D01*
X140365163Y-118064329D01*
X140367752Y-118112072D01*
X140360497Y-118156319D01*
X140358548Y-118194768D01*
X140346680Y-118240605D01*
X140337981Y-118293667D01*
X140323589Y-118329787D01*
X140315422Y-118361332D01*
X140291978Y-118409124D01*
X140269869Y-118464616D01*
X140251389Y-118491870D01*
X140239648Y-118515808D01*
X140203475Y-118562539D01*
X140166600Y-118616926D01*
X140147020Y-118635472D01*
X140134331Y-118651866D01*
X140085067Y-118694157D01*
X140033003Y-118743475D01*
X140015003Y-118754305D01*
X140003780Y-118763940D01*
X139941987Y-118798237D01*
X139875326Y-118838347D01*
X139861071Y-118843149D01*
X139853344Y-118847439D01*
X139780639Y-118870250D01*
X139700940Y-118897104D01*
X139691927Y-118898084D01*
X139689174Y-118898948D01*
X139609295Y-118907070D01*
X139518000Y-118917000D01*
X139511657Y-118917000D01*
X138721177Y-118917000D01*
X138718000Y-118917000D01*
X138671865Y-118914498D01*
X138635093Y-118912633D01*
X138634243Y-118912458D01*
X138625991Y-118912011D01*
X138540566Y-118893207D01*
X138463437Y-118877358D01*
X138458044Y-118875043D01*
X138446274Y-118872453D01*
X138372872Y-118838493D01*
X138305322Y-118809505D01*
X138295619Y-118802752D01*
X138279264Y-118795185D01*
X138219778Y-118749965D01*
X138164098Y-118711211D01*
X138151855Y-118698332D01*
X138132768Y-118683822D01*
X138088304Y-118631475D01*
X138045562Y-118586510D01*
X138033022Y-118566392D01*
X138013637Y-118543570D01*
X137984263Y-118488166D01*
X137954546Y-118440489D01*
X137944255Y-118412702D01*
X137927441Y-118380988D01*
X137912262Y-118326320D01*
X137894791Y-118279145D01*
X137889406Y-118244000D01*
X137878211Y-118203676D01*
X137875461Y-118152973D01*
X137868736Y-118109070D01*
X137870836Y-118067660D01*
X137868248Y-118019928D01*
X137875500Y-117975689D01*
X137877451Y-117937231D01*
X137889322Y-117891381D01*
X137898019Y-117838333D01*
X137912407Y-117802221D01*
X137920577Y-117770667D01*
X137944027Y-117722859D01*
X137966131Y-117667384D01*
X137984604Y-117640137D01*
X137996351Y-117616191D01*
X138032537Y-117569442D01*
X138069400Y-117515074D01*
X138088972Y-117496533D01*
X138101668Y-117480133D01*
X138150953Y-117437823D01*
X138202997Y-117388525D01*
X138220989Y-117377699D01*
X138232219Y-117368059D01*
X138294045Y-117333742D01*
X138360674Y-117293653D01*
X138374921Y-117288852D01*
X138382655Y-117284560D01*
X138455417Y-117261730D01*
X138535060Y-117234896D01*
X138544066Y-117233916D01*
X138546825Y-117233051D01*
X138626790Y-117224919D01*
X138718000Y-117215000D01*
X139518000Y-117215000D01*
X139563979Y-117217493D01*
G37*
G36*
X154803979Y-117217493D02*
G01*
X154840906Y-117219366D01*
X154841761Y-117219541D01*
X154850009Y-117219989D01*
X154935379Y-117238780D01*
X155012562Y-117254641D01*
X155017958Y-117256956D01*
X155029726Y-117259547D01*
X155103110Y-117293498D01*
X155170677Y-117322494D01*
X155180381Y-117329248D01*
X155196736Y-117336815D01*
X155256216Y-117382030D01*
X155311901Y-117420788D01*
X155324143Y-117433667D01*
X155343232Y-117448178D01*
X155387695Y-117500524D01*
X155430437Y-117545489D01*
X155442975Y-117565605D01*
X155462363Y-117588430D01*
X155491738Y-117643837D01*
X155521453Y-117691510D01*
X155531742Y-117719293D01*
X155548559Y-117751012D01*
X155563739Y-117805686D01*
X155581208Y-117852854D01*
X155586591Y-117887992D01*
X155597789Y-117928324D01*
X155600538Y-117979035D01*
X155607263Y-118022929D01*
X155605163Y-118064329D01*
X155607752Y-118112072D01*
X155600497Y-118156319D01*
X155598548Y-118194768D01*
X155586680Y-118240605D01*
X155577981Y-118293667D01*
X155563589Y-118329787D01*
X155555422Y-118361332D01*
X155531978Y-118409124D01*
X155509869Y-118464616D01*
X155491389Y-118491870D01*
X155479648Y-118515808D01*
X155443475Y-118562539D01*
X155406600Y-118616926D01*
X155387020Y-118635472D01*
X155374331Y-118651866D01*
X155325067Y-118694157D01*
X155273003Y-118743475D01*
X155255003Y-118754305D01*
X155243780Y-118763940D01*
X155181987Y-118798237D01*
X155115326Y-118838347D01*
X155101071Y-118843149D01*
X155093344Y-118847439D01*
X155020639Y-118870250D01*
X154940940Y-118897104D01*
X154931927Y-118898084D01*
X154929174Y-118898948D01*
X154849295Y-118907070D01*
X154758000Y-118917000D01*
X154751657Y-118917000D01*
X153961177Y-118917000D01*
X153958000Y-118917000D01*
X153911865Y-118914498D01*
X153875093Y-118912633D01*
X153874243Y-118912458D01*
X153865991Y-118912011D01*
X153780566Y-118893207D01*
X153703437Y-118877358D01*
X153698044Y-118875043D01*
X153686274Y-118872453D01*
X153612872Y-118838493D01*
X153545322Y-118809505D01*
X153535619Y-118802752D01*
X153519264Y-118795185D01*
X153459778Y-118749965D01*
X153404098Y-118711211D01*
X153391855Y-118698332D01*
X153372768Y-118683822D01*
X153328304Y-118631475D01*
X153285562Y-118586510D01*
X153273022Y-118566392D01*
X153253637Y-118543570D01*
X153224263Y-118488166D01*
X153194546Y-118440489D01*
X153184255Y-118412702D01*
X153167441Y-118380988D01*
X153152262Y-118326320D01*
X153134791Y-118279145D01*
X153129406Y-118244000D01*
X153118211Y-118203676D01*
X153115461Y-118152973D01*
X153108736Y-118109070D01*
X153110836Y-118067660D01*
X153108248Y-118019928D01*
X153115500Y-117975689D01*
X153117451Y-117937231D01*
X153129322Y-117891381D01*
X153138019Y-117838333D01*
X153152407Y-117802221D01*
X153160577Y-117770667D01*
X153184027Y-117722859D01*
X153206131Y-117667384D01*
X153224604Y-117640137D01*
X153236351Y-117616191D01*
X153272537Y-117569442D01*
X153309400Y-117515074D01*
X153328972Y-117496533D01*
X153341668Y-117480133D01*
X153390953Y-117437823D01*
X153442997Y-117388525D01*
X153460989Y-117377699D01*
X153472219Y-117368059D01*
X153534045Y-117333742D01*
X153600674Y-117293653D01*
X153614921Y-117288852D01*
X153622655Y-117284560D01*
X153695417Y-117261730D01*
X153775060Y-117234896D01*
X153784066Y-117233916D01*
X153786825Y-117233051D01*
X153866790Y-117224919D01*
X153958000Y-117215000D01*
X154758000Y-117215000D01*
X154803979Y-117217493D01*
G37*
G36*
X142717983Y-114649936D02*
G01*
X142768180Y-114649936D01*
X142811524Y-114659149D01*
X142849659Y-114662905D01*
X142897566Y-114677437D01*
X142952424Y-114689098D01*
X142987530Y-114704728D01*
X143018566Y-114714143D01*
X143067884Y-114740504D01*
X143124500Y-114765711D01*
X143150822Y-114784835D01*
X143174232Y-114797348D01*
X143221988Y-114836540D01*
X143276887Y-114876427D01*
X143294711Y-114896223D01*
X143310675Y-114909324D01*
X143353572Y-114961594D01*
X143402924Y-115016405D01*
X143413292Y-115034363D01*
X143422651Y-115045767D01*
X143457273Y-115110542D01*
X143497104Y-115179530D01*
X143501685Y-115193630D01*
X143505856Y-115201433D01*
X143528852Y-115277242D01*
X143555311Y-115358672D01*
X143556242Y-115367532D01*
X143557094Y-115370340D01*
X143565384Y-115454513D01*
X143575000Y-115546000D01*
X143565383Y-115637494D01*
X143557094Y-115721659D01*
X143556242Y-115724466D01*
X143555311Y-115733328D01*
X143528848Y-115814771D01*
X143505856Y-115890566D01*
X143501686Y-115898366D01*
X143497104Y-115912470D01*
X143457266Y-115981470D01*
X143422651Y-116046232D01*
X143413294Y-116057633D01*
X143402924Y-116075595D01*
X143353563Y-116130415D01*
X143310675Y-116182675D01*
X143294714Y-116195773D01*
X143276887Y-116215573D01*
X143221977Y-116255467D01*
X143174232Y-116294651D01*
X143150827Y-116307161D01*
X143124500Y-116326289D01*
X143067873Y-116351500D01*
X143018566Y-116377856D01*
X142987537Y-116387268D01*
X142952424Y-116402902D01*
X142897555Y-116414564D01*
X142849659Y-116429094D01*
X142811532Y-116432849D01*
X142768180Y-116442064D01*
X142717973Y-116442064D01*
X142674000Y-116446395D01*
X142630027Y-116442064D01*
X142579820Y-116442064D01*
X142536467Y-116432849D01*
X142498340Y-116429094D01*
X142450441Y-116414563D01*
X142395576Y-116402902D01*
X142360464Y-116387269D01*
X142329433Y-116377856D01*
X142280120Y-116351498D01*
X142223500Y-116326289D01*
X142197175Y-116307163D01*
X142173767Y-116294651D01*
X142126013Y-116255460D01*
X142071113Y-116215573D01*
X142053287Y-116195776D01*
X142037324Y-116182675D01*
X141994425Y-116130402D01*
X141945076Y-116075595D01*
X141934708Y-116057637D01*
X141925348Y-116046232D01*
X141890719Y-115981447D01*
X141850896Y-115912470D01*
X141846315Y-115898371D01*
X141842143Y-115890566D01*
X141819136Y-115814725D01*
X141792689Y-115733328D01*
X141791758Y-115724471D01*
X141790905Y-115721659D01*
X141782600Y-115637342D01*
X141773000Y-115546000D01*
X141782599Y-115454664D01*
X141790905Y-115370340D01*
X141791758Y-115367527D01*
X141792689Y-115358672D01*
X141819132Y-115277288D01*
X141842143Y-115201433D01*
X141846315Y-115193626D01*
X141850896Y-115179530D01*
X141890712Y-115110565D01*
X141925348Y-115045767D01*
X141934710Y-115034359D01*
X141945076Y-115016405D01*
X141994416Y-114961607D01*
X142037324Y-114909324D01*
X142053291Y-114896219D01*
X142071113Y-114876427D01*
X142126002Y-114836546D01*
X142173767Y-114797348D01*
X142197180Y-114784833D01*
X142223500Y-114765711D01*
X142280109Y-114740506D01*
X142329433Y-114714143D01*
X142360471Y-114704727D01*
X142395576Y-114689098D01*
X142450430Y-114677438D01*
X142498340Y-114662905D01*
X142536476Y-114659148D01*
X142579820Y-114649936D01*
X142630016Y-114649936D01*
X142674000Y-114645604D01*
X142717983Y-114649936D01*
G37*
G36*
X157957983Y-114649936D02*
G01*
X158008180Y-114649936D01*
X158051524Y-114659149D01*
X158089659Y-114662905D01*
X158137566Y-114677437D01*
X158192424Y-114689098D01*
X158227530Y-114704728D01*
X158258566Y-114714143D01*
X158307884Y-114740504D01*
X158364500Y-114765711D01*
X158390822Y-114784835D01*
X158414232Y-114797348D01*
X158461988Y-114836540D01*
X158516887Y-114876427D01*
X158534711Y-114896223D01*
X158550675Y-114909324D01*
X158593572Y-114961594D01*
X158642924Y-115016405D01*
X158653292Y-115034363D01*
X158662651Y-115045767D01*
X158697273Y-115110542D01*
X158737104Y-115179530D01*
X158741685Y-115193630D01*
X158745856Y-115201433D01*
X158768852Y-115277242D01*
X158795311Y-115358672D01*
X158796242Y-115367532D01*
X158797094Y-115370340D01*
X158805384Y-115454513D01*
X158815000Y-115546000D01*
X158805383Y-115637494D01*
X158797094Y-115721659D01*
X158796242Y-115724466D01*
X158795311Y-115733328D01*
X158768848Y-115814771D01*
X158745856Y-115890566D01*
X158741686Y-115898366D01*
X158737104Y-115912470D01*
X158697266Y-115981470D01*
X158662651Y-116046232D01*
X158653294Y-116057633D01*
X158642924Y-116075595D01*
X158593563Y-116130415D01*
X158550675Y-116182675D01*
X158534714Y-116195773D01*
X158516887Y-116215573D01*
X158461977Y-116255467D01*
X158414232Y-116294651D01*
X158390827Y-116307161D01*
X158364500Y-116326289D01*
X158307873Y-116351500D01*
X158258566Y-116377856D01*
X158227537Y-116387268D01*
X158192424Y-116402902D01*
X158137555Y-116414564D01*
X158089659Y-116429094D01*
X158051532Y-116432849D01*
X158008180Y-116442064D01*
X157957973Y-116442064D01*
X157914000Y-116446395D01*
X157870027Y-116442064D01*
X157819820Y-116442064D01*
X157776467Y-116432849D01*
X157738340Y-116429094D01*
X157690441Y-116414563D01*
X157635576Y-116402902D01*
X157600464Y-116387269D01*
X157569433Y-116377856D01*
X157520120Y-116351498D01*
X157463500Y-116326289D01*
X157437175Y-116307163D01*
X157413767Y-116294651D01*
X157366013Y-116255460D01*
X157311113Y-116215573D01*
X157293287Y-116195776D01*
X157277324Y-116182675D01*
X157234425Y-116130402D01*
X157185076Y-116075595D01*
X157174708Y-116057637D01*
X157165348Y-116046232D01*
X157130719Y-115981447D01*
X157090896Y-115912470D01*
X157086315Y-115898371D01*
X157082143Y-115890566D01*
X157059136Y-115814725D01*
X157032689Y-115733328D01*
X157031758Y-115724471D01*
X157030905Y-115721659D01*
X157022600Y-115637342D01*
X157013000Y-115546000D01*
X157022599Y-115454664D01*
X157030905Y-115370340D01*
X157031758Y-115367527D01*
X157032689Y-115358672D01*
X157059132Y-115277288D01*
X157082143Y-115201433D01*
X157086315Y-115193626D01*
X157090896Y-115179530D01*
X157130712Y-115110565D01*
X157165348Y-115045767D01*
X157174710Y-115034359D01*
X157185076Y-115016405D01*
X157234416Y-114961607D01*
X157277324Y-114909324D01*
X157293291Y-114896219D01*
X157311113Y-114876427D01*
X157366002Y-114836546D01*
X157413767Y-114797348D01*
X157437180Y-114784833D01*
X157463500Y-114765711D01*
X157520109Y-114740506D01*
X157569433Y-114714143D01*
X157600471Y-114704727D01*
X157635576Y-114689098D01*
X157690430Y-114677438D01*
X157738340Y-114662905D01*
X157776476Y-114659148D01*
X157819820Y-114649936D01*
X157870016Y-114649936D01*
X157914000Y-114645604D01*
X157957983Y-114649936D01*
G37*
G36*
X139563979Y-114677493D02*
G01*
X139600906Y-114679366D01*
X139601761Y-114679541D01*
X139610009Y-114679989D01*
X139695379Y-114698780D01*
X139772562Y-114714641D01*
X139777958Y-114716956D01*
X139789726Y-114719547D01*
X139863110Y-114753498D01*
X139930677Y-114782494D01*
X139940381Y-114789248D01*
X139956736Y-114796815D01*
X140016216Y-114842030D01*
X140071901Y-114880788D01*
X140084143Y-114893667D01*
X140103232Y-114908178D01*
X140147695Y-114960524D01*
X140190437Y-115005489D01*
X140202975Y-115025605D01*
X140222363Y-115048430D01*
X140251738Y-115103837D01*
X140281453Y-115151510D01*
X140291742Y-115179293D01*
X140308559Y-115211012D01*
X140323739Y-115265686D01*
X140341208Y-115312854D01*
X140346591Y-115347992D01*
X140357789Y-115388324D01*
X140360538Y-115439035D01*
X140367263Y-115482929D01*
X140365163Y-115524329D01*
X140367752Y-115572072D01*
X140360497Y-115616319D01*
X140358548Y-115654768D01*
X140346680Y-115700605D01*
X140337981Y-115753667D01*
X140323589Y-115789787D01*
X140315422Y-115821332D01*
X140291978Y-115869124D01*
X140269869Y-115924616D01*
X140251389Y-115951870D01*
X140239648Y-115975808D01*
X140203475Y-116022539D01*
X140166600Y-116076926D01*
X140147020Y-116095472D01*
X140134331Y-116111866D01*
X140085067Y-116154157D01*
X140033003Y-116203475D01*
X140015003Y-116214305D01*
X140003780Y-116223940D01*
X139941987Y-116258237D01*
X139875326Y-116298347D01*
X139861071Y-116303149D01*
X139853344Y-116307439D01*
X139780639Y-116330250D01*
X139700940Y-116357104D01*
X139691927Y-116358084D01*
X139689174Y-116358948D01*
X139609295Y-116367070D01*
X139518000Y-116377000D01*
X139511657Y-116377000D01*
X138721177Y-116377000D01*
X138718000Y-116377000D01*
X138671865Y-116374498D01*
X138635093Y-116372633D01*
X138634243Y-116372458D01*
X138625991Y-116372011D01*
X138540566Y-116353207D01*
X138463437Y-116337358D01*
X138458044Y-116335043D01*
X138446274Y-116332453D01*
X138372872Y-116298493D01*
X138305322Y-116269505D01*
X138295619Y-116262752D01*
X138279264Y-116255185D01*
X138219778Y-116209965D01*
X138164098Y-116171211D01*
X138151855Y-116158332D01*
X138132768Y-116143822D01*
X138088304Y-116091475D01*
X138045562Y-116046510D01*
X138033022Y-116026392D01*
X138013637Y-116003570D01*
X137984263Y-115948166D01*
X137954546Y-115900489D01*
X137944255Y-115872702D01*
X137927441Y-115840988D01*
X137912262Y-115786320D01*
X137894791Y-115739145D01*
X137889406Y-115704000D01*
X137878211Y-115663676D01*
X137875461Y-115612973D01*
X137868736Y-115569070D01*
X137870836Y-115527660D01*
X137868248Y-115479928D01*
X137875500Y-115435689D01*
X137877451Y-115397231D01*
X137889322Y-115351381D01*
X137898019Y-115298333D01*
X137912407Y-115262221D01*
X137920577Y-115230667D01*
X137944027Y-115182859D01*
X137966131Y-115127384D01*
X137984604Y-115100137D01*
X137996351Y-115076191D01*
X138032537Y-115029442D01*
X138069400Y-114975074D01*
X138088972Y-114956533D01*
X138101668Y-114940133D01*
X138150953Y-114897823D01*
X138202997Y-114848525D01*
X138220989Y-114837699D01*
X138232219Y-114828059D01*
X138294045Y-114793742D01*
X138360674Y-114753653D01*
X138374921Y-114748852D01*
X138382655Y-114744560D01*
X138455417Y-114721730D01*
X138535060Y-114694896D01*
X138544066Y-114693916D01*
X138546825Y-114693051D01*
X138626790Y-114684919D01*
X138718000Y-114675000D01*
X139518000Y-114675000D01*
X139563979Y-114677493D01*
G37*
G36*
X154803979Y-114677493D02*
G01*
X154840906Y-114679366D01*
X154841761Y-114679541D01*
X154850009Y-114679989D01*
X154935379Y-114698780D01*
X155012562Y-114714641D01*
X155017958Y-114716956D01*
X155029726Y-114719547D01*
X155103110Y-114753498D01*
X155170677Y-114782494D01*
X155180381Y-114789248D01*
X155196736Y-114796815D01*
X155256216Y-114842030D01*
X155311901Y-114880788D01*
X155324143Y-114893667D01*
X155343232Y-114908178D01*
X155387695Y-114960524D01*
X155430437Y-115005489D01*
X155442975Y-115025605D01*
X155462363Y-115048430D01*
X155491738Y-115103837D01*
X155521453Y-115151510D01*
X155531742Y-115179293D01*
X155548559Y-115211012D01*
X155563739Y-115265686D01*
X155581208Y-115312854D01*
X155586591Y-115347992D01*
X155597789Y-115388324D01*
X155600538Y-115439035D01*
X155607263Y-115482929D01*
X155605163Y-115524329D01*
X155607752Y-115572072D01*
X155600497Y-115616319D01*
X155598548Y-115654768D01*
X155586680Y-115700605D01*
X155577981Y-115753667D01*
X155563589Y-115789787D01*
X155555422Y-115821332D01*
X155531978Y-115869124D01*
X155509869Y-115924616D01*
X155491389Y-115951870D01*
X155479648Y-115975808D01*
X155443475Y-116022539D01*
X155406600Y-116076926D01*
X155387020Y-116095472D01*
X155374331Y-116111866D01*
X155325067Y-116154157D01*
X155273003Y-116203475D01*
X155255003Y-116214305D01*
X155243780Y-116223940D01*
X155181987Y-116258237D01*
X155115326Y-116298347D01*
X155101071Y-116303149D01*
X155093344Y-116307439D01*
X155020639Y-116330250D01*
X154940940Y-116357104D01*
X154931927Y-116358084D01*
X154929174Y-116358948D01*
X154849295Y-116367070D01*
X154758000Y-116377000D01*
X154751657Y-116377000D01*
X153961177Y-116377000D01*
X153958000Y-116377000D01*
X153911865Y-116374498D01*
X153875093Y-116372633D01*
X153874243Y-116372458D01*
X153865991Y-116372011D01*
X153780566Y-116353207D01*
X153703437Y-116337358D01*
X153698044Y-116335043D01*
X153686274Y-116332453D01*
X153612872Y-116298493D01*
X153545322Y-116269505D01*
X153535619Y-116262752D01*
X153519264Y-116255185D01*
X153459778Y-116209965D01*
X153404098Y-116171211D01*
X153391855Y-116158332D01*
X153372768Y-116143822D01*
X153328304Y-116091475D01*
X153285562Y-116046510D01*
X153273022Y-116026392D01*
X153253637Y-116003570D01*
X153224263Y-115948166D01*
X153194546Y-115900489D01*
X153184255Y-115872702D01*
X153167441Y-115840988D01*
X153152262Y-115786320D01*
X153134791Y-115739145D01*
X153129406Y-115704000D01*
X153118211Y-115663676D01*
X153115461Y-115612973D01*
X153108736Y-115569070D01*
X153110836Y-115527660D01*
X153108248Y-115479928D01*
X153115500Y-115435689D01*
X153117451Y-115397231D01*
X153129322Y-115351381D01*
X153138019Y-115298333D01*
X153152407Y-115262221D01*
X153160577Y-115230667D01*
X153184027Y-115182859D01*
X153206131Y-115127384D01*
X153224604Y-115100137D01*
X153236351Y-115076191D01*
X153272537Y-115029442D01*
X153309400Y-114975074D01*
X153328972Y-114956533D01*
X153341668Y-114940133D01*
X153390953Y-114897823D01*
X153442997Y-114848525D01*
X153460989Y-114837699D01*
X153472219Y-114828059D01*
X153534045Y-114793742D01*
X153600674Y-114753653D01*
X153614921Y-114748852D01*
X153622655Y-114744560D01*
X153695417Y-114721730D01*
X153775060Y-114694896D01*
X153784066Y-114693916D01*
X153786825Y-114693051D01*
X153866790Y-114684919D01*
X153958000Y-114675000D01*
X154758000Y-114675000D01*
X154803979Y-114677493D01*
G37*
G36*
X142717983Y-112109936D02*
G01*
X142768180Y-112109936D01*
X142811524Y-112119149D01*
X142849659Y-112122905D01*
X142897566Y-112137437D01*
X142952424Y-112149098D01*
X142987530Y-112164728D01*
X143018566Y-112174143D01*
X143067884Y-112200504D01*
X143124500Y-112225711D01*
X143150822Y-112244835D01*
X143174232Y-112257348D01*
X143221988Y-112296540D01*
X143276887Y-112336427D01*
X143294711Y-112356223D01*
X143310675Y-112369324D01*
X143353572Y-112421594D01*
X143402924Y-112476405D01*
X143413292Y-112494363D01*
X143422651Y-112505767D01*
X143457273Y-112570542D01*
X143497104Y-112639530D01*
X143501685Y-112653630D01*
X143505856Y-112661433D01*
X143528852Y-112737242D01*
X143555311Y-112818672D01*
X143556242Y-112827532D01*
X143557094Y-112830340D01*
X143565384Y-112914513D01*
X143575000Y-113006000D01*
X143565383Y-113097494D01*
X143557094Y-113181659D01*
X143556242Y-113184466D01*
X143555311Y-113193328D01*
X143528848Y-113274771D01*
X143505856Y-113350566D01*
X143501686Y-113358366D01*
X143497104Y-113372470D01*
X143457266Y-113441470D01*
X143422651Y-113506232D01*
X143413294Y-113517633D01*
X143402924Y-113535595D01*
X143353563Y-113590415D01*
X143310675Y-113642675D01*
X143294714Y-113655773D01*
X143276887Y-113675573D01*
X143221977Y-113715467D01*
X143174232Y-113754651D01*
X143150827Y-113767161D01*
X143124500Y-113786289D01*
X143067873Y-113811500D01*
X143018566Y-113837856D01*
X142987537Y-113847268D01*
X142952424Y-113862902D01*
X142897555Y-113874564D01*
X142849659Y-113889094D01*
X142811532Y-113892849D01*
X142768180Y-113902064D01*
X142717973Y-113902064D01*
X142674000Y-113906395D01*
X142630027Y-113902064D01*
X142579820Y-113902064D01*
X142536467Y-113892849D01*
X142498340Y-113889094D01*
X142450441Y-113874563D01*
X142395576Y-113862902D01*
X142360464Y-113847269D01*
X142329433Y-113837856D01*
X142280120Y-113811498D01*
X142223500Y-113786289D01*
X142197175Y-113767163D01*
X142173767Y-113754651D01*
X142126013Y-113715460D01*
X142071113Y-113675573D01*
X142053287Y-113655776D01*
X142037324Y-113642675D01*
X141994425Y-113590402D01*
X141945076Y-113535595D01*
X141934708Y-113517637D01*
X141925348Y-113506232D01*
X141890719Y-113441447D01*
X141850896Y-113372470D01*
X141846315Y-113358371D01*
X141842143Y-113350566D01*
X141819136Y-113274725D01*
X141792689Y-113193328D01*
X141791758Y-113184471D01*
X141790905Y-113181659D01*
X141782600Y-113097342D01*
X141773000Y-113006000D01*
X141782599Y-112914664D01*
X141790905Y-112830340D01*
X141791758Y-112827527D01*
X141792689Y-112818672D01*
X141819132Y-112737288D01*
X141842143Y-112661433D01*
X141846315Y-112653626D01*
X141850896Y-112639530D01*
X141890712Y-112570565D01*
X141925348Y-112505767D01*
X141934710Y-112494359D01*
X141945076Y-112476405D01*
X141994416Y-112421607D01*
X142037324Y-112369324D01*
X142053291Y-112356219D01*
X142071113Y-112336427D01*
X142126002Y-112296546D01*
X142173767Y-112257348D01*
X142197180Y-112244833D01*
X142223500Y-112225711D01*
X142280109Y-112200506D01*
X142329433Y-112174143D01*
X142360471Y-112164727D01*
X142395576Y-112149098D01*
X142450430Y-112137438D01*
X142498340Y-112122905D01*
X142536476Y-112119148D01*
X142579820Y-112109936D01*
X142630016Y-112109936D01*
X142674000Y-112105604D01*
X142717983Y-112109936D01*
G37*
G36*
X157957983Y-112109936D02*
G01*
X158008180Y-112109936D01*
X158051524Y-112119149D01*
X158089659Y-112122905D01*
X158137566Y-112137437D01*
X158192424Y-112149098D01*
X158227530Y-112164728D01*
X158258566Y-112174143D01*
X158307884Y-112200504D01*
X158364500Y-112225711D01*
X158390822Y-112244835D01*
X158414232Y-112257348D01*
X158461988Y-112296540D01*
X158516887Y-112336427D01*
X158534711Y-112356223D01*
X158550675Y-112369324D01*
X158593572Y-112421594D01*
X158642924Y-112476405D01*
X158653292Y-112494363D01*
X158662651Y-112505767D01*
X158697273Y-112570542D01*
X158737104Y-112639530D01*
X158741685Y-112653630D01*
X158745856Y-112661433D01*
X158768852Y-112737242D01*
X158795311Y-112818672D01*
X158796242Y-112827532D01*
X158797094Y-112830340D01*
X158805384Y-112914513D01*
X158815000Y-113006000D01*
X158805383Y-113097494D01*
X158797094Y-113181659D01*
X158796242Y-113184466D01*
X158795311Y-113193328D01*
X158768848Y-113274771D01*
X158745856Y-113350566D01*
X158741686Y-113358366D01*
X158737104Y-113372470D01*
X158697266Y-113441470D01*
X158662651Y-113506232D01*
X158653294Y-113517633D01*
X158642924Y-113535595D01*
X158593563Y-113590415D01*
X158550675Y-113642675D01*
X158534714Y-113655773D01*
X158516887Y-113675573D01*
X158461977Y-113715467D01*
X158414232Y-113754651D01*
X158390827Y-113767161D01*
X158364500Y-113786289D01*
X158307873Y-113811500D01*
X158258566Y-113837856D01*
X158227537Y-113847268D01*
X158192424Y-113862902D01*
X158137555Y-113874564D01*
X158089659Y-113889094D01*
X158051532Y-113892849D01*
X158008180Y-113902064D01*
X157957973Y-113902064D01*
X157914000Y-113906395D01*
X157870027Y-113902064D01*
X157819820Y-113902064D01*
X157776467Y-113892849D01*
X157738340Y-113889094D01*
X157690441Y-113874563D01*
X157635576Y-113862902D01*
X157600464Y-113847269D01*
X157569433Y-113837856D01*
X157520120Y-113811498D01*
X157463500Y-113786289D01*
X157437175Y-113767163D01*
X157413767Y-113754651D01*
X157366013Y-113715460D01*
X157311113Y-113675573D01*
X157293287Y-113655776D01*
X157277324Y-113642675D01*
X157234425Y-113590402D01*
X157185076Y-113535595D01*
X157174708Y-113517637D01*
X157165348Y-113506232D01*
X157130719Y-113441447D01*
X157090896Y-113372470D01*
X157086315Y-113358371D01*
X157082143Y-113350566D01*
X157059136Y-113274725D01*
X157032689Y-113193328D01*
X157031758Y-113184471D01*
X157030905Y-113181659D01*
X157022600Y-113097342D01*
X157013000Y-113006000D01*
X157022599Y-112914664D01*
X157030905Y-112830340D01*
X157031758Y-112827527D01*
X157032689Y-112818672D01*
X157059132Y-112737288D01*
X157082143Y-112661433D01*
X157086315Y-112653626D01*
X157090896Y-112639530D01*
X157130712Y-112570565D01*
X157165348Y-112505767D01*
X157174710Y-112494359D01*
X157185076Y-112476405D01*
X157234416Y-112421607D01*
X157277324Y-112369324D01*
X157293291Y-112356219D01*
X157311113Y-112336427D01*
X157366002Y-112296546D01*
X157413767Y-112257348D01*
X157437180Y-112244833D01*
X157463500Y-112225711D01*
X157520109Y-112200506D01*
X157569433Y-112174143D01*
X157600471Y-112164727D01*
X157635576Y-112149098D01*
X157690430Y-112137438D01*
X157738340Y-112122905D01*
X157776476Y-112119148D01*
X157819820Y-112109936D01*
X157870016Y-112109936D01*
X157914000Y-112105604D01*
X157957983Y-112109936D01*
G37*
G36*
X139563979Y-112137493D02*
G01*
X139600906Y-112139366D01*
X139601761Y-112139541D01*
X139610009Y-112139989D01*
X139695379Y-112158780D01*
X139772562Y-112174641D01*
X139777958Y-112176956D01*
X139789726Y-112179547D01*
X139863110Y-112213498D01*
X139930677Y-112242494D01*
X139940381Y-112249248D01*
X139956736Y-112256815D01*
X140016216Y-112302030D01*
X140071901Y-112340788D01*
X140084143Y-112353667D01*
X140103232Y-112368178D01*
X140147695Y-112420524D01*
X140190437Y-112465489D01*
X140202975Y-112485605D01*
X140222363Y-112508430D01*
X140251738Y-112563837D01*
X140281453Y-112611510D01*
X140291742Y-112639293D01*
X140308559Y-112671012D01*
X140323739Y-112725686D01*
X140341208Y-112772854D01*
X140346591Y-112807992D01*
X140357789Y-112848324D01*
X140360538Y-112899035D01*
X140367263Y-112942929D01*
X140365163Y-112984329D01*
X140367752Y-113032072D01*
X140360497Y-113076319D01*
X140358548Y-113114768D01*
X140346680Y-113160605D01*
X140337981Y-113213667D01*
X140323589Y-113249787D01*
X140315422Y-113281332D01*
X140291978Y-113329124D01*
X140269869Y-113384616D01*
X140251389Y-113411870D01*
X140239648Y-113435808D01*
X140203475Y-113482539D01*
X140166600Y-113536926D01*
X140147020Y-113555472D01*
X140134331Y-113571866D01*
X140085067Y-113614157D01*
X140033003Y-113663475D01*
X140015003Y-113674305D01*
X140003780Y-113683940D01*
X139941987Y-113718237D01*
X139875326Y-113758347D01*
X139861071Y-113763149D01*
X139853344Y-113767439D01*
X139780639Y-113790250D01*
X139700940Y-113817104D01*
X139691927Y-113818084D01*
X139689174Y-113818948D01*
X139609295Y-113827070D01*
X139518000Y-113837000D01*
X139511657Y-113837000D01*
X138721177Y-113837000D01*
X138718000Y-113837000D01*
X138671865Y-113834498D01*
X138635093Y-113832633D01*
X138634243Y-113832458D01*
X138625991Y-113832011D01*
X138540566Y-113813207D01*
X138463437Y-113797358D01*
X138458044Y-113795043D01*
X138446274Y-113792453D01*
X138372872Y-113758493D01*
X138305322Y-113729505D01*
X138295619Y-113722752D01*
X138279264Y-113715185D01*
X138219778Y-113669965D01*
X138164098Y-113631211D01*
X138151855Y-113618332D01*
X138132768Y-113603822D01*
X138088304Y-113551475D01*
X138045562Y-113506510D01*
X138033022Y-113486392D01*
X138013637Y-113463570D01*
X137984263Y-113408166D01*
X137954546Y-113360489D01*
X137944255Y-113332702D01*
X137927441Y-113300988D01*
X137912262Y-113246320D01*
X137894791Y-113199145D01*
X137889406Y-113164000D01*
X137878211Y-113123676D01*
X137875461Y-113072973D01*
X137868736Y-113029070D01*
X137870836Y-112987660D01*
X137868248Y-112939928D01*
X137875500Y-112895689D01*
X137877451Y-112857231D01*
X137889322Y-112811381D01*
X137898019Y-112758333D01*
X137912407Y-112722221D01*
X137920577Y-112690667D01*
X137944027Y-112642859D01*
X137966131Y-112587384D01*
X137984604Y-112560137D01*
X137996351Y-112536191D01*
X138032537Y-112489442D01*
X138069400Y-112435074D01*
X138088972Y-112416533D01*
X138101668Y-112400133D01*
X138150953Y-112357823D01*
X138202997Y-112308525D01*
X138220989Y-112297699D01*
X138232219Y-112288059D01*
X138294045Y-112253742D01*
X138360674Y-112213653D01*
X138374921Y-112208852D01*
X138382655Y-112204560D01*
X138455417Y-112181730D01*
X138535060Y-112154896D01*
X138544066Y-112153916D01*
X138546825Y-112153051D01*
X138626790Y-112144919D01*
X138718000Y-112135000D01*
X139518000Y-112135000D01*
X139563979Y-112137493D01*
G37*
G36*
X154803979Y-112137493D02*
G01*
X154840906Y-112139366D01*
X154841761Y-112139541D01*
X154850009Y-112139989D01*
X154935379Y-112158780D01*
X155012562Y-112174641D01*
X155017958Y-112176956D01*
X155029726Y-112179547D01*
X155103110Y-112213498D01*
X155170677Y-112242494D01*
X155180381Y-112249248D01*
X155196736Y-112256815D01*
X155256216Y-112302030D01*
X155311901Y-112340788D01*
X155324143Y-112353667D01*
X155343232Y-112368178D01*
X155387695Y-112420524D01*
X155430437Y-112465489D01*
X155442975Y-112485605D01*
X155462363Y-112508430D01*
X155491738Y-112563837D01*
X155521453Y-112611510D01*
X155531742Y-112639293D01*
X155548559Y-112671012D01*
X155563739Y-112725686D01*
X155581208Y-112772854D01*
X155586591Y-112807992D01*
X155597789Y-112848324D01*
X155600538Y-112899035D01*
X155607263Y-112942929D01*
X155605163Y-112984329D01*
X155607752Y-113032072D01*
X155600497Y-113076319D01*
X155598548Y-113114768D01*
X155586680Y-113160605D01*
X155577981Y-113213667D01*
X155563589Y-113249787D01*
X155555422Y-113281332D01*
X155531978Y-113329124D01*
X155509869Y-113384616D01*
X155491389Y-113411870D01*
X155479648Y-113435808D01*
X155443475Y-113482539D01*
X155406600Y-113536926D01*
X155387020Y-113555472D01*
X155374331Y-113571866D01*
X155325067Y-113614157D01*
X155273003Y-113663475D01*
X155255003Y-113674305D01*
X155243780Y-113683940D01*
X155181987Y-113718237D01*
X155115326Y-113758347D01*
X155101071Y-113763149D01*
X155093344Y-113767439D01*
X155020639Y-113790250D01*
X154940940Y-113817104D01*
X154931927Y-113818084D01*
X154929174Y-113818948D01*
X154849295Y-113827070D01*
X154758000Y-113837000D01*
X154751657Y-113837000D01*
X153961177Y-113837000D01*
X153958000Y-113837000D01*
X153911865Y-113834498D01*
X153875093Y-113832633D01*
X153874243Y-113832458D01*
X153865991Y-113832011D01*
X153780566Y-113813207D01*
X153703437Y-113797358D01*
X153698044Y-113795043D01*
X153686274Y-113792453D01*
X153612872Y-113758493D01*
X153545322Y-113729505D01*
X153535619Y-113722752D01*
X153519264Y-113715185D01*
X153459778Y-113669965D01*
X153404098Y-113631211D01*
X153391855Y-113618332D01*
X153372768Y-113603822D01*
X153328304Y-113551475D01*
X153285562Y-113506510D01*
X153273022Y-113486392D01*
X153253637Y-113463570D01*
X153224263Y-113408166D01*
X153194546Y-113360489D01*
X153184255Y-113332702D01*
X153167441Y-113300988D01*
X153152262Y-113246320D01*
X153134791Y-113199145D01*
X153129406Y-113164000D01*
X153118211Y-113123676D01*
X153115461Y-113072973D01*
X153108736Y-113029070D01*
X153110836Y-112987660D01*
X153108248Y-112939928D01*
X153115500Y-112895689D01*
X153117451Y-112857231D01*
X153129322Y-112811381D01*
X153138019Y-112758333D01*
X153152407Y-112722221D01*
X153160577Y-112690667D01*
X153184027Y-112642859D01*
X153206131Y-112587384D01*
X153224604Y-112560137D01*
X153236351Y-112536191D01*
X153272537Y-112489442D01*
X153309400Y-112435074D01*
X153328972Y-112416533D01*
X153341668Y-112400133D01*
X153390953Y-112357823D01*
X153442997Y-112308525D01*
X153460989Y-112297699D01*
X153472219Y-112288059D01*
X153534045Y-112253742D01*
X153600674Y-112213653D01*
X153614921Y-112208852D01*
X153622655Y-112204560D01*
X153695417Y-112181730D01*
X153775060Y-112154896D01*
X153784066Y-112153916D01*
X153786825Y-112153051D01*
X153866790Y-112144919D01*
X153958000Y-112135000D01*
X154758000Y-112135000D01*
X154803979Y-112137493D01*
G37*
G36*
X142717983Y-109569936D02*
G01*
X142768180Y-109569936D01*
X142811524Y-109579149D01*
X142849659Y-109582905D01*
X142897566Y-109597437D01*
X142952424Y-109609098D01*
X142987530Y-109624728D01*
X143018566Y-109634143D01*
X143067884Y-109660504D01*
X143124500Y-109685711D01*
X143150822Y-109704835D01*
X143174232Y-109717348D01*
X143221988Y-109756540D01*
X143276887Y-109796427D01*
X143294711Y-109816223D01*
X143310675Y-109829324D01*
X143353572Y-109881594D01*
X143402924Y-109936405D01*
X143413292Y-109954363D01*
X143422651Y-109965767D01*
X143457273Y-110030542D01*
X143497104Y-110099530D01*
X143501685Y-110113630D01*
X143505856Y-110121433D01*
X143528852Y-110197242D01*
X143555311Y-110278672D01*
X143556242Y-110287532D01*
X143557094Y-110290340D01*
X143565384Y-110374513D01*
X143575000Y-110466000D01*
X143565383Y-110557494D01*
X143557094Y-110641659D01*
X143556242Y-110644466D01*
X143555311Y-110653328D01*
X143528848Y-110734771D01*
X143505856Y-110810566D01*
X143501686Y-110818366D01*
X143497104Y-110832470D01*
X143457266Y-110901470D01*
X143422651Y-110966232D01*
X143413294Y-110977633D01*
X143402924Y-110995595D01*
X143353563Y-111050415D01*
X143310675Y-111102675D01*
X143294714Y-111115773D01*
X143276887Y-111135573D01*
X143221977Y-111175467D01*
X143174232Y-111214651D01*
X143150827Y-111227161D01*
X143124500Y-111246289D01*
X143067873Y-111271500D01*
X143018566Y-111297856D01*
X142987537Y-111307268D01*
X142952424Y-111322902D01*
X142897555Y-111334564D01*
X142849659Y-111349094D01*
X142811532Y-111352849D01*
X142768180Y-111362064D01*
X142717973Y-111362064D01*
X142674000Y-111366395D01*
X142630027Y-111362064D01*
X142579820Y-111362064D01*
X142536467Y-111352849D01*
X142498340Y-111349094D01*
X142450441Y-111334563D01*
X142395576Y-111322902D01*
X142360464Y-111307269D01*
X142329433Y-111297856D01*
X142280120Y-111271498D01*
X142223500Y-111246289D01*
X142197175Y-111227163D01*
X142173767Y-111214651D01*
X142126013Y-111175460D01*
X142071113Y-111135573D01*
X142053287Y-111115776D01*
X142037324Y-111102675D01*
X141994425Y-111050402D01*
X141945076Y-110995595D01*
X141934708Y-110977637D01*
X141925348Y-110966232D01*
X141890719Y-110901447D01*
X141850896Y-110832470D01*
X141846315Y-110818371D01*
X141842143Y-110810566D01*
X141819136Y-110734725D01*
X141792689Y-110653328D01*
X141791758Y-110644471D01*
X141790905Y-110641659D01*
X141782600Y-110557342D01*
X141773000Y-110466000D01*
X141782599Y-110374664D01*
X141790905Y-110290340D01*
X141791758Y-110287527D01*
X141792689Y-110278672D01*
X141819132Y-110197288D01*
X141842143Y-110121433D01*
X141846315Y-110113626D01*
X141850896Y-110099530D01*
X141890712Y-110030565D01*
X141925348Y-109965767D01*
X141934710Y-109954359D01*
X141945076Y-109936405D01*
X141994416Y-109881607D01*
X142037324Y-109829324D01*
X142053291Y-109816219D01*
X142071113Y-109796427D01*
X142126002Y-109756546D01*
X142173767Y-109717348D01*
X142197180Y-109704833D01*
X142223500Y-109685711D01*
X142280109Y-109660506D01*
X142329433Y-109634143D01*
X142360471Y-109624727D01*
X142395576Y-109609098D01*
X142450430Y-109597438D01*
X142498340Y-109582905D01*
X142536476Y-109579148D01*
X142579820Y-109569936D01*
X142630016Y-109569936D01*
X142674000Y-109565604D01*
X142717983Y-109569936D01*
G37*
G36*
X157957983Y-109569936D02*
G01*
X158008180Y-109569936D01*
X158051524Y-109579149D01*
X158089659Y-109582905D01*
X158137566Y-109597437D01*
X158192424Y-109609098D01*
X158227530Y-109624728D01*
X158258566Y-109634143D01*
X158307884Y-109660504D01*
X158364500Y-109685711D01*
X158390822Y-109704835D01*
X158414232Y-109717348D01*
X158461988Y-109756540D01*
X158516887Y-109796427D01*
X158534711Y-109816223D01*
X158550675Y-109829324D01*
X158593572Y-109881594D01*
X158642924Y-109936405D01*
X158653292Y-109954363D01*
X158662651Y-109965767D01*
X158697273Y-110030542D01*
X158737104Y-110099530D01*
X158741685Y-110113630D01*
X158745856Y-110121433D01*
X158768852Y-110197242D01*
X158795311Y-110278672D01*
X158796242Y-110287532D01*
X158797094Y-110290340D01*
X158805384Y-110374513D01*
X158815000Y-110466000D01*
X158805383Y-110557494D01*
X158797094Y-110641659D01*
X158796242Y-110644466D01*
X158795311Y-110653328D01*
X158768848Y-110734771D01*
X158745856Y-110810566D01*
X158741686Y-110818366D01*
X158737104Y-110832470D01*
X158697266Y-110901470D01*
X158662651Y-110966232D01*
X158653294Y-110977633D01*
X158642924Y-110995595D01*
X158593563Y-111050415D01*
X158550675Y-111102675D01*
X158534714Y-111115773D01*
X158516887Y-111135573D01*
X158461977Y-111175467D01*
X158414232Y-111214651D01*
X158390827Y-111227161D01*
X158364500Y-111246289D01*
X158307873Y-111271500D01*
X158258566Y-111297856D01*
X158227537Y-111307268D01*
X158192424Y-111322902D01*
X158137555Y-111334564D01*
X158089659Y-111349094D01*
X158051532Y-111352849D01*
X158008180Y-111362064D01*
X157957973Y-111362064D01*
X157914000Y-111366395D01*
X157870027Y-111362064D01*
X157819820Y-111362064D01*
X157776467Y-111352849D01*
X157738340Y-111349094D01*
X157690441Y-111334563D01*
X157635576Y-111322902D01*
X157600464Y-111307269D01*
X157569433Y-111297856D01*
X157520120Y-111271498D01*
X157463500Y-111246289D01*
X157437175Y-111227163D01*
X157413767Y-111214651D01*
X157366013Y-111175460D01*
X157311113Y-111135573D01*
X157293287Y-111115776D01*
X157277324Y-111102675D01*
X157234425Y-111050402D01*
X157185076Y-110995595D01*
X157174708Y-110977637D01*
X157165348Y-110966232D01*
X157130719Y-110901447D01*
X157090896Y-110832470D01*
X157086315Y-110818371D01*
X157082143Y-110810566D01*
X157059136Y-110734725D01*
X157032689Y-110653328D01*
X157031758Y-110644471D01*
X157030905Y-110641659D01*
X157022600Y-110557342D01*
X157013000Y-110466000D01*
X157022599Y-110374664D01*
X157030905Y-110290340D01*
X157031758Y-110287527D01*
X157032689Y-110278672D01*
X157059132Y-110197288D01*
X157082143Y-110121433D01*
X157086315Y-110113626D01*
X157090896Y-110099530D01*
X157130712Y-110030565D01*
X157165348Y-109965767D01*
X157174710Y-109954359D01*
X157185076Y-109936405D01*
X157234416Y-109881607D01*
X157277324Y-109829324D01*
X157293291Y-109816219D01*
X157311113Y-109796427D01*
X157366002Y-109756546D01*
X157413767Y-109717348D01*
X157437180Y-109704833D01*
X157463500Y-109685711D01*
X157520109Y-109660506D01*
X157569433Y-109634143D01*
X157600471Y-109624727D01*
X157635576Y-109609098D01*
X157690430Y-109597438D01*
X157738340Y-109582905D01*
X157776476Y-109579148D01*
X157819820Y-109569936D01*
X157870016Y-109569936D01*
X157914000Y-109565604D01*
X157957983Y-109569936D01*
G37*
G36*
X139563979Y-109597493D02*
G01*
X139600906Y-109599366D01*
X139601761Y-109599541D01*
X139610009Y-109599989D01*
X139695379Y-109618780D01*
X139772562Y-109634641D01*
X139777958Y-109636956D01*
X139789726Y-109639547D01*
X139863110Y-109673498D01*
X139930677Y-109702494D01*
X139940381Y-109709248D01*
X139956736Y-109716815D01*
X140016216Y-109762030D01*
X140071901Y-109800788D01*
X140084143Y-109813667D01*
X140103232Y-109828178D01*
X140147695Y-109880524D01*
X140190437Y-109925489D01*
X140202975Y-109945605D01*
X140222363Y-109968430D01*
X140251738Y-110023837D01*
X140281453Y-110071510D01*
X140291742Y-110099293D01*
X140308559Y-110131012D01*
X140323739Y-110185686D01*
X140341208Y-110232854D01*
X140346591Y-110267992D01*
X140357789Y-110308324D01*
X140360538Y-110359035D01*
X140367263Y-110402929D01*
X140365163Y-110444329D01*
X140367752Y-110492072D01*
X140360497Y-110536319D01*
X140358548Y-110574768D01*
X140346680Y-110620605D01*
X140337981Y-110673667D01*
X140323589Y-110709787D01*
X140315422Y-110741332D01*
X140291978Y-110789124D01*
X140269869Y-110844616D01*
X140251389Y-110871870D01*
X140239648Y-110895808D01*
X140203475Y-110942539D01*
X140166600Y-110996926D01*
X140147020Y-111015472D01*
X140134331Y-111031866D01*
X140085067Y-111074157D01*
X140033003Y-111123475D01*
X140015003Y-111134305D01*
X140003780Y-111143940D01*
X139941987Y-111178237D01*
X139875326Y-111218347D01*
X139861071Y-111223149D01*
X139853344Y-111227439D01*
X139780639Y-111250250D01*
X139700940Y-111277104D01*
X139691927Y-111278084D01*
X139689174Y-111278948D01*
X139609295Y-111287070D01*
X139518000Y-111297000D01*
X139511657Y-111297000D01*
X138721177Y-111297000D01*
X138718000Y-111297000D01*
X138671865Y-111294498D01*
X138635093Y-111292633D01*
X138634243Y-111292458D01*
X138625991Y-111292011D01*
X138540566Y-111273207D01*
X138463437Y-111257358D01*
X138458044Y-111255043D01*
X138446274Y-111252453D01*
X138372872Y-111218493D01*
X138305322Y-111189505D01*
X138295619Y-111182752D01*
X138279264Y-111175185D01*
X138219778Y-111129965D01*
X138164098Y-111091211D01*
X138151855Y-111078332D01*
X138132768Y-111063822D01*
X138088304Y-111011475D01*
X138045562Y-110966510D01*
X138033022Y-110946392D01*
X138013637Y-110923570D01*
X137984263Y-110868166D01*
X137954546Y-110820489D01*
X137944255Y-110792702D01*
X137927441Y-110760988D01*
X137912262Y-110706320D01*
X137894791Y-110659145D01*
X137889406Y-110624000D01*
X137878211Y-110583676D01*
X137875461Y-110532973D01*
X137868736Y-110489070D01*
X137870836Y-110447660D01*
X137868248Y-110399928D01*
X137875500Y-110355689D01*
X137877451Y-110317231D01*
X137889322Y-110271381D01*
X137898019Y-110218333D01*
X137912407Y-110182221D01*
X137920577Y-110150667D01*
X137944027Y-110102859D01*
X137966131Y-110047384D01*
X137984604Y-110020137D01*
X137996351Y-109996191D01*
X138032537Y-109949442D01*
X138069400Y-109895074D01*
X138088972Y-109876533D01*
X138101668Y-109860133D01*
X138150953Y-109817823D01*
X138202997Y-109768525D01*
X138220989Y-109757699D01*
X138232219Y-109748059D01*
X138294045Y-109713742D01*
X138360674Y-109673653D01*
X138374921Y-109668852D01*
X138382655Y-109664560D01*
X138455417Y-109641730D01*
X138535060Y-109614896D01*
X138544066Y-109613916D01*
X138546825Y-109613051D01*
X138626790Y-109604919D01*
X138718000Y-109595000D01*
X139518000Y-109595000D01*
X139563979Y-109597493D01*
G37*
G36*
X154803979Y-109597493D02*
G01*
X154840906Y-109599366D01*
X154841761Y-109599541D01*
X154850009Y-109599989D01*
X154935379Y-109618780D01*
X155012562Y-109634641D01*
X155017958Y-109636956D01*
X155029726Y-109639547D01*
X155103110Y-109673498D01*
X155170677Y-109702494D01*
X155180381Y-109709248D01*
X155196736Y-109716815D01*
X155256216Y-109762030D01*
X155311901Y-109800788D01*
X155324143Y-109813667D01*
X155343232Y-109828178D01*
X155387695Y-109880524D01*
X155430437Y-109925489D01*
X155442975Y-109945605D01*
X155462363Y-109968430D01*
X155491738Y-110023837D01*
X155521453Y-110071510D01*
X155531742Y-110099293D01*
X155548559Y-110131012D01*
X155563739Y-110185686D01*
X155581208Y-110232854D01*
X155586591Y-110267992D01*
X155597789Y-110308324D01*
X155600538Y-110359035D01*
X155607263Y-110402929D01*
X155605163Y-110444329D01*
X155607752Y-110492072D01*
X155600497Y-110536319D01*
X155598548Y-110574768D01*
X155586680Y-110620605D01*
X155577981Y-110673667D01*
X155563589Y-110709787D01*
X155555422Y-110741332D01*
X155531978Y-110789124D01*
X155509869Y-110844616D01*
X155491389Y-110871870D01*
X155479648Y-110895808D01*
X155443475Y-110942539D01*
X155406600Y-110996926D01*
X155387020Y-111015472D01*
X155374331Y-111031866D01*
X155325067Y-111074157D01*
X155273003Y-111123475D01*
X155255003Y-111134305D01*
X155243780Y-111143940D01*
X155181987Y-111178237D01*
X155115326Y-111218347D01*
X155101071Y-111223149D01*
X155093344Y-111227439D01*
X155020639Y-111250250D01*
X154940940Y-111277104D01*
X154931927Y-111278084D01*
X154929174Y-111278948D01*
X154849295Y-111287070D01*
X154758000Y-111297000D01*
X154751657Y-111297000D01*
X153961177Y-111297000D01*
X153958000Y-111297000D01*
X153911865Y-111294498D01*
X153875093Y-111292633D01*
X153874243Y-111292458D01*
X153865991Y-111292011D01*
X153780566Y-111273207D01*
X153703437Y-111257358D01*
X153698044Y-111255043D01*
X153686274Y-111252453D01*
X153612872Y-111218493D01*
X153545322Y-111189505D01*
X153535619Y-111182752D01*
X153519264Y-111175185D01*
X153459778Y-111129965D01*
X153404098Y-111091211D01*
X153391855Y-111078332D01*
X153372768Y-111063822D01*
X153328304Y-111011475D01*
X153285562Y-110966510D01*
X153273022Y-110946392D01*
X153253637Y-110923570D01*
X153224263Y-110868166D01*
X153194546Y-110820489D01*
X153184255Y-110792702D01*
X153167441Y-110760988D01*
X153152262Y-110706320D01*
X153134791Y-110659145D01*
X153129406Y-110624000D01*
X153118211Y-110583676D01*
X153115461Y-110532973D01*
X153108736Y-110489070D01*
X153110836Y-110447660D01*
X153108248Y-110399928D01*
X153115500Y-110355689D01*
X153117451Y-110317231D01*
X153129322Y-110271381D01*
X153138019Y-110218333D01*
X153152407Y-110182221D01*
X153160577Y-110150667D01*
X153184027Y-110102859D01*
X153206131Y-110047384D01*
X153224604Y-110020137D01*
X153236351Y-109996191D01*
X153272537Y-109949442D01*
X153309400Y-109895074D01*
X153328972Y-109876533D01*
X153341668Y-109860133D01*
X153390953Y-109817823D01*
X153442997Y-109768525D01*
X153460989Y-109757699D01*
X153472219Y-109748059D01*
X153534045Y-109713742D01*
X153600674Y-109673653D01*
X153614921Y-109668852D01*
X153622655Y-109664560D01*
X153695417Y-109641730D01*
X153775060Y-109614896D01*
X153784066Y-109613916D01*
X153786825Y-109613051D01*
X153866790Y-109604919D01*
X153958000Y-109595000D01*
X154758000Y-109595000D01*
X154803979Y-109597493D01*
G37*
G36*
X142717983Y-107029936D02*
G01*
X142768180Y-107029936D01*
X142811524Y-107039149D01*
X142849659Y-107042905D01*
X142897566Y-107057437D01*
X142952424Y-107069098D01*
X142987530Y-107084728D01*
X143018566Y-107094143D01*
X143067884Y-107120504D01*
X143124500Y-107145711D01*
X143150822Y-107164835D01*
X143174232Y-107177348D01*
X143221988Y-107216540D01*
X143276887Y-107256427D01*
X143294711Y-107276223D01*
X143310675Y-107289324D01*
X143353572Y-107341594D01*
X143402924Y-107396405D01*
X143413292Y-107414363D01*
X143422651Y-107425767D01*
X143457273Y-107490542D01*
X143497104Y-107559530D01*
X143501685Y-107573630D01*
X143505856Y-107581433D01*
X143528852Y-107657242D01*
X143555311Y-107738672D01*
X143556242Y-107747532D01*
X143557094Y-107750340D01*
X143565384Y-107834513D01*
X143575000Y-107926000D01*
X143565383Y-108017494D01*
X143557094Y-108101659D01*
X143556242Y-108104466D01*
X143555311Y-108113328D01*
X143528848Y-108194771D01*
X143505856Y-108270566D01*
X143501686Y-108278366D01*
X143497104Y-108292470D01*
X143457266Y-108361470D01*
X143422651Y-108426232D01*
X143413294Y-108437633D01*
X143402924Y-108455595D01*
X143353563Y-108510415D01*
X143310675Y-108562675D01*
X143294714Y-108575773D01*
X143276887Y-108595573D01*
X143221977Y-108635467D01*
X143174232Y-108674651D01*
X143150827Y-108687161D01*
X143124500Y-108706289D01*
X143067873Y-108731500D01*
X143018566Y-108757856D01*
X142987537Y-108767268D01*
X142952424Y-108782902D01*
X142897555Y-108794564D01*
X142849659Y-108809094D01*
X142811532Y-108812849D01*
X142768180Y-108822064D01*
X142717973Y-108822064D01*
X142674000Y-108826395D01*
X142630027Y-108822064D01*
X142579820Y-108822064D01*
X142536467Y-108812849D01*
X142498340Y-108809094D01*
X142450441Y-108794563D01*
X142395576Y-108782902D01*
X142360464Y-108767269D01*
X142329433Y-108757856D01*
X142280120Y-108731498D01*
X142223500Y-108706289D01*
X142197175Y-108687163D01*
X142173767Y-108674651D01*
X142126013Y-108635460D01*
X142071113Y-108595573D01*
X142053287Y-108575776D01*
X142037324Y-108562675D01*
X141994425Y-108510402D01*
X141945076Y-108455595D01*
X141934708Y-108437637D01*
X141925348Y-108426232D01*
X141890719Y-108361447D01*
X141850896Y-108292470D01*
X141846315Y-108278371D01*
X141842143Y-108270566D01*
X141819136Y-108194725D01*
X141792689Y-108113328D01*
X141791758Y-108104471D01*
X141790905Y-108101659D01*
X141782600Y-108017342D01*
X141773000Y-107926000D01*
X141782599Y-107834664D01*
X141790905Y-107750340D01*
X141791758Y-107747527D01*
X141792689Y-107738672D01*
X141819132Y-107657288D01*
X141842143Y-107581433D01*
X141846315Y-107573626D01*
X141850896Y-107559530D01*
X141890712Y-107490565D01*
X141925348Y-107425767D01*
X141934710Y-107414359D01*
X141945076Y-107396405D01*
X141994416Y-107341607D01*
X142037324Y-107289324D01*
X142053291Y-107276219D01*
X142071113Y-107256427D01*
X142126002Y-107216546D01*
X142173767Y-107177348D01*
X142197180Y-107164833D01*
X142223500Y-107145711D01*
X142280109Y-107120506D01*
X142329433Y-107094143D01*
X142360471Y-107084727D01*
X142395576Y-107069098D01*
X142450430Y-107057438D01*
X142498340Y-107042905D01*
X142536476Y-107039148D01*
X142579820Y-107029936D01*
X142630016Y-107029936D01*
X142674000Y-107025604D01*
X142717983Y-107029936D01*
G37*
G36*
X157957983Y-107029936D02*
G01*
X158008180Y-107029936D01*
X158051524Y-107039149D01*
X158089659Y-107042905D01*
X158137566Y-107057437D01*
X158192424Y-107069098D01*
X158227530Y-107084728D01*
X158258566Y-107094143D01*
X158307884Y-107120504D01*
X158364500Y-107145711D01*
X158390822Y-107164835D01*
X158414232Y-107177348D01*
X158461988Y-107216540D01*
X158516887Y-107256427D01*
X158534711Y-107276223D01*
X158550675Y-107289324D01*
X158593572Y-107341594D01*
X158642924Y-107396405D01*
X158653292Y-107414363D01*
X158662651Y-107425767D01*
X158697273Y-107490542D01*
X158737104Y-107559530D01*
X158741685Y-107573630D01*
X158745856Y-107581433D01*
X158768852Y-107657242D01*
X158795311Y-107738672D01*
X158796242Y-107747532D01*
X158797094Y-107750340D01*
X158805384Y-107834513D01*
X158815000Y-107926000D01*
X158805383Y-108017494D01*
X158797094Y-108101659D01*
X158796242Y-108104466D01*
X158795311Y-108113328D01*
X158768848Y-108194771D01*
X158745856Y-108270566D01*
X158741686Y-108278366D01*
X158737104Y-108292470D01*
X158697266Y-108361470D01*
X158662651Y-108426232D01*
X158653294Y-108437633D01*
X158642924Y-108455595D01*
X158593563Y-108510415D01*
X158550675Y-108562675D01*
X158534714Y-108575773D01*
X158516887Y-108595573D01*
X158461977Y-108635467D01*
X158414232Y-108674651D01*
X158390827Y-108687161D01*
X158364500Y-108706289D01*
X158307873Y-108731500D01*
X158258566Y-108757856D01*
X158227537Y-108767268D01*
X158192424Y-108782902D01*
X158137555Y-108794564D01*
X158089659Y-108809094D01*
X158051532Y-108812849D01*
X158008180Y-108822064D01*
X157957973Y-108822064D01*
X157914000Y-108826395D01*
X157870027Y-108822064D01*
X157819820Y-108822064D01*
X157776467Y-108812849D01*
X157738340Y-108809094D01*
X157690441Y-108794563D01*
X157635576Y-108782902D01*
X157600464Y-108767269D01*
X157569433Y-108757856D01*
X157520120Y-108731498D01*
X157463500Y-108706289D01*
X157437175Y-108687163D01*
X157413767Y-108674651D01*
X157366013Y-108635460D01*
X157311113Y-108595573D01*
X157293287Y-108575776D01*
X157277324Y-108562675D01*
X157234425Y-108510402D01*
X157185076Y-108455595D01*
X157174708Y-108437637D01*
X157165348Y-108426232D01*
X157130719Y-108361447D01*
X157090896Y-108292470D01*
X157086315Y-108278371D01*
X157082143Y-108270566D01*
X157059136Y-108194725D01*
X157032689Y-108113328D01*
X157031758Y-108104471D01*
X157030905Y-108101659D01*
X157022600Y-108017342D01*
X157013000Y-107926000D01*
X157022599Y-107834664D01*
X157030905Y-107750340D01*
X157031758Y-107747527D01*
X157032689Y-107738672D01*
X157059132Y-107657288D01*
X157082143Y-107581433D01*
X157086315Y-107573626D01*
X157090896Y-107559530D01*
X157130712Y-107490565D01*
X157165348Y-107425767D01*
X157174710Y-107414359D01*
X157185076Y-107396405D01*
X157234416Y-107341607D01*
X157277324Y-107289324D01*
X157293291Y-107276219D01*
X157311113Y-107256427D01*
X157366002Y-107216546D01*
X157413767Y-107177348D01*
X157437180Y-107164833D01*
X157463500Y-107145711D01*
X157520109Y-107120506D01*
X157569433Y-107094143D01*
X157600471Y-107084727D01*
X157635576Y-107069098D01*
X157690430Y-107057438D01*
X157738340Y-107042905D01*
X157776476Y-107039148D01*
X157819820Y-107029936D01*
X157870016Y-107029936D01*
X157914000Y-107025604D01*
X157957983Y-107029936D01*
G37*
G36*
X139563979Y-107057493D02*
G01*
X139600906Y-107059366D01*
X139601761Y-107059541D01*
X139610009Y-107059989D01*
X139695379Y-107078780D01*
X139772562Y-107094641D01*
X139777958Y-107096956D01*
X139789726Y-107099547D01*
X139863110Y-107133498D01*
X139930677Y-107162494D01*
X139940381Y-107169248D01*
X139956736Y-107176815D01*
X140016216Y-107222030D01*
X140071901Y-107260788D01*
X140084143Y-107273667D01*
X140103232Y-107288178D01*
X140147695Y-107340524D01*
X140190437Y-107385489D01*
X140202975Y-107405605D01*
X140222363Y-107428430D01*
X140251738Y-107483837D01*
X140281453Y-107531510D01*
X140291742Y-107559293D01*
X140308559Y-107591012D01*
X140323739Y-107645686D01*
X140341208Y-107692854D01*
X140346591Y-107727992D01*
X140357789Y-107768324D01*
X140360538Y-107819035D01*
X140367263Y-107862929D01*
X140365163Y-107904329D01*
X140367752Y-107952072D01*
X140360497Y-107996319D01*
X140358548Y-108034768D01*
X140346680Y-108080605D01*
X140337981Y-108133667D01*
X140323589Y-108169787D01*
X140315422Y-108201332D01*
X140291978Y-108249124D01*
X140269869Y-108304616D01*
X140251389Y-108331870D01*
X140239648Y-108355808D01*
X140203475Y-108402539D01*
X140166600Y-108456926D01*
X140147020Y-108475472D01*
X140134331Y-108491866D01*
X140085067Y-108534157D01*
X140033003Y-108583475D01*
X140015003Y-108594305D01*
X140003780Y-108603940D01*
X139941987Y-108638237D01*
X139875326Y-108678347D01*
X139861071Y-108683149D01*
X139853344Y-108687439D01*
X139780639Y-108710250D01*
X139700940Y-108737104D01*
X139691927Y-108738084D01*
X139689174Y-108738948D01*
X139609295Y-108747070D01*
X139518000Y-108757000D01*
X139511657Y-108757000D01*
X138721177Y-108757000D01*
X138718000Y-108757000D01*
X138671865Y-108754498D01*
X138635093Y-108752633D01*
X138634243Y-108752458D01*
X138625991Y-108752011D01*
X138540566Y-108733207D01*
X138463437Y-108717358D01*
X138458044Y-108715043D01*
X138446274Y-108712453D01*
X138372872Y-108678493D01*
X138305322Y-108649505D01*
X138295619Y-108642752D01*
X138279264Y-108635185D01*
X138219778Y-108589965D01*
X138164098Y-108551211D01*
X138151855Y-108538332D01*
X138132768Y-108523822D01*
X138088304Y-108471475D01*
X138045562Y-108426510D01*
X138033022Y-108406392D01*
X138013637Y-108383570D01*
X137984263Y-108328166D01*
X137954546Y-108280489D01*
X137944255Y-108252702D01*
X137927441Y-108220988D01*
X137912262Y-108166320D01*
X137894791Y-108119145D01*
X137889406Y-108084000D01*
X137878211Y-108043676D01*
X137875461Y-107992973D01*
X137868736Y-107949070D01*
X137870836Y-107907660D01*
X137868248Y-107859928D01*
X137875500Y-107815689D01*
X137877451Y-107777231D01*
X137889322Y-107731381D01*
X137898019Y-107678333D01*
X137912407Y-107642221D01*
X137920577Y-107610667D01*
X137944027Y-107562859D01*
X137966131Y-107507384D01*
X137984604Y-107480137D01*
X137996351Y-107456191D01*
X138032537Y-107409442D01*
X138069400Y-107355074D01*
X138088972Y-107336533D01*
X138101668Y-107320133D01*
X138150953Y-107277823D01*
X138202997Y-107228525D01*
X138220989Y-107217699D01*
X138232219Y-107208059D01*
X138294045Y-107173742D01*
X138360674Y-107133653D01*
X138374921Y-107128852D01*
X138382655Y-107124560D01*
X138455417Y-107101730D01*
X138535060Y-107074896D01*
X138544066Y-107073916D01*
X138546825Y-107073051D01*
X138626790Y-107064919D01*
X138718000Y-107055000D01*
X139518000Y-107055000D01*
X139563979Y-107057493D01*
G37*
G36*
X154803979Y-107057493D02*
G01*
X154840906Y-107059366D01*
X154841761Y-107059541D01*
X154850009Y-107059989D01*
X154935379Y-107078780D01*
X155012562Y-107094641D01*
X155017958Y-107096956D01*
X155029726Y-107099547D01*
X155103110Y-107133498D01*
X155170677Y-107162494D01*
X155180381Y-107169248D01*
X155196736Y-107176815D01*
X155256216Y-107222030D01*
X155311901Y-107260788D01*
X155324143Y-107273667D01*
X155343232Y-107288178D01*
X155387695Y-107340524D01*
X155430437Y-107385489D01*
X155442975Y-107405605D01*
X155462363Y-107428430D01*
X155491738Y-107483837D01*
X155521453Y-107531510D01*
X155531742Y-107559293D01*
X155548559Y-107591012D01*
X155563739Y-107645686D01*
X155581208Y-107692854D01*
X155586591Y-107727992D01*
X155597789Y-107768324D01*
X155600538Y-107819035D01*
X155607263Y-107862929D01*
X155605163Y-107904329D01*
X155607752Y-107952072D01*
X155600497Y-107996319D01*
X155598548Y-108034768D01*
X155586680Y-108080605D01*
X155577981Y-108133667D01*
X155563589Y-108169787D01*
X155555422Y-108201332D01*
X155531978Y-108249124D01*
X155509869Y-108304616D01*
X155491389Y-108331870D01*
X155479648Y-108355808D01*
X155443475Y-108402539D01*
X155406600Y-108456926D01*
X155387020Y-108475472D01*
X155374331Y-108491866D01*
X155325067Y-108534157D01*
X155273003Y-108583475D01*
X155255003Y-108594305D01*
X155243780Y-108603940D01*
X155181987Y-108638237D01*
X155115326Y-108678347D01*
X155101071Y-108683149D01*
X155093344Y-108687439D01*
X155020639Y-108710250D01*
X154940940Y-108737104D01*
X154931927Y-108738084D01*
X154929174Y-108738948D01*
X154849295Y-108747070D01*
X154758000Y-108757000D01*
X154751657Y-108757000D01*
X153961177Y-108757000D01*
X153958000Y-108757000D01*
X153911865Y-108754498D01*
X153875093Y-108752633D01*
X153874243Y-108752458D01*
X153865991Y-108752011D01*
X153780566Y-108733207D01*
X153703437Y-108717358D01*
X153698044Y-108715043D01*
X153686274Y-108712453D01*
X153612872Y-108678493D01*
X153545322Y-108649505D01*
X153535619Y-108642752D01*
X153519264Y-108635185D01*
X153459778Y-108589965D01*
X153404098Y-108551211D01*
X153391855Y-108538332D01*
X153372768Y-108523822D01*
X153328304Y-108471475D01*
X153285562Y-108426510D01*
X153273022Y-108406392D01*
X153253637Y-108383570D01*
X153224263Y-108328166D01*
X153194546Y-108280489D01*
X153184255Y-108252702D01*
X153167441Y-108220988D01*
X153152262Y-108166320D01*
X153134791Y-108119145D01*
X153129406Y-108084000D01*
X153118211Y-108043676D01*
X153115461Y-107992973D01*
X153108736Y-107949070D01*
X153110836Y-107907660D01*
X153108248Y-107859928D01*
X153115500Y-107815689D01*
X153117451Y-107777231D01*
X153129322Y-107731381D01*
X153138019Y-107678333D01*
X153152407Y-107642221D01*
X153160577Y-107610667D01*
X153184027Y-107562859D01*
X153206131Y-107507384D01*
X153224604Y-107480137D01*
X153236351Y-107456191D01*
X153272537Y-107409442D01*
X153309400Y-107355074D01*
X153328972Y-107336533D01*
X153341668Y-107320133D01*
X153390953Y-107277823D01*
X153442997Y-107228525D01*
X153460989Y-107217699D01*
X153472219Y-107208059D01*
X153534045Y-107173742D01*
X153600674Y-107133653D01*
X153614921Y-107128852D01*
X153622655Y-107124560D01*
X153695417Y-107101730D01*
X153775060Y-107074896D01*
X153784066Y-107073916D01*
X153786825Y-107073051D01*
X153866790Y-107064919D01*
X153958000Y-107055000D01*
X154758000Y-107055000D01*
X154803979Y-107057493D01*
G37*
G36*
X142717983Y-104489936D02*
G01*
X142768180Y-104489936D01*
X142811524Y-104499149D01*
X142849659Y-104502905D01*
X142897566Y-104517437D01*
X142952424Y-104529098D01*
X142987530Y-104544728D01*
X143018566Y-104554143D01*
X143067884Y-104580504D01*
X143124500Y-104605711D01*
X143150822Y-104624835D01*
X143174232Y-104637348D01*
X143221988Y-104676540D01*
X143276887Y-104716427D01*
X143294711Y-104736223D01*
X143310675Y-104749324D01*
X143353572Y-104801594D01*
X143402924Y-104856405D01*
X143413292Y-104874363D01*
X143422651Y-104885767D01*
X143457273Y-104950542D01*
X143497104Y-105019530D01*
X143501685Y-105033630D01*
X143505856Y-105041433D01*
X143528852Y-105117242D01*
X143555311Y-105198672D01*
X143556242Y-105207532D01*
X143557094Y-105210340D01*
X143565384Y-105294513D01*
X143575000Y-105386000D01*
X143565383Y-105477494D01*
X143557094Y-105561659D01*
X143556242Y-105564466D01*
X143555311Y-105573328D01*
X143528848Y-105654771D01*
X143505856Y-105730566D01*
X143501686Y-105738366D01*
X143497104Y-105752470D01*
X143457266Y-105821470D01*
X143422651Y-105886232D01*
X143413294Y-105897633D01*
X143402924Y-105915595D01*
X143353563Y-105970415D01*
X143310675Y-106022675D01*
X143294714Y-106035773D01*
X143276887Y-106055573D01*
X143221977Y-106095467D01*
X143174232Y-106134651D01*
X143150827Y-106147161D01*
X143124500Y-106166289D01*
X143067873Y-106191500D01*
X143018566Y-106217856D01*
X142987537Y-106227268D01*
X142952424Y-106242902D01*
X142897555Y-106254564D01*
X142849659Y-106269094D01*
X142811532Y-106272849D01*
X142768180Y-106282064D01*
X142717973Y-106282064D01*
X142674000Y-106286395D01*
X142630027Y-106282064D01*
X142579820Y-106282064D01*
X142536467Y-106272849D01*
X142498340Y-106269094D01*
X142450441Y-106254563D01*
X142395576Y-106242902D01*
X142360464Y-106227269D01*
X142329433Y-106217856D01*
X142280120Y-106191498D01*
X142223500Y-106166289D01*
X142197175Y-106147163D01*
X142173767Y-106134651D01*
X142126013Y-106095460D01*
X142071113Y-106055573D01*
X142053287Y-106035776D01*
X142037324Y-106022675D01*
X141994425Y-105970402D01*
X141945076Y-105915595D01*
X141934708Y-105897637D01*
X141925348Y-105886232D01*
X141890719Y-105821447D01*
X141850896Y-105752470D01*
X141846315Y-105738371D01*
X141842143Y-105730566D01*
X141819136Y-105654725D01*
X141792689Y-105573328D01*
X141791758Y-105564471D01*
X141790905Y-105561659D01*
X141782600Y-105477342D01*
X141773000Y-105386000D01*
X141782599Y-105294664D01*
X141790905Y-105210340D01*
X141791758Y-105207527D01*
X141792689Y-105198672D01*
X141819132Y-105117288D01*
X141842143Y-105041433D01*
X141846315Y-105033626D01*
X141850896Y-105019530D01*
X141890712Y-104950565D01*
X141925348Y-104885767D01*
X141934710Y-104874359D01*
X141945076Y-104856405D01*
X141994416Y-104801607D01*
X142037324Y-104749324D01*
X142053291Y-104736219D01*
X142071113Y-104716427D01*
X142126002Y-104676546D01*
X142173767Y-104637348D01*
X142197180Y-104624833D01*
X142223500Y-104605711D01*
X142280109Y-104580506D01*
X142329433Y-104554143D01*
X142360471Y-104544727D01*
X142395576Y-104529098D01*
X142450430Y-104517438D01*
X142498340Y-104502905D01*
X142536476Y-104499148D01*
X142579820Y-104489936D01*
X142630016Y-104489936D01*
X142674000Y-104485604D01*
X142717983Y-104489936D01*
G37*
G36*
X157957983Y-104489936D02*
G01*
X158008180Y-104489936D01*
X158051524Y-104499149D01*
X158089659Y-104502905D01*
X158137566Y-104517437D01*
X158192424Y-104529098D01*
X158227530Y-104544728D01*
X158258566Y-104554143D01*
X158307884Y-104580504D01*
X158364500Y-104605711D01*
X158390822Y-104624835D01*
X158414232Y-104637348D01*
X158461988Y-104676540D01*
X158516887Y-104716427D01*
X158534711Y-104736223D01*
X158550675Y-104749324D01*
X158593572Y-104801594D01*
X158642924Y-104856405D01*
X158653292Y-104874363D01*
X158662651Y-104885767D01*
X158697273Y-104950542D01*
X158737104Y-105019530D01*
X158741685Y-105033630D01*
X158745856Y-105041433D01*
X158768852Y-105117242D01*
X158795311Y-105198672D01*
X158796242Y-105207532D01*
X158797094Y-105210340D01*
X158805384Y-105294513D01*
X158815000Y-105386000D01*
X158805383Y-105477494D01*
X158797094Y-105561659D01*
X158796242Y-105564466D01*
X158795311Y-105573328D01*
X158768848Y-105654771D01*
X158745856Y-105730566D01*
X158741686Y-105738366D01*
X158737104Y-105752470D01*
X158697266Y-105821470D01*
X158662651Y-105886232D01*
X158653294Y-105897633D01*
X158642924Y-105915595D01*
X158593563Y-105970415D01*
X158550675Y-106022675D01*
X158534714Y-106035773D01*
X158516887Y-106055573D01*
X158461977Y-106095467D01*
X158414232Y-106134651D01*
X158390827Y-106147161D01*
X158364500Y-106166289D01*
X158307873Y-106191500D01*
X158258566Y-106217856D01*
X158227537Y-106227268D01*
X158192424Y-106242902D01*
X158137555Y-106254564D01*
X158089659Y-106269094D01*
X158051532Y-106272849D01*
X158008180Y-106282064D01*
X157957973Y-106282064D01*
X157914000Y-106286395D01*
X157870027Y-106282064D01*
X157819820Y-106282064D01*
X157776467Y-106272849D01*
X157738340Y-106269094D01*
X157690441Y-106254563D01*
X157635576Y-106242902D01*
X157600464Y-106227269D01*
X157569433Y-106217856D01*
X157520120Y-106191498D01*
X157463500Y-106166289D01*
X157437175Y-106147163D01*
X157413767Y-106134651D01*
X157366013Y-106095460D01*
X157311113Y-106055573D01*
X157293287Y-106035776D01*
X157277324Y-106022675D01*
X157234425Y-105970402D01*
X157185076Y-105915595D01*
X157174708Y-105897637D01*
X157165348Y-105886232D01*
X157130719Y-105821447D01*
X157090896Y-105752470D01*
X157086315Y-105738371D01*
X157082143Y-105730566D01*
X157059136Y-105654725D01*
X157032689Y-105573328D01*
X157031758Y-105564471D01*
X157030905Y-105561659D01*
X157022600Y-105477342D01*
X157013000Y-105386000D01*
X157022599Y-105294664D01*
X157030905Y-105210340D01*
X157031758Y-105207527D01*
X157032689Y-105198672D01*
X157059132Y-105117288D01*
X157082143Y-105041433D01*
X157086315Y-105033626D01*
X157090896Y-105019530D01*
X157130712Y-104950565D01*
X157165348Y-104885767D01*
X157174710Y-104874359D01*
X157185076Y-104856405D01*
X157234416Y-104801607D01*
X157277324Y-104749324D01*
X157293291Y-104736219D01*
X157311113Y-104716427D01*
X157366002Y-104676546D01*
X157413767Y-104637348D01*
X157437180Y-104624833D01*
X157463500Y-104605711D01*
X157520109Y-104580506D01*
X157569433Y-104554143D01*
X157600471Y-104544727D01*
X157635576Y-104529098D01*
X157690430Y-104517438D01*
X157738340Y-104502905D01*
X157776476Y-104499148D01*
X157819820Y-104489936D01*
X157870016Y-104489936D01*
X157914000Y-104485604D01*
X157957983Y-104489936D01*
G37*
G36*
X139563979Y-104517493D02*
G01*
X139600906Y-104519366D01*
X139601761Y-104519541D01*
X139610009Y-104519989D01*
X139695379Y-104538780D01*
X139772562Y-104554641D01*
X139777958Y-104556956D01*
X139789726Y-104559547D01*
X139863110Y-104593498D01*
X139930677Y-104622494D01*
X139940381Y-104629248D01*
X139956736Y-104636815D01*
X140016216Y-104682030D01*
X140071901Y-104720788D01*
X140084143Y-104733667D01*
X140103232Y-104748178D01*
X140147695Y-104800524D01*
X140190437Y-104845489D01*
X140202975Y-104865605D01*
X140222363Y-104888430D01*
X140251738Y-104943837D01*
X140281453Y-104991510D01*
X140291742Y-105019293D01*
X140308559Y-105051012D01*
X140323739Y-105105686D01*
X140341208Y-105152854D01*
X140346591Y-105187992D01*
X140357789Y-105228324D01*
X140360538Y-105279035D01*
X140367263Y-105322929D01*
X140365163Y-105364329D01*
X140367752Y-105412072D01*
X140360497Y-105456319D01*
X140358548Y-105494768D01*
X140346680Y-105540605D01*
X140337981Y-105593667D01*
X140323589Y-105629787D01*
X140315422Y-105661332D01*
X140291978Y-105709124D01*
X140269869Y-105764616D01*
X140251389Y-105791870D01*
X140239648Y-105815808D01*
X140203475Y-105862539D01*
X140166600Y-105916926D01*
X140147020Y-105935472D01*
X140134331Y-105951866D01*
X140085067Y-105994157D01*
X140033003Y-106043475D01*
X140015003Y-106054305D01*
X140003780Y-106063940D01*
X139941987Y-106098237D01*
X139875326Y-106138347D01*
X139861071Y-106143149D01*
X139853344Y-106147439D01*
X139780639Y-106170250D01*
X139700940Y-106197104D01*
X139691927Y-106198084D01*
X139689174Y-106198948D01*
X139609295Y-106207070D01*
X139518000Y-106217000D01*
X139511657Y-106217000D01*
X138721177Y-106217000D01*
X138718000Y-106217000D01*
X138671865Y-106214498D01*
X138635093Y-106212633D01*
X138634243Y-106212458D01*
X138625991Y-106212011D01*
X138540566Y-106193207D01*
X138463437Y-106177358D01*
X138458044Y-106175043D01*
X138446274Y-106172453D01*
X138372872Y-106138493D01*
X138305322Y-106109505D01*
X138295619Y-106102752D01*
X138279264Y-106095185D01*
X138219778Y-106049965D01*
X138164098Y-106011211D01*
X138151855Y-105998332D01*
X138132768Y-105983822D01*
X138088304Y-105931475D01*
X138045562Y-105886510D01*
X138033022Y-105866392D01*
X138013637Y-105843570D01*
X137984263Y-105788166D01*
X137954546Y-105740489D01*
X137944255Y-105712702D01*
X137927441Y-105680988D01*
X137912262Y-105626320D01*
X137894791Y-105579145D01*
X137889406Y-105544000D01*
X137878211Y-105503676D01*
X137875461Y-105452973D01*
X137868736Y-105409070D01*
X137870836Y-105367660D01*
X137868248Y-105319928D01*
X137875500Y-105275689D01*
X137877451Y-105237231D01*
X137889322Y-105191381D01*
X137898019Y-105138333D01*
X137912407Y-105102221D01*
X137920577Y-105070667D01*
X137944027Y-105022859D01*
X137966131Y-104967384D01*
X137984604Y-104940137D01*
X137996351Y-104916191D01*
X138032537Y-104869442D01*
X138069400Y-104815074D01*
X138088972Y-104796533D01*
X138101668Y-104780133D01*
X138150953Y-104737823D01*
X138202997Y-104688525D01*
X138220989Y-104677699D01*
X138232219Y-104668059D01*
X138294045Y-104633742D01*
X138360674Y-104593653D01*
X138374921Y-104588852D01*
X138382655Y-104584560D01*
X138455417Y-104561730D01*
X138535060Y-104534896D01*
X138544066Y-104533916D01*
X138546825Y-104533051D01*
X138626790Y-104524919D01*
X138718000Y-104515000D01*
X139518000Y-104515000D01*
X139563979Y-104517493D01*
G37*
G36*
X154803979Y-104517493D02*
G01*
X154840906Y-104519366D01*
X154841761Y-104519541D01*
X154850009Y-104519989D01*
X154935379Y-104538780D01*
X155012562Y-104554641D01*
X155017958Y-104556956D01*
X155029726Y-104559547D01*
X155103110Y-104593498D01*
X155170677Y-104622494D01*
X155180381Y-104629248D01*
X155196736Y-104636815D01*
X155256216Y-104682030D01*
X155311901Y-104720788D01*
X155324143Y-104733667D01*
X155343232Y-104748178D01*
X155387695Y-104800524D01*
X155430437Y-104845489D01*
X155442975Y-104865605D01*
X155462363Y-104888430D01*
X155491738Y-104943837D01*
X155521453Y-104991510D01*
X155531742Y-105019293D01*
X155548559Y-105051012D01*
X155563739Y-105105686D01*
X155581208Y-105152854D01*
X155586591Y-105187992D01*
X155597789Y-105228324D01*
X155600538Y-105279035D01*
X155607263Y-105322929D01*
X155605163Y-105364329D01*
X155607752Y-105412072D01*
X155600497Y-105456319D01*
X155598548Y-105494768D01*
X155586680Y-105540605D01*
X155577981Y-105593667D01*
X155563589Y-105629787D01*
X155555422Y-105661332D01*
X155531978Y-105709124D01*
X155509869Y-105764616D01*
X155491389Y-105791870D01*
X155479648Y-105815808D01*
X155443475Y-105862539D01*
X155406600Y-105916926D01*
X155387020Y-105935472D01*
X155374331Y-105951866D01*
X155325067Y-105994157D01*
X155273003Y-106043475D01*
X155255003Y-106054305D01*
X155243780Y-106063940D01*
X155181987Y-106098237D01*
X155115326Y-106138347D01*
X155101071Y-106143149D01*
X155093344Y-106147439D01*
X155020639Y-106170250D01*
X154940940Y-106197104D01*
X154931927Y-106198084D01*
X154929174Y-106198948D01*
X154849295Y-106207070D01*
X154758000Y-106217000D01*
X154751657Y-106217000D01*
X153961177Y-106217000D01*
X153958000Y-106217000D01*
X153911865Y-106214498D01*
X153875093Y-106212633D01*
X153874243Y-106212458D01*
X153865991Y-106212011D01*
X153780566Y-106193207D01*
X153703437Y-106177358D01*
X153698044Y-106175043D01*
X153686274Y-106172453D01*
X153612872Y-106138493D01*
X153545322Y-106109505D01*
X153535619Y-106102752D01*
X153519264Y-106095185D01*
X153459778Y-106049965D01*
X153404098Y-106011211D01*
X153391855Y-105998332D01*
X153372768Y-105983822D01*
X153328304Y-105931475D01*
X153285562Y-105886510D01*
X153273022Y-105866392D01*
X153253637Y-105843570D01*
X153224263Y-105788166D01*
X153194546Y-105740489D01*
X153184255Y-105712702D01*
X153167441Y-105680988D01*
X153152262Y-105626320D01*
X153134791Y-105579145D01*
X153129406Y-105544000D01*
X153118211Y-105503676D01*
X153115461Y-105452973D01*
X153108736Y-105409070D01*
X153110836Y-105367660D01*
X153108248Y-105319928D01*
X153115500Y-105275689D01*
X153117451Y-105237231D01*
X153129322Y-105191381D01*
X153138019Y-105138333D01*
X153152407Y-105102221D01*
X153160577Y-105070667D01*
X153184027Y-105022859D01*
X153206131Y-104967384D01*
X153224604Y-104940137D01*
X153236351Y-104916191D01*
X153272537Y-104869442D01*
X153309400Y-104815074D01*
X153328972Y-104796533D01*
X153341668Y-104780133D01*
X153390953Y-104737823D01*
X153442997Y-104688525D01*
X153460989Y-104677699D01*
X153472219Y-104668059D01*
X153534045Y-104633742D01*
X153600674Y-104593653D01*
X153614921Y-104588852D01*
X153622655Y-104584560D01*
X153695417Y-104561730D01*
X153775060Y-104534896D01*
X153784066Y-104533916D01*
X153786825Y-104533051D01*
X153866790Y-104524919D01*
X153958000Y-104515000D01*
X154758000Y-104515000D01*
X154803979Y-104517493D01*
G37*
G36*
X142717983Y-101949936D02*
G01*
X142768180Y-101949936D01*
X142811524Y-101959149D01*
X142849659Y-101962905D01*
X142897566Y-101977437D01*
X142952424Y-101989098D01*
X142987530Y-102004728D01*
X143018566Y-102014143D01*
X143067884Y-102040504D01*
X143124500Y-102065711D01*
X143150822Y-102084835D01*
X143174232Y-102097348D01*
X143221988Y-102136540D01*
X143276887Y-102176427D01*
X143294711Y-102196223D01*
X143310675Y-102209324D01*
X143353572Y-102261594D01*
X143402924Y-102316405D01*
X143413292Y-102334363D01*
X143422651Y-102345767D01*
X143457273Y-102410542D01*
X143497104Y-102479530D01*
X143501685Y-102493630D01*
X143505856Y-102501433D01*
X143528852Y-102577242D01*
X143555311Y-102658672D01*
X143556242Y-102667532D01*
X143557094Y-102670340D01*
X143565384Y-102754513D01*
X143575000Y-102846000D01*
X143565383Y-102937494D01*
X143557094Y-103021659D01*
X143556242Y-103024466D01*
X143555311Y-103033328D01*
X143528848Y-103114771D01*
X143505856Y-103190566D01*
X143501686Y-103198366D01*
X143497104Y-103212470D01*
X143457266Y-103281470D01*
X143422651Y-103346232D01*
X143413294Y-103357633D01*
X143402924Y-103375595D01*
X143353563Y-103430415D01*
X143310675Y-103482675D01*
X143294714Y-103495773D01*
X143276887Y-103515573D01*
X143221977Y-103555467D01*
X143174232Y-103594651D01*
X143150827Y-103607161D01*
X143124500Y-103626289D01*
X143067873Y-103651500D01*
X143018566Y-103677856D01*
X142987537Y-103687268D01*
X142952424Y-103702902D01*
X142897555Y-103714564D01*
X142849659Y-103729094D01*
X142811532Y-103732849D01*
X142768180Y-103742064D01*
X142717973Y-103742064D01*
X142674000Y-103746395D01*
X142630027Y-103742064D01*
X142579820Y-103742064D01*
X142536467Y-103732849D01*
X142498340Y-103729094D01*
X142450441Y-103714563D01*
X142395576Y-103702902D01*
X142360464Y-103687269D01*
X142329433Y-103677856D01*
X142280120Y-103651498D01*
X142223500Y-103626289D01*
X142197175Y-103607163D01*
X142173767Y-103594651D01*
X142126013Y-103555460D01*
X142071113Y-103515573D01*
X142053287Y-103495776D01*
X142037324Y-103482675D01*
X141994425Y-103430402D01*
X141945076Y-103375595D01*
X141934708Y-103357637D01*
X141925348Y-103346232D01*
X141890719Y-103281447D01*
X141850896Y-103212470D01*
X141846315Y-103198371D01*
X141842143Y-103190566D01*
X141819136Y-103114725D01*
X141792689Y-103033328D01*
X141791758Y-103024471D01*
X141790905Y-103021659D01*
X141782600Y-102937342D01*
X141773000Y-102846000D01*
X141782599Y-102754664D01*
X141790905Y-102670340D01*
X141791758Y-102667527D01*
X141792689Y-102658672D01*
X141819132Y-102577288D01*
X141842143Y-102501433D01*
X141846315Y-102493626D01*
X141850896Y-102479530D01*
X141890712Y-102410565D01*
X141925348Y-102345767D01*
X141934710Y-102334359D01*
X141945076Y-102316405D01*
X141994416Y-102261607D01*
X142037324Y-102209324D01*
X142053291Y-102196219D01*
X142071113Y-102176427D01*
X142126002Y-102136546D01*
X142173767Y-102097348D01*
X142197180Y-102084833D01*
X142223500Y-102065711D01*
X142280109Y-102040506D01*
X142329433Y-102014143D01*
X142360471Y-102004727D01*
X142395576Y-101989098D01*
X142450430Y-101977438D01*
X142498340Y-101962905D01*
X142536476Y-101959148D01*
X142579820Y-101949936D01*
X142630016Y-101949936D01*
X142674000Y-101945604D01*
X142717983Y-101949936D01*
G37*
G36*
X157957983Y-101949936D02*
G01*
X158008180Y-101949936D01*
X158051524Y-101959149D01*
X158089659Y-101962905D01*
X158137566Y-101977437D01*
X158192424Y-101989098D01*
X158227530Y-102004728D01*
X158258566Y-102014143D01*
X158307884Y-102040504D01*
X158364500Y-102065711D01*
X158390822Y-102084835D01*
X158414232Y-102097348D01*
X158461988Y-102136540D01*
X158516887Y-102176427D01*
X158534711Y-102196223D01*
X158550675Y-102209324D01*
X158593572Y-102261594D01*
X158642924Y-102316405D01*
X158653292Y-102334363D01*
X158662651Y-102345767D01*
X158697273Y-102410542D01*
X158737104Y-102479530D01*
X158741685Y-102493630D01*
X158745856Y-102501433D01*
X158768852Y-102577242D01*
X158795311Y-102658672D01*
X158796242Y-102667532D01*
X158797094Y-102670340D01*
X158805384Y-102754513D01*
X158815000Y-102846000D01*
X158805383Y-102937494D01*
X158797094Y-103021659D01*
X158796242Y-103024466D01*
X158795311Y-103033328D01*
X158768848Y-103114771D01*
X158745856Y-103190566D01*
X158741686Y-103198366D01*
X158737104Y-103212470D01*
X158697266Y-103281470D01*
X158662651Y-103346232D01*
X158653294Y-103357633D01*
X158642924Y-103375595D01*
X158593563Y-103430415D01*
X158550675Y-103482675D01*
X158534714Y-103495773D01*
X158516887Y-103515573D01*
X158461977Y-103555467D01*
X158414232Y-103594651D01*
X158390827Y-103607161D01*
X158364500Y-103626289D01*
X158307873Y-103651500D01*
X158258566Y-103677856D01*
X158227537Y-103687268D01*
X158192424Y-103702902D01*
X158137555Y-103714564D01*
X158089659Y-103729094D01*
X158051532Y-103732849D01*
X158008180Y-103742064D01*
X157957973Y-103742064D01*
X157914000Y-103746395D01*
X157870027Y-103742064D01*
X157819820Y-103742064D01*
X157776467Y-103732849D01*
X157738340Y-103729094D01*
X157690441Y-103714563D01*
X157635576Y-103702902D01*
X157600464Y-103687269D01*
X157569433Y-103677856D01*
X157520120Y-103651498D01*
X157463500Y-103626289D01*
X157437175Y-103607163D01*
X157413767Y-103594651D01*
X157366013Y-103555460D01*
X157311113Y-103515573D01*
X157293287Y-103495776D01*
X157277324Y-103482675D01*
X157234425Y-103430402D01*
X157185076Y-103375595D01*
X157174708Y-103357637D01*
X157165348Y-103346232D01*
X157130719Y-103281447D01*
X157090896Y-103212470D01*
X157086315Y-103198371D01*
X157082143Y-103190566D01*
X157059136Y-103114725D01*
X157032689Y-103033328D01*
X157031758Y-103024471D01*
X157030905Y-103021659D01*
X157022600Y-102937342D01*
X157013000Y-102846000D01*
X157022599Y-102754664D01*
X157030905Y-102670340D01*
X157031758Y-102667527D01*
X157032689Y-102658672D01*
X157059132Y-102577288D01*
X157082143Y-102501433D01*
X157086315Y-102493626D01*
X157090896Y-102479530D01*
X157130712Y-102410565D01*
X157165348Y-102345767D01*
X157174710Y-102334359D01*
X157185076Y-102316405D01*
X157234416Y-102261607D01*
X157277324Y-102209324D01*
X157293291Y-102196219D01*
X157311113Y-102176427D01*
X157366002Y-102136546D01*
X157413767Y-102097348D01*
X157437180Y-102084833D01*
X157463500Y-102065711D01*
X157520109Y-102040506D01*
X157569433Y-102014143D01*
X157600471Y-102004727D01*
X157635576Y-101989098D01*
X157690430Y-101977438D01*
X157738340Y-101962905D01*
X157776476Y-101959148D01*
X157819820Y-101949936D01*
X157870016Y-101949936D01*
X157914000Y-101945604D01*
X157957983Y-101949936D01*
G37*
G36*
X139563979Y-101977493D02*
G01*
X139600906Y-101979366D01*
X139601761Y-101979541D01*
X139610009Y-101979989D01*
X139695379Y-101998780D01*
X139772562Y-102014641D01*
X139777958Y-102016956D01*
X139789726Y-102019547D01*
X139863110Y-102053498D01*
X139930677Y-102082494D01*
X139940381Y-102089248D01*
X139956736Y-102096815D01*
X140016216Y-102142030D01*
X140071901Y-102180788D01*
X140084143Y-102193667D01*
X140103232Y-102208178D01*
X140147695Y-102260524D01*
X140190437Y-102305489D01*
X140202975Y-102325605D01*
X140222363Y-102348430D01*
X140251738Y-102403837D01*
X140281453Y-102451510D01*
X140291742Y-102479293D01*
X140308559Y-102511012D01*
X140323739Y-102565686D01*
X140341208Y-102612854D01*
X140346591Y-102647992D01*
X140357789Y-102688324D01*
X140360538Y-102739035D01*
X140367263Y-102782929D01*
X140365163Y-102824329D01*
X140367752Y-102872072D01*
X140360497Y-102916319D01*
X140358548Y-102954768D01*
X140346680Y-103000605D01*
X140337981Y-103053667D01*
X140323589Y-103089787D01*
X140315422Y-103121332D01*
X140291978Y-103169124D01*
X140269869Y-103224616D01*
X140251389Y-103251870D01*
X140239648Y-103275808D01*
X140203475Y-103322539D01*
X140166600Y-103376926D01*
X140147020Y-103395472D01*
X140134331Y-103411866D01*
X140085067Y-103454157D01*
X140033003Y-103503475D01*
X140015003Y-103514305D01*
X140003780Y-103523940D01*
X139941987Y-103558237D01*
X139875326Y-103598347D01*
X139861071Y-103603149D01*
X139853344Y-103607439D01*
X139780639Y-103630250D01*
X139700940Y-103657104D01*
X139691927Y-103658084D01*
X139689174Y-103658948D01*
X139609295Y-103667070D01*
X139518000Y-103677000D01*
X139511657Y-103677000D01*
X138721177Y-103677000D01*
X138718000Y-103677000D01*
X138671865Y-103674498D01*
X138635093Y-103672633D01*
X138634243Y-103672458D01*
X138625991Y-103672011D01*
X138540566Y-103653207D01*
X138463437Y-103637358D01*
X138458044Y-103635043D01*
X138446274Y-103632453D01*
X138372872Y-103598493D01*
X138305322Y-103569505D01*
X138295619Y-103562752D01*
X138279264Y-103555185D01*
X138219778Y-103509965D01*
X138164098Y-103471211D01*
X138151855Y-103458332D01*
X138132768Y-103443822D01*
X138088304Y-103391475D01*
X138045562Y-103346510D01*
X138033022Y-103326392D01*
X138013637Y-103303570D01*
X137984263Y-103248166D01*
X137954546Y-103200489D01*
X137944255Y-103172702D01*
X137927441Y-103140988D01*
X137912262Y-103086320D01*
X137894791Y-103039145D01*
X137889406Y-103004000D01*
X137878211Y-102963676D01*
X137875461Y-102912973D01*
X137868736Y-102869070D01*
X137870836Y-102827660D01*
X137868248Y-102779928D01*
X137875500Y-102735689D01*
X137877451Y-102697231D01*
X137889322Y-102651381D01*
X137898019Y-102598333D01*
X137912407Y-102562221D01*
X137920577Y-102530667D01*
X137944027Y-102482859D01*
X137966131Y-102427384D01*
X137984604Y-102400137D01*
X137996351Y-102376191D01*
X138032537Y-102329442D01*
X138069400Y-102275074D01*
X138088972Y-102256533D01*
X138101668Y-102240133D01*
X138150953Y-102197823D01*
X138202997Y-102148525D01*
X138220989Y-102137699D01*
X138232219Y-102128059D01*
X138294045Y-102093742D01*
X138360674Y-102053653D01*
X138374921Y-102048852D01*
X138382655Y-102044560D01*
X138455417Y-102021730D01*
X138535060Y-101994896D01*
X138544066Y-101993916D01*
X138546825Y-101993051D01*
X138626790Y-101984919D01*
X138718000Y-101975000D01*
X139518000Y-101975000D01*
X139563979Y-101977493D01*
G37*
G36*
X154803979Y-101977493D02*
G01*
X154840906Y-101979366D01*
X154841761Y-101979541D01*
X154850009Y-101979989D01*
X154935379Y-101998780D01*
X155012562Y-102014641D01*
X155017958Y-102016956D01*
X155029726Y-102019547D01*
X155103110Y-102053498D01*
X155170677Y-102082494D01*
X155180381Y-102089248D01*
X155196736Y-102096815D01*
X155256216Y-102142030D01*
X155311901Y-102180788D01*
X155324143Y-102193667D01*
X155343232Y-102208178D01*
X155387695Y-102260524D01*
X155430437Y-102305489D01*
X155442975Y-102325605D01*
X155462363Y-102348430D01*
X155491738Y-102403837D01*
X155521453Y-102451510D01*
X155531742Y-102479293D01*
X155548559Y-102511012D01*
X155563739Y-102565686D01*
X155581208Y-102612854D01*
X155586591Y-102647992D01*
X155597789Y-102688324D01*
X155600538Y-102739035D01*
X155607263Y-102782929D01*
X155605163Y-102824329D01*
X155607752Y-102872072D01*
X155600497Y-102916319D01*
X155598548Y-102954768D01*
X155586680Y-103000605D01*
X155577981Y-103053667D01*
X155563589Y-103089787D01*
X155555422Y-103121332D01*
X155531978Y-103169124D01*
X155509869Y-103224616D01*
X155491389Y-103251870D01*
X155479648Y-103275808D01*
X155443475Y-103322539D01*
X155406600Y-103376926D01*
X155387020Y-103395472D01*
X155374331Y-103411866D01*
X155325067Y-103454157D01*
X155273003Y-103503475D01*
X155255003Y-103514305D01*
X155243780Y-103523940D01*
X155181987Y-103558237D01*
X155115326Y-103598347D01*
X155101071Y-103603149D01*
X155093344Y-103607439D01*
X155020639Y-103630250D01*
X154940940Y-103657104D01*
X154931927Y-103658084D01*
X154929174Y-103658948D01*
X154849295Y-103667070D01*
X154758000Y-103677000D01*
X154751657Y-103677000D01*
X153961177Y-103677000D01*
X153958000Y-103677000D01*
X153911865Y-103674498D01*
X153875093Y-103672633D01*
X153874243Y-103672458D01*
X153865991Y-103672011D01*
X153780566Y-103653207D01*
X153703437Y-103637358D01*
X153698044Y-103635043D01*
X153686274Y-103632453D01*
X153612872Y-103598493D01*
X153545322Y-103569505D01*
X153535619Y-103562752D01*
X153519264Y-103555185D01*
X153459778Y-103509965D01*
X153404098Y-103471211D01*
X153391855Y-103458332D01*
X153372768Y-103443822D01*
X153328304Y-103391475D01*
X153285562Y-103346510D01*
X153273022Y-103326392D01*
X153253637Y-103303570D01*
X153224263Y-103248166D01*
X153194546Y-103200489D01*
X153184255Y-103172702D01*
X153167441Y-103140988D01*
X153152262Y-103086320D01*
X153134791Y-103039145D01*
X153129406Y-103004000D01*
X153118211Y-102963676D01*
X153115461Y-102912973D01*
X153108736Y-102869070D01*
X153110836Y-102827660D01*
X153108248Y-102779928D01*
X153115500Y-102735689D01*
X153117451Y-102697231D01*
X153129322Y-102651381D01*
X153138019Y-102598333D01*
X153152407Y-102562221D01*
X153160577Y-102530667D01*
X153184027Y-102482859D01*
X153206131Y-102427384D01*
X153224604Y-102400137D01*
X153236351Y-102376191D01*
X153272537Y-102329442D01*
X153309400Y-102275074D01*
X153328972Y-102256533D01*
X153341668Y-102240133D01*
X153390953Y-102197823D01*
X153442997Y-102148525D01*
X153460989Y-102137699D01*
X153472219Y-102128059D01*
X153534045Y-102093742D01*
X153600674Y-102053653D01*
X153614921Y-102048852D01*
X153622655Y-102044560D01*
X153695417Y-102021730D01*
X153775060Y-101994896D01*
X153784066Y-101993916D01*
X153786825Y-101993051D01*
X153866790Y-101984919D01*
X153958000Y-101975000D01*
X154758000Y-101975000D01*
X154803979Y-101977493D01*
G37*
G36*
X142717983Y-99409936D02*
G01*
X142768180Y-99409936D01*
X142811524Y-99419149D01*
X142849659Y-99422905D01*
X142897566Y-99437437D01*
X142952424Y-99449098D01*
X142987530Y-99464728D01*
X143018566Y-99474143D01*
X143067884Y-99500504D01*
X143124500Y-99525711D01*
X143150822Y-99544835D01*
X143174232Y-99557348D01*
X143221988Y-99596540D01*
X143276887Y-99636427D01*
X143294711Y-99656223D01*
X143310675Y-99669324D01*
X143353572Y-99721594D01*
X143402924Y-99776405D01*
X143413292Y-99794363D01*
X143422651Y-99805767D01*
X143457273Y-99870542D01*
X143497104Y-99939530D01*
X143501685Y-99953630D01*
X143505856Y-99961433D01*
X143528852Y-100037242D01*
X143555311Y-100118672D01*
X143556242Y-100127532D01*
X143557094Y-100130340D01*
X143565384Y-100214513D01*
X143575000Y-100306000D01*
X143565383Y-100397494D01*
X143557094Y-100481659D01*
X143556242Y-100484466D01*
X143555311Y-100493328D01*
X143528848Y-100574771D01*
X143505856Y-100650566D01*
X143501686Y-100658366D01*
X143497104Y-100672470D01*
X143457266Y-100741470D01*
X143422651Y-100806232D01*
X143413294Y-100817633D01*
X143402924Y-100835595D01*
X143353563Y-100890415D01*
X143310675Y-100942675D01*
X143294714Y-100955773D01*
X143276887Y-100975573D01*
X143221977Y-101015467D01*
X143174232Y-101054651D01*
X143150827Y-101067161D01*
X143124500Y-101086289D01*
X143067873Y-101111500D01*
X143018566Y-101137856D01*
X142987537Y-101147268D01*
X142952424Y-101162902D01*
X142897555Y-101174564D01*
X142849659Y-101189094D01*
X142811532Y-101192849D01*
X142768180Y-101202064D01*
X142717973Y-101202064D01*
X142674000Y-101206395D01*
X142630027Y-101202064D01*
X142579820Y-101202064D01*
X142536467Y-101192849D01*
X142498340Y-101189094D01*
X142450441Y-101174563D01*
X142395576Y-101162902D01*
X142360464Y-101147269D01*
X142329433Y-101137856D01*
X142280120Y-101111498D01*
X142223500Y-101086289D01*
X142197175Y-101067163D01*
X142173767Y-101054651D01*
X142126013Y-101015460D01*
X142071113Y-100975573D01*
X142053287Y-100955776D01*
X142037324Y-100942675D01*
X141994425Y-100890402D01*
X141945076Y-100835595D01*
X141934708Y-100817637D01*
X141925348Y-100806232D01*
X141890719Y-100741447D01*
X141850896Y-100672470D01*
X141846315Y-100658371D01*
X141842143Y-100650566D01*
X141819136Y-100574725D01*
X141792689Y-100493328D01*
X141791758Y-100484471D01*
X141790905Y-100481659D01*
X141782600Y-100397342D01*
X141773000Y-100306000D01*
X141782599Y-100214664D01*
X141790905Y-100130340D01*
X141791758Y-100127527D01*
X141792689Y-100118672D01*
X141819132Y-100037288D01*
X141842143Y-99961433D01*
X141846315Y-99953626D01*
X141850896Y-99939530D01*
X141890712Y-99870565D01*
X141925348Y-99805767D01*
X141934710Y-99794359D01*
X141945076Y-99776405D01*
X141994416Y-99721607D01*
X142037324Y-99669324D01*
X142053291Y-99656219D01*
X142071113Y-99636427D01*
X142126002Y-99596546D01*
X142173767Y-99557348D01*
X142197180Y-99544833D01*
X142223500Y-99525711D01*
X142280109Y-99500506D01*
X142329433Y-99474143D01*
X142360471Y-99464727D01*
X142395576Y-99449098D01*
X142450430Y-99437438D01*
X142498340Y-99422905D01*
X142536476Y-99419148D01*
X142579820Y-99409936D01*
X142630016Y-99409936D01*
X142674000Y-99405604D01*
X142717983Y-99409936D01*
G37*
G36*
X157957983Y-99409936D02*
G01*
X158008180Y-99409936D01*
X158051524Y-99419149D01*
X158089659Y-99422905D01*
X158137566Y-99437437D01*
X158192424Y-99449098D01*
X158227530Y-99464728D01*
X158258566Y-99474143D01*
X158307884Y-99500504D01*
X158364500Y-99525711D01*
X158390822Y-99544835D01*
X158414232Y-99557348D01*
X158461988Y-99596540D01*
X158516887Y-99636427D01*
X158534711Y-99656223D01*
X158550675Y-99669324D01*
X158593572Y-99721594D01*
X158642924Y-99776405D01*
X158653292Y-99794363D01*
X158662651Y-99805767D01*
X158697273Y-99870542D01*
X158737104Y-99939530D01*
X158741685Y-99953630D01*
X158745856Y-99961433D01*
X158768852Y-100037242D01*
X158795311Y-100118672D01*
X158796242Y-100127532D01*
X158797094Y-100130340D01*
X158805384Y-100214513D01*
X158815000Y-100306000D01*
X158805383Y-100397494D01*
X158797094Y-100481659D01*
X158796242Y-100484466D01*
X158795311Y-100493328D01*
X158768848Y-100574771D01*
X158745856Y-100650566D01*
X158741686Y-100658366D01*
X158737104Y-100672470D01*
X158697266Y-100741470D01*
X158662651Y-100806232D01*
X158653294Y-100817633D01*
X158642924Y-100835595D01*
X158593563Y-100890415D01*
X158550675Y-100942675D01*
X158534714Y-100955773D01*
X158516887Y-100975573D01*
X158461977Y-101015467D01*
X158414232Y-101054651D01*
X158390827Y-101067161D01*
X158364500Y-101086289D01*
X158307873Y-101111500D01*
X158258566Y-101137856D01*
X158227537Y-101147268D01*
X158192424Y-101162902D01*
X158137555Y-101174564D01*
X158089659Y-101189094D01*
X158051532Y-101192849D01*
X158008180Y-101202064D01*
X157957973Y-101202064D01*
X157914000Y-101206395D01*
X157870027Y-101202064D01*
X157819820Y-101202064D01*
X157776467Y-101192849D01*
X157738340Y-101189094D01*
X157690441Y-101174563D01*
X157635576Y-101162902D01*
X157600464Y-101147269D01*
X157569433Y-101137856D01*
X157520120Y-101111498D01*
X157463500Y-101086289D01*
X157437175Y-101067163D01*
X157413767Y-101054651D01*
X157366013Y-101015460D01*
X157311113Y-100975573D01*
X157293287Y-100955776D01*
X157277324Y-100942675D01*
X157234425Y-100890402D01*
X157185076Y-100835595D01*
X157174708Y-100817637D01*
X157165348Y-100806232D01*
X157130719Y-100741447D01*
X157090896Y-100672470D01*
X157086315Y-100658371D01*
X157082143Y-100650566D01*
X157059136Y-100574725D01*
X157032689Y-100493328D01*
X157031758Y-100484471D01*
X157030905Y-100481659D01*
X157022600Y-100397342D01*
X157013000Y-100306000D01*
X157022599Y-100214664D01*
X157030905Y-100130340D01*
X157031758Y-100127527D01*
X157032689Y-100118672D01*
X157059132Y-100037288D01*
X157082143Y-99961433D01*
X157086315Y-99953626D01*
X157090896Y-99939530D01*
X157130712Y-99870565D01*
X157165348Y-99805767D01*
X157174710Y-99794359D01*
X157185076Y-99776405D01*
X157234416Y-99721607D01*
X157277324Y-99669324D01*
X157293291Y-99656219D01*
X157311113Y-99636427D01*
X157366002Y-99596546D01*
X157413767Y-99557348D01*
X157437180Y-99544833D01*
X157463500Y-99525711D01*
X157520109Y-99500506D01*
X157569433Y-99474143D01*
X157600471Y-99464727D01*
X157635576Y-99449098D01*
X157690430Y-99437438D01*
X157738340Y-99422905D01*
X157776476Y-99419148D01*
X157819820Y-99409936D01*
X157870016Y-99409936D01*
X157914000Y-99405604D01*
X157957983Y-99409936D01*
G37*
G36*
X139563979Y-99437493D02*
G01*
X139600906Y-99439366D01*
X139601761Y-99439541D01*
X139610009Y-99439989D01*
X139695379Y-99458780D01*
X139772562Y-99474641D01*
X139777958Y-99476956D01*
X139789726Y-99479547D01*
X139863110Y-99513498D01*
X139930677Y-99542494D01*
X139940381Y-99549248D01*
X139956736Y-99556815D01*
X140016216Y-99602030D01*
X140071901Y-99640788D01*
X140084143Y-99653667D01*
X140103232Y-99668178D01*
X140147695Y-99720524D01*
X140190437Y-99765489D01*
X140202975Y-99785605D01*
X140222363Y-99808430D01*
X140251738Y-99863837D01*
X140281453Y-99911510D01*
X140291742Y-99939293D01*
X140308559Y-99971012D01*
X140323739Y-100025686D01*
X140341208Y-100072854D01*
X140346591Y-100107992D01*
X140357789Y-100148324D01*
X140360538Y-100199035D01*
X140367263Y-100242929D01*
X140365163Y-100284329D01*
X140367752Y-100332072D01*
X140360497Y-100376319D01*
X140358548Y-100414768D01*
X140346680Y-100460605D01*
X140337981Y-100513667D01*
X140323589Y-100549787D01*
X140315422Y-100581332D01*
X140291978Y-100629124D01*
X140269869Y-100684616D01*
X140251389Y-100711870D01*
X140239648Y-100735808D01*
X140203475Y-100782539D01*
X140166600Y-100836926D01*
X140147020Y-100855472D01*
X140134331Y-100871866D01*
X140085067Y-100914157D01*
X140033003Y-100963475D01*
X140015003Y-100974305D01*
X140003780Y-100983940D01*
X139941987Y-101018237D01*
X139875326Y-101058347D01*
X139861071Y-101063149D01*
X139853344Y-101067439D01*
X139780639Y-101090250D01*
X139700940Y-101117104D01*
X139691927Y-101118084D01*
X139689174Y-101118948D01*
X139609295Y-101127070D01*
X139518000Y-101137000D01*
X139511657Y-101137000D01*
X138721177Y-101137000D01*
X138718000Y-101137000D01*
X138671865Y-101134498D01*
X138635093Y-101132633D01*
X138634243Y-101132458D01*
X138625991Y-101132011D01*
X138540566Y-101113207D01*
X138463437Y-101097358D01*
X138458044Y-101095043D01*
X138446274Y-101092453D01*
X138372872Y-101058493D01*
X138305322Y-101029505D01*
X138295619Y-101022752D01*
X138279264Y-101015185D01*
X138219778Y-100969965D01*
X138164098Y-100931211D01*
X138151855Y-100918332D01*
X138132768Y-100903822D01*
X138088304Y-100851475D01*
X138045562Y-100806510D01*
X138033022Y-100786392D01*
X138013637Y-100763570D01*
X137984263Y-100708166D01*
X137954546Y-100660489D01*
X137944255Y-100632702D01*
X137927441Y-100600988D01*
X137912262Y-100546320D01*
X137894791Y-100499145D01*
X137889406Y-100464000D01*
X137878211Y-100423676D01*
X137875461Y-100372973D01*
X137868736Y-100329070D01*
X137870836Y-100287660D01*
X137868248Y-100239928D01*
X137875500Y-100195689D01*
X137877451Y-100157231D01*
X137889322Y-100111381D01*
X137898019Y-100058333D01*
X137912407Y-100022221D01*
X137920577Y-99990667D01*
X137944027Y-99942859D01*
X137966131Y-99887384D01*
X137984604Y-99860137D01*
X137996351Y-99836191D01*
X138032537Y-99789442D01*
X138069400Y-99735074D01*
X138088972Y-99716533D01*
X138101668Y-99700133D01*
X138150953Y-99657823D01*
X138202997Y-99608525D01*
X138220989Y-99597699D01*
X138232219Y-99588059D01*
X138294045Y-99553742D01*
X138360674Y-99513653D01*
X138374921Y-99508852D01*
X138382655Y-99504560D01*
X138455417Y-99481730D01*
X138535060Y-99454896D01*
X138544066Y-99453916D01*
X138546825Y-99453051D01*
X138626790Y-99444919D01*
X138718000Y-99435000D01*
X139518000Y-99435000D01*
X139563979Y-99437493D01*
G37*
G36*
X154803979Y-99437493D02*
G01*
X154840906Y-99439366D01*
X154841761Y-99439541D01*
X154850009Y-99439989D01*
X154935379Y-99458780D01*
X155012562Y-99474641D01*
X155017958Y-99476956D01*
X155029726Y-99479547D01*
X155103110Y-99513498D01*
X155170677Y-99542494D01*
X155180381Y-99549248D01*
X155196736Y-99556815D01*
X155256216Y-99602030D01*
X155311901Y-99640788D01*
X155324143Y-99653667D01*
X155343232Y-99668178D01*
X155387695Y-99720524D01*
X155430437Y-99765489D01*
X155442975Y-99785605D01*
X155462363Y-99808430D01*
X155491738Y-99863837D01*
X155521453Y-99911510D01*
X155531742Y-99939293D01*
X155548559Y-99971012D01*
X155563739Y-100025686D01*
X155581208Y-100072854D01*
X155586591Y-100107992D01*
X155597789Y-100148324D01*
X155600538Y-100199035D01*
X155607263Y-100242929D01*
X155605163Y-100284329D01*
X155607752Y-100332072D01*
X155600497Y-100376319D01*
X155598548Y-100414768D01*
X155586680Y-100460605D01*
X155577981Y-100513667D01*
X155563589Y-100549787D01*
X155555422Y-100581332D01*
X155531978Y-100629124D01*
X155509869Y-100684616D01*
X155491389Y-100711870D01*
X155479648Y-100735808D01*
X155443475Y-100782539D01*
X155406600Y-100836926D01*
X155387020Y-100855472D01*
X155374331Y-100871866D01*
X155325067Y-100914157D01*
X155273003Y-100963475D01*
X155255003Y-100974305D01*
X155243780Y-100983940D01*
X155181987Y-101018237D01*
X155115326Y-101058347D01*
X155101071Y-101063149D01*
X155093344Y-101067439D01*
X155020639Y-101090250D01*
X154940940Y-101117104D01*
X154931927Y-101118084D01*
X154929174Y-101118948D01*
X154849295Y-101127070D01*
X154758000Y-101137000D01*
X154751657Y-101137000D01*
X153961177Y-101137000D01*
X153958000Y-101137000D01*
X153911865Y-101134498D01*
X153875093Y-101132633D01*
X153874243Y-101132458D01*
X153865991Y-101132011D01*
X153780566Y-101113207D01*
X153703437Y-101097358D01*
X153698044Y-101095043D01*
X153686274Y-101092453D01*
X153612872Y-101058493D01*
X153545322Y-101029505D01*
X153535619Y-101022752D01*
X153519264Y-101015185D01*
X153459778Y-100969965D01*
X153404098Y-100931211D01*
X153391855Y-100918332D01*
X153372768Y-100903822D01*
X153328304Y-100851475D01*
X153285562Y-100806510D01*
X153273022Y-100786392D01*
X153253637Y-100763570D01*
X153224263Y-100708166D01*
X153194546Y-100660489D01*
X153184255Y-100632702D01*
X153167441Y-100600988D01*
X153152262Y-100546320D01*
X153134791Y-100499145D01*
X153129406Y-100464000D01*
X153118211Y-100423676D01*
X153115461Y-100372973D01*
X153108736Y-100329070D01*
X153110836Y-100287660D01*
X153108248Y-100239928D01*
X153115500Y-100195689D01*
X153117451Y-100157231D01*
X153129322Y-100111381D01*
X153138019Y-100058333D01*
X153152407Y-100022221D01*
X153160577Y-99990667D01*
X153184027Y-99942859D01*
X153206131Y-99887384D01*
X153224604Y-99860137D01*
X153236351Y-99836191D01*
X153272537Y-99789442D01*
X153309400Y-99735074D01*
X153328972Y-99716533D01*
X153341668Y-99700133D01*
X153390953Y-99657823D01*
X153442997Y-99608525D01*
X153460989Y-99597699D01*
X153472219Y-99588059D01*
X153534045Y-99553742D01*
X153600674Y-99513653D01*
X153614921Y-99508852D01*
X153622655Y-99504560D01*
X153695417Y-99481730D01*
X153775060Y-99454896D01*
X153784066Y-99453916D01*
X153786825Y-99453051D01*
X153866790Y-99444919D01*
X153958000Y-99435000D01*
X154758000Y-99435000D01*
X154803979Y-99437493D01*
G37*
G36*
X142717983Y-96869936D02*
G01*
X142768180Y-96869936D01*
X142811524Y-96879149D01*
X142849659Y-96882905D01*
X142897566Y-96897437D01*
X142952424Y-96909098D01*
X142987530Y-96924728D01*
X143018566Y-96934143D01*
X143067884Y-96960504D01*
X143124500Y-96985711D01*
X143150822Y-97004835D01*
X143174232Y-97017348D01*
X143221988Y-97056540D01*
X143276887Y-97096427D01*
X143294711Y-97116223D01*
X143310675Y-97129324D01*
X143353572Y-97181594D01*
X143402924Y-97236405D01*
X143413292Y-97254363D01*
X143422651Y-97265767D01*
X143457273Y-97330542D01*
X143497104Y-97399530D01*
X143501685Y-97413630D01*
X143505856Y-97421433D01*
X143528852Y-97497242D01*
X143555311Y-97578672D01*
X143556242Y-97587532D01*
X143557094Y-97590340D01*
X143565384Y-97674513D01*
X143575000Y-97766000D01*
X143565383Y-97857494D01*
X143557094Y-97941659D01*
X143556242Y-97944466D01*
X143555311Y-97953328D01*
X143528848Y-98034771D01*
X143505856Y-98110566D01*
X143501686Y-98118366D01*
X143497104Y-98132470D01*
X143457266Y-98201470D01*
X143422651Y-98266232D01*
X143413294Y-98277633D01*
X143402924Y-98295595D01*
X143353563Y-98350415D01*
X143310675Y-98402675D01*
X143294714Y-98415773D01*
X143276887Y-98435573D01*
X143221977Y-98475467D01*
X143174232Y-98514651D01*
X143150827Y-98527161D01*
X143124500Y-98546289D01*
X143067873Y-98571500D01*
X143018566Y-98597856D01*
X142987537Y-98607268D01*
X142952424Y-98622902D01*
X142897555Y-98634564D01*
X142849659Y-98649094D01*
X142811532Y-98652849D01*
X142768180Y-98662064D01*
X142717973Y-98662064D01*
X142674000Y-98666395D01*
X142630027Y-98662064D01*
X142579820Y-98662064D01*
X142536467Y-98652849D01*
X142498340Y-98649094D01*
X142450441Y-98634563D01*
X142395576Y-98622902D01*
X142360464Y-98607269D01*
X142329433Y-98597856D01*
X142280120Y-98571498D01*
X142223500Y-98546289D01*
X142197175Y-98527163D01*
X142173767Y-98514651D01*
X142126013Y-98475460D01*
X142071113Y-98435573D01*
X142053287Y-98415776D01*
X142037324Y-98402675D01*
X141994425Y-98350402D01*
X141945076Y-98295595D01*
X141934708Y-98277637D01*
X141925348Y-98266232D01*
X141890719Y-98201447D01*
X141850896Y-98132470D01*
X141846315Y-98118371D01*
X141842143Y-98110566D01*
X141819136Y-98034725D01*
X141792689Y-97953328D01*
X141791758Y-97944471D01*
X141790905Y-97941659D01*
X141782600Y-97857342D01*
X141773000Y-97766000D01*
X141782599Y-97674664D01*
X141790905Y-97590340D01*
X141791758Y-97587527D01*
X141792689Y-97578672D01*
X141819132Y-97497288D01*
X141842143Y-97421433D01*
X141846315Y-97413626D01*
X141850896Y-97399530D01*
X141890712Y-97330565D01*
X141925348Y-97265767D01*
X141934710Y-97254359D01*
X141945076Y-97236405D01*
X141994416Y-97181607D01*
X142037324Y-97129324D01*
X142053291Y-97116219D01*
X142071113Y-97096427D01*
X142126002Y-97056546D01*
X142173767Y-97017348D01*
X142197180Y-97004833D01*
X142223500Y-96985711D01*
X142280109Y-96960506D01*
X142329433Y-96934143D01*
X142360471Y-96924727D01*
X142395576Y-96909098D01*
X142450430Y-96897438D01*
X142498340Y-96882905D01*
X142536476Y-96879148D01*
X142579820Y-96869936D01*
X142630016Y-96869936D01*
X142674000Y-96865604D01*
X142717983Y-96869936D01*
G37*
G36*
X157957983Y-96869936D02*
G01*
X158008180Y-96869936D01*
X158051524Y-96879149D01*
X158089659Y-96882905D01*
X158137566Y-96897437D01*
X158192424Y-96909098D01*
X158227530Y-96924728D01*
X158258566Y-96934143D01*
X158307884Y-96960504D01*
X158364500Y-96985711D01*
X158390822Y-97004835D01*
X158414232Y-97017348D01*
X158461988Y-97056540D01*
X158516887Y-97096427D01*
X158534711Y-97116223D01*
X158550675Y-97129324D01*
X158593572Y-97181594D01*
X158642924Y-97236405D01*
X158653292Y-97254363D01*
X158662651Y-97265767D01*
X158697273Y-97330542D01*
X158737104Y-97399530D01*
X158741685Y-97413630D01*
X158745856Y-97421433D01*
X158768852Y-97497242D01*
X158795311Y-97578672D01*
X158796242Y-97587532D01*
X158797094Y-97590340D01*
X158805384Y-97674513D01*
X158815000Y-97766000D01*
X158805383Y-97857494D01*
X158797094Y-97941659D01*
X158796242Y-97944466D01*
X158795311Y-97953328D01*
X158768848Y-98034771D01*
X158745856Y-98110566D01*
X158741686Y-98118366D01*
X158737104Y-98132470D01*
X158697266Y-98201470D01*
X158662651Y-98266232D01*
X158653294Y-98277633D01*
X158642924Y-98295595D01*
X158593563Y-98350415D01*
X158550675Y-98402675D01*
X158534714Y-98415773D01*
X158516887Y-98435573D01*
X158461977Y-98475467D01*
X158414232Y-98514651D01*
X158390827Y-98527161D01*
X158364500Y-98546289D01*
X158307873Y-98571500D01*
X158258566Y-98597856D01*
X158227537Y-98607268D01*
X158192424Y-98622902D01*
X158137555Y-98634564D01*
X158089659Y-98649094D01*
X158051532Y-98652849D01*
X158008180Y-98662064D01*
X157957973Y-98662064D01*
X157914000Y-98666395D01*
X157870027Y-98662064D01*
X157819820Y-98662064D01*
X157776467Y-98652849D01*
X157738340Y-98649094D01*
X157690441Y-98634563D01*
X157635576Y-98622902D01*
X157600464Y-98607269D01*
X157569433Y-98597856D01*
X157520120Y-98571498D01*
X157463500Y-98546289D01*
X157437175Y-98527163D01*
X157413767Y-98514651D01*
X157366013Y-98475460D01*
X157311113Y-98435573D01*
X157293287Y-98415776D01*
X157277324Y-98402675D01*
X157234425Y-98350402D01*
X157185076Y-98295595D01*
X157174708Y-98277637D01*
X157165348Y-98266232D01*
X157130719Y-98201447D01*
X157090896Y-98132470D01*
X157086315Y-98118371D01*
X157082143Y-98110566D01*
X157059136Y-98034725D01*
X157032689Y-97953328D01*
X157031758Y-97944471D01*
X157030905Y-97941659D01*
X157022600Y-97857342D01*
X157013000Y-97766000D01*
X157022599Y-97674664D01*
X157030905Y-97590340D01*
X157031758Y-97587527D01*
X157032689Y-97578672D01*
X157059132Y-97497288D01*
X157082143Y-97421433D01*
X157086315Y-97413626D01*
X157090896Y-97399530D01*
X157130712Y-97330565D01*
X157165348Y-97265767D01*
X157174710Y-97254359D01*
X157185076Y-97236405D01*
X157234416Y-97181607D01*
X157277324Y-97129324D01*
X157293291Y-97116219D01*
X157311113Y-97096427D01*
X157366002Y-97056546D01*
X157413767Y-97017348D01*
X157437180Y-97004833D01*
X157463500Y-96985711D01*
X157520109Y-96960506D01*
X157569433Y-96934143D01*
X157600471Y-96924727D01*
X157635576Y-96909098D01*
X157690430Y-96897438D01*
X157738340Y-96882905D01*
X157776476Y-96879148D01*
X157819820Y-96869936D01*
X157870016Y-96869936D01*
X157914000Y-96865604D01*
X157957983Y-96869936D01*
G37*
G36*
X139563979Y-96897493D02*
G01*
X139600906Y-96899366D01*
X139601761Y-96899541D01*
X139610009Y-96899989D01*
X139695379Y-96918780D01*
X139772562Y-96934641D01*
X139777958Y-96936956D01*
X139789726Y-96939547D01*
X139863110Y-96973498D01*
X139930677Y-97002494D01*
X139940381Y-97009248D01*
X139956736Y-97016815D01*
X140016216Y-97062030D01*
X140071901Y-97100788D01*
X140084143Y-97113667D01*
X140103232Y-97128178D01*
X140147695Y-97180524D01*
X140190437Y-97225489D01*
X140202975Y-97245605D01*
X140222363Y-97268430D01*
X140251738Y-97323837D01*
X140281453Y-97371510D01*
X140291742Y-97399293D01*
X140308559Y-97431012D01*
X140323739Y-97485686D01*
X140341208Y-97532854D01*
X140346591Y-97567992D01*
X140357789Y-97608324D01*
X140360538Y-97659035D01*
X140367263Y-97702929D01*
X140365163Y-97744329D01*
X140367752Y-97792072D01*
X140360497Y-97836319D01*
X140358548Y-97874768D01*
X140346680Y-97920605D01*
X140337981Y-97973667D01*
X140323589Y-98009787D01*
X140315422Y-98041332D01*
X140291978Y-98089124D01*
X140269869Y-98144616D01*
X140251389Y-98171870D01*
X140239648Y-98195808D01*
X140203475Y-98242539D01*
X140166600Y-98296926D01*
X140147020Y-98315472D01*
X140134331Y-98331866D01*
X140085067Y-98374157D01*
X140033003Y-98423475D01*
X140015003Y-98434305D01*
X140003780Y-98443940D01*
X139941987Y-98478237D01*
X139875326Y-98518347D01*
X139861071Y-98523149D01*
X139853344Y-98527439D01*
X139780639Y-98550250D01*
X139700940Y-98577104D01*
X139691927Y-98578084D01*
X139689174Y-98578948D01*
X139609295Y-98587070D01*
X139518000Y-98597000D01*
X139511657Y-98597000D01*
X138721177Y-98597000D01*
X138718000Y-98597000D01*
X138671865Y-98594498D01*
X138635093Y-98592633D01*
X138634243Y-98592458D01*
X138625991Y-98592011D01*
X138540566Y-98573207D01*
X138463437Y-98557358D01*
X138458044Y-98555043D01*
X138446274Y-98552453D01*
X138372872Y-98518493D01*
X138305322Y-98489505D01*
X138295619Y-98482752D01*
X138279264Y-98475185D01*
X138219778Y-98429965D01*
X138164098Y-98391211D01*
X138151855Y-98378332D01*
X138132768Y-98363822D01*
X138088304Y-98311475D01*
X138045562Y-98266510D01*
X138033022Y-98246392D01*
X138013637Y-98223570D01*
X137984263Y-98168166D01*
X137954546Y-98120489D01*
X137944255Y-98092702D01*
X137927441Y-98060988D01*
X137912262Y-98006320D01*
X137894791Y-97959145D01*
X137889406Y-97924000D01*
X137878211Y-97883676D01*
X137875461Y-97832973D01*
X137868736Y-97789070D01*
X137870836Y-97747660D01*
X137868248Y-97699928D01*
X137875500Y-97655689D01*
X137877451Y-97617231D01*
X137889322Y-97571381D01*
X137898019Y-97518333D01*
X137912407Y-97482221D01*
X137920577Y-97450667D01*
X137944027Y-97402859D01*
X137966131Y-97347384D01*
X137984604Y-97320137D01*
X137996351Y-97296191D01*
X138032537Y-97249442D01*
X138069400Y-97195074D01*
X138088972Y-97176533D01*
X138101668Y-97160133D01*
X138150953Y-97117823D01*
X138202997Y-97068525D01*
X138220989Y-97057699D01*
X138232219Y-97048059D01*
X138294045Y-97013742D01*
X138360674Y-96973653D01*
X138374921Y-96968852D01*
X138382655Y-96964560D01*
X138455417Y-96941730D01*
X138535060Y-96914896D01*
X138544066Y-96913916D01*
X138546825Y-96913051D01*
X138626790Y-96904919D01*
X138718000Y-96895000D01*
X139518000Y-96895000D01*
X139563979Y-96897493D01*
G37*
G36*
X154803979Y-96897493D02*
G01*
X154840906Y-96899366D01*
X154841761Y-96899541D01*
X154850009Y-96899989D01*
X154935379Y-96918780D01*
X155012562Y-96934641D01*
X155017958Y-96936956D01*
X155029726Y-96939547D01*
X155103110Y-96973498D01*
X155170677Y-97002494D01*
X155180381Y-97009248D01*
X155196736Y-97016815D01*
X155256216Y-97062030D01*
X155311901Y-97100788D01*
X155324143Y-97113667D01*
X155343232Y-97128178D01*
X155387695Y-97180524D01*
X155430437Y-97225489D01*
X155442975Y-97245605D01*
X155462363Y-97268430D01*
X155491738Y-97323837D01*
X155521453Y-97371510D01*
X155531742Y-97399293D01*
X155548559Y-97431012D01*
X155563739Y-97485686D01*
X155581208Y-97532854D01*
X155586591Y-97567992D01*
X155597789Y-97608324D01*
X155600538Y-97659035D01*
X155607263Y-97702929D01*
X155605163Y-97744329D01*
X155607752Y-97792072D01*
X155600497Y-97836319D01*
X155598548Y-97874768D01*
X155586680Y-97920605D01*
X155577981Y-97973667D01*
X155563589Y-98009787D01*
X155555422Y-98041332D01*
X155531978Y-98089124D01*
X155509869Y-98144616D01*
X155491389Y-98171870D01*
X155479648Y-98195808D01*
X155443475Y-98242539D01*
X155406600Y-98296926D01*
X155387020Y-98315472D01*
X155374331Y-98331866D01*
X155325067Y-98374157D01*
X155273003Y-98423475D01*
X155255003Y-98434305D01*
X155243780Y-98443940D01*
X155181987Y-98478237D01*
X155115326Y-98518347D01*
X155101071Y-98523149D01*
X155093344Y-98527439D01*
X155020639Y-98550250D01*
X154940940Y-98577104D01*
X154931927Y-98578084D01*
X154929174Y-98578948D01*
X154849295Y-98587070D01*
X154758000Y-98597000D01*
X154751657Y-98597000D01*
X153961177Y-98597000D01*
X153958000Y-98597000D01*
X153911865Y-98594498D01*
X153875093Y-98592633D01*
X153874243Y-98592458D01*
X153865991Y-98592011D01*
X153780566Y-98573207D01*
X153703437Y-98557358D01*
X153698044Y-98555043D01*
X153686274Y-98552453D01*
X153612872Y-98518493D01*
X153545322Y-98489505D01*
X153535619Y-98482752D01*
X153519264Y-98475185D01*
X153459778Y-98429965D01*
X153404098Y-98391211D01*
X153391855Y-98378332D01*
X153372768Y-98363822D01*
X153328304Y-98311475D01*
X153285562Y-98266510D01*
X153273022Y-98246392D01*
X153253637Y-98223570D01*
X153224263Y-98168166D01*
X153194546Y-98120489D01*
X153184255Y-98092702D01*
X153167441Y-98060988D01*
X153152262Y-98006320D01*
X153134791Y-97959145D01*
X153129406Y-97924000D01*
X153118211Y-97883676D01*
X153115461Y-97832973D01*
X153108736Y-97789070D01*
X153110836Y-97747660D01*
X153108248Y-97699928D01*
X153115500Y-97655689D01*
X153117451Y-97617231D01*
X153129322Y-97571381D01*
X153138019Y-97518333D01*
X153152407Y-97482221D01*
X153160577Y-97450667D01*
X153184027Y-97402859D01*
X153206131Y-97347384D01*
X153224604Y-97320137D01*
X153236351Y-97296191D01*
X153272537Y-97249442D01*
X153309400Y-97195074D01*
X153328972Y-97176533D01*
X153341668Y-97160133D01*
X153390953Y-97117823D01*
X153442997Y-97068525D01*
X153460989Y-97057699D01*
X153472219Y-97048059D01*
X153534045Y-97013742D01*
X153600674Y-96973653D01*
X153614921Y-96968852D01*
X153622655Y-96964560D01*
X153695417Y-96941730D01*
X153775060Y-96914896D01*
X153784066Y-96913916D01*
X153786825Y-96913051D01*
X153866790Y-96904919D01*
X153958000Y-96895000D01*
X154758000Y-96895000D01*
X154803979Y-96897493D01*
G37*
G36*
X142717983Y-94329936D02*
G01*
X142768180Y-94329936D01*
X142811524Y-94339149D01*
X142849659Y-94342905D01*
X142897566Y-94357437D01*
X142952424Y-94369098D01*
X142987530Y-94384728D01*
X143018566Y-94394143D01*
X143067884Y-94420504D01*
X143124500Y-94445711D01*
X143150822Y-94464835D01*
X143174232Y-94477348D01*
X143221988Y-94516540D01*
X143276887Y-94556427D01*
X143294711Y-94576223D01*
X143310675Y-94589324D01*
X143353572Y-94641594D01*
X143402924Y-94696405D01*
X143413292Y-94714363D01*
X143422651Y-94725767D01*
X143457273Y-94790542D01*
X143497104Y-94859530D01*
X143501685Y-94873630D01*
X143505856Y-94881433D01*
X143528852Y-94957242D01*
X143555311Y-95038672D01*
X143556242Y-95047532D01*
X143557094Y-95050340D01*
X143565384Y-95134513D01*
X143575000Y-95226000D01*
X143565383Y-95317494D01*
X143557094Y-95401659D01*
X143556242Y-95404466D01*
X143555311Y-95413328D01*
X143528848Y-95494771D01*
X143505856Y-95570566D01*
X143501686Y-95578366D01*
X143497104Y-95592470D01*
X143457266Y-95661470D01*
X143422651Y-95726232D01*
X143413294Y-95737633D01*
X143402924Y-95755595D01*
X143353563Y-95810415D01*
X143310675Y-95862675D01*
X143294714Y-95875773D01*
X143276887Y-95895573D01*
X143221977Y-95935467D01*
X143174232Y-95974651D01*
X143150827Y-95987161D01*
X143124500Y-96006289D01*
X143067873Y-96031500D01*
X143018566Y-96057856D01*
X142987537Y-96067268D01*
X142952424Y-96082902D01*
X142897555Y-96094564D01*
X142849659Y-96109094D01*
X142811532Y-96112849D01*
X142768180Y-96122064D01*
X142717973Y-96122064D01*
X142674000Y-96126395D01*
X142630027Y-96122064D01*
X142579820Y-96122064D01*
X142536467Y-96112849D01*
X142498340Y-96109094D01*
X142450441Y-96094563D01*
X142395576Y-96082902D01*
X142360464Y-96067269D01*
X142329433Y-96057856D01*
X142280120Y-96031498D01*
X142223500Y-96006289D01*
X142197175Y-95987163D01*
X142173767Y-95974651D01*
X142126013Y-95935460D01*
X142071113Y-95895573D01*
X142053287Y-95875776D01*
X142037324Y-95862675D01*
X141994425Y-95810402D01*
X141945076Y-95755595D01*
X141934708Y-95737637D01*
X141925348Y-95726232D01*
X141890719Y-95661447D01*
X141850896Y-95592470D01*
X141846315Y-95578371D01*
X141842143Y-95570566D01*
X141819136Y-95494725D01*
X141792689Y-95413328D01*
X141791758Y-95404471D01*
X141790905Y-95401659D01*
X141782600Y-95317342D01*
X141773000Y-95226000D01*
X141782599Y-95134664D01*
X141790905Y-95050340D01*
X141791758Y-95047527D01*
X141792689Y-95038672D01*
X141819132Y-94957288D01*
X141842143Y-94881433D01*
X141846315Y-94873626D01*
X141850896Y-94859530D01*
X141890712Y-94790565D01*
X141925348Y-94725767D01*
X141934710Y-94714359D01*
X141945076Y-94696405D01*
X141994416Y-94641607D01*
X142037324Y-94589324D01*
X142053291Y-94576219D01*
X142071113Y-94556427D01*
X142126002Y-94516546D01*
X142173767Y-94477348D01*
X142197180Y-94464833D01*
X142223500Y-94445711D01*
X142280109Y-94420506D01*
X142329433Y-94394143D01*
X142360471Y-94384727D01*
X142395576Y-94369098D01*
X142450430Y-94357438D01*
X142498340Y-94342905D01*
X142536476Y-94339148D01*
X142579820Y-94329936D01*
X142630016Y-94329936D01*
X142674000Y-94325604D01*
X142717983Y-94329936D01*
G37*
G36*
X157957983Y-94329936D02*
G01*
X158008180Y-94329936D01*
X158051524Y-94339149D01*
X158089659Y-94342905D01*
X158137566Y-94357437D01*
X158192424Y-94369098D01*
X158227530Y-94384728D01*
X158258566Y-94394143D01*
X158307884Y-94420504D01*
X158364500Y-94445711D01*
X158390822Y-94464835D01*
X158414232Y-94477348D01*
X158461988Y-94516540D01*
X158516887Y-94556427D01*
X158534711Y-94576223D01*
X158550675Y-94589324D01*
X158593572Y-94641594D01*
X158642924Y-94696405D01*
X158653292Y-94714363D01*
X158662651Y-94725767D01*
X158697273Y-94790542D01*
X158737104Y-94859530D01*
X158741685Y-94873630D01*
X158745856Y-94881433D01*
X158768852Y-94957242D01*
X158795311Y-95038672D01*
X158796242Y-95047532D01*
X158797094Y-95050340D01*
X158805384Y-95134513D01*
X158815000Y-95226000D01*
X158805383Y-95317494D01*
X158797094Y-95401659D01*
X158796242Y-95404466D01*
X158795311Y-95413328D01*
X158768848Y-95494771D01*
X158745856Y-95570566D01*
X158741686Y-95578366D01*
X158737104Y-95592470D01*
X158697266Y-95661470D01*
X158662651Y-95726232D01*
X158653294Y-95737633D01*
X158642924Y-95755595D01*
X158593563Y-95810415D01*
X158550675Y-95862675D01*
X158534714Y-95875773D01*
X158516887Y-95895573D01*
X158461977Y-95935467D01*
X158414232Y-95974651D01*
X158390827Y-95987161D01*
X158364500Y-96006289D01*
X158307873Y-96031500D01*
X158258566Y-96057856D01*
X158227537Y-96067268D01*
X158192424Y-96082902D01*
X158137555Y-96094564D01*
X158089659Y-96109094D01*
X158051532Y-96112849D01*
X158008180Y-96122064D01*
X157957973Y-96122064D01*
X157914000Y-96126395D01*
X157870027Y-96122064D01*
X157819820Y-96122064D01*
X157776467Y-96112849D01*
X157738340Y-96109094D01*
X157690441Y-96094563D01*
X157635576Y-96082902D01*
X157600464Y-96067269D01*
X157569433Y-96057856D01*
X157520120Y-96031498D01*
X157463500Y-96006289D01*
X157437175Y-95987163D01*
X157413767Y-95974651D01*
X157366013Y-95935460D01*
X157311113Y-95895573D01*
X157293287Y-95875776D01*
X157277324Y-95862675D01*
X157234425Y-95810402D01*
X157185076Y-95755595D01*
X157174708Y-95737637D01*
X157165348Y-95726232D01*
X157130719Y-95661447D01*
X157090896Y-95592470D01*
X157086315Y-95578371D01*
X157082143Y-95570566D01*
X157059136Y-95494725D01*
X157032689Y-95413328D01*
X157031758Y-95404471D01*
X157030905Y-95401659D01*
X157022600Y-95317342D01*
X157013000Y-95226000D01*
X157022599Y-95134664D01*
X157030905Y-95050340D01*
X157031758Y-95047527D01*
X157032689Y-95038672D01*
X157059132Y-94957288D01*
X157082143Y-94881433D01*
X157086315Y-94873626D01*
X157090896Y-94859530D01*
X157130712Y-94790565D01*
X157165348Y-94725767D01*
X157174710Y-94714359D01*
X157185076Y-94696405D01*
X157234416Y-94641607D01*
X157277324Y-94589324D01*
X157293291Y-94576219D01*
X157311113Y-94556427D01*
X157366002Y-94516546D01*
X157413767Y-94477348D01*
X157437180Y-94464833D01*
X157463500Y-94445711D01*
X157520109Y-94420506D01*
X157569433Y-94394143D01*
X157600471Y-94384727D01*
X157635576Y-94369098D01*
X157690430Y-94357438D01*
X157738340Y-94342905D01*
X157776476Y-94339148D01*
X157819820Y-94329936D01*
X157870016Y-94329936D01*
X157914000Y-94325604D01*
X157957983Y-94329936D01*
G37*
G36*
X139563979Y-94357493D02*
G01*
X139600906Y-94359366D01*
X139601761Y-94359541D01*
X139610009Y-94359989D01*
X139695379Y-94378780D01*
X139772562Y-94394641D01*
X139777958Y-94396956D01*
X139789726Y-94399547D01*
X139863110Y-94433498D01*
X139930677Y-94462494D01*
X139940381Y-94469248D01*
X139956736Y-94476815D01*
X140016216Y-94522030D01*
X140071901Y-94560788D01*
X140084143Y-94573667D01*
X140103232Y-94588178D01*
X140147695Y-94640524D01*
X140190437Y-94685489D01*
X140202975Y-94705605D01*
X140222363Y-94728430D01*
X140251738Y-94783837D01*
X140281453Y-94831510D01*
X140291742Y-94859293D01*
X140308559Y-94891012D01*
X140323739Y-94945686D01*
X140341208Y-94992854D01*
X140346591Y-95027992D01*
X140357789Y-95068324D01*
X140360538Y-95119035D01*
X140367263Y-95162929D01*
X140365163Y-95204329D01*
X140367752Y-95252072D01*
X140360497Y-95296319D01*
X140358548Y-95334768D01*
X140346680Y-95380605D01*
X140337981Y-95433667D01*
X140323589Y-95469787D01*
X140315422Y-95501332D01*
X140291978Y-95549124D01*
X140269869Y-95604616D01*
X140251389Y-95631870D01*
X140239648Y-95655808D01*
X140203475Y-95702539D01*
X140166600Y-95756926D01*
X140147020Y-95775472D01*
X140134331Y-95791866D01*
X140085067Y-95834157D01*
X140033003Y-95883475D01*
X140015003Y-95894305D01*
X140003780Y-95903940D01*
X139941987Y-95938237D01*
X139875326Y-95978347D01*
X139861071Y-95983149D01*
X139853344Y-95987439D01*
X139780639Y-96010250D01*
X139700940Y-96037104D01*
X139691927Y-96038084D01*
X139689174Y-96038948D01*
X139609295Y-96047070D01*
X139518000Y-96057000D01*
X139511657Y-96057000D01*
X138721177Y-96057000D01*
X138718000Y-96057000D01*
X138671865Y-96054498D01*
X138635093Y-96052633D01*
X138634243Y-96052458D01*
X138625991Y-96052011D01*
X138540566Y-96033207D01*
X138463437Y-96017358D01*
X138458044Y-96015043D01*
X138446274Y-96012453D01*
X138372872Y-95978493D01*
X138305322Y-95949505D01*
X138295619Y-95942752D01*
X138279264Y-95935185D01*
X138219778Y-95889965D01*
X138164098Y-95851211D01*
X138151855Y-95838332D01*
X138132768Y-95823822D01*
X138088304Y-95771475D01*
X138045562Y-95726510D01*
X138033022Y-95706392D01*
X138013637Y-95683570D01*
X137984263Y-95628166D01*
X137954546Y-95580489D01*
X137944255Y-95552702D01*
X137927441Y-95520988D01*
X137912262Y-95466320D01*
X137894791Y-95419145D01*
X137889406Y-95384000D01*
X137878211Y-95343676D01*
X137875461Y-95292973D01*
X137868736Y-95249070D01*
X137870836Y-95207660D01*
X137868248Y-95159928D01*
X137875500Y-95115689D01*
X137877451Y-95077231D01*
X137889322Y-95031381D01*
X137898019Y-94978333D01*
X137912407Y-94942221D01*
X137920577Y-94910667D01*
X137944027Y-94862859D01*
X137966131Y-94807384D01*
X137984604Y-94780137D01*
X137996351Y-94756191D01*
X138032537Y-94709442D01*
X138069400Y-94655074D01*
X138088972Y-94636533D01*
X138101668Y-94620133D01*
X138150953Y-94577823D01*
X138202997Y-94528525D01*
X138220989Y-94517699D01*
X138232219Y-94508059D01*
X138294045Y-94473742D01*
X138360674Y-94433653D01*
X138374921Y-94428852D01*
X138382655Y-94424560D01*
X138455417Y-94401730D01*
X138535060Y-94374896D01*
X138544066Y-94373916D01*
X138546825Y-94373051D01*
X138626790Y-94364919D01*
X138718000Y-94355000D01*
X139518000Y-94355000D01*
X139563979Y-94357493D01*
G37*
G36*
X154803979Y-94357493D02*
G01*
X154840906Y-94359366D01*
X154841761Y-94359541D01*
X154850009Y-94359989D01*
X154935379Y-94378780D01*
X155012562Y-94394641D01*
X155017958Y-94396956D01*
X155029726Y-94399547D01*
X155103110Y-94433498D01*
X155170677Y-94462494D01*
X155180381Y-94469248D01*
X155196736Y-94476815D01*
X155256216Y-94522030D01*
X155311901Y-94560788D01*
X155324143Y-94573667D01*
X155343232Y-94588178D01*
X155387695Y-94640524D01*
X155430437Y-94685489D01*
X155442975Y-94705605D01*
X155462363Y-94728430D01*
X155491738Y-94783837D01*
X155521453Y-94831510D01*
X155531742Y-94859293D01*
X155548559Y-94891012D01*
X155563739Y-94945686D01*
X155581208Y-94992854D01*
X155586591Y-95027992D01*
X155597789Y-95068324D01*
X155600538Y-95119035D01*
X155607263Y-95162929D01*
X155605163Y-95204329D01*
X155607752Y-95252072D01*
X155600497Y-95296319D01*
X155598548Y-95334768D01*
X155586680Y-95380605D01*
X155577981Y-95433667D01*
X155563589Y-95469787D01*
X155555422Y-95501332D01*
X155531978Y-95549124D01*
X155509869Y-95604616D01*
X155491389Y-95631870D01*
X155479648Y-95655808D01*
X155443475Y-95702539D01*
X155406600Y-95756926D01*
X155387020Y-95775472D01*
X155374331Y-95791866D01*
X155325067Y-95834157D01*
X155273003Y-95883475D01*
X155255003Y-95894305D01*
X155243780Y-95903940D01*
X155181987Y-95938237D01*
X155115326Y-95978347D01*
X155101071Y-95983149D01*
X155093344Y-95987439D01*
X155020639Y-96010250D01*
X154940940Y-96037104D01*
X154931927Y-96038084D01*
X154929174Y-96038948D01*
X154849295Y-96047070D01*
X154758000Y-96057000D01*
X154751657Y-96057000D01*
X153961177Y-96057000D01*
X153958000Y-96057000D01*
X153911865Y-96054498D01*
X153875093Y-96052633D01*
X153874243Y-96052458D01*
X153865991Y-96052011D01*
X153780566Y-96033207D01*
X153703437Y-96017358D01*
X153698044Y-96015043D01*
X153686274Y-96012453D01*
X153612872Y-95978493D01*
X153545322Y-95949505D01*
X153535619Y-95942752D01*
X153519264Y-95935185D01*
X153459778Y-95889965D01*
X153404098Y-95851211D01*
X153391855Y-95838332D01*
X153372768Y-95823822D01*
X153328304Y-95771475D01*
X153285562Y-95726510D01*
X153273022Y-95706392D01*
X153253637Y-95683570D01*
X153224263Y-95628166D01*
X153194546Y-95580489D01*
X153184255Y-95552702D01*
X153167441Y-95520988D01*
X153152262Y-95466320D01*
X153134791Y-95419145D01*
X153129406Y-95384000D01*
X153118211Y-95343676D01*
X153115461Y-95292973D01*
X153108736Y-95249070D01*
X153110836Y-95207660D01*
X153108248Y-95159928D01*
X153115500Y-95115689D01*
X153117451Y-95077231D01*
X153129322Y-95031381D01*
X153138019Y-94978333D01*
X153152407Y-94942221D01*
X153160577Y-94910667D01*
X153184027Y-94862859D01*
X153206131Y-94807384D01*
X153224604Y-94780137D01*
X153236351Y-94756191D01*
X153272537Y-94709442D01*
X153309400Y-94655074D01*
X153328972Y-94636533D01*
X153341668Y-94620133D01*
X153390953Y-94577823D01*
X153442997Y-94528525D01*
X153460989Y-94517699D01*
X153472219Y-94508059D01*
X153534045Y-94473742D01*
X153600674Y-94433653D01*
X153614921Y-94428852D01*
X153622655Y-94424560D01*
X153695417Y-94401730D01*
X153775060Y-94374896D01*
X153784066Y-94373916D01*
X153786825Y-94373051D01*
X153866790Y-94364919D01*
X153958000Y-94355000D01*
X154758000Y-94355000D01*
X154803979Y-94357493D01*
G37*
G36*
X142717983Y-91789936D02*
G01*
X142768180Y-91789936D01*
X142811524Y-91799149D01*
X142849659Y-91802905D01*
X142897566Y-91817437D01*
X142952424Y-91829098D01*
X142987530Y-91844728D01*
X143018566Y-91854143D01*
X143067884Y-91880504D01*
X143124500Y-91905711D01*
X143150822Y-91924835D01*
X143174232Y-91937348D01*
X143221988Y-91976540D01*
X143276887Y-92016427D01*
X143294711Y-92036223D01*
X143310675Y-92049324D01*
X143353572Y-92101594D01*
X143402924Y-92156405D01*
X143413292Y-92174363D01*
X143422651Y-92185767D01*
X143457273Y-92250542D01*
X143497104Y-92319530D01*
X143501685Y-92333630D01*
X143505856Y-92341433D01*
X143528852Y-92417242D01*
X143555311Y-92498672D01*
X143556242Y-92507532D01*
X143557094Y-92510340D01*
X143565384Y-92594513D01*
X143575000Y-92686000D01*
X143565383Y-92777494D01*
X143557094Y-92861659D01*
X143556242Y-92864466D01*
X143555311Y-92873328D01*
X143528848Y-92954771D01*
X143505856Y-93030566D01*
X143501686Y-93038366D01*
X143497104Y-93052470D01*
X143457266Y-93121470D01*
X143422651Y-93186232D01*
X143413294Y-93197633D01*
X143402924Y-93215595D01*
X143353563Y-93270415D01*
X143310675Y-93322675D01*
X143294714Y-93335773D01*
X143276887Y-93355573D01*
X143221977Y-93395467D01*
X143174232Y-93434651D01*
X143150827Y-93447161D01*
X143124500Y-93466289D01*
X143067873Y-93491500D01*
X143018566Y-93517856D01*
X142987537Y-93527268D01*
X142952424Y-93542902D01*
X142897555Y-93554564D01*
X142849659Y-93569094D01*
X142811532Y-93572849D01*
X142768180Y-93582064D01*
X142717973Y-93582064D01*
X142674000Y-93586395D01*
X142630027Y-93582064D01*
X142579820Y-93582064D01*
X142536467Y-93572849D01*
X142498340Y-93569094D01*
X142450441Y-93554563D01*
X142395576Y-93542902D01*
X142360464Y-93527269D01*
X142329433Y-93517856D01*
X142280120Y-93491498D01*
X142223500Y-93466289D01*
X142197175Y-93447163D01*
X142173767Y-93434651D01*
X142126013Y-93395460D01*
X142071113Y-93355573D01*
X142053287Y-93335776D01*
X142037324Y-93322675D01*
X141994425Y-93270402D01*
X141945076Y-93215595D01*
X141934708Y-93197637D01*
X141925348Y-93186232D01*
X141890719Y-93121447D01*
X141850896Y-93052470D01*
X141846315Y-93038371D01*
X141842143Y-93030566D01*
X141819136Y-92954725D01*
X141792689Y-92873328D01*
X141791758Y-92864471D01*
X141790905Y-92861659D01*
X141782600Y-92777342D01*
X141773000Y-92686000D01*
X141782599Y-92594664D01*
X141790905Y-92510340D01*
X141791758Y-92507527D01*
X141792689Y-92498672D01*
X141819132Y-92417288D01*
X141842143Y-92341433D01*
X141846315Y-92333626D01*
X141850896Y-92319530D01*
X141890712Y-92250565D01*
X141925348Y-92185767D01*
X141934710Y-92174359D01*
X141945076Y-92156405D01*
X141994416Y-92101607D01*
X142037324Y-92049324D01*
X142053291Y-92036219D01*
X142071113Y-92016427D01*
X142126002Y-91976546D01*
X142173767Y-91937348D01*
X142197180Y-91924833D01*
X142223500Y-91905711D01*
X142280109Y-91880506D01*
X142329433Y-91854143D01*
X142360471Y-91844727D01*
X142395576Y-91829098D01*
X142450430Y-91817438D01*
X142498340Y-91802905D01*
X142536476Y-91799148D01*
X142579820Y-91789936D01*
X142630016Y-91789936D01*
X142674000Y-91785604D01*
X142717983Y-91789936D01*
G37*
G36*
X157957983Y-91789936D02*
G01*
X158008180Y-91789936D01*
X158051524Y-91799149D01*
X158089659Y-91802905D01*
X158137566Y-91817437D01*
X158192424Y-91829098D01*
X158227530Y-91844728D01*
X158258566Y-91854143D01*
X158307884Y-91880504D01*
X158364500Y-91905711D01*
X158390822Y-91924835D01*
X158414232Y-91937348D01*
X158461988Y-91976540D01*
X158516887Y-92016427D01*
X158534711Y-92036223D01*
X158550675Y-92049324D01*
X158593572Y-92101594D01*
X158642924Y-92156405D01*
X158653292Y-92174363D01*
X158662651Y-92185767D01*
X158697273Y-92250542D01*
X158737104Y-92319530D01*
X158741685Y-92333630D01*
X158745856Y-92341433D01*
X158768852Y-92417242D01*
X158795311Y-92498672D01*
X158796242Y-92507532D01*
X158797094Y-92510340D01*
X158805384Y-92594513D01*
X158815000Y-92686000D01*
X158805383Y-92777494D01*
X158797094Y-92861659D01*
X158796242Y-92864466D01*
X158795311Y-92873328D01*
X158768848Y-92954771D01*
X158745856Y-93030566D01*
X158741686Y-93038366D01*
X158737104Y-93052470D01*
X158697266Y-93121470D01*
X158662651Y-93186232D01*
X158653294Y-93197633D01*
X158642924Y-93215595D01*
X158593563Y-93270415D01*
X158550675Y-93322675D01*
X158534714Y-93335773D01*
X158516887Y-93355573D01*
X158461977Y-93395467D01*
X158414232Y-93434651D01*
X158390827Y-93447161D01*
X158364500Y-93466289D01*
X158307873Y-93491500D01*
X158258566Y-93517856D01*
X158227537Y-93527268D01*
X158192424Y-93542902D01*
X158137555Y-93554564D01*
X158089659Y-93569094D01*
X158051532Y-93572849D01*
X158008180Y-93582064D01*
X157957973Y-93582064D01*
X157914000Y-93586395D01*
X157870027Y-93582064D01*
X157819820Y-93582064D01*
X157776467Y-93572849D01*
X157738340Y-93569094D01*
X157690441Y-93554563D01*
X157635576Y-93542902D01*
X157600464Y-93527269D01*
X157569433Y-93517856D01*
X157520120Y-93491498D01*
X157463500Y-93466289D01*
X157437175Y-93447163D01*
X157413767Y-93434651D01*
X157366013Y-93395460D01*
X157311113Y-93355573D01*
X157293287Y-93335776D01*
X157277324Y-93322675D01*
X157234425Y-93270402D01*
X157185076Y-93215595D01*
X157174708Y-93197637D01*
X157165348Y-93186232D01*
X157130719Y-93121447D01*
X157090896Y-93052470D01*
X157086315Y-93038371D01*
X157082143Y-93030566D01*
X157059136Y-92954725D01*
X157032689Y-92873328D01*
X157031758Y-92864471D01*
X157030905Y-92861659D01*
X157022600Y-92777342D01*
X157013000Y-92686000D01*
X157022599Y-92594664D01*
X157030905Y-92510340D01*
X157031758Y-92507527D01*
X157032689Y-92498672D01*
X157059132Y-92417288D01*
X157082143Y-92341433D01*
X157086315Y-92333626D01*
X157090896Y-92319530D01*
X157130712Y-92250565D01*
X157165348Y-92185767D01*
X157174710Y-92174359D01*
X157185076Y-92156405D01*
X157234416Y-92101607D01*
X157277324Y-92049324D01*
X157293291Y-92036219D01*
X157311113Y-92016427D01*
X157366002Y-91976546D01*
X157413767Y-91937348D01*
X157437180Y-91924833D01*
X157463500Y-91905711D01*
X157520109Y-91880506D01*
X157569433Y-91854143D01*
X157600471Y-91844727D01*
X157635576Y-91829098D01*
X157690430Y-91817438D01*
X157738340Y-91802905D01*
X157776476Y-91799148D01*
X157819820Y-91789936D01*
X157870016Y-91789936D01*
X157914000Y-91785604D01*
X157957983Y-91789936D01*
G37*
G36*
X139563979Y-91817493D02*
G01*
X139600906Y-91819366D01*
X139601761Y-91819541D01*
X139610009Y-91819989D01*
X139695379Y-91838780D01*
X139772562Y-91854641D01*
X139777958Y-91856956D01*
X139789726Y-91859547D01*
X139863110Y-91893498D01*
X139930677Y-91922494D01*
X139940381Y-91929248D01*
X139956736Y-91936815D01*
X140016216Y-91982030D01*
X140071901Y-92020788D01*
X140084143Y-92033667D01*
X140103232Y-92048178D01*
X140147695Y-92100524D01*
X140190437Y-92145489D01*
X140202975Y-92165605D01*
X140222363Y-92188430D01*
X140251738Y-92243837D01*
X140281453Y-92291510D01*
X140291742Y-92319293D01*
X140308559Y-92351012D01*
X140323739Y-92405686D01*
X140341208Y-92452854D01*
X140346591Y-92487992D01*
X140357789Y-92528324D01*
X140360538Y-92579035D01*
X140367263Y-92622929D01*
X140365163Y-92664329D01*
X140367752Y-92712072D01*
X140360497Y-92756319D01*
X140358548Y-92794768D01*
X140346680Y-92840605D01*
X140337981Y-92893667D01*
X140323589Y-92929787D01*
X140315422Y-92961332D01*
X140291978Y-93009124D01*
X140269869Y-93064616D01*
X140251389Y-93091870D01*
X140239648Y-93115808D01*
X140203475Y-93162539D01*
X140166600Y-93216926D01*
X140147020Y-93235472D01*
X140134331Y-93251866D01*
X140085067Y-93294157D01*
X140033003Y-93343475D01*
X140015003Y-93354305D01*
X140003780Y-93363940D01*
X139941987Y-93398237D01*
X139875326Y-93438347D01*
X139861071Y-93443149D01*
X139853344Y-93447439D01*
X139780639Y-93470250D01*
X139700940Y-93497104D01*
X139691927Y-93498084D01*
X139689174Y-93498948D01*
X139609295Y-93507070D01*
X139518000Y-93517000D01*
X139511657Y-93517000D01*
X138721177Y-93517000D01*
X138718000Y-93517000D01*
X138671865Y-93514498D01*
X138635093Y-93512633D01*
X138634243Y-93512458D01*
X138625991Y-93512011D01*
X138540566Y-93493207D01*
X138463437Y-93477358D01*
X138458044Y-93475043D01*
X138446274Y-93472453D01*
X138372872Y-93438493D01*
X138305322Y-93409505D01*
X138295619Y-93402752D01*
X138279264Y-93395185D01*
X138219778Y-93349965D01*
X138164098Y-93311211D01*
X138151855Y-93298332D01*
X138132768Y-93283822D01*
X138088304Y-93231475D01*
X138045562Y-93186510D01*
X138033022Y-93166392D01*
X138013637Y-93143570D01*
X137984263Y-93088166D01*
X137954546Y-93040489D01*
X137944255Y-93012702D01*
X137927441Y-92980988D01*
X137912262Y-92926320D01*
X137894791Y-92879145D01*
X137889406Y-92844000D01*
X137878211Y-92803676D01*
X137875461Y-92752973D01*
X137868736Y-92709070D01*
X137870836Y-92667660D01*
X137868248Y-92619928D01*
X137875500Y-92575689D01*
X137877451Y-92537231D01*
X137889322Y-92491381D01*
X137898019Y-92438333D01*
X137912407Y-92402221D01*
X137920577Y-92370667D01*
X137944027Y-92322859D01*
X137966131Y-92267384D01*
X137984604Y-92240137D01*
X137996351Y-92216191D01*
X138032537Y-92169442D01*
X138069400Y-92115074D01*
X138088972Y-92096533D01*
X138101668Y-92080133D01*
X138150953Y-92037823D01*
X138202997Y-91988525D01*
X138220989Y-91977699D01*
X138232219Y-91968059D01*
X138294045Y-91933742D01*
X138360674Y-91893653D01*
X138374921Y-91888852D01*
X138382655Y-91884560D01*
X138455417Y-91861730D01*
X138535060Y-91834896D01*
X138544066Y-91833916D01*
X138546825Y-91833051D01*
X138626790Y-91824919D01*
X138718000Y-91815000D01*
X139518000Y-91815000D01*
X139563979Y-91817493D01*
G37*
G36*
X154803979Y-91817493D02*
G01*
X154840906Y-91819366D01*
X154841761Y-91819541D01*
X154850009Y-91819989D01*
X154935379Y-91838780D01*
X155012562Y-91854641D01*
X155017958Y-91856956D01*
X155029726Y-91859547D01*
X155103110Y-91893498D01*
X155170677Y-91922494D01*
X155180381Y-91929248D01*
X155196736Y-91936815D01*
X155256216Y-91982030D01*
X155311901Y-92020788D01*
X155324143Y-92033667D01*
X155343232Y-92048178D01*
X155387695Y-92100524D01*
X155430437Y-92145489D01*
X155442975Y-92165605D01*
X155462363Y-92188430D01*
X155491738Y-92243837D01*
X155521453Y-92291510D01*
X155531742Y-92319293D01*
X155548559Y-92351012D01*
X155563739Y-92405686D01*
X155581208Y-92452854D01*
X155586591Y-92487992D01*
X155597789Y-92528324D01*
X155600538Y-92579035D01*
X155607263Y-92622929D01*
X155605163Y-92664329D01*
X155607752Y-92712072D01*
X155600497Y-92756319D01*
X155598548Y-92794768D01*
X155586680Y-92840605D01*
X155577981Y-92893667D01*
X155563589Y-92929787D01*
X155555422Y-92961332D01*
X155531978Y-93009124D01*
X155509869Y-93064616D01*
X155491389Y-93091870D01*
X155479648Y-93115808D01*
X155443475Y-93162539D01*
X155406600Y-93216926D01*
X155387020Y-93235472D01*
X155374331Y-93251866D01*
X155325067Y-93294157D01*
X155273003Y-93343475D01*
X155255003Y-93354305D01*
X155243780Y-93363940D01*
X155181987Y-93398237D01*
X155115326Y-93438347D01*
X155101071Y-93443149D01*
X155093344Y-93447439D01*
X155020639Y-93470250D01*
X154940940Y-93497104D01*
X154931927Y-93498084D01*
X154929174Y-93498948D01*
X154849295Y-93507070D01*
X154758000Y-93517000D01*
X154751657Y-93517000D01*
X153961177Y-93517000D01*
X153958000Y-93517000D01*
X153911865Y-93514498D01*
X153875093Y-93512633D01*
X153874243Y-93512458D01*
X153865991Y-93512011D01*
X153780566Y-93493207D01*
X153703437Y-93477358D01*
X153698044Y-93475043D01*
X153686274Y-93472453D01*
X153612872Y-93438493D01*
X153545322Y-93409505D01*
X153535619Y-93402752D01*
X153519264Y-93395185D01*
X153459778Y-93349965D01*
X153404098Y-93311211D01*
X153391855Y-93298332D01*
X153372768Y-93283822D01*
X153328304Y-93231475D01*
X153285562Y-93186510D01*
X153273022Y-93166392D01*
X153253637Y-93143570D01*
X153224263Y-93088166D01*
X153194546Y-93040489D01*
X153184255Y-93012702D01*
X153167441Y-92980988D01*
X153152262Y-92926320D01*
X153134791Y-92879145D01*
X153129406Y-92844000D01*
X153118211Y-92803676D01*
X153115461Y-92752973D01*
X153108736Y-92709070D01*
X153110836Y-92667660D01*
X153108248Y-92619928D01*
X153115500Y-92575689D01*
X153117451Y-92537231D01*
X153129322Y-92491381D01*
X153138019Y-92438333D01*
X153152407Y-92402221D01*
X153160577Y-92370667D01*
X153184027Y-92322859D01*
X153206131Y-92267384D01*
X153224604Y-92240137D01*
X153236351Y-92216191D01*
X153272537Y-92169442D01*
X153309400Y-92115074D01*
X153328972Y-92096533D01*
X153341668Y-92080133D01*
X153390953Y-92037823D01*
X153442997Y-91988525D01*
X153460989Y-91977699D01*
X153472219Y-91968059D01*
X153534045Y-91933742D01*
X153600674Y-91893653D01*
X153614921Y-91888852D01*
X153622655Y-91884560D01*
X153695417Y-91861730D01*
X153775060Y-91834896D01*
X153784066Y-91833916D01*
X153786825Y-91833051D01*
X153866790Y-91824919D01*
X153958000Y-91815000D01*
X154758000Y-91815000D01*
X154803979Y-91817493D01*
G37*
G36*
X142717983Y-89249936D02*
G01*
X142768180Y-89249936D01*
X142811524Y-89259149D01*
X142849659Y-89262905D01*
X142897566Y-89277437D01*
X142952424Y-89289098D01*
X142987530Y-89304728D01*
X143018566Y-89314143D01*
X143067884Y-89340504D01*
X143124500Y-89365711D01*
X143150822Y-89384835D01*
X143174232Y-89397348D01*
X143221988Y-89436540D01*
X143276887Y-89476427D01*
X143294711Y-89496223D01*
X143310675Y-89509324D01*
X143353572Y-89561594D01*
X143402924Y-89616405D01*
X143413292Y-89634363D01*
X143422651Y-89645767D01*
X143457273Y-89710542D01*
X143497104Y-89779530D01*
X143501685Y-89793630D01*
X143505856Y-89801433D01*
X143528852Y-89877242D01*
X143555311Y-89958672D01*
X143556242Y-89967532D01*
X143557094Y-89970340D01*
X143565384Y-90054513D01*
X143575000Y-90146000D01*
X143565383Y-90237494D01*
X143557094Y-90321659D01*
X143556242Y-90324466D01*
X143555311Y-90333328D01*
X143528848Y-90414771D01*
X143505856Y-90490566D01*
X143501686Y-90498366D01*
X143497104Y-90512470D01*
X143457266Y-90581470D01*
X143422651Y-90646232D01*
X143413294Y-90657633D01*
X143402924Y-90675595D01*
X143353563Y-90730415D01*
X143310675Y-90782675D01*
X143294714Y-90795773D01*
X143276887Y-90815573D01*
X143221977Y-90855467D01*
X143174232Y-90894651D01*
X143150827Y-90907161D01*
X143124500Y-90926289D01*
X143067873Y-90951500D01*
X143018566Y-90977856D01*
X142987537Y-90987268D01*
X142952424Y-91002902D01*
X142897555Y-91014564D01*
X142849659Y-91029094D01*
X142811532Y-91032849D01*
X142768180Y-91042064D01*
X142717973Y-91042064D01*
X142674000Y-91046395D01*
X142630027Y-91042064D01*
X142579820Y-91042064D01*
X142536467Y-91032849D01*
X142498340Y-91029094D01*
X142450441Y-91014563D01*
X142395576Y-91002902D01*
X142360464Y-90987269D01*
X142329433Y-90977856D01*
X142280120Y-90951498D01*
X142223500Y-90926289D01*
X142197175Y-90907163D01*
X142173767Y-90894651D01*
X142126013Y-90855460D01*
X142071113Y-90815573D01*
X142053287Y-90795776D01*
X142037324Y-90782675D01*
X141994425Y-90730402D01*
X141945076Y-90675595D01*
X141934708Y-90657637D01*
X141925348Y-90646232D01*
X141890719Y-90581447D01*
X141850896Y-90512470D01*
X141846315Y-90498371D01*
X141842143Y-90490566D01*
X141819136Y-90414725D01*
X141792689Y-90333328D01*
X141791758Y-90324471D01*
X141790905Y-90321659D01*
X141782600Y-90237342D01*
X141773000Y-90146000D01*
X141782599Y-90054664D01*
X141790905Y-89970340D01*
X141791758Y-89967527D01*
X141792689Y-89958672D01*
X141819132Y-89877288D01*
X141842143Y-89801433D01*
X141846315Y-89793626D01*
X141850896Y-89779530D01*
X141890712Y-89710565D01*
X141925348Y-89645767D01*
X141934710Y-89634359D01*
X141945076Y-89616405D01*
X141994416Y-89561607D01*
X142037324Y-89509324D01*
X142053291Y-89496219D01*
X142071113Y-89476427D01*
X142126002Y-89436546D01*
X142173767Y-89397348D01*
X142197180Y-89384833D01*
X142223500Y-89365711D01*
X142280109Y-89340506D01*
X142329433Y-89314143D01*
X142360471Y-89304727D01*
X142395576Y-89289098D01*
X142450430Y-89277438D01*
X142498340Y-89262905D01*
X142536476Y-89259148D01*
X142579820Y-89249936D01*
X142630016Y-89249936D01*
X142674000Y-89245604D01*
X142717983Y-89249936D01*
G37*
G36*
X157957983Y-89249936D02*
G01*
X158008180Y-89249936D01*
X158051524Y-89259149D01*
X158089659Y-89262905D01*
X158137566Y-89277437D01*
X158192424Y-89289098D01*
X158227530Y-89304728D01*
X158258566Y-89314143D01*
X158307884Y-89340504D01*
X158364500Y-89365711D01*
X158390822Y-89384835D01*
X158414232Y-89397348D01*
X158461988Y-89436540D01*
X158516887Y-89476427D01*
X158534711Y-89496223D01*
X158550675Y-89509324D01*
X158593572Y-89561594D01*
X158642924Y-89616405D01*
X158653292Y-89634363D01*
X158662651Y-89645767D01*
X158697273Y-89710542D01*
X158737104Y-89779530D01*
X158741685Y-89793630D01*
X158745856Y-89801433D01*
X158768852Y-89877242D01*
X158795311Y-89958672D01*
X158796242Y-89967532D01*
X158797094Y-89970340D01*
X158805384Y-90054513D01*
X158815000Y-90146000D01*
X158805383Y-90237494D01*
X158797094Y-90321659D01*
X158796242Y-90324466D01*
X158795311Y-90333328D01*
X158768848Y-90414771D01*
X158745856Y-90490566D01*
X158741686Y-90498366D01*
X158737104Y-90512470D01*
X158697266Y-90581470D01*
X158662651Y-90646232D01*
X158653294Y-90657633D01*
X158642924Y-90675595D01*
X158593563Y-90730415D01*
X158550675Y-90782675D01*
X158534714Y-90795773D01*
X158516887Y-90815573D01*
X158461977Y-90855467D01*
X158414232Y-90894651D01*
X158390827Y-90907161D01*
X158364500Y-90926289D01*
X158307873Y-90951500D01*
X158258566Y-90977856D01*
X158227537Y-90987268D01*
X158192424Y-91002902D01*
X158137555Y-91014564D01*
X158089659Y-91029094D01*
X158051532Y-91032849D01*
X158008180Y-91042064D01*
X157957973Y-91042064D01*
X157914000Y-91046395D01*
X157870027Y-91042064D01*
X157819820Y-91042064D01*
X157776467Y-91032849D01*
X157738340Y-91029094D01*
X157690441Y-91014563D01*
X157635576Y-91002902D01*
X157600464Y-90987269D01*
X157569433Y-90977856D01*
X157520120Y-90951498D01*
X157463500Y-90926289D01*
X157437175Y-90907163D01*
X157413767Y-90894651D01*
X157366013Y-90855460D01*
X157311113Y-90815573D01*
X157293287Y-90795776D01*
X157277324Y-90782675D01*
X157234425Y-90730402D01*
X157185076Y-90675595D01*
X157174708Y-90657637D01*
X157165348Y-90646232D01*
X157130719Y-90581447D01*
X157090896Y-90512470D01*
X157086315Y-90498371D01*
X157082143Y-90490566D01*
X157059136Y-90414725D01*
X157032689Y-90333328D01*
X157031758Y-90324471D01*
X157030905Y-90321659D01*
X157022600Y-90237342D01*
X157013000Y-90146000D01*
X157022599Y-90054664D01*
X157030905Y-89970340D01*
X157031758Y-89967527D01*
X157032689Y-89958672D01*
X157059132Y-89877288D01*
X157082143Y-89801433D01*
X157086315Y-89793626D01*
X157090896Y-89779530D01*
X157130712Y-89710565D01*
X157165348Y-89645767D01*
X157174710Y-89634359D01*
X157185076Y-89616405D01*
X157234416Y-89561607D01*
X157277324Y-89509324D01*
X157293291Y-89496219D01*
X157311113Y-89476427D01*
X157366002Y-89436546D01*
X157413767Y-89397348D01*
X157437180Y-89384833D01*
X157463500Y-89365711D01*
X157520109Y-89340506D01*
X157569433Y-89314143D01*
X157600471Y-89304727D01*
X157635576Y-89289098D01*
X157690430Y-89277438D01*
X157738340Y-89262905D01*
X157776476Y-89259148D01*
X157819820Y-89249936D01*
X157870016Y-89249936D01*
X157914000Y-89245604D01*
X157957983Y-89249936D01*
G37*
G36*
X139563979Y-89277493D02*
G01*
X139600906Y-89279366D01*
X139601761Y-89279541D01*
X139610009Y-89279989D01*
X139695379Y-89298780D01*
X139772562Y-89314641D01*
X139777958Y-89316956D01*
X139789726Y-89319547D01*
X139863110Y-89353498D01*
X139930677Y-89382494D01*
X139940381Y-89389248D01*
X139956736Y-89396815D01*
X140016216Y-89442030D01*
X140071901Y-89480788D01*
X140084143Y-89493667D01*
X140103232Y-89508178D01*
X140147695Y-89560524D01*
X140190437Y-89605489D01*
X140202975Y-89625605D01*
X140222363Y-89648430D01*
X140251738Y-89703837D01*
X140281453Y-89751510D01*
X140291742Y-89779293D01*
X140308559Y-89811012D01*
X140323739Y-89865686D01*
X140341208Y-89912854D01*
X140346591Y-89947992D01*
X140357789Y-89988324D01*
X140360538Y-90039035D01*
X140367263Y-90082929D01*
X140365163Y-90124329D01*
X140367752Y-90172072D01*
X140360497Y-90216319D01*
X140358548Y-90254768D01*
X140346680Y-90300605D01*
X140337981Y-90353667D01*
X140323589Y-90389787D01*
X140315422Y-90421332D01*
X140291978Y-90469124D01*
X140269869Y-90524616D01*
X140251389Y-90551870D01*
X140239648Y-90575808D01*
X140203475Y-90622539D01*
X140166600Y-90676926D01*
X140147020Y-90695472D01*
X140134331Y-90711866D01*
X140085067Y-90754157D01*
X140033003Y-90803475D01*
X140015003Y-90814305D01*
X140003780Y-90823940D01*
X139941987Y-90858237D01*
X139875326Y-90898347D01*
X139861071Y-90903149D01*
X139853344Y-90907439D01*
X139780639Y-90930250D01*
X139700940Y-90957104D01*
X139691927Y-90958084D01*
X139689174Y-90958948D01*
X139609295Y-90967070D01*
X139518000Y-90977000D01*
X139511657Y-90977000D01*
X138721177Y-90977000D01*
X138718000Y-90977000D01*
X138671865Y-90974498D01*
X138635093Y-90972633D01*
X138634243Y-90972458D01*
X138625991Y-90972011D01*
X138540566Y-90953207D01*
X138463437Y-90937358D01*
X138458044Y-90935043D01*
X138446274Y-90932453D01*
X138372872Y-90898493D01*
X138305322Y-90869505D01*
X138295619Y-90862752D01*
X138279264Y-90855185D01*
X138219778Y-90809965D01*
X138164098Y-90771211D01*
X138151855Y-90758332D01*
X138132768Y-90743822D01*
X138088304Y-90691475D01*
X138045562Y-90646510D01*
X138033022Y-90626392D01*
X138013637Y-90603570D01*
X137984263Y-90548166D01*
X137954546Y-90500489D01*
X137944255Y-90472702D01*
X137927441Y-90440988D01*
X137912262Y-90386320D01*
X137894791Y-90339145D01*
X137889406Y-90304000D01*
X137878211Y-90263676D01*
X137875461Y-90212973D01*
X137868736Y-90169070D01*
X137870836Y-90127660D01*
X137868248Y-90079928D01*
X137875500Y-90035689D01*
X137877451Y-89997231D01*
X137889322Y-89951381D01*
X137898019Y-89898333D01*
X137912407Y-89862221D01*
X137920577Y-89830667D01*
X137944027Y-89782859D01*
X137966131Y-89727384D01*
X137984604Y-89700137D01*
X137996351Y-89676191D01*
X138032537Y-89629442D01*
X138069400Y-89575074D01*
X138088972Y-89556533D01*
X138101668Y-89540133D01*
X138150953Y-89497823D01*
X138202997Y-89448525D01*
X138220989Y-89437699D01*
X138232219Y-89428059D01*
X138294045Y-89393742D01*
X138360674Y-89353653D01*
X138374921Y-89348852D01*
X138382655Y-89344560D01*
X138455417Y-89321730D01*
X138535060Y-89294896D01*
X138544066Y-89293916D01*
X138546825Y-89293051D01*
X138626790Y-89284919D01*
X138718000Y-89275000D01*
X139518000Y-89275000D01*
X139563979Y-89277493D01*
G37*
G36*
X154803979Y-89277493D02*
G01*
X154840906Y-89279366D01*
X154841761Y-89279541D01*
X154850009Y-89279989D01*
X154935379Y-89298780D01*
X155012562Y-89314641D01*
X155017958Y-89316956D01*
X155029726Y-89319547D01*
X155103110Y-89353498D01*
X155170677Y-89382494D01*
X155180381Y-89389248D01*
X155196736Y-89396815D01*
X155256216Y-89442030D01*
X155311901Y-89480788D01*
X155324143Y-89493667D01*
X155343232Y-89508178D01*
X155387695Y-89560524D01*
X155430437Y-89605489D01*
X155442975Y-89625605D01*
X155462363Y-89648430D01*
X155491738Y-89703837D01*
X155521453Y-89751510D01*
X155531742Y-89779293D01*
X155548559Y-89811012D01*
X155563739Y-89865686D01*
X155581208Y-89912854D01*
X155586591Y-89947992D01*
X155597789Y-89988324D01*
X155600538Y-90039035D01*
X155607263Y-90082929D01*
X155605163Y-90124329D01*
X155607752Y-90172072D01*
X155600497Y-90216319D01*
X155598548Y-90254768D01*
X155586680Y-90300605D01*
X155577981Y-90353667D01*
X155563589Y-90389787D01*
X155555422Y-90421332D01*
X155531978Y-90469124D01*
X155509869Y-90524616D01*
X155491389Y-90551870D01*
X155479648Y-90575808D01*
X155443475Y-90622539D01*
X155406600Y-90676926D01*
X155387020Y-90695472D01*
X155374331Y-90711866D01*
X155325067Y-90754157D01*
X155273003Y-90803475D01*
X155255003Y-90814305D01*
X155243780Y-90823940D01*
X155181987Y-90858237D01*
X155115326Y-90898347D01*
X155101071Y-90903149D01*
X155093344Y-90907439D01*
X155020639Y-90930250D01*
X154940940Y-90957104D01*
X154931927Y-90958084D01*
X154929174Y-90958948D01*
X154849295Y-90967070D01*
X154758000Y-90977000D01*
X154751657Y-90977000D01*
X153961177Y-90977000D01*
X153958000Y-90977000D01*
X153911865Y-90974498D01*
X153875093Y-90972633D01*
X153874243Y-90972458D01*
X153865991Y-90972011D01*
X153780566Y-90953207D01*
X153703437Y-90937358D01*
X153698044Y-90935043D01*
X153686274Y-90932453D01*
X153612872Y-90898493D01*
X153545322Y-90869505D01*
X153535619Y-90862752D01*
X153519264Y-90855185D01*
X153459778Y-90809965D01*
X153404098Y-90771211D01*
X153391855Y-90758332D01*
X153372768Y-90743822D01*
X153328304Y-90691475D01*
X153285562Y-90646510D01*
X153273022Y-90626392D01*
X153253637Y-90603570D01*
X153224263Y-90548166D01*
X153194546Y-90500489D01*
X153184255Y-90472702D01*
X153167441Y-90440988D01*
X153152262Y-90386320D01*
X153134791Y-90339145D01*
X153129406Y-90304000D01*
X153118211Y-90263676D01*
X153115461Y-90212973D01*
X153108736Y-90169070D01*
X153110836Y-90127660D01*
X153108248Y-90079928D01*
X153115500Y-90035689D01*
X153117451Y-89997231D01*
X153129322Y-89951381D01*
X153138019Y-89898333D01*
X153152407Y-89862221D01*
X153160577Y-89830667D01*
X153184027Y-89782859D01*
X153206131Y-89727384D01*
X153224604Y-89700137D01*
X153236351Y-89676191D01*
X153272537Y-89629442D01*
X153309400Y-89575074D01*
X153328972Y-89556533D01*
X153341668Y-89540133D01*
X153390953Y-89497823D01*
X153442997Y-89448525D01*
X153460989Y-89437699D01*
X153472219Y-89428059D01*
X153534045Y-89393742D01*
X153600674Y-89353653D01*
X153614921Y-89348852D01*
X153622655Y-89344560D01*
X153695417Y-89321730D01*
X153775060Y-89294896D01*
X153784066Y-89293916D01*
X153786825Y-89293051D01*
X153866790Y-89284919D01*
X153958000Y-89275000D01*
X154758000Y-89275000D01*
X154803979Y-89277493D01*
G37*
G36*
X143543517Y-86708882D02*
G01*
X143560062Y-86719938D01*
X143571118Y-86736483D01*
X143575000Y-86756000D01*
X143575000Y-88456000D01*
X143571118Y-88475517D01*
X143560062Y-88492062D01*
X143543517Y-88503118D01*
X143524000Y-88507000D01*
X141824000Y-88507000D01*
X141804483Y-88503118D01*
X141787938Y-88492062D01*
X141776882Y-88475517D01*
X141773000Y-88456000D01*
X141773000Y-86756000D01*
X141776882Y-86736483D01*
X141787938Y-86719938D01*
X141804483Y-86708882D01*
X141824000Y-86705000D01*
X143524000Y-86705000D01*
X143543517Y-86708882D01*
G37*
G36*
X158783517Y-86708882D02*
G01*
X158800062Y-86719938D01*
X158811118Y-86736483D01*
X158815000Y-86756000D01*
X158815000Y-88456000D01*
X158811118Y-88475517D01*
X158800062Y-88492062D01*
X158783517Y-88503118D01*
X158764000Y-88507000D01*
X157064000Y-88507000D01*
X157044483Y-88503118D01*
X157027938Y-88492062D01*
X157016882Y-88475517D01*
X157013000Y-88456000D01*
X157013000Y-86756000D01*
X157016882Y-86736483D01*
X157027938Y-86719938D01*
X157044483Y-86708882D01*
X157064000Y-86705000D01*
X158764000Y-86705000D01*
X158783517Y-86708882D01*
G37*
G36*
X139563979Y-86737493D02*
G01*
X139600906Y-86739366D01*
X139601761Y-86739541D01*
X139610009Y-86739989D01*
X139695379Y-86758780D01*
X139772562Y-86774641D01*
X139777958Y-86776956D01*
X139789726Y-86779547D01*
X139863110Y-86813498D01*
X139930677Y-86842494D01*
X139940381Y-86849248D01*
X139956736Y-86856815D01*
X140016216Y-86902030D01*
X140071901Y-86940788D01*
X140084143Y-86953667D01*
X140103232Y-86968178D01*
X140147695Y-87020524D01*
X140190437Y-87065489D01*
X140202975Y-87085605D01*
X140222363Y-87108430D01*
X140251738Y-87163837D01*
X140281453Y-87211510D01*
X140291742Y-87239293D01*
X140308559Y-87271012D01*
X140323739Y-87325686D01*
X140341208Y-87372854D01*
X140346591Y-87407992D01*
X140357789Y-87448324D01*
X140360538Y-87499035D01*
X140367263Y-87542929D01*
X140365163Y-87584329D01*
X140367752Y-87632072D01*
X140360497Y-87676319D01*
X140358548Y-87714768D01*
X140346680Y-87760605D01*
X140337981Y-87813667D01*
X140323589Y-87849787D01*
X140315422Y-87881332D01*
X140291978Y-87929124D01*
X140269869Y-87984616D01*
X140251389Y-88011870D01*
X140239648Y-88035808D01*
X140203475Y-88082539D01*
X140166600Y-88136926D01*
X140147020Y-88155472D01*
X140134331Y-88171866D01*
X140085067Y-88214157D01*
X140033003Y-88263475D01*
X140015003Y-88274305D01*
X140003780Y-88283940D01*
X139941987Y-88318237D01*
X139875326Y-88358347D01*
X139861071Y-88363149D01*
X139853344Y-88367439D01*
X139780639Y-88390250D01*
X139700940Y-88417104D01*
X139691927Y-88418084D01*
X139689174Y-88418948D01*
X139609295Y-88427070D01*
X139518000Y-88437000D01*
X139511657Y-88437000D01*
X138721177Y-88437000D01*
X138718000Y-88437000D01*
X138671865Y-88434498D01*
X138635093Y-88432633D01*
X138634243Y-88432458D01*
X138625991Y-88432011D01*
X138540566Y-88413207D01*
X138463437Y-88397358D01*
X138458044Y-88395043D01*
X138446274Y-88392453D01*
X138372872Y-88358493D01*
X138305322Y-88329505D01*
X138295619Y-88322752D01*
X138279264Y-88315185D01*
X138219778Y-88269965D01*
X138164098Y-88231211D01*
X138151855Y-88218332D01*
X138132768Y-88203822D01*
X138088304Y-88151475D01*
X138045562Y-88106510D01*
X138033022Y-88086392D01*
X138013637Y-88063570D01*
X137984263Y-88008166D01*
X137954546Y-87960489D01*
X137944255Y-87932702D01*
X137927441Y-87900988D01*
X137912262Y-87846320D01*
X137894791Y-87799145D01*
X137889406Y-87764000D01*
X137878211Y-87723676D01*
X137875461Y-87672973D01*
X137868736Y-87629070D01*
X137870836Y-87587660D01*
X137868248Y-87539928D01*
X137875500Y-87495689D01*
X137877451Y-87457231D01*
X137889322Y-87411381D01*
X137898019Y-87358333D01*
X137912407Y-87322221D01*
X137920577Y-87290667D01*
X137944027Y-87242859D01*
X137966131Y-87187384D01*
X137984604Y-87160137D01*
X137996351Y-87136191D01*
X138032537Y-87089442D01*
X138069400Y-87035074D01*
X138088972Y-87016533D01*
X138101668Y-87000133D01*
X138150953Y-86957823D01*
X138202997Y-86908525D01*
X138220989Y-86897699D01*
X138232219Y-86888059D01*
X138294045Y-86853742D01*
X138360674Y-86813653D01*
X138374921Y-86808852D01*
X138382655Y-86804560D01*
X138455417Y-86781730D01*
X138535060Y-86754896D01*
X138544066Y-86753916D01*
X138546825Y-86753051D01*
X138626790Y-86744919D01*
X138718000Y-86735000D01*
X139518000Y-86735000D01*
X139563979Y-86737493D01*
G37*
G36*
X154803979Y-86737493D02*
G01*
X154840906Y-86739366D01*
X154841761Y-86739541D01*
X154850009Y-86739989D01*
X154935379Y-86758780D01*
X155012562Y-86774641D01*
X155017958Y-86776956D01*
X155029726Y-86779547D01*
X155103110Y-86813498D01*
X155170677Y-86842494D01*
X155180381Y-86849248D01*
X155196736Y-86856815D01*
X155256216Y-86902030D01*
X155311901Y-86940788D01*
X155324143Y-86953667D01*
X155343232Y-86968178D01*
X155387695Y-87020524D01*
X155430437Y-87065489D01*
X155442975Y-87085605D01*
X155462363Y-87108430D01*
X155491738Y-87163837D01*
X155521453Y-87211510D01*
X155531742Y-87239293D01*
X155548559Y-87271012D01*
X155563739Y-87325686D01*
X155581208Y-87372854D01*
X155586591Y-87407992D01*
X155597789Y-87448324D01*
X155600538Y-87499035D01*
X155607263Y-87542929D01*
X155605163Y-87584329D01*
X155607752Y-87632072D01*
X155600497Y-87676319D01*
X155598548Y-87714768D01*
X155586680Y-87760605D01*
X155577981Y-87813667D01*
X155563589Y-87849787D01*
X155555422Y-87881332D01*
X155531978Y-87929124D01*
X155509869Y-87984616D01*
X155491389Y-88011870D01*
X155479648Y-88035808D01*
X155443475Y-88082539D01*
X155406600Y-88136926D01*
X155387020Y-88155472D01*
X155374331Y-88171866D01*
X155325067Y-88214157D01*
X155273003Y-88263475D01*
X155255003Y-88274305D01*
X155243780Y-88283940D01*
X155181987Y-88318237D01*
X155115326Y-88358347D01*
X155101071Y-88363149D01*
X155093344Y-88367439D01*
X155020639Y-88390250D01*
X154940940Y-88417104D01*
X154931927Y-88418084D01*
X154929174Y-88418948D01*
X154849295Y-88427070D01*
X154758000Y-88437000D01*
X154751657Y-88437000D01*
X153961177Y-88437000D01*
X153958000Y-88437000D01*
X153911865Y-88434498D01*
X153875093Y-88432633D01*
X153874243Y-88432458D01*
X153865991Y-88432011D01*
X153780566Y-88413207D01*
X153703437Y-88397358D01*
X153698044Y-88395043D01*
X153686274Y-88392453D01*
X153612872Y-88358493D01*
X153545322Y-88329505D01*
X153535619Y-88322752D01*
X153519264Y-88315185D01*
X153459778Y-88269965D01*
X153404098Y-88231211D01*
X153391855Y-88218332D01*
X153372768Y-88203822D01*
X153328304Y-88151475D01*
X153285562Y-88106510D01*
X153273022Y-88086392D01*
X153253637Y-88063570D01*
X153224263Y-88008166D01*
X153194546Y-87960489D01*
X153184255Y-87932702D01*
X153167441Y-87900988D01*
X153152262Y-87846320D01*
X153134791Y-87799145D01*
X153129406Y-87764000D01*
X153118211Y-87723676D01*
X153115461Y-87672973D01*
X153108736Y-87629070D01*
X153110836Y-87587660D01*
X153108248Y-87539928D01*
X153115500Y-87495689D01*
X153117451Y-87457231D01*
X153129322Y-87411381D01*
X153138019Y-87358333D01*
X153152407Y-87322221D01*
X153160577Y-87290667D01*
X153184027Y-87242859D01*
X153206131Y-87187384D01*
X153224604Y-87160137D01*
X153236351Y-87136191D01*
X153272537Y-87089442D01*
X153309400Y-87035074D01*
X153328972Y-87016533D01*
X153341668Y-87000133D01*
X153390953Y-86957823D01*
X153442997Y-86908525D01*
X153460989Y-86897699D01*
X153472219Y-86888059D01*
X153534045Y-86853742D01*
X153600674Y-86813653D01*
X153614921Y-86808852D01*
X153622655Y-86804560D01*
X153695417Y-86781730D01*
X153775060Y-86754896D01*
X153784066Y-86753916D01*
X153786825Y-86753051D01*
X153866790Y-86744919D01*
X153958000Y-86735000D01*
X154758000Y-86735000D01*
X154803979Y-86737493D01*
G37*
G36*
X139563979Y-84197493D02*
G01*
X139600906Y-84199366D01*
X139601761Y-84199541D01*
X139610009Y-84199989D01*
X139695379Y-84218780D01*
X139772562Y-84234641D01*
X139777958Y-84236956D01*
X139789726Y-84239547D01*
X139863110Y-84273498D01*
X139930677Y-84302494D01*
X139940381Y-84309248D01*
X139956736Y-84316815D01*
X140016216Y-84362030D01*
X140071901Y-84400788D01*
X140084143Y-84413667D01*
X140103232Y-84428178D01*
X140147695Y-84480524D01*
X140190437Y-84525489D01*
X140202975Y-84545605D01*
X140222363Y-84568430D01*
X140251738Y-84623837D01*
X140281453Y-84671510D01*
X140291742Y-84699293D01*
X140308559Y-84731012D01*
X140323739Y-84785686D01*
X140341208Y-84832854D01*
X140346591Y-84867992D01*
X140357789Y-84908324D01*
X140360538Y-84959035D01*
X140367263Y-85002929D01*
X140365163Y-85044329D01*
X140367752Y-85092072D01*
X140360497Y-85136319D01*
X140358548Y-85174768D01*
X140346680Y-85220605D01*
X140337981Y-85273667D01*
X140323589Y-85309787D01*
X140315422Y-85341332D01*
X140291978Y-85389124D01*
X140269869Y-85444616D01*
X140251389Y-85471870D01*
X140239648Y-85495808D01*
X140203475Y-85542539D01*
X140166600Y-85596926D01*
X140147020Y-85615472D01*
X140134331Y-85631866D01*
X140085067Y-85674157D01*
X140033003Y-85723475D01*
X140015003Y-85734305D01*
X140003780Y-85743940D01*
X139941987Y-85778237D01*
X139875326Y-85818347D01*
X139861071Y-85823149D01*
X139853344Y-85827439D01*
X139780639Y-85850250D01*
X139700940Y-85877104D01*
X139691927Y-85878084D01*
X139689174Y-85878948D01*
X139609295Y-85887070D01*
X139518000Y-85897000D01*
X139511657Y-85897000D01*
X138721177Y-85897000D01*
X138718000Y-85897000D01*
X138671865Y-85894498D01*
X138635093Y-85892633D01*
X138634243Y-85892458D01*
X138625991Y-85892011D01*
X138540566Y-85873207D01*
X138463437Y-85857358D01*
X138458044Y-85855043D01*
X138446274Y-85852453D01*
X138372872Y-85818493D01*
X138305322Y-85789505D01*
X138295619Y-85782752D01*
X138279264Y-85775185D01*
X138219778Y-85729965D01*
X138164098Y-85691211D01*
X138151855Y-85678332D01*
X138132768Y-85663822D01*
X138088304Y-85611475D01*
X138045562Y-85566510D01*
X138033022Y-85546392D01*
X138013637Y-85523570D01*
X137984263Y-85468166D01*
X137954546Y-85420489D01*
X137944255Y-85392702D01*
X137927441Y-85360988D01*
X137912262Y-85306320D01*
X137894791Y-85259145D01*
X137889406Y-85224000D01*
X137878211Y-85183676D01*
X137875461Y-85132973D01*
X137868736Y-85089070D01*
X137870836Y-85047660D01*
X137868248Y-84999928D01*
X137875500Y-84955689D01*
X137877451Y-84917231D01*
X137889322Y-84871381D01*
X137898019Y-84818333D01*
X137912407Y-84782221D01*
X137920577Y-84750667D01*
X137944027Y-84702859D01*
X137966131Y-84647384D01*
X137984604Y-84620137D01*
X137996351Y-84596191D01*
X138032537Y-84549442D01*
X138069400Y-84495074D01*
X138088972Y-84476533D01*
X138101668Y-84460133D01*
X138150953Y-84417823D01*
X138202997Y-84368525D01*
X138220989Y-84357699D01*
X138232219Y-84348059D01*
X138294045Y-84313742D01*
X138360674Y-84273653D01*
X138374921Y-84268852D01*
X138382655Y-84264560D01*
X138455417Y-84241730D01*
X138535060Y-84214896D01*
X138544066Y-84213916D01*
X138546825Y-84213051D01*
X138626790Y-84204919D01*
X138718000Y-84195000D01*
X139518000Y-84195000D01*
X139563979Y-84197493D01*
G37*
G36*
X154803979Y-84197493D02*
G01*
X154840906Y-84199366D01*
X154841761Y-84199541D01*
X154850009Y-84199989D01*
X154935379Y-84218780D01*
X155012562Y-84234641D01*
X155017958Y-84236956D01*
X155029726Y-84239547D01*
X155103110Y-84273498D01*
X155170677Y-84302494D01*
X155180381Y-84309248D01*
X155196736Y-84316815D01*
X155256216Y-84362030D01*
X155311901Y-84400788D01*
X155324143Y-84413667D01*
X155343232Y-84428178D01*
X155387695Y-84480524D01*
X155430437Y-84525489D01*
X155442975Y-84545605D01*
X155462363Y-84568430D01*
X155491738Y-84623837D01*
X155521453Y-84671510D01*
X155531742Y-84699293D01*
X155548559Y-84731012D01*
X155563739Y-84785686D01*
X155581208Y-84832854D01*
X155586591Y-84867992D01*
X155597789Y-84908324D01*
X155600538Y-84959035D01*
X155607263Y-85002929D01*
X155605163Y-85044329D01*
X155607752Y-85092072D01*
X155600497Y-85136319D01*
X155598548Y-85174768D01*
X155586680Y-85220605D01*
X155577981Y-85273667D01*
X155563589Y-85309787D01*
X155555422Y-85341332D01*
X155531978Y-85389124D01*
X155509869Y-85444616D01*
X155491389Y-85471870D01*
X155479648Y-85495808D01*
X155443475Y-85542539D01*
X155406600Y-85596926D01*
X155387020Y-85615472D01*
X155374331Y-85631866D01*
X155325067Y-85674157D01*
X155273003Y-85723475D01*
X155255003Y-85734305D01*
X155243780Y-85743940D01*
X155181987Y-85778237D01*
X155115326Y-85818347D01*
X155101071Y-85823149D01*
X155093344Y-85827439D01*
X155020639Y-85850250D01*
X154940940Y-85877104D01*
X154931927Y-85878084D01*
X154929174Y-85878948D01*
X154849295Y-85887070D01*
X154758000Y-85897000D01*
X154751657Y-85897000D01*
X153961177Y-85897000D01*
X153958000Y-85897000D01*
X153911865Y-85894498D01*
X153875093Y-85892633D01*
X153874243Y-85892458D01*
X153865991Y-85892011D01*
X153780566Y-85873207D01*
X153703437Y-85857358D01*
X153698044Y-85855043D01*
X153686274Y-85852453D01*
X153612872Y-85818493D01*
X153545322Y-85789505D01*
X153535619Y-85782752D01*
X153519264Y-85775185D01*
X153459778Y-85729965D01*
X153404098Y-85691211D01*
X153391855Y-85678332D01*
X153372768Y-85663822D01*
X153328304Y-85611475D01*
X153285562Y-85566510D01*
X153273022Y-85546392D01*
X153253637Y-85523570D01*
X153224263Y-85468166D01*
X153194546Y-85420489D01*
X153184255Y-85392702D01*
X153167441Y-85360988D01*
X153152262Y-85306320D01*
X153134791Y-85259145D01*
X153129406Y-85224000D01*
X153118211Y-85183676D01*
X153115461Y-85132973D01*
X153108736Y-85089070D01*
X153110836Y-85047660D01*
X153108248Y-84999928D01*
X153115500Y-84955689D01*
X153117451Y-84917231D01*
X153129322Y-84871381D01*
X153138019Y-84818333D01*
X153152407Y-84782221D01*
X153160577Y-84750667D01*
X153184027Y-84702859D01*
X153206131Y-84647384D01*
X153224604Y-84620137D01*
X153236351Y-84596191D01*
X153272537Y-84549442D01*
X153309400Y-84495074D01*
X153328972Y-84476533D01*
X153341668Y-84460133D01*
X153390953Y-84417823D01*
X153442997Y-84368525D01*
X153460989Y-84357699D01*
X153472219Y-84348059D01*
X153534045Y-84313742D01*
X153600674Y-84273653D01*
X153614921Y-84268852D01*
X153622655Y-84264560D01*
X153695417Y-84241730D01*
X153775060Y-84214896D01*
X153784066Y-84213916D01*
X153786825Y-84213051D01*
X153866790Y-84204919D01*
X153958000Y-84195000D01*
X154758000Y-84195000D01*
X154803979Y-84197493D01*
G37*
G36*
X140337517Y-81658882D02*
G01*
X140354062Y-81669938D01*
X140365118Y-81686483D01*
X140369000Y-81706000D01*
X140369000Y-83306000D01*
X140365118Y-83325517D01*
X140354062Y-83342062D01*
X140337517Y-83353118D01*
X140318000Y-83357000D01*
X137918000Y-83357000D01*
X137898483Y-83353118D01*
X137881938Y-83342062D01*
X137870882Y-83325517D01*
X137867000Y-83306000D01*
X137867000Y-81706000D01*
X137870882Y-81686483D01*
X137881938Y-81669938D01*
X137898483Y-81658882D01*
X137918000Y-81655000D01*
X140318000Y-81655000D01*
X140337517Y-81658882D01*
G37*
G36*
X154803979Y-81657493D02*
G01*
X154840906Y-81659366D01*
X154841761Y-81659541D01*
X154850009Y-81659989D01*
X154935379Y-81678780D01*
X155012562Y-81694641D01*
X155017958Y-81696956D01*
X155029726Y-81699547D01*
X155103110Y-81733498D01*
X155170677Y-81762494D01*
X155180381Y-81769248D01*
X155196736Y-81776815D01*
X155256216Y-81822030D01*
X155311901Y-81860788D01*
X155324143Y-81873667D01*
X155343232Y-81888178D01*
X155387695Y-81940524D01*
X155430437Y-81985489D01*
X155442975Y-82005605D01*
X155462363Y-82028430D01*
X155491738Y-82083837D01*
X155521453Y-82131510D01*
X155531742Y-82159293D01*
X155548559Y-82191012D01*
X155563739Y-82245686D01*
X155581208Y-82292854D01*
X155586591Y-82327992D01*
X155597789Y-82368324D01*
X155600538Y-82419035D01*
X155607263Y-82462929D01*
X155605163Y-82504329D01*
X155607752Y-82552072D01*
X155600497Y-82596319D01*
X155598548Y-82634768D01*
X155586680Y-82680605D01*
X155577981Y-82733667D01*
X155563589Y-82769787D01*
X155555422Y-82801332D01*
X155531978Y-82849124D01*
X155509869Y-82904616D01*
X155491389Y-82931870D01*
X155479648Y-82955808D01*
X155443475Y-83002539D01*
X155406600Y-83056926D01*
X155387020Y-83075472D01*
X155374331Y-83091866D01*
X155325067Y-83134157D01*
X155273003Y-83183475D01*
X155255003Y-83194305D01*
X155243780Y-83203940D01*
X155181987Y-83238237D01*
X155115326Y-83278347D01*
X155101071Y-83283149D01*
X155093344Y-83287439D01*
X155020639Y-83310250D01*
X154940940Y-83337104D01*
X154931927Y-83338084D01*
X154929174Y-83338948D01*
X154849295Y-83347070D01*
X154758000Y-83357000D01*
X154751657Y-83357000D01*
X153961177Y-83357000D01*
X153958000Y-83357000D01*
X153911865Y-83354498D01*
X153875093Y-83352633D01*
X153874243Y-83352458D01*
X153865991Y-83352011D01*
X153780566Y-83333207D01*
X153703437Y-83317358D01*
X153698044Y-83315043D01*
X153686274Y-83312453D01*
X153612872Y-83278493D01*
X153545322Y-83249505D01*
X153535619Y-83242752D01*
X153519264Y-83235185D01*
X153459778Y-83189965D01*
X153404098Y-83151211D01*
X153391855Y-83138332D01*
X153372768Y-83123822D01*
X153328304Y-83071475D01*
X153285562Y-83026510D01*
X153273022Y-83006392D01*
X153253637Y-82983570D01*
X153224263Y-82928166D01*
X153194546Y-82880489D01*
X153184255Y-82852702D01*
X153167441Y-82820988D01*
X153152262Y-82766320D01*
X153134791Y-82719145D01*
X153129406Y-82684000D01*
X153118211Y-82643676D01*
X153115461Y-82592973D01*
X153108736Y-82549070D01*
X153110836Y-82507660D01*
X153108248Y-82459928D01*
X153115500Y-82415689D01*
X153117451Y-82377231D01*
X153129322Y-82331381D01*
X153138019Y-82278333D01*
X153152407Y-82242221D01*
X153160577Y-82210667D01*
X153184027Y-82162859D01*
X153206131Y-82107384D01*
X153224604Y-82080137D01*
X153236351Y-82056191D01*
X153272537Y-82009442D01*
X153309400Y-81955074D01*
X153328972Y-81936533D01*
X153341668Y-81920133D01*
X153390953Y-81877823D01*
X153442997Y-81828525D01*
X153460989Y-81817699D01*
X153472219Y-81808059D01*
X153534045Y-81773742D01*
X153600674Y-81733653D01*
X153614921Y-81728852D01*
X153622655Y-81724560D01*
X153695417Y-81701730D01*
X153775060Y-81674896D01*
X153784066Y-81673916D01*
X153786825Y-81673051D01*
X153866790Y-81664919D01*
X153958000Y-81655000D01*
X154758000Y-81655000D01*
X154803979Y-81657493D01*
G37*
M02*
