%TF.GenerationSoftware,KiCad,Pcbnew,7.0.9*%
%TF.CreationDate,2023-12-21T11:34:42+00:00*%
%TF.ProjectId,flash-rom-expansion,666c6173-682d-4726-9f6d-2d657870616e,0*%
%TF.SameCoordinates,Original*%
%TF.FileFunction,Copper,L2,Bot*%
%TF.FilePolarity,Positive*%
%FSLAX46Y46*%
G04 Gerber Fmt 4.6, Leading zero omitted, Abs format (unit mm)*
G04 Created by KiCad (PCBNEW 7.0.9) date 2023-12-21 11:34:42*
%MOMM*%
%LPD*%
G01*
G04 APERTURE LIST*
G04 Aperture macros list*
%AMRoundRect*
0 Rectangle with rounded corners*
0 $1 Rounding radius*
0 $2 $3 $4 $5 $6 $7 $8 $9 X,Y pos of 4 corners*
0 Add a 4 corners polygon primitive as box body*
4,1,4,$2,$3,$4,$5,$6,$7,$8,$9,$2,$3,0*
0 Add four circle primitives for the rounded corners*
1,1,$1+$1,$2,$3*
1,1,$1+$1,$4,$5*
1,1,$1+$1,$6,$7*
1,1,$1+$1,$8,$9*
0 Add four rect primitives between the rounded corners*
20,1,$1+$1,$2,$3,$4,$5,0*
20,1,$1+$1,$4,$5,$6,$7,0*
20,1,$1+$1,$6,$7,$8,$9,0*
20,1,$1+$1,$8,$9,$2,$3,0*%
%AMFreePoly0*
4,1,19,0.500000,-0.750000,0.000000,-0.750000,0.000000,-0.744911,-0.071157,-0.744911,-0.207708,-0.704816,-0.327430,-0.627875,-0.420627,-0.520320,-0.479746,-0.390866,-0.500000,-0.250000,-0.500000,0.250000,-0.479746,0.390866,-0.420627,0.520320,-0.327430,0.627875,-0.207708,0.704816,-0.071157,0.744911,0.000000,0.744911,0.000000,0.750000,0.500000,0.750000,0.500000,-0.750000,0.500000,-0.750000,
$1*%
%AMFreePoly1*
4,1,19,0.000000,0.744911,0.071157,0.744911,0.207708,0.704816,0.327430,0.627875,0.420627,0.520320,0.479746,0.390866,0.500000,0.250000,0.500000,-0.250000,0.479746,-0.390866,0.420627,-0.520320,0.327430,-0.627875,0.207708,-0.704816,0.071157,-0.744911,0.000000,-0.744911,0.000000,-0.750000,-0.500000,-0.750000,-0.500000,0.750000,0.000000,0.750000,0.000000,0.744911,0.000000,0.744911,
$1*%
G04 Aperture macros list end*
%TA.AperFunction,ComponentPad*%
%ADD10R,2.400000X1.600000*%
%TD*%
%TA.AperFunction,ComponentPad*%
%ADD11O,2.400000X1.600000*%
%TD*%
%TA.AperFunction,ComponentPad*%
%ADD12R,1.700000X1.700000*%
%TD*%
%TA.AperFunction,ComponentPad*%
%ADD13O,1.700000X1.700000*%
%TD*%
%TA.AperFunction,SMDPad,CuDef*%
%ADD14FreePoly0,180.000000*%
%TD*%
%TA.AperFunction,SMDPad,CuDef*%
%ADD15FreePoly1,180.000000*%
%TD*%
%TA.AperFunction,SMDPad,CuDef*%
%ADD16RoundRect,0.250000X0.262500X0.450000X-0.262500X0.450000X-0.262500X-0.450000X0.262500X-0.450000X0*%
%TD*%
%TA.AperFunction,ViaPad*%
%ADD17C,0.800000*%
%TD*%
%TA.AperFunction,Conductor*%
%ADD18C,0.750000*%
%TD*%
%TA.AperFunction,Conductor*%
%ADD19C,0.500000*%
%TD*%
%TA.AperFunction,Conductor*%
%ADD20C,0.400000*%
%TD*%
G04 APERTURE END LIST*
D10*
%TO.P,U2,1,A18*%
%TO.N,A18*%
X139118000Y-82506000D03*
D11*
%TO.P,U2,2,A16*%
%TO.N,A16*%
X139118000Y-85046000D03*
%TO.P,U2,3,A15*%
%TO.N,A15*%
X139118000Y-87586000D03*
%TO.P,U2,4,A12*%
%TO.N,A12*%
X139118000Y-90126000D03*
%TO.P,U2,5,A7*%
%TO.N,A7*%
X139118000Y-92666000D03*
%TO.P,U2,6,A6*%
%TO.N,A6*%
X139118000Y-95206000D03*
%TO.P,U2,7,A5*%
%TO.N,A5*%
X139118000Y-97746000D03*
%TO.P,U2,8,A4*%
%TO.N,A4*%
X139118000Y-100286000D03*
%TO.P,U2,9,A3*%
%TO.N,A3*%
X139118000Y-102826000D03*
%TO.P,U2,10,A2*%
%TO.N,A2*%
X139118000Y-105366000D03*
%TO.P,U2,11,A1*%
%TO.N,A1*%
X139118000Y-107906000D03*
%TO.P,U2,12,A0*%
%TO.N,A0*%
X139118000Y-110446000D03*
%TO.P,U2,13,D0*%
%TO.N,D0*%
X139118000Y-112986000D03*
%TO.P,U2,14,D1*%
%TO.N,D1*%
X139118000Y-115526000D03*
%TO.P,U2,15,D2*%
%TO.N,D2*%
X139118000Y-118066000D03*
%TO.P,U2,16,GND*%
%TO.N,GND*%
X139118000Y-120606000D03*
%TO.P,U2,17,D3*%
%TO.N,D3*%
X154358000Y-120606000D03*
%TO.P,U2,18,D4*%
%TO.N,D4*%
X154358000Y-118066000D03*
%TO.P,U2,19,D5*%
%TO.N,D5*%
X154358000Y-115526000D03*
%TO.P,U2,20,D6*%
%TO.N,D6*%
X154358000Y-112986000D03*
%TO.P,U2,21,D7*%
%TO.N,D7*%
X154358000Y-110446000D03*
%TO.P,U2,22,CE*%
%TO.N,~{CE}*%
X154358000Y-107906000D03*
%TO.P,U2,23,A10*%
%TO.N,A10*%
X154358000Y-105366000D03*
%TO.P,U2,24,OE*%
%TO.N,~{OE}*%
X154358000Y-102826000D03*
%TO.P,U2,25,A11*%
%TO.N,A11*%
X154358000Y-100286000D03*
%TO.P,U2,26,A9*%
%TO.N,A9*%
X154358000Y-97746000D03*
%TO.P,U2,27,A8*%
%TO.N,A8*%
X154358000Y-95206000D03*
%TO.P,U2,28,A13*%
%TO.N,A13*%
X154358000Y-92666000D03*
%TO.P,U2,29,A14*%
%TO.N,A14*%
X154358000Y-90126000D03*
%TO.P,U2,30,A17*%
%TO.N,A17*%
X154358000Y-87586000D03*
%TO.P,U2,31,PGM*%
%TO.N,~{WE}*%
X154358000Y-85046000D03*
%TO.P,U2,32,VCC*%
%TO.N,VCC*%
X154358000Y-82506000D03*
%TD*%
D12*
%TO.P,J3,1,Pin_1*%
%TO.N,VCC*%
X157914000Y-87606000D03*
D13*
%TO.P,J3,2,Pin_2*%
%TO.N,~{WE}*%
X157914000Y-90146000D03*
%TO.P,J3,3,Pin_3*%
%TO.N,A13*%
X157914000Y-92686000D03*
%TO.P,J3,4,Pin_4*%
%TO.N,A8*%
X157914000Y-95226000D03*
%TO.P,J3,5,Pin_5*%
%TO.N,A9*%
X157914000Y-97766000D03*
%TO.P,J3,6,Pin_6*%
%TO.N,A11*%
X157914000Y-100306000D03*
%TO.P,J3,7,Pin_7*%
%TO.N,~{OE}*%
X157914000Y-102846000D03*
%TO.P,J3,8,Pin_8*%
%TO.N,A10*%
X157914000Y-105386000D03*
%TO.P,J3,9,Pin_9*%
%TO.N,~{CE}*%
X157914000Y-107926000D03*
%TO.P,J3,10,Pin_10*%
%TO.N,D7*%
X157914000Y-110466000D03*
%TO.P,J3,11,Pin_11*%
%TO.N,D6*%
X157914000Y-113006000D03*
%TO.P,J3,12,Pin_12*%
%TO.N,D5*%
X157914000Y-115546000D03*
%TO.P,J3,13,Pin_13*%
%TO.N,D4*%
X157914000Y-118086000D03*
%TO.P,J3,14,Pin_14*%
%TO.N,D3*%
X157914000Y-120626000D03*
%TD*%
D12*
%TO.P,J2,1,Pin_1*%
%TO.N,A14*%
X142674000Y-87606000D03*
D13*
%TO.P,J2,2,Pin_2*%
%TO.N,A12*%
X142674000Y-90146000D03*
%TO.P,J2,3,Pin_3*%
%TO.N,A7*%
X142674000Y-92686000D03*
%TO.P,J2,4,Pin_4*%
%TO.N,A6*%
X142674000Y-95226000D03*
%TO.P,J2,5,Pin_5*%
%TO.N,A5*%
X142674000Y-97766000D03*
%TO.P,J2,6,Pin_6*%
%TO.N,A4*%
X142674000Y-100306000D03*
%TO.P,J2,7,Pin_7*%
%TO.N,A3*%
X142674000Y-102846000D03*
%TO.P,J2,8,Pin_8*%
%TO.N,A2*%
X142674000Y-105386000D03*
%TO.P,J2,9,Pin_9*%
%TO.N,A1*%
X142674000Y-107926000D03*
%TO.P,J2,10,Pin_10*%
%TO.N,A0*%
X142674000Y-110466000D03*
%TO.P,J2,11,Pin_11*%
%TO.N,D0*%
X142674000Y-113006000D03*
%TO.P,J2,12,Pin_12*%
%TO.N,D1*%
X142674000Y-115546000D03*
%TO.P,J2,13,Pin_13*%
%TO.N,D2*%
X142674000Y-118086000D03*
%TO.P,J2,14,Pin_14*%
%TO.N,GND*%
X142674000Y-120626000D03*
%TD*%
D14*
%TO.P,JP2,1,A*%
%TO.N,A16*%
X151056000Y-89110000D03*
D15*
%TO.P,JP2,2,B*%
%TO.N,VCC*%
X149756000Y-89110000D03*
%TD*%
D14*
%TO.P,JP4,1,A*%
%TO.N,VCC*%
X151056000Y-84030000D03*
D15*
%TO.P,JP4,2,B*%
%TO.N,A18*%
X149756000Y-84030000D03*
%TD*%
D16*
%TO.P,R3,1*%
%TO.N,A17*%
X147650500Y-86570000D03*
%TO.P,R3,2*%
%TO.N,GND*%
X145825500Y-86570000D03*
%TD*%
D14*
%TO.P,JP1,1,A*%
%TO.N,A15*%
X151056000Y-91650000D03*
D15*
%TO.P,JP1,2,B*%
%TO.N,VCC*%
X149756000Y-91650000D03*
%TD*%
D16*
%TO.P,R4,1*%
%TO.N,GND*%
X147650500Y-84030000D03*
%TO.P,R4,2*%
%TO.N,A18*%
X145825500Y-84030000D03*
%TD*%
D14*
%TO.P,JP3,1,A*%
%TO.N,A17*%
X151056000Y-86570000D03*
D15*
%TO.P,JP3,2,B*%
%TO.N,VCC*%
X149756000Y-86570000D03*
%TD*%
D16*
%TO.P,R2,1*%
%TO.N,GND*%
X147650500Y-89110000D03*
%TO.P,R2,2*%
%TO.N,A16*%
X145825500Y-89110000D03*
%TD*%
%TO.P,R1,1*%
%TO.N,GND*%
X147650500Y-91650000D03*
%TO.P,R1,2*%
%TO.N,A15*%
X145825500Y-91650000D03*
%TD*%
D17*
%TO.N,A16*%
X152580000Y-89110000D03*
X144534688Y-88265312D03*
%TO.N,A17*%
X148906500Y-87616420D03*
%TO.N,A15*%
X152580000Y-91650000D03*
X144452000Y-91650000D03*
%TD*%
D18*
%TO.N,GND*%
X147650500Y-89110000D02*
X147650500Y-91650000D01*
X139118000Y-120606000D02*
X142654000Y-120606000D01*
X142674000Y-120626000D02*
X145956000Y-120626000D01*
X145956000Y-120626000D02*
X147650500Y-118931500D01*
X147650500Y-84683846D02*
X145825500Y-86508846D01*
X145825500Y-87223846D02*
X147650500Y-89048846D01*
X145825500Y-86570000D02*
X145825500Y-87223846D01*
X147650500Y-118931500D02*
X147650500Y-91650000D01*
X147650500Y-84030000D02*
X147650500Y-84683846D01*
D19*
%TO.N,A16*%
X145379376Y-89110000D02*
X144534688Y-88265312D01*
X145825500Y-89110000D02*
X145379376Y-89110000D01*
X151056000Y-89110000D02*
X152580000Y-89110000D01*
D20*
X145825500Y-88410000D02*
X145825500Y-89110000D01*
X142461500Y-85046000D02*
X145825500Y-88410000D01*
X139118000Y-85046000D02*
X142461500Y-85046000D01*
D19*
%TO.N,A17*%
X151056000Y-86570000D02*
X153342000Y-86570000D01*
X148696920Y-87616420D02*
X147650500Y-86570000D01*
X148906500Y-87616420D02*
X148696920Y-87616420D01*
X153342000Y-86570000D02*
X154358000Y-87586000D01*
D20*
%TO.N,A18*%
X145825500Y-84030000D02*
X146925500Y-82930000D01*
X148656000Y-82930000D02*
X149756000Y-84030000D01*
X140642000Y-84030000D02*
X139118000Y-82506000D01*
X145825500Y-84030000D02*
X140642000Y-84030000D01*
X146925500Y-82930000D02*
X148656000Y-82930000D01*
%TO.N,A15*%
X145825500Y-90757500D02*
X145825500Y-91650000D01*
D19*
X151056000Y-91650000D02*
X152580000Y-91650000D01*
D20*
X143964000Y-88896000D02*
X145825500Y-90757500D01*
D19*
X144452000Y-91650000D02*
X145825500Y-91650000D01*
D20*
X139118000Y-87586000D02*
X140428000Y-88896000D01*
X140428000Y-88896000D02*
X143964000Y-88896000D01*
D19*
%TO.N,VCC*%
X150276000Y-85300000D02*
X149756000Y-85820000D01*
X149756000Y-89110000D02*
X149756000Y-91650000D01*
X152580000Y-82506000D02*
X151056000Y-84030000D01*
X154358000Y-82506000D02*
X152580000Y-82506000D01*
X149756000Y-86570000D02*
X149756000Y-89110000D01*
X151056000Y-84030000D02*
X151056000Y-84780000D01*
X151056000Y-84780000D02*
X150536000Y-85300000D01*
X149756000Y-85820000D02*
X149756000Y-86570000D01*
X150536000Y-85300000D02*
X150276000Y-85300000D01*
%TD*%
%TA.AperFunction,Conductor*%
%TO.N,GND*%
G36*
X146775322Y-87495851D02*
G01*
X146819670Y-87524352D01*
X146914348Y-87619030D01*
X147065262Y-87712115D01*
X147109494Y-87726771D01*
X147166938Y-87766543D01*
X147193762Y-87831058D01*
X147181448Y-87899834D01*
X147133905Y-87951035D01*
X147109495Y-87962182D01*
X147068886Y-87975638D01*
X147068875Y-87975643D01*
X146919657Y-88067682D01*
X146831691Y-88155648D01*
X146770367Y-88189132D01*
X146700676Y-88184148D01*
X146656329Y-88155647D01*
X146561653Y-88060971D01*
X146561652Y-88060970D01*
X146411463Y-87968332D01*
X146410732Y-87967881D01*
X146409257Y-87967393D01*
X146408223Y-87966712D01*
X146404188Y-87964830D01*
X146404465Y-87964235D01*
X146367153Y-87939646D01*
X146365332Y-87941703D01*
X146359150Y-87936227D01*
X146342906Y-87921835D01*
X146305779Y-87862648D01*
X146306545Y-87792783D01*
X146344962Y-87734422D01*
X146386129Y-87711314D01*
X146407117Y-87704359D01*
X146407124Y-87704356D01*
X146556342Y-87612317D01*
X146644307Y-87524352D01*
X146705630Y-87490867D01*
X146775322Y-87495851D01*
G37*
%TD.AperFunction*%
%TA.AperFunction,Conductor*%
G36*
X146787343Y-84955851D02*
G01*
X146831691Y-84984352D01*
X146919654Y-85072315D01*
X147068875Y-85164356D01*
X147068882Y-85164359D01*
X147109493Y-85177816D01*
X147166938Y-85217588D01*
X147193762Y-85282104D01*
X147181447Y-85350880D01*
X147133905Y-85402080D01*
X147109495Y-85413228D01*
X147065262Y-85427885D01*
X147065259Y-85427886D01*
X146914349Y-85520969D01*
X146819670Y-85615648D01*
X146758346Y-85649132D01*
X146688655Y-85644148D01*
X146644308Y-85615647D01*
X146556345Y-85527684D01*
X146407124Y-85435643D01*
X146407121Y-85435642D01*
X146366504Y-85422183D01*
X146309060Y-85382410D01*
X146282237Y-85317894D01*
X146294552Y-85249118D01*
X146342096Y-85197918D01*
X146366495Y-85186775D01*
X146410738Y-85172115D01*
X146561652Y-85079030D01*
X146656332Y-84984349D01*
X146717651Y-84950867D01*
X146787343Y-84955851D01*
G37*
%TD.AperFunction*%
%TA.AperFunction,Conductor*%
G36*
X158647628Y-80222381D02*
G01*
X158707066Y-80234204D01*
X158714877Y-80236297D01*
X158951756Y-80316707D01*
X158959244Y-80319808D01*
X159183604Y-80430450D01*
X159190629Y-80434507D01*
X159398617Y-80573481D01*
X159405053Y-80578420D01*
X159593118Y-80743350D01*
X159598855Y-80749086D01*
X159646877Y-80803845D01*
X159763786Y-80937154D01*
X159768728Y-80943595D01*
X159907699Y-81151581D01*
X159911758Y-81158612D01*
X160022391Y-81382957D01*
X160025498Y-81390458D01*
X160105903Y-81627331D01*
X160108004Y-81635170D01*
X160153964Y-81866232D01*
X160156801Y-81880492D01*
X160157861Y-81888542D01*
X160174367Y-82140401D01*
X160174500Y-82144457D01*
X160174500Y-121397962D01*
X160174367Y-121402018D01*
X160157873Y-121653671D01*
X160156813Y-121661720D01*
X160108014Y-121907046D01*
X160105913Y-121914888D01*
X160025508Y-122151755D01*
X160022401Y-122159256D01*
X159911766Y-122383601D01*
X159907706Y-122390631D01*
X159768736Y-122598616D01*
X159763794Y-122605057D01*
X159598864Y-122793123D01*
X159593123Y-122798864D01*
X159405057Y-122963794D01*
X159398616Y-122968736D01*
X159190631Y-123107706D01*
X159183601Y-123111766D01*
X158959256Y-123222401D01*
X158951755Y-123225508D01*
X158714888Y-123305913D01*
X158707046Y-123308014D01*
X158461720Y-123356813D01*
X158453671Y-123357873D01*
X158202018Y-123374367D01*
X158197962Y-123374500D01*
X139010250Y-123374500D01*
X139006194Y-123374367D01*
X138754547Y-123357875D01*
X138746498Y-123356815D01*
X138501156Y-123308016D01*
X138493314Y-123305914D01*
X138475047Y-123299713D01*
X138256448Y-123225509D01*
X138248957Y-123222407D01*
X138024600Y-123111767D01*
X138017573Y-123107710D01*
X137809589Y-122968741D01*
X137803152Y-122963801D01*
X137615081Y-122798869D01*
X137609340Y-122793128D01*
X137561322Y-122738375D01*
X137444409Y-122605062D01*
X137439470Y-122598626D01*
X137300495Y-122390636D01*
X137296435Y-122383605D01*
X137296433Y-122383601D01*
X137185799Y-122159257D01*
X137182692Y-122151757D01*
X137102284Y-121914883D01*
X137100190Y-121907069D01*
X137088381Y-121847702D01*
X137086000Y-121823520D01*
X137086000Y-118066001D01*
X137404502Y-118066001D01*
X137424456Y-118294081D01*
X137424457Y-118294089D01*
X137483714Y-118515238D01*
X137483718Y-118515249D01*
X137580475Y-118722745D01*
X137580477Y-118722749D01*
X137711802Y-118910300D01*
X137873700Y-119072198D01*
X138061251Y-119203523D01*
X138112005Y-119227190D01*
X138114401Y-119228307D01*
X138166840Y-119274479D01*
X138185992Y-119341673D01*
X138165776Y-119408554D01*
X138114401Y-119453071D01*
X138065517Y-119475865D01*
X137879179Y-119606342D01*
X137718342Y-119767179D01*
X137587865Y-119953517D01*
X137491734Y-120159673D01*
X137491730Y-120159682D01*
X137439127Y-120355999D01*
X137439128Y-120356000D01*
X138802314Y-120356000D01*
X138790359Y-120367955D01*
X138732835Y-120480852D01*
X138713014Y-120606000D01*
X138732835Y-120731148D01*
X138790359Y-120844045D01*
X138802314Y-120856000D01*
X137439128Y-120856000D01*
X137491730Y-121052317D01*
X137491734Y-121052326D01*
X137587865Y-121258482D01*
X137718342Y-121444820D01*
X137879179Y-121605657D01*
X138065517Y-121736134D01*
X138271673Y-121832265D01*
X138271682Y-121832269D01*
X138491389Y-121891139D01*
X138491400Y-121891141D01*
X138661237Y-121906000D01*
X138868000Y-121906000D01*
X138868000Y-120921686D01*
X138879955Y-120933641D01*
X138992852Y-120991165D01*
X139086519Y-121006000D01*
X139149481Y-121006000D01*
X139243148Y-120991165D01*
X139356045Y-120933641D01*
X139368000Y-120921686D01*
X139368000Y-121906000D01*
X139574763Y-121906000D01*
X139744599Y-121891141D01*
X139744610Y-121891139D01*
X139964317Y-121832269D01*
X139964326Y-121832265D01*
X140170482Y-121736134D01*
X140356820Y-121605657D01*
X140517657Y-121444820D01*
X140648134Y-121258482D01*
X140744265Y-121052326D01*
X140744269Y-121052317D01*
X140796872Y-120856000D01*
X139433686Y-120856000D01*
X139445641Y-120844045D01*
X139503165Y-120731148D01*
X139522986Y-120606000D01*
X139503165Y-120480852D01*
X139445641Y-120367955D01*
X139433686Y-120356000D01*
X140796872Y-120356000D01*
X140796872Y-120355999D01*
X140744269Y-120159682D01*
X140744265Y-120159673D01*
X140648134Y-119953517D01*
X140517657Y-119767179D01*
X140356820Y-119606342D01*
X140170481Y-119475865D01*
X140170479Y-119475864D01*
X140121599Y-119453071D01*
X140069159Y-119406899D01*
X140050007Y-119339706D01*
X140070223Y-119272824D01*
X140121599Y-119228307D01*
X140123988Y-119227193D01*
X140174749Y-119203523D01*
X140362300Y-119072198D01*
X140524198Y-118910300D01*
X140655523Y-118722749D01*
X140752284Y-118515243D01*
X140811543Y-118294087D01*
X140831498Y-118066000D01*
X140811543Y-117837913D01*
X140752284Y-117616757D01*
X140655523Y-117409251D01*
X140524198Y-117221700D01*
X140362300Y-117059802D01*
X140174749Y-116928477D01*
X140167410Y-116925055D01*
X140131655Y-116908382D01*
X140079215Y-116862210D01*
X140060063Y-116795017D01*
X140080278Y-116728136D01*
X140131655Y-116683618D01*
X140134882Y-116682112D01*
X140174749Y-116663523D01*
X140362300Y-116532198D01*
X140524198Y-116370300D01*
X140655523Y-116182749D01*
X140752284Y-115975243D01*
X140811543Y-115754087D01*
X140831498Y-115526000D01*
X140811543Y-115297913D01*
X140752284Y-115076757D01*
X140655523Y-114869251D01*
X140524198Y-114681700D01*
X140362300Y-114519802D01*
X140174749Y-114388477D01*
X140167410Y-114385055D01*
X140131655Y-114368382D01*
X140079215Y-114322210D01*
X140060063Y-114255017D01*
X140080278Y-114188136D01*
X140131655Y-114143618D01*
X140134882Y-114142112D01*
X140174749Y-114123523D01*
X140362300Y-113992198D01*
X140524198Y-113830300D01*
X140655523Y-113642749D01*
X140752284Y-113435243D01*
X140811543Y-113214087D01*
X140831498Y-112986000D01*
X140811543Y-112757913D01*
X140752284Y-112536757D01*
X140655523Y-112329251D01*
X140524198Y-112141700D01*
X140362300Y-111979802D01*
X140174749Y-111848477D01*
X140167410Y-111845055D01*
X140131655Y-111828382D01*
X140079215Y-111782210D01*
X140060063Y-111715017D01*
X140080278Y-111648136D01*
X140131655Y-111603618D01*
X140134882Y-111602112D01*
X140174749Y-111583523D01*
X140362300Y-111452198D01*
X140524198Y-111290300D01*
X140655523Y-111102749D01*
X140752284Y-110895243D01*
X140811543Y-110674087D01*
X140831498Y-110446000D01*
X140811543Y-110217913D01*
X140752284Y-109996757D01*
X140655523Y-109789251D01*
X140524198Y-109601700D01*
X140362300Y-109439802D01*
X140174749Y-109308477D01*
X140167410Y-109305055D01*
X140131655Y-109288382D01*
X140079215Y-109242210D01*
X140060063Y-109175017D01*
X140080278Y-109108136D01*
X140131655Y-109063618D01*
X140134882Y-109062112D01*
X140174749Y-109043523D01*
X140362300Y-108912198D01*
X140524198Y-108750300D01*
X140655523Y-108562749D01*
X140752284Y-108355243D01*
X140811543Y-108134087D01*
X140831498Y-107906000D01*
X140811543Y-107677913D01*
X140752284Y-107456757D01*
X140655523Y-107249251D01*
X140524198Y-107061700D01*
X140362300Y-106899802D01*
X140174749Y-106768477D01*
X140167410Y-106765055D01*
X140131655Y-106748382D01*
X140079215Y-106702210D01*
X140060063Y-106635017D01*
X140080278Y-106568136D01*
X140131655Y-106523618D01*
X140134882Y-106522112D01*
X140174749Y-106503523D01*
X140362300Y-106372198D01*
X140524198Y-106210300D01*
X140655523Y-106022749D01*
X140752284Y-105815243D01*
X140811543Y-105594087D01*
X140831498Y-105366000D01*
X140811543Y-105137913D01*
X140752284Y-104916757D01*
X140655523Y-104709251D01*
X140524198Y-104521700D01*
X140362300Y-104359802D01*
X140174749Y-104228477D01*
X140167410Y-104225055D01*
X140131655Y-104208382D01*
X140079215Y-104162210D01*
X140060063Y-104095017D01*
X140080278Y-104028136D01*
X140131655Y-103983618D01*
X140134882Y-103982112D01*
X140174749Y-103963523D01*
X140362300Y-103832198D01*
X140524198Y-103670300D01*
X140655523Y-103482749D01*
X140752284Y-103275243D01*
X140811543Y-103054087D01*
X140831498Y-102826000D01*
X140811543Y-102597913D01*
X140752284Y-102376757D01*
X140655523Y-102169251D01*
X140524198Y-101981700D01*
X140362300Y-101819802D01*
X140174749Y-101688477D01*
X140167410Y-101685055D01*
X140131655Y-101668382D01*
X140079215Y-101622210D01*
X140060063Y-101555017D01*
X140080278Y-101488136D01*
X140131655Y-101443618D01*
X140134882Y-101442112D01*
X140174749Y-101423523D01*
X140362300Y-101292198D01*
X140524198Y-101130300D01*
X140655523Y-100942749D01*
X140752284Y-100735243D01*
X140811543Y-100514087D01*
X140831498Y-100286000D01*
X140811543Y-100057913D01*
X140752284Y-99836757D01*
X140655523Y-99629251D01*
X140524198Y-99441700D01*
X140362300Y-99279802D01*
X140174749Y-99148477D01*
X140167410Y-99145055D01*
X140131655Y-99128382D01*
X140079215Y-99082210D01*
X140060063Y-99015017D01*
X140080278Y-98948136D01*
X140131655Y-98903618D01*
X140134882Y-98902112D01*
X140174749Y-98883523D01*
X140362300Y-98752198D01*
X140524198Y-98590300D01*
X140655523Y-98402749D01*
X140752284Y-98195243D01*
X140811543Y-97974087D01*
X140831498Y-97746000D01*
X140811543Y-97517913D01*
X140752284Y-97296757D01*
X140655523Y-97089251D01*
X140524198Y-96901700D01*
X140362300Y-96739802D01*
X140174749Y-96608477D01*
X140167410Y-96605055D01*
X140131655Y-96588382D01*
X140079215Y-96542210D01*
X140060063Y-96475017D01*
X140080278Y-96408136D01*
X140131655Y-96363618D01*
X140134882Y-96362112D01*
X140174749Y-96343523D01*
X140362300Y-96212198D01*
X140524198Y-96050300D01*
X140655523Y-95862749D01*
X140752284Y-95655243D01*
X140811543Y-95434087D01*
X140831498Y-95206000D01*
X140811543Y-94977913D01*
X140752284Y-94756757D01*
X140655523Y-94549251D01*
X140524198Y-94361700D01*
X140362300Y-94199802D01*
X140174749Y-94068477D01*
X140167410Y-94065055D01*
X140131655Y-94048382D01*
X140079215Y-94002210D01*
X140060063Y-93935017D01*
X140080278Y-93868136D01*
X140131655Y-93823618D01*
X140134882Y-93822112D01*
X140174749Y-93803523D01*
X140362300Y-93672198D01*
X140524198Y-93510300D01*
X140655523Y-93322749D01*
X140752284Y-93115243D01*
X140811543Y-92894087D01*
X140831498Y-92666000D01*
X140811543Y-92437913D01*
X140752284Y-92216757D01*
X140655523Y-92009251D01*
X140524198Y-91821700D01*
X140362300Y-91659802D01*
X140174749Y-91528477D01*
X140167410Y-91525055D01*
X140131655Y-91508382D01*
X140079215Y-91462210D01*
X140060063Y-91395017D01*
X140080278Y-91328136D01*
X140131655Y-91283618D01*
X140134882Y-91282112D01*
X140174749Y-91263523D01*
X140362300Y-91132198D01*
X140524198Y-90970300D01*
X140655523Y-90782749D01*
X140752284Y-90575243D01*
X140811543Y-90354087D01*
X140831498Y-90126000D01*
X140811543Y-89897913D01*
X140774748Y-89760593D01*
X140776411Y-89690744D01*
X140815573Y-89632881D01*
X140879802Y-89605377D01*
X140894523Y-89604500D01*
X141250429Y-89604500D01*
X141317468Y-89624185D01*
X141363223Y-89676989D01*
X141373167Y-89746147D01*
X141370635Y-89758940D01*
X141329436Y-89921628D01*
X141329434Y-89921640D01*
X141310844Y-90145994D01*
X141310844Y-90146005D01*
X141329434Y-90370359D01*
X141329436Y-90370371D01*
X141384703Y-90588614D01*
X141475140Y-90794792D01*
X141598276Y-90983265D01*
X141598284Y-90983276D01*
X141750756Y-91148902D01*
X141750761Y-91148907D01*
X141796584Y-91184573D01*
X141928424Y-91287189D01*
X141928429Y-91287191D01*
X141928431Y-91287193D01*
X141964930Y-91306946D01*
X142014520Y-91356165D01*
X142029628Y-91424382D01*
X142005457Y-91489937D01*
X141964930Y-91525054D01*
X141928431Y-91544806D01*
X141928422Y-91544812D01*
X141750761Y-91683092D01*
X141750756Y-91683097D01*
X141598284Y-91848723D01*
X141598276Y-91848734D01*
X141475140Y-92037207D01*
X141384703Y-92243385D01*
X141329436Y-92461628D01*
X141329434Y-92461640D01*
X141310844Y-92685994D01*
X141310844Y-92686005D01*
X141329434Y-92910359D01*
X141329436Y-92910371D01*
X141384703Y-93128614D01*
X141475140Y-93334792D01*
X141598276Y-93523265D01*
X141598284Y-93523276D01*
X141735374Y-93672193D01*
X141750760Y-93688906D01*
X141928424Y-93827189D01*
X141928429Y-93827191D01*
X141928431Y-93827193D01*
X141964930Y-93846946D01*
X142014520Y-93896165D01*
X142029628Y-93964382D01*
X142005457Y-94029937D01*
X141964930Y-94065054D01*
X141928431Y-94084806D01*
X141928422Y-94084812D01*
X141750761Y-94223092D01*
X141750756Y-94223097D01*
X141598284Y-94388723D01*
X141598276Y-94388734D01*
X141475140Y-94577207D01*
X141384703Y-94783385D01*
X141329436Y-95001628D01*
X141329434Y-95001640D01*
X141310844Y-95225994D01*
X141310844Y-95226005D01*
X141329434Y-95450359D01*
X141329436Y-95450371D01*
X141384703Y-95668614D01*
X141475140Y-95874792D01*
X141598276Y-96063265D01*
X141598284Y-96063276D01*
X141735374Y-96212193D01*
X141750760Y-96228906D01*
X141928424Y-96367189D01*
X141928429Y-96367191D01*
X141928431Y-96367193D01*
X141964930Y-96386946D01*
X142014520Y-96436165D01*
X142029628Y-96504382D01*
X142005457Y-96569937D01*
X141964930Y-96605054D01*
X141928431Y-96624806D01*
X141928422Y-96624812D01*
X141750761Y-96763092D01*
X141750756Y-96763097D01*
X141598284Y-96928723D01*
X141598276Y-96928734D01*
X141475140Y-97117207D01*
X141384703Y-97323385D01*
X141329436Y-97541628D01*
X141329434Y-97541640D01*
X141310844Y-97765994D01*
X141310844Y-97766005D01*
X141329434Y-97990359D01*
X141329436Y-97990371D01*
X141384703Y-98208614D01*
X141475140Y-98414792D01*
X141598276Y-98603265D01*
X141598284Y-98603276D01*
X141735374Y-98752193D01*
X141750760Y-98768906D01*
X141928424Y-98907189D01*
X141928429Y-98907191D01*
X141928431Y-98907193D01*
X141964930Y-98926946D01*
X142014520Y-98976165D01*
X142029628Y-99044382D01*
X142005457Y-99109937D01*
X141964930Y-99145054D01*
X141928431Y-99164806D01*
X141928422Y-99164812D01*
X141750761Y-99303092D01*
X141750756Y-99303097D01*
X141598284Y-99468723D01*
X141598276Y-99468734D01*
X141475140Y-99657207D01*
X141384703Y-99863385D01*
X141329436Y-100081628D01*
X141329434Y-100081640D01*
X141310844Y-100305994D01*
X141310844Y-100306005D01*
X141329434Y-100530359D01*
X141329436Y-100530371D01*
X141384703Y-100748614D01*
X141475140Y-100954792D01*
X141598276Y-101143265D01*
X141598284Y-101143276D01*
X141735374Y-101292193D01*
X141750760Y-101308906D01*
X141928424Y-101447189D01*
X141928429Y-101447191D01*
X141928431Y-101447193D01*
X141964930Y-101466946D01*
X142014520Y-101516165D01*
X142029628Y-101584382D01*
X142005457Y-101649937D01*
X141964930Y-101685054D01*
X141928431Y-101704806D01*
X141928422Y-101704812D01*
X141750761Y-101843092D01*
X141750756Y-101843097D01*
X141598284Y-102008723D01*
X141598276Y-102008734D01*
X141475140Y-102197207D01*
X141384703Y-102403385D01*
X141329436Y-102621628D01*
X141329434Y-102621640D01*
X141310844Y-102845994D01*
X141310844Y-102846005D01*
X141329434Y-103070359D01*
X141329436Y-103070371D01*
X141384703Y-103288614D01*
X141475140Y-103494792D01*
X141598276Y-103683265D01*
X141598284Y-103683276D01*
X141735374Y-103832193D01*
X141750760Y-103848906D01*
X141928424Y-103987189D01*
X141928429Y-103987191D01*
X141928431Y-103987193D01*
X141964930Y-104006946D01*
X142014520Y-104056165D01*
X142029628Y-104124382D01*
X142005457Y-104189937D01*
X141964930Y-104225054D01*
X141928431Y-104244806D01*
X141928422Y-104244812D01*
X141750761Y-104383092D01*
X141750756Y-104383097D01*
X141598284Y-104548723D01*
X141598276Y-104548734D01*
X141475140Y-104737207D01*
X141384703Y-104943385D01*
X141329436Y-105161628D01*
X141329434Y-105161640D01*
X141310844Y-105385994D01*
X141310844Y-105386005D01*
X141329434Y-105610359D01*
X141329436Y-105610371D01*
X141384703Y-105828614D01*
X141475140Y-106034792D01*
X141598276Y-106223265D01*
X141598284Y-106223276D01*
X141735374Y-106372193D01*
X141750760Y-106388906D01*
X141928424Y-106527189D01*
X141928429Y-106527191D01*
X141928431Y-106527193D01*
X141964930Y-106546946D01*
X142014520Y-106596165D01*
X142029628Y-106664382D01*
X142005457Y-106729937D01*
X141964930Y-106765054D01*
X141928431Y-106784806D01*
X141928422Y-106784812D01*
X141750761Y-106923092D01*
X141750756Y-106923097D01*
X141598284Y-107088723D01*
X141598276Y-107088734D01*
X141475140Y-107277207D01*
X141384703Y-107483385D01*
X141329436Y-107701628D01*
X141329434Y-107701640D01*
X141310844Y-107925994D01*
X141310844Y-107926005D01*
X141329434Y-108150359D01*
X141329436Y-108150371D01*
X141384703Y-108368614D01*
X141475140Y-108574792D01*
X141598276Y-108763265D01*
X141598284Y-108763276D01*
X141735374Y-108912193D01*
X141750760Y-108928906D01*
X141928424Y-109067189D01*
X141928429Y-109067191D01*
X141928431Y-109067193D01*
X141964930Y-109086946D01*
X142014520Y-109136165D01*
X142029628Y-109204382D01*
X142005457Y-109269937D01*
X141964930Y-109305054D01*
X141928431Y-109324806D01*
X141928422Y-109324812D01*
X141750761Y-109463092D01*
X141750756Y-109463097D01*
X141598284Y-109628723D01*
X141598276Y-109628734D01*
X141475140Y-109817207D01*
X141384703Y-110023385D01*
X141329436Y-110241628D01*
X141329434Y-110241640D01*
X141310844Y-110465994D01*
X141310844Y-110466005D01*
X141329434Y-110690359D01*
X141329436Y-110690371D01*
X141384703Y-110908614D01*
X141475140Y-111114792D01*
X141598276Y-111303265D01*
X141598284Y-111303276D01*
X141735374Y-111452193D01*
X141750760Y-111468906D01*
X141928424Y-111607189D01*
X141928429Y-111607191D01*
X141928431Y-111607193D01*
X141964930Y-111626946D01*
X142014520Y-111676165D01*
X142029628Y-111744382D01*
X142005457Y-111809937D01*
X141964930Y-111845054D01*
X141928431Y-111864806D01*
X141928422Y-111864812D01*
X141750761Y-112003092D01*
X141750756Y-112003097D01*
X141598284Y-112168723D01*
X141598276Y-112168734D01*
X141475140Y-112357207D01*
X141384703Y-112563385D01*
X141329436Y-112781628D01*
X141329434Y-112781640D01*
X141310844Y-113005994D01*
X141310844Y-113006005D01*
X141329434Y-113230359D01*
X141329436Y-113230371D01*
X141384703Y-113448614D01*
X141475140Y-113654792D01*
X141598276Y-113843265D01*
X141598284Y-113843276D01*
X141735374Y-113992193D01*
X141750760Y-114008906D01*
X141928424Y-114147189D01*
X141928429Y-114147191D01*
X141928431Y-114147193D01*
X141964930Y-114166946D01*
X142014520Y-114216165D01*
X142029628Y-114284382D01*
X142005457Y-114349937D01*
X141964930Y-114385054D01*
X141928431Y-114404806D01*
X141928422Y-114404812D01*
X141750761Y-114543092D01*
X141750756Y-114543097D01*
X141598284Y-114708723D01*
X141598276Y-114708734D01*
X141475140Y-114897207D01*
X141384703Y-115103385D01*
X141329436Y-115321628D01*
X141329434Y-115321640D01*
X141310844Y-115545994D01*
X141310844Y-115546005D01*
X141329434Y-115770359D01*
X141329436Y-115770371D01*
X141384703Y-115988614D01*
X141475140Y-116194792D01*
X141598276Y-116383265D01*
X141598284Y-116383276D01*
X141735374Y-116532193D01*
X141750760Y-116548906D01*
X141928424Y-116687189D01*
X141928429Y-116687191D01*
X141928431Y-116687193D01*
X141964930Y-116706946D01*
X142014520Y-116756165D01*
X142029628Y-116824382D01*
X142005457Y-116889937D01*
X141964930Y-116925054D01*
X141928431Y-116944806D01*
X141928422Y-116944812D01*
X141750761Y-117083092D01*
X141750756Y-117083097D01*
X141598284Y-117248723D01*
X141598276Y-117248734D01*
X141475140Y-117437207D01*
X141384703Y-117643385D01*
X141329436Y-117861628D01*
X141329434Y-117861640D01*
X141310844Y-118085994D01*
X141310844Y-118086005D01*
X141329434Y-118310359D01*
X141329436Y-118310371D01*
X141384703Y-118528614D01*
X141475140Y-118734792D01*
X141598276Y-118923265D01*
X141598284Y-118923276D01*
X141735374Y-119072193D01*
X141750760Y-119088906D01*
X141928424Y-119227189D01*
X141964930Y-119246945D01*
X141971695Y-119250606D01*
X142021286Y-119299825D01*
X142036394Y-119368042D01*
X142012224Y-119433597D01*
X141983802Y-119461236D01*
X141802922Y-119587890D01*
X141802920Y-119587891D01*
X141635891Y-119754920D01*
X141635886Y-119754926D01*
X141500400Y-119948420D01*
X141500399Y-119948422D01*
X141400570Y-120162507D01*
X141400567Y-120162513D01*
X141343364Y-120375999D01*
X141343364Y-120376000D01*
X142240314Y-120376000D01*
X142214507Y-120416156D01*
X142174000Y-120554111D01*
X142174000Y-120697889D01*
X142214507Y-120835844D01*
X142240314Y-120876000D01*
X141343364Y-120876000D01*
X141400567Y-121089486D01*
X141400570Y-121089492D01*
X141500399Y-121303578D01*
X141635894Y-121497082D01*
X141802917Y-121664105D01*
X141996421Y-121799600D01*
X142210507Y-121899429D01*
X142210516Y-121899433D01*
X142424000Y-121956634D01*
X142424000Y-121061501D01*
X142531685Y-121110680D01*
X142638237Y-121126000D01*
X142709763Y-121126000D01*
X142816315Y-121110680D01*
X142924000Y-121061501D01*
X142924000Y-121956633D01*
X143137483Y-121899433D01*
X143137492Y-121899429D01*
X143351578Y-121799600D01*
X143545082Y-121664105D01*
X143712105Y-121497082D01*
X143847600Y-121303578D01*
X143947429Y-121089492D01*
X143947432Y-121089486D01*
X144004636Y-120876000D01*
X143107686Y-120876000D01*
X143133493Y-120835844D01*
X143174000Y-120697889D01*
X143174000Y-120554111D01*
X143133493Y-120416156D01*
X143107686Y-120376000D01*
X144004636Y-120376000D01*
X144004635Y-120375999D01*
X143947432Y-120162513D01*
X143947429Y-120162507D01*
X143847600Y-119948422D01*
X143847599Y-119948420D01*
X143712113Y-119754926D01*
X143712108Y-119754920D01*
X143545082Y-119587894D01*
X143364197Y-119461236D01*
X143320572Y-119406659D01*
X143313380Y-119337160D01*
X143344902Y-119274806D01*
X143376300Y-119250608D01*
X143419576Y-119227189D01*
X143597240Y-119088906D01*
X143749722Y-118923268D01*
X143872860Y-118734791D01*
X143963296Y-118528616D01*
X144018564Y-118310368D01*
X144037156Y-118086000D01*
X144018564Y-117861632D01*
X143963296Y-117643384D01*
X143872860Y-117437209D01*
X143749722Y-117248732D01*
X143749719Y-117248729D01*
X143749715Y-117248723D01*
X143597243Y-117083097D01*
X143597238Y-117083092D01*
X143419577Y-116944812D01*
X143419578Y-116944812D01*
X143419576Y-116944811D01*
X143383070Y-116925055D01*
X143333479Y-116875836D01*
X143318371Y-116807619D01*
X143342541Y-116742064D01*
X143383070Y-116706945D01*
X143383084Y-116706936D01*
X143419576Y-116687189D01*
X143597240Y-116548906D01*
X143749722Y-116383268D01*
X143872860Y-116194791D01*
X143963296Y-115988616D01*
X144018564Y-115770368D01*
X144037156Y-115546000D01*
X144018564Y-115321632D01*
X143963296Y-115103384D01*
X143872860Y-114897209D01*
X143749722Y-114708732D01*
X143749719Y-114708729D01*
X143749715Y-114708723D01*
X143597243Y-114543097D01*
X143597238Y-114543092D01*
X143419577Y-114404812D01*
X143419578Y-114404812D01*
X143419576Y-114404811D01*
X143383070Y-114385055D01*
X143333479Y-114335836D01*
X143318371Y-114267619D01*
X143342541Y-114202064D01*
X143383070Y-114166945D01*
X143383084Y-114166936D01*
X143419576Y-114147189D01*
X143597240Y-114008906D01*
X143749722Y-113843268D01*
X143872860Y-113654791D01*
X143963296Y-113448616D01*
X144018564Y-113230368D01*
X144037156Y-113006000D01*
X144018564Y-112781632D01*
X143963296Y-112563384D01*
X143872860Y-112357209D01*
X143749722Y-112168732D01*
X143749719Y-112168729D01*
X143749715Y-112168723D01*
X143597243Y-112003097D01*
X143597238Y-112003092D01*
X143419577Y-111864812D01*
X143419578Y-111864812D01*
X143419576Y-111864811D01*
X143383070Y-111845055D01*
X143333479Y-111795836D01*
X143318371Y-111727619D01*
X143342541Y-111662064D01*
X143383070Y-111626945D01*
X143383084Y-111626936D01*
X143419576Y-111607189D01*
X143597240Y-111468906D01*
X143749722Y-111303268D01*
X143872860Y-111114791D01*
X143963296Y-110908616D01*
X144018564Y-110690368D01*
X144037156Y-110466000D01*
X144018564Y-110241632D01*
X143963296Y-110023384D01*
X143872860Y-109817209D01*
X143749722Y-109628732D01*
X143749719Y-109628729D01*
X143749715Y-109628723D01*
X143597243Y-109463097D01*
X143597238Y-109463092D01*
X143419577Y-109324812D01*
X143419578Y-109324812D01*
X143419576Y-109324811D01*
X143383070Y-109305055D01*
X143333479Y-109255836D01*
X143318371Y-109187619D01*
X143342541Y-109122064D01*
X143383070Y-109086945D01*
X143383084Y-109086936D01*
X143419576Y-109067189D01*
X143597240Y-108928906D01*
X143749722Y-108763268D01*
X143872860Y-108574791D01*
X143963296Y-108368616D01*
X144018564Y-108150368D01*
X144037156Y-107926000D01*
X144018564Y-107701632D01*
X143963296Y-107483384D01*
X143872860Y-107277209D01*
X143749722Y-107088732D01*
X143749719Y-107088729D01*
X143749715Y-107088723D01*
X143597243Y-106923097D01*
X143597238Y-106923092D01*
X143419577Y-106784812D01*
X143419578Y-106784812D01*
X143419576Y-106784811D01*
X143383070Y-106765055D01*
X143333479Y-106715836D01*
X143318371Y-106647619D01*
X143342541Y-106582064D01*
X143383070Y-106546945D01*
X143383084Y-106546936D01*
X143419576Y-106527189D01*
X143597240Y-106388906D01*
X143749722Y-106223268D01*
X143872860Y-106034791D01*
X143963296Y-105828616D01*
X144018564Y-105610368D01*
X144037156Y-105386000D01*
X144018564Y-105161632D01*
X143963296Y-104943384D01*
X143872860Y-104737209D01*
X143749722Y-104548732D01*
X143749719Y-104548729D01*
X143749715Y-104548723D01*
X143597243Y-104383097D01*
X143597238Y-104383092D01*
X143419577Y-104244812D01*
X143419578Y-104244812D01*
X143419576Y-104244811D01*
X143383070Y-104225055D01*
X143333479Y-104175836D01*
X143318371Y-104107619D01*
X143342541Y-104042064D01*
X143383070Y-104006945D01*
X143383084Y-104006936D01*
X143419576Y-103987189D01*
X143597240Y-103848906D01*
X143749722Y-103683268D01*
X143872860Y-103494791D01*
X143963296Y-103288616D01*
X144018564Y-103070368D01*
X144037156Y-102846000D01*
X144018564Y-102621632D01*
X143963296Y-102403384D01*
X143872860Y-102197209D01*
X143749722Y-102008732D01*
X143749719Y-102008729D01*
X143749715Y-102008723D01*
X143597243Y-101843097D01*
X143597238Y-101843092D01*
X143419577Y-101704812D01*
X143419578Y-101704812D01*
X143419576Y-101704811D01*
X143383070Y-101685055D01*
X143333479Y-101635836D01*
X143318371Y-101567619D01*
X143342541Y-101502064D01*
X143383070Y-101466945D01*
X143383084Y-101466936D01*
X143419576Y-101447189D01*
X143597240Y-101308906D01*
X143749722Y-101143268D01*
X143872860Y-100954791D01*
X143963296Y-100748616D01*
X144018564Y-100530368D01*
X144037156Y-100306000D01*
X144018564Y-100081632D01*
X143963296Y-99863384D01*
X143872860Y-99657209D01*
X143749722Y-99468732D01*
X143749719Y-99468729D01*
X143749715Y-99468723D01*
X143597243Y-99303097D01*
X143597238Y-99303092D01*
X143419577Y-99164812D01*
X143419578Y-99164812D01*
X143419576Y-99164811D01*
X143383070Y-99145055D01*
X143333479Y-99095836D01*
X143318371Y-99027619D01*
X143342541Y-98962064D01*
X143383070Y-98926945D01*
X143383084Y-98926936D01*
X143419576Y-98907189D01*
X143597240Y-98768906D01*
X143749722Y-98603268D01*
X143872860Y-98414791D01*
X143963296Y-98208616D01*
X144018564Y-97990368D01*
X144037156Y-97766000D01*
X144018564Y-97541632D01*
X143963296Y-97323384D01*
X143872860Y-97117209D01*
X143749722Y-96928732D01*
X143749719Y-96928729D01*
X143749715Y-96928723D01*
X143597243Y-96763097D01*
X143597238Y-96763092D01*
X143419577Y-96624812D01*
X143419578Y-96624812D01*
X143419576Y-96624811D01*
X143383070Y-96605055D01*
X143333479Y-96555836D01*
X143318371Y-96487619D01*
X143342541Y-96422064D01*
X143383070Y-96386945D01*
X143383084Y-96386936D01*
X143419576Y-96367189D01*
X143597240Y-96228906D01*
X143749722Y-96063268D01*
X143872860Y-95874791D01*
X143963296Y-95668616D01*
X144018564Y-95450368D01*
X144037156Y-95226000D01*
X144018564Y-95001632D01*
X143963296Y-94783384D01*
X143872860Y-94577209D01*
X143749722Y-94388732D01*
X143749719Y-94388729D01*
X143749715Y-94388723D01*
X143597243Y-94223097D01*
X143597238Y-94223092D01*
X143419577Y-94084812D01*
X143419578Y-94084812D01*
X143419576Y-94084811D01*
X143383070Y-94065055D01*
X143333479Y-94015836D01*
X143318371Y-93947619D01*
X143342541Y-93882064D01*
X143383070Y-93846945D01*
X143383084Y-93846936D01*
X143419576Y-93827189D01*
X143597240Y-93688906D01*
X143749722Y-93523268D01*
X143872860Y-93334791D01*
X143963296Y-93128616D01*
X144018564Y-92910368D01*
X144022862Y-92858498D01*
X144037156Y-92686005D01*
X144037156Y-92685995D01*
X144034448Y-92653320D01*
X144048528Y-92584884D01*
X144097373Y-92534924D01*
X144165474Y-92519303D01*
X144183795Y-92521787D01*
X144356513Y-92558500D01*
X144356514Y-92558500D01*
X144547487Y-92558500D01*
X144734288Y-92518794D01*
X144788884Y-92494485D01*
X144858133Y-92485200D01*
X144921410Y-92514828D01*
X144944858Y-92542667D01*
X144960696Y-92568345D01*
X144963970Y-92573652D01*
X145089348Y-92699030D01*
X145240262Y-92792115D01*
X145408574Y-92847887D01*
X145512455Y-92858500D01*
X146138544Y-92858499D01*
X146242426Y-92847887D01*
X146410738Y-92792115D01*
X146561652Y-92699030D01*
X146656332Y-92604349D01*
X146717651Y-92570867D01*
X146787343Y-92575851D01*
X146831691Y-92604352D01*
X146919654Y-92692315D01*
X147068875Y-92784356D01*
X147068880Y-92784358D01*
X147235302Y-92839505D01*
X147235309Y-92839506D01*
X147338019Y-92849999D01*
X147400499Y-92849998D01*
X147400500Y-92849998D01*
X147400500Y-91524000D01*
X147420185Y-91456961D01*
X147472989Y-91411206D01*
X147524500Y-91400000D01*
X147776500Y-91400000D01*
X147843539Y-91419685D01*
X147889294Y-91472489D01*
X147900500Y-91524000D01*
X147900500Y-92849999D01*
X147962972Y-92849999D01*
X147962986Y-92849998D01*
X148065697Y-92839505D01*
X148232119Y-92784358D01*
X148232124Y-92784356D01*
X148381345Y-92692315D01*
X148505315Y-92568345D01*
X148597356Y-92419124D01*
X148597359Y-92419117D01*
X148616307Y-92361936D01*
X148656079Y-92304491D01*
X148720595Y-92277667D01*
X148789371Y-92289982D01*
X148840571Y-92337524D01*
X148846807Y-92349427D01*
X148863740Y-92386505D01*
X148863746Y-92386516D01*
X148904681Y-92450211D01*
X148942794Y-92509517D01*
X148942803Y-92509529D01*
X149035511Y-92616519D01*
X149036222Y-92617400D01*
X149036949Y-92618180D01*
X149036951Y-92618181D01*
X149036952Y-92618183D01*
X149147460Y-92713938D01*
X149177698Y-92733371D01*
X149268408Y-92791667D01*
X149268412Y-92791669D01*
X149268414Y-92791670D01*
X149401423Y-92852413D01*
X149539378Y-92892920D01*
X149684111Y-92913729D01*
X149684114Y-92913729D01*
X150256000Y-92913729D01*
X150329111Y-92908500D01*
X150365853Y-92897710D01*
X150418432Y-92893949D01*
X150556000Y-92913729D01*
X150556002Y-92913729D01*
X151127886Y-92913729D01*
X151127889Y-92913729D01*
X151272622Y-92892920D01*
X151410577Y-92852413D01*
X151543586Y-92791670D01*
X151664534Y-92713942D01*
X151664539Y-92713939D01*
X151664536Y-92713942D01*
X151681747Y-92699028D01*
X151775051Y-92618179D01*
X151847191Y-92534924D01*
X151869196Y-92509529D01*
X151869197Y-92509526D01*
X151869205Y-92509518D01*
X151897519Y-92465459D01*
X151950322Y-92419706D01*
X152001834Y-92408500D01*
X152038063Y-92408500D01*
X152105102Y-92428185D01*
X152110949Y-92432182D01*
X152123249Y-92441119D01*
X152190220Y-92470935D01*
X152297712Y-92518794D01*
X152484513Y-92558500D01*
X152521472Y-92558500D01*
X152588511Y-92578185D01*
X152634266Y-92630989D01*
X152645000Y-92671693D01*
X152664456Y-92894081D01*
X152664457Y-92894089D01*
X152723714Y-93115238D01*
X152723718Y-93115249D01*
X152820475Y-93322745D01*
X152820477Y-93322749D01*
X152951802Y-93510300D01*
X153113700Y-93672198D01*
X153301251Y-93803523D01*
X153344345Y-93823618D01*
X153396784Y-93869791D01*
X153415936Y-93936984D01*
X153395720Y-94003865D01*
X153344345Y-94048382D01*
X153301251Y-94068476D01*
X153176126Y-94156090D01*
X153113700Y-94199802D01*
X153113698Y-94199803D01*
X153113695Y-94199806D01*
X152951806Y-94361695D01*
X152951803Y-94361698D01*
X152951802Y-94361700D01*
X152932874Y-94388732D01*
X152820476Y-94549252D01*
X152820475Y-94549254D01*
X152723718Y-94756750D01*
X152723714Y-94756761D01*
X152664457Y-94977910D01*
X152664456Y-94977918D01*
X152644502Y-95205998D01*
X152644502Y-95206001D01*
X152664456Y-95434081D01*
X152664457Y-95434089D01*
X152723714Y-95655238D01*
X152723718Y-95655249D01*
X152820475Y-95862745D01*
X152820477Y-95862749D01*
X152951802Y-96050300D01*
X153113700Y-96212198D01*
X153301251Y-96343523D01*
X153344345Y-96363618D01*
X153396784Y-96409791D01*
X153415936Y-96476984D01*
X153395720Y-96543865D01*
X153344345Y-96588382D01*
X153301251Y-96608476D01*
X153176126Y-96696090D01*
X153113700Y-96739802D01*
X153113698Y-96739803D01*
X153113695Y-96739806D01*
X152951806Y-96901695D01*
X152951803Y-96901698D01*
X152951802Y-96901700D01*
X152932874Y-96928732D01*
X152820476Y-97089252D01*
X152820475Y-97089254D01*
X152723718Y-97296750D01*
X152723714Y-97296761D01*
X152664457Y-97517910D01*
X152664456Y-97517918D01*
X152644502Y-97745998D01*
X152644502Y-97746001D01*
X152664456Y-97974081D01*
X152664457Y-97974089D01*
X152723714Y-98195238D01*
X152723718Y-98195249D01*
X152820475Y-98402745D01*
X152820477Y-98402749D01*
X152951802Y-98590300D01*
X153113700Y-98752198D01*
X153301251Y-98883523D01*
X153344345Y-98903618D01*
X153396784Y-98949791D01*
X153415936Y-99016984D01*
X153395720Y-99083865D01*
X153344345Y-99128382D01*
X153301251Y-99148476D01*
X153176126Y-99236090D01*
X153113700Y-99279802D01*
X153113698Y-99279803D01*
X153113695Y-99279806D01*
X152951806Y-99441695D01*
X152951803Y-99441698D01*
X152951802Y-99441700D01*
X152932874Y-99468732D01*
X152820476Y-99629252D01*
X152820475Y-99629254D01*
X152723718Y-99836750D01*
X152723714Y-99836761D01*
X152664457Y-100057910D01*
X152664456Y-100057918D01*
X152644502Y-100285998D01*
X152644502Y-100286001D01*
X152664456Y-100514081D01*
X152664457Y-100514089D01*
X152723714Y-100735238D01*
X152723718Y-100735249D01*
X152820475Y-100942745D01*
X152820477Y-100942749D01*
X152951802Y-101130300D01*
X153113700Y-101292198D01*
X153301251Y-101423523D01*
X153344345Y-101443618D01*
X153396784Y-101489791D01*
X153415936Y-101556984D01*
X153395720Y-101623865D01*
X153344345Y-101668382D01*
X153301251Y-101688476D01*
X153176126Y-101776090D01*
X153113700Y-101819802D01*
X153113698Y-101819803D01*
X153113695Y-101819806D01*
X152951806Y-101981695D01*
X152951803Y-101981698D01*
X152951802Y-101981700D01*
X152932874Y-102008732D01*
X152820476Y-102169252D01*
X152820475Y-102169254D01*
X152723718Y-102376750D01*
X152723714Y-102376761D01*
X152664457Y-102597910D01*
X152664456Y-102597918D01*
X152644502Y-102825998D01*
X152644502Y-102826001D01*
X152664456Y-103054081D01*
X152664457Y-103054089D01*
X152723714Y-103275238D01*
X152723718Y-103275249D01*
X152820475Y-103482745D01*
X152820477Y-103482749D01*
X152951802Y-103670300D01*
X153113700Y-103832198D01*
X153301251Y-103963523D01*
X153344345Y-103983618D01*
X153396784Y-104029791D01*
X153415936Y-104096984D01*
X153395720Y-104163865D01*
X153344345Y-104208382D01*
X153301251Y-104228476D01*
X153176126Y-104316090D01*
X153113700Y-104359802D01*
X153113698Y-104359803D01*
X153113695Y-104359806D01*
X152951806Y-104521695D01*
X152951803Y-104521698D01*
X152951802Y-104521700D01*
X152932874Y-104548732D01*
X152820476Y-104709252D01*
X152820475Y-104709254D01*
X152723718Y-104916750D01*
X152723714Y-104916761D01*
X152664457Y-105137910D01*
X152664456Y-105137918D01*
X152644502Y-105365998D01*
X152644502Y-105366001D01*
X152664456Y-105594081D01*
X152664457Y-105594089D01*
X152723714Y-105815238D01*
X152723718Y-105815249D01*
X152820475Y-106022745D01*
X152820477Y-106022749D01*
X152951802Y-106210300D01*
X153113700Y-106372198D01*
X153301251Y-106503523D01*
X153344345Y-106523618D01*
X153396784Y-106569791D01*
X153415936Y-106636984D01*
X153395720Y-106703865D01*
X153344345Y-106748382D01*
X153301251Y-106768476D01*
X153176126Y-106856090D01*
X153113700Y-106899802D01*
X153113698Y-106899803D01*
X153113695Y-106899806D01*
X152951806Y-107061695D01*
X152951803Y-107061698D01*
X152951802Y-107061700D01*
X152932874Y-107088732D01*
X152820476Y-107249252D01*
X152820475Y-107249254D01*
X152723718Y-107456750D01*
X152723714Y-107456761D01*
X152664457Y-107677910D01*
X152664456Y-107677918D01*
X152644502Y-107905998D01*
X152644502Y-107906001D01*
X152664456Y-108134081D01*
X152664457Y-108134089D01*
X152723714Y-108355238D01*
X152723718Y-108355249D01*
X152820475Y-108562745D01*
X152820477Y-108562749D01*
X152951802Y-108750300D01*
X153113700Y-108912198D01*
X153301251Y-109043523D01*
X153344345Y-109063618D01*
X153396784Y-109109791D01*
X153415936Y-109176984D01*
X153395720Y-109243865D01*
X153344345Y-109288382D01*
X153301251Y-109308476D01*
X153176126Y-109396090D01*
X153113700Y-109439802D01*
X153113698Y-109439803D01*
X153113695Y-109439806D01*
X152951806Y-109601695D01*
X152951803Y-109601698D01*
X152951802Y-109601700D01*
X152932874Y-109628732D01*
X152820476Y-109789252D01*
X152820475Y-109789254D01*
X152723718Y-109996750D01*
X152723714Y-109996761D01*
X152664457Y-110217910D01*
X152664456Y-110217918D01*
X152644502Y-110445998D01*
X152644502Y-110446001D01*
X152664456Y-110674081D01*
X152664457Y-110674089D01*
X152723714Y-110895238D01*
X152723718Y-110895249D01*
X152820475Y-111102745D01*
X152820477Y-111102749D01*
X152951802Y-111290300D01*
X153113700Y-111452198D01*
X153301251Y-111583523D01*
X153344345Y-111603618D01*
X153396784Y-111649791D01*
X153415936Y-111716984D01*
X153395720Y-111783865D01*
X153344345Y-111828382D01*
X153301251Y-111848476D01*
X153176126Y-111936090D01*
X153113700Y-111979802D01*
X153113698Y-111979803D01*
X153113695Y-111979806D01*
X152951806Y-112141695D01*
X152951803Y-112141698D01*
X152951802Y-112141700D01*
X152932874Y-112168732D01*
X152820476Y-112329252D01*
X152820475Y-112329254D01*
X152723718Y-112536750D01*
X152723714Y-112536761D01*
X152664457Y-112757910D01*
X152664456Y-112757918D01*
X152644502Y-112985998D01*
X152644502Y-112986001D01*
X152664456Y-113214081D01*
X152664457Y-113214089D01*
X152723714Y-113435238D01*
X152723718Y-113435249D01*
X152820475Y-113642745D01*
X152820477Y-113642749D01*
X152951802Y-113830300D01*
X153113700Y-113992198D01*
X153301251Y-114123523D01*
X153344345Y-114143618D01*
X153396784Y-114189791D01*
X153415936Y-114256984D01*
X153395720Y-114323865D01*
X153344345Y-114368382D01*
X153301251Y-114388476D01*
X153176126Y-114476090D01*
X153113700Y-114519802D01*
X153113698Y-114519803D01*
X153113695Y-114519806D01*
X152951806Y-114681695D01*
X152951803Y-114681698D01*
X152951802Y-114681700D01*
X152932874Y-114708732D01*
X152820476Y-114869252D01*
X152820475Y-114869254D01*
X152723718Y-115076750D01*
X152723714Y-115076761D01*
X152664457Y-115297910D01*
X152664456Y-115297918D01*
X152644502Y-115525998D01*
X152644502Y-115526001D01*
X152664456Y-115754081D01*
X152664457Y-115754089D01*
X152723714Y-115975238D01*
X152723718Y-115975249D01*
X152820475Y-116182745D01*
X152820477Y-116182749D01*
X152951802Y-116370300D01*
X153113700Y-116532198D01*
X153301251Y-116663523D01*
X153344345Y-116683618D01*
X153396784Y-116729791D01*
X153415936Y-116796984D01*
X153395720Y-116863865D01*
X153344345Y-116908382D01*
X153301251Y-116928476D01*
X153176126Y-117016090D01*
X153113700Y-117059802D01*
X153113698Y-117059803D01*
X153113695Y-117059806D01*
X152951806Y-117221695D01*
X152951803Y-117221698D01*
X152951802Y-117221700D01*
X152932874Y-117248732D01*
X152820476Y-117409252D01*
X152820475Y-117409254D01*
X152723718Y-117616750D01*
X152723714Y-117616761D01*
X152664457Y-117837910D01*
X152664456Y-117837918D01*
X152644502Y-118065998D01*
X152644502Y-118066001D01*
X152664456Y-118294081D01*
X152664457Y-118294089D01*
X152723714Y-118515238D01*
X152723718Y-118515249D01*
X152820475Y-118722745D01*
X152820477Y-118722749D01*
X152951802Y-118910300D01*
X153113700Y-119072198D01*
X153301251Y-119203523D01*
X153344345Y-119223618D01*
X153396784Y-119269791D01*
X153415936Y-119336984D01*
X153395720Y-119403865D01*
X153344345Y-119448382D01*
X153301251Y-119468476D01*
X153176126Y-119556090D01*
X153113700Y-119599802D01*
X153113698Y-119599803D01*
X153113695Y-119599806D01*
X152951806Y-119761695D01*
X152951803Y-119761698D01*
X152951802Y-119761700D01*
X152932874Y-119788732D01*
X152820476Y-119949252D01*
X152820475Y-119949254D01*
X152723718Y-120156750D01*
X152723714Y-120156761D01*
X152664457Y-120377910D01*
X152664456Y-120377918D01*
X152644502Y-120605998D01*
X152644502Y-120606001D01*
X152664456Y-120834081D01*
X152664457Y-120834089D01*
X152723714Y-121055238D01*
X152723718Y-121055249D01*
X152756710Y-121126000D01*
X152820477Y-121262749D01*
X152951802Y-121450300D01*
X153113700Y-121612198D01*
X153301251Y-121743523D01*
X153413800Y-121796005D01*
X153508750Y-121840281D01*
X153508752Y-121840281D01*
X153508757Y-121840284D01*
X153729913Y-121899543D01*
X153900873Y-121914500D01*
X154815127Y-121914500D01*
X154986087Y-121899543D01*
X155207243Y-121840284D01*
X155414749Y-121743523D01*
X155602300Y-121612198D01*
X155764198Y-121450300D01*
X155895523Y-121262749D01*
X155992284Y-121055243D01*
X156051543Y-120834087D01*
X156069748Y-120626005D01*
X156550844Y-120626005D01*
X156569434Y-120850359D01*
X156569436Y-120850371D01*
X156624703Y-121068614D01*
X156715140Y-121274792D01*
X156838276Y-121463265D01*
X156838284Y-121463276D01*
X156975374Y-121612193D01*
X156990760Y-121628906D01*
X157168424Y-121767189D01*
X157168425Y-121767189D01*
X157168427Y-121767191D01*
X157221671Y-121796005D01*
X157366426Y-121874342D01*
X157579365Y-121947444D01*
X157801431Y-121984500D01*
X158026569Y-121984500D01*
X158248635Y-121947444D01*
X158461574Y-121874342D01*
X158659576Y-121767189D01*
X158837240Y-121628906D01*
X158989722Y-121463268D01*
X159112860Y-121274791D01*
X159203296Y-121068616D01*
X159258564Y-120850368D01*
X159277156Y-120626000D01*
X159265128Y-120480852D01*
X159258565Y-120401640D01*
X159258563Y-120401628D01*
X159203296Y-120183385D01*
X159194138Y-120162507D01*
X159112860Y-119977209D01*
X158989722Y-119788732D01*
X158989719Y-119788729D01*
X158989715Y-119788723D01*
X158837243Y-119623097D01*
X158837238Y-119623092D01*
X158659577Y-119484812D01*
X158659578Y-119484812D01*
X158659576Y-119484811D01*
X158623070Y-119465055D01*
X158573479Y-119415836D01*
X158558371Y-119347619D01*
X158582541Y-119282064D01*
X158623070Y-119246945D01*
X158623084Y-119246936D01*
X158659576Y-119227189D01*
X158837240Y-119088906D01*
X158989722Y-118923268D01*
X159112860Y-118734791D01*
X159203296Y-118528616D01*
X159258564Y-118310368D01*
X159277156Y-118086000D01*
X159258564Y-117861632D01*
X159203296Y-117643384D01*
X159112860Y-117437209D01*
X158989722Y-117248732D01*
X158989719Y-117248729D01*
X158989715Y-117248723D01*
X158837243Y-117083097D01*
X158837238Y-117083092D01*
X158659577Y-116944812D01*
X158659578Y-116944812D01*
X158659576Y-116944811D01*
X158623070Y-116925055D01*
X158573479Y-116875836D01*
X158558371Y-116807619D01*
X158582541Y-116742064D01*
X158623070Y-116706945D01*
X158623084Y-116706936D01*
X158659576Y-116687189D01*
X158837240Y-116548906D01*
X158989722Y-116383268D01*
X159112860Y-116194791D01*
X159203296Y-115988616D01*
X159258564Y-115770368D01*
X159277156Y-115546000D01*
X159258564Y-115321632D01*
X159203296Y-115103384D01*
X159112860Y-114897209D01*
X158989722Y-114708732D01*
X158989719Y-114708729D01*
X158989715Y-114708723D01*
X158837243Y-114543097D01*
X158837238Y-114543092D01*
X158659577Y-114404812D01*
X158659578Y-114404812D01*
X158659576Y-114404811D01*
X158623070Y-114385055D01*
X158573479Y-114335836D01*
X158558371Y-114267619D01*
X158582541Y-114202064D01*
X158623070Y-114166945D01*
X158623084Y-114166936D01*
X158659576Y-114147189D01*
X158837240Y-114008906D01*
X158989722Y-113843268D01*
X159112860Y-113654791D01*
X159203296Y-113448616D01*
X159258564Y-113230368D01*
X159277156Y-113006000D01*
X159258564Y-112781632D01*
X159203296Y-112563384D01*
X159112860Y-112357209D01*
X158989722Y-112168732D01*
X158989719Y-112168729D01*
X158989715Y-112168723D01*
X158837243Y-112003097D01*
X158837238Y-112003092D01*
X158659577Y-111864812D01*
X158659578Y-111864812D01*
X158659576Y-111864811D01*
X158623070Y-111845055D01*
X158573479Y-111795836D01*
X158558371Y-111727619D01*
X158582541Y-111662064D01*
X158623070Y-111626945D01*
X158623084Y-111626936D01*
X158659576Y-111607189D01*
X158837240Y-111468906D01*
X158989722Y-111303268D01*
X159112860Y-111114791D01*
X159203296Y-110908616D01*
X159258564Y-110690368D01*
X159277156Y-110466000D01*
X159258564Y-110241632D01*
X159203296Y-110023384D01*
X159112860Y-109817209D01*
X158989722Y-109628732D01*
X158989719Y-109628729D01*
X158989715Y-109628723D01*
X158837243Y-109463097D01*
X158837238Y-109463092D01*
X158659577Y-109324812D01*
X158659578Y-109324812D01*
X158659576Y-109324811D01*
X158623070Y-109305055D01*
X158573479Y-109255836D01*
X158558371Y-109187619D01*
X158582541Y-109122064D01*
X158623070Y-109086945D01*
X158623084Y-109086936D01*
X158659576Y-109067189D01*
X158837240Y-108928906D01*
X158989722Y-108763268D01*
X159112860Y-108574791D01*
X159203296Y-108368616D01*
X159258564Y-108150368D01*
X159277156Y-107926000D01*
X159258564Y-107701632D01*
X159203296Y-107483384D01*
X159112860Y-107277209D01*
X158989722Y-107088732D01*
X158989719Y-107088729D01*
X158989715Y-107088723D01*
X158837243Y-106923097D01*
X158837238Y-106923092D01*
X158659577Y-106784812D01*
X158659578Y-106784812D01*
X158659576Y-106784811D01*
X158623070Y-106765055D01*
X158573479Y-106715836D01*
X158558371Y-106647619D01*
X158582541Y-106582064D01*
X158623070Y-106546945D01*
X158623084Y-106546936D01*
X158659576Y-106527189D01*
X158837240Y-106388906D01*
X158989722Y-106223268D01*
X159112860Y-106034791D01*
X159203296Y-105828616D01*
X159258564Y-105610368D01*
X159277156Y-105386000D01*
X159258564Y-105161632D01*
X159203296Y-104943384D01*
X159112860Y-104737209D01*
X158989722Y-104548732D01*
X158989719Y-104548729D01*
X158989715Y-104548723D01*
X158837243Y-104383097D01*
X158837238Y-104383092D01*
X158659577Y-104244812D01*
X158659578Y-104244812D01*
X158659576Y-104244811D01*
X158623070Y-104225055D01*
X158573479Y-104175836D01*
X158558371Y-104107619D01*
X158582541Y-104042064D01*
X158623070Y-104006945D01*
X158623084Y-104006936D01*
X158659576Y-103987189D01*
X158837240Y-103848906D01*
X158989722Y-103683268D01*
X159112860Y-103494791D01*
X159203296Y-103288616D01*
X159258564Y-103070368D01*
X159277156Y-102846000D01*
X159258564Y-102621632D01*
X159203296Y-102403384D01*
X159112860Y-102197209D01*
X158989722Y-102008732D01*
X158989719Y-102008729D01*
X158989715Y-102008723D01*
X158837243Y-101843097D01*
X158837238Y-101843092D01*
X158659577Y-101704812D01*
X158659578Y-101704812D01*
X158659576Y-101704811D01*
X158623070Y-101685055D01*
X158573479Y-101635836D01*
X158558371Y-101567619D01*
X158582541Y-101502064D01*
X158623070Y-101466945D01*
X158623084Y-101466936D01*
X158659576Y-101447189D01*
X158837240Y-101308906D01*
X158989722Y-101143268D01*
X159112860Y-100954791D01*
X159203296Y-100748616D01*
X159258564Y-100530368D01*
X159277156Y-100306000D01*
X159258564Y-100081632D01*
X159203296Y-99863384D01*
X159112860Y-99657209D01*
X158989722Y-99468732D01*
X158989719Y-99468729D01*
X158989715Y-99468723D01*
X158837243Y-99303097D01*
X158837238Y-99303092D01*
X158659577Y-99164812D01*
X158659578Y-99164812D01*
X158659576Y-99164811D01*
X158623070Y-99145055D01*
X158573479Y-99095836D01*
X158558371Y-99027619D01*
X158582541Y-98962064D01*
X158623070Y-98926945D01*
X158623084Y-98926936D01*
X158659576Y-98907189D01*
X158837240Y-98768906D01*
X158989722Y-98603268D01*
X159112860Y-98414791D01*
X159203296Y-98208616D01*
X159258564Y-97990368D01*
X159277156Y-97766000D01*
X159258564Y-97541632D01*
X159203296Y-97323384D01*
X159112860Y-97117209D01*
X158989722Y-96928732D01*
X158989719Y-96928729D01*
X158989715Y-96928723D01*
X158837243Y-96763097D01*
X158837238Y-96763092D01*
X158659577Y-96624812D01*
X158659578Y-96624812D01*
X158659576Y-96624811D01*
X158623070Y-96605055D01*
X158573479Y-96555836D01*
X158558371Y-96487619D01*
X158582541Y-96422064D01*
X158623070Y-96386945D01*
X158623084Y-96386936D01*
X158659576Y-96367189D01*
X158837240Y-96228906D01*
X158989722Y-96063268D01*
X159112860Y-95874791D01*
X159203296Y-95668616D01*
X159258564Y-95450368D01*
X159277156Y-95226000D01*
X159258564Y-95001632D01*
X159203296Y-94783384D01*
X159112860Y-94577209D01*
X158989722Y-94388732D01*
X158989719Y-94388729D01*
X158989715Y-94388723D01*
X158837243Y-94223097D01*
X158837238Y-94223092D01*
X158659577Y-94084812D01*
X158659578Y-94084812D01*
X158659576Y-94084811D01*
X158623070Y-94065055D01*
X158573479Y-94015836D01*
X158558371Y-93947619D01*
X158582541Y-93882064D01*
X158623070Y-93846945D01*
X158623084Y-93846936D01*
X158659576Y-93827189D01*
X158837240Y-93688906D01*
X158989722Y-93523268D01*
X159112860Y-93334791D01*
X159203296Y-93128616D01*
X159258564Y-92910368D01*
X159262862Y-92858498D01*
X159277156Y-92686005D01*
X159277156Y-92685994D01*
X159258565Y-92461640D01*
X159258563Y-92461628D01*
X159230150Y-92349427D01*
X159203296Y-92243384D01*
X159112860Y-92037209D01*
X158989722Y-91848732D01*
X158989719Y-91848729D01*
X158989715Y-91848723D01*
X158837243Y-91683097D01*
X158837238Y-91683092D01*
X158659577Y-91544812D01*
X158659578Y-91544812D01*
X158659576Y-91544811D01*
X158623070Y-91525055D01*
X158573479Y-91475836D01*
X158558371Y-91407619D01*
X158582541Y-91342064D01*
X158623070Y-91306945D01*
X158623084Y-91306936D01*
X158659576Y-91287189D01*
X158837240Y-91148906D01*
X158989722Y-90983268D01*
X159112860Y-90794791D01*
X159203296Y-90588616D01*
X159258564Y-90370368D01*
X159263321Y-90312962D01*
X159277156Y-90146005D01*
X159277156Y-90145994D01*
X159258565Y-89921640D01*
X159258563Y-89921628D01*
X159230150Y-89809427D01*
X159203296Y-89703384D01*
X159112860Y-89497209D01*
X158989722Y-89308732D01*
X158989719Y-89308729D01*
X158989715Y-89308723D01*
X158844510Y-89150991D01*
X158813587Y-89088337D01*
X158821447Y-89018911D01*
X158865594Y-88964755D01*
X158892405Y-88950827D01*
X158972584Y-88920920D01*
X159010204Y-88906889D01*
X159127261Y-88819261D01*
X159214889Y-88702204D01*
X159265989Y-88565201D01*
X159269591Y-88531692D01*
X159272499Y-88504654D01*
X159272500Y-88504637D01*
X159272500Y-86707362D01*
X159272499Y-86707345D01*
X159269157Y-86676270D01*
X159265989Y-86646799D01*
X159214889Y-86509796D01*
X159127261Y-86392739D01*
X159010204Y-86305111D01*
X158873203Y-86254011D01*
X158812654Y-86247500D01*
X158812638Y-86247500D01*
X157015362Y-86247500D01*
X157015345Y-86247500D01*
X156954797Y-86254011D01*
X156954795Y-86254011D01*
X156817795Y-86305111D01*
X156700739Y-86392739D01*
X156613111Y-86509795D01*
X156562011Y-86646795D01*
X156562011Y-86646797D01*
X156555500Y-86707345D01*
X156555500Y-88504654D01*
X156562011Y-88565202D01*
X156562011Y-88565204D01*
X156613111Y-88702204D01*
X156700739Y-88819261D01*
X156817796Y-88906889D01*
X156858873Y-88922210D01*
X156935595Y-88950827D01*
X156991528Y-88992699D01*
X157015944Y-89058163D01*
X157001092Y-89126436D01*
X156983490Y-89150991D01*
X156838279Y-89308730D01*
X156838276Y-89308734D01*
X156715140Y-89497207D01*
X156624703Y-89703385D01*
X156569436Y-89921628D01*
X156569434Y-89921640D01*
X156550844Y-90145994D01*
X156550844Y-90146005D01*
X156569434Y-90370359D01*
X156569436Y-90370371D01*
X156624703Y-90588614D01*
X156715140Y-90794792D01*
X156838276Y-90983265D01*
X156838284Y-90983276D01*
X156990756Y-91148902D01*
X156990761Y-91148907D01*
X157036584Y-91184573D01*
X157168424Y-91287189D01*
X157168429Y-91287191D01*
X157168431Y-91287193D01*
X157204930Y-91306946D01*
X157254520Y-91356165D01*
X157269628Y-91424382D01*
X157245457Y-91489937D01*
X157204930Y-91525054D01*
X157168431Y-91544806D01*
X157168422Y-91544812D01*
X156990761Y-91683092D01*
X156990756Y-91683097D01*
X156838284Y-91848723D01*
X156838276Y-91848734D01*
X156715140Y-92037207D01*
X156624703Y-92243385D01*
X156569436Y-92461628D01*
X156569434Y-92461640D01*
X156550844Y-92685994D01*
X156550844Y-92686005D01*
X156569434Y-92910359D01*
X156569436Y-92910371D01*
X156624703Y-93128614D01*
X156715140Y-93334792D01*
X156838276Y-93523265D01*
X156838284Y-93523276D01*
X156975374Y-93672193D01*
X156990760Y-93688906D01*
X157168424Y-93827189D01*
X157168429Y-93827191D01*
X157168431Y-93827193D01*
X157204930Y-93846946D01*
X157254520Y-93896165D01*
X157269628Y-93964382D01*
X157245457Y-94029937D01*
X157204930Y-94065054D01*
X157168431Y-94084806D01*
X157168422Y-94084812D01*
X156990761Y-94223092D01*
X156990756Y-94223097D01*
X156838284Y-94388723D01*
X156838276Y-94388734D01*
X156715140Y-94577207D01*
X156624703Y-94783385D01*
X156569436Y-95001628D01*
X156569434Y-95001640D01*
X156550844Y-95225994D01*
X156550844Y-95226005D01*
X156569434Y-95450359D01*
X156569436Y-95450371D01*
X156624703Y-95668614D01*
X156715140Y-95874792D01*
X156838276Y-96063265D01*
X156838284Y-96063276D01*
X156975374Y-96212193D01*
X156990760Y-96228906D01*
X157168424Y-96367189D01*
X157168429Y-96367191D01*
X157168431Y-96367193D01*
X157204930Y-96386946D01*
X157254520Y-96436165D01*
X157269628Y-96504382D01*
X157245457Y-96569937D01*
X157204930Y-96605054D01*
X157168431Y-96624806D01*
X157168422Y-96624812D01*
X156990761Y-96763092D01*
X156990756Y-96763097D01*
X156838284Y-96928723D01*
X156838276Y-96928734D01*
X156715140Y-97117207D01*
X156624703Y-97323385D01*
X156569436Y-97541628D01*
X156569434Y-97541640D01*
X156550844Y-97765994D01*
X156550844Y-97766005D01*
X156569434Y-97990359D01*
X156569436Y-97990371D01*
X156624703Y-98208614D01*
X156715140Y-98414792D01*
X156838276Y-98603265D01*
X156838284Y-98603276D01*
X156975374Y-98752193D01*
X156990760Y-98768906D01*
X157168424Y-98907189D01*
X157168429Y-98907191D01*
X157168431Y-98907193D01*
X157204930Y-98926946D01*
X157254520Y-98976165D01*
X157269628Y-99044382D01*
X157245457Y-99109937D01*
X157204930Y-99145054D01*
X157168431Y-99164806D01*
X157168422Y-99164812D01*
X156990761Y-99303092D01*
X156990756Y-99303097D01*
X156838284Y-99468723D01*
X156838276Y-99468734D01*
X156715140Y-99657207D01*
X156624703Y-99863385D01*
X156569436Y-100081628D01*
X156569434Y-100081640D01*
X156550844Y-100305994D01*
X156550844Y-100306005D01*
X156569434Y-100530359D01*
X156569436Y-100530371D01*
X156624703Y-100748614D01*
X156715140Y-100954792D01*
X156838276Y-101143265D01*
X156838284Y-101143276D01*
X156975374Y-101292193D01*
X156990760Y-101308906D01*
X157168424Y-101447189D01*
X157168429Y-101447191D01*
X157168431Y-101447193D01*
X157204930Y-101466946D01*
X157254520Y-101516165D01*
X157269628Y-101584382D01*
X157245457Y-101649937D01*
X157204930Y-101685054D01*
X157168431Y-101704806D01*
X157168422Y-101704812D01*
X156990761Y-101843092D01*
X156990756Y-101843097D01*
X156838284Y-102008723D01*
X156838276Y-102008734D01*
X156715140Y-102197207D01*
X156624703Y-102403385D01*
X156569436Y-102621628D01*
X156569434Y-102621640D01*
X156550844Y-102845994D01*
X156550844Y-102846005D01*
X156569434Y-103070359D01*
X156569436Y-103070371D01*
X156624703Y-103288614D01*
X156715140Y-103494792D01*
X156838276Y-103683265D01*
X156838284Y-103683276D01*
X156975374Y-103832193D01*
X156990760Y-103848906D01*
X157168424Y-103987189D01*
X157168429Y-103987191D01*
X157168431Y-103987193D01*
X157204930Y-104006946D01*
X157254520Y-104056165D01*
X157269628Y-104124382D01*
X157245457Y-104189937D01*
X157204930Y-104225054D01*
X157168431Y-104244806D01*
X157168422Y-104244812D01*
X156990761Y-104383092D01*
X156990756Y-104383097D01*
X156838284Y-104548723D01*
X156838276Y-104548734D01*
X156715140Y-104737207D01*
X156624703Y-104943385D01*
X156569436Y-105161628D01*
X156569434Y-105161640D01*
X156550844Y-105385994D01*
X156550844Y-105386005D01*
X156569434Y-105610359D01*
X156569436Y-105610371D01*
X156624703Y-105828614D01*
X156715140Y-106034792D01*
X156838276Y-106223265D01*
X156838284Y-106223276D01*
X156975374Y-106372193D01*
X156990760Y-106388906D01*
X157168424Y-106527189D01*
X157168429Y-106527191D01*
X157168431Y-106527193D01*
X157204930Y-106546946D01*
X157254520Y-106596165D01*
X157269628Y-106664382D01*
X157245457Y-106729937D01*
X157204930Y-106765054D01*
X157168431Y-106784806D01*
X157168422Y-106784812D01*
X156990761Y-106923092D01*
X156990756Y-106923097D01*
X156838284Y-107088723D01*
X156838276Y-107088734D01*
X156715140Y-107277207D01*
X156624703Y-107483385D01*
X156569436Y-107701628D01*
X156569434Y-107701640D01*
X156550844Y-107925994D01*
X156550844Y-107926005D01*
X156569434Y-108150359D01*
X156569436Y-108150371D01*
X156624703Y-108368614D01*
X156715140Y-108574792D01*
X156838276Y-108763265D01*
X156838284Y-108763276D01*
X156975374Y-108912193D01*
X156990760Y-108928906D01*
X157168424Y-109067189D01*
X157168429Y-109067191D01*
X157168431Y-109067193D01*
X157204930Y-109086946D01*
X157254520Y-109136165D01*
X157269628Y-109204382D01*
X157245457Y-109269937D01*
X157204930Y-109305054D01*
X157168431Y-109324806D01*
X157168422Y-109324812D01*
X156990761Y-109463092D01*
X156990756Y-109463097D01*
X156838284Y-109628723D01*
X156838276Y-109628734D01*
X156715140Y-109817207D01*
X156624703Y-110023385D01*
X156569436Y-110241628D01*
X156569434Y-110241640D01*
X156550844Y-110465994D01*
X156550844Y-110466005D01*
X156569434Y-110690359D01*
X156569436Y-110690371D01*
X156624703Y-110908614D01*
X156715140Y-111114792D01*
X156838276Y-111303265D01*
X156838284Y-111303276D01*
X156975374Y-111452193D01*
X156990760Y-111468906D01*
X157168424Y-111607189D01*
X157168429Y-111607191D01*
X157168431Y-111607193D01*
X157204930Y-111626946D01*
X157254520Y-111676165D01*
X157269628Y-111744382D01*
X157245457Y-111809937D01*
X157204930Y-111845054D01*
X157168431Y-111864806D01*
X157168422Y-111864812D01*
X156990761Y-112003092D01*
X156990756Y-112003097D01*
X156838284Y-112168723D01*
X156838276Y-112168734D01*
X156715140Y-112357207D01*
X156624703Y-112563385D01*
X156569436Y-112781628D01*
X156569434Y-112781640D01*
X156550844Y-113005994D01*
X156550844Y-113006005D01*
X156569434Y-113230359D01*
X156569436Y-113230371D01*
X156624703Y-113448614D01*
X156715140Y-113654792D01*
X156838276Y-113843265D01*
X156838284Y-113843276D01*
X156975374Y-113992193D01*
X156990760Y-114008906D01*
X157168424Y-114147189D01*
X157168429Y-114147191D01*
X157168431Y-114147193D01*
X157204930Y-114166946D01*
X157254520Y-114216165D01*
X157269628Y-114284382D01*
X157245457Y-114349937D01*
X157204930Y-114385054D01*
X157168431Y-114404806D01*
X157168422Y-114404812D01*
X156990761Y-114543092D01*
X156990756Y-114543097D01*
X156838284Y-114708723D01*
X156838276Y-114708734D01*
X156715140Y-114897207D01*
X156624703Y-115103385D01*
X156569436Y-115321628D01*
X156569434Y-115321640D01*
X156550844Y-115545994D01*
X156550844Y-115546005D01*
X156569434Y-115770359D01*
X156569436Y-115770371D01*
X156624703Y-115988614D01*
X156715140Y-116194792D01*
X156838276Y-116383265D01*
X156838284Y-116383276D01*
X156975374Y-116532193D01*
X156990760Y-116548906D01*
X157168424Y-116687189D01*
X157168429Y-116687191D01*
X157168431Y-116687193D01*
X157204930Y-116706946D01*
X157254520Y-116756165D01*
X157269628Y-116824382D01*
X157245457Y-116889937D01*
X157204930Y-116925054D01*
X157168431Y-116944806D01*
X157168422Y-116944812D01*
X156990761Y-117083092D01*
X156990756Y-117083097D01*
X156838284Y-117248723D01*
X156838276Y-117248734D01*
X156715140Y-117437207D01*
X156624703Y-117643385D01*
X156569436Y-117861628D01*
X156569434Y-117861640D01*
X156550844Y-118085994D01*
X156550844Y-118086005D01*
X156569434Y-118310359D01*
X156569436Y-118310371D01*
X156624703Y-118528614D01*
X156715140Y-118734792D01*
X156838276Y-118923265D01*
X156838284Y-118923276D01*
X156975374Y-119072193D01*
X156990760Y-119088906D01*
X157168424Y-119227189D01*
X157168429Y-119227191D01*
X157168431Y-119227193D01*
X157204930Y-119246946D01*
X157254520Y-119296165D01*
X157269628Y-119364382D01*
X157245457Y-119429937D01*
X157204930Y-119465054D01*
X157168431Y-119484806D01*
X157168422Y-119484812D01*
X156990761Y-119623092D01*
X156990756Y-119623097D01*
X156838284Y-119788723D01*
X156838276Y-119788734D01*
X156715140Y-119977207D01*
X156624703Y-120183385D01*
X156569436Y-120401628D01*
X156569434Y-120401640D01*
X156550844Y-120625994D01*
X156550844Y-120626005D01*
X156069748Y-120626005D01*
X156071498Y-120606000D01*
X156051543Y-120377913D01*
X155992284Y-120156757D01*
X155895523Y-119949251D01*
X155764198Y-119761700D01*
X155602300Y-119599802D01*
X155414749Y-119468477D01*
X155407410Y-119465055D01*
X155371655Y-119448382D01*
X155319215Y-119402210D01*
X155300063Y-119335017D01*
X155320278Y-119268136D01*
X155371655Y-119223618D01*
X155374882Y-119222112D01*
X155414749Y-119203523D01*
X155602300Y-119072198D01*
X155764198Y-118910300D01*
X155895523Y-118722749D01*
X155992284Y-118515243D01*
X156051543Y-118294087D01*
X156071498Y-118066000D01*
X156051543Y-117837913D01*
X155992284Y-117616757D01*
X155895523Y-117409251D01*
X155764198Y-117221700D01*
X155602300Y-117059802D01*
X155414749Y-116928477D01*
X155407410Y-116925055D01*
X155371655Y-116908382D01*
X155319215Y-116862210D01*
X155300063Y-116795017D01*
X155320278Y-116728136D01*
X155371655Y-116683618D01*
X155374882Y-116682112D01*
X155414749Y-116663523D01*
X155602300Y-116532198D01*
X155764198Y-116370300D01*
X155895523Y-116182749D01*
X155992284Y-115975243D01*
X156051543Y-115754087D01*
X156071498Y-115526000D01*
X156051543Y-115297913D01*
X155992284Y-115076757D01*
X155895523Y-114869251D01*
X155764198Y-114681700D01*
X155602300Y-114519802D01*
X155414749Y-114388477D01*
X155407410Y-114385055D01*
X155371655Y-114368382D01*
X155319215Y-114322210D01*
X155300063Y-114255017D01*
X155320278Y-114188136D01*
X155371655Y-114143618D01*
X155374882Y-114142112D01*
X155414749Y-114123523D01*
X155602300Y-113992198D01*
X155764198Y-113830300D01*
X155895523Y-113642749D01*
X155992284Y-113435243D01*
X156051543Y-113214087D01*
X156071498Y-112986000D01*
X156051543Y-112757913D01*
X155992284Y-112536757D01*
X155895523Y-112329251D01*
X155764198Y-112141700D01*
X155602300Y-111979802D01*
X155414749Y-111848477D01*
X155407410Y-111845055D01*
X155371655Y-111828382D01*
X155319215Y-111782210D01*
X155300063Y-111715017D01*
X155320278Y-111648136D01*
X155371655Y-111603618D01*
X155374882Y-111602112D01*
X155414749Y-111583523D01*
X155602300Y-111452198D01*
X155764198Y-111290300D01*
X155895523Y-111102749D01*
X155992284Y-110895243D01*
X156051543Y-110674087D01*
X156071498Y-110446000D01*
X156051543Y-110217913D01*
X155992284Y-109996757D01*
X155895523Y-109789251D01*
X155764198Y-109601700D01*
X155602300Y-109439802D01*
X155414749Y-109308477D01*
X155407410Y-109305055D01*
X155371655Y-109288382D01*
X155319215Y-109242210D01*
X155300063Y-109175017D01*
X155320278Y-109108136D01*
X155371655Y-109063618D01*
X155374882Y-109062112D01*
X155414749Y-109043523D01*
X155602300Y-108912198D01*
X155764198Y-108750300D01*
X155895523Y-108562749D01*
X155992284Y-108355243D01*
X156051543Y-108134087D01*
X156071498Y-107906000D01*
X156051543Y-107677913D01*
X155992284Y-107456757D01*
X155895523Y-107249251D01*
X155764198Y-107061700D01*
X155602300Y-106899802D01*
X155414749Y-106768477D01*
X155407410Y-106765055D01*
X155371655Y-106748382D01*
X155319215Y-106702210D01*
X155300063Y-106635017D01*
X155320278Y-106568136D01*
X155371655Y-106523618D01*
X155374882Y-106522112D01*
X155414749Y-106503523D01*
X155602300Y-106372198D01*
X155764198Y-106210300D01*
X155895523Y-106022749D01*
X155992284Y-105815243D01*
X156051543Y-105594087D01*
X156071498Y-105366000D01*
X156051543Y-105137913D01*
X155992284Y-104916757D01*
X155895523Y-104709251D01*
X155764198Y-104521700D01*
X155602300Y-104359802D01*
X155414749Y-104228477D01*
X155407410Y-104225055D01*
X155371655Y-104208382D01*
X155319215Y-104162210D01*
X155300063Y-104095017D01*
X155320278Y-104028136D01*
X155371655Y-103983618D01*
X155374882Y-103982112D01*
X155414749Y-103963523D01*
X155602300Y-103832198D01*
X155764198Y-103670300D01*
X155895523Y-103482749D01*
X155992284Y-103275243D01*
X156051543Y-103054087D01*
X156071498Y-102826000D01*
X156051543Y-102597913D01*
X155992284Y-102376757D01*
X155895523Y-102169251D01*
X155764198Y-101981700D01*
X155602300Y-101819802D01*
X155414749Y-101688477D01*
X155407410Y-101685055D01*
X155371655Y-101668382D01*
X155319215Y-101622210D01*
X155300063Y-101555017D01*
X155320278Y-101488136D01*
X155371655Y-101443618D01*
X155374882Y-101442112D01*
X155414749Y-101423523D01*
X155602300Y-101292198D01*
X155764198Y-101130300D01*
X155895523Y-100942749D01*
X155992284Y-100735243D01*
X156051543Y-100514087D01*
X156071498Y-100286000D01*
X156051543Y-100057913D01*
X155992284Y-99836757D01*
X155895523Y-99629251D01*
X155764198Y-99441700D01*
X155602300Y-99279802D01*
X155414749Y-99148477D01*
X155407410Y-99145055D01*
X155371655Y-99128382D01*
X155319215Y-99082210D01*
X155300063Y-99015017D01*
X155320278Y-98948136D01*
X155371655Y-98903618D01*
X155374882Y-98902112D01*
X155414749Y-98883523D01*
X155602300Y-98752198D01*
X155764198Y-98590300D01*
X155895523Y-98402749D01*
X155992284Y-98195243D01*
X156051543Y-97974087D01*
X156071498Y-97746000D01*
X156051543Y-97517913D01*
X155992284Y-97296757D01*
X155895523Y-97089251D01*
X155764198Y-96901700D01*
X155602300Y-96739802D01*
X155414749Y-96608477D01*
X155407410Y-96605055D01*
X155371655Y-96588382D01*
X155319215Y-96542210D01*
X155300063Y-96475017D01*
X155320278Y-96408136D01*
X155371655Y-96363618D01*
X155374882Y-96362112D01*
X155414749Y-96343523D01*
X155602300Y-96212198D01*
X155764198Y-96050300D01*
X155895523Y-95862749D01*
X155992284Y-95655243D01*
X156051543Y-95434087D01*
X156071498Y-95206000D01*
X156051543Y-94977913D01*
X155992284Y-94756757D01*
X155895523Y-94549251D01*
X155764198Y-94361700D01*
X155602300Y-94199802D01*
X155414749Y-94068477D01*
X155407410Y-94065055D01*
X155371655Y-94048382D01*
X155319215Y-94002210D01*
X155300063Y-93935017D01*
X155320278Y-93868136D01*
X155371655Y-93823618D01*
X155374882Y-93822112D01*
X155414749Y-93803523D01*
X155602300Y-93672198D01*
X155764198Y-93510300D01*
X155895523Y-93322749D01*
X155992284Y-93115243D01*
X156051543Y-92894087D01*
X156071498Y-92666000D01*
X156051543Y-92437913D01*
X155992284Y-92216757D01*
X155895523Y-92009251D01*
X155764198Y-91821700D01*
X155602300Y-91659802D01*
X155414749Y-91528477D01*
X155407410Y-91525055D01*
X155371655Y-91508382D01*
X155319215Y-91462210D01*
X155300063Y-91395017D01*
X155320278Y-91328136D01*
X155371655Y-91283618D01*
X155374882Y-91282112D01*
X155414749Y-91263523D01*
X155602300Y-91132198D01*
X155764198Y-90970300D01*
X155895523Y-90782749D01*
X155992284Y-90575243D01*
X156051543Y-90354087D01*
X156071498Y-90126000D01*
X156051543Y-89897913D01*
X155992284Y-89676757D01*
X155971824Y-89632881D01*
X155895524Y-89469254D01*
X155895523Y-89469252D01*
X155895523Y-89469251D01*
X155764198Y-89281700D01*
X155602300Y-89119802D01*
X155414749Y-88988477D01*
X155371655Y-88968382D01*
X155319215Y-88922210D01*
X155300063Y-88855017D01*
X155320278Y-88788136D01*
X155371655Y-88743618D01*
X155374882Y-88742112D01*
X155414749Y-88723523D01*
X155602300Y-88592198D01*
X155764198Y-88430300D01*
X155895523Y-88242749D01*
X155992284Y-88035243D01*
X156051543Y-87814087D01*
X156071498Y-87586000D01*
X156051543Y-87357913D01*
X155992284Y-87136757D01*
X155895523Y-86929251D01*
X155764198Y-86741700D01*
X155602300Y-86579802D01*
X155414749Y-86448477D01*
X155371655Y-86428382D01*
X155319215Y-86382210D01*
X155300063Y-86315017D01*
X155320278Y-86248136D01*
X155371655Y-86203618D01*
X155374882Y-86202112D01*
X155414749Y-86183523D01*
X155602300Y-86052198D01*
X155764198Y-85890300D01*
X155895523Y-85702749D01*
X155992284Y-85495243D01*
X156051543Y-85274087D01*
X156071498Y-85046000D01*
X156071077Y-85041192D01*
X156062954Y-84948345D01*
X156051543Y-84817913D01*
X155992284Y-84596757D01*
X155895523Y-84389251D01*
X155764198Y-84201700D01*
X155602300Y-84039802D01*
X155414749Y-83908477D01*
X155371655Y-83888382D01*
X155319215Y-83842210D01*
X155300063Y-83775017D01*
X155320278Y-83708136D01*
X155371655Y-83663618D01*
X155374882Y-83662112D01*
X155414749Y-83643523D01*
X155602300Y-83512198D01*
X155764198Y-83350300D01*
X155895523Y-83162749D01*
X155992284Y-82955243D01*
X156051543Y-82734087D01*
X156071498Y-82506000D01*
X156051543Y-82277913D01*
X155992284Y-82056757D01*
X155895523Y-81849251D01*
X155764198Y-81661700D01*
X155602300Y-81499802D01*
X155414749Y-81368477D01*
X155414745Y-81368475D01*
X155207249Y-81271718D01*
X155207238Y-81271714D01*
X154986089Y-81212457D01*
X154986081Y-81212456D01*
X154815127Y-81197500D01*
X153900873Y-81197500D01*
X153729918Y-81212456D01*
X153729910Y-81212457D01*
X153508761Y-81271714D01*
X153508750Y-81271718D01*
X153301254Y-81368475D01*
X153301252Y-81368476D01*
X153301251Y-81368477D01*
X153113700Y-81499802D01*
X153113698Y-81499803D01*
X153113695Y-81499806D01*
X152951805Y-81661696D01*
X152928748Y-81694625D01*
X152874171Y-81738249D01*
X152827174Y-81747500D01*
X152644294Y-81747500D01*
X152626324Y-81746191D01*
X152602206Y-81742658D01*
X152556651Y-81746645D01*
X152549573Y-81747264D01*
X152544172Y-81747500D01*
X152535820Y-81747500D01*
X152519362Y-81749423D01*
X152502904Y-81751347D01*
X152425577Y-81758112D01*
X152418503Y-81759573D01*
X152418493Y-81759526D01*
X152410905Y-81761209D01*
X152410916Y-81761255D01*
X152403890Y-81762920D01*
X152330944Y-81789469D01*
X152257261Y-81813885D01*
X152250713Y-81816939D01*
X152250693Y-81816896D01*
X152243701Y-81820280D01*
X152243723Y-81820323D01*
X152237267Y-81823565D01*
X152172395Y-81866232D01*
X152106350Y-81906968D01*
X152100686Y-81911448D01*
X152100656Y-81911410D01*
X152094627Y-81916322D01*
X152094657Y-81916357D01*
X152089132Y-81920993D01*
X152035836Y-81977482D01*
X151275958Y-82737359D01*
X151214635Y-82770844D01*
X151170631Y-82772416D01*
X151127889Y-82766271D01*
X150556000Y-82766271D01*
X150482889Y-82771499D01*
X150446143Y-82782289D01*
X150393564Y-82786049D01*
X150256001Y-82766271D01*
X150256000Y-82766271D01*
X149684111Y-82766271D01*
X149684110Y-82766271D01*
X149579545Y-82781305D01*
X149510387Y-82771361D01*
X149474218Y-82746248D01*
X149462051Y-82734081D01*
X149173434Y-82445464D01*
X149170900Y-82442772D01*
X149129273Y-82395785D01*
X149129272Y-82395784D01*
X149129271Y-82395783D01*
X149077628Y-82360136D01*
X149074611Y-82357916D01*
X149025227Y-82319225D01*
X149019235Y-82316528D01*
X149015760Y-82314964D01*
X148996216Y-82303941D01*
X148987678Y-82298048D01*
X148987677Y-82298047D01*
X148987672Y-82298044D01*
X148929015Y-82275798D01*
X148925555Y-82274365D01*
X148868331Y-82248611D01*
X148868332Y-82248611D01*
X148858110Y-82246738D01*
X148836510Y-82240716D01*
X148826801Y-82237035D01*
X148826797Y-82237034D01*
X148826796Y-82237034D01*
X148764511Y-82229470D01*
X148760810Y-82228907D01*
X148699096Y-82217598D01*
X148699090Y-82217598D01*
X148636455Y-82221387D01*
X148632710Y-82221500D01*
X146948796Y-82221500D01*
X146945052Y-82221387D01*
X146882411Y-82217598D01*
X146882404Y-82217598D01*
X146820690Y-82228907D01*
X146816989Y-82229470D01*
X146754698Y-82237035D01*
X146744994Y-82240715D01*
X146723389Y-82246737D01*
X146713173Y-82248609D01*
X146713170Y-82248610D01*
X146655954Y-82274361D01*
X146652495Y-82275794D01*
X146593828Y-82298044D01*
X146593820Y-82298048D01*
X146585274Y-82303947D01*
X146565743Y-82314962D01*
X146556277Y-82319223D01*
X146506882Y-82357920D01*
X146503867Y-82360138D01*
X146452231Y-82395780D01*
X146452228Y-82395782D01*
X146410615Y-82442753D01*
X146408048Y-82445480D01*
X146068347Y-82785181D01*
X146007024Y-82818666D01*
X145980666Y-82821500D01*
X145512462Y-82821500D01*
X145512446Y-82821501D01*
X145408572Y-82832113D01*
X145240264Y-82887884D01*
X145240259Y-82887886D01*
X145089346Y-82980971D01*
X144963971Y-83106346D01*
X144963970Y-83106348D01*
X144870885Y-83257262D01*
X144870884Y-83257264D01*
X144867595Y-83262597D01*
X144815647Y-83309321D01*
X144762056Y-83321500D01*
X140986833Y-83321500D01*
X140919794Y-83301815D01*
X140899152Y-83285181D01*
X140862819Y-83248848D01*
X140829334Y-83187525D01*
X140826500Y-83161167D01*
X140826500Y-81657362D01*
X140826499Y-81657345D01*
X140823157Y-81626270D01*
X140819989Y-81596799D01*
X140768889Y-81459796D01*
X140681261Y-81342739D01*
X140564204Y-81255111D01*
X140427203Y-81204011D01*
X140366654Y-81197500D01*
X140366638Y-81197500D01*
X137869362Y-81197500D01*
X137869345Y-81197500D01*
X137808797Y-81204011D01*
X137808795Y-81204011D01*
X137671795Y-81255111D01*
X137554739Y-81342739D01*
X137467111Y-81459795D01*
X137416011Y-81596795D01*
X137416011Y-81596797D01*
X137409500Y-81657345D01*
X137409500Y-83354654D01*
X137416011Y-83415202D01*
X137416011Y-83415204D01*
X137452189Y-83512198D01*
X137467111Y-83552204D01*
X137554739Y-83669261D01*
X137671796Y-83756889D01*
X137771110Y-83793931D01*
X137808793Y-83807987D01*
X137808799Y-83807989D01*
X137823499Y-83809569D01*
X137888048Y-83836305D01*
X137927897Y-83893696D01*
X137930393Y-83963521D01*
X137894742Y-84023611D01*
X137881377Y-84034425D01*
X137873700Y-84039802D01*
X137873696Y-84039805D01*
X137711806Y-84201695D01*
X137580476Y-84389252D01*
X137580475Y-84389254D01*
X137483718Y-84596750D01*
X137483714Y-84596761D01*
X137424457Y-84817910D01*
X137424456Y-84817918D01*
X137404502Y-85045998D01*
X137404502Y-85046001D01*
X137424456Y-85274081D01*
X137424457Y-85274089D01*
X137483714Y-85495238D01*
X137483718Y-85495249D01*
X137553151Y-85644148D01*
X137580477Y-85702749D01*
X137711802Y-85890300D01*
X137873700Y-86052198D01*
X138037417Y-86166834D01*
X138061251Y-86183523D01*
X138104345Y-86203618D01*
X138156784Y-86249791D01*
X138175936Y-86316984D01*
X138155720Y-86383865D01*
X138104345Y-86428382D01*
X138061251Y-86448476D01*
X137961508Y-86518318D01*
X137873700Y-86579802D01*
X137873698Y-86579803D01*
X137873695Y-86579806D01*
X137711806Y-86741695D01*
X137580476Y-86929252D01*
X137580475Y-86929254D01*
X137483718Y-87136750D01*
X137483714Y-87136761D01*
X137424457Y-87357910D01*
X137424456Y-87357918D01*
X137404502Y-87585998D01*
X137404502Y-87586001D01*
X137424456Y-87814081D01*
X137424457Y-87814089D01*
X137483714Y-88035238D01*
X137483718Y-88035249D01*
X137560016Y-88198871D01*
X137580477Y-88242749D01*
X137711802Y-88430300D01*
X137873700Y-88592198D01*
X138061251Y-88723523D01*
X138104345Y-88743618D01*
X138156784Y-88789791D01*
X138175936Y-88856984D01*
X138155720Y-88923865D01*
X138104345Y-88968382D01*
X138061251Y-88988476D01*
X137961729Y-89058163D01*
X137873700Y-89119802D01*
X137873698Y-89119803D01*
X137873695Y-89119806D01*
X137711806Y-89281695D01*
X137711803Y-89281698D01*
X137711802Y-89281700D01*
X137692874Y-89308732D01*
X137580476Y-89469252D01*
X137580475Y-89469254D01*
X137483718Y-89676750D01*
X137483714Y-89676761D01*
X137424457Y-89897910D01*
X137424456Y-89897918D01*
X137404502Y-90125998D01*
X137404502Y-90126001D01*
X137424456Y-90354081D01*
X137424457Y-90354089D01*
X137483714Y-90575238D01*
X137483718Y-90575249D01*
X137534186Y-90683478D01*
X137580477Y-90782749D01*
X137711802Y-90970300D01*
X137873700Y-91132198D01*
X138061251Y-91263523D01*
X138104345Y-91283618D01*
X138156784Y-91329791D01*
X138175936Y-91396984D01*
X138155720Y-91463865D01*
X138104345Y-91508382D01*
X138061251Y-91528476D01*
X137936126Y-91616090D01*
X137873700Y-91659802D01*
X137873698Y-91659803D01*
X137873695Y-91659806D01*
X137711806Y-91821695D01*
X137711803Y-91821698D01*
X137711802Y-91821700D01*
X137692874Y-91848732D01*
X137580476Y-92009252D01*
X137580475Y-92009254D01*
X137483718Y-92216750D01*
X137483714Y-92216761D01*
X137424457Y-92437910D01*
X137424456Y-92437918D01*
X137404502Y-92665998D01*
X137404502Y-92666001D01*
X137424456Y-92894081D01*
X137424457Y-92894089D01*
X137483714Y-93115238D01*
X137483718Y-93115249D01*
X137580475Y-93322745D01*
X137580477Y-93322749D01*
X137711802Y-93510300D01*
X137873700Y-93672198D01*
X138061251Y-93803523D01*
X138104345Y-93823618D01*
X138156784Y-93869791D01*
X138175936Y-93936984D01*
X138155720Y-94003865D01*
X138104345Y-94048382D01*
X138061251Y-94068476D01*
X137936126Y-94156090D01*
X137873700Y-94199802D01*
X137873698Y-94199803D01*
X137873695Y-94199806D01*
X137711806Y-94361695D01*
X137711803Y-94361698D01*
X137711802Y-94361700D01*
X137692874Y-94388732D01*
X137580476Y-94549252D01*
X137580475Y-94549254D01*
X137483718Y-94756750D01*
X137483714Y-94756761D01*
X137424457Y-94977910D01*
X137424456Y-94977918D01*
X137404502Y-95205998D01*
X137404502Y-95206001D01*
X137424456Y-95434081D01*
X137424457Y-95434089D01*
X137483714Y-95655238D01*
X137483718Y-95655249D01*
X137580475Y-95862745D01*
X137580477Y-95862749D01*
X137711802Y-96050300D01*
X137873700Y-96212198D01*
X138061251Y-96343523D01*
X138104345Y-96363618D01*
X138156784Y-96409791D01*
X138175936Y-96476984D01*
X138155720Y-96543865D01*
X138104345Y-96588382D01*
X138061251Y-96608476D01*
X137936126Y-96696090D01*
X137873700Y-96739802D01*
X137873698Y-96739803D01*
X137873695Y-96739806D01*
X137711806Y-96901695D01*
X137711803Y-96901698D01*
X137711802Y-96901700D01*
X137692874Y-96928732D01*
X137580476Y-97089252D01*
X137580475Y-97089254D01*
X137483718Y-97296750D01*
X137483714Y-97296761D01*
X137424457Y-97517910D01*
X137424456Y-97517918D01*
X137404502Y-97745998D01*
X137404502Y-97746001D01*
X137424456Y-97974081D01*
X137424457Y-97974089D01*
X137483714Y-98195238D01*
X137483718Y-98195249D01*
X137580475Y-98402745D01*
X137580477Y-98402749D01*
X137711802Y-98590300D01*
X137873700Y-98752198D01*
X138061251Y-98883523D01*
X138104345Y-98903618D01*
X138156784Y-98949791D01*
X138175936Y-99016984D01*
X138155720Y-99083865D01*
X138104345Y-99128382D01*
X138061251Y-99148476D01*
X137936126Y-99236090D01*
X137873700Y-99279802D01*
X137873698Y-99279803D01*
X137873695Y-99279806D01*
X137711806Y-99441695D01*
X137711803Y-99441698D01*
X137711802Y-99441700D01*
X137692874Y-99468732D01*
X137580476Y-99629252D01*
X137580475Y-99629254D01*
X137483718Y-99836750D01*
X137483714Y-99836761D01*
X137424457Y-100057910D01*
X137424456Y-100057918D01*
X137404502Y-100285998D01*
X137404502Y-100286001D01*
X137424456Y-100514081D01*
X137424457Y-100514089D01*
X137483714Y-100735238D01*
X137483718Y-100735249D01*
X137580475Y-100942745D01*
X137580477Y-100942749D01*
X137711802Y-101130300D01*
X137873700Y-101292198D01*
X138061251Y-101423523D01*
X138104345Y-101443618D01*
X138156784Y-101489791D01*
X138175936Y-101556984D01*
X138155720Y-101623865D01*
X138104345Y-101668382D01*
X138061251Y-101688476D01*
X137936126Y-101776090D01*
X137873700Y-101819802D01*
X137873698Y-101819803D01*
X137873695Y-101819806D01*
X137711806Y-101981695D01*
X137711803Y-101981698D01*
X137711802Y-101981700D01*
X137692874Y-102008732D01*
X137580476Y-102169252D01*
X137580475Y-102169254D01*
X137483718Y-102376750D01*
X137483714Y-102376761D01*
X137424457Y-102597910D01*
X137424456Y-102597918D01*
X137404502Y-102825998D01*
X137404502Y-102826001D01*
X137424456Y-103054081D01*
X137424457Y-103054089D01*
X137483714Y-103275238D01*
X137483718Y-103275249D01*
X137580475Y-103482745D01*
X137580477Y-103482749D01*
X137711802Y-103670300D01*
X137873700Y-103832198D01*
X138061251Y-103963523D01*
X138104345Y-103983618D01*
X138156784Y-104029791D01*
X138175936Y-104096984D01*
X138155720Y-104163865D01*
X138104345Y-104208382D01*
X138061251Y-104228476D01*
X137936126Y-104316090D01*
X137873700Y-104359802D01*
X137873698Y-104359803D01*
X137873695Y-104359806D01*
X137711806Y-104521695D01*
X137711803Y-104521698D01*
X137711802Y-104521700D01*
X137692874Y-104548732D01*
X137580476Y-104709252D01*
X137580475Y-104709254D01*
X137483718Y-104916750D01*
X137483714Y-104916761D01*
X137424457Y-105137910D01*
X137424456Y-105137918D01*
X137404502Y-105365998D01*
X137404502Y-105366001D01*
X137424456Y-105594081D01*
X137424457Y-105594089D01*
X137483714Y-105815238D01*
X137483718Y-105815249D01*
X137580475Y-106022745D01*
X137580477Y-106022749D01*
X137711802Y-106210300D01*
X137873700Y-106372198D01*
X138061251Y-106503523D01*
X138104345Y-106523618D01*
X138156784Y-106569791D01*
X138175936Y-106636984D01*
X138155720Y-106703865D01*
X138104345Y-106748382D01*
X138061251Y-106768476D01*
X137936126Y-106856090D01*
X137873700Y-106899802D01*
X137873698Y-106899803D01*
X137873695Y-106899806D01*
X137711806Y-107061695D01*
X137711803Y-107061698D01*
X137711802Y-107061700D01*
X137692874Y-107088732D01*
X137580476Y-107249252D01*
X137580475Y-107249254D01*
X137483718Y-107456750D01*
X137483714Y-107456761D01*
X137424457Y-107677910D01*
X137424456Y-107677918D01*
X137404502Y-107905998D01*
X137404502Y-107906001D01*
X137424456Y-108134081D01*
X137424457Y-108134089D01*
X137483714Y-108355238D01*
X137483718Y-108355249D01*
X137580475Y-108562745D01*
X137580477Y-108562749D01*
X137711802Y-108750300D01*
X137873700Y-108912198D01*
X138061251Y-109043523D01*
X138104345Y-109063618D01*
X138156784Y-109109791D01*
X138175936Y-109176984D01*
X138155720Y-109243865D01*
X138104345Y-109288382D01*
X138061251Y-109308476D01*
X137936126Y-109396090D01*
X137873700Y-109439802D01*
X137873698Y-109439803D01*
X137873695Y-109439806D01*
X137711806Y-109601695D01*
X137711803Y-109601698D01*
X137711802Y-109601700D01*
X137692874Y-109628732D01*
X137580476Y-109789252D01*
X137580475Y-109789254D01*
X137483718Y-109996750D01*
X137483714Y-109996761D01*
X137424457Y-110217910D01*
X137424456Y-110217918D01*
X137404502Y-110445998D01*
X137404502Y-110446001D01*
X137424456Y-110674081D01*
X137424457Y-110674089D01*
X137483714Y-110895238D01*
X137483718Y-110895249D01*
X137580475Y-111102745D01*
X137580477Y-111102749D01*
X137711802Y-111290300D01*
X137873700Y-111452198D01*
X138061251Y-111583523D01*
X138104345Y-111603618D01*
X138156784Y-111649791D01*
X138175936Y-111716984D01*
X138155720Y-111783865D01*
X138104345Y-111828382D01*
X138061251Y-111848476D01*
X137936126Y-111936090D01*
X137873700Y-111979802D01*
X137873698Y-111979803D01*
X137873695Y-111979806D01*
X137711806Y-112141695D01*
X137711803Y-112141698D01*
X137711802Y-112141700D01*
X137692874Y-112168732D01*
X137580476Y-112329252D01*
X137580475Y-112329254D01*
X137483718Y-112536750D01*
X137483714Y-112536761D01*
X137424457Y-112757910D01*
X137424456Y-112757918D01*
X137404502Y-112985998D01*
X137404502Y-112986001D01*
X137424456Y-113214081D01*
X137424457Y-113214089D01*
X137483714Y-113435238D01*
X137483718Y-113435249D01*
X137580475Y-113642745D01*
X137580477Y-113642749D01*
X137711802Y-113830300D01*
X137873700Y-113992198D01*
X138061251Y-114123523D01*
X138104345Y-114143618D01*
X138156784Y-114189791D01*
X138175936Y-114256984D01*
X138155720Y-114323865D01*
X138104345Y-114368382D01*
X138061251Y-114388476D01*
X137936126Y-114476090D01*
X137873700Y-114519802D01*
X137873698Y-114519803D01*
X137873695Y-114519806D01*
X137711806Y-114681695D01*
X137711803Y-114681698D01*
X137711802Y-114681700D01*
X137692874Y-114708732D01*
X137580476Y-114869252D01*
X137580475Y-114869254D01*
X137483718Y-115076750D01*
X137483714Y-115076761D01*
X137424457Y-115297910D01*
X137424456Y-115297918D01*
X137404502Y-115525998D01*
X137404502Y-115526001D01*
X137424456Y-115754081D01*
X137424457Y-115754089D01*
X137483714Y-115975238D01*
X137483718Y-115975249D01*
X137580475Y-116182745D01*
X137580477Y-116182749D01*
X137711802Y-116370300D01*
X137873700Y-116532198D01*
X138061251Y-116663523D01*
X138104345Y-116683618D01*
X138156784Y-116729791D01*
X138175936Y-116796984D01*
X138155720Y-116863865D01*
X138104345Y-116908382D01*
X138061251Y-116928476D01*
X137936126Y-117016090D01*
X137873700Y-117059802D01*
X137873698Y-117059803D01*
X137873695Y-117059806D01*
X137711806Y-117221695D01*
X137711803Y-117221698D01*
X137711802Y-117221700D01*
X137692874Y-117248732D01*
X137580476Y-117409252D01*
X137580475Y-117409254D01*
X137483718Y-117616750D01*
X137483714Y-117616761D01*
X137424457Y-117837910D01*
X137424456Y-117837918D01*
X137404502Y-118065998D01*
X137404502Y-118066001D01*
X137086000Y-118066001D01*
X137086000Y-81718749D01*
X137088383Y-81694558D01*
X137100199Y-81635153D01*
X137102297Y-81627328D01*
X137132503Y-81538339D01*
X137182707Y-81390440D01*
X137185802Y-81382968D01*
X137296449Y-81158597D01*
X137300501Y-81151581D01*
X137439482Y-80943580D01*
X137444403Y-80937167D01*
X137609354Y-80749076D01*
X137615076Y-80743354D01*
X137803167Y-80578403D01*
X137809580Y-80573482D01*
X138017587Y-80434497D01*
X138024597Y-80430449D01*
X138248968Y-80319802D01*
X138256440Y-80316707D01*
X138404339Y-80266503D01*
X138493328Y-80236297D01*
X138501157Y-80234198D01*
X138560567Y-80222381D01*
X138584751Y-80220000D01*
X158623447Y-80220000D01*
X158647628Y-80222381D01*
G37*
%TD.AperFunction*%
%TD*%
M02*
