M48
; DRILL file {KiCad (5.1.5-0-10_14)} date Friday, 02 April 2021 at 15:47:37
; FORMAT={-:-/ absolute / inch / decimal}
; #@! TF.CreationDate,2021-04-02T15:47:37+01:00
; #@! TF.GenerationSoftware,Kicad,Pcbnew,(5.1.5-0-10_14)
; #@! TF.FileFunction,Plated,1,4,PTH
FMAT,2
INCH
T1C0.0157
T2C0.0315
T3C0.0320
T4C0.0394
T5C0.0400
%
G90
G05
T1
X4.2906Y-2.4287
X4.4035Y-2.4235
X4.5672Y-2.6704
X4.8768Y-4.0054
X4.877Y-3.9677
X4.9298Y-3.0711
X4.9328Y-3.1474
X5.005Y-3.1042
X5.0346Y-3.15
X5.0634Y-2.4249
X5.1464Y-3.4908
X5.1614Y-2.4249
X5.2049Y-2.5211
X5.2793Y-2.6693
X5.3172Y-2.6586
X5.3327Y-2.4839
X5.3588Y-2.5611
X5.3879Y-2.625
X5.4346Y-2.5857
X5.4923Y-2.5654
X6.5024Y-3.3571
X6.6344Y-3.6018
X6.661Y-3.9705
X6.686Y-3.4908
X6.8546Y-3.3275
X6.9436Y-3.3087
X6.9488Y-3.2589
X7.4536Y-3.6145
X7.5357Y-3.6145
X7.8191Y-4.2687
X8.041Y-2.897
X8.0436Y-3.0022
X8.0706Y-2.9565
X8.1255Y-2.9952
T2
X5.5118Y-4.8687
X5.6102Y-4.8687
X7.0609Y-2.1289
X7.0609Y-2.4289
X7.1609Y-2.1289
X7.1609Y-2.4289
X7.2609Y-2.1289
X7.2609Y-2.4289
X7.3609Y-2.1289
X7.3609Y-2.4289
X7.4609Y-2.1289
X7.4609Y-2.4289
X7.5609Y-2.1289
X7.5609Y-2.4289
X7.6609Y-2.1289
X7.6609Y-2.4289
X7.7609Y-2.1289
X7.7609Y-2.4289
X7.8609Y-2.1289
X7.8609Y-2.4289
X7.9609Y-2.1289
X7.9609Y-2.4289
X7.0609Y-2.5987
X7.0609Y-2.8987
X7.1609Y-2.5987
X7.1609Y-2.8987
X7.2609Y-2.5987
X7.2609Y-2.8987
X7.3609Y-2.5987
X7.3609Y-2.8987
X7.4609Y-2.5987
X7.4609Y-2.8987
X7.5609Y-2.5987
X7.5609Y-2.8987
X7.6609Y-2.5987
X7.6609Y-2.8987
X7.7609Y-2.5987
X7.7609Y-2.8987
X7.8609Y-2.5987
X7.8609Y-2.8987
X7.9609Y-2.5987
X7.9609Y-2.8987
X7.0606Y-3.0685
X7.0606Y-3.3685
X7.1606Y-3.0685
X7.1606Y-3.3685
X7.2606Y-3.0685
X7.2606Y-3.3685
X7.3606Y-3.0685
X7.3606Y-3.3685
X7.4606Y-3.0685
X7.4606Y-3.3685
X7.5606Y-3.0685
X7.5606Y-3.3685
X7.6606Y-3.0685
X7.6606Y-3.3685
X7.7606Y-3.0685
X7.7606Y-3.3685
X7.8606Y-3.0685
X7.8606Y-3.3685
X7.9606Y-3.0685
X7.9606Y-3.3685
X4.8562Y-2.8021
X4.9546Y-2.8021
X7.0609Y-4.2126
X7.0609Y-4.5126
X7.1609Y-4.2126
X7.1609Y-4.5126
X7.2609Y-4.2126
X7.2609Y-4.5126
X7.3609Y-4.2126
X7.3609Y-4.5126
X7.4609Y-4.2126
X7.4609Y-4.5126
X7.5609Y-4.2126
X7.5609Y-4.5126
X7.6609Y-4.2126
X7.6609Y-4.5126
X7.7609Y-4.2126
X7.7609Y-4.5126
X7.8609Y-4.2126
X7.8609Y-4.5126
X7.9609Y-4.2126
X7.9609Y-4.5126
X7.0609Y-3.6917
X7.0609Y-3.9917
X7.1609Y-3.6917
X7.1609Y-3.9917
X7.2609Y-3.6917
X7.2609Y-3.9917
X7.3609Y-3.6917
X7.3609Y-3.9917
X7.4609Y-3.6917
X7.4609Y-3.9917
X7.5609Y-3.6917
X7.5609Y-3.9917
X7.6609Y-3.6917
X7.6609Y-3.9917
X7.7609Y-3.6917
X7.7609Y-3.9917
X7.8609Y-3.6917
X7.8609Y-3.9917
X7.9609Y-3.6917
X7.9609Y-3.9917
T3
X6.8625Y-3.1681
X6.8625Y-3.2681
X4.4037Y-2.8021
X4.5037Y-2.8021
X7.0798Y-4.6671
X7.0798Y-5.0671
X6.1787Y-3.0618
X6.2787Y-3.0618
X7.5523Y-4.6671
X7.5523Y-5.0671
X7.9066Y-4.6671
X7.9066Y-5.0671
X6.8625Y-2.2285
X6.8625Y-2.3285
X6.8625Y-4.3122
X6.8625Y-4.4122
X7.4342Y-4.6671
X7.4342Y-5.0671
X7.7885Y-4.6671
X7.7885Y-5.0671
X5.3037Y-2.8021
X5.4037Y-2.8021
X6.8625Y-3.7913
X6.8625Y-3.8913
X7.3161Y-4.6671
X7.3161Y-5.0671
X6.1757Y-4.5232
X6.2757Y-4.5232
X6.8625Y-2.6983
X6.8625Y-2.7983
X7.6704Y-4.6671
X7.6704Y-5.0671
X7.198Y-4.6671
X7.198Y-5.0671
T4
X4.518Y-3.6267
X4.518Y-3.7267
X4.218Y-3.6267
X4.218Y-3.7267
X4.118Y-3.6267
X4.118Y-3.7267
X5.1027Y-2.1837
X5.1027Y-2.2837
X5.2027Y-2.1837
X5.2027Y-2.2837
X5.3027Y-2.1837
X5.3027Y-2.2837
X5.4027Y-2.1837
X5.4027Y-2.2837
X5.5027Y-2.1837
X5.5027Y-2.2837
X5.6027Y-2.1837
X5.6027Y-2.2837
X5.0121Y-3.7189
X5.0121Y-3.8189
X5.1121Y-3.7189
X5.1121Y-3.8189
X5.2121Y-3.7189
X5.2121Y-3.8189
X5.3121Y-3.7189
X5.3121Y-3.8189
X5.8754Y-2.4476
X5.8754Y-2.5476
X5.8754Y-2.6476
X5.8754Y-2.7476
X5.8754Y-2.8476
X5.8754Y-2.9476
X5.8754Y-3.0476
X5.8754Y-3.1476
X5.8754Y-3.2476
X5.8754Y-3.3476
X5.8754Y-3.4476
X5.8754Y-3.5476
X5.8754Y-3.6476
X5.8754Y-3.7476
X5.8754Y-3.8476
X5.8754Y-3.9476
X5.8754Y-4.0476
X5.8754Y-4.1476
X5.8754Y-4.2476
X5.8754Y-4.3476
X5.8754Y-4.4476
X5.8754Y-4.5476
X5.8754Y-4.6476
X5.8754Y-4.7476
X7.1622Y-3.5287
X7.2622Y-3.5287
X7.3622Y-3.5287
X7.4622Y-3.5287
X7.5622Y-3.5287
X7.6622Y-3.5287
X7.7622Y-3.5287
X7.8622Y-3.5287
X5.0121Y-3.2071
X5.0121Y-3.3071
X5.1121Y-3.2071
X5.1121Y-3.3071
X5.2121Y-3.2071
X5.2121Y-3.3071
X5.3121Y-3.2071
X5.3121Y-3.3071
X6.5761Y-2.4476
X6.5761Y-2.5476
X6.5761Y-2.6476
X6.5761Y-2.7476
X6.5761Y-2.8476
X6.5761Y-2.9476
X6.5761Y-3.0476
X6.5761Y-3.1476
X6.5761Y-3.2476
X6.5761Y-3.3476
X6.5761Y-3.4476
X6.5761Y-3.5476
X6.5761Y-3.6476
X6.5761Y-3.7476
X6.5761Y-3.8476
X6.5761Y-3.9476
X6.5761Y-4.0476
X6.5761Y-4.1476
X6.5761Y-4.2476
X6.5761Y-4.3476
X6.5761Y-4.4476
X6.5761Y-4.5476
X6.5761Y-4.6476
X6.5761Y-4.7476
X7.1614Y-1.9197
X7.2614Y-1.9197
X7.3614Y-1.9197
X7.4614Y-1.9197
X7.5614Y-1.9197
X7.6614Y-1.9197
X7.7614Y-1.9197
X7.8614Y-1.9197
X4.418Y-3.6267
X4.418Y-3.7267
X4.2027Y-2.1837
X4.2027Y-2.2837
X4.3027Y-2.1837
X4.3027Y-2.2837
X4.4027Y-2.1837
X4.4027Y-2.2837
X4.5027Y-2.1837
X4.5027Y-2.2837
X4.6027Y-2.1837
X4.6027Y-2.2837
X4.7027Y-2.1837
X4.7027Y-2.2837
X5.0121Y-4.2307
X5.0121Y-4.3307
X5.1121Y-4.2307
X5.1121Y-4.3307
X5.2121Y-4.2307
X5.2121Y-4.3307
X5.3121Y-4.2307
X5.3121Y-4.3307
X4.318Y-3.6267
X4.318Y-3.7267
X5.1302Y-4.6683
X5.1302Y-4.7683
X5.1302Y-4.8683
X5.1302Y-4.9683
X4.618Y-3.6267
X4.618Y-3.7267
X5.9705Y-1.9193
X6.0705Y-1.9193
X6.1705Y-1.9193
X6.2705Y-1.9193
X6.3705Y-1.9193
X6.4705Y-1.9193
X6.5705Y-1.9193
X6.6705Y-1.9193
T5
X8.2267Y-2.0317
X8.2267Y-2.1317
X8.2267Y-2.2317
X8.2267Y-2.3317
X8.2267Y-2.4317
X8.2267Y-2.5317
X8.2267Y-2.6317
X8.2267Y-2.7317
X8.2267Y-2.8317
X8.2267Y-2.9317
X8.2267Y-3.0317
X8.2267Y-3.1317
X8.2267Y-3.2317
X8.2267Y-3.3317
X8.2267Y-3.4317
X8.2267Y-3.5317
X8.2267Y-3.6317
X8.2267Y-3.7317
X8.2267Y-3.8317
X8.2267Y-3.9317
X8.2267Y-4.0317
X8.2267Y-4.1317
X8.2267Y-4.2317
X8.2267Y-4.3317
X8.2267Y-4.4317
X8.2267Y-4.5317
X8.2267Y-4.6317
X8.2267Y-4.7317
X8.2267Y-4.8317
X8.2267Y-4.9317
X8.2267Y-5.0317
X8.2267Y-5.1317
X8.3267Y-2.0317
X8.3267Y-2.1317
X8.3267Y-2.2317
X8.3267Y-2.3317
X8.3267Y-2.4317
X8.3267Y-2.5317
X8.3267Y-2.6317
X8.3267Y-2.7317
X8.3267Y-2.8317
X8.3267Y-2.9317
X8.3267Y-3.0317
X8.3267Y-3.1317
X8.3267Y-3.2317
X8.3267Y-3.3317
X8.3267Y-3.4317
X8.3267Y-3.5317
X8.3267Y-3.6317
X8.3267Y-3.7317
X8.3267Y-3.8317
X8.3267Y-3.9317
X8.3267Y-4.0317
X8.3267Y-4.1317
X8.3267Y-4.2317
X8.3267Y-4.3317
X8.3267Y-4.4317
X8.3267Y-4.5317
X8.3267Y-4.6317
X8.3267Y-4.7317
X8.3267Y-4.8317
X8.3267Y-4.9317
X8.3267Y-5.0317
X8.3267Y-5.1317
T0
M30
