G04 #@! TF.GenerationSoftware,KiCad,Pcbnew,(5.1.5-0-10_14)*
G04 #@! TF.CreationDate,2021-04-02T15:47:36+01:00*
G04 #@! TF.ProjectId,xosera,786f7365-7261-42e6-9b69-6361645f7063,rev?*
G04 #@! TF.SameCoordinates,Original*
G04 #@! TF.FileFunction,Legend,Top*
G04 #@! TF.FilePolarity,Positive*
%FSLAX46Y46*%
G04 Gerber Fmt 4.6, Leading zero omitted, Abs format (unit mm)*
G04 Created by KiCad (PCBNEW (5.1.5-0-10_14)) date 2021-04-02 15:47:36*
%MOMM*%
%LPD*%
G04 APERTURE LIST*
%ADD10C,0.150000*%
%ADD11C,0.500000*%
%ADD12C,0.120000*%
%ADD13C,0.300000*%
%ADD14C,0.152400*%
%ADD15C,0.254000*%
%ADD16C,0.100000*%
%ADD17C,0.120650*%
G04 APERTURE END LIST*
D10*
X141692880Y-63338095D02*
X141692880Y-62719047D01*
X142073833Y-63052380D01*
X142073833Y-62909523D01*
X142121452Y-62814285D01*
X142169071Y-62766666D01*
X142264309Y-62719047D01*
X142502404Y-62719047D01*
X142597642Y-62766666D01*
X142645261Y-62814285D01*
X142692880Y-62909523D01*
X142692880Y-63195238D01*
X142645261Y-63290476D01*
X142597642Y-63338095D01*
X141692880Y-62433333D02*
X142692880Y-62100000D01*
X141692880Y-61766666D01*
X141692880Y-61528571D02*
X141692880Y-60909523D01*
X142073833Y-61242857D01*
X142073833Y-61100000D01*
X142121452Y-61004761D01*
X142169071Y-60957142D01*
X142264309Y-60909523D01*
X142502404Y-60909523D01*
X142597642Y-60957142D01*
X142645261Y-61004761D01*
X142692880Y-61100000D01*
X142692880Y-61385714D01*
X142645261Y-61480952D01*
X142597642Y-61528571D01*
X139200500Y-62861904D02*
X139152880Y-62957142D01*
X139152880Y-63100000D01*
X139200500Y-63242857D01*
X139295738Y-63338095D01*
X139390976Y-63385714D01*
X139581452Y-63433333D01*
X139724309Y-63433333D01*
X139914785Y-63385714D01*
X140010023Y-63338095D01*
X140105261Y-63242857D01*
X140152880Y-63100000D01*
X140152880Y-63004761D01*
X140105261Y-62861904D01*
X140057642Y-62814285D01*
X139724309Y-62814285D01*
X139724309Y-63004761D01*
X140152880Y-62385714D02*
X139152880Y-62385714D01*
X140152880Y-61814285D01*
X139152880Y-61814285D01*
X140152880Y-61338095D02*
X139152880Y-61338095D01*
X139152880Y-61100000D01*
X139200500Y-60957142D01*
X139295738Y-60861904D01*
X139390976Y-60814285D01*
X139581452Y-60766666D01*
X139724309Y-60766666D01*
X139914785Y-60814285D01*
X140010023Y-60861904D01*
X140105261Y-60957142D01*
X140152880Y-61100000D01*
X140152880Y-61338095D01*
X136660500Y-60984285D02*
X136612880Y-61079523D01*
X136612880Y-61222380D01*
X136660500Y-61365238D01*
X136755738Y-61460476D01*
X136850976Y-61508095D01*
X137041452Y-61555714D01*
X137184309Y-61555714D01*
X137374785Y-61508095D01*
X137470023Y-61460476D01*
X137565261Y-61365238D01*
X137612880Y-61222380D01*
X137612880Y-61127142D01*
X137565261Y-60984285D01*
X137517642Y-60936666D01*
X137184309Y-60936666D01*
X137184309Y-61127142D01*
X136612880Y-60603333D02*
X136612880Y-59984285D01*
X136993833Y-60317619D01*
X136993833Y-60174761D01*
X137041452Y-60079523D01*
X137089071Y-60031904D01*
X137184309Y-59984285D01*
X137422404Y-59984285D01*
X137517642Y-60031904D01*
X137565261Y-60079523D01*
X137612880Y-60174761D01*
X137612880Y-60460476D01*
X137565261Y-60555714D01*
X137517642Y-60603333D01*
X137517642Y-63330475D02*
X137565261Y-63378094D01*
X137612880Y-63520951D01*
X137612880Y-63616189D01*
X137565261Y-63759046D01*
X137470023Y-63854284D01*
X137374785Y-63901903D01*
X137184309Y-63949522D01*
X137041452Y-63949522D01*
X136850976Y-63901903D01*
X136755738Y-63854284D01*
X136660500Y-63759046D01*
X136612880Y-63616189D01*
X136612880Y-63520951D01*
X136660500Y-63378094D01*
X136708119Y-63330475D01*
X137612880Y-62901903D02*
X136612880Y-62901903D01*
X137612880Y-62330475D02*
X137041452Y-62759046D01*
X136612880Y-62330475D02*
X137184309Y-62901903D01*
X134120500Y-60984285D02*
X134072880Y-61079523D01*
X134072880Y-61222380D01*
X134120500Y-61365238D01*
X134215738Y-61460476D01*
X134310976Y-61508095D01*
X134501452Y-61555714D01*
X134644309Y-61555714D01*
X134834785Y-61508095D01*
X134930023Y-61460476D01*
X135025261Y-61365238D01*
X135072880Y-61222380D01*
X135072880Y-61127142D01*
X135025261Y-60984285D01*
X134977642Y-60936666D01*
X134644309Y-60936666D01*
X134644309Y-61127142D01*
X134168119Y-60555714D02*
X134120500Y-60508095D01*
X134072880Y-60412857D01*
X134072880Y-60174761D01*
X134120500Y-60079523D01*
X134168119Y-60031904D01*
X134263357Y-59984285D01*
X134358595Y-59984285D01*
X134501452Y-60031904D01*
X135072880Y-60603333D01*
X135072880Y-59984285D01*
X134549071Y-63878095D02*
X134549071Y-63544761D01*
X135072880Y-63401904D02*
X135072880Y-63878095D01*
X134072880Y-63878095D01*
X134072880Y-63401904D01*
X135072880Y-62973333D02*
X134072880Y-62973333D01*
X135072880Y-62401904D01*
X134072880Y-62401904D01*
X131580500Y-60984285D02*
X131532880Y-61079523D01*
X131532880Y-61222380D01*
X131580500Y-61365238D01*
X131675738Y-61460476D01*
X131770976Y-61508095D01*
X131961452Y-61555714D01*
X132104309Y-61555714D01*
X132294785Y-61508095D01*
X132390023Y-61460476D01*
X132485261Y-61365238D01*
X132532880Y-61222380D01*
X132532880Y-61127142D01*
X132485261Y-60984285D01*
X132437642Y-60936666D01*
X132104309Y-60936666D01*
X132104309Y-61127142D01*
X132532880Y-59984285D02*
X132532880Y-60555714D01*
X132532880Y-60270000D02*
X131532880Y-60270000D01*
X131675738Y-60365238D01*
X131770976Y-60460476D01*
X131818595Y-60555714D01*
X131532880Y-63949522D02*
X132532880Y-63616189D01*
X131532880Y-63282856D01*
X132485261Y-62997141D02*
X132532880Y-62854284D01*
X132532880Y-62616189D01*
X132485261Y-62520951D01*
X132437642Y-62473332D01*
X132342404Y-62425713D01*
X132247166Y-62425713D01*
X132151928Y-62473332D01*
X132104309Y-62520951D01*
X132056690Y-62616189D01*
X132009071Y-62806665D01*
X131961452Y-62901903D01*
X131913833Y-62949522D01*
X131818595Y-62997141D01*
X131723357Y-62997141D01*
X131628119Y-62949522D01*
X131580500Y-62901903D01*
X131532880Y-62806665D01*
X131532880Y-62568570D01*
X131580500Y-62425713D01*
X129040500Y-60984285D02*
X128992880Y-61079523D01*
X128992880Y-61222380D01*
X129040500Y-61365238D01*
X129135738Y-61460476D01*
X129230976Y-61508095D01*
X129421452Y-61555714D01*
X129564309Y-61555714D01*
X129754785Y-61508095D01*
X129850023Y-61460476D01*
X129945261Y-61365238D01*
X129992880Y-61222380D01*
X129992880Y-61127142D01*
X129945261Y-60984285D01*
X129897642Y-60936666D01*
X129564309Y-60936666D01*
X129564309Y-61127142D01*
X128992880Y-60317619D02*
X128992880Y-60222380D01*
X129040500Y-60127142D01*
X129088119Y-60079523D01*
X129183357Y-60031904D01*
X129373833Y-59984285D01*
X129611928Y-59984285D01*
X129802404Y-60031904D01*
X129897642Y-60079523D01*
X129945261Y-60127142D01*
X129992880Y-60222380D01*
X129992880Y-60317619D01*
X129945261Y-60412857D01*
X129897642Y-60460476D01*
X129802404Y-60508095D01*
X129611928Y-60555714D01*
X129373833Y-60555714D01*
X129183357Y-60508095D01*
X129088119Y-60460476D01*
X129040500Y-60412857D01*
X128992880Y-60317619D01*
X129992880Y-63901903D02*
X128992880Y-63901903D01*
X129469071Y-63901903D02*
X129469071Y-63330475D01*
X129992880Y-63330475D02*
X128992880Y-63330475D01*
X129945261Y-62901903D02*
X129992880Y-62759046D01*
X129992880Y-62520951D01*
X129945261Y-62425713D01*
X129897642Y-62378094D01*
X129802404Y-62330475D01*
X129707166Y-62330475D01*
X129611928Y-62378094D01*
X129564309Y-62425713D01*
X129516690Y-62520951D01*
X129469071Y-62711427D01*
X129421452Y-62806665D01*
X129373833Y-62854284D01*
X129278595Y-62901903D01*
X129183357Y-62901903D01*
X129088119Y-62854284D01*
X129040500Y-62806665D01*
X128992880Y-62711427D01*
X128992880Y-62473332D01*
X129040500Y-62330475D01*
X118832880Y-63298095D02*
X118832880Y-62679047D01*
X119213833Y-63012380D01*
X119213833Y-62869523D01*
X119261452Y-62774285D01*
X119309071Y-62726666D01*
X119404309Y-62679047D01*
X119642404Y-62679047D01*
X119737642Y-62726666D01*
X119785261Y-62774285D01*
X119832880Y-62869523D01*
X119832880Y-63155238D01*
X119785261Y-63250476D01*
X119737642Y-63298095D01*
X118832880Y-62393333D02*
X119832880Y-62060000D01*
X118832880Y-61726666D01*
X118832880Y-61488571D02*
X118832880Y-60869523D01*
X119213833Y-61202857D01*
X119213833Y-61060000D01*
X119261452Y-60964761D01*
X119309071Y-60917142D01*
X119404309Y-60869523D01*
X119642404Y-60869523D01*
X119737642Y-60917142D01*
X119785261Y-60964761D01*
X119832880Y-61060000D01*
X119832880Y-61345714D01*
X119785261Y-61440952D01*
X119737642Y-61488571D01*
X116340500Y-62861904D02*
X116292880Y-62957142D01*
X116292880Y-63100000D01*
X116340500Y-63242857D01*
X116435738Y-63338095D01*
X116530976Y-63385714D01*
X116721452Y-63433333D01*
X116864309Y-63433333D01*
X117054785Y-63385714D01*
X117150023Y-63338095D01*
X117245261Y-63242857D01*
X117292880Y-63100000D01*
X117292880Y-63004761D01*
X117245261Y-62861904D01*
X117197642Y-62814285D01*
X116864309Y-62814285D01*
X116864309Y-63004761D01*
X117292880Y-62385714D02*
X116292880Y-62385714D01*
X117292880Y-61814285D01*
X116292880Y-61814285D01*
X117292880Y-61338095D02*
X116292880Y-61338095D01*
X116292880Y-61100000D01*
X116340500Y-60957142D01*
X116435738Y-60861904D01*
X116530976Y-60814285D01*
X116721452Y-60766666D01*
X116864309Y-60766666D01*
X117054785Y-60814285D01*
X117150023Y-60861904D01*
X117245261Y-60957142D01*
X117292880Y-61100000D01*
X117292880Y-61338095D01*
X114752880Y-60936666D02*
X114276690Y-61270000D01*
X114752880Y-61508095D02*
X113752880Y-61508095D01*
X113752880Y-61127142D01*
X113800500Y-61031904D01*
X113848119Y-60984285D01*
X113943357Y-60936666D01*
X114086214Y-60936666D01*
X114181452Y-60984285D01*
X114229071Y-61031904D01*
X114276690Y-61127142D01*
X114276690Y-61508095D01*
X113752880Y-60603333D02*
X113752880Y-59984285D01*
X114133833Y-60317619D01*
X114133833Y-60174761D01*
X114181452Y-60079523D01*
X114229071Y-60031904D01*
X114324309Y-59984285D01*
X114562404Y-59984285D01*
X114657642Y-60031904D01*
X114705261Y-60079523D01*
X114752880Y-60174761D01*
X114752880Y-60460476D01*
X114705261Y-60555714D01*
X114657642Y-60603333D01*
X114229071Y-63544761D02*
X114276690Y-63401904D01*
X114324309Y-63354285D01*
X114419547Y-63306666D01*
X114562404Y-63306666D01*
X114657642Y-63354285D01*
X114705261Y-63401904D01*
X114752880Y-63497142D01*
X114752880Y-63878095D01*
X113752880Y-63878095D01*
X113752880Y-63544761D01*
X113800500Y-63449523D01*
X113848119Y-63401904D01*
X113943357Y-63354285D01*
X114038595Y-63354285D01*
X114133833Y-63401904D01*
X114181452Y-63449523D01*
X114229071Y-63544761D01*
X114229071Y-63878095D01*
X113752880Y-62973333D02*
X113752880Y-62354285D01*
X114133833Y-62687619D01*
X114133833Y-62544761D01*
X114181452Y-62449523D01*
X114229071Y-62401904D01*
X114324309Y-62354285D01*
X114562404Y-62354285D01*
X114657642Y-62401904D01*
X114705261Y-62449523D01*
X114752880Y-62544761D01*
X114752880Y-62830476D01*
X114705261Y-62925714D01*
X114657642Y-62973333D01*
X112212880Y-60936666D02*
X111736690Y-61270000D01*
X112212880Y-61508095D02*
X111212880Y-61508095D01*
X111212880Y-61127142D01*
X111260500Y-61031904D01*
X111308119Y-60984285D01*
X111403357Y-60936666D01*
X111546214Y-60936666D01*
X111641452Y-60984285D01*
X111689071Y-61031904D01*
X111736690Y-61127142D01*
X111736690Y-61508095D01*
X111308119Y-60555714D02*
X111260500Y-60508095D01*
X111212880Y-60412857D01*
X111212880Y-60174761D01*
X111260500Y-60079523D01*
X111308119Y-60031904D01*
X111403357Y-59984285D01*
X111498595Y-59984285D01*
X111641452Y-60031904D01*
X112212880Y-60603333D01*
X112212880Y-59984285D01*
X111689071Y-63544761D02*
X111736690Y-63401904D01*
X111784309Y-63354285D01*
X111879547Y-63306666D01*
X112022404Y-63306666D01*
X112117642Y-63354285D01*
X112165261Y-63401904D01*
X112212880Y-63497142D01*
X112212880Y-63878095D01*
X111212880Y-63878095D01*
X111212880Y-63544761D01*
X111260500Y-63449523D01*
X111308119Y-63401904D01*
X111403357Y-63354285D01*
X111498595Y-63354285D01*
X111593833Y-63401904D01*
X111641452Y-63449523D01*
X111689071Y-63544761D01*
X111689071Y-63878095D01*
X111308119Y-62925714D02*
X111260500Y-62878095D01*
X111212880Y-62782857D01*
X111212880Y-62544761D01*
X111260500Y-62449523D01*
X111308119Y-62401904D01*
X111403357Y-62354285D01*
X111498595Y-62354285D01*
X111641452Y-62401904D01*
X112212880Y-62973333D01*
X112212880Y-62354285D01*
X109672880Y-60936666D02*
X109196690Y-61270000D01*
X109672880Y-61508095D02*
X108672880Y-61508095D01*
X108672880Y-61127142D01*
X108720500Y-61031904D01*
X108768119Y-60984285D01*
X108863357Y-60936666D01*
X109006214Y-60936666D01*
X109101452Y-60984285D01*
X109149071Y-61031904D01*
X109196690Y-61127142D01*
X109196690Y-61508095D01*
X109672880Y-59984285D02*
X109672880Y-60555714D01*
X109672880Y-60270000D02*
X108672880Y-60270000D01*
X108815738Y-60365238D01*
X108910976Y-60460476D01*
X108958595Y-60555714D01*
X107132880Y-60936666D02*
X106656690Y-61270000D01*
X107132880Y-61508095D02*
X106132880Y-61508095D01*
X106132880Y-61127142D01*
X106180500Y-61031904D01*
X106228119Y-60984285D01*
X106323357Y-60936666D01*
X106466214Y-60936666D01*
X106561452Y-60984285D01*
X106609071Y-61031904D01*
X106656690Y-61127142D01*
X106656690Y-61508095D01*
X106132880Y-60317619D02*
X106132880Y-60222380D01*
X106180500Y-60127142D01*
X106228119Y-60079523D01*
X106323357Y-60031904D01*
X106513833Y-59984285D01*
X106751928Y-59984285D01*
X106942404Y-60031904D01*
X107037642Y-60079523D01*
X107085261Y-60127142D01*
X107132880Y-60222380D01*
X107132880Y-60317619D01*
X107085261Y-60412857D01*
X107037642Y-60460476D01*
X106942404Y-60508095D01*
X106751928Y-60555714D01*
X106513833Y-60555714D01*
X106323357Y-60508095D01*
X106228119Y-60460476D01*
X106180500Y-60412857D01*
X106132880Y-60317619D01*
X109149071Y-63544761D02*
X109196690Y-63401904D01*
X109244309Y-63354285D01*
X109339547Y-63306666D01*
X109482404Y-63306666D01*
X109577642Y-63354285D01*
X109625261Y-63401904D01*
X109672880Y-63497142D01*
X109672880Y-63878095D01*
X108672880Y-63878095D01*
X108672880Y-63544761D01*
X108720500Y-63449523D01*
X108768119Y-63401904D01*
X108863357Y-63354285D01*
X108958595Y-63354285D01*
X109053833Y-63401904D01*
X109101452Y-63449523D01*
X109149071Y-63544761D01*
X109149071Y-63878095D01*
X109672880Y-62354285D02*
X109672880Y-62925714D01*
X109672880Y-62640000D02*
X108672880Y-62640000D01*
X108815738Y-62735238D01*
X108910976Y-62830476D01*
X108958595Y-62925714D01*
X106609071Y-63592380D02*
X106656690Y-63449523D01*
X106704309Y-63401904D01*
X106799547Y-63354285D01*
X106942404Y-63354285D01*
X107037642Y-63401904D01*
X107085261Y-63449523D01*
X107132880Y-63544761D01*
X107132880Y-63925714D01*
X106132880Y-63925714D01*
X106132880Y-63592380D01*
X106180500Y-63497142D01*
X106228119Y-63449523D01*
X106323357Y-63401904D01*
X106418595Y-63401904D01*
X106513833Y-63449523D01*
X106561452Y-63497142D01*
X106609071Y-63592380D01*
X106609071Y-63925714D01*
X106132880Y-62735238D02*
X106132880Y-62544761D01*
X106180500Y-62449523D01*
X106275738Y-62354285D01*
X106466214Y-62306666D01*
X106799547Y-62306666D01*
X106990023Y-62354285D01*
X107085261Y-62449523D01*
X107132880Y-62544761D01*
X107132880Y-62735238D01*
X107085261Y-62830476D01*
X106990023Y-62925714D01*
X106799547Y-62973333D01*
X106466214Y-62973333D01*
X106275738Y-62925714D01*
X106180500Y-62830476D01*
X106132880Y-62735238D01*
X200084880Y-91414285D02*
X200084880Y-91985714D01*
X200084880Y-91700000D02*
X199084880Y-91700000D01*
X199227738Y-91795238D01*
X199322976Y-91890476D01*
X199370595Y-91985714D01*
X181733452Y-91785238D02*
X181685833Y-91880476D01*
X181638214Y-91928095D01*
X181542976Y-91975714D01*
X181495357Y-91975714D01*
X181400119Y-91928095D01*
X181352500Y-91880476D01*
X181304880Y-91785238D01*
X181304880Y-91594761D01*
X181352500Y-91499523D01*
X181400119Y-91451904D01*
X181495357Y-91404285D01*
X181542976Y-91404285D01*
X181638214Y-91451904D01*
X181685833Y-91499523D01*
X181733452Y-91594761D01*
X181733452Y-91785238D01*
X181781071Y-91880476D01*
X181828690Y-91928095D01*
X181923928Y-91975714D01*
X182114404Y-91975714D01*
X182209642Y-91928095D01*
X182257261Y-91880476D01*
X182304880Y-91785238D01*
X182304880Y-91594761D01*
X182257261Y-91499523D01*
X182209642Y-91451904D01*
X182114404Y-91404285D01*
X181923928Y-91404285D01*
X181828690Y-91451904D01*
X181781071Y-91499523D01*
X181733452Y-91594761D01*
X200064880Y-45884285D02*
X200064880Y-46455714D01*
X200064880Y-46170000D02*
X199064880Y-46170000D01*
X199207738Y-46265238D01*
X199302976Y-46360476D01*
X199350595Y-46455714D01*
X181713452Y-46265238D02*
X181665833Y-46360476D01*
X181618214Y-46408095D01*
X181522976Y-46455714D01*
X181475357Y-46455714D01*
X181380119Y-46408095D01*
X181332500Y-46360476D01*
X181284880Y-46265238D01*
X181284880Y-46074761D01*
X181332500Y-45979523D01*
X181380119Y-45931904D01*
X181475357Y-45884285D01*
X181522976Y-45884285D01*
X181618214Y-45931904D01*
X181665833Y-45979523D01*
X181713452Y-46074761D01*
X181713452Y-46265238D01*
X181761071Y-46360476D01*
X181808690Y-46408095D01*
X181903928Y-46455714D01*
X182094404Y-46455714D01*
X182189642Y-46408095D01*
X182237261Y-46360476D01*
X182284880Y-46265238D01*
X182284880Y-46074761D01*
X182237261Y-45979523D01*
X182189642Y-45931904D01*
X182094404Y-45884285D01*
X181903928Y-45884285D01*
X181808690Y-45931904D01*
X181761071Y-45979523D01*
X181713452Y-46074761D01*
X151463452Y-46265238D02*
X151415833Y-46360476D01*
X151368214Y-46408095D01*
X151272976Y-46455714D01*
X151225357Y-46455714D01*
X151130119Y-46408095D01*
X151082500Y-46360476D01*
X151034880Y-46265238D01*
X151034880Y-46074761D01*
X151082500Y-45979523D01*
X151130119Y-45931904D01*
X151225357Y-45884285D01*
X151272976Y-45884285D01*
X151368214Y-45931904D01*
X151415833Y-45979523D01*
X151463452Y-46074761D01*
X151463452Y-46265238D01*
X151511071Y-46360476D01*
X151558690Y-46408095D01*
X151653928Y-46455714D01*
X151844404Y-46455714D01*
X151939642Y-46408095D01*
X151987261Y-46360476D01*
X152034880Y-46265238D01*
X152034880Y-46074761D01*
X151987261Y-45979523D01*
X151939642Y-45931904D01*
X151844404Y-45884285D01*
X151653928Y-45884285D01*
X151558690Y-45931904D01*
X151511071Y-45979523D01*
X151463452Y-46074761D01*
X169814880Y-45884285D02*
X169814880Y-46455714D01*
X169814880Y-46170000D02*
X168814880Y-46170000D01*
X168957738Y-46265238D01*
X169052976Y-46360476D01*
X169100595Y-46455714D01*
X188013095Y-82124880D02*
X188013095Y-81124880D01*
X188251190Y-81124880D01*
X188394047Y-81172500D01*
X188489285Y-81267738D01*
X188536904Y-81362976D01*
X188584523Y-81553452D01*
X188584523Y-81696309D01*
X188536904Y-81886785D01*
X188489285Y-81982023D01*
X188394047Y-82077261D01*
X188251190Y-82124880D01*
X188013095Y-82124880D01*
X189394047Y-82077261D02*
X189298809Y-82124880D01*
X189108333Y-82124880D01*
X189013095Y-82077261D01*
X188965476Y-81982023D01*
X188965476Y-81601071D01*
X189013095Y-81505833D01*
X189108333Y-81458214D01*
X189298809Y-81458214D01*
X189394047Y-81505833D01*
X189441666Y-81601071D01*
X189441666Y-81696309D01*
X188965476Y-81791547D01*
X190298809Y-82077261D02*
X190203571Y-82124880D01*
X190013095Y-82124880D01*
X189917857Y-82077261D01*
X189870238Y-82029642D01*
X189822619Y-81934404D01*
X189822619Y-81648690D01*
X189870238Y-81553452D01*
X189917857Y-81505833D01*
X190013095Y-81458214D01*
X190203571Y-81458214D01*
X190298809Y-81505833D01*
X190870238Y-82124880D02*
X190775000Y-82077261D01*
X190727380Y-82029642D01*
X190679761Y-81934404D01*
X190679761Y-81648690D01*
X190727380Y-81553452D01*
X190775000Y-81505833D01*
X190870238Y-81458214D01*
X191013095Y-81458214D01*
X191108333Y-81505833D01*
X191155952Y-81553452D01*
X191203571Y-81648690D01*
X191203571Y-81934404D01*
X191155952Y-82029642D01*
X191108333Y-82077261D01*
X191013095Y-82124880D01*
X190870238Y-82124880D01*
X192060714Y-82124880D02*
X192060714Y-81124880D01*
X192060714Y-82077261D02*
X191965476Y-82124880D01*
X191775000Y-82124880D01*
X191679761Y-82077261D01*
X191632142Y-82029642D01*
X191584523Y-81934404D01*
X191584523Y-81648690D01*
X191632142Y-81553452D01*
X191679761Y-81505833D01*
X191775000Y-81458214D01*
X191965476Y-81458214D01*
X192060714Y-81505833D01*
X192917857Y-82077261D02*
X192822619Y-82124880D01*
X192632142Y-82124880D01*
X192536904Y-82077261D01*
X192489285Y-81982023D01*
X192489285Y-81601071D01*
X192536904Y-81505833D01*
X192632142Y-81458214D01*
X192822619Y-81458214D01*
X192917857Y-81505833D01*
X192965476Y-81601071D01*
X192965476Y-81696309D01*
X192489285Y-81791547D01*
X193394047Y-82124880D02*
X193394047Y-81458214D01*
X193394047Y-81648690D02*
X193441666Y-81553452D01*
X193489285Y-81505833D01*
X193584523Y-81458214D01*
X193679761Y-81458214D01*
X187544904Y-69158000D02*
X187449666Y-69110380D01*
X187306809Y-69110380D01*
X187163952Y-69158000D01*
X187068714Y-69253238D01*
X187021095Y-69348476D01*
X186973476Y-69538952D01*
X186973476Y-69681809D01*
X187021095Y-69872285D01*
X187068714Y-69967523D01*
X187163952Y-70062761D01*
X187306809Y-70110380D01*
X187402047Y-70110380D01*
X187544904Y-70062761D01*
X187592523Y-70015142D01*
X187592523Y-69681809D01*
X187402047Y-69681809D01*
X188163952Y-70110380D02*
X188068714Y-70062761D01*
X188021095Y-69967523D01*
X188021095Y-69110380D01*
X188973476Y-69443714D02*
X188973476Y-70110380D01*
X188544904Y-69443714D02*
X188544904Y-69967523D01*
X188592523Y-70062761D01*
X188687761Y-70110380D01*
X188830619Y-70110380D01*
X188925857Y-70062761D01*
X188973476Y-70015142D01*
X189830619Y-70062761D02*
X189735380Y-70110380D01*
X189544904Y-70110380D01*
X189449666Y-70062761D01*
X189402047Y-69967523D01*
X189402047Y-69586571D01*
X189449666Y-69491333D01*
X189544904Y-69443714D01*
X189735380Y-69443714D01*
X189830619Y-69491333D01*
X189878238Y-69586571D01*
X189878238Y-69681809D01*
X189402047Y-69777047D01*
X191544904Y-70110380D02*
X191068714Y-70110380D01*
X191068714Y-69110380D01*
X192021095Y-70110380D02*
X191925857Y-70062761D01*
X191878238Y-70015142D01*
X191830619Y-69919904D01*
X191830619Y-69634190D01*
X191878238Y-69538952D01*
X191925857Y-69491333D01*
X192021095Y-69443714D01*
X192163952Y-69443714D01*
X192259190Y-69491333D01*
X192306809Y-69538952D01*
X192354428Y-69634190D01*
X192354428Y-69919904D01*
X192306809Y-70015142D01*
X192259190Y-70062761D01*
X192163952Y-70110380D01*
X192021095Y-70110380D01*
X193211571Y-69443714D02*
X193211571Y-70253238D01*
X193163952Y-70348476D01*
X193116333Y-70396095D01*
X193021095Y-70443714D01*
X192878238Y-70443714D01*
X192783000Y-70396095D01*
X193211571Y-70062761D02*
X193116333Y-70110380D01*
X192925857Y-70110380D01*
X192830619Y-70062761D01*
X192783000Y-70015142D01*
X192735380Y-69919904D01*
X192735380Y-69634190D01*
X192783000Y-69538952D01*
X192830619Y-69491333D01*
X192925857Y-69443714D01*
X193116333Y-69443714D01*
X193211571Y-69491333D01*
X193687761Y-70110380D02*
X193687761Y-69443714D01*
X193687761Y-69110380D02*
X193640142Y-69158000D01*
X193687761Y-69205619D01*
X193735380Y-69158000D01*
X193687761Y-69110380D01*
X193687761Y-69205619D01*
X194592523Y-70062761D02*
X194497285Y-70110380D01*
X194306809Y-70110380D01*
X194211571Y-70062761D01*
X194163952Y-70015142D01*
X194116333Y-69919904D01*
X194116333Y-69634190D01*
X194163952Y-69538952D01*
X194211571Y-69491333D01*
X194306809Y-69443714D01*
X194497285Y-69443714D01*
X194592523Y-69491333D01*
X187140142Y-57258880D02*
X187806809Y-57258880D01*
X187378238Y-58258880D01*
X188616333Y-57592214D02*
X188616333Y-58258880D01*
X188378238Y-57211261D02*
X188140142Y-57925547D01*
X188759190Y-57925547D01*
X189140142Y-58258880D02*
X189140142Y-57258880D01*
X189140142Y-57735071D02*
X189711571Y-57735071D01*
X189711571Y-58258880D02*
X189711571Y-57258880D01*
X190759190Y-58163642D02*
X190711571Y-58211261D01*
X190568714Y-58258880D01*
X190473476Y-58258880D01*
X190330619Y-58211261D01*
X190235380Y-58116023D01*
X190187761Y-58020785D01*
X190140142Y-57830309D01*
X190140142Y-57687452D01*
X190187761Y-57496976D01*
X190235380Y-57401738D01*
X190330619Y-57306500D01*
X190473476Y-57258880D01*
X190568714Y-57258880D01*
X190711571Y-57306500D01*
X190759190Y-57354119D01*
X191044904Y-57258880D02*
X191616333Y-57258880D01*
X191330619Y-58258880D02*
X191330619Y-57258880D01*
X191902047Y-57354119D02*
X191949666Y-57306500D01*
X192044904Y-57258880D01*
X192283000Y-57258880D01*
X192378238Y-57306500D01*
X192425857Y-57354119D01*
X192473476Y-57449357D01*
X192473476Y-57544595D01*
X192425857Y-57687452D01*
X191854428Y-58258880D01*
X192473476Y-58258880D01*
X193330619Y-57592214D02*
X193330619Y-58258880D01*
X193092523Y-57211261D02*
X192854428Y-57925547D01*
X193473476Y-57925547D01*
X194330619Y-57258880D02*
X193854428Y-57258880D01*
X193806809Y-57735071D01*
X193854428Y-57687452D01*
X193949666Y-57639833D01*
X194187761Y-57639833D01*
X194283000Y-57687452D01*
X194330619Y-57735071D01*
X194378238Y-57830309D01*
X194378238Y-58068404D01*
X194330619Y-58163642D01*
X194283000Y-58211261D01*
X194187761Y-58258880D01*
X193949666Y-58258880D01*
X193854428Y-58211261D01*
X193806809Y-58163642D01*
X187140142Y-110184880D02*
X187806809Y-110184880D01*
X187378238Y-111184880D01*
X188616333Y-110518214D02*
X188616333Y-111184880D01*
X188378238Y-110137261D02*
X188140142Y-110851547D01*
X188759190Y-110851547D01*
X189140142Y-111184880D02*
X189140142Y-110184880D01*
X189140142Y-110661071D02*
X189711571Y-110661071D01*
X189711571Y-111184880D02*
X189711571Y-110184880D01*
X190759190Y-111089642D02*
X190711571Y-111137261D01*
X190568714Y-111184880D01*
X190473476Y-111184880D01*
X190330619Y-111137261D01*
X190235380Y-111042023D01*
X190187761Y-110946785D01*
X190140142Y-110756309D01*
X190140142Y-110613452D01*
X190187761Y-110422976D01*
X190235380Y-110327738D01*
X190330619Y-110232500D01*
X190473476Y-110184880D01*
X190568714Y-110184880D01*
X190711571Y-110232500D01*
X190759190Y-110280119D01*
X191044904Y-110184880D02*
X191616333Y-110184880D01*
X191330619Y-111184880D02*
X191330619Y-110184880D01*
X191902047Y-110280119D02*
X191949666Y-110232500D01*
X192044904Y-110184880D01*
X192283000Y-110184880D01*
X192378238Y-110232500D01*
X192425857Y-110280119D01*
X192473476Y-110375357D01*
X192473476Y-110470595D01*
X192425857Y-110613452D01*
X191854428Y-111184880D01*
X192473476Y-111184880D01*
X193330619Y-110518214D02*
X193330619Y-111184880D01*
X193092523Y-110137261D02*
X192854428Y-110851547D01*
X193473476Y-110851547D01*
X194330619Y-110184880D02*
X193854428Y-110184880D01*
X193806809Y-110661071D01*
X193854428Y-110613452D01*
X193949666Y-110565833D01*
X194187761Y-110565833D01*
X194283000Y-110613452D01*
X194330619Y-110661071D01*
X194378238Y-110756309D01*
X194378238Y-110994404D01*
X194330619Y-111089642D01*
X194283000Y-111137261D01*
X194187761Y-111184880D01*
X193949666Y-111184880D01*
X193854428Y-111137261D01*
X193806809Y-111089642D01*
X187140142Y-96953380D02*
X187806809Y-96953380D01*
X187378238Y-97953380D01*
X188616333Y-97286714D02*
X188616333Y-97953380D01*
X188378238Y-96905761D02*
X188140142Y-97620047D01*
X188759190Y-97620047D01*
X189140142Y-97953380D02*
X189140142Y-96953380D01*
X189140142Y-97429571D02*
X189711571Y-97429571D01*
X189711571Y-97953380D02*
X189711571Y-96953380D01*
X190759190Y-97858142D02*
X190711571Y-97905761D01*
X190568714Y-97953380D01*
X190473476Y-97953380D01*
X190330619Y-97905761D01*
X190235380Y-97810523D01*
X190187761Y-97715285D01*
X190140142Y-97524809D01*
X190140142Y-97381952D01*
X190187761Y-97191476D01*
X190235380Y-97096238D01*
X190330619Y-97001000D01*
X190473476Y-96953380D01*
X190568714Y-96953380D01*
X190711571Y-97001000D01*
X190759190Y-97048619D01*
X191044904Y-96953380D02*
X191616333Y-96953380D01*
X191330619Y-97953380D02*
X191330619Y-96953380D01*
X191902047Y-97048619D02*
X191949666Y-97001000D01*
X192044904Y-96953380D01*
X192283000Y-96953380D01*
X192378238Y-97001000D01*
X192425857Y-97048619D01*
X192473476Y-97143857D01*
X192473476Y-97239095D01*
X192425857Y-97381952D01*
X191854428Y-97953380D01*
X192473476Y-97953380D01*
X193330619Y-97286714D02*
X193330619Y-97953380D01*
X193092523Y-96905761D02*
X192854428Y-97620047D01*
X193473476Y-97620047D01*
X194330619Y-96953380D02*
X193854428Y-96953380D01*
X193806809Y-97429571D01*
X193854428Y-97381952D01*
X193949666Y-97334333D01*
X194187761Y-97334333D01*
X194283000Y-97381952D01*
X194330619Y-97429571D01*
X194378238Y-97524809D01*
X194378238Y-97762904D01*
X194330619Y-97858142D01*
X194283000Y-97905761D01*
X194187761Y-97953380D01*
X193949666Y-97953380D01*
X193854428Y-97905761D01*
X193806809Y-97858142D01*
D11*
X156878761Y-100104285D02*
X158497809Y-100104285D01*
X158688285Y-100009047D01*
X158783523Y-99913809D01*
X158878761Y-99723333D01*
X158878761Y-99342380D01*
X158783523Y-99151904D01*
X158688285Y-99056666D01*
X158497809Y-98961428D01*
X156878761Y-98961428D01*
X157545428Y-98009047D02*
X159545428Y-98009047D01*
X157640666Y-98009047D02*
X157545428Y-97818571D01*
X157545428Y-97437619D01*
X157640666Y-97247142D01*
X157735904Y-97151904D01*
X157926380Y-97056666D01*
X158497809Y-97056666D01*
X158688285Y-97151904D01*
X158783523Y-97247142D01*
X158878761Y-97437619D01*
X158878761Y-97818571D01*
X158783523Y-98009047D01*
X158878761Y-95342380D02*
X156878761Y-95342380D01*
X158783523Y-95342380D02*
X158878761Y-95532857D01*
X158878761Y-95913809D01*
X158783523Y-96104285D01*
X158688285Y-96199523D01*
X158497809Y-96294761D01*
X157926380Y-96294761D01*
X157735904Y-96199523D01*
X157640666Y-96104285D01*
X157545428Y-95913809D01*
X157545428Y-95532857D01*
X157640666Y-95342380D01*
X157545428Y-93532857D02*
X158878761Y-93532857D01*
X157545428Y-94390000D02*
X158593047Y-94390000D01*
X158783523Y-94294761D01*
X158878761Y-94104285D01*
X158878761Y-93818571D01*
X158783523Y-93628095D01*
X158688285Y-93532857D01*
X158878761Y-92580476D02*
X157545428Y-92580476D01*
X156878761Y-92580476D02*
X156974000Y-92675714D01*
X157069238Y-92580476D01*
X156974000Y-92485238D01*
X156878761Y-92580476D01*
X157069238Y-92580476D01*
X157545428Y-91628095D02*
X158878761Y-91628095D01*
X157735904Y-91628095D02*
X157640666Y-91532857D01*
X157545428Y-91342380D01*
X157545428Y-91056666D01*
X157640666Y-90866190D01*
X157831142Y-90770952D01*
X158878761Y-90770952D01*
X158878761Y-89532857D02*
X158783523Y-89723333D01*
X158688285Y-89818571D01*
X158497809Y-89913809D01*
X157926380Y-89913809D01*
X157735904Y-89818571D01*
X157640666Y-89723333D01*
X157545428Y-89532857D01*
X157545428Y-89247142D01*
X157640666Y-89056666D01*
X157735904Y-88961428D01*
X157926380Y-88866190D01*
X158497809Y-88866190D01*
X158688285Y-88961428D01*
X158783523Y-89056666D01*
X158878761Y-89247142D01*
X158878761Y-89532857D01*
X156878761Y-86675714D02*
X156878761Y-85437619D01*
X157640666Y-86104285D01*
X157640666Y-85818571D01*
X157735904Y-85628095D01*
X157831142Y-85532857D01*
X158021619Y-85437619D01*
X158497809Y-85437619D01*
X158688285Y-85532857D01*
X158783523Y-85628095D01*
X158878761Y-85818571D01*
X158878761Y-86390000D01*
X158783523Y-86580476D01*
X158688285Y-86675714D01*
X158688285Y-84580476D02*
X158783523Y-84485238D01*
X158878761Y-84580476D01*
X158783523Y-84675714D01*
X158688285Y-84580476D01*
X158878761Y-84580476D01*
X156878761Y-83247142D02*
X156878761Y-83056666D01*
X156974000Y-82866190D01*
X157069238Y-82770952D01*
X157259714Y-82675714D01*
X157640666Y-82580476D01*
X158116857Y-82580476D01*
X158497809Y-82675714D01*
X158688285Y-82770952D01*
X158783523Y-82866190D01*
X158878761Y-83056666D01*
X158878761Y-83247142D01*
X158783523Y-83437619D01*
X158688285Y-83532857D01*
X158497809Y-83628095D01*
X158116857Y-83723333D01*
X157640666Y-83723333D01*
X157259714Y-83628095D01*
X157069238Y-83532857D01*
X156974000Y-83437619D01*
X156878761Y-83247142D01*
D10*
X135522380Y-79373809D02*
X134522380Y-79373809D01*
X135522380Y-78326190D02*
X135046190Y-78659523D01*
X135522380Y-78897619D02*
X134522380Y-78897619D01*
X134522380Y-78516666D01*
X134570000Y-78421428D01*
X134617619Y-78373809D01*
X134712857Y-78326190D01*
X134855714Y-78326190D01*
X134950952Y-78373809D01*
X134998571Y-78421428D01*
X135046190Y-78516666D01*
X135046190Y-78897619D01*
X135617619Y-77230952D02*
X135570000Y-77326190D01*
X135474761Y-77421428D01*
X135331904Y-77564285D01*
X135284285Y-77659523D01*
X135284285Y-77754761D01*
X135522380Y-77707142D02*
X135474761Y-77802380D01*
X135379523Y-77897619D01*
X135189047Y-77945238D01*
X134855714Y-77945238D01*
X134665238Y-77897619D01*
X134570000Y-77802380D01*
X134522380Y-77707142D01*
X134522380Y-77516666D01*
X134570000Y-77421428D01*
X134665238Y-77326190D01*
X134855714Y-77278571D01*
X135189047Y-77278571D01*
X135379523Y-77326190D01*
X135474761Y-77421428D01*
X135522380Y-77516666D01*
X135522380Y-77707142D01*
X129078095Y-78430000D02*
X128982857Y-78382380D01*
X128840000Y-78382380D01*
X128697142Y-78430000D01*
X128601904Y-78525238D01*
X128554285Y-78620476D01*
X128506666Y-78810952D01*
X128506666Y-78953809D01*
X128554285Y-79144285D01*
X128601904Y-79239523D01*
X128697142Y-79334761D01*
X128840000Y-79382380D01*
X128935238Y-79382380D01*
X129078095Y-79334761D01*
X129125714Y-79287142D01*
X129125714Y-78953809D01*
X128935238Y-78953809D01*
X129554285Y-79382380D02*
X129554285Y-78382380D01*
X130125714Y-79382380D01*
X130125714Y-78382380D01*
X130601904Y-79382380D02*
X130601904Y-78382380D01*
X130840000Y-78382380D01*
X130982857Y-78430000D01*
X131078095Y-78525238D01*
X131125714Y-78620476D01*
X131173333Y-78810952D01*
X131173333Y-78953809D01*
X131125714Y-79144285D01*
X131078095Y-79239523D01*
X130982857Y-79334761D01*
X130840000Y-79382380D01*
X130601904Y-79382380D01*
X134272380Y-87120476D02*
X134272380Y-87596666D01*
X134748571Y-87644285D01*
X134700952Y-87596666D01*
X134653333Y-87501428D01*
X134653333Y-87263333D01*
X134700952Y-87168095D01*
X134748571Y-87120476D01*
X134843809Y-87072857D01*
X135081904Y-87072857D01*
X135177142Y-87120476D01*
X135224761Y-87168095D01*
X135272380Y-87263333D01*
X135272380Y-87501428D01*
X135224761Y-87596666D01*
X135177142Y-87644285D01*
X134272380Y-86787142D02*
X135272380Y-86453809D01*
X134272380Y-86120476D01*
X131622380Y-88558095D02*
X131622380Y-87939047D01*
X132003333Y-88272380D01*
X132003333Y-88129523D01*
X132050952Y-88034285D01*
X132098571Y-87986666D01*
X132193809Y-87939047D01*
X132431904Y-87939047D01*
X132527142Y-87986666D01*
X132574761Y-88034285D01*
X132622380Y-88129523D01*
X132622380Y-88415238D01*
X132574761Y-88510476D01*
X132527142Y-88558095D01*
X131622380Y-87653333D02*
X132622380Y-87320000D01*
X131622380Y-86986666D01*
X131622380Y-86748571D02*
X131622380Y-86129523D01*
X132003333Y-86462857D01*
X132003333Y-86320000D01*
X132050952Y-86224761D01*
X132098571Y-86177142D01*
X132193809Y-86129523D01*
X132431904Y-86129523D01*
X132527142Y-86177142D01*
X132574761Y-86224761D01*
X132622380Y-86320000D01*
X132622380Y-86605714D01*
X132574761Y-86700952D01*
X132527142Y-86748571D01*
X129422380Y-87649523D02*
X130422380Y-87316190D01*
X129422380Y-86982857D01*
X130374761Y-86697142D02*
X130422380Y-86554285D01*
X130422380Y-86316190D01*
X130374761Y-86220952D01*
X130327142Y-86173333D01*
X130231904Y-86125714D01*
X130136666Y-86125714D01*
X130041428Y-86173333D01*
X129993809Y-86220952D01*
X129946190Y-86316190D01*
X129898571Y-86506666D01*
X129850952Y-86601904D01*
X129803333Y-86649523D01*
X129708095Y-86697142D01*
X129612857Y-86697142D01*
X129517619Y-86649523D01*
X129470000Y-86601904D01*
X129422380Y-86506666D01*
X129422380Y-86268571D01*
X129470000Y-86125714D01*
X127962380Y-87721904D02*
X126962380Y-87721904D01*
X127438571Y-87721904D02*
X127438571Y-87150476D01*
X127962380Y-87150476D02*
X126962380Y-87150476D01*
X127914761Y-86721904D02*
X127962380Y-86579047D01*
X127962380Y-86340952D01*
X127914761Y-86245714D01*
X127867142Y-86198095D01*
X127771904Y-86150476D01*
X127676666Y-86150476D01*
X127581428Y-86198095D01*
X127533809Y-86245714D01*
X127486190Y-86340952D01*
X127438571Y-86531428D01*
X127390952Y-86626666D01*
X127343333Y-86674285D01*
X127248095Y-86721904D01*
X127152857Y-86721904D01*
X127057619Y-86674285D01*
X127010000Y-86626666D01*
X126962380Y-86531428D01*
X126962380Y-86293333D01*
X127010000Y-86150476D01*
X134360500Y-114251904D02*
X134312880Y-114347142D01*
X134312880Y-114490000D01*
X134360500Y-114632857D01*
X134455738Y-114728095D01*
X134550976Y-114775714D01*
X134741452Y-114823333D01*
X134884309Y-114823333D01*
X135074785Y-114775714D01*
X135170023Y-114728095D01*
X135265261Y-114632857D01*
X135312880Y-114490000D01*
X135312880Y-114394761D01*
X135265261Y-114251904D01*
X135217642Y-114204285D01*
X134884309Y-114204285D01*
X134884309Y-114394761D01*
X135312880Y-113775714D02*
X134312880Y-113775714D01*
X135312880Y-113204285D01*
X134312880Y-113204285D01*
X135312880Y-112728095D02*
X134312880Y-112728095D01*
X134312880Y-112490000D01*
X134360500Y-112347142D01*
X134455738Y-112251904D01*
X134550976Y-112204285D01*
X134741452Y-112156666D01*
X134884309Y-112156666D01*
X135074785Y-112204285D01*
X135170023Y-112251904D01*
X135265261Y-112347142D01*
X135312880Y-112490000D01*
X135312880Y-112728095D01*
X131820500Y-114251904D02*
X131772880Y-114347142D01*
X131772880Y-114490000D01*
X131820500Y-114632857D01*
X131915738Y-114728095D01*
X132010976Y-114775714D01*
X132201452Y-114823333D01*
X132344309Y-114823333D01*
X132534785Y-114775714D01*
X132630023Y-114728095D01*
X132725261Y-114632857D01*
X132772880Y-114490000D01*
X132772880Y-114394761D01*
X132725261Y-114251904D01*
X132677642Y-114204285D01*
X132344309Y-114204285D01*
X132344309Y-114394761D01*
X132772880Y-113775714D02*
X131772880Y-113775714D01*
X132772880Y-113204285D01*
X131772880Y-113204285D01*
X132772880Y-112728095D02*
X131772880Y-112728095D01*
X131772880Y-112490000D01*
X131820500Y-112347142D01*
X131915738Y-112251904D01*
X132010976Y-112204285D01*
X132201452Y-112156666D01*
X132344309Y-112156666D01*
X132534785Y-112204285D01*
X132630023Y-112251904D01*
X132725261Y-112347142D01*
X132772880Y-112490000D01*
X132772880Y-112728095D01*
X134360500Y-104761904D02*
X134312880Y-104857142D01*
X134312880Y-105000000D01*
X134360500Y-105142857D01*
X134455738Y-105238095D01*
X134550976Y-105285714D01*
X134741452Y-105333333D01*
X134884309Y-105333333D01*
X135074785Y-105285714D01*
X135170023Y-105238095D01*
X135265261Y-105142857D01*
X135312880Y-105000000D01*
X135312880Y-104904761D01*
X135265261Y-104761904D01*
X135217642Y-104714285D01*
X134884309Y-104714285D01*
X134884309Y-104904761D01*
X135312880Y-104285714D02*
X134312880Y-104285714D01*
X135312880Y-103714285D01*
X134312880Y-103714285D01*
X135312880Y-103238095D02*
X134312880Y-103238095D01*
X134312880Y-103000000D01*
X134360500Y-102857142D01*
X134455738Y-102761904D01*
X134550976Y-102714285D01*
X134741452Y-102666666D01*
X134884309Y-102666666D01*
X135074785Y-102714285D01*
X135170023Y-102761904D01*
X135265261Y-102857142D01*
X135312880Y-103000000D01*
X135312880Y-103238095D01*
X131820500Y-104761904D02*
X131772880Y-104857142D01*
X131772880Y-105000000D01*
X131820500Y-105142857D01*
X131915738Y-105238095D01*
X132010976Y-105285714D01*
X132201452Y-105333333D01*
X132344309Y-105333333D01*
X132534785Y-105285714D01*
X132630023Y-105238095D01*
X132725261Y-105142857D01*
X132772880Y-105000000D01*
X132772880Y-104904761D01*
X132725261Y-104761904D01*
X132677642Y-104714285D01*
X132344309Y-104714285D01*
X132344309Y-104904761D01*
X132772880Y-104285714D02*
X131772880Y-104285714D01*
X132772880Y-103714285D01*
X131772880Y-103714285D01*
X132772880Y-103238095D02*
X131772880Y-103238095D01*
X131772880Y-103000000D01*
X131820500Y-102857142D01*
X131915738Y-102761904D01*
X132010976Y-102714285D01*
X132201452Y-102666666D01*
X132344309Y-102666666D01*
X132534785Y-102714285D01*
X132630023Y-102761904D01*
X132725261Y-102857142D01*
X132772880Y-103000000D01*
X132772880Y-103238095D01*
X134360500Y-91781904D02*
X134312880Y-91877142D01*
X134312880Y-92020000D01*
X134360500Y-92162857D01*
X134455738Y-92258095D01*
X134550976Y-92305714D01*
X134741452Y-92353333D01*
X134884309Y-92353333D01*
X135074785Y-92305714D01*
X135170023Y-92258095D01*
X135265261Y-92162857D01*
X135312880Y-92020000D01*
X135312880Y-91924761D01*
X135265261Y-91781904D01*
X135217642Y-91734285D01*
X134884309Y-91734285D01*
X134884309Y-91924761D01*
X135312880Y-91305714D02*
X134312880Y-91305714D01*
X135312880Y-90734285D01*
X134312880Y-90734285D01*
X135312880Y-90258095D02*
X134312880Y-90258095D01*
X134312880Y-90020000D01*
X134360500Y-89877142D01*
X134455738Y-89781904D01*
X134550976Y-89734285D01*
X134741452Y-89686666D01*
X134884309Y-89686666D01*
X135074785Y-89734285D01*
X135170023Y-89781904D01*
X135265261Y-89877142D01*
X135312880Y-90020000D01*
X135312880Y-90258095D01*
X131820500Y-91781904D02*
X131772880Y-91877142D01*
X131772880Y-92020000D01*
X131820500Y-92162857D01*
X131915738Y-92258095D01*
X132010976Y-92305714D01*
X132201452Y-92353333D01*
X132344309Y-92353333D01*
X132534785Y-92305714D01*
X132630023Y-92258095D01*
X132725261Y-92162857D01*
X132772880Y-92020000D01*
X132772880Y-91924761D01*
X132725261Y-91781904D01*
X132677642Y-91734285D01*
X132344309Y-91734285D01*
X132344309Y-91924761D01*
X132772880Y-91305714D02*
X131772880Y-91305714D01*
X132772880Y-90734285D01*
X131772880Y-90734285D01*
X132772880Y-90258095D02*
X131772880Y-90258095D01*
X131772880Y-90020000D01*
X131820500Y-89877142D01*
X131915738Y-89781904D01*
X132010976Y-89734285D01*
X132201452Y-89686666D01*
X132344309Y-89686666D01*
X132534785Y-89734285D01*
X132630023Y-89781904D01*
X132725261Y-89877142D01*
X132772880Y-90020000D01*
X132772880Y-90258095D01*
X134360500Y-101264761D02*
X134312880Y-101359999D01*
X134312880Y-101502857D01*
X134360500Y-101645714D01*
X134455738Y-101740952D01*
X134550976Y-101788571D01*
X134741452Y-101836190D01*
X134884309Y-101836190D01*
X135074785Y-101788571D01*
X135170023Y-101740952D01*
X135265261Y-101645714D01*
X135312880Y-101502857D01*
X135312880Y-101407618D01*
X135265261Y-101264761D01*
X135217642Y-101217142D01*
X134884309Y-101217142D01*
X134884309Y-101407618D01*
X135312880Y-100788571D02*
X134312880Y-100788571D01*
X135312880Y-100217142D01*
X134312880Y-100217142D01*
X135312880Y-99740952D02*
X134312880Y-99740952D01*
X134312880Y-99502857D01*
X134360500Y-99359999D01*
X134455738Y-99264761D01*
X134550976Y-99217142D01*
X134741452Y-99169523D01*
X134884309Y-99169523D01*
X135074785Y-99217142D01*
X135170023Y-99264761D01*
X135265261Y-99359999D01*
X135312880Y-99502857D01*
X135312880Y-99740952D01*
X131820500Y-101264761D02*
X131772880Y-101359999D01*
X131772880Y-101502857D01*
X131820500Y-101645714D01*
X131915738Y-101740952D01*
X132010976Y-101788571D01*
X132201452Y-101836190D01*
X132344309Y-101836190D01*
X132534785Y-101788571D01*
X132630023Y-101740952D01*
X132725261Y-101645714D01*
X132772880Y-101502857D01*
X132772880Y-101407618D01*
X132725261Y-101264761D01*
X132677642Y-101217142D01*
X132344309Y-101217142D01*
X132344309Y-101407618D01*
X132772880Y-100788571D02*
X131772880Y-100788571D01*
X132772880Y-100217142D01*
X131772880Y-100217142D01*
X132772880Y-99740952D02*
X131772880Y-99740952D01*
X131772880Y-99502857D01*
X131820500Y-99359999D01*
X131915738Y-99264761D01*
X132010976Y-99217142D01*
X132201452Y-99169523D01*
X132344309Y-99169523D01*
X132534785Y-99217142D01*
X132630023Y-99264761D01*
X132725261Y-99359999D01*
X132772880Y-99502857D01*
X132772880Y-99740952D01*
X129232880Y-92400952D02*
X129232880Y-91781904D01*
X129613833Y-92115237D01*
X129613833Y-91972380D01*
X129661452Y-91877142D01*
X129709071Y-91829523D01*
X129804309Y-91781904D01*
X130042404Y-91781904D01*
X130137642Y-91829523D01*
X130185261Y-91877142D01*
X130232880Y-91972380D01*
X130232880Y-92258095D01*
X130185261Y-92353333D01*
X130137642Y-92400952D01*
X129232880Y-91496190D02*
X130232880Y-91162857D01*
X129232880Y-90829523D01*
X129232880Y-90591428D02*
X129232880Y-89972380D01*
X129613833Y-90305714D01*
X129613833Y-90162857D01*
X129661452Y-90067618D01*
X129709071Y-90019999D01*
X129804309Y-89972380D01*
X130042404Y-89972380D01*
X130137642Y-90019999D01*
X130185261Y-90067618D01*
X130232880Y-90162857D01*
X130232880Y-90448571D01*
X130185261Y-90543809D01*
X130137642Y-90591428D01*
X126692880Y-92400952D02*
X126692880Y-91781904D01*
X127073833Y-92115237D01*
X127073833Y-91972380D01*
X127121452Y-91877142D01*
X127169071Y-91829523D01*
X127264309Y-91781904D01*
X127502404Y-91781904D01*
X127597642Y-91829523D01*
X127645261Y-91877142D01*
X127692880Y-91972380D01*
X127692880Y-92258095D01*
X127645261Y-92353333D01*
X127597642Y-92400952D01*
X126692880Y-91496190D02*
X127692880Y-91162857D01*
X126692880Y-90829523D01*
X126692880Y-90591428D02*
X126692880Y-89972380D01*
X127073833Y-90305714D01*
X127073833Y-90162857D01*
X127121452Y-90067618D01*
X127169071Y-90019999D01*
X127264309Y-89972380D01*
X127502404Y-89972380D01*
X127597642Y-90019999D01*
X127645261Y-90067618D01*
X127692880Y-90162857D01*
X127692880Y-90448571D01*
X127645261Y-90543809D01*
X127597642Y-90591428D01*
X129232880Y-101598095D02*
X129232880Y-100979047D01*
X129613833Y-101312380D01*
X129613833Y-101169523D01*
X129661452Y-101074285D01*
X129709071Y-101026666D01*
X129804309Y-100979047D01*
X130042404Y-100979047D01*
X130137642Y-101026666D01*
X130185261Y-101074285D01*
X130232880Y-101169523D01*
X130232880Y-101455238D01*
X130185261Y-101550476D01*
X130137642Y-101598095D01*
X129232880Y-100693333D02*
X130232880Y-100360000D01*
X129232880Y-100026666D01*
X129232880Y-99788571D02*
X129232880Y-99169523D01*
X129613833Y-99502857D01*
X129613833Y-99360000D01*
X129661452Y-99264761D01*
X129709071Y-99217142D01*
X129804309Y-99169523D01*
X130042404Y-99169523D01*
X130137642Y-99217142D01*
X130185261Y-99264761D01*
X130232880Y-99360000D01*
X130232880Y-99645714D01*
X130185261Y-99740952D01*
X130137642Y-99788571D01*
X126692880Y-101598095D02*
X126692880Y-100979047D01*
X127073833Y-101312380D01*
X127073833Y-101169523D01*
X127121452Y-101074285D01*
X127169071Y-101026666D01*
X127264309Y-100979047D01*
X127502404Y-100979047D01*
X127597642Y-101026666D01*
X127645261Y-101074285D01*
X127692880Y-101169523D01*
X127692880Y-101455238D01*
X127645261Y-101550476D01*
X127597642Y-101598095D01*
X126692880Y-100693333D02*
X127692880Y-100360000D01*
X126692880Y-100026666D01*
X126692880Y-99788571D02*
X126692880Y-99169523D01*
X127073833Y-99502857D01*
X127073833Y-99360000D01*
X127121452Y-99264761D01*
X127169071Y-99217142D01*
X127264309Y-99169523D01*
X127502404Y-99169523D01*
X127597642Y-99217142D01*
X127645261Y-99264761D01*
X127692880Y-99360000D01*
X127692880Y-99645714D01*
X127645261Y-99740952D01*
X127597642Y-99788571D01*
X129232880Y-113061428D02*
X129232880Y-113537618D01*
X129709071Y-113585237D01*
X129661452Y-113537618D01*
X129613833Y-113442380D01*
X129613833Y-113204285D01*
X129661452Y-113109047D01*
X129709071Y-113061428D01*
X129804309Y-113013809D01*
X130042404Y-113013809D01*
X130137642Y-113061428D01*
X130185261Y-113109047D01*
X130232880Y-113204285D01*
X130232880Y-113442380D01*
X130185261Y-113537618D01*
X130137642Y-113585237D01*
X129232880Y-112728094D02*
X130232880Y-112394761D01*
X129232880Y-112061428D01*
X126692880Y-113061428D02*
X126692880Y-113537618D01*
X127169071Y-113585237D01*
X127121452Y-113537618D01*
X127073833Y-113442380D01*
X127073833Y-113204285D01*
X127121452Y-113109047D01*
X127169071Y-113061428D01*
X127264309Y-113013809D01*
X127502404Y-113013809D01*
X127597642Y-113061428D01*
X127645261Y-113109047D01*
X127692880Y-113204285D01*
X127692880Y-113442380D01*
X127645261Y-113537618D01*
X127597642Y-113585237D01*
X126692880Y-112728094D02*
X127692880Y-112394761D01*
X126692880Y-112061428D01*
X129232880Y-104809523D02*
X129232880Y-105285713D01*
X129709071Y-105333332D01*
X129661452Y-105285713D01*
X129613833Y-105190475D01*
X129613833Y-104952380D01*
X129661452Y-104857142D01*
X129709071Y-104809523D01*
X129804309Y-104761904D01*
X130042404Y-104761904D01*
X130137642Y-104809523D01*
X130185261Y-104857142D01*
X130232880Y-104952380D01*
X130232880Y-105190475D01*
X130185261Y-105285713D01*
X130137642Y-105333332D01*
X129232880Y-104476189D02*
X130232880Y-104142856D01*
X129232880Y-103809523D01*
X126692880Y-104809523D02*
X126692880Y-105285713D01*
X127169071Y-105333332D01*
X127121452Y-105285713D01*
X127073833Y-105190475D01*
X127073833Y-104952380D01*
X127121452Y-104857142D01*
X127169071Y-104809523D01*
X127264309Y-104761904D01*
X127502404Y-104761904D01*
X127597642Y-104809523D01*
X127645261Y-104857142D01*
X127692880Y-104952380D01*
X127692880Y-105190475D01*
X127645261Y-105285713D01*
X127597642Y-105333332D01*
X126692880Y-104476189D02*
X127692880Y-104142856D01*
X126692880Y-103809523D01*
X132500000Y-123193523D02*
X132452380Y-123288761D01*
X132452380Y-123431619D01*
X132500000Y-123574476D01*
X132595238Y-123669714D01*
X132690476Y-123717333D01*
X132880952Y-123764952D01*
X133023809Y-123764952D01*
X133214285Y-123717333D01*
X133309523Y-123669714D01*
X133404761Y-123574476D01*
X133452380Y-123431619D01*
X133452380Y-123336380D01*
X133404761Y-123193523D01*
X133357142Y-123145904D01*
X133023809Y-123145904D01*
X133023809Y-123336380D01*
X133452380Y-122717333D02*
X132452380Y-122717333D01*
X133452380Y-122145904D01*
X132452380Y-122145904D01*
X133452380Y-121669714D02*
X132452380Y-121669714D01*
X132452380Y-121431619D01*
X132500000Y-121288761D01*
X132595238Y-121193523D01*
X132690476Y-121145904D01*
X132880952Y-121098285D01*
X133023809Y-121098285D01*
X133214285Y-121145904D01*
X133309523Y-121193523D01*
X133404761Y-121288761D01*
X133452380Y-121431619D01*
X133452380Y-121669714D01*
X133452380Y-118264476D02*
X132976190Y-118597809D01*
X133452380Y-118835904D02*
X132452380Y-118835904D01*
X132452380Y-118454952D01*
X132500000Y-118359714D01*
X132547619Y-118312095D01*
X132642857Y-118264476D01*
X132785714Y-118264476D01*
X132880952Y-118312095D01*
X132928571Y-118359714D01*
X132976190Y-118454952D01*
X132976190Y-118835904D01*
X133452380Y-125884476D02*
X133452380Y-126360666D01*
X132452380Y-126360666D01*
D12*
X121000000Y-107000000D02*
X121000000Y-137000000D01*
X99000000Y-107000000D02*
X121000000Y-107000000D01*
D13*
X110415714Y-133714285D02*
X110344285Y-133857142D01*
X110344285Y-134142857D01*
X110415714Y-134285714D01*
X110558571Y-134428571D01*
X110701428Y-134500000D01*
X110987142Y-134500000D01*
X111130000Y-134428571D01*
X111272857Y-134285714D01*
X111344285Y-134142857D01*
X111344285Y-133857142D01*
X111272857Y-133714285D01*
X109844285Y-134000000D02*
X109915714Y-134357142D01*
X110130000Y-134714285D01*
X110487142Y-134928571D01*
X110844285Y-135000000D01*
X111201428Y-134928571D01*
X111558571Y-134714285D01*
X111772857Y-134357142D01*
X111844285Y-134000000D01*
X111772857Y-133642857D01*
X111558571Y-133285714D01*
X111201428Y-133071428D01*
X110844285Y-133000000D01*
X110487142Y-133071428D01*
X110130000Y-133285714D01*
X109915714Y-133642857D01*
X109844285Y-134000000D01*
X110058571Y-131357142D02*
X111558571Y-130357142D01*
X110058571Y-130357142D02*
X111558571Y-131357142D01*
X111558571Y-129142857D02*
X110772857Y-129142857D01*
X110630000Y-129214285D01*
X110558571Y-129357142D01*
X110558571Y-129642857D01*
X110630000Y-129785714D01*
X111487142Y-129142857D02*
X111558571Y-129285714D01*
X111558571Y-129642857D01*
X111487142Y-129785714D01*
X111344285Y-129857142D01*
X111201428Y-129857142D01*
X111058571Y-129785714D01*
X110987142Y-129642857D01*
X110987142Y-129285714D01*
X110915714Y-129142857D01*
X111558571Y-128428571D02*
X110558571Y-128428571D01*
X110844285Y-128428571D02*
X110701428Y-128357142D01*
X110630000Y-128285714D01*
X110558571Y-128142857D01*
X110558571Y-128000000D01*
X111558571Y-127500000D02*
X110058571Y-127500000D01*
X110987142Y-127357142D02*
X111558571Y-126928571D01*
X110558571Y-126928571D02*
X111130000Y-127500000D01*
X111558571Y-123928571D02*
X111558571Y-124000000D01*
X111487142Y-124142857D01*
X111272857Y-124357142D01*
X110844285Y-124714285D01*
X110630000Y-124857142D01*
X110415714Y-124928571D01*
X110272857Y-124928571D01*
X110130000Y-124857142D01*
X110058571Y-124714285D01*
X110058571Y-124642857D01*
X110130000Y-124500000D01*
X110272857Y-124428571D01*
X110344285Y-124428571D01*
X110487142Y-124500000D01*
X110558571Y-124571428D01*
X110844285Y-125000000D01*
X110915714Y-125071428D01*
X111058571Y-125142857D01*
X111272857Y-125142857D01*
X111415714Y-125071428D01*
X111487142Y-125000000D01*
X111558571Y-124857142D01*
X111558571Y-124642857D01*
X111487142Y-124500000D01*
X111415714Y-124428571D01*
X111130000Y-124214285D01*
X110915714Y-124142857D01*
X110772857Y-124142857D01*
X111415714Y-121285714D02*
X111487142Y-121357142D01*
X111558571Y-121571428D01*
X111558571Y-121714285D01*
X111487142Y-121928571D01*
X111344285Y-122071428D01*
X111201428Y-122142857D01*
X110915714Y-122214285D01*
X110701428Y-122214285D01*
X110415714Y-122142857D01*
X110272857Y-122071428D01*
X110130000Y-121928571D01*
X110058571Y-121714285D01*
X110058571Y-121571428D01*
X110130000Y-121357142D01*
X110201428Y-121285714D01*
X111558571Y-120428571D02*
X111487142Y-120571428D01*
X111415714Y-120642857D01*
X111272857Y-120714285D01*
X110844285Y-120714285D01*
X110701428Y-120642857D01*
X110630000Y-120571428D01*
X110558571Y-120428571D01*
X110558571Y-120214285D01*
X110630000Y-120071428D01*
X110701428Y-120000000D01*
X110844285Y-119928571D01*
X111272857Y-119928571D01*
X111415714Y-120000000D01*
X111487142Y-120071428D01*
X111558571Y-120214285D01*
X111558571Y-120428571D01*
X110558571Y-119285714D02*
X111558571Y-119285714D01*
X110701428Y-119285714D02*
X110630000Y-119214285D01*
X110558571Y-119071428D01*
X110558571Y-118857142D01*
X110630000Y-118714285D01*
X110772857Y-118642857D01*
X111558571Y-118642857D01*
X110558571Y-118142857D02*
X110558571Y-117571428D01*
X110058571Y-117928571D02*
X111344285Y-117928571D01*
X111487142Y-117857142D01*
X111558571Y-117714285D01*
X111558571Y-117571428D01*
X111558571Y-117071428D02*
X110558571Y-117071428D01*
X110844285Y-117071428D02*
X110701428Y-117000000D01*
X110630000Y-116928571D01*
X110558571Y-116785714D01*
X110558571Y-116642857D01*
X111558571Y-116142857D02*
X110558571Y-116142857D01*
X110058571Y-116142857D02*
X110130000Y-116214285D01*
X110201428Y-116142857D01*
X110130000Y-116071428D01*
X110058571Y-116142857D01*
X110201428Y-116142857D01*
X111558571Y-115428571D02*
X110058571Y-115428571D01*
X110630000Y-115428571D02*
X110558571Y-115285714D01*
X110558571Y-115000000D01*
X110630000Y-114857142D01*
X110701428Y-114785714D01*
X110844285Y-114714285D01*
X111272857Y-114714285D01*
X111415714Y-114785714D01*
X111487142Y-114857142D01*
X111558571Y-115000000D01*
X111558571Y-115285714D01*
X111487142Y-115428571D01*
X110558571Y-113428571D02*
X111558571Y-113428571D01*
X110558571Y-114071428D02*
X111344285Y-114071428D01*
X111487142Y-114000000D01*
X111558571Y-113857142D01*
X111558571Y-113642857D01*
X111487142Y-113500000D01*
X111415714Y-113428571D01*
X110558571Y-112928571D02*
X110558571Y-112357142D01*
X110058571Y-112714285D02*
X111344285Y-112714285D01*
X111487142Y-112642857D01*
X111558571Y-112500000D01*
X111558571Y-112357142D01*
X111558571Y-111642857D02*
X111487142Y-111785714D01*
X111415714Y-111857142D01*
X111272857Y-111928571D01*
X110844285Y-111928571D01*
X110701428Y-111857142D01*
X110630000Y-111785714D01*
X110558571Y-111642857D01*
X110558571Y-111428571D01*
X110630000Y-111285714D01*
X110701428Y-111214285D01*
X110844285Y-111142857D01*
X111272857Y-111142857D01*
X111415714Y-111214285D01*
X111487142Y-111285714D01*
X111558571Y-111428571D01*
X111558571Y-111642857D01*
X111558571Y-110500000D02*
X110558571Y-110500000D01*
X110844285Y-110500000D02*
X110701428Y-110428571D01*
X110630000Y-110357142D01*
X110558571Y-110214285D01*
X110558571Y-110071428D01*
X111487142Y-109642857D02*
X111558571Y-109500000D01*
X111558571Y-109214285D01*
X111487142Y-109071428D01*
X111344285Y-109000000D01*
X111272857Y-109000000D01*
X111130000Y-109071428D01*
X111058571Y-109214285D01*
X111058571Y-109428571D01*
X110987142Y-109571428D01*
X110844285Y-109642857D01*
X110772857Y-109642857D01*
X110630000Y-109571428D01*
X110558571Y-109428571D01*
X110558571Y-109214285D01*
X110630000Y-109071428D01*
X118250000Y-127678571D02*
X118250000Y-126964285D01*
X118678571Y-127821428D02*
X117178571Y-127321428D01*
X118678571Y-126821428D01*
X117678571Y-126321428D02*
X119178571Y-126321428D01*
X117750000Y-126321428D02*
X117678571Y-126178571D01*
X117678571Y-125892857D01*
X117750000Y-125750000D01*
X117821428Y-125678571D01*
X117964285Y-125607142D01*
X118392857Y-125607142D01*
X118535714Y-125678571D01*
X118607142Y-125750000D01*
X118678571Y-125892857D01*
X118678571Y-126178571D01*
X118607142Y-126321428D01*
X118678571Y-124964285D02*
X117678571Y-124964285D01*
X117964285Y-124964285D02*
X117821428Y-124892857D01*
X117750000Y-124821428D01*
X117678571Y-124678571D01*
X117678571Y-124535714D01*
X118678571Y-124035714D02*
X117678571Y-124035714D01*
X117178571Y-124035714D02*
X117250000Y-124107142D01*
X117321428Y-124035714D01*
X117250000Y-123964285D01*
X117178571Y-124035714D01*
X117321428Y-124035714D01*
X118678571Y-123107142D02*
X118607142Y-123250000D01*
X118464285Y-123321428D01*
X117178571Y-123321428D01*
X117321428Y-121464285D02*
X117250000Y-121392857D01*
X117178571Y-121250000D01*
X117178571Y-120892857D01*
X117250000Y-120750000D01*
X117321428Y-120678571D01*
X117464285Y-120607142D01*
X117607142Y-120607142D01*
X117821428Y-120678571D01*
X118678571Y-121535714D01*
X118678571Y-120607142D01*
X117178571Y-119678571D02*
X117178571Y-119535714D01*
X117250000Y-119392857D01*
X117321428Y-119321428D01*
X117464285Y-119250000D01*
X117750000Y-119178571D01*
X118107142Y-119178571D01*
X118392857Y-119250000D01*
X118535714Y-119321428D01*
X118607142Y-119392857D01*
X118678571Y-119535714D01*
X118678571Y-119678571D01*
X118607142Y-119821428D01*
X118535714Y-119892857D01*
X118392857Y-119964285D01*
X118107142Y-120035714D01*
X117750000Y-120035714D01*
X117464285Y-119964285D01*
X117321428Y-119892857D01*
X117250000Y-119821428D01*
X117178571Y-119678571D01*
X117321428Y-118607142D02*
X117250000Y-118535714D01*
X117178571Y-118392857D01*
X117178571Y-118035714D01*
X117250000Y-117892857D01*
X117321428Y-117821428D01*
X117464285Y-117750000D01*
X117607142Y-117750000D01*
X117821428Y-117821428D01*
X118678571Y-118678571D01*
X118678571Y-117750000D01*
X118678571Y-116321428D02*
X118678571Y-117178571D01*
X118678571Y-116750000D02*
X117178571Y-116750000D01*
X117392857Y-116892857D01*
X117535714Y-117035714D01*
X117607142Y-117178571D01*
X115118571Y-128714285D02*
X113618571Y-128714285D01*
X113618571Y-128142857D01*
X113690000Y-128000000D01*
X113761428Y-127928571D01*
X113904285Y-127857142D01*
X114118571Y-127857142D01*
X114261428Y-127928571D01*
X114332857Y-128000000D01*
X114404285Y-128142857D01*
X114404285Y-128714285D01*
X115118571Y-127214285D02*
X114118571Y-127214285D01*
X114404285Y-127214285D02*
X114261428Y-127142857D01*
X114190000Y-127071428D01*
X114118571Y-126928571D01*
X114118571Y-126785714D01*
X115118571Y-126071428D02*
X115047142Y-126214285D01*
X114975714Y-126285714D01*
X114832857Y-126357142D01*
X114404285Y-126357142D01*
X114261428Y-126285714D01*
X114190000Y-126214285D01*
X114118571Y-126071428D01*
X114118571Y-125857142D01*
X114190000Y-125714285D01*
X114261428Y-125642857D01*
X114404285Y-125571428D01*
X114832857Y-125571428D01*
X114975714Y-125642857D01*
X115047142Y-125714285D01*
X115118571Y-125857142D01*
X115118571Y-126071428D01*
X114118571Y-125142857D02*
X114118571Y-124571428D01*
X113618571Y-124928571D02*
X114904285Y-124928571D01*
X115047142Y-124857142D01*
X115118571Y-124714285D01*
X115118571Y-124571428D01*
X115118571Y-123857142D02*
X115047142Y-124000000D01*
X114975714Y-124071428D01*
X114832857Y-124142857D01*
X114404285Y-124142857D01*
X114261428Y-124071428D01*
X114190000Y-124000000D01*
X114118571Y-123857142D01*
X114118571Y-123642857D01*
X114190000Y-123500000D01*
X114261428Y-123428571D01*
X114404285Y-123357142D01*
X114832857Y-123357142D01*
X114975714Y-123428571D01*
X115047142Y-123500000D01*
X115118571Y-123642857D01*
X115118571Y-123857142D01*
X114118571Y-122928571D02*
X114118571Y-122357142D01*
X113618571Y-122714285D02*
X114904285Y-122714285D01*
X115047142Y-122642857D01*
X115118571Y-122500000D01*
X115118571Y-122357142D01*
X114118571Y-122000000D02*
X115118571Y-121642857D01*
X114118571Y-121285714D02*
X115118571Y-121642857D01*
X115475714Y-121785714D01*
X115547142Y-121857142D01*
X115618571Y-122000000D01*
X114118571Y-120714285D02*
X115618571Y-120714285D01*
X114190000Y-120714285D02*
X114118571Y-120571428D01*
X114118571Y-120285714D01*
X114190000Y-120142857D01*
X114261428Y-120071428D01*
X114404285Y-120000000D01*
X114832857Y-120000000D01*
X114975714Y-120071428D01*
X115047142Y-120142857D01*
X115118571Y-120285714D01*
X115118571Y-120571428D01*
X115047142Y-120714285D01*
X115047142Y-118785714D02*
X115118571Y-118928571D01*
X115118571Y-119214285D01*
X115047142Y-119357142D01*
X114904285Y-119428571D01*
X114332857Y-119428571D01*
X114190000Y-119357142D01*
X114118571Y-119214285D01*
X114118571Y-118928571D01*
X114190000Y-118785714D01*
X114332857Y-118714285D01*
X114475714Y-118714285D01*
X114618571Y-119428571D01*
X115118571Y-116928571D02*
X114118571Y-116928571D01*
X114404285Y-116928571D02*
X114261428Y-116857142D01*
X114190000Y-116785714D01*
X114118571Y-116642857D01*
X114118571Y-116500000D01*
X113618571Y-115714285D02*
X113618571Y-115571428D01*
X113690000Y-115428571D01*
X113761428Y-115357142D01*
X113904285Y-115285714D01*
X114190000Y-115214285D01*
X114547142Y-115214285D01*
X114832857Y-115285714D01*
X114975714Y-115357142D01*
X115047142Y-115428571D01*
X115118571Y-115571428D01*
X115118571Y-115714285D01*
X115047142Y-115857142D01*
X114975714Y-115928571D01*
X114832857Y-116000000D01*
X114547142Y-116071428D01*
X114190000Y-116071428D01*
X113904285Y-116000000D01*
X113761428Y-115928571D01*
X113690000Y-115857142D01*
X113618571Y-115714285D01*
D11*
X104357142Y-133857142D02*
X107357142Y-131857142D01*
X104357142Y-131857142D02*
X107357142Y-133857142D01*
X107357142Y-130285714D02*
X107214285Y-130571428D01*
X107071428Y-130714285D01*
X106785714Y-130857142D01*
X105928571Y-130857142D01*
X105642857Y-130714285D01*
X105500000Y-130571428D01*
X105357142Y-130285714D01*
X105357142Y-129857142D01*
X105500000Y-129571428D01*
X105642857Y-129428571D01*
X105928571Y-129285714D01*
X106785714Y-129285714D01*
X107071428Y-129428571D01*
X107214285Y-129571428D01*
X107357142Y-129857142D01*
X107357142Y-130285714D01*
X107214285Y-128142857D02*
X107357142Y-127857142D01*
X107357142Y-127285714D01*
X107214285Y-127000000D01*
X106928571Y-126857142D01*
X106785714Y-126857142D01*
X106500000Y-127000000D01*
X106357142Y-127285714D01*
X106357142Y-127714285D01*
X106214285Y-128000000D01*
X105928571Y-128142857D01*
X105785714Y-128142857D01*
X105500000Y-128000000D01*
X105357142Y-127714285D01*
X105357142Y-127285714D01*
X105500000Y-127000000D01*
X107214285Y-124428571D02*
X107357142Y-124714285D01*
X107357142Y-125285714D01*
X107214285Y-125571428D01*
X106928571Y-125714285D01*
X105785714Y-125714285D01*
X105500000Y-125571428D01*
X105357142Y-125285714D01*
X105357142Y-124714285D01*
X105500000Y-124428571D01*
X105785714Y-124285714D01*
X106071428Y-124285714D01*
X106357142Y-125714285D01*
X107357142Y-123000000D02*
X105357142Y-123000000D01*
X105928571Y-123000000D02*
X105642857Y-122857142D01*
X105500000Y-122714285D01*
X105357142Y-122428571D01*
X105357142Y-122142857D01*
X107357142Y-119857142D02*
X105785714Y-119857142D01*
X105500000Y-120000000D01*
X105357142Y-120285714D01*
X105357142Y-120857142D01*
X105500000Y-121142857D01*
X107214285Y-119857142D02*
X107357142Y-120142857D01*
X107357142Y-120857142D01*
X107214285Y-121142857D01*
X106928571Y-121285714D01*
X106642857Y-121285714D01*
X106357142Y-121142857D01*
X106214285Y-120857142D01*
X106214285Y-120142857D01*
X106071428Y-119857142D01*
X104357142Y-115571428D02*
X104357142Y-115285714D01*
X104500000Y-115000000D01*
X104642857Y-114857142D01*
X104928571Y-114714285D01*
X105500000Y-114571428D01*
X106214285Y-114571428D01*
X106785714Y-114714285D01*
X107071428Y-114857142D01*
X107214285Y-115000000D01*
X107357142Y-115285714D01*
X107357142Y-115571428D01*
X107214285Y-115857142D01*
X107071428Y-116000000D01*
X106785714Y-116142857D01*
X106214285Y-116285714D01*
X105500000Y-116285714D01*
X104928571Y-116142857D01*
X104642857Y-116000000D01*
X104500000Y-115857142D01*
X104357142Y-115571428D01*
X107071428Y-113285714D02*
X107214285Y-113142857D01*
X107357142Y-113285714D01*
X107214285Y-113428571D01*
X107071428Y-113285714D01*
X107357142Y-113285714D01*
X107357142Y-110285714D02*
X107357142Y-112000000D01*
X107357142Y-111142857D02*
X104357142Y-111142857D01*
X104785714Y-111428571D01*
X105071428Y-111714285D01*
X105214285Y-112000000D01*
D13*
X160026857Y-122711428D02*
X160026857Y-121497142D01*
X159955428Y-121354285D01*
X159884000Y-121282857D01*
X159741142Y-121211428D01*
X159455428Y-121211428D01*
X159312571Y-121282857D01*
X159241142Y-121354285D01*
X159169714Y-121497142D01*
X159169714Y-122711428D01*
X158526857Y-121282857D02*
X158312571Y-121211428D01*
X157955428Y-121211428D01*
X157812571Y-121282857D01*
X157741142Y-121354285D01*
X157669714Y-121497142D01*
X157669714Y-121640000D01*
X157741142Y-121782857D01*
X157812571Y-121854285D01*
X157955428Y-121925714D01*
X158241142Y-121997142D01*
X158384000Y-122068571D01*
X158455428Y-122140000D01*
X158526857Y-122282857D01*
X158526857Y-122425714D01*
X158455428Y-122568571D01*
X158384000Y-122640000D01*
X158241142Y-122711428D01*
X157884000Y-122711428D01*
X157669714Y-122640000D01*
X156526857Y-121997142D02*
X156312571Y-121925714D01*
X156241142Y-121854285D01*
X156169714Y-121711428D01*
X156169714Y-121497142D01*
X156241142Y-121354285D01*
X156312571Y-121282857D01*
X156455428Y-121211428D01*
X157026857Y-121211428D01*
X157026857Y-122711428D01*
X156526857Y-122711428D01*
X156384000Y-122640000D01*
X156312571Y-122568571D01*
X156241142Y-122425714D01*
X156241142Y-122282857D01*
X156312571Y-122140000D01*
X156384000Y-122068571D01*
X156526857Y-121997142D01*
X157026857Y-121997142D01*
X116496000Y-88326000D02*
X116424571Y-88468857D01*
X116424571Y-88683142D01*
X116496000Y-88897428D01*
X116638857Y-89040285D01*
X116781714Y-89111714D01*
X117067428Y-89183142D01*
X117281714Y-89183142D01*
X117567428Y-89111714D01*
X117710285Y-89040285D01*
X117853142Y-88897428D01*
X117924571Y-88683142D01*
X117924571Y-88540285D01*
X117853142Y-88326000D01*
X117781714Y-88254571D01*
X117281714Y-88254571D01*
X117281714Y-88540285D01*
X117924571Y-87611714D02*
X116424571Y-87611714D01*
X117924571Y-86754571D01*
X116424571Y-86754571D01*
X117924571Y-86040285D02*
X116424571Y-86040285D01*
X116424571Y-85683142D01*
X116496000Y-85468857D01*
X116638857Y-85326000D01*
X116781714Y-85254571D01*
X117067428Y-85183142D01*
X117281714Y-85183142D01*
X117567428Y-85254571D01*
X117710285Y-85326000D01*
X117853142Y-85468857D01*
X117924571Y-85683142D01*
X117924571Y-86040285D01*
X117924571Y-82611714D02*
X117924571Y-83468857D01*
X117924571Y-83040285D02*
X116424571Y-83040285D01*
X116638857Y-83183142D01*
X116781714Y-83326000D01*
X116853142Y-83468857D01*
X116567428Y-82040285D02*
X116496000Y-81968857D01*
X116424571Y-81826000D01*
X116424571Y-81468857D01*
X116496000Y-81326000D01*
X116567428Y-81254571D01*
X116710285Y-81183142D01*
X116853142Y-81183142D01*
X117067428Y-81254571D01*
X117924571Y-82111714D01*
X117924571Y-81183142D01*
X117924571Y-80540285D02*
X116424571Y-80540285D01*
X117496000Y-80040285D01*
X116424571Y-79540285D01*
X117924571Y-79540285D01*
X115384571Y-88968857D02*
X114384571Y-88968857D01*
X114670285Y-88968857D02*
X114527428Y-88897428D01*
X114456000Y-88826000D01*
X114384571Y-88683142D01*
X114384571Y-88540285D01*
X115384571Y-87826000D02*
X115313142Y-87968857D01*
X115241714Y-88040285D01*
X115098857Y-88111714D01*
X114670285Y-88111714D01*
X114527428Y-88040285D01*
X114456000Y-87968857D01*
X114384571Y-87826000D01*
X114384571Y-87611714D01*
X114456000Y-87468857D01*
X114527428Y-87397428D01*
X114670285Y-87326000D01*
X115098857Y-87326000D01*
X115241714Y-87397428D01*
X115313142Y-87468857D01*
X115384571Y-87611714D01*
X115384571Y-87826000D01*
X115313142Y-86754571D02*
X115384571Y-86611714D01*
X115384571Y-86326000D01*
X115313142Y-86183142D01*
X115170285Y-86111714D01*
X115098857Y-86111714D01*
X114956000Y-86183142D01*
X114884571Y-86326000D01*
X114884571Y-86540285D01*
X114813142Y-86683142D01*
X114670285Y-86754571D01*
X114598857Y-86754571D01*
X114456000Y-86683142D01*
X114384571Y-86540285D01*
X114384571Y-86326000D01*
X114456000Y-86183142D01*
X115313142Y-84826000D02*
X115384571Y-84968857D01*
X115384571Y-85254571D01*
X115313142Y-85397428D01*
X115241714Y-85468857D01*
X115098857Y-85540285D01*
X114670285Y-85540285D01*
X114527428Y-85468857D01*
X114456000Y-85397428D01*
X114384571Y-85254571D01*
X114384571Y-84968857D01*
X114456000Y-84826000D01*
X115384571Y-83968857D02*
X115313142Y-84111714D01*
X115241714Y-84183142D01*
X115098857Y-84254571D01*
X114670285Y-84254571D01*
X114527428Y-84183142D01*
X114456000Y-84111714D01*
X114384571Y-83968857D01*
X114384571Y-83754571D01*
X114456000Y-83611714D01*
X114527428Y-83540285D01*
X114670285Y-83468857D01*
X115098857Y-83468857D01*
X115241714Y-83540285D01*
X115313142Y-83611714D01*
X115384571Y-83754571D01*
X115384571Y-83968857D01*
X113884571Y-80968857D02*
X113884571Y-81683142D01*
X114598857Y-81754571D01*
X114527428Y-81683142D01*
X114456000Y-81540285D01*
X114456000Y-81183142D01*
X114527428Y-81040285D01*
X114598857Y-80968857D01*
X114741714Y-80897428D01*
X115098857Y-80897428D01*
X115241714Y-80968857D01*
X115313142Y-81040285D01*
X115384571Y-81183142D01*
X115384571Y-81540285D01*
X115313142Y-81683142D01*
X115241714Y-81754571D01*
X113884571Y-80468857D02*
X115384571Y-79968857D01*
X113884571Y-79468857D01*
X111344571Y-88909142D02*
X112558857Y-88909142D01*
X112701714Y-88837714D01*
X112773142Y-88766285D01*
X112844571Y-88623428D01*
X112844571Y-88337714D01*
X112773142Y-88194857D01*
X112701714Y-88123428D01*
X112558857Y-88052000D01*
X111344571Y-88052000D01*
X111844571Y-87337714D02*
X113344571Y-87337714D01*
X111916000Y-87337714D02*
X111844571Y-87194857D01*
X111844571Y-86909142D01*
X111916000Y-86766285D01*
X111987428Y-86694857D01*
X112130285Y-86623428D01*
X112558857Y-86623428D01*
X112701714Y-86694857D01*
X112773142Y-86766285D01*
X112844571Y-86909142D01*
X112844571Y-87194857D01*
X112773142Y-87337714D01*
X112844571Y-85337714D02*
X111344571Y-85337714D01*
X112773142Y-85337714D02*
X112844571Y-85480571D01*
X112844571Y-85766285D01*
X112773142Y-85909142D01*
X112701714Y-85980571D01*
X112558857Y-86052000D01*
X112130285Y-86052000D01*
X111987428Y-85980571D01*
X111916000Y-85909142D01*
X111844571Y-85766285D01*
X111844571Y-85480571D01*
X111916000Y-85337714D01*
X111844571Y-83980571D02*
X112844571Y-83980571D01*
X111844571Y-84623428D02*
X112630285Y-84623428D01*
X112773142Y-84552000D01*
X112844571Y-84409142D01*
X112844571Y-84194857D01*
X112773142Y-84052000D01*
X112701714Y-83980571D01*
X112844571Y-83266285D02*
X111844571Y-83266285D01*
X111344571Y-83266285D02*
X111416000Y-83337714D01*
X111487428Y-83266285D01*
X111416000Y-83194857D01*
X111344571Y-83266285D01*
X111487428Y-83266285D01*
X111844571Y-82552000D02*
X112844571Y-82552000D01*
X111987428Y-82552000D02*
X111916000Y-82480571D01*
X111844571Y-82337714D01*
X111844571Y-82123428D01*
X111916000Y-81980571D01*
X112058857Y-81909142D01*
X112844571Y-81909142D01*
X112844571Y-80980571D02*
X112773142Y-81123428D01*
X112701714Y-81194857D01*
X112558857Y-81266285D01*
X112130285Y-81266285D01*
X111987428Y-81194857D01*
X111916000Y-81123428D01*
X111844571Y-80980571D01*
X111844571Y-80766285D01*
X111916000Y-80623428D01*
X111987428Y-80552000D01*
X112130285Y-80480571D01*
X112558857Y-80480571D01*
X112701714Y-80552000D01*
X112773142Y-80623428D01*
X112844571Y-80766285D01*
X112844571Y-80980571D01*
X111344571Y-77980571D02*
X111344571Y-78694857D01*
X112058857Y-78766285D01*
X111987428Y-78694857D01*
X111916000Y-78552000D01*
X111916000Y-78194857D01*
X111987428Y-78052000D01*
X112058857Y-77980571D01*
X112201714Y-77909142D01*
X112558857Y-77909142D01*
X112701714Y-77980571D01*
X112773142Y-78052000D01*
X112844571Y-78194857D01*
X112844571Y-78552000D01*
X112773142Y-78694857D01*
X112701714Y-78766285D01*
X111344571Y-77480571D02*
X112844571Y-76980571D01*
X111344571Y-76480571D01*
X108804571Y-89012857D02*
X110304571Y-88512857D01*
X108804571Y-88012857D01*
X110304571Y-87512857D02*
X108804571Y-87512857D01*
X108804571Y-86941428D01*
X108876000Y-86798571D01*
X108947428Y-86727142D01*
X109090285Y-86655714D01*
X109304571Y-86655714D01*
X109447428Y-86727142D01*
X109518857Y-86798571D01*
X109590285Y-86941428D01*
X109590285Y-87512857D01*
X109876000Y-86084285D02*
X109876000Y-85370000D01*
X110304571Y-86227142D02*
X108804571Y-85727142D01*
X110304571Y-85227142D01*
X107764571Y-89099714D02*
X106264571Y-89099714D01*
X107764571Y-87528285D02*
X107050285Y-88028285D01*
X107764571Y-88385428D02*
X106264571Y-88385428D01*
X106264571Y-87814000D01*
X106336000Y-87671142D01*
X106407428Y-87599714D01*
X106550285Y-87528285D01*
X106764571Y-87528285D01*
X106907428Y-87599714D01*
X106978857Y-87671142D01*
X107050285Y-87814000D01*
X107050285Y-88385428D01*
X107907428Y-85885428D02*
X107836000Y-86028285D01*
X107693142Y-86171142D01*
X107478857Y-86385428D01*
X107407428Y-86528285D01*
X107407428Y-86671142D01*
X107764571Y-86599714D02*
X107693142Y-86742571D01*
X107550285Y-86885428D01*
X107264571Y-86956857D01*
X106764571Y-86956857D01*
X106478857Y-86885428D01*
X106336000Y-86742571D01*
X106264571Y-86599714D01*
X106264571Y-86314000D01*
X106336000Y-86171142D01*
X106478857Y-86028285D01*
X106764571Y-85956857D01*
X107264571Y-85956857D01*
X107550285Y-86028285D01*
X107693142Y-86171142D01*
X107764571Y-86314000D01*
X107764571Y-86599714D01*
X108336000Y-83742571D02*
X108264571Y-83814000D01*
X108050285Y-83956857D01*
X107907428Y-84028285D01*
X107693142Y-84099714D01*
X107336000Y-84171142D01*
X107050285Y-84171142D01*
X106693142Y-84099714D01*
X106478857Y-84028285D01*
X106336000Y-83956857D01*
X106121714Y-83814000D01*
X106050285Y-83742571D01*
X107764571Y-83171142D02*
X106264571Y-83171142D01*
X107764571Y-82456857D02*
X106264571Y-82456857D01*
X106264571Y-81885428D01*
X106336000Y-81742571D01*
X106407428Y-81671142D01*
X106550285Y-81599714D01*
X106764571Y-81599714D01*
X106907428Y-81671142D01*
X106978857Y-81742571D01*
X107050285Y-81885428D01*
X107050285Y-82456857D01*
X107764571Y-80242571D02*
X107764571Y-80956857D01*
X106264571Y-80956857D01*
X107764571Y-78956857D02*
X107764571Y-79814000D01*
X107764571Y-79385428D02*
X106264571Y-79385428D01*
X106478857Y-79528285D01*
X106621714Y-79671142D01*
X106693142Y-79814000D01*
X108336000Y-78456857D02*
X108264571Y-78385428D01*
X108050285Y-78242571D01*
X107907428Y-78171142D01*
X107693142Y-78099714D01*
X107336000Y-78028285D01*
X107050285Y-78028285D01*
X106693142Y-78099714D01*
X106478857Y-78171142D01*
X106336000Y-78242571D01*
X106121714Y-78385428D01*
X106050285Y-78456857D01*
X105224571Y-89211142D02*
X103724571Y-89211142D01*
X103724571Y-88854000D01*
X103796000Y-88639714D01*
X103938857Y-88496857D01*
X104081714Y-88425428D01*
X104367428Y-88354000D01*
X104581714Y-88354000D01*
X104867428Y-88425428D01*
X105010285Y-88496857D01*
X105153142Y-88639714D01*
X105224571Y-88854000D01*
X105224571Y-89211142D01*
X103724571Y-87925428D02*
X103724571Y-87068285D01*
X105224571Y-87496857D02*
X103724571Y-87496857D01*
X104796000Y-86639714D02*
X104796000Y-85925428D01*
X105224571Y-86782571D02*
X103724571Y-86282571D01*
X105224571Y-85782571D01*
X105081714Y-84425428D02*
X105153142Y-84496857D01*
X105224571Y-84711142D01*
X105224571Y-84854000D01*
X105153142Y-85068285D01*
X105010285Y-85211142D01*
X104867428Y-85282571D01*
X104581714Y-85354000D01*
X104367428Y-85354000D01*
X104081714Y-85282571D01*
X103938857Y-85211142D01*
X103796000Y-85068285D01*
X103724571Y-84854000D01*
X103724571Y-84711142D01*
X103796000Y-84496857D01*
X103867428Y-84425428D01*
X105224571Y-83782571D02*
X103724571Y-83782571D01*
X105224571Y-82925428D02*
X104367428Y-83568285D01*
X103724571Y-82925428D02*
X104581714Y-83782571D01*
D12*
X128978000Y-117244000D02*
X130308000Y-117244000D01*
X128978000Y-118574000D02*
X128978000Y-117244000D01*
X128978000Y-119844000D02*
X131638000Y-119844000D01*
X131638000Y-119844000D02*
X131638000Y-127524000D01*
X128978000Y-119844000D02*
X128978000Y-127524000D01*
X128978000Y-127524000D02*
X131638000Y-127524000D01*
X149234000Y-121920000D02*
X147904000Y-121920000D01*
X147904000Y-121920000D02*
X147904000Y-120590000D01*
X147904000Y-119320000D02*
X147904000Y-60840000D01*
X150564000Y-60840000D02*
X147904000Y-60840000D01*
X150564000Y-119320000D02*
X150564000Y-60840000D01*
X150564000Y-119320000D02*
X147904000Y-119320000D01*
X167034000Y-121920000D02*
X165704000Y-121920000D01*
X165704000Y-121920000D02*
X165704000Y-120590000D01*
X165704000Y-119320000D02*
X165704000Y-60840000D01*
X168364000Y-60840000D02*
X165704000Y-60840000D01*
X168364000Y-119320000D02*
X168364000Y-60840000D01*
X168364000Y-119320000D02*
X165704000Y-119320000D01*
X201010000Y-47430000D02*
X201010000Y-48760000D01*
X199680000Y-47430000D02*
X201010000Y-47430000D01*
X198410000Y-47430000D02*
X198410000Y-50090000D01*
X198410000Y-50090000D02*
X180570000Y-50090000D01*
X198410000Y-47430000D02*
X180570000Y-47430000D01*
X180570000Y-47430000D02*
X180570000Y-50090000D01*
X170760000Y-47420000D02*
X170760000Y-48750000D01*
X169430000Y-47420000D02*
X170760000Y-47420000D01*
X168160000Y-47420000D02*
X168160000Y-50080000D01*
X168160000Y-50080000D02*
X150320000Y-50080000D01*
X168160000Y-47420000D02*
X150320000Y-47420000D01*
X150320000Y-47420000D02*
X150320000Y-50080000D01*
X201030000Y-88300000D02*
X201030000Y-89630000D01*
X199700000Y-88300000D02*
X201030000Y-88300000D01*
X198430000Y-88300000D02*
X198430000Y-90960000D01*
X198430000Y-90960000D02*
X180590000Y-90960000D01*
X198430000Y-88300000D02*
X180590000Y-88300000D01*
X180590000Y-88300000D02*
X180590000Y-90960000D01*
D14*
X212133000Y-131614000D02*
X208323000Y-131614000D01*
X208323000Y-129074000D02*
X207688000Y-129709000D01*
X207688000Y-130979000D02*
X207688000Y-129709000D01*
X208323000Y-131614000D02*
X207688000Y-130979000D01*
X212768000Y-130979000D02*
X212133000Y-131614000D01*
X212768000Y-130979000D02*
X212768000Y-129709000D01*
X212133000Y-129074000D02*
X212768000Y-129709000D01*
X212133000Y-129074000D02*
X208323000Y-129074000D01*
X212133000Y-129074000D02*
X208323000Y-129074000D01*
X208323000Y-126534000D02*
X207688000Y-127169000D01*
X207688000Y-128439000D02*
X207688000Y-127169000D01*
X208323000Y-129074000D02*
X207688000Y-128439000D01*
X212768000Y-128439000D02*
X212133000Y-129074000D01*
X212768000Y-128439000D02*
X212768000Y-127169000D01*
X212133000Y-126534000D02*
X212768000Y-127169000D01*
X212133000Y-126534000D02*
X208323000Y-126534000D01*
X208323000Y-50334000D02*
X207688000Y-50969000D01*
X207688000Y-50969000D02*
X207688000Y-52239000D01*
X207688000Y-52239000D02*
X208323000Y-52874000D01*
X208323000Y-52874000D02*
X207688000Y-53509000D01*
X207688000Y-53509000D02*
X207688000Y-54779000D01*
X207688000Y-54779000D02*
X208323000Y-55414000D01*
X208323000Y-55414000D02*
X207688000Y-56049000D01*
X207688000Y-56049000D02*
X207688000Y-57319000D01*
X207688000Y-57319000D02*
X208323000Y-57954000D01*
X208323000Y-57954000D02*
X207688000Y-58589000D01*
X207688000Y-58589000D02*
X207688000Y-59859000D01*
X207688000Y-59859000D02*
X208323000Y-60494000D01*
X208323000Y-60494000D02*
X207688000Y-61129000D01*
X207688000Y-61129000D02*
X207688000Y-62399000D01*
X207688000Y-62399000D02*
X208323000Y-63034000D01*
X208323000Y-63034000D02*
X207688000Y-63669000D01*
X207688000Y-63669000D02*
X207688000Y-64939000D01*
X207688000Y-64939000D02*
X208323000Y-65574000D01*
X208323000Y-50334000D02*
X212133000Y-50334000D01*
X212133000Y-50334000D02*
X212768000Y-50969000D01*
X212768000Y-50969000D02*
X212768000Y-52239000D01*
X212768000Y-52239000D02*
X212133000Y-52874000D01*
X212133000Y-52874000D02*
X212768000Y-53509000D01*
X212768000Y-53509000D02*
X212768000Y-54779000D01*
X212768000Y-54779000D02*
X212133000Y-55414000D01*
X212133000Y-55414000D02*
X212768000Y-56049000D01*
X212768000Y-56049000D02*
X212768000Y-57319000D01*
X212768000Y-57319000D02*
X212133000Y-57954000D01*
X212133000Y-57954000D02*
X212768000Y-58589000D01*
X212768000Y-58589000D02*
X212768000Y-59859000D01*
X212768000Y-59859000D02*
X212133000Y-60494000D01*
X212133000Y-60494000D02*
X212768000Y-61129000D01*
X212768000Y-61129000D02*
X212768000Y-62399000D01*
X212768000Y-62399000D02*
X212133000Y-63034000D01*
X212133000Y-63034000D02*
X212768000Y-63669000D01*
X212768000Y-63669000D02*
X212768000Y-64939000D01*
X212768000Y-64939000D02*
X212133000Y-65574000D01*
X212133000Y-65574000D02*
X212768000Y-66209000D01*
X212768000Y-66209000D02*
X212768000Y-67479000D01*
X212768000Y-67479000D02*
X212133000Y-68114000D01*
X212133000Y-68114000D02*
X212768000Y-68749000D01*
X212768000Y-68749000D02*
X212768000Y-70019000D01*
X212768000Y-70019000D02*
X212133000Y-70654000D01*
X212133000Y-70654000D02*
X212768000Y-71289000D01*
X212768000Y-71289000D02*
X212768000Y-72559000D01*
X212768000Y-72559000D02*
X212133000Y-73194000D01*
X212133000Y-73194000D02*
X212768000Y-73829000D01*
X212768000Y-73829000D02*
X212768000Y-75099000D01*
X212768000Y-75099000D02*
X212133000Y-75734000D01*
X212133000Y-75734000D02*
X212768000Y-76369000D01*
X212768000Y-76369000D02*
X212768000Y-77639000D01*
X212768000Y-77639000D02*
X212133000Y-78274000D01*
X212133000Y-78274000D02*
X212768000Y-78909000D01*
X212768000Y-78909000D02*
X212768000Y-80179000D01*
X212133000Y-80814000D02*
X212768000Y-80179000D01*
X212133000Y-80814000D02*
X212768000Y-81449000D01*
X212768000Y-82719000D02*
X212768000Y-81449000D01*
X212768000Y-82719000D02*
X212133000Y-83354000D01*
X212133000Y-83354000D02*
X212768000Y-83989000D01*
X212768000Y-85259000D02*
X212768000Y-83989000D01*
X212768000Y-85259000D02*
X212133000Y-85894000D01*
X212133000Y-85894000D02*
X212768000Y-86529000D01*
X212768000Y-87799000D02*
X212768000Y-86529000D01*
X212768000Y-87799000D02*
X212133000Y-88434000D01*
X212133000Y-88434000D02*
X212768000Y-89069000D01*
X212768000Y-90339000D02*
X212768000Y-89069000D01*
X212768000Y-90339000D02*
X212133000Y-90974000D01*
X212133000Y-90974000D02*
X212768000Y-91609000D01*
X212768000Y-92879000D02*
X212768000Y-91609000D01*
X212768000Y-92879000D02*
X212133000Y-93514000D01*
X212133000Y-93514000D02*
X212768000Y-94149000D01*
X212768000Y-95419000D02*
X212768000Y-94149000D01*
X212768000Y-95419000D02*
X212133000Y-96054000D01*
X212133000Y-96054000D02*
X212768000Y-96689000D01*
X212768000Y-97959000D02*
X212768000Y-96689000D01*
X212768000Y-97959000D02*
X212133000Y-98594000D01*
X208323000Y-98594000D02*
X207688000Y-97959000D01*
X207688000Y-97959000D02*
X207688000Y-96689000D01*
X208323000Y-96054000D02*
X207688000Y-96689000D01*
X208323000Y-96054000D02*
X207688000Y-95419000D01*
X207688000Y-95419000D02*
X207688000Y-94149000D01*
X208323000Y-93514000D02*
X207688000Y-94149000D01*
X208323000Y-93514000D02*
X207688000Y-92879000D01*
X207688000Y-92879000D02*
X207688000Y-91609000D01*
X208323000Y-90974000D02*
X207688000Y-91609000D01*
X208323000Y-90974000D02*
X207688000Y-90339000D01*
X207688000Y-89069000D02*
X207688000Y-90339000D01*
X207688000Y-89069000D02*
X208323000Y-88434000D01*
X208323000Y-88434000D02*
X207688000Y-87799000D01*
X207688000Y-86529000D02*
X207688000Y-87799000D01*
X207688000Y-86529000D02*
X208323000Y-85894000D01*
X208323000Y-85894000D02*
X207688000Y-85259000D01*
X207688000Y-85259000D02*
X207688000Y-83989000D01*
X208323000Y-83354000D02*
X207688000Y-83989000D01*
X208323000Y-83354000D02*
X207688000Y-82719000D01*
X207688000Y-82719000D02*
X207688000Y-81449000D01*
X208323000Y-80814000D02*
X207688000Y-81449000D01*
X208323000Y-80814000D02*
X207688000Y-80179000D01*
X207688000Y-80179000D02*
X207688000Y-78909000D01*
X208323000Y-78274000D02*
X207688000Y-78909000D01*
X208323000Y-78274000D02*
X207688000Y-77639000D01*
X207688000Y-77639000D02*
X207688000Y-76369000D01*
X208323000Y-75734000D02*
X207688000Y-76369000D01*
X208323000Y-75734000D02*
X207688000Y-75099000D01*
X207688000Y-75099000D02*
X207688000Y-73829000D01*
X208323000Y-73194000D02*
X207688000Y-73829000D01*
X208323000Y-73194000D02*
X207688000Y-72559000D01*
X207688000Y-72559000D02*
X207688000Y-71289000D01*
X208323000Y-70654000D02*
X207688000Y-71289000D01*
X208323000Y-70654000D02*
X207688000Y-70019000D01*
X207688000Y-70019000D02*
X207688000Y-68749000D01*
X208323000Y-68114000D02*
X207688000Y-68749000D01*
X208323000Y-68114000D02*
X207688000Y-67479000D01*
X207688000Y-67479000D02*
X207688000Y-66209000D01*
X208323000Y-65574000D02*
X207688000Y-66209000D01*
X212133000Y-52874000D02*
X208323000Y-52874000D01*
X212133000Y-55414000D02*
X208323000Y-55414000D01*
X212133000Y-57954000D02*
X208323000Y-57954000D01*
X212133000Y-60494000D02*
X208323000Y-60494000D01*
X212133000Y-63034000D02*
X208323000Y-63034000D01*
X212133000Y-65574000D02*
X208323000Y-65574000D01*
X212133000Y-68114000D02*
X208323000Y-68114000D01*
X212133000Y-70654000D02*
X208323000Y-70654000D01*
X212133000Y-73194000D02*
X208323000Y-73194000D01*
X212133000Y-75734000D02*
X208323000Y-75734000D01*
X212133000Y-78274000D02*
X208323000Y-78274000D01*
X212133000Y-80814000D02*
X208323000Y-80814000D01*
X212133000Y-83354000D02*
X208323000Y-83354000D01*
X212133000Y-85894000D02*
X208323000Y-85894000D01*
X212133000Y-88434000D02*
X208323000Y-88434000D01*
X212133000Y-90974000D02*
X208323000Y-90974000D01*
X212133000Y-93514000D02*
X208323000Y-93514000D01*
X212133000Y-96054000D02*
X208323000Y-96054000D01*
X212133000Y-98594000D02*
X208323000Y-98594000D01*
X212133000Y-98594000D02*
X212768000Y-99229000D01*
X212768000Y-100499000D02*
X212768000Y-99229000D01*
X212768000Y-100499000D02*
X212133000Y-101134000D01*
X208323000Y-101134000D02*
X207688000Y-100499000D01*
X207688000Y-100499000D02*
X207688000Y-99229000D01*
X208323000Y-98594000D02*
X207688000Y-99229000D01*
X212133000Y-101134000D02*
X208323000Y-101134000D01*
X212133000Y-101134000D02*
X212768000Y-101769000D01*
X212768000Y-103039000D02*
X212768000Y-101769000D01*
X212768000Y-103039000D02*
X212133000Y-103674000D01*
X208323000Y-103674000D02*
X207688000Y-103039000D01*
X207688000Y-103039000D02*
X207688000Y-101769000D01*
X208323000Y-101134000D02*
X207688000Y-101769000D01*
X212133000Y-103674000D02*
X208323000Y-103674000D01*
X212133000Y-103674000D02*
X212768000Y-104309000D01*
X212768000Y-105579000D02*
X212768000Y-104309000D01*
X212768000Y-105579000D02*
X212133000Y-106214000D01*
X208323000Y-106214000D02*
X207688000Y-105579000D01*
X207688000Y-105579000D02*
X207688000Y-104309000D01*
X208323000Y-103674000D02*
X207688000Y-104309000D01*
X212133000Y-106214000D02*
X208323000Y-106214000D01*
X212133000Y-106214000D02*
X212768000Y-106849000D01*
X212768000Y-108119000D02*
X212768000Y-106849000D01*
X212768000Y-108119000D02*
X212133000Y-108754000D01*
X208323000Y-108754000D02*
X207688000Y-108119000D01*
X207688000Y-108119000D02*
X207688000Y-106849000D01*
X208323000Y-106214000D02*
X207688000Y-106849000D01*
X212133000Y-108754000D02*
X208323000Y-108754000D01*
X212133000Y-108754000D02*
X212768000Y-109389000D01*
X212768000Y-110659000D02*
X212768000Y-109389000D01*
X212768000Y-110659000D02*
X212133000Y-111294000D01*
X208323000Y-111294000D02*
X207688000Y-110659000D01*
X207688000Y-110659000D02*
X207688000Y-109389000D01*
X208323000Y-108754000D02*
X207688000Y-109389000D01*
X212133000Y-111294000D02*
X208323000Y-111294000D01*
X212133000Y-111294000D02*
X212768000Y-111929000D01*
X212768000Y-113199000D02*
X212768000Y-111929000D01*
X212768000Y-113199000D02*
X212133000Y-113834000D01*
X208323000Y-113834000D02*
X207688000Y-113199000D01*
X207688000Y-113199000D02*
X207688000Y-111929000D01*
X208323000Y-111294000D02*
X207688000Y-111929000D01*
X212133000Y-113834000D02*
X208323000Y-113834000D01*
X212133000Y-113834000D02*
X212768000Y-114469000D01*
X212768000Y-115739000D02*
X212768000Y-114469000D01*
X212768000Y-115739000D02*
X212133000Y-116374000D01*
X208323000Y-116374000D02*
X207688000Y-115739000D01*
X207688000Y-115739000D02*
X207688000Y-114469000D01*
X208323000Y-113834000D02*
X207688000Y-114469000D01*
X212133000Y-116374000D02*
X208323000Y-116374000D01*
X212133000Y-116374000D02*
X212768000Y-117009000D01*
X212768000Y-118279000D02*
X212768000Y-117009000D01*
X212768000Y-118279000D02*
X212133000Y-118914000D01*
X208323000Y-118914000D02*
X207688000Y-118279000D01*
X207688000Y-118279000D02*
X207688000Y-117009000D01*
X208323000Y-116374000D02*
X207688000Y-117009000D01*
X212133000Y-118914000D02*
X208323000Y-118914000D01*
X212133000Y-118914000D02*
X212768000Y-119549000D01*
X212768000Y-120819000D02*
X212768000Y-119549000D01*
X212768000Y-120819000D02*
X212133000Y-121454000D01*
X208323000Y-121454000D02*
X207688000Y-120819000D01*
X207688000Y-120819000D02*
X207688000Y-119549000D01*
X208323000Y-118914000D02*
X207688000Y-119549000D01*
X212133000Y-121454000D02*
X208323000Y-121454000D01*
X212133000Y-121454000D02*
X212768000Y-122089000D01*
X212768000Y-123359000D02*
X212768000Y-122089000D01*
X212768000Y-123359000D02*
X212133000Y-123994000D01*
X208323000Y-123994000D02*
X207688000Y-123359000D01*
X207688000Y-123359000D02*
X207688000Y-122089000D01*
X208323000Y-121454000D02*
X207688000Y-122089000D01*
X212133000Y-123994000D02*
X208323000Y-123994000D01*
X212133000Y-123994000D02*
X212768000Y-124629000D01*
X212768000Y-125899000D02*
X212768000Y-124629000D01*
X212768000Y-125899000D02*
X212133000Y-126534000D01*
X208323000Y-126534000D02*
X207688000Y-125899000D01*
X207688000Y-125899000D02*
X207688000Y-124629000D01*
X208323000Y-123994000D02*
X207688000Y-124629000D01*
X212133000Y-126534000D02*
X208323000Y-126534000D01*
D12*
X143638000Y-58005000D02*
X143638000Y-59115000D01*
X143638000Y-59115000D02*
X142308000Y-59115000D01*
X143638000Y-45375000D02*
X128278000Y-45375000D01*
X128278000Y-45375000D02*
X128278000Y-54005000D01*
X143638000Y-54005000D02*
X128278000Y-54005000D01*
X143638000Y-45375000D02*
X143638000Y-54005000D01*
X130878000Y-45375000D02*
X130878000Y-54005000D01*
X133418000Y-45375000D02*
X133418000Y-54005000D01*
X135958000Y-45375000D02*
X135958000Y-54005000D01*
X138498000Y-45375000D02*
X138498000Y-54005000D01*
X141038000Y-45375000D02*
X141038000Y-54005000D01*
X129248000Y-56515000D02*
X129248000Y-56955000D01*
X129248000Y-54005000D02*
X129248000Y-54415000D01*
X129968000Y-56515000D02*
X129968000Y-56955000D01*
X129968000Y-54005000D02*
X129968000Y-54415000D01*
X131788000Y-56515000D02*
X131788000Y-56955000D01*
X131788000Y-54005000D02*
X131788000Y-54415000D01*
X132508000Y-56515000D02*
X132508000Y-56955000D01*
X132508000Y-54005000D02*
X132508000Y-54415000D01*
X134328000Y-56515000D02*
X134328000Y-56955000D01*
X134328000Y-54005000D02*
X134328000Y-54415000D01*
X135048000Y-56515000D02*
X135048000Y-56955000D01*
X135048000Y-54005000D02*
X135048000Y-54415000D01*
X136868000Y-56515000D02*
X136868000Y-56955000D01*
X136868000Y-54005000D02*
X136868000Y-54415000D01*
X137588000Y-56515000D02*
X137588000Y-56955000D01*
X137588000Y-54005000D02*
X137588000Y-54415000D01*
X139408000Y-56515000D02*
X139408000Y-56955000D01*
X139408000Y-54005000D02*
X139408000Y-54415000D01*
X140128000Y-56515000D02*
X140128000Y-56955000D01*
X140128000Y-54005000D02*
X140128000Y-54415000D01*
X141948000Y-56515000D02*
X141948000Y-56895000D01*
X141948000Y-54005000D02*
X141948000Y-54415000D01*
X142668000Y-56515000D02*
X142668000Y-56895000D01*
X142668000Y-54005000D02*
X142668000Y-54415000D01*
X141156100Y-45375000D02*
X141156100Y-54005000D01*
X141274195Y-45375000D02*
X141274195Y-54005000D01*
X141392290Y-45375000D02*
X141392290Y-54005000D01*
X141510385Y-45375000D02*
X141510385Y-54005000D01*
X141628480Y-45375000D02*
X141628480Y-54005000D01*
X141746575Y-45375000D02*
X141746575Y-54005000D01*
X141864670Y-45375000D02*
X141864670Y-54005000D01*
X141982765Y-45375000D02*
X141982765Y-54005000D01*
X142100860Y-45375000D02*
X142100860Y-54005000D01*
X142218955Y-45375000D02*
X142218955Y-54005000D01*
X142337050Y-45375000D02*
X142337050Y-54005000D01*
X142455145Y-45375000D02*
X142455145Y-54005000D01*
X142573240Y-45375000D02*
X142573240Y-54005000D01*
X142691335Y-45375000D02*
X142691335Y-54005000D01*
X142809430Y-45375000D02*
X142809430Y-54005000D01*
X142927525Y-45375000D02*
X142927525Y-54005000D01*
X143045620Y-45375000D02*
X143045620Y-54005000D01*
X143163715Y-45375000D02*
X143163715Y-54005000D01*
X143281810Y-45375000D02*
X143281810Y-54005000D01*
X143399905Y-45375000D02*
X143399905Y-54005000D01*
X143518000Y-45375000D02*
X143518000Y-54005000D01*
X120778000Y-58005000D02*
X120778000Y-59115000D01*
X120778000Y-59115000D02*
X119448000Y-59115000D01*
X120778000Y-45375000D02*
X105418000Y-45375000D01*
X105418000Y-45375000D02*
X105418000Y-54005000D01*
X120778000Y-54005000D02*
X105418000Y-54005000D01*
X120778000Y-45375000D02*
X120778000Y-54005000D01*
X108018000Y-45375000D02*
X108018000Y-54005000D01*
X110558000Y-45375000D02*
X110558000Y-54005000D01*
X113098000Y-45375000D02*
X113098000Y-54005000D01*
X115638000Y-45375000D02*
X115638000Y-54005000D01*
X118178000Y-45375000D02*
X118178000Y-54005000D01*
X106388000Y-56515000D02*
X106388000Y-56955000D01*
X106388000Y-54005000D02*
X106388000Y-54415000D01*
X107108000Y-56515000D02*
X107108000Y-56955000D01*
X107108000Y-54005000D02*
X107108000Y-54415000D01*
X108928000Y-56515000D02*
X108928000Y-56955000D01*
X108928000Y-54005000D02*
X108928000Y-54415000D01*
X109648000Y-56515000D02*
X109648000Y-56955000D01*
X109648000Y-54005000D02*
X109648000Y-54415000D01*
X111468000Y-56515000D02*
X111468000Y-56955000D01*
X111468000Y-54005000D02*
X111468000Y-54415000D01*
X112188000Y-56515000D02*
X112188000Y-56955000D01*
X112188000Y-54005000D02*
X112188000Y-54415000D01*
X114008000Y-56515000D02*
X114008000Y-56955000D01*
X114008000Y-54005000D02*
X114008000Y-54415000D01*
X114728000Y-56515000D02*
X114728000Y-56955000D01*
X114728000Y-54005000D02*
X114728000Y-54415000D01*
X116548000Y-56515000D02*
X116548000Y-56955000D01*
X116548000Y-54005000D02*
X116548000Y-54415000D01*
X117268000Y-56515000D02*
X117268000Y-56955000D01*
X117268000Y-54005000D02*
X117268000Y-54415000D01*
X119088000Y-56515000D02*
X119088000Y-56895000D01*
X119088000Y-54005000D02*
X119088000Y-54415000D01*
X119808000Y-56515000D02*
X119808000Y-56895000D01*
X119808000Y-54005000D02*
X119808000Y-54415000D01*
X118296100Y-45375000D02*
X118296100Y-54005000D01*
X118414195Y-45375000D02*
X118414195Y-54005000D01*
X118532290Y-45375000D02*
X118532290Y-54005000D01*
X118650385Y-45375000D02*
X118650385Y-54005000D01*
X118768480Y-45375000D02*
X118768480Y-54005000D01*
X118886575Y-45375000D02*
X118886575Y-54005000D01*
X119004670Y-45375000D02*
X119004670Y-54005000D01*
X119122765Y-45375000D02*
X119122765Y-54005000D01*
X119240860Y-45375000D02*
X119240860Y-54005000D01*
X119358955Y-45375000D02*
X119358955Y-54005000D01*
X119477050Y-45375000D02*
X119477050Y-54005000D01*
X119595145Y-45375000D02*
X119595145Y-54005000D01*
X119713240Y-45375000D02*
X119713240Y-54005000D01*
X119831335Y-45375000D02*
X119831335Y-54005000D01*
X119949430Y-45375000D02*
X119949430Y-54005000D01*
X120067525Y-45375000D02*
X120067525Y-54005000D01*
X120185620Y-45375000D02*
X120185620Y-54005000D01*
X120303715Y-45375000D02*
X120303715Y-54005000D01*
X120421810Y-45375000D02*
X120421810Y-54005000D01*
X120539905Y-45375000D02*
X120539905Y-54005000D01*
X120658000Y-45375000D02*
X120658000Y-54005000D01*
X118628000Y-95988000D02*
X117298000Y-95988000D01*
X118628000Y-94658000D02*
X118628000Y-95988000D01*
X118628000Y-93388000D02*
X115968000Y-93388000D01*
X115968000Y-93388000D02*
X115968000Y-90788000D01*
X118628000Y-93388000D02*
X118628000Y-90788000D01*
X118628000Y-90788000D02*
X115968000Y-90788000D01*
X116088000Y-95988000D02*
X114758000Y-95988000D01*
X116088000Y-94658000D02*
X116088000Y-95988000D01*
X116088000Y-93388000D02*
X113428000Y-93388000D01*
X113428000Y-93388000D02*
X113428000Y-90788000D01*
X116088000Y-93388000D02*
X116088000Y-90788000D01*
X116088000Y-90788000D02*
X113428000Y-90788000D01*
X113548000Y-95988000D02*
X112218000Y-95988000D01*
X113548000Y-94658000D02*
X113548000Y-95988000D01*
X113548000Y-93388000D02*
X110888000Y-93388000D01*
X110888000Y-93388000D02*
X110888000Y-90788000D01*
X113548000Y-93388000D02*
X113548000Y-90788000D01*
X113548000Y-90788000D02*
X110888000Y-90788000D01*
X111008000Y-95988000D02*
X109678000Y-95988000D01*
X111008000Y-94658000D02*
X111008000Y-95988000D01*
X111008000Y-93388000D02*
X108348000Y-93388000D01*
X108348000Y-93388000D02*
X108348000Y-90788000D01*
X111008000Y-93388000D02*
X111008000Y-90788000D01*
X111008000Y-90788000D02*
X108348000Y-90788000D01*
X108468000Y-95988000D02*
X107138000Y-95988000D01*
X108468000Y-94658000D02*
X108468000Y-95988000D01*
X108468000Y-93388000D02*
X105808000Y-93388000D01*
X105808000Y-93388000D02*
X105808000Y-90788000D01*
X108468000Y-93388000D02*
X108468000Y-90788000D01*
X108468000Y-90788000D02*
X105808000Y-90788000D01*
X105928000Y-95988000D02*
X104598000Y-95988000D01*
X105928000Y-94658000D02*
X105928000Y-95988000D01*
X105928000Y-93388000D02*
X103268000Y-93388000D01*
X103268000Y-93388000D02*
X103268000Y-90788000D01*
X105928000Y-93388000D02*
X105928000Y-90788000D01*
X105928000Y-90788000D02*
X103268000Y-90788000D01*
D14*
X156051000Y-76246000D02*
X160369000Y-76246000D01*
X160369000Y-79294000D02*
X156051000Y-79294000D01*
X160623000Y-76500000D02*
X160623000Y-79040000D01*
X155797000Y-76500000D02*
X155797000Y-79040000D01*
X160623000Y-76500000D02*
G75*
G03X160369000Y-76246000I-254000J0D01*
G01*
X156051000Y-76246000D02*
G75*
G03X155797000Y-76500000I0J-254000D01*
G01*
X160623000Y-79040000D02*
G75*
G02X160369000Y-79294000I-254000J0D01*
G01*
X156051000Y-79294000D02*
G75*
G02X155797000Y-79040000I0J254000D01*
G01*
X158591000Y-77770000D02*
X158464000Y-77770000D01*
D15*
X158464000Y-77770000D02*
X158464000Y-77008000D01*
X158464000Y-77770000D02*
X158464000Y-78532000D01*
X157956000Y-77008000D02*
X157956000Y-77770000D01*
X157956000Y-77770000D02*
X157956000Y-78532000D01*
D14*
X157956000Y-77770000D02*
X157829000Y-77770000D01*
X155975000Y-113366000D02*
X160293000Y-113366000D01*
X160293000Y-116414000D02*
X155975000Y-116414000D01*
X160547000Y-113620000D02*
X160547000Y-116160000D01*
X155721000Y-113620000D02*
X155721000Y-116160000D01*
X160547000Y-113620000D02*
G75*
G03X160293000Y-113366000I-254000J0D01*
G01*
X155975000Y-113366000D02*
G75*
G03X155721000Y-113620000I0J-254000D01*
G01*
X160547000Y-116160000D02*
G75*
G02X160293000Y-116414000I-254000J0D01*
G01*
X155975000Y-116414000D02*
G75*
G02X155721000Y-116160000I0J254000D01*
G01*
X158515000Y-114890000D02*
X158388000Y-114890000D01*
D15*
X158388000Y-114890000D02*
X158388000Y-114128000D01*
X158388000Y-114890000D02*
X158388000Y-115652000D01*
X157880000Y-114128000D02*
X157880000Y-114890000D01*
X157880000Y-114890000D02*
X157880000Y-115652000D01*
D14*
X157880000Y-114890000D02*
X157753000Y-114890000D01*
X133824000Y-69650000D02*
X138142000Y-69650000D01*
X138142000Y-72698000D02*
X133824000Y-72698000D01*
X138396000Y-69904000D02*
X138396000Y-72444000D01*
X133570000Y-69904000D02*
X133570000Y-72444000D01*
X138396000Y-69904000D02*
G75*
G03X138142000Y-69650000I-254000J0D01*
G01*
X133824000Y-69650000D02*
G75*
G03X133570000Y-69904000I0J-254000D01*
G01*
X138396000Y-72444000D02*
G75*
G02X138142000Y-72698000I-254000J0D01*
G01*
X133824000Y-72698000D02*
G75*
G02X133570000Y-72444000I0J254000D01*
G01*
X136364000Y-71174000D02*
X136237000Y-71174000D01*
D15*
X136237000Y-71174000D02*
X136237000Y-70412000D01*
X136237000Y-71174000D02*
X136237000Y-71936000D01*
X135729000Y-70412000D02*
X135729000Y-71174000D01*
X135729000Y-71174000D02*
X135729000Y-71936000D01*
D14*
X135729000Y-71174000D02*
X135602000Y-71174000D01*
X175832000Y-55715000D02*
X175832000Y-60033000D01*
X172784000Y-60033000D02*
X172784000Y-55715000D01*
X175578000Y-60287000D02*
X173038000Y-60287000D01*
X175578000Y-55461000D02*
X173038000Y-55461000D01*
X175578000Y-60287000D02*
G75*
G03X175832000Y-60033000I0J254000D01*
G01*
X175832000Y-55715000D02*
G75*
G03X175578000Y-55461000I-254000J0D01*
G01*
X173038000Y-60287000D02*
G75*
G02X172784000Y-60033000I0J254000D01*
G01*
X172784000Y-55715000D02*
G75*
G02X173038000Y-55461000I254000J0D01*
G01*
X174308000Y-58255000D02*
X174308000Y-58128000D01*
D15*
X174308000Y-58128000D02*
X175070000Y-58128000D01*
X174308000Y-58128000D02*
X173546000Y-58128000D01*
X175070000Y-57620000D02*
X174308000Y-57620000D01*
X174308000Y-57620000D02*
X173546000Y-57620000D01*
D14*
X174308000Y-57620000D02*
X174308000Y-57493000D01*
X110964000Y-69650000D02*
X115282000Y-69650000D01*
X115282000Y-72698000D02*
X110964000Y-72698000D01*
X115536000Y-69904000D02*
X115536000Y-72444000D01*
X110710000Y-69904000D02*
X110710000Y-72444000D01*
X115536000Y-69904000D02*
G75*
G03X115282000Y-69650000I-254000J0D01*
G01*
X110964000Y-69650000D02*
G75*
G03X110710000Y-69904000I0J-254000D01*
G01*
X115536000Y-72444000D02*
G75*
G02X115282000Y-72698000I-254000J0D01*
G01*
X110964000Y-72698000D02*
G75*
G02X110710000Y-72444000I0J254000D01*
G01*
X113504000Y-71174000D02*
X113377000Y-71174000D01*
D15*
X113377000Y-71174000D02*
X113377000Y-70412000D01*
X113377000Y-71174000D02*
X113377000Y-71936000D01*
X112869000Y-70412000D02*
X112869000Y-71174000D01*
X112869000Y-71174000D02*
X112869000Y-71936000D01*
D14*
X112869000Y-71174000D02*
X112742000Y-71174000D01*
X175832000Y-79581000D02*
X175832000Y-83899000D01*
X172784000Y-83899000D02*
X172784000Y-79581000D01*
X175578000Y-84153000D02*
X173038000Y-84153000D01*
X175578000Y-79327000D02*
X173038000Y-79327000D01*
X175578000Y-84153000D02*
G75*
G03X175832000Y-83899000I0J254000D01*
G01*
X175832000Y-79581000D02*
G75*
G03X175578000Y-79327000I-254000J0D01*
G01*
X173038000Y-84153000D02*
G75*
G02X172784000Y-83899000I0J254000D01*
G01*
X172784000Y-79581000D02*
G75*
G02X173038000Y-79327000I254000J0D01*
G01*
X174308000Y-82121000D02*
X174308000Y-81994000D01*
D15*
X174308000Y-81994000D02*
X175070000Y-81994000D01*
X174308000Y-81994000D02*
X173546000Y-81994000D01*
X175070000Y-81486000D02*
X174308000Y-81486000D01*
X174308000Y-81486000D02*
X173546000Y-81486000D01*
D14*
X174308000Y-81486000D02*
X174308000Y-81359000D01*
X175832000Y-67648000D02*
X175832000Y-71966000D01*
X172784000Y-71966000D02*
X172784000Y-67648000D01*
X175578000Y-72220000D02*
X173038000Y-72220000D01*
X175578000Y-67394000D02*
X173038000Y-67394000D01*
X175578000Y-72220000D02*
G75*
G03X175832000Y-71966000I0J254000D01*
G01*
X175832000Y-67648000D02*
G75*
G03X175578000Y-67394000I-254000J0D01*
G01*
X173038000Y-72220000D02*
G75*
G02X172784000Y-71966000I0J254000D01*
G01*
X172784000Y-67648000D02*
G75*
G02X173038000Y-67394000I254000J0D01*
G01*
X174308000Y-70188000D02*
X174308000Y-70061000D01*
D15*
X174308000Y-70061000D02*
X175070000Y-70061000D01*
X174308000Y-70061000D02*
X173546000Y-70061000D01*
X175070000Y-69553000D02*
X174308000Y-69553000D01*
X174308000Y-69553000D02*
X173546000Y-69553000D01*
D14*
X174308000Y-69553000D02*
X174308000Y-69426000D01*
X175832000Y-95409500D02*
X175832000Y-99727500D01*
X172784000Y-99727500D02*
X172784000Y-95409500D01*
X175578000Y-99981500D02*
X173038000Y-99981500D01*
X175578000Y-95155500D02*
X173038000Y-95155500D01*
X175578000Y-99981500D02*
G75*
G03X175832000Y-99727500I0J254000D01*
G01*
X175832000Y-95409500D02*
G75*
G03X175578000Y-95155500I-254000J0D01*
G01*
X173038000Y-99981500D02*
G75*
G02X172784000Y-99727500I0J254000D01*
G01*
X172784000Y-95409500D02*
G75*
G02X173038000Y-95155500I254000J0D01*
G01*
X174308000Y-97949500D02*
X174308000Y-97822500D01*
D15*
X174308000Y-97822500D02*
X175070000Y-97822500D01*
X174308000Y-97822500D02*
X173546000Y-97822500D01*
X175070000Y-97314500D02*
X174308000Y-97314500D01*
X174308000Y-97314500D02*
X173546000Y-97314500D01*
D14*
X174308000Y-97314500D02*
X174308000Y-97187500D01*
X175832000Y-108641000D02*
X175832000Y-112959000D01*
X172784000Y-112959000D02*
X172784000Y-108641000D01*
X175578000Y-113213000D02*
X173038000Y-113213000D01*
X175578000Y-108387000D02*
X173038000Y-108387000D01*
X175578000Y-113213000D02*
G75*
G03X175832000Y-112959000I0J254000D01*
G01*
X175832000Y-108641000D02*
G75*
G03X175578000Y-108387000I-254000J0D01*
G01*
X173038000Y-113213000D02*
G75*
G02X172784000Y-112959000I0J254000D01*
G01*
X172784000Y-108641000D02*
G75*
G02X173038000Y-108387000I254000J0D01*
G01*
X174308000Y-111181000D02*
X174308000Y-111054000D01*
D15*
X174308000Y-111054000D02*
X175070000Y-111054000D01*
X174308000Y-111054000D02*
X173546000Y-111054000D01*
X175070000Y-110546000D02*
X174308000Y-110546000D01*
X174308000Y-110546000D02*
X173546000Y-110546000D01*
D14*
X174308000Y-110546000D02*
X174308000Y-110419000D01*
X178685000Y-126545000D02*
G75*
G03X178939000Y-126799000I254000J0D01*
G01*
X180971000Y-126545000D02*
G75*
G02X180717000Y-126799000I-254000J0D01*
G01*
X180717000Y-120449000D02*
G75*
G02X180971000Y-120703000I0J-254000D01*
G01*
X178939000Y-120449000D02*
G75*
G03X178685000Y-120703000I0J-254000D01*
G01*
X180717000Y-126799000D02*
X178939000Y-126799000D01*
X178685000Y-126545000D02*
X178685000Y-126164000D01*
X178812000Y-126037000D02*
X178685000Y-126164000D01*
X180971000Y-126545000D02*
X180971000Y-126164000D01*
X180844000Y-126037000D02*
X180971000Y-126164000D01*
X178812000Y-121211000D02*
X178685000Y-121084000D01*
X178812000Y-121211000D02*
X178812000Y-126037000D01*
X180844000Y-121211000D02*
X180971000Y-121084000D01*
X180844000Y-121211000D02*
X180844000Y-126037000D01*
X178685000Y-120703000D02*
X178685000Y-121084000D01*
X180971000Y-120703000D02*
X180971000Y-121084000D01*
X180717000Y-120449000D02*
X178939000Y-120449000D01*
D16*
G36*
X180132800Y-120449000D02*
G01*
X180132800Y-119585400D01*
X179523200Y-119585400D01*
X179523200Y-120449000D01*
X180132800Y-120449000D01*
G37*
G36*
X180132800Y-127662600D02*
G01*
X180132800Y-126799000D01*
X179523200Y-126799000D01*
X179523200Y-127662600D01*
X180132800Y-127662600D01*
G37*
D14*
X181685000Y-126545000D02*
G75*
G03X181939000Y-126799000I254000J0D01*
G01*
X183971000Y-126545000D02*
G75*
G02X183717000Y-126799000I-254000J0D01*
G01*
X183717000Y-120449000D02*
G75*
G02X183971000Y-120703000I0J-254000D01*
G01*
X181939000Y-120449000D02*
G75*
G03X181685000Y-120703000I0J-254000D01*
G01*
X183717000Y-126799000D02*
X181939000Y-126799000D01*
X181685000Y-126545000D02*
X181685000Y-126164000D01*
X181812000Y-126037000D02*
X181685000Y-126164000D01*
X183971000Y-126545000D02*
X183971000Y-126164000D01*
X183844000Y-126037000D02*
X183971000Y-126164000D01*
X181812000Y-121211000D02*
X181685000Y-121084000D01*
X181812000Y-121211000D02*
X181812000Y-126037000D01*
X183844000Y-121211000D02*
X183971000Y-121084000D01*
X183844000Y-121211000D02*
X183844000Y-126037000D01*
X181685000Y-120703000D02*
X181685000Y-121084000D01*
X183971000Y-120703000D02*
X183971000Y-121084000D01*
X183717000Y-120449000D02*
X181939000Y-120449000D01*
D16*
G36*
X183132800Y-120449000D02*
G01*
X183132800Y-119585400D01*
X182523200Y-119585400D01*
X182523200Y-120449000D01*
X183132800Y-120449000D01*
G37*
G36*
X183132800Y-127662600D02*
G01*
X183132800Y-126799000D01*
X182523200Y-126799000D01*
X182523200Y-127662600D01*
X183132800Y-127662600D01*
G37*
D14*
X184685000Y-126545000D02*
G75*
G03X184939000Y-126799000I254000J0D01*
G01*
X186971000Y-126545000D02*
G75*
G02X186717000Y-126799000I-254000J0D01*
G01*
X186717000Y-120449000D02*
G75*
G02X186971000Y-120703000I0J-254000D01*
G01*
X184939000Y-120449000D02*
G75*
G03X184685000Y-120703000I0J-254000D01*
G01*
X186717000Y-126799000D02*
X184939000Y-126799000D01*
X184685000Y-126545000D02*
X184685000Y-126164000D01*
X184812000Y-126037000D02*
X184685000Y-126164000D01*
X186971000Y-126545000D02*
X186971000Y-126164000D01*
X186844000Y-126037000D02*
X186971000Y-126164000D01*
X184812000Y-121211000D02*
X184685000Y-121084000D01*
X184812000Y-121211000D02*
X184812000Y-126037000D01*
X186844000Y-121211000D02*
X186971000Y-121084000D01*
X186844000Y-121211000D02*
X186844000Y-126037000D01*
X184685000Y-120703000D02*
X184685000Y-121084000D01*
X186971000Y-120703000D02*
X186971000Y-121084000D01*
X186717000Y-120449000D02*
X184939000Y-120449000D01*
D16*
G36*
X186132800Y-120449000D02*
G01*
X186132800Y-119585400D01*
X185523200Y-119585400D01*
X185523200Y-120449000D01*
X186132800Y-120449000D01*
G37*
G36*
X186132800Y-127662600D02*
G01*
X186132800Y-126799000D01*
X185523200Y-126799000D01*
X185523200Y-127662600D01*
X186132800Y-127662600D01*
G37*
D14*
X187685000Y-126545000D02*
G75*
G03X187939000Y-126799000I254000J0D01*
G01*
X189971000Y-126545000D02*
G75*
G02X189717000Y-126799000I-254000J0D01*
G01*
X189717000Y-120449000D02*
G75*
G02X189971000Y-120703000I0J-254000D01*
G01*
X187939000Y-120449000D02*
G75*
G03X187685000Y-120703000I0J-254000D01*
G01*
X189717000Y-126799000D02*
X187939000Y-126799000D01*
X187685000Y-126545000D02*
X187685000Y-126164000D01*
X187812000Y-126037000D02*
X187685000Y-126164000D01*
X189971000Y-126545000D02*
X189971000Y-126164000D01*
X189844000Y-126037000D02*
X189971000Y-126164000D01*
X187812000Y-121211000D02*
X187685000Y-121084000D01*
X187812000Y-121211000D02*
X187812000Y-126037000D01*
X189844000Y-121211000D02*
X189971000Y-121084000D01*
X189844000Y-121211000D02*
X189844000Y-126037000D01*
X187685000Y-120703000D02*
X187685000Y-121084000D01*
X189971000Y-120703000D02*
X189971000Y-121084000D01*
X189717000Y-120449000D02*
X187939000Y-120449000D01*
D16*
G36*
X189132800Y-120449000D02*
G01*
X189132800Y-119585400D01*
X188523200Y-119585400D01*
X188523200Y-120449000D01*
X189132800Y-120449000D01*
G37*
G36*
X189132800Y-127662600D02*
G01*
X189132800Y-126799000D01*
X188523200Y-126799000D01*
X188523200Y-127662600D01*
X189132800Y-127662600D01*
G37*
D14*
X190685000Y-126545000D02*
G75*
G03X190939000Y-126799000I254000J0D01*
G01*
X192971000Y-126545000D02*
G75*
G02X192717000Y-126799000I-254000J0D01*
G01*
X192717000Y-120449000D02*
G75*
G02X192971000Y-120703000I0J-254000D01*
G01*
X190939000Y-120449000D02*
G75*
G03X190685000Y-120703000I0J-254000D01*
G01*
X192717000Y-126799000D02*
X190939000Y-126799000D01*
X190685000Y-126545000D02*
X190685000Y-126164000D01*
X190812000Y-126037000D02*
X190685000Y-126164000D01*
X192971000Y-126545000D02*
X192971000Y-126164000D01*
X192844000Y-126037000D02*
X192971000Y-126164000D01*
X190812000Y-121211000D02*
X190685000Y-121084000D01*
X190812000Y-121211000D02*
X190812000Y-126037000D01*
X192844000Y-121211000D02*
X192971000Y-121084000D01*
X192844000Y-121211000D02*
X192844000Y-126037000D01*
X190685000Y-120703000D02*
X190685000Y-121084000D01*
X192971000Y-120703000D02*
X192971000Y-121084000D01*
X192717000Y-120449000D02*
X190939000Y-120449000D01*
D16*
G36*
X192132800Y-120449000D02*
G01*
X192132800Y-119585400D01*
X191523200Y-119585400D01*
X191523200Y-120449000D01*
X192132800Y-120449000D01*
G37*
G36*
X192132800Y-127662600D02*
G01*
X192132800Y-126799000D01*
X191523200Y-126799000D01*
X191523200Y-127662600D01*
X192132800Y-127662600D01*
G37*
D14*
X193685000Y-126545000D02*
G75*
G03X193939000Y-126799000I254000J0D01*
G01*
X195971000Y-126545000D02*
G75*
G02X195717000Y-126799000I-254000J0D01*
G01*
X195717000Y-120449000D02*
G75*
G02X195971000Y-120703000I0J-254000D01*
G01*
X193939000Y-120449000D02*
G75*
G03X193685000Y-120703000I0J-254000D01*
G01*
X195717000Y-126799000D02*
X193939000Y-126799000D01*
X193685000Y-126545000D02*
X193685000Y-126164000D01*
X193812000Y-126037000D02*
X193685000Y-126164000D01*
X195971000Y-126545000D02*
X195971000Y-126164000D01*
X195844000Y-126037000D02*
X195971000Y-126164000D01*
X193812000Y-121211000D02*
X193685000Y-121084000D01*
X193812000Y-121211000D02*
X193812000Y-126037000D01*
X195844000Y-121211000D02*
X195971000Y-121084000D01*
X195844000Y-121211000D02*
X195844000Y-126037000D01*
X193685000Y-120703000D02*
X193685000Y-121084000D01*
X195971000Y-120703000D02*
X195971000Y-121084000D01*
X195717000Y-120449000D02*
X193939000Y-120449000D01*
D16*
G36*
X195132800Y-120449000D02*
G01*
X195132800Y-119585400D01*
X194523200Y-119585400D01*
X194523200Y-120449000D01*
X195132800Y-120449000D01*
G37*
G36*
X195132800Y-127662600D02*
G01*
X195132800Y-126799000D01*
X194523200Y-126799000D01*
X194523200Y-127662600D01*
X195132800Y-127662600D01*
G37*
D14*
X196685000Y-126545000D02*
G75*
G03X196939000Y-126799000I254000J0D01*
G01*
X198971000Y-126545000D02*
G75*
G02X198717000Y-126799000I-254000J0D01*
G01*
X198717000Y-120449000D02*
G75*
G02X198971000Y-120703000I0J-254000D01*
G01*
X196939000Y-120449000D02*
G75*
G03X196685000Y-120703000I0J-254000D01*
G01*
X198717000Y-126799000D02*
X196939000Y-126799000D01*
X196685000Y-126545000D02*
X196685000Y-126164000D01*
X196812000Y-126037000D02*
X196685000Y-126164000D01*
X198971000Y-126545000D02*
X198971000Y-126164000D01*
X198844000Y-126037000D02*
X198971000Y-126164000D01*
X196812000Y-121211000D02*
X196685000Y-121084000D01*
X196812000Y-121211000D02*
X196812000Y-126037000D01*
X198844000Y-121211000D02*
X198971000Y-121084000D01*
X198844000Y-121211000D02*
X198844000Y-126037000D01*
X196685000Y-120703000D02*
X196685000Y-121084000D01*
X198971000Y-120703000D02*
X198971000Y-121084000D01*
X198717000Y-120449000D02*
X196939000Y-120449000D01*
D16*
G36*
X198132800Y-120449000D02*
G01*
X198132800Y-119585400D01*
X197523200Y-119585400D01*
X197523200Y-120449000D01*
X198132800Y-120449000D01*
G37*
G36*
X198132800Y-127662600D02*
G01*
X198132800Y-126799000D01*
X197523200Y-126799000D01*
X197523200Y-127662600D01*
X198132800Y-127662600D01*
G37*
D14*
X199685000Y-126545000D02*
G75*
G03X199939000Y-126799000I254000J0D01*
G01*
X201971000Y-126545000D02*
G75*
G02X201717000Y-126799000I-254000J0D01*
G01*
X201717000Y-120449000D02*
G75*
G02X201971000Y-120703000I0J-254000D01*
G01*
X199939000Y-120449000D02*
G75*
G03X199685000Y-120703000I0J-254000D01*
G01*
X201717000Y-126799000D02*
X199939000Y-126799000D01*
X199685000Y-126545000D02*
X199685000Y-126164000D01*
X199812000Y-126037000D02*
X199685000Y-126164000D01*
X201971000Y-126545000D02*
X201971000Y-126164000D01*
X201844000Y-126037000D02*
X201971000Y-126164000D01*
X199812000Y-121211000D02*
X199685000Y-121084000D01*
X199812000Y-121211000D02*
X199812000Y-126037000D01*
X201844000Y-121211000D02*
X201971000Y-121084000D01*
X201844000Y-121211000D02*
X201844000Y-126037000D01*
X199685000Y-120703000D02*
X199685000Y-121084000D01*
X201971000Y-120703000D02*
X201971000Y-121084000D01*
X201717000Y-120449000D02*
X199939000Y-120449000D01*
D16*
G36*
X201132800Y-120449000D02*
G01*
X201132800Y-119585400D01*
X200523200Y-119585400D01*
X200523200Y-120449000D01*
X201132800Y-120449000D01*
G37*
G36*
X201132800Y-127662600D02*
G01*
X201132800Y-126799000D01*
X200523200Y-126799000D01*
X200523200Y-127662600D01*
X201132800Y-127662600D01*
G37*
D12*
X125978000Y-85330000D02*
X125978000Y-84000000D01*
X127308000Y-85330000D02*
X125978000Y-85330000D01*
X125978000Y-82730000D02*
X125978000Y-80130000D01*
X128578000Y-82730000D02*
X125978000Y-82730000D01*
X128578000Y-85330000D02*
X128578000Y-82730000D01*
X125978000Y-80130000D02*
X136258000Y-80130000D01*
X128578000Y-85330000D02*
X136258000Y-85330000D01*
X136258000Y-85330000D02*
X136258000Y-80130000D01*
X125978000Y-111330000D02*
X125978000Y-110000000D01*
X127308000Y-111330000D02*
X125978000Y-111330000D01*
X125978000Y-108730000D02*
X125978000Y-106130000D01*
X128578000Y-108730000D02*
X125978000Y-108730000D01*
X128578000Y-111330000D02*
X128578000Y-108730000D01*
X125978000Y-106130000D02*
X136258000Y-106130000D01*
X128578000Y-111330000D02*
X136258000Y-111330000D01*
X136258000Y-111330000D02*
X136258000Y-106130000D01*
X125978000Y-98330000D02*
X125978000Y-97000000D01*
X127308000Y-98330000D02*
X125978000Y-98330000D01*
X125978000Y-95730000D02*
X125978000Y-93130000D01*
X128578000Y-95730000D02*
X125978000Y-95730000D01*
X128578000Y-98330000D02*
X128578000Y-95730000D01*
X125978000Y-93130000D02*
X136258000Y-93130000D01*
X128578000Y-98330000D02*
X136258000Y-98330000D01*
X136258000Y-98330000D02*
X136258000Y-93130000D01*
X203598000Y-63134000D02*
X203598000Y-52634000D01*
X177958000Y-63134000D02*
X203598000Y-63134000D01*
X177958000Y-52634000D02*
X177958000Y-63134000D01*
X203598000Y-52634000D02*
X177958000Y-52634000D01*
X203538000Y-60134000D02*
X203538000Y-58884000D01*
X178018000Y-60134000D02*
X203538000Y-60134000D01*
X178018000Y-55634000D02*
X178018000Y-60134000D01*
X203538000Y-55634000D02*
X178018000Y-55634000D01*
X203538000Y-56884000D02*
X203538000Y-55634000D01*
X203538000Y-58884000D02*
G75*
G02X203538000Y-56884000I0J1000000D01*
G01*
X203590000Y-87000000D02*
X203590000Y-76500000D01*
X177950000Y-87000000D02*
X203590000Y-87000000D01*
X177950000Y-76500000D02*
X177950000Y-87000000D01*
X203590000Y-76500000D02*
X177950000Y-76500000D01*
X203530000Y-84000000D02*
X203530000Y-82750000D01*
X178010000Y-84000000D02*
X203530000Y-84000000D01*
X178010000Y-79500000D02*
X178010000Y-84000000D01*
X203530000Y-79500000D02*
X178010000Y-79500000D01*
X203530000Y-80750000D02*
X203530000Y-79500000D01*
X203530000Y-82750000D02*
G75*
G02X203530000Y-80750000I0J1000000D01*
G01*
X203598000Y-75067000D02*
X203598000Y-64567000D01*
X177958000Y-75067000D02*
X203598000Y-75067000D01*
X177958000Y-64567000D02*
X177958000Y-75067000D01*
X203598000Y-64567000D02*
X177958000Y-64567000D01*
X203538000Y-72067000D02*
X203538000Y-70817000D01*
X178018000Y-72067000D02*
X203538000Y-72067000D01*
X178018000Y-67567000D02*
X178018000Y-72067000D01*
X203538000Y-67567000D02*
X178018000Y-67567000D01*
X203538000Y-68817000D02*
X203538000Y-67567000D01*
X203538000Y-70817000D02*
G75*
G02X203538000Y-68817000I0J1000000D01*
G01*
X203598000Y-102828500D02*
X203598000Y-92328500D01*
X177958000Y-102828500D02*
X203598000Y-102828500D01*
X177958000Y-92328500D02*
X177958000Y-102828500D01*
X203598000Y-92328500D02*
X177958000Y-92328500D01*
X203538000Y-99828500D02*
X203538000Y-98578500D01*
X178018000Y-99828500D02*
X203538000Y-99828500D01*
X178018000Y-95328500D02*
X178018000Y-99828500D01*
X203538000Y-95328500D02*
X178018000Y-95328500D01*
X203538000Y-96578500D02*
X203538000Y-95328500D01*
X203538000Y-98578500D02*
G75*
G02X203538000Y-96578500I0J1000000D01*
G01*
X203598000Y-116060000D02*
X203598000Y-105560000D01*
X177958000Y-116060000D02*
X203598000Y-116060000D01*
X177958000Y-105560000D02*
X177958000Y-116060000D01*
X203598000Y-105560000D02*
X177958000Y-105560000D01*
X203538000Y-113060000D02*
X203538000Y-111810000D01*
X178018000Y-113060000D02*
X203538000Y-113060000D01*
X178018000Y-108560000D02*
X178018000Y-113060000D01*
X203538000Y-108560000D02*
X178018000Y-108560000D01*
X203538000Y-109810000D02*
X203538000Y-108560000D01*
X203538000Y-111810000D02*
G75*
G02X203538000Y-109810000I0J1000000D01*
G01*
X138064759Y-121512000D02*
X138064759Y-122142000D01*
X137749759Y-121827000D02*
X138379759Y-121827000D01*
X144491000Y-123264000D02*
X144491000Y-124068000D01*
X144451000Y-123033000D02*
X144451000Y-124299000D01*
X144411000Y-122864000D02*
X144411000Y-124468000D01*
X144371000Y-122726000D02*
X144371000Y-124606000D01*
X144331000Y-122607000D02*
X144331000Y-124725000D01*
X144291000Y-122501000D02*
X144291000Y-124831000D01*
X144251000Y-122404000D02*
X144251000Y-124928000D01*
X144211000Y-122316000D02*
X144211000Y-125016000D01*
X144171000Y-122234000D02*
X144171000Y-125098000D01*
X144131000Y-122157000D02*
X144131000Y-125175000D01*
X144091000Y-122085000D02*
X144091000Y-125247000D01*
X144051000Y-122016000D02*
X144051000Y-125316000D01*
X144011000Y-121952000D02*
X144011000Y-125380000D01*
X143971000Y-121890000D02*
X143971000Y-125442000D01*
X143931000Y-121832000D02*
X143931000Y-125500000D01*
X143891000Y-121776000D02*
X143891000Y-125556000D01*
X143851000Y-121722000D02*
X143851000Y-125610000D01*
X143811000Y-121671000D02*
X143811000Y-125661000D01*
X143771000Y-121622000D02*
X143771000Y-125710000D01*
X143731000Y-121574000D02*
X143731000Y-125758000D01*
X143691000Y-121529000D02*
X143691000Y-125803000D01*
X143651000Y-121484000D02*
X143651000Y-125848000D01*
X143611000Y-121442000D02*
X143611000Y-125890000D01*
X143571000Y-121401000D02*
X143571000Y-125931000D01*
X143531000Y-124706000D02*
X143531000Y-125971000D01*
X143531000Y-121361000D02*
X143531000Y-122626000D01*
X143491000Y-124706000D02*
X143491000Y-126009000D01*
X143491000Y-121323000D02*
X143491000Y-122626000D01*
X143451000Y-124706000D02*
X143451000Y-126046000D01*
X143451000Y-121286000D02*
X143451000Y-122626000D01*
X143411000Y-124706000D02*
X143411000Y-126082000D01*
X143411000Y-121250000D02*
X143411000Y-122626000D01*
X143371000Y-124706000D02*
X143371000Y-126116000D01*
X143371000Y-121216000D02*
X143371000Y-122626000D01*
X143331000Y-124706000D02*
X143331000Y-126150000D01*
X143331000Y-121182000D02*
X143331000Y-122626000D01*
X143291000Y-124706000D02*
X143291000Y-126182000D01*
X143291000Y-121150000D02*
X143291000Y-122626000D01*
X143251000Y-124706000D02*
X143251000Y-126214000D01*
X143251000Y-121118000D02*
X143251000Y-122626000D01*
X143211000Y-124706000D02*
X143211000Y-126244000D01*
X143211000Y-121088000D02*
X143211000Y-122626000D01*
X143171000Y-124706000D02*
X143171000Y-126273000D01*
X143171000Y-121059000D02*
X143171000Y-122626000D01*
X143131000Y-124706000D02*
X143131000Y-126302000D01*
X143131000Y-121030000D02*
X143131000Y-122626000D01*
X143091000Y-124706000D02*
X143091000Y-126330000D01*
X143091000Y-121002000D02*
X143091000Y-122626000D01*
X143051000Y-124706000D02*
X143051000Y-126356000D01*
X143051000Y-120976000D02*
X143051000Y-122626000D01*
X143011000Y-124706000D02*
X143011000Y-126382000D01*
X143011000Y-120950000D02*
X143011000Y-122626000D01*
X142971000Y-124706000D02*
X142971000Y-126408000D01*
X142971000Y-120924000D02*
X142971000Y-122626000D01*
X142931000Y-124706000D02*
X142931000Y-126432000D01*
X142931000Y-120900000D02*
X142931000Y-122626000D01*
X142891000Y-124706000D02*
X142891000Y-126456000D01*
X142891000Y-120876000D02*
X142891000Y-122626000D01*
X142851000Y-124706000D02*
X142851000Y-126478000D01*
X142851000Y-120854000D02*
X142851000Y-122626000D01*
X142811000Y-124706000D02*
X142811000Y-126500000D01*
X142811000Y-120832000D02*
X142811000Y-122626000D01*
X142771000Y-124706000D02*
X142771000Y-126522000D01*
X142771000Y-120810000D02*
X142771000Y-122626000D01*
X142731000Y-124706000D02*
X142731000Y-126542000D01*
X142731000Y-120790000D02*
X142731000Y-122626000D01*
X142691000Y-124706000D02*
X142691000Y-126562000D01*
X142691000Y-120770000D02*
X142691000Y-122626000D01*
X142651000Y-124706000D02*
X142651000Y-126582000D01*
X142651000Y-120750000D02*
X142651000Y-122626000D01*
X142611000Y-124706000D02*
X142611000Y-126600000D01*
X142611000Y-120732000D02*
X142611000Y-122626000D01*
X142571000Y-124706000D02*
X142571000Y-126618000D01*
X142571000Y-120714000D02*
X142571000Y-122626000D01*
X142531000Y-124706000D02*
X142531000Y-126636000D01*
X142531000Y-120696000D02*
X142531000Y-122626000D01*
X142491000Y-124706000D02*
X142491000Y-126652000D01*
X142491000Y-120680000D02*
X142491000Y-122626000D01*
X142451000Y-124706000D02*
X142451000Y-126668000D01*
X142451000Y-120664000D02*
X142451000Y-122626000D01*
X142411000Y-124706000D02*
X142411000Y-126684000D01*
X142411000Y-120648000D02*
X142411000Y-122626000D01*
X142371000Y-124706000D02*
X142371000Y-126699000D01*
X142371000Y-120633000D02*
X142371000Y-122626000D01*
X142331000Y-124706000D02*
X142331000Y-126713000D01*
X142331000Y-120619000D02*
X142331000Y-122626000D01*
X142291000Y-124706000D02*
X142291000Y-126727000D01*
X142291000Y-120605000D02*
X142291000Y-122626000D01*
X142251000Y-124706000D02*
X142251000Y-126740000D01*
X142251000Y-120592000D02*
X142251000Y-122626000D01*
X142211000Y-124706000D02*
X142211000Y-126752000D01*
X142211000Y-120580000D02*
X142211000Y-122626000D01*
X142171000Y-124706000D02*
X142171000Y-126764000D01*
X142171000Y-120568000D02*
X142171000Y-122626000D01*
X142131000Y-124706000D02*
X142131000Y-126776000D01*
X142131000Y-120556000D02*
X142131000Y-122626000D01*
X142091000Y-124706000D02*
X142091000Y-126787000D01*
X142091000Y-120545000D02*
X142091000Y-122626000D01*
X142051000Y-124706000D02*
X142051000Y-126797000D01*
X142051000Y-120535000D02*
X142051000Y-122626000D01*
X142011000Y-124706000D02*
X142011000Y-126807000D01*
X142011000Y-120525000D02*
X142011000Y-122626000D01*
X141971000Y-124706000D02*
X141971000Y-126816000D01*
X141971000Y-120516000D02*
X141971000Y-122626000D01*
X141930000Y-124706000D02*
X141930000Y-126825000D01*
X141930000Y-120507000D02*
X141930000Y-122626000D01*
X141890000Y-124706000D02*
X141890000Y-126833000D01*
X141890000Y-120499000D02*
X141890000Y-122626000D01*
X141850000Y-124706000D02*
X141850000Y-126841000D01*
X141850000Y-120491000D02*
X141850000Y-122626000D01*
X141810000Y-124706000D02*
X141810000Y-126848000D01*
X141810000Y-120484000D02*
X141810000Y-122626000D01*
X141770000Y-124706000D02*
X141770000Y-126855000D01*
X141770000Y-120477000D02*
X141770000Y-122626000D01*
X141730000Y-124706000D02*
X141730000Y-126861000D01*
X141730000Y-120471000D02*
X141730000Y-122626000D01*
X141690000Y-124706000D02*
X141690000Y-126867000D01*
X141690000Y-120465000D02*
X141690000Y-122626000D01*
X141650000Y-124706000D02*
X141650000Y-126872000D01*
X141650000Y-120460000D02*
X141650000Y-122626000D01*
X141610000Y-124706000D02*
X141610000Y-126877000D01*
X141610000Y-120455000D02*
X141610000Y-122626000D01*
X141570000Y-124706000D02*
X141570000Y-126881000D01*
X141570000Y-120451000D02*
X141570000Y-122626000D01*
X141530000Y-124706000D02*
X141530000Y-126884000D01*
X141530000Y-120448000D02*
X141530000Y-122626000D01*
X141490000Y-124706000D02*
X141490000Y-126888000D01*
X141490000Y-120444000D02*
X141490000Y-122626000D01*
X141450000Y-120442000D02*
X141450000Y-126890000D01*
X141410000Y-120439000D02*
X141410000Y-126893000D01*
X141370000Y-120438000D02*
X141370000Y-126894000D01*
X141330000Y-120436000D02*
X141330000Y-126896000D01*
X141290000Y-120436000D02*
X141290000Y-126896000D01*
X141250000Y-120436000D02*
X141250000Y-126896000D01*
X144520000Y-123666000D02*
G75*
G03X144520000Y-123666000I-3270000J0D01*
G01*
X122043225Y-69449000D02*
X122043225Y-69949000D01*
X121793225Y-69699000D02*
X122293225Y-69699000D01*
X127199000Y-70890000D02*
X127199000Y-71458000D01*
X127159000Y-70656000D02*
X127159000Y-71692000D01*
X127119000Y-70497000D02*
X127119000Y-71851000D01*
X127079000Y-70369000D02*
X127079000Y-71979000D01*
X127039000Y-70259000D02*
X127039000Y-72089000D01*
X126999000Y-70163000D02*
X126999000Y-72185000D01*
X126959000Y-70076000D02*
X126959000Y-72272000D01*
X126919000Y-69996000D02*
X126919000Y-72352000D01*
X126879000Y-72214000D02*
X126879000Y-72425000D01*
X126879000Y-69923000D02*
X126879000Y-70134000D01*
X126839000Y-72214000D02*
X126839000Y-72493000D01*
X126839000Y-69855000D02*
X126839000Y-70134000D01*
X126799000Y-72214000D02*
X126799000Y-72557000D01*
X126799000Y-69791000D02*
X126799000Y-70134000D01*
X126759000Y-72214000D02*
X126759000Y-72617000D01*
X126759000Y-69731000D02*
X126759000Y-70134000D01*
X126719000Y-72214000D02*
X126719000Y-72674000D01*
X126719000Y-69674000D02*
X126719000Y-70134000D01*
X126679000Y-72214000D02*
X126679000Y-72728000D01*
X126679000Y-69620000D02*
X126679000Y-70134000D01*
X126639000Y-72214000D02*
X126639000Y-72779000D01*
X126639000Y-69569000D02*
X126639000Y-70134000D01*
X126599000Y-72214000D02*
X126599000Y-72827000D01*
X126599000Y-69521000D02*
X126599000Y-70134000D01*
X126559000Y-72214000D02*
X126559000Y-72873000D01*
X126559000Y-69475000D02*
X126559000Y-70134000D01*
X126519000Y-72214000D02*
X126519000Y-72917000D01*
X126519000Y-69431000D02*
X126519000Y-70134000D01*
X126479000Y-72214000D02*
X126479000Y-72959000D01*
X126479000Y-69389000D02*
X126479000Y-70134000D01*
X126439000Y-72214000D02*
X126439000Y-73000000D01*
X126439000Y-69348000D02*
X126439000Y-70134000D01*
X126399000Y-72214000D02*
X126399000Y-73038000D01*
X126399000Y-69310000D02*
X126399000Y-70134000D01*
X126359000Y-72214000D02*
X126359000Y-73075000D01*
X126359000Y-69273000D02*
X126359000Y-70134000D01*
X126319000Y-72214000D02*
X126319000Y-73111000D01*
X126319000Y-69237000D02*
X126319000Y-70134000D01*
X126279000Y-72214000D02*
X126279000Y-73145000D01*
X126279000Y-69203000D02*
X126279000Y-70134000D01*
X126239000Y-72214000D02*
X126239000Y-73178000D01*
X126239000Y-69170000D02*
X126239000Y-70134000D01*
X126199000Y-72214000D02*
X126199000Y-73209000D01*
X126199000Y-69139000D02*
X126199000Y-70134000D01*
X126159000Y-72214000D02*
X126159000Y-73239000D01*
X126159000Y-69109000D02*
X126159000Y-70134000D01*
X126119000Y-72214000D02*
X126119000Y-73269000D01*
X126119000Y-69079000D02*
X126119000Y-70134000D01*
X126079000Y-72214000D02*
X126079000Y-73296000D01*
X126079000Y-69052000D02*
X126079000Y-70134000D01*
X126039000Y-72214000D02*
X126039000Y-73323000D01*
X126039000Y-69025000D02*
X126039000Y-70134000D01*
X125999000Y-72214000D02*
X125999000Y-73349000D01*
X125999000Y-68999000D02*
X125999000Y-70134000D01*
X125959000Y-72214000D02*
X125959000Y-73374000D01*
X125959000Y-68974000D02*
X125959000Y-70134000D01*
X125919000Y-72214000D02*
X125919000Y-73398000D01*
X125919000Y-68950000D02*
X125919000Y-70134000D01*
X125879000Y-72214000D02*
X125879000Y-73421000D01*
X125879000Y-68927000D02*
X125879000Y-70134000D01*
X125839000Y-72214000D02*
X125839000Y-73442000D01*
X125839000Y-68906000D02*
X125839000Y-70134000D01*
X125799000Y-72214000D02*
X125799000Y-73464000D01*
X125799000Y-68884000D02*
X125799000Y-70134000D01*
X125759000Y-72214000D02*
X125759000Y-73484000D01*
X125759000Y-68864000D02*
X125759000Y-70134000D01*
X125719000Y-72214000D02*
X125719000Y-73503000D01*
X125719000Y-68845000D02*
X125719000Y-70134000D01*
X125679000Y-72214000D02*
X125679000Y-73522000D01*
X125679000Y-68826000D02*
X125679000Y-70134000D01*
X125639000Y-72214000D02*
X125639000Y-73539000D01*
X125639000Y-68809000D02*
X125639000Y-70134000D01*
X125599000Y-72214000D02*
X125599000Y-73556000D01*
X125599000Y-68792000D02*
X125599000Y-70134000D01*
X125559000Y-72214000D02*
X125559000Y-73572000D01*
X125559000Y-68776000D02*
X125559000Y-70134000D01*
X125519000Y-72214000D02*
X125519000Y-73588000D01*
X125519000Y-68760000D02*
X125519000Y-70134000D01*
X125479000Y-72214000D02*
X125479000Y-73602000D01*
X125479000Y-68746000D02*
X125479000Y-70134000D01*
X125439000Y-72214000D02*
X125439000Y-73616000D01*
X125439000Y-68732000D02*
X125439000Y-70134000D01*
X125399000Y-72214000D02*
X125399000Y-73629000D01*
X125399000Y-68719000D02*
X125399000Y-70134000D01*
X125359000Y-72214000D02*
X125359000Y-73642000D01*
X125359000Y-68706000D02*
X125359000Y-70134000D01*
X125319000Y-72214000D02*
X125319000Y-73654000D01*
X125319000Y-68694000D02*
X125319000Y-70134000D01*
X125278000Y-72214000D02*
X125278000Y-73665000D01*
X125278000Y-68683000D02*
X125278000Y-70134000D01*
X125238000Y-72214000D02*
X125238000Y-73675000D01*
X125238000Y-68673000D02*
X125238000Y-70134000D01*
X125198000Y-72214000D02*
X125198000Y-73685000D01*
X125198000Y-68663000D02*
X125198000Y-70134000D01*
X125158000Y-72214000D02*
X125158000Y-73694000D01*
X125158000Y-68654000D02*
X125158000Y-70134000D01*
X125118000Y-72214000D02*
X125118000Y-73702000D01*
X125118000Y-68646000D02*
X125118000Y-70134000D01*
X125078000Y-72214000D02*
X125078000Y-73710000D01*
X125078000Y-68638000D02*
X125078000Y-70134000D01*
X125038000Y-72214000D02*
X125038000Y-73717000D01*
X125038000Y-68631000D02*
X125038000Y-70134000D01*
X124998000Y-72214000D02*
X124998000Y-73724000D01*
X124998000Y-68624000D02*
X124998000Y-70134000D01*
X124958000Y-72214000D02*
X124958000Y-73730000D01*
X124958000Y-68618000D02*
X124958000Y-70134000D01*
X124918000Y-72214000D02*
X124918000Y-73735000D01*
X124918000Y-68613000D02*
X124918000Y-70134000D01*
X124878000Y-72214000D02*
X124878000Y-73739000D01*
X124878000Y-68609000D02*
X124878000Y-70134000D01*
X124838000Y-72214000D02*
X124838000Y-73743000D01*
X124838000Y-68605000D02*
X124838000Y-70134000D01*
X124798000Y-68601000D02*
X124798000Y-73747000D01*
X124758000Y-68598000D02*
X124758000Y-73750000D01*
X124718000Y-68596000D02*
X124718000Y-73752000D01*
X124678000Y-68595000D02*
X124678000Y-73753000D01*
X124638000Y-68594000D02*
X124638000Y-73754000D01*
X124598000Y-68594000D02*
X124598000Y-73754000D01*
X127218000Y-71174000D02*
G75*
G03X127218000Y-71174000I-2620000J0D01*
G01*
D10*
X129974666Y-115696380D02*
X129974666Y-116410666D01*
X129927047Y-116553523D01*
X129831809Y-116648761D01*
X129688952Y-116696380D01*
X129593714Y-116696380D01*
X130498476Y-116696380D02*
X130688952Y-116696380D01*
X130784190Y-116648761D01*
X130831809Y-116601142D01*
X130927047Y-116458285D01*
X130974666Y-116267809D01*
X130974666Y-115886857D01*
X130927047Y-115791619D01*
X130879428Y-115744000D01*
X130784190Y-115696380D01*
X130593714Y-115696380D01*
X130498476Y-115744000D01*
X130450857Y-115791619D01*
X130403238Y-115886857D01*
X130403238Y-116124952D01*
X130450857Y-116220190D01*
X130498476Y-116267809D01*
X130593714Y-116315428D01*
X130784190Y-116315428D01*
X130879428Y-116267809D01*
X130927047Y-116220190D01*
X130974666Y-116124952D01*
X148900666Y-122812380D02*
X148900666Y-123526666D01*
X148853047Y-123669523D01*
X148757809Y-123764761D01*
X148614952Y-123812380D01*
X148519714Y-123812380D01*
X149281619Y-122812380D02*
X149900666Y-122812380D01*
X149567333Y-123193333D01*
X149710190Y-123193333D01*
X149805428Y-123240952D01*
X149853047Y-123288571D01*
X149900666Y-123383809D01*
X149900666Y-123621904D01*
X149853047Y-123717142D01*
X149805428Y-123764761D01*
X149710190Y-123812380D01*
X149424476Y-123812380D01*
X149329238Y-123764761D01*
X149281619Y-123717142D01*
X166700666Y-122812380D02*
X166700666Y-123526666D01*
X166653047Y-123669523D01*
X166557809Y-123764761D01*
X166414952Y-123812380D01*
X166319714Y-123812380D01*
X167129238Y-122907619D02*
X167176857Y-122860000D01*
X167272095Y-122812380D01*
X167510190Y-122812380D01*
X167605428Y-122860000D01*
X167653047Y-122907619D01*
X167700666Y-123002857D01*
X167700666Y-123098095D01*
X167653047Y-123240952D01*
X167081619Y-123812380D01*
X167700666Y-123812380D01*
X201462380Y-50021904D02*
X201462380Y-49450476D01*
X202462380Y-49736190D02*
X201462380Y-49736190D01*
X202462380Y-49117142D02*
X201462380Y-49117142D01*
X201462380Y-48736190D01*
X201510000Y-48640952D01*
X201557619Y-48593333D01*
X201652857Y-48545714D01*
X201795714Y-48545714D01*
X201890952Y-48593333D01*
X201938571Y-48640952D01*
X201986190Y-48736190D01*
X201986190Y-49117142D01*
X201462380Y-48212380D02*
X201462380Y-47593333D01*
X201843333Y-47926666D01*
X201843333Y-47783809D01*
X201890952Y-47688571D01*
X201938571Y-47640952D01*
X202033809Y-47593333D01*
X202271904Y-47593333D01*
X202367142Y-47640952D01*
X202414761Y-47688571D01*
X202462380Y-47783809D01*
X202462380Y-48069523D01*
X202414761Y-48164761D01*
X202367142Y-48212380D01*
X171212380Y-50011904D02*
X171212380Y-49440476D01*
X172212380Y-49726190D02*
X171212380Y-49726190D01*
X172212380Y-49107142D02*
X171212380Y-49107142D01*
X171212380Y-48726190D01*
X171260000Y-48630952D01*
X171307619Y-48583333D01*
X171402857Y-48535714D01*
X171545714Y-48535714D01*
X171640952Y-48583333D01*
X171688571Y-48630952D01*
X171736190Y-48726190D01*
X171736190Y-49107142D01*
X171307619Y-48154761D02*
X171260000Y-48107142D01*
X171212380Y-48011904D01*
X171212380Y-47773809D01*
X171260000Y-47678571D01*
X171307619Y-47630952D01*
X171402857Y-47583333D01*
X171498095Y-47583333D01*
X171640952Y-47630952D01*
X172212380Y-48202380D01*
X172212380Y-47583333D01*
X201482380Y-90891904D02*
X201482380Y-90320476D01*
X202482380Y-90606190D02*
X201482380Y-90606190D01*
X202482380Y-89987142D02*
X201482380Y-89987142D01*
X201482380Y-89606190D01*
X201530000Y-89510952D01*
X201577619Y-89463333D01*
X201672857Y-89415714D01*
X201815714Y-89415714D01*
X201910952Y-89463333D01*
X201958571Y-89510952D01*
X202006190Y-89606190D01*
X202006190Y-89987142D01*
X202482380Y-88463333D02*
X202482380Y-89034761D01*
X202482380Y-88749047D02*
X201482380Y-88749047D01*
X201625238Y-88844285D01*
X201720476Y-88939523D01*
X201768095Y-89034761D01*
X116750380Y-98583333D02*
X117464666Y-98583333D01*
X117607523Y-98630952D01*
X117702761Y-98726190D01*
X117750380Y-98869047D01*
X117750380Y-98964285D01*
X117750380Y-98107142D02*
X116750380Y-98107142D01*
X116750380Y-97726190D01*
X116798000Y-97630952D01*
X116845619Y-97583333D01*
X116940857Y-97535714D01*
X117083714Y-97535714D01*
X117178952Y-97583333D01*
X117226571Y-97630952D01*
X117274190Y-97726190D01*
X117274190Y-98107142D01*
X116750380Y-96678571D02*
X116750380Y-96869047D01*
X116798000Y-96964285D01*
X116845619Y-97011904D01*
X116988476Y-97107142D01*
X117178952Y-97154761D01*
X117559904Y-97154761D01*
X117655142Y-97107142D01*
X117702761Y-97059523D01*
X117750380Y-96964285D01*
X117750380Y-96773809D01*
X117702761Y-96678571D01*
X117655142Y-96630952D01*
X117559904Y-96583333D01*
X117321809Y-96583333D01*
X117226571Y-96630952D01*
X117178952Y-96678571D01*
X117131333Y-96773809D01*
X117131333Y-96964285D01*
X117178952Y-97059523D01*
X117226571Y-97107142D01*
X117321809Y-97154761D01*
X114210380Y-98583333D02*
X114924666Y-98583333D01*
X115067523Y-98630952D01*
X115162761Y-98726190D01*
X115210380Y-98869047D01*
X115210380Y-98964285D01*
X115210380Y-98107142D02*
X114210380Y-98107142D01*
X114210380Y-97726190D01*
X114258000Y-97630952D01*
X114305619Y-97583333D01*
X114400857Y-97535714D01*
X114543714Y-97535714D01*
X114638952Y-97583333D01*
X114686571Y-97630952D01*
X114734190Y-97726190D01*
X114734190Y-98107142D01*
X114210380Y-96630952D02*
X114210380Y-97107142D01*
X114686571Y-97154761D01*
X114638952Y-97107142D01*
X114591333Y-97011904D01*
X114591333Y-96773809D01*
X114638952Y-96678571D01*
X114686571Y-96630952D01*
X114781809Y-96583333D01*
X115019904Y-96583333D01*
X115115142Y-96630952D01*
X115162761Y-96678571D01*
X115210380Y-96773809D01*
X115210380Y-97011904D01*
X115162761Y-97107142D01*
X115115142Y-97154761D01*
X111670380Y-98583333D02*
X112384666Y-98583333D01*
X112527523Y-98630952D01*
X112622761Y-98726190D01*
X112670380Y-98869047D01*
X112670380Y-98964285D01*
X112670380Y-98107142D02*
X111670380Y-98107142D01*
X111670380Y-97726190D01*
X111718000Y-97630952D01*
X111765619Y-97583333D01*
X111860857Y-97535714D01*
X112003714Y-97535714D01*
X112098952Y-97583333D01*
X112146571Y-97630952D01*
X112194190Y-97726190D01*
X112194190Y-98107142D01*
X112003714Y-96678571D02*
X112670380Y-96678571D01*
X111622761Y-96916666D02*
X112337047Y-97154761D01*
X112337047Y-96535714D01*
X109130380Y-98583333D02*
X109844666Y-98583333D01*
X109987523Y-98630952D01*
X110082761Y-98726190D01*
X110130380Y-98869047D01*
X110130380Y-98964285D01*
X110130380Y-98107142D02*
X109130380Y-98107142D01*
X109130380Y-97726190D01*
X109178000Y-97630952D01*
X109225619Y-97583333D01*
X109320857Y-97535714D01*
X109463714Y-97535714D01*
X109558952Y-97583333D01*
X109606571Y-97630952D01*
X109654190Y-97726190D01*
X109654190Y-98107142D01*
X109130380Y-97202380D02*
X109130380Y-96583333D01*
X109511333Y-96916666D01*
X109511333Y-96773809D01*
X109558952Y-96678571D01*
X109606571Y-96630952D01*
X109701809Y-96583333D01*
X109939904Y-96583333D01*
X110035142Y-96630952D01*
X110082761Y-96678571D01*
X110130380Y-96773809D01*
X110130380Y-97059523D01*
X110082761Y-97154761D01*
X110035142Y-97202380D01*
X106590380Y-98583333D02*
X107304666Y-98583333D01*
X107447523Y-98630952D01*
X107542761Y-98726190D01*
X107590380Y-98869047D01*
X107590380Y-98964285D01*
X107590380Y-98107142D02*
X106590380Y-98107142D01*
X106590380Y-97726190D01*
X106638000Y-97630952D01*
X106685619Y-97583333D01*
X106780857Y-97535714D01*
X106923714Y-97535714D01*
X107018952Y-97583333D01*
X107066571Y-97630952D01*
X107114190Y-97726190D01*
X107114190Y-98107142D01*
X106685619Y-97154761D02*
X106638000Y-97107142D01*
X106590380Y-97011904D01*
X106590380Y-96773809D01*
X106638000Y-96678571D01*
X106685619Y-96630952D01*
X106780857Y-96583333D01*
X106876095Y-96583333D01*
X107018952Y-96630952D01*
X107590380Y-97202380D01*
X107590380Y-96583333D01*
X104050380Y-98583333D02*
X104764666Y-98583333D01*
X104907523Y-98630952D01*
X105002761Y-98726190D01*
X105050380Y-98869047D01*
X105050380Y-98964285D01*
X105050380Y-98107142D02*
X104050380Y-98107142D01*
X104050380Y-97726190D01*
X104098000Y-97630952D01*
X104145619Y-97583333D01*
X104240857Y-97535714D01*
X104383714Y-97535714D01*
X104478952Y-97583333D01*
X104526571Y-97630952D01*
X104574190Y-97726190D01*
X104574190Y-98107142D01*
X105050380Y-96583333D02*
X105050380Y-97154761D01*
X105050380Y-96869047D02*
X104050380Y-96869047D01*
X104193238Y-96964285D01*
X104288476Y-97059523D01*
X104336095Y-97154761D01*
D17*
X158249112Y-80899642D02*
X158191660Y-80957095D01*
X158019303Y-81014547D01*
X157904398Y-81014547D01*
X157732041Y-80957095D01*
X157617136Y-80842190D01*
X157559684Y-80727285D01*
X157502232Y-80497476D01*
X157502232Y-80325119D01*
X157559684Y-80095309D01*
X157617136Y-79980404D01*
X157732041Y-79865500D01*
X157904398Y-79808047D01*
X158019303Y-79808047D01*
X158191660Y-79865500D01*
X158249112Y-79922952D01*
X159283255Y-79808047D02*
X159053446Y-79808047D01*
X158938541Y-79865500D01*
X158881089Y-79922952D01*
X158766184Y-80095309D01*
X158708732Y-80325119D01*
X158708732Y-80784738D01*
X158766184Y-80899642D01*
X158823636Y-80957095D01*
X158938541Y-81014547D01*
X159168351Y-81014547D01*
X159283255Y-80957095D01*
X159340708Y-80899642D01*
X159398160Y-80784738D01*
X159398160Y-80497476D01*
X159340708Y-80382571D01*
X159283255Y-80325119D01*
X159168351Y-80267666D01*
X158938541Y-80267666D01*
X158823636Y-80325119D01*
X158766184Y-80382571D01*
X158708732Y-80497476D01*
X158173112Y-118019642D02*
X158115660Y-118077095D01*
X157943303Y-118134547D01*
X157828398Y-118134547D01*
X157656041Y-118077095D01*
X157541136Y-117962190D01*
X157483684Y-117847285D01*
X157426232Y-117617476D01*
X157426232Y-117445119D01*
X157483684Y-117215309D01*
X157541136Y-117100404D01*
X157656041Y-116985500D01*
X157828398Y-116928047D01*
X157943303Y-116928047D01*
X158115660Y-116985500D01*
X158173112Y-117042952D01*
X159322160Y-118134547D02*
X158632732Y-118134547D01*
X158977446Y-118134547D02*
X158977446Y-116928047D01*
X158862541Y-117100404D01*
X158747636Y-117215309D01*
X158632732Y-117272761D01*
X160471208Y-118134547D02*
X159781779Y-118134547D01*
X160126493Y-118134547D02*
X160126493Y-116928047D01*
X160011589Y-117100404D01*
X159896684Y-117215309D01*
X159781779Y-117272761D01*
X135225490Y-68927642D02*
X135168038Y-68985095D01*
X134995681Y-69042547D01*
X134880776Y-69042547D01*
X134708419Y-68985095D01*
X134593514Y-68870190D01*
X134536062Y-68755285D01*
X134478610Y-68525476D01*
X134478610Y-68353119D01*
X134536062Y-68123309D01*
X134593514Y-68008404D01*
X134708419Y-67893500D01*
X134880776Y-67836047D01*
X134995681Y-67836047D01*
X135168038Y-67893500D01*
X135225490Y-67950952D01*
X136374538Y-69042547D02*
X135685110Y-69042547D01*
X136029824Y-69042547D02*
X136029824Y-67836047D01*
X135914919Y-68008404D01*
X135800014Y-68123309D01*
X135685110Y-68180761D01*
X137121419Y-67836047D02*
X137236324Y-67836047D01*
X137351229Y-67893500D01*
X137408681Y-67950952D01*
X137466133Y-68065857D01*
X137523586Y-68295666D01*
X137523586Y-68582928D01*
X137466133Y-68812738D01*
X137408681Y-68927642D01*
X137351229Y-68985095D01*
X137236324Y-69042547D01*
X137121419Y-69042547D01*
X137006514Y-68985095D01*
X136949062Y-68927642D01*
X136891610Y-68812738D01*
X136834157Y-68582928D01*
X136834157Y-68295666D01*
X136891610Y-68065857D01*
X136949062Y-67950952D01*
X137006514Y-67893500D01*
X137121419Y-67836047D01*
X171833642Y-58315279D02*
X171891095Y-58372732D01*
X171948547Y-58545089D01*
X171948547Y-58659993D01*
X171891095Y-58832351D01*
X171776190Y-58947255D01*
X171661285Y-59004708D01*
X171431476Y-59062160D01*
X171259119Y-59062160D01*
X171029309Y-59004708D01*
X170914404Y-58947255D01*
X170799500Y-58832351D01*
X170742047Y-58659993D01*
X170742047Y-58545089D01*
X170799500Y-58372732D01*
X170856952Y-58315279D01*
X171948547Y-57740755D02*
X171948547Y-57510946D01*
X171891095Y-57396041D01*
X171833642Y-57338589D01*
X171661285Y-57223684D01*
X171431476Y-57166232D01*
X170971857Y-57166232D01*
X170856952Y-57223684D01*
X170799500Y-57281136D01*
X170742047Y-57396041D01*
X170742047Y-57625851D01*
X170799500Y-57740755D01*
X170856952Y-57798208D01*
X170971857Y-57855660D01*
X171259119Y-57855660D01*
X171374023Y-57798208D01*
X171431476Y-57740755D01*
X171488928Y-57625851D01*
X171488928Y-57396041D01*
X171431476Y-57281136D01*
X171374023Y-57223684D01*
X171259119Y-57166232D01*
X112940013Y-68927642D02*
X112882561Y-68985095D01*
X112710204Y-69042547D01*
X112595299Y-69042547D01*
X112422942Y-68985095D01*
X112308037Y-68870190D01*
X112250585Y-68755285D01*
X112193133Y-68525476D01*
X112193133Y-68353119D01*
X112250585Y-68123309D01*
X112308037Y-68008404D01*
X112422942Y-67893500D01*
X112595299Y-67836047D01*
X112710204Y-67836047D01*
X112882561Y-67893500D01*
X112940013Y-67950952D01*
X114031609Y-67836047D02*
X113457085Y-67836047D01*
X113399633Y-68410571D01*
X113457085Y-68353119D01*
X113571990Y-68295666D01*
X113859252Y-68295666D01*
X113974156Y-68353119D01*
X114031609Y-68410571D01*
X114089061Y-68525476D01*
X114089061Y-68812738D01*
X114031609Y-68927642D01*
X113974156Y-68985095D01*
X113859252Y-69042547D01*
X113571990Y-69042547D01*
X113457085Y-68985095D01*
X113399633Y-68927642D01*
X171833642Y-82181279D02*
X171891095Y-82238732D01*
X171948547Y-82411089D01*
X171948547Y-82525993D01*
X171891095Y-82698351D01*
X171776190Y-82813255D01*
X171661285Y-82870708D01*
X171431476Y-82928160D01*
X171259119Y-82928160D01*
X171029309Y-82870708D01*
X170914404Y-82813255D01*
X170799500Y-82698351D01*
X170742047Y-82525993D01*
X170742047Y-82411089D01*
X170799500Y-82238732D01*
X170856952Y-82181279D01*
X171144214Y-81147136D02*
X171948547Y-81147136D01*
X170684595Y-81434398D02*
X171546380Y-81721660D01*
X171546380Y-80974779D01*
X171833642Y-70248279D02*
X171891095Y-70305732D01*
X171948547Y-70478089D01*
X171948547Y-70592993D01*
X171891095Y-70765351D01*
X171776190Y-70880255D01*
X171661285Y-70937708D01*
X171431476Y-70995160D01*
X171259119Y-70995160D01*
X171029309Y-70937708D01*
X170914404Y-70880255D01*
X170799500Y-70765351D01*
X170742047Y-70592993D01*
X170742047Y-70478089D01*
X170799500Y-70305732D01*
X170856952Y-70248279D01*
X170742047Y-69846112D02*
X170742047Y-69099232D01*
X171201666Y-69501398D01*
X171201666Y-69329041D01*
X171259119Y-69214136D01*
X171316571Y-69156684D01*
X171431476Y-69099232D01*
X171718738Y-69099232D01*
X171833642Y-69156684D01*
X171891095Y-69214136D01*
X171948547Y-69329041D01*
X171948547Y-69673755D01*
X171891095Y-69788660D01*
X171833642Y-69846112D01*
X171833642Y-98009779D02*
X171891095Y-98067232D01*
X171948547Y-98239589D01*
X171948547Y-98354493D01*
X171891095Y-98526851D01*
X171776190Y-98641755D01*
X171661285Y-98699208D01*
X171431476Y-98756660D01*
X171259119Y-98756660D01*
X171029309Y-98699208D01*
X170914404Y-98641755D01*
X170799500Y-98526851D01*
X170742047Y-98354493D01*
X170742047Y-98239589D01*
X170799500Y-98067232D01*
X170856952Y-98009779D01*
X170856952Y-97550160D02*
X170799500Y-97492708D01*
X170742047Y-97377803D01*
X170742047Y-97090541D01*
X170799500Y-96975636D01*
X170856952Y-96918184D01*
X170971857Y-96860732D01*
X171086761Y-96860732D01*
X171259119Y-96918184D01*
X171948547Y-97607612D01*
X171948547Y-96860732D01*
X171833642Y-111241279D02*
X171891095Y-111298732D01*
X171948547Y-111471089D01*
X171948547Y-111585993D01*
X171891095Y-111758351D01*
X171776190Y-111873255D01*
X171661285Y-111930708D01*
X171431476Y-111988160D01*
X171259119Y-111988160D01*
X171029309Y-111930708D01*
X170914404Y-111873255D01*
X170799500Y-111758351D01*
X170742047Y-111585993D01*
X170742047Y-111471089D01*
X170799500Y-111298732D01*
X170856952Y-111241279D01*
X171948547Y-110092232D02*
X171948547Y-110781660D01*
X171948547Y-110436946D02*
X170742047Y-110436946D01*
X170914404Y-110551851D01*
X171029309Y-110666755D01*
X171086761Y-110781660D01*
X180367765Y-123806986D02*
X179793241Y-124209152D01*
X180367765Y-124496414D02*
X179161265Y-124496414D01*
X179161265Y-124036795D01*
X179218718Y-123921890D01*
X179276170Y-123864438D01*
X179391075Y-123806986D01*
X179563432Y-123806986D01*
X179678337Y-123864438D01*
X179735789Y-123921890D01*
X179793241Y-124036795D01*
X179793241Y-124496414D01*
X179678337Y-123117557D02*
X179620884Y-123232462D01*
X179563432Y-123289914D01*
X179448527Y-123347366D01*
X179391075Y-123347366D01*
X179276170Y-123289914D01*
X179218718Y-123232462D01*
X179161265Y-123117557D01*
X179161265Y-122887747D01*
X179218718Y-122772843D01*
X179276170Y-122715390D01*
X179391075Y-122657938D01*
X179448527Y-122657938D01*
X179563432Y-122715390D01*
X179620884Y-122772843D01*
X179678337Y-122887747D01*
X179678337Y-123117557D01*
X179735789Y-123232462D01*
X179793241Y-123289914D01*
X179908146Y-123347366D01*
X180137956Y-123347366D01*
X180252860Y-123289914D01*
X180310313Y-123232462D01*
X180367765Y-123117557D01*
X180367765Y-122887747D01*
X180310313Y-122772843D01*
X180252860Y-122715390D01*
X180137956Y-122657938D01*
X179908146Y-122657938D01*
X179793241Y-122715390D01*
X179735789Y-122772843D01*
X179678337Y-122887747D01*
X183367765Y-123806986D02*
X182793241Y-124209152D01*
X183367765Y-124496414D02*
X182161265Y-124496414D01*
X182161265Y-124036795D01*
X182218718Y-123921890D01*
X182276170Y-123864438D01*
X182391075Y-123806986D01*
X182563432Y-123806986D01*
X182678337Y-123864438D01*
X182735789Y-123921890D01*
X182793241Y-124036795D01*
X182793241Y-124496414D01*
X182161265Y-123404819D02*
X182161265Y-122600486D01*
X183367765Y-123117557D01*
X186367765Y-123806986D02*
X185793241Y-124209152D01*
X186367765Y-124496414D02*
X185161265Y-124496414D01*
X185161265Y-124036795D01*
X185218718Y-123921890D01*
X185276170Y-123864438D01*
X185391075Y-123806986D01*
X185563432Y-123806986D01*
X185678337Y-123864438D01*
X185735789Y-123921890D01*
X185793241Y-124036795D01*
X185793241Y-124496414D01*
X185161265Y-122772843D02*
X185161265Y-123002652D01*
X185218718Y-123117557D01*
X185276170Y-123175009D01*
X185448527Y-123289914D01*
X185678337Y-123347366D01*
X186137956Y-123347366D01*
X186252860Y-123289914D01*
X186310313Y-123232462D01*
X186367765Y-123117557D01*
X186367765Y-122887747D01*
X186310313Y-122772843D01*
X186252860Y-122715390D01*
X186137956Y-122657938D01*
X185850694Y-122657938D01*
X185735789Y-122715390D01*
X185678337Y-122772843D01*
X185620884Y-122887747D01*
X185620884Y-123117557D01*
X185678337Y-123232462D01*
X185735789Y-123289914D01*
X185850694Y-123347366D01*
X189367765Y-123806986D02*
X188793241Y-124209152D01*
X189367765Y-124496414D02*
X188161265Y-124496414D01*
X188161265Y-124036795D01*
X188218718Y-123921890D01*
X188276170Y-123864438D01*
X188391075Y-123806986D01*
X188563432Y-123806986D01*
X188678337Y-123864438D01*
X188735789Y-123921890D01*
X188793241Y-124036795D01*
X188793241Y-124496414D01*
X188161265Y-122715390D02*
X188161265Y-123289914D01*
X188735789Y-123347366D01*
X188678337Y-123289914D01*
X188620884Y-123175009D01*
X188620884Y-122887747D01*
X188678337Y-122772843D01*
X188735789Y-122715390D01*
X188850694Y-122657938D01*
X189137956Y-122657938D01*
X189252860Y-122715390D01*
X189310313Y-122772843D01*
X189367765Y-122887747D01*
X189367765Y-123175009D01*
X189310313Y-123289914D01*
X189252860Y-123347366D01*
X192367765Y-123806986D02*
X191793241Y-124209152D01*
X192367765Y-124496414D02*
X191161265Y-124496414D01*
X191161265Y-124036795D01*
X191218718Y-123921890D01*
X191276170Y-123864438D01*
X191391075Y-123806986D01*
X191563432Y-123806986D01*
X191678337Y-123864438D01*
X191735789Y-123921890D01*
X191793241Y-124036795D01*
X191793241Y-124496414D01*
X191563432Y-122772843D02*
X192367765Y-122772843D01*
X191103813Y-123060105D02*
X191965598Y-123347366D01*
X191965598Y-122600486D01*
X195367765Y-123806986D02*
X194793241Y-124209152D01*
X195367765Y-124496414D02*
X194161265Y-124496414D01*
X194161265Y-124036795D01*
X194218718Y-123921890D01*
X194276170Y-123864438D01*
X194391075Y-123806986D01*
X194563432Y-123806986D01*
X194678337Y-123864438D01*
X194735789Y-123921890D01*
X194793241Y-124036795D01*
X194793241Y-124496414D01*
X194161265Y-123404819D02*
X194161265Y-122657938D01*
X194620884Y-123060105D01*
X194620884Y-122887747D01*
X194678337Y-122772843D01*
X194735789Y-122715390D01*
X194850694Y-122657938D01*
X195137956Y-122657938D01*
X195252860Y-122715390D01*
X195310313Y-122772843D01*
X195367765Y-122887747D01*
X195367765Y-123232462D01*
X195310313Y-123347366D01*
X195252860Y-123404819D01*
X198367765Y-123806986D02*
X197793241Y-124209152D01*
X198367765Y-124496414D02*
X197161265Y-124496414D01*
X197161265Y-124036795D01*
X197218718Y-123921890D01*
X197276170Y-123864438D01*
X197391075Y-123806986D01*
X197563432Y-123806986D01*
X197678337Y-123864438D01*
X197735789Y-123921890D01*
X197793241Y-124036795D01*
X197793241Y-124496414D01*
X197276170Y-123347366D02*
X197218718Y-123289914D01*
X197161265Y-123175009D01*
X197161265Y-122887747D01*
X197218718Y-122772843D01*
X197276170Y-122715390D01*
X197391075Y-122657938D01*
X197505979Y-122657938D01*
X197678337Y-122715390D01*
X198367765Y-123404819D01*
X198367765Y-122657938D01*
X201367765Y-123806986D02*
X200793241Y-124209152D01*
X201367765Y-124496414D02*
X200161265Y-124496414D01*
X200161265Y-124036795D01*
X200218718Y-123921890D01*
X200276170Y-123864438D01*
X200391075Y-123806986D01*
X200563432Y-123806986D01*
X200678337Y-123864438D01*
X200735789Y-123921890D01*
X200793241Y-124036795D01*
X200793241Y-124496414D01*
X201367765Y-122657938D02*
X201367765Y-123347366D01*
X201367765Y-123002652D02*
X200161265Y-123002652D01*
X200333622Y-123117557D01*
X200448527Y-123232462D01*
X200505979Y-123347366D01*
D10*
X124430380Y-83063333D02*
X125144666Y-83063333D01*
X125287523Y-83110952D01*
X125382761Y-83206190D01*
X125430380Y-83349047D01*
X125430380Y-83444285D01*
X124858952Y-82444285D02*
X124811333Y-82539523D01*
X124763714Y-82587142D01*
X124668476Y-82634761D01*
X124620857Y-82634761D01*
X124525619Y-82587142D01*
X124478000Y-82539523D01*
X124430380Y-82444285D01*
X124430380Y-82253809D01*
X124478000Y-82158571D01*
X124525619Y-82110952D01*
X124620857Y-82063333D01*
X124668476Y-82063333D01*
X124763714Y-82110952D01*
X124811333Y-82158571D01*
X124858952Y-82253809D01*
X124858952Y-82444285D01*
X124906571Y-82539523D01*
X124954190Y-82587142D01*
X125049428Y-82634761D01*
X125239904Y-82634761D01*
X125335142Y-82587142D01*
X125382761Y-82539523D01*
X125430380Y-82444285D01*
X125430380Y-82253809D01*
X125382761Y-82158571D01*
X125335142Y-82110952D01*
X125239904Y-82063333D01*
X125049428Y-82063333D01*
X124954190Y-82110952D01*
X124906571Y-82158571D01*
X124858952Y-82253809D01*
X124430380Y-109063333D02*
X125144666Y-109063333D01*
X125287523Y-109110952D01*
X125382761Y-109206190D01*
X125430380Y-109349047D01*
X125430380Y-109444285D01*
X124430380Y-108682380D02*
X124430380Y-108015714D01*
X125430380Y-108444285D01*
X124430380Y-96063333D02*
X125144666Y-96063333D01*
X125287523Y-96110952D01*
X125382761Y-96206190D01*
X125430380Y-96349047D01*
X125430380Y-96444285D01*
X124430380Y-95158571D02*
X124430380Y-95349047D01*
X124478000Y-95444285D01*
X124525619Y-95491904D01*
X124668476Y-95587142D01*
X124858952Y-95634761D01*
X125239904Y-95634761D01*
X125335142Y-95587142D01*
X125382761Y-95539523D01*
X125430380Y-95444285D01*
X125430380Y-95253809D01*
X125382761Y-95158571D01*
X125335142Y-95110952D01*
X125239904Y-95063333D01*
X125001809Y-95063333D01*
X124906571Y-95110952D01*
X124858952Y-95158571D01*
X124811333Y-95253809D01*
X124811333Y-95444285D01*
X124858952Y-95539523D01*
X124906571Y-95587142D01*
X125001809Y-95634761D01*
X204990380Y-58860190D02*
X203990380Y-58860190D01*
X204895142Y-57812571D02*
X204942761Y-57860190D01*
X204990380Y-58003047D01*
X204990380Y-58098285D01*
X204942761Y-58241142D01*
X204847523Y-58336380D01*
X204752285Y-58384000D01*
X204561809Y-58431619D01*
X204418952Y-58431619D01*
X204228476Y-58384000D01*
X204133238Y-58336380D01*
X204038000Y-58241142D01*
X203990380Y-58098285D01*
X203990380Y-58003047D01*
X204038000Y-57860190D01*
X204085619Y-57812571D01*
X203990380Y-56907809D02*
X203990380Y-57384000D01*
X204466571Y-57431619D01*
X204418952Y-57384000D01*
X204371333Y-57288761D01*
X204371333Y-57050666D01*
X204418952Y-56955428D01*
X204466571Y-56907809D01*
X204561809Y-56860190D01*
X204799904Y-56860190D01*
X204895142Y-56907809D01*
X204942761Y-56955428D01*
X204990380Y-57050666D01*
X204990380Y-57288761D01*
X204942761Y-57384000D01*
X204895142Y-57431619D01*
X204982380Y-82726190D02*
X203982380Y-82726190D01*
X204887142Y-81678571D02*
X204934761Y-81726190D01*
X204982380Y-81869047D01*
X204982380Y-81964285D01*
X204934761Y-82107142D01*
X204839523Y-82202380D01*
X204744285Y-82250000D01*
X204553809Y-82297619D01*
X204410952Y-82297619D01*
X204220476Y-82250000D01*
X204125238Y-82202380D01*
X204030000Y-82107142D01*
X203982380Y-81964285D01*
X203982380Y-81869047D01*
X204030000Y-81726190D01*
X204077619Y-81678571D01*
X203982380Y-81345238D02*
X203982380Y-80726190D01*
X204363333Y-81059523D01*
X204363333Y-80916666D01*
X204410952Y-80821428D01*
X204458571Y-80773809D01*
X204553809Y-80726190D01*
X204791904Y-80726190D01*
X204887142Y-80773809D01*
X204934761Y-80821428D01*
X204982380Y-80916666D01*
X204982380Y-81202380D01*
X204934761Y-81297619D01*
X204887142Y-81345238D01*
X204990380Y-70793190D02*
X203990380Y-70793190D01*
X204895142Y-69745571D02*
X204942761Y-69793190D01*
X204990380Y-69936047D01*
X204990380Y-70031285D01*
X204942761Y-70174142D01*
X204847523Y-70269380D01*
X204752285Y-70317000D01*
X204561809Y-70364619D01*
X204418952Y-70364619D01*
X204228476Y-70317000D01*
X204133238Y-70269380D01*
X204038000Y-70174142D01*
X203990380Y-70031285D01*
X203990380Y-69936047D01*
X204038000Y-69793190D01*
X204085619Y-69745571D01*
X204323714Y-68888428D02*
X204990380Y-68888428D01*
X203942761Y-69126523D02*
X204657047Y-69364619D01*
X204657047Y-68745571D01*
X204990380Y-98554690D02*
X203990380Y-98554690D01*
X204895142Y-97507071D02*
X204942761Y-97554690D01*
X204990380Y-97697547D01*
X204990380Y-97792785D01*
X204942761Y-97935642D01*
X204847523Y-98030880D01*
X204752285Y-98078500D01*
X204561809Y-98126119D01*
X204418952Y-98126119D01*
X204228476Y-98078500D01*
X204133238Y-98030880D01*
X204038000Y-97935642D01*
X203990380Y-97792785D01*
X203990380Y-97697547D01*
X204038000Y-97554690D01*
X204085619Y-97507071D01*
X204085619Y-97126119D02*
X204038000Y-97078500D01*
X203990380Y-96983261D01*
X203990380Y-96745166D01*
X204038000Y-96649928D01*
X204085619Y-96602309D01*
X204180857Y-96554690D01*
X204276095Y-96554690D01*
X204418952Y-96602309D01*
X204990380Y-97173738D01*
X204990380Y-96554690D01*
X204990380Y-111786190D02*
X203990380Y-111786190D01*
X204895142Y-110738571D02*
X204942761Y-110786190D01*
X204990380Y-110929047D01*
X204990380Y-111024285D01*
X204942761Y-111167142D01*
X204847523Y-111262380D01*
X204752285Y-111310000D01*
X204561809Y-111357619D01*
X204418952Y-111357619D01*
X204228476Y-111310000D01*
X204133238Y-111262380D01*
X204038000Y-111167142D01*
X203990380Y-111024285D01*
X203990380Y-110929047D01*
X204038000Y-110786190D01*
X204085619Y-110738571D01*
X204990380Y-109786190D02*
X204990380Y-110357619D01*
X204990380Y-110071904D02*
X203990380Y-110071904D01*
X204133238Y-110167142D01*
X204228476Y-110262380D01*
X204276095Y-110357619D01*
X141083333Y-119623142D02*
X141035714Y-119670761D01*
X140892857Y-119718380D01*
X140797619Y-119718380D01*
X140654761Y-119670761D01*
X140559523Y-119575523D01*
X140511904Y-119480285D01*
X140464285Y-119289809D01*
X140464285Y-119146952D01*
X140511904Y-118956476D01*
X140559523Y-118861238D01*
X140654761Y-118766000D01*
X140797619Y-118718380D01*
X140892857Y-118718380D01*
X141035714Y-118766000D01*
X141083333Y-118813619D01*
X141654761Y-119146952D02*
X141559523Y-119099333D01*
X141511904Y-119051714D01*
X141464285Y-118956476D01*
X141464285Y-118908857D01*
X141511904Y-118813619D01*
X141559523Y-118766000D01*
X141654761Y-118718380D01*
X141845238Y-118718380D01*
X141940476Y-118766000D01*
X141988095Y-118813619D01*
X142035714Y-118908857D01*
X142035714Y-118956476D01*
X141988095Y-119051714D01*
X141940476Y-119099333D01*
X141845238Y-119146952D01*
X141654761Y-119146952D01*
X141559523Y-119194571D01*
X141511904Y-119242190D01*
X141464285Y-119337428D01*
X141464285Y-119527904D01*
X141511904Y-119623142D01*
X141559523Y-119670761D01*
X141654761Y-119718380D01*
X141845238Y-119718380D01*
X141940476Y-119670761D01*
X141988095Y-119623142D01*
X142035714Y-119527904D01*
X142035714Y-119337428D01*
X141988095Y-119242190D01*
X141940476Y-119194571D01*
X141845238Y-119146952D01*
X124431333Y-67781142D02*
X124383714Y-67828761D01*
X124240857Y-67876380D01*
X124145619Y-67876380D01*
X124002761Y-67828761D01*
X123907523Y-67733523D01*
X123859904Y-67638285D01*
X123812285Y-67447809D01*
X123812285Y-67304952D01*
X123859904Y-67114476D01*
X123907523Y-67019238D01*
X124002761Y-66924000D01*
X124145619Y-66876380D01*
X124240857Y-66876380D01*
X124383714Y-66924000D01*
X124431333Y-66971619D01*
X124764666Y-66876380D02*
X125431333Y-66876380D01*
X125002761Y-67876380D01*
M02*
