M48
; DRILL file {KiCad (5.1.5-0-10_14)} date Wednesday, 11 November 2020 at 11:00:16
; FORMAT={-:-/ absolute / inch / decimal}
; #@! TF.CreationDate,2020-11-11T11:00:16+00:00
; #@! TF.GenerationSoftware,Kicad,Pcbnew,(5.1.5-0-10_14)
; #@! TF.FileFunction,Plated,1,4,PTH
FMAT,2
INCH
T1C0.0157
T2C0.0276
T3C0.0315
T4C0.0320
T5C0.0394
%
G90
G05
T1
X2.016Y-2.438
X2.0449Y-2.4165
X2.2248Y-2.0803
X2.3023Y-2.082
X2.4075Y-2.6756
X2.4111Y-2.0794
X2.4441Y-2.6756
X2.6411Y-3.3894
X2.6693Y-3.3673
X2.9339Y-2.4138
X2.9565Y-2.6353
X2.9599Y-2.4384
X2.9602Y-2.3896
X2.9638Y-1.8185
X2.9921Y-2.6071
X3.4465Y-2.0195
X3.4642Y-2.4398
X3.4927Y-2.0716
X3.5281Y-2.0807
X3.5642Y-2.0909
X3.5994Y-2.1
X3.6359Y-2.1089
X3.6705Y-2.1181
X3.708Y-2.1272
X3.7438Y-2.1362
X3.7789Y-2.1453
X3.8148Y-2.1543
X3.8505Y-2.1634
X3.8863Y-2.1628
X3.9193Y-2.9563
X3.9193Y-3.0421
X3.9193Y-3.0792
X3.9193Y-3.1425
X3.9193Y-3.1783
X3.9224Y-2.1585
X3.948Y-2.9311
X3.9492Y-3.0198
X3.9505Y-2.984
X3.9522Y-2.1783
X3.9816Y-2.1996
X4.013Y-2.222
X4.0421Y-2.4225
X4.265Y-1.5843
X4.2921Y-1.326
X4.3406Y-2.4134
X4.468Y-1.4969
X4.4908Y-1.5245
X4.7823Y-2.2344
X4.8294Y-2.1895
X4.863Y-2.216
X4.9049Y-2.3595
X4.9395Y-2.3689
X4.9689Y-2.3913
T2
X3.3974Y-2.5055
X3.3974Y-2.6055
X3.3974Y-2.7055
X3.3974Y-2.8055
X3.3974Y-2.9055
X3.3974Y-3.0055
X3.3974Y-3.1055
X3.3974Y-3.2055
X3.3974Y-3.3055
X3.3974Y-3.4055
X3.3974Y-3.5055
X3.3974Y-3.6055
X3.3974Y-3.7055
X3.4974Y-2.5055
X3.4974Y-2.6055
X3.4974Y-2.7055
X3.4974Y-2.8055
X3.4974Y-2.9055
X3.4974Y-3.0055
X3.4974Y-3.1055
X3.4974Y-3.2055
X3.4974Y-3.3055
X3.4974Y-3.4055
X3.4974Y-3.5055
X3.4974Y-3.6055
X3.4974Y-3.7055
X3.5974Y-2.5055
X3.5974Y-2.6055
X3.5974Y-2.7055
X3.5974Y-2.8055
X3.5974Y-2.9055
X3.5974Y-3.0055
X3.5974Y-3.1055
X3.5974Y-3.2055
X3.5974Y-3.3055
X3.5974Y-3.4055
X3.5974Y-3.5055
X3.5974Y-3.6055
X3.5974Y-3.7055
X3.6974Y-2.5055
X3.6974Y-2.6055
X3.6974Y-2.7055
X3.6974Y-3.5055
X3.6974Y-3.6055
X3.6974Y-3.7055
X3.7974Y-2.5055
X3.7974Y-2.6055
X3.7974Y-2.7055
X3.7974Y-3.5055
X3.7974Y-3.6055
X3.7974Y-3.7055
X3.8974Y-2.5055
X3.8974Y-2.6055
X3.8974Y-2.7055
X3.8974Y-3.5055
X3.8974Y-3.6055
X3.8974Y-3.7055
X3.9974Y-2.5055
X3.9974Y-2.6055
X3.9974Y-2.7055
X3.9974Y-3.5055
X3.9974Y-3.6055
X3.9974Y-3.7055
X4.0974Y-2.5055
X4.0974Y-2.6055
X4.0974Y-2.7055
X4.0974Y-3.5055
X4.0974Y-3.6055
X4.0974Y-3.7055
X4.1974Y-2.5055
X4.1974Y-2.6055
X4.1974Y-2.7055
X4.1974Y-3.5055
X4.1974Y-3.6055
X4.1974Y-3.7055
X4.2974Y-2.5055
X4.2974Y-2.6055
X4.2974Y-2.7055
X4.2974Y-3.5055
X4.2974Y-3.6055
X4.2974Y-3.7055
X4.3974Y-2.5055
X4.3974Y-2.6055
X4.3974Y-2.7055
X4.3974Y-3.1055
X4.3974Y-3.5055
X4.3974Y-3.6055
X4.3974Y-3.7055
X4.4974Y-2.5055
X4.4974Y-2.6055
X4.4974Y-2.7055
X4.4974Y-2.8055
X4.4974Y-2.9055
X4.4974Y-3.0055
X4.4974Y-3.1055
X4.4974Y-3.2055
X4.4974Y-3.3055
X4.4974Y-3.4055
X4.4974Y-3.5055
X4.4974Y-3.6055
X4.4974Y-3.7055
X4.5974Y-2.5055
X4.5974Y-2.6055
X4.5974Y-2.7055
X4.5974Y-2.8055
X4.5974Y-2.9055
X4.5974Y-3.0055
X4.5974Y-3.1055
X4.5974Y-3.2055
X4.5974Y-3.3055
X4.5974Y-3.4055
X4.5974Y-3.5055
X4.5974Y-3.6055
X4.5974Y-3.7055
T3
X3.8306Y-3.9331
X3.9306Y-3.9331
X4.0306Y-3.9331
X4.1306Y-3.9331
X4.2306Y-3.9331
X4.3306Y-3.9331
X4.4306Y-3.9331
X4.5306Y-3.9331
X4.6306Y-3.9331
X3.8306Y-4.0827
X3.9306Y-4.0827
X4.0306Y-4.0827
X4.1306Y-4.0827
X4.2306Y-4.0827
X4.3306Y-4.0827
X4.4306Y-4.0827
X4.5306Y-4.0827
X4.6306Y-4.0827
X3.5407Y-1.6925
X3.5407Y-1.9925
X3.8407Y-1.6925
X3.8407Y-1.9925
T4
X4.8128Y-1.6929
X4.9128Y-1.6929
X3.1173Y-3.4884
X3.2173Y-3.4884
X2.1154Y-2.7953
X2.2154Y-2.7953
X3.1173Y-3.7437
X3.2173Y-3.7437
X2.5981Y-3.3169
X2.9981Y-3.3169
X3.1173Y-2.7226
X3.2173Y-2.7226
X3.3535Y-3.9232
X3.4535Y-3.9232
X1.5456Y-1.3925
X1.5456Y-2.2925
X1.6456Y-1.3925
X1.6456Y-2.2925
X1.7456Y-1.3925
X1.7456Y-2.2925
X1.8456Y-1.3925
X1.8456Y-2.2925
X1.9456Y-1.3925
X1.9456Y-2.2925
X2.0456Y-1.3925
X2.0456Y-2.2925
X2.1456Y-1.3925
X2.1456Y-2.2925
X2.2456Y-1.3925
X2.2456Y-2.2925
X2.3456Y-1.3925
X2.3456Y-2.2925
X2.4456Y-1.3925
X2.4456Y-2.2925
X2.5456Y-1.3925
X2.5456Y-2.2925
X2.6456Y-1.3925
X2.6456Y-2.2925
X2.7456Y-1.3925
X2.7456Y-2.2925
X2.8456Y-1.3925
X2.8456Y-2.2925
X2.9456Y-1.3925
X2.9456Y-2.2925
X3.0456Y-1.3925
X3.0456Y-2.2925
X3.1456Y-1.3925
X3.1456Y-2.2925
X3.2456Y-1.3925
X3.2456Y-2.2925
X3.3456Y-1.3925
X3.3456Y-2.2925
X3.4456Y-1.3925
X3.4456Y-2.2925
X3.5456Y-1.3925
X3.5456Y-2.2925
X3.6456Y-1.3925
X3.6456Y-2.2925
X3.7456Y-1.3925
X3.7456Y-2.2925
X3.8456Y-1.3925
X3.8456Y-2.2925
X3.9456Y-1.3925
X3.9456Y-2.2925
X4.0456Y-1.3925
X4.0456Y-2.2925
X4.1456Y-1.3925
X4.1456Y-2.2925
X4.2456Y-1.3925
X4.2456Y-2.2925
X4.3456Y-1.3925
X4.3456Y-2.2925
X4.4456Y-1.3925
X4.4456Y-2.2925
X4.5456Y-1.3925
X4.5456Y-2.2925
X4.6456Y-1.3925
X4.6456Y-2.2925
X3.1173Y-2.9779
X3.2173Y-2.9779
X2.7953Y-1.78
X2.7953Y-1.88
X1.7232Y-1.67
X1.7232Y-1.97
X1.8232Y-1.67
X1.8232Y-1.97
X1.9232Y-1.67
X1.9232Y-1.97
X2.0232Y-1.67
X2.0232Y-1.97
X2.1232Y-1.67
X2.1232Y-1.97
X2.2232Y-1.67
X2.2232Y-1.97
X2.3232Y-1.67
X2.3232Y-1.97
X2.4232Y-1.67
X2.4232Y-1.97
X2.5232Y-1.67
X2.5232Y-1.97
X2.6232Y-1.67
X2.6232Y-1.97
X3.5878Y-3.9232
X3.6878Y-3.9232
X3.1173Y-3.2331
X3.2173Y-3.2331
X4.2807Y-1.8425
X4.3807Y-1.8425
X3.1496Y-1.6425
X3.1496Y-2.0425
X4.8128Y-1.4035
X4.9128Y-1.4035
X3.1173Y-2.4673
X3.2173Y-2.4673
X2.5981Y-3.1279
X2.9981Y-3.1279
T5
X4.8366Y-2.8346
X4.8366Y-2.9346
X4.8366Y-3.0346
X4.8366Y-3.1346
X4.8366Y-3.2346
X4.8366Y-3.3346
X4.8366Y-3.4346
X4.8366Y-3.5346
X4.9366Y-2.8346
X4.9366Y-2.9346
X4.9366Y-3.0346
X4.9366Y-3.1346
X4.9366Y-3.2346
X4.9366Y-3.3346
X4.9366Y-3.4346
X4.9366Y-3.5346
X2.7165Y-2.5591
X2.7165Y-2.6591
X2.8165Y-2.5591
X2.8165Y-2.6591
X4.8366Y-3.7776
X4.8366Y-3.8776
X4.8366Y-3.9776
X4.8366Y-4.0776
X4.9366Y-3.7776
X4.9366Y-3.8776
X4.9366Y-3.9776
X4.9366Y-4.0776
T0
M30
