G04 #@! TF.GenerationSoftware,KiCad,Pcbnew,(5.1.5-0-10_14)*
G04 #@! TF.CreationDate,2020-11-11T11:00:13+00:00*
G04 #@! TF.ProjectId,rosco_m68k_r1_020,726f7363-6f5f-46d3-9638-6b5f72315f30,rev?*
G04 #@! TF.SameCoordinates,Original*
G04 #@! TF.FileFunction,Profile,NP*
%FSLAX46Y46*%
G04 Gerber Fmt 4.6, Leading zero omitted, Abs format (unit mm)*
G04 Created by KiCad (PCBNEW (5.1.5-0-10_14)) date 2020-11-11 11:00:13*
%MOMM*%
%LPD*%
G04 APERTURE LIST*
%ADD10C,0.050000*%
G04 APERTURE END LIST*
D10*
X40000000Y-33000000D02*
X123000000Y-33000000D01*
X37000000Y-58000000D02*
X37000000Y-36000000D01*
X48000000Y-61000000D02*
X40000000Y-61000000D01*
X51000000Y-72000000D02*
X51000000Y-64000000D01*
X61000000Y-75000000D02*
X54000000Y-75000000D01*
X64000000Y-84000000D02*
X64000000Y-78000000D01*
X74000000Y-87000000D02*
X67000000Y-87000000D01*
X77000000Y-104000000D02*
X77000000Y-90000000D01*
X125000000Y-107000000D02*
X80000000Y-107000000D01*
X128000000Y-38000000D02*
X128000000Y-104000000D01*
X128000000Y-104000000D02*
G75*
G02X125000000Y-107000000I-3000000J0D01*
G01*
X80000000Y-107000000D02*
G75*
G02X77000000Y-104000000I0J3000000D01*
G01*
X74000000Y-87000000D02*
G75*
G02X77000000Y-90000000I0J-3000000D01*
G01*
X67000000Y-87000000D02*
G75*
G02X64000000Y-84000000I0J3000000D01*
G01*
X61000000Y-75000000D02*
G75*
G02X64000000Y-78000000I0J-3000000D01*
G01*
X54000000Y-75000000D02*
G75*
G02X51000000Y-72000000I0J3000000D01*
G01*
X123000000Y-33000000D02*
G75*
G02X128000000Y-38000000I0J-5000000D01*
G01*
X48000000Y-61000000D02*
G75*
G02X51000000Y-64000000I0J-3000000D01*
G01*
X40000000Y-61000000D02*
G75*
G02X37000000Y-58000000I0J3000000D01*
G01*
X37000000Y-36000000D02*
G75*
G02X40000000Y-33000000I3000000J0D01*
G01*
M02*
