G04 #@! TF.GenerationSoftware,KiCad,Pcbnew,(5.1.5-0-10_14)*
G04 #@! TF.CreationDate,2020-11-11T11:00:13+00:00*
G04 #@! TF.ProjectId,rosco_m68k_r1_020,726f7363-6f5f-46d3-9638-6b5f72315f30,rev?*
G04 #@! TF.SameCoordinates,Original*
G04 #@! TF.FileFunction,Legend,Bot*
G04 #@! TF.FilePolarity,Positive*
%FSLAX46Y46*%
G04 Gerber Fmt 4.6, Leading zero omitted, Abs format (unit mm)*
G04 Created by KiCad (PCBNEW (5.1.5-0-10_14)) date 2020-11-11 11:00:13*
%MOMM*%
%LPD*%
G04 APERTURE LIST*
%ADD10C,0.010000*%
G04 APERTURE END LIST*
D10*
G36*
X124270813Y-45414315D02*
G01*
X124206330Y-45415975D01*
X124159697Y-45418945D01*
X124139349Y-45422088D01*
X124109583Y-45430065D01*
X124109583Y-46350530D01*
X124319119Y-46343259D01*
X124528953Y-46343523D01*
X124723141Y-46360382D01*
X124907580Y-46395075D01*
X125088168Y-46448839D01*
X125270803Y-46522911D01*
X125346511Y-46558879D01*
X125527062Y-46657977D01*
X125689702Y-46769326D01*
X125842099Y-46898408D01*
X125901378Y-46955705D01*
X126058015Y-47130861D01*
X126193527Y-47321520D01*
X126307234Y-47526394D01*
X126398456Y-47744193D01*
X126466515Y-47973629D01*
X126486674Y-48066197D01*
X126498823Y-48150244D01*
X126506934Y-48253234D01*
X126511015Y-48367965D01*
X126511074Y-48487234D01*
X126507116Y-48603837D01*
X126499149Y-48710571D01*
X126487181Y-48800233D01*
X126485943Y-48807031D01*
X126430089Y-49035759D01*
X126350701Y-49253965D01*
X126249069Y-49460177D01*
X126126478Y-49652928D01*
X125984219Y-49830748D01*
X125823579Y-49992168D01*
X125645845Y-50135719D01*
X125452307Y-50259931D01*
X125244252Y-50363336D01*
X125060763Y-50432535D01*
X124957623Y-50464118D01*
X124862893Y-50488129D01*
X124770130Y-50505463D01*
X124672894Y-50517016D01*
X124564742Y-50523680D01*
X124439233Y-50526352D01*
X124384089Y-50526504D01*
X124109583Y-50526186D01*
X124109583Y-51443164D01*
X124139349Y-51451141D01*
X124164749Y-51454138D01*
X124211744Y-51456203D01*
X124275490Y-51457382D01*
X124351142Y-51457723D01*
X124433854Y-51457274D01*
X124518783Y-51456083D01*
X124601083Y-51454197D01*
X124675909Y-51451663D01*
X124738417Y-51448531D01*
X124783762Y-51444847D01*
X124784271Y-51444789D01*
X124897271Y-51428341D01*
X125024872Y-51403706D01*
X125157338Y-51373083D01*
X125284934Y-51338667D01*
X125366016Y-51313536D01*
X125630553Y-51212498D01*
X125881277Y-51089513D01*
X126117195Y-50945777D01*
X126337320Y-50782487D01*
X126540660Y-50600838D01*
X126726227Y-50402026D01*
X126893030Y-50187247D01*
X127040079Y-49957698D01*
X127166385Y-49714573D01*
X127270958Y-49459070D01*
X127352808Y-49192383D01*
X127410945Y-48915709D01*
X127424162Y-48826875D01*
X127432618Y-48742107D01*
X127438437Y-48638118D01*
X127441618Y-48522009D01*
X127442161Y-48400887D01*
X127440066Y-48281854D01*
X127435334Y-48172014D01*
X127427963Y-48078472D01*
X127424162Y-48046354D01*
X127373241Y-47763706D01*
X127297795Y-47490614D01*
X127198081Y-47227714D01*
X127074354Y-46975637D01*
X126926872Y-46735017D01*
X126848048Y-46624218D01*
X126669770Y-46406723D01*
X126473767Y-46208344D01*
X126261402Y-46029882D01*
X126034041Y-45872133D01*
X125793047Y-45735897D01*
X125539787Y-45621971D01*
X125275623Y-45531153D01*
X125001921Y-45464241D01*
X124811120Y-45432813D01*
X124758646Y-45427490D01*
X124689782Y-45422930D01*
X124609419Y-45419212D01*
X124522450Y-45416413D01*
X124433764Y-45414612D01*
X124348255Y-45413887D01*
X124270813Y-45414315D01*
G37*
X124270813Y-45414315D02*
X124206330Y-45415975D01*
X124159697Y-45418945D01*
X124139349Y-45422088D01*
X124109583Y-45430065D01*
X124109583Y-46350530D01*
X124319119Y-46343259D01*
X124528953Y-46343523D01*
X124723141Y-46360382D01*
X124907580Y-46395075D01*
X125088168Y-46448839D01*
X125270803Y-46522911D01*
X125346511Y-46558879D01*
X125527062Y-46657977D01*
X125689702Y-46769326D01*
X125842099Y-46898408D01*
X125901378Y-46955705D01*
X126058015Y-47130861D01*
X126193527Y-47321520D01*
X126307234Y-47526394D01*
X126398456Y-47744193D01*
X126466515Y-47973629D01*
X126486674Y-48066197D01*
X126498823Y-48150244D01*
X126506934Y-48253234D01*
X126511015Y-48367965D01*
X126511074Y-48487234D01*
X126507116Y-48603837D01*
X126499149Y-48710571D01*
X126487181Y-48800233D01*
X126485943Y-48807031D01*
X126430089Y-49035759D01*
X126350701Y-49253965D01*
X126249069Y-49460177D01*
X126126478Y-49652928D01*
X125984219Y-49830748D01*
X125823579Y-49992168D01*
X125645845Y-50135719D01*
X125452307Y-50259931D01*
X125244252Y-50363336D01*
X125060763Y-50432535D01*
X124957623Y-50464118D01*
X124862893Y-50488129D01*
X124770130Y-50505463D01*
X124672894Y-50517016D01*
X124564742Y-50523680D01*
X124439233Y-50526352D01*
X124384089Y-50526504D01*
X124109583Y-50526186D01*
X124109583Y-51443164D01*
X124139349Y-51451141D01*
X124164749Y-51454138D01*
X124211744Y-51456203D01*
X124275490Y-51457382D01*
X124351142Y-51457723D01*
X124433854Y-51457274D01*
X124518783Y-51456083D01*
X124601083Y-51454197D01*
X124675909Y-51451663D01*
X124738417Y-51448531D01*
X124783762Y-51444847D01*
X124784271Y-51444789D01*
X124897271Y-51428341D01*
X125024872Y-51403706D01*
X125157338Y-51373083D01*
X125284934Y-51338667D01*
X125366016Y-51313536D01*
X125630553Y-51212498D01*
X125881277Y-51089513D01*
X126117195Y-50945777D01*
X126337320Y-50782487D01*
X126540660Y-50600838D01*
X126726227Y-50402026D01*
X126893030Y-50187247D01*
X127040079Y-49957698D01*
X127166385Y-49714573D01*
X127270958Y-49459070D01*
X127352808Y-49192383D01*
X127410945Y-48915709D01*
X127424162Y-48826875D01*
X127432618Y-48742107D01*
X127438437Y-48638118D01*
X127441618Y-48522009D01*
X127442161Y-48400887D01*
X127440066Y-48281854D01*
X127435334Y-48172014D01*
X127427963Y-48078472D01*
X127424162Y-48046354D01*
X127373241Y-47763706D01*
X127297795Y-47490614D01*
X127198081Y-47227714D01*
X127074354Y-46975637D01*
X126926872Y-46735017D01*
X126848048Y-46624218D01*
X126669770Y-46406723D01*
X126473767Y-46208344D01*
X126261402Y-46029882D01*
X126034041Y-45872133D01*
X125793047Y-45735897D01*
X125539787Y-45621971D01*
X125275623Y-45531153D01*
X125001921Y-45464241D01*
X124811120Y-45432813D01*
X124758646Y-45427490D01*
X124689782Y-45422930D01*
X124609419Y-45419212D01*
X124522450Y-45416413D01*
X124433764Y-45414612D01*
X124348255Y-45413887D01*
X124270813Y-45414315D01*
G36*
X118976665Y-46346406D02*
G01*
X119271015Y-46346695D01*
X119372990Y-46347120D01*
X119453645Y-46348408D01*
X119518112Y-46350914D01*
X119571524Y-46354996D01*
X119619012Y-46361008D01*
X119665711Y-46369308D01*
X119699611Y-46376436D01*
X119929451Y-46439754D01*
X120148768Y-46526012D01*
X120355799Y-46634009D01*
X120548780Y-46762544D01*
X120725951Y-46910418D01*
X120885547Y-47076430D01*
X121025807Y-47259379D01*
X121050446Y-47296449D01*
X121102244Y-47383402D01*
X121155145Y-47484820D01*
X121206164Y-47593866D01*
X121252318Y-47703702D01*
X121290625Y-47807488D01*
X121318102Y-47898388D01*
X121324196Y-47923984D01*
X121333561Y-47966979D01*
X119571979Y-47966979D01*
X119571979Y-48906250D01*
X121333561Y-48906250D01*
X121324196Y-48949244D01*
X121299136Y-49040611D01*
X121261648Y-49146469D01*
X121214815Y-49259878D01*
X121161718Y-49373892D01*
X121105440Y-49481569D01*
X121049064Y-49575967D01*
X121039608Y-49590319D01*
X120895866Y-49781791D01*
X120734667Y-49953630D01*
X120557010Y-50105163D01*
X120363891Y-50235719D01*
X120156309Y-50344624D01*
X119935262Y-50431206D01*
X119701745Y-50494794D01*
X119696044Y-50496021D01*
X119643462Y-50506622D01*
X119595042Y-50514513D01*
X119545391Y-50520078D01*
X119489119Y-50523702D01*
X119420832Y-50525769D01*
X119335141Y-50526664D01*
X119264401Y-50526799D01*
X118976667Y-50526776D01*
X118976667Y-51459479D01*
X119264401Y-51457762D01*
X119356376Y-51456709D01*
X119446109Y-51454766D01*
X119527842Y-51452126D01*
X119595821Y-51448981D01*
X119644289Y-51445526D01*
X119651354Y-51444789D01*
X119876763Y-51408594D01*
X120108614Y-51351376D01*
X120340575Y-51275284D01*
X120566315Y-51182465D01*
X120779501Y-51075068D01*
X120835303Y-51043135D01*
X120998844Y-50937667D01*
X121164786Y-50813545D01*
X121326573Y-50676431D01*
X121477650Y-50531982D01*
X121611460Y-50385859D01*
X121648007Y-50341607D01*
X121809327Y-50120012D01*
X121950652Y-49882378D01*
X122070975Y-49631089D01*
X122169289Y-49368532D01*
X122244588Y-49097092D01*
X122295865Y-48819155D01*
X122298410Y-48800416D01*
X122305359Y-48728751D01*
X122310292Y-48638046D01*
X122313208Y-48534923D01*
X122314105Y-48426009D01*
X122312981Y-48317925D01*
X122309834Y-48217298D01*
X122304662Y-48130752D01*
X122298617Y-48072812D01*
X122246661Y-47787894D01*
X122171431Y-47512354D01*
X122073609Y-47247809D01*
X121953879Y-46995877D01*
X121812924Y-46758177D01*
X121651427Y-46536325D01*
X121648007Y-46532079D01*
X121467720Y-46329121D01*
X121268578Y-46142656D01*
X121053027Y-45974214D01*
X120823515Y-45825325D01*
X120582491Y-45697517D01*
X120332400Y-45592322D01*
X120075691Y-45511267D01*
X119975381Y-45486769D01*
X119851470Y-45460938D01*
X119736300Y-45441592D01*
X119622480Y-45427981D01*
X119502615Y-45419356D01*
X119369313Y-45414968D01*
X119257787Y-45414008D01*
X118976667Y-45413750D01*
X118976665Y-46346406D01*
G37*
X118976665Y-46346406D02*
X119271015Y-46346695D01*
X119372990Y-46347120D01*
X119453645Y-46348408D01*
X119518112Y-46350914D01*
X119571524Y-46354996D01*
X119619012Y-46361008D01*
X119665711Y-46369308D01*
X119699611Y-46376436D01*
X119929451Y-46439754D01*
X120148768Y-46526012D01*
X120355799Y-46634009D01*
X120548780Y-46762544D01*
X120725951Y-46910418D01*
X120885547Y-47076430D01*
X121025807Y-47259379D01*
X121050446Y-47296449D01*
X121102244Y-47383402D01*
X121155145Y-47484820D01*
X121206164Y-47593866D01*
X121252318Y-47703702D01*
X121290625Y-47807488D01*
X121318102Y-47898388D01*
X121324196Y-47923984D01*
X121333561Y-47966979D01*
X119571979Y-47966979D01*
X119571979Y-48906250D01*
X121333561Y-48906250D01*
X121324196Y-48949244D01*
X121299136Y-49040611D01*
X121261648Y-49146469D01*
X121214815Y-49259878D01*
X121161718Y-49373892D01*
X121105440Y-49481569D01*
X121049064Y-49575967D01*
X121039608Y-49590319D01*
X120895866Y-49781791D01*
X120734667Y-49953630D01*
X120557010Y-50105163D01*
X120363891Y-50235719D01*
X120156309Y-50344624D01*
X119935262Y-50431206D01*
X119701745Y-50494794D01*
X119696044Y-50496021D01*
X119643462Y-50506622D01*
X119595042Y-50514513D01*
X119545391Y-50520078D01*
X119489119Y-50523702D01*
X119420832Y-50525769D01*
X119335141Y-50526664D01*
X119264401Y-50526799D01*
X118976667Y-50526776D01*
X118976667Y-51459479D01*
X119264401Y-51457762D01*
X119356376Y-51456709D01*
X119446109Y-51454766D01*
X119527842Y-51452126D01*
X119595821Y-51448981D01*
X119644289Y-51445526D01*
X119651354Y-51444789D01*
X119876763Y-51408594D01*
X120108614Y-51351376D01*
X120340575Y-51275284D01*
X120566315Y-51182465D01*
X120779501Y-51075068D01*
X120835303Y-51043135D01*
X120998844Y-50937667D01*
X121164786Y-50813545D01*
X121326573Y-50676431D01*
X121477650Y-50531982D01*
X121611460Y-50385859D01*
X121648007Y-50341607D01*
X121809327Y-50120012D01*
X121950652Y-49882378D01*
X122070975Y-49631089D01*
X122169289Y-49368532D01*
X122244588Y-49097092D01*
X122295865Y-48819155D01*
X122298410Y-48800416D01*
X122305359Y-48728751D01*
X122310292Y-48638046D01*
X122313208Y-48534923D01*
X122314105Y-48426009D01*
X122312981Y-48317925D01*
X122309834Y-48217298D01*
X122304662Y-48130752D01*
X122298617Y-48072812D01*
X122246661Y-47787894D01*
X122171431Y-47512354D01*
X122073609Y-47247809D01*
X121953879Y-46995877D01*
X121812924Y-46758177D01*
X121651427Y-46536325D01*
X121648007Y-46532079D01*
X121467720Y-46329121D01*
X121268578Y-46142656D01*
X121053027Y-45974214D01*
X120823515Y-45825325D01*
X120582491Y-45697517D01*
X120332400Y-45592322D01*
X120075691Y-45511267D01*
X119975381Y-45486769D01*
X119851470Y-45460938D01*
X119736300Y-45441592D01*
X119622480Y-45427981D01*
X119502615Y-45419356D01*
X119369313Y-45414968D01*
X119257787Y-45414008D01*
X118976667Y-45413750D01*
X118976665Y-46346406D01*
G36*
X121715570Y-36034848D02*
G01*
X121716189Y-36121931D01*
X122167914Y-36580891D01*
X122619639Y-37039852D01*
X122619968Y-37250471D01*
X122620297Y-37461089D01*
X122895390Y-37461089D01*
X122902478Y-37514530D01*
X122905162Y-37538888D01*
X122909687Y-37584759D01*
X122915809Y-37649405D01*
X122923288Y-37730091D01*
X122931881Y-37824081D01*
X122941346Y-37928637D01*
X122951442Y-38041025D01*
X122961926Y-38158507D01*
X122972556Y-38278348D01*
X122983091Y-38397811D01*
X122993287Y-38514159D01*
X123002905Y-38624657D01*
X123011700Y-38726569D01*
X123019432Y-38817158D01*
X123025858Y-38893687D01*
X123030737Y-38953421D01*
X123033825Y-38993624D01*
X123034883Y-39011559D01*
X123034882Y-39011644D01*
X123027173Y-39026035D01*
X123004019Y-39055748D01*
X122965105Y-39101131D01*
X122910116Y-39162529D01*
X122838736Y-39240288D01*
X122750651Y-39334754D01*
X122645546Y-39446272D01*
X122523105Y-39575188D01*
X122488690Y-39611287D01*
X121942863Y-40183416D01*
X122031119Y-40271436D01*
X122102515Y-40193758D01*
X122128634Y-40165686D01*
X122169434Y-40122274D01*
X122222223Y-40066366D01*
X122284309Y-40000808D01*
X122353000Y-39928441D01*
X122425604Y-39852112D01*
X122469040Y-39806524D01*
X122550584Y-39721119D01*
X122616496Y-39652710D01*
X122668456Y-39600053D01*
X122708145Y-39561905D01*
X122737243Y-39537020D01*
X122757431Y-39524156D01*
X122770390Y-39522068D01*
X122777800Y-39529513D01*
X122781342Y-39545246D01*
X122782697Y-39568023D01*
X122782879Y-39574239D01*
X122792297Y-39617061D01*
X122815503Y-39668819D01*
X122847864Y-39721328D01*
X122884748Y-39766403D01*
X122899507Y-39780328D01*
X122975233Y-39829047D01*
X123063692Y-39856306D01*
X123141900Y-39862773D01*
X123230532Y-39850576D01*
X123312388Y-39814813D01*
X123384836Y-39756722D01*
X123398203Y-39742262D01*
X123447082Y-39686733D01*
X124292674Y-39686733D01*
X124292674Y-39862773D01*
X124519010Y-39862773D01*
X124519010Y-39780531D01*
X124521850Y-39724386D01*
X124531393Y-39685416D01*
X124542991Y-39664219D01*
X124551277Y-39649052D01*
X124558373Y-39627062D01*
X124564748Y-39594987D01*
X124570872Y-39549569D01*
X124577216Y-39487548D01*
X124584250Y-39405662D01*
X124589066Y-39344746D01*
X124611161Y-39059343D01*
X125153565Y-39608805D01*
X125251637Y-39708228D01*
X125345784Y-39803815D01*
X125434285Y-39893810D01*
X125515420Y-39976457D01*
X125587469Y-40050001D01*
X125648712Y-40112684D01*
X125697427Y-40162752D01*
X125731896Y-40198448D01*
X125750379Y-40217995D01*
X125780743Y-40248944D01*
X125806071Y-40270530D01*
X125819695Y-40277723D01*
X125837095Y-40269297D01*
X125862460Y-40248245D01*
X125871058Y-40239671D01*
X125907514Y-40201620D01*
X125706802Y-39997658D01*
X125655596Y-39945699D01*
X125589569Y-39878820D01*
X125511618Y-39799950D01*
X125424638Y-39712014D01*
X125331526Y-39617941D01*
X125235179Y-39520658D01*
X125138492Y-39423093D01*
X125069134Y-39353145D01*
X124963703Y-39246550D01*
X124875129Y-39156307D01*
X124802281Y-39081192D01*
X124744023Y-39019986D01*
X124699225Y-38971466D01*
X124677021Y-38946129D01*
X124498724Y-38946129D01*
X124476401Y-39231555D01*
X124469669Y-39315219D01*
X124463157Y-39391727D01*
X124457234Y-39457081D01*
X124452268Y-39507281D01*
X124448629Y-39538329D01*
X124447458Y-39545273D01*
X124440838Y-39573565D01*
X123491364Y-39573565D01*
X123485026Y-39494606D01*
X123465890Y-39401315D01*
X123425846Y-39318791D01*
X123367418Y-39250038D01*
X123293129Y-39198063D01*
X123209748Y-39166863D01*
X123182698Y-39152228D01*
X123169156Y-39120819D01*
X123168872Y-39119434D01*
X123167247Y-39106174D01*
X123169256Y-39092595D01*
X123176858Y-39076181D01*
X123192016Y-39054411D01*
X123216688Y-39024767D01*
X123252836Y-38984732D01*
X123302420Y-38931785D01*
X123367401Y-38863409D01*
X123371599Y-38859005D01*
X123441493Y-38785611D01*
X123515800Y-38707437D01*
X123589414Y-38629864D01*
X123657229Y-38558275D01*
X123714140Y-38498051D01*
X123726832Y-38484587D01*
X123775487Y-38433820D01*
X123818709Y-38390375D01*
X123853395Y-38357241D01*
X123876444Y-38337405D01*
X123884182Y-38333046D01*
X123895722Y-38342170D01*
X123922710Y-38367200D01*
X123963021Y-38406052D01*
X124014529Y-38456643D01*
X124075109Y-38516888D01*
X124142636Y-38584704D01*
X124197826Y-38640565D01*
X124498724Y-38946129D01*
X124677021Y-38946129D01*
X124666751Y-38934411D01*
X124645471Y-38907599D01*
X124634251Y-38889808D01*
X124631754Y-38881570D01*
X124632700Y-38863590D01*
X124635573Y-38822892D01*
X124640187Y-38761819D01*
X124646358Y-38682713D01*
X124653898Y-38587914D01*
X124662621Y-38479767D01*
X124672343Y-38360612D01*
X124682876Y-38232791D01*
X124691365Y-38130635D01*
X124739396Y-37554674D01*
X124615805Y-37554674D01*
X124615273Y-37567104D01*
X124612769Y-37602110D01*
X124608496Y-37657215D01*
X124602653Y-37729943D01*
X124595443Y-37817814D01*
X124587066Y-37918351D01*
X124577723Y-38029077D01*
X124568758Y-38134205D01*
X124558602Y-38253483D01*
X124549142Y-38366080D01*
X124540596Y-38469305D01*
X124533179Y-38560473D01*
X124527108Y-38636895D01*
X124522601Y-38695883D01*
X124519873Y-38734749D01*
X124519116Y-38749844D01*
X124517935Y-38759238D01*
X124513256Y-38762966D01*
X124503276Y-38759471D01*
X124486190Y-38747199D01*
X124460196Y-38724594D01*
X124423490Y-38690100D01*
X124374267Y-38642162D01*
X124310726Y-38579224D01*
X124243305Y-38511968D01*
X123967601Y-38236477D01*
X123969533Y-38234406D01*
X123787290Y-38234406D01*
X123778984Y-38245780D01*
X123755733Y-38272563D01*
X123719865Y-38312292D01*
X123673713Y-38362507D01*
X123619606Y-38420746D01*
X123559874Y-38484547D01*
X123496848Y-38551449D01*
X123432858Y-38618990D01*
X123370236Y-38684710D01*
X123311310Y-38746146D01*
X123258412Y-38800837D01*
X123213872Y-38846322D01*
X123180020Y-38880138D01*
X123159188Y-38899826D01*
X123153506Y-38903837D01*
X123151634Y-38890891D01*
X123147746Y-38855134D01*
X123142057Y-38798804D01*
X123134781Y-38724140D01*
X123126131Y-38633380D01*
X123116322Y-38528762D01*
X123105566Y-38412526D01*
X123094079Y-38286908D01*
X123084907Y-38185618D01*
X123073174Y-38054279D01*
X123062335Y-37930552D01*
X123052570Y-37816681D01*
X123044063Y-37714911D01*
X123036995Y-37627487D01*
X123031549Y-37556653D01*
X123027908Y-37504653D01*
X123026253Y-37473732D01*
X123026442Y-37465703D01*
X123036334Y-37472854D01*
X123061524Y-37495841D01*
X123099810Y-37532439D01*
X123148989Y-37580422D01*
X123206861Y-37637566D01*
X123271222Y-37701647D01*
X123339871Y-37770438D01*
X123410605Y-37841716D01*
X123481222Y-37913255D01*
X123549520Y-37982830D01*
X123613296Y-38048217D01*
X123670350Y-38107191D01*
X123718478Y-38157527D01*
X123755478Y-38196999D01*
X123779148Y-38223383D01*
X123787290Y-38234406D01*
X123969533Y-38234406D01*
X124070409Y-38126295D01*
X124122768Y-38070377D01*
X124181535Y-38007948D01*
X124244385Y-37941443D01*
X124308995Y-37873298D01*
X124373042Y-37805948D01*
X124434203Y-37741828D01*
X124490153Y-37683372D01*
X124538570Y-37633018D01*
X124577130Y-37593198D01*
X124603509Y-37566350D01*
X124615384Y-37554908D01*
X124615805Y-37554674D01*
X124739396Y-37554674D01*
X124751401Y-37410726D01*
X125351938Y-36779158D01*
X125952475Y-36147589D01*
X125952034Y-36059315D01*
X125951592Y-35971040D01*
X125854583Y-36074666D01*
X125800291Y-36132463D01*
X125736192Y-36200368D01*
X125664016Y-36276572D01*
X125585492Y-36359269D01*
X125502349Y-36446653D01*
X125416319Y-36536915D01*
X125329130Y-36628250D01*
X125242513Y-36718849D01*
X125158197Y-36806907D01*
X125077912Y-36890615D01*
X125003387Y-36968167D01*
X124936354Y-37037757D01*
X124878541Y-37097576D01*
X124831679Y-37145818D01*
X124797496Y-37180676D01*
X124777724Y-37200343D01*
X124773390Y-37204116D01*
X124773092Y-37190992D01*
X124774731Y-37157389D01*
X124778023Y-37107880D01*
X124782682Y-37047037D01*
X124784682Y-37022732D01*
X124799577Y-36844951D01*
X124682955Y-36844951D01*
X124676934Y-36873243D01*
X124673863Y-36895618D01*
X124669548Y-36937717D01*
X124664488Y-36994178D01*
X124659181Y-37059635D01*
X124657344Y-37083862D01*
X124651927Y-37153421D01*
X124646459Y-37218018D01*
X124641488Y-37271548D01*
X124637561Y-37307910D01*
X124636675Y-37314509D01*
X124633334Y-37328056D01*
X124626101Y-37343914D01*
X124613440Y-37363861D01*
X124593811Y-37389673D01*
X124565678Y-37423129D01*
X124527502Y-37466007D01*
X124477746Y-37520083D01*
X124414871Y-37587136D01*
X124337341Y-37668943D01*
X124258251Y-37751950D01*
X124179564Y-37834094D01*
X124106112Y-37910169D01*
X124039724Y-37978325D01*
X123982227Y-38036712D01*
X123935451Y-38083481D01*
X123901224Y-38116782D01*
X123881373Y-38134767D01*
X123877140Y-38137442D01*
X123866003Y-38127741D01*
X123839971Y-38102441D01*
X123801570Y-38064082D01*
X123753328Y-38015200D01*
X123697770Y-37958334D01*
X123657592Y-37916906D01*
X123447831Y-37700000D01*
X124066337Y-37700000D01*
X124066337Y-37461089D01*
X123311881Y-37461089D01*
X123311881Y-37567542D01*
X123173565Y-37429654D01*
X123075447Y-37331840D01*
X122884357Y-37331840D01*
X122882529Y-37347270D01*
X122873277Y-37355867D01*
X122850950Y-37359613D01*
X122809895Y-37360489D01*
X122802624Y-37360495D01*
X122720891Y-37360495D01*
X122720891Y-37141172D01*
X122802624Y-37222179D01*
X122848730Y-37271428D01*
X122876306Y-37309159D01*
X122884357Y-37331840D01*
X123075447Y-37331840D01*
X123035248Y-37291766D01*
X123035248Y-37168952D01*
X123034863Y-37112450D01*
X123033100Y-37076505D01*
X123029050Y-37056530D01*
X123021801Y-37047937D01*
X123010870Y-37046139D01*
X122998712Y-37043498D01*
X122989727Y-37032912D01*
X122982826Y-37010381D01*
X122976924Y-36971909D01*
X122970935Y-36913498D01*
X122969013Y-36892104D01*
X122964852Y-36844951D01*
X124682955Y-36844951D01*
X124799577Y-36844951D01*
X124959109Y-36844951D01*
X124959109Y-36731782D01*
X124891314Y-36731782D01*
X124851662Y-36730696D01*
X124830116Y-36725454D01*
X124827480Y-36722334D01*
X124688616Y-36722334D01*
X124681308Y-36729462D01*
X124655993Y-36731662D01*
X124638908Y-36731782D01*
X124581881Y-36731782D01*
X124369221Y-36731782D01*
X122954698Y-36731782D01*
X123002542Y-36682786D01*
X123076850Y-36622324D01*
X123168816Y-36575691D01*
X123279998Y-36542249D01*
X123390471Y-36523753D01*
X123462773Y-36515122D01*
X123462773Y-36606040D01*
X124041188Y-36606040D01*
X124041188Y-36502893D01*
X124126065Y-36511496D01*
X124185368Y-36518756D01*
X124248551Y-36528379D01*
X124286386Y-36535252D01*
X124361832Y-36550407D01*
X124365526Y-36641095D01*
X124369221Y-36731782D01*
X124581881Y-36731782D01*
X124581881Y-36681485D01*
X124583544Y-36649976D01*
X124587697Y-36632463D01*
X124589371Y-36631188D01*
X124607987Y-36639254D01*
X124635183Y-36658820D01*
X124662448Y-36682944D01*
X124681267Y-36704682D01*
X124682943Y-36707508D01*
X124688616Y-36722334D01*
X124827480Y-36722334D01*
X124819662Y-36713081D01*
X124815442Y-36699604D01*
X124798219Y-36664627D01*
X124765138Y-36622579D01*
X124721893Y-36579356D01*
X124674174Y-36540854D01*
X124642830Y-36520801D01*
X124607123Y-36498851D01*
X124588819Y-36480411D01*
X124582388Y-36458668D01*
X124581894Y-36445718D01*
X124581894Y-36442575D01*
X123940594Y-36442575D01*
X123940594Y-36505446D01*
X123563367Y-36505446D01*
X123563367Y-36442575D01*
X123940594Y-36442575D01*
X124581894Y-36442575D01*
X124581881Y-36404852D01*
X124476048Y-36404852D01*
X124427355Y-36406029D01*
X124389405Y-36409165D01*
X124368308Y-36413671D01*
X124366023Y-36415495D01*
X124352641Y-36418295D01*
X124320074Y-36417148D01*
X124273916Y-36412393D01*
X124242376Y-36408003D01*
X124185188Y-36399378D01*
X124132886Y-36391591D01*
X124093582Y-36385847D01*
X124082055Y-36384215D01*
X124051937Y-36374888D01*
X124041188Y-36360272D01*
X124037920Y-36354320D01*
X124026230Y-36349778D01*
X124003288Y-36346470D01*
X123966265Y-36344215D01*
X123912332Y-36342834D01*
X123838660Y-36342150D01*
X123751980Y-36341980D01*
X123659471Y-36342077D01*
X123589094Y-36342530D01*
X123537836Y-36343590D01*
X123502680Y-36345503D01*
X123480611Y-36348519D01*
X123468615Y-36352885D01*
X123463676Y-36358849D01*
X123462773Y-36365784D01*
X123455079Y-36387795D01*
X123429879Y-36400321D01*
X123383991Y-36404788D01*
X123375736Y-36404852D01*
X123298027Y-36412868D01*
X123209767Y-36434936D01*
X123118915Y-36468084D01*
X123033430Y-36509339D01*
X122961274Y-36555731D01*
X122951928Y-36563082D01*
X122921467Y-36586998D01*
X122903428Y-36596576D01*
X122890831Y-36593480D01*
X122877900Y-36580704D01*
X122839707Y-36555678D01*
X122790002Y-36546071D01*
X122736476Y-36551067D01*
X122686822Y-36569851D01*
X122648733Y-36601606D01*
X122645975Y-36605297D01*
X122617474Y-36664575D01*
X122612172Y-36725934D01*
X122629482Y-36784427D01*
X122668820Y-36835104D01*
X122673630Y-36839289D01*
X122701560Y-36859167D01*
X122729898Y-36867921D01*
X122769737Y-36868553D01*
X122779689Y-36867992D01*
X122818668Y-36866562D01*
X122838746Y-36869839D01*
X122846015Y-36879728D01*
X122846760Y-36888961D01*
X122848284Y-36915744D01*
X122852065Y-36956025D01*
X122854782Y-36980124D01*
X122858723Y-37018401D01*
X122857084Y-37037996D01*
X122847579Y-37045158D01*
X122830649Y-37046139D01*
X122820608Y-37042901D01*
X122804410Y-37032420D01*
X122780855Y-37013548D01*
X122748743Y-36985135D01*
X122706872Y-36946035D01*
X122654043Y-36895097D01*
X122589055Y-36831173D01*
X122510709Y-36753114D01*
X122417803Y-36659772D01*
X122309137Y-36549998D01*
X122256769Y-36496952D01*
X121714951Y-35947767D01*
X121715570Y-36034848D01*
G37*
X121715570Y-36034848D02*
X121716189Y-36121931D01*
X122167914Y-36580891D01*
X122619639Y-37039852D01*
X122619968Y-37250471D01*
X122620297Y-37461089D01*
X122895390Y-37461089D01*
X122902478Y-37514530D01*
X122905162Y-37538888D01*
X122909687Y-37584759D01*
X122915809Y-37649405D01*
X122923288Y-37730091D01*
X122931881Y-37824081D01*
X122941346Y-37928637D01*
X122951442Y-38041025D01*
X122961926Y-38158507D01*
X122972556Y-38278348D01*
X122983091Y-38397811D01*
X122993287Y-38514159D01*
X123002905Y-38624657D01*
X123011700Y-38726569D01*
X123019432Y-38817158D01*
X123025858Y-38893687D01*
X123030737Y-38953421D01*
X123033825Y-38993624D01*
X123034883Y-39011559D01*
X123034882Y-39011644D01*
X123027173Y-39026035D01*
X123004019Y-39055748D01*
X122965105Y-39101131D01*
X122910116Y-39162529D01*
X122838736Y-39240288D01*
X122750651Y-39334754D01*
X122645546Y-39446272D01*
X122523105Y-39575188D01*
X122488690Y-39611287D01*
X121942863Y-40183416D01*
X122031119Y-40271436D01*
X122102515Y-40193758D01*
X122128634Y-40165686D01*
X122169434Y-40122274D01*
X122222223Y-40066366D01*
X122284309Y-40000808D01*
X122353000Y-39928441D01*
X122425604Y-39852112D01*
X122469040Y-39806524D01*
X122550584Y-39721119D01*
X122616496Y-39652710D01*
X122668456Y-39600053D01*
X122708145Y-39561905D01*
X122737243Y-39537020D01*
X122757431Y-39524156D01*
X122770390Y-39522068D01*
X122777800Y-39529513D01*
X122781342Y-39545246D01*
X122782697Y-39568023D01*
X122782879Y-39574239D01*
X122792297Y-39617061D01*
X122815503Y-39668819D01*
X122847864Y-39721328D01*
X122884748Y-39766403D01*
X122899507Y-39780328D01*
X122975233Y-39829047D01*
X123063692Y-39856306D01*
X123141900Y-39862773D01*
X123230532Y-39850576D01*
X123312388Y-39814813D01*
X123384836Y-39756722D01*
X123398203Y-39742262D01*
X123447082Y-39686733D01*
X124292674Y-39686733D01*
X124292674Y-39862773D01*
X124519010Y-39862773D01*
X124519010Y-39780531D01*
X124521850Y-39724386D01*
X124531393Y-39685416D01*
X124542991Y-39664219D01*
X124551277Y-39649052D01*
X124558373Y-39627062D01*
X124564748Y-39594987D01*
X124570872Y-39549569D01*
X124577216Y-39487548D01*
X124584250Y-39405662D01*
X124589066Y-39344746D01*
X124611161Y-39059343D01*
X125153565Y-39608805D01*
X125251637Y-39708228D01*
X125345784Y-39803815D01*
X125434285Y-39893810D01*
X125515420Y-39976457D01*
X125587469Y-40050001D01*
X125648712Y-40112684D01*
X125697427Y-40162752D01*
X125731896Y-40198448D01*
X125750379Y-40217995D01*
X125780743Y-40248944D01*
X125806071Y-40270530D01*
X125819695Y-40277723D01*
X125837095Y-40269297D01*
X125862460Y-40248245D01*
X125871058Y-40239671D01*
X125907514Y-40201620D01*
X125706802Y-39997658D01*
X125655596Y-39945699D01*
X125589569Y-39878820D01*
X125511618Y-39799950D01*
X125424638Y-39712014D01*
X125331526Y-39617941D01*
X125235179Y-39520658D01*
X125138492Y-39423093D01*
X125069134Y-39353145D01*
X124963703Y-39246550D01*
X124875129Y-39156307D01*
X124802281Y-39081192D01*
X124744023Y-39019986D01*
X124699225Y-38971466D01*
X124677021Y-38946129D01*
X124498724Y-38946129D01*
X124476401Y-39231555D01*
X124469669Y-39315219D01*
X124463157Y-39391727D01*
X124457234Y-39457081D01*
X124452268Y-39507281D01*
X124448629Y-39538329D01*
X124447458Y-39545273D01*
X124440838Y-39573565D01*
X123491364Y-39573565D01*
X123485026Y-39494606D01*
X123465890Y-39401315D01*
X123425846Y-39318791D01*
X123367418Y-39250038D01*
X123293129Y-39198063D01*
X123209748Y-39166863D01*
X123182698Y-39152228D01*
X123169156Y-39120819D01*
X123168872Y-39119434D01*
X123167247Y-39106174D01*
X123169256Y-39092595D01*
X123176858Y-39076181D01*
X123192016Y-39054411D01*
X123216688Y-39024767D01*
X123252836Y-38984732D01*
X123302420Y-38931785D01*
X123367401Y-38863409D01*
X123371599Y-38859005D01*
X123441493Y-38785611D01*
X123515800Y-38707437D01*
X123589414Y-38629864D01*
X123657229Y-38558275D01*
X123714140Y-38498051D01*
X123726832Y-38484587D01*
X123775487Y-38433820D01*
X123818709Y-38390375D01*
X123853395Y-38357241D01*
X123876444Y-38337405D01*
X123884182Y-38333046D01*
X123895722Y-38342170D01*
X123922710Y-38367200D01*
X123963021Y-38406052D01*
X124014529Y-38456643D01*
X124075109Y-38516888D01*
X124142636Y-38584704D01*
X124197826Y-38640565D01*
X124498724Y-38946129D01*
X124677021Y-38946129D01*
X124666751Y-38934411D01*
X124645471Y-38907599D01*
X124634251Y-38889808D01*
X124631754Y-38881570D01*
X124632700Y-38863590D01*
X124635573Y-38822892D01*
X124640187Y-38761819D01*
X124646358Y-38682713D01*
X124653898Y-38587914D01*
X124662621Y-38479767D01*
X124672343Y-38360612D01*
X124682876Y-38232791D01*
X124691365Y-38130635D01*
X124739396Y-37554674D01*
X124615805Y-37554674D01*
X124615273Y-37567104D01*
X124612769Y-37602110D01*
X124608496Y-37657215D01*
X124602653Y-37729943D01*
X124595443Y-37817814D01*
X124587066Y-37918351D01*
X124577723Y-38029077D01*
X124568758Y-38134205D01*
X124558602Y-38253483D01*
X124549142Y-38366080D01*
X124540596Y-38469305D01*
X124533179Y-38560473D01*
X124527108Y-38636895D01*
X124522601Y-38695883D01*
X124519873Y-38734749D01*
X124519116Y-38749844D01*
X124517935Y-38759238D01*
X124513256Y-38762966D01*
X124503276Y-38759471D01*
X124486190Y-38747199D01*
X124460196Y-38724594D01*
X124423490Y-38690100D01*
X124374267Y-38642162D01*
X124310726Y-38579224D01*
X124243305Y-38511968D01*
X123967601Y-38236477D01*
X123969533Y-38234406D01*
X123787290Y-38234406D01*
X123778984Y-38245780D01*
X123755733Y-38272563D01*
X123719865Y-38312292D01*
X123673713Y-38362507D01*
X123619606Y-38420746D01*
X123559874Y-38484547D01*
X123496848Y-38551449D01*
X123432858Y-38618990D01*
X123370236Y-38684710D01*
X123311310Y-38746146D01*
X123258412Y-38800837D01*
X123213872Y-38846322D01*
X123180020Y-38880138D01*
X123159188Y-38899826D01*
X123153506Y-38903837D01*
X123151634Y-38890891D01*
X123147746Y-38855134D01*
X123142057Y-38798804D01*
X123134781Y-38724140D01*
X123126131Y-38633380D01*
X123116322Y-38528762D01*
X123105566Y-38412526D01*
X123094079Y-38286908D01*
X123084907Y-38185618D01*
X123073174Y-38054279D01*
X123062335Y-37930552D01*
X123052570Y-37816681D01*
X123044063Y-37714911D01*
X123036995Y-37627487D01*
X123031549Y-37556653D01*
X123027908Y-37504653D01*
X123026253Y-37473732D01*
X123026442Y-37465703D01*
X123036334Y-37472854D01*
X123061524Y-37495841D01*
X123099810Y-37532439D01*
X123148989Y-37580422D01*
X123206861Y-37637566D01*
X123271222Y-37701647D01*
X123339871Y-37770438D01*
X123410605Y-37841716D01*
X123481222Y-37913255D01*
X123549520Y-37982830D01*
X123613296Y-38048217D01*
X123670350Y-38107191D01*
X123718478Y-38157527D01*
X123755478Y-38196999D01*
X123779148Y-38223383D01*
X123787290Y-38234406D01*
X123969533Y-38234406D01*
X124070409Y-38126295D01*
X124122768Y-38070377D01*
X124181535Y-38007948D01*
X124244385Y-37941443D01*
X124308995Y-37873298D01*
X124373042Y-37805948D01*
X124434203Y-37741828D01*
X124490153Y-37683372D01*
X124538570Y-37633018D01*
X124577130Y-37593198D01*
X124603509Y-37566350D01*
X124615384Y-37554908D01*
X124615805Y-37554674D01*
X124739396Y-37554674D01*
X124751401Y-37410726D01*
X125351938Y-36779158D01*
X125952475Y-36147589D01*
X125952034Y-36059315D01*
X125951592Y-35971040D01*
X125854583Y-36074666D01*
X125800291Y-36132463D01*
X125736192Y-36200368D01*
X125664016Y-36276572D01*
X125585492Y-36359269D01*
X125502349Y-36446653D01*
X125416319Y-36536915D01*
X125329130Y-36628250D01*
X125242513Y-36718849D01*
X125158197Y-36806907D01*
X125077912Y-36890615D01*
X125003387Y-36968167D01*
X124936354Y-37037757D01*
X124878541Y-37097576D01*
X124831679Y-37145818D01*
X124797496Y-37180676D01*
X124777724Y-37200343D01*
X124773390Y-37204116D01*
X124773092Y-37190992D01*
X124774731Y-37157389D01*
X124778023Y-37107880D01*
X124782682Y-37047037D01*
X124784682Y-37022732D01*
X124799577Y-36844951D01*
X124682955Y-36844951D01*
X124676934Y-36873243D01*
X124673863Y-36895618D01*
X124669548Y-36937717D01*
X124664488Y-36994178D01*
X124659181Y-37059635D01*
X124657344Y-37083862D01*
X124651927Y-37153421D01*
X124646459Y-37218018D01*
X124641488Y-37271548D01*
X124637561Y-37307910D01*
X124636675Y-37314509D01*
X124633334Y-37328056D01*
X124626101Y-37343914D01*
X124613440Y-37363861D01*
X124593811Y-37389673D01*
X124565678Y-37423129D01*
X124527502Y-37466007D01*
X124477746Y-37520083D01*
X124414871Y-37587136D01*
X124337341Y-37668943D01*
X124258251Y-37751950D01*
X124179564Y-37834094D01*
X124106112Y-37910169D01*
X124039724Y-37978325D01*
X123982227Y-38036712D01*
X123935451Y-38083481D01*
X123901224Y-38116782D01*
X123881373Y-38134767D01*
X123877140Y-38137442D01*
X123866003Y-38127741D01*
X123839971Y-38102441D01*
X123801570Y-38064082D01*
X123753328Y-38015200D01*
X123697770Y-37958334D01*
X123657592Y-37916906D01*
X123447831Y-37700000D01*
X124066337Y-37700000D01*
X124066337Y-37461089D01*
X123311881Y-37461089D01*
X123311881Y-37567542D01*
X123173565Y-37429654D01*
X123075447Y-37331840D01*
X122884357Y-37331840D01*
X122882529Y-37347270D01*
X122873277Y-37355867D01*
X122850950Y-37359613D01*
X122809895Y-37360489D01*
X122802624Y-37360495D01*
X122720891Y-37360495D01*
X122720891Y-37141172D01*
X122802624Y-37222179D01*
X122848730Y-37271428D01*
X122876306Y-37309159D01*
X122884357Y-37331840D01*
X123075447Y-37331840D01*
X123035248Y-37291766D01*
X123035248Y-37168952D01*
X123034863Y-37112450D01*
X123033100Y-37076505D01*
X123029050Y-37056530D01*
X123021801Y-37047937D01*
X123010870Y-37046139D01*
X122998712Y-37043498D01*
X122989727Y-37032912D01*
X122982826Y-37010381D01*
X122976924Y-36971909D01*
X122970935Y-36913498D01*
X122969013Y-36892104D01*
X122964852Y-36844951D01*
X124682955Y-36844951D01*
X124799577Y-36844951D01*
X124959109Y-36844951D01*
X124959109Y-36731782D01*
X124891314Y-36731782D01*
X124851662Y-36730696D01*
X124830116Y-36725454D01*
X124827480Y-36722334D01*
X124688616Y-36722334D01*
X124681308Y-36729462D01*
X124655993Y-36731662D01*
X124638908Y-36731782D01*
X124581881Y-36731782D01*
X124369221Y-36731782D01*
X122954698Y-36731782D01*
X123002542Y-36682786D01*
X123076850Y-36622324D01*
X123168816Y-36575691D01*
X123279998Y-36542249D01*
X123390471Y-36523753D01*
X123462773Y-36515122D01*
X123462773Y-36606040D01*
X124041188Y-36606040D01*
X124041188Y-36502893D01*
X124126065Y-36511496D01*
X124185368Y-36518756D01*
X124248551Y-36528379D01*
X124286386Y-36535252D01*
X124361832Y-36550407D01*
X124365526Y-36641095D01*
X124369221Y-36731782D01*
X124581881Y-36731782D01*
X124581881Y-36681485D01*
X124583544Y-36649976D01*
X124587697Y-36632463D01*
X124589371Y-36631188D01*
X124607987Y-36639254D01*
X124635183Y-36658820D01*
X124662448Y-36682944D01*
X124681267Y-36704682D01*
X124682943Y-36707508D01*
X124688616Y-36722334D01*
X124827480Y-36722334D01*
X124819662Y-36713081D01*
X124815442Y-36699604D01*
X124798219Y-36664627D01*
X124765138Y-36622579D01*
X124721893Y-36579356D01*
X124674174Y-36540854D01*
X124642830Y-36520801D01*
X124607123Y-36498851D01*
X124588819Y-36480411D01*
X124582388Y-36458668D01*
X124581894Y-36445718D01*
X124581894Y-36442575D01*
X123940594Y-36442575D01*
X123940594Y-36505446D01*
X123563367Y-36505446D01*
X123563367Y-36442575D01*
X123940594Y-36442575D01*
X124581894Y-36442575D01*
X124581881Y-36404852D01*
X124476048Y-36404852D01*
X124427355Y-36406029D01*
X124389405Y-36409165D01*
X124368308Y-36413671D01*
X124366023Y-36415495D01*
X124352641Y-36418295D01*
X124320074Y-36417148D01*
X124273916Y-36412393D01*
X124242376Y-36408003D01*
X124185188Y-36399378D01*
X124132886Y-36391591D01*
X124093582Y-36385847D01*
X124082055Y-36384215D01*
X124051937Y-36374888D01*
X124041188Y-36360272D01*
X124037920Y-36354320D01*
X124026230Y-36349778D01*
X124003288Y-36346470D01*
X123966265Y-36344215D01*
X123912332Y-36342834D01*
X123838660Y-36342150D01*
X123751980Y-36341980D01*
X123659471Y-36342077D01*
X123589094Y-36342530D01*
X123537836Y-36343590D01*
X123502680Y-36345503D01*
X123480611Y-36348519D01*
X123468615Y-36352885D01*
X123463676Y-36358849D01*
X123462773Y-36365784D01*
X123455079Y-36387795D01*
X123429879Y-36400321D01*
X123383991Y-36404788D01*
X123375736Y-36404852D01*
X123298027Y-36412868D01*
X123209767Y-36434936D01*
X123118915Y-36468084D01*
X123033430Y-36509339D01*
X122961274Y-36555731D01*
X122951928Y-36563082D01*
X122921467Y-36586998D01*
X122903428Y-36596576D01*
X122890831Y-36593480D01*
X122877900Y-36580704D01*
X122839707Y-36555678D01*
X122790002Y-36546071D01*
X122736476Y-36551067D01*
X122686822Y-36569851D01*
X122648733Y-36601606D01*
X122645975Y-36605297D01*
X122617474Y-36664575D01*
X122612172Y-36725934D01*
X122629482Y-36784427D01*
X122668820Y-36835104D01*
X122673630Y-36839289D01*
X122701560Y-36859167D01*
X122729898Y-36867921D01*
X122769737Y-36868553D01*
X122779689Y-36867992D01*
X122818668Y-36866562D01*
X122838746Y-36869839D01*
X122846015Y-36879728D01*
X122846760Y-36888961D01*
X122848284Y-36915744D01*
X122852065Y-36956025D01*
X122854782Y-36980124D01*
X122858723Y-37018401D01*
X122857084Y-37037996D01*
X122847579Y-37045158D01*
X122830649Y-37046139D01*
X122820608Y-37042901D01*
X122804410Y-37032420D01*
X122780855Y-37013548D01*
X122748743Y-36985135D01*
X122706872Y-36946035D01*
X122654043Y-36895097D01*
X122589055Y-36831173D01*
X122510709Y-36753114D01*
X122417803Y-36659772D01*
X122309137Y-36549998D01*
X122256769Y-36496952D01*
X121714951Y-35947767D01*
X121715570Y-36034848D01*
G36*
X122092178Y-41987822D02*
G01*
X125612971Y-41987822D01*
X125612971Y-41120198D01*
X122092178Y-41120198D01*
X122092178Y-41987822D01*
G37*
X122092178Y-41987822D02*
X125612971Y-41987822D01*
X125612971Y-41120198D01*
X122092178Y-41120198D01*
X122092178Y-41987822D01*
M02*
